<?xml version="1.0" encoding="UTF-8" standalone="no"?>
<!DOCTYPE svg PUBLIC "-//W3C//DTD SVG 1.1//EN" "http://www.w3.org/Graphics/SVG/1.1/DTD/svg11.dtd">
<svg version="1.1" xmlns="http://www.w3.org/2000/svg" xmlns:xlink="http://www.w3.org/1999/xlink" preserveAspectRatio="xMidYMid meet" viewBox="251.19257086999056 254.5 131 131" width="131" height="131"><defs><path d="M251.19 254.5L382.19 254.5L382.19 385.5L251.19 385.5L251.19 254.5Z" id="cIriH2E9Q"></path><path d="M337.29 350.2L331.01 382.22L304.67 382.22L296.82 350.04L337.29 350.2Z" id="d1grWpqoOu"></path><path d="M334.3 340.1L341.79 331.45L342.42 316.33L327.54 308.83L328.42 306.06L346.95 289.95L344.79 278.95L336.92 276.58L330.17 291.43L331.42 278.95L323.29 262.2L312.67 261.83L306.67 269.7L304.29 296.81L304.79 314.18L299.17 306.06L297.04 298.31L294.04 297.68L293.29 291.43L281.79 285.31L277.92 287.93L277.92 311.59L284.67 313.09L298.6 340.55L334.3 340.1Z" id="byxAYzgK7"></path><path d="M342.42 339.59L342.04 350.59L292.42 350.97L291.17 340.09L342.42 339.59Z" id="a1u5s8D3UT"></path><path d="M277.92 311.62L282.55 312.65L281.96 307.6L277.92 307.6L277.92 311.62Z" id="aV5nU9c7Y"></path><path d="M277.92 287.79L281.82 285.31L283.72 286.55L277.92 290.21L277.92 287.79Z" id="a2nKLzeMB"></path><path d="M297.04 298.17L298.34 302.41L294.75 302.71L294.02 297.74L297.04 298.17Z" id="aCsPjydK8"></path><path d="M305.5 318.86L300.31 316.16L304.11 313.96L305.5 318.86Z" id="b1lvMsQWgM"></path><path d="M296.51 336.33L298.92 330.63L293.66 330.85L296.51 336.33Z" id="a3uv5ZPVR"></path><path d="M317.22 339.87L314.73 335.93L310.93 339.87L317.22 339.87Z" id="j1dyZp1zx1"></path><path d="M341.79 331.71L341.94 328.49L339.75 326.37L339.25 334.41L341.79 331.71Z" id="a2ncdlPn5i"></path><path d="M324.83 321.91L327.03 323.52L328.78 319.35L325.86 317.3L321.03 321.33L324.83 321.91Z" id="ababwISt"></path><path d="M318.18 305.28L314.53 301.84L312.23 304.69L318.18 305.28Z" id="a16zfPg4Y0"></path><path d="M324.32 284.81L327.98 289.2L323.45 291.02L320.16 293.66L320.16 284.81L324.32 284.81Z" id="bq6NaTzUw"></path><path d="M329.37 305.43L333.9 301.41L329.37 298.78L329.37 305.43Z" id="a2BLEpvYxa"></path><path d="M306.56 269.83L312.7 261.83L314.82 262.01L306.56 274.51L306.56 269.83Z" id="e1Um2BZkpf"></path><path d="M344.94 278.9L345.52 284.09L340.55 279.7L343.26 278.46L344.94 278.9Z" id="a3J0TRBXz6"></path></defs><g><g><g><use xlink:href="#cIriH2E9Q" opacity="1" fill="#9b7647" fill-opacity="1"></use></g><g><use xlink:href="#d1grWpqoOu" opacity="1" fill="#d25106" fill-opacity="1"></use></g><g><use xlink:href="#byxAYzgK7" opacity="1" fill="#bac869" fill-opacity="1"></use></g><g><use xlink:href="#a1u5s8D3UT" opacity="1" fill="#d27a47" fill-opacity="1"></use></g><g><use xlink:href="#aV5nU9c7Y" opacity="1" fill="#e2245e" fill-opacity="1"></use></g><g><use xlink:href="#a2nKLzeMB" opacity="1" fill="#e2245e" fill-opacity="1"></use></g><g><use xlink:href="#aCsPjydK8" opacity="1" fill="#e2245e" fill-opacity="1"></use></g><g><use xlink:href="#b1lvMsQWgM" opacity="1" fill="#e2245e" fill-opacity="1"></use></g><g><use xlink:href="#a3uv5ZPVR" opacity="1" fill="#e2245e" fill-opacity="1"></use></g><g><use xlink:href="#j1dyZp1zx1" opacity="1" fill="#e2245e" fill-opacity="1"></use></g><g><use xlink:href="#a2ncdlPn5i" opacity="1" fill="#e2245e" fill-opacity="1"></use></g><g><use xlink:href="#ababwISt" opacity="1" fill="#e2245e" fill-opacity="1"></use></g><g><use xlink:href="#a16zfPg4Y0" opacity="1" fill="#e2245e" fill-opacity="1"></use></g><g><use xlink:href="#bq6NaTzUw" opacity="1" fill="#e2245e" fill-opacity="1"></use></g><g><use xlink:href="#a2BLEpvYxa" opacity="1" fill="#e2245e" fill-opacity="1"></use></g><g><use xlink:href="#e1Um2BZkpf" opacity="1" fill="#e2245e" fill-opacity="1"></use></g><g><use xlink:href="#a3J0TRBXz6" opacity="1" fill="#e2245e" fill-opacity="1"></use></g></g></g></svg>