<?xml version="1.0" encoding="UTF-8" standalone="no"?>
<!DOCTYPE svg PUBLIC "-//W3C//DTD SVG 1.1//EN" "http://www.w3.org/Graphics/SVG/1.1/DTD/svg11.dtd">
<svg version="1.1" xmlns="http://www.w3.org/2000/svg" xmlns:xlink="http://www.w3.org/1999/xlink" preserveAspectRatio="xMidYMid meet" viewBox="237.5242879654877 186.1313855399876 131 131" width="131" height="131"><defs><path d="M237.52 186.13L368.52 186.13L368.52 317.13L237.52 317.13L237.52 186.13Z" id="bdZsCmF7B"></path><path d="M350.97 253.25L349.82 270.01L341.66 270.01L322.45 316.89L280.27 316.89L262.67 267.17L259.84 267.17L260.31 251.63L350.97 253.25Z" id="c5NxBxP6uF"></path><path d="M283.34 225.19L294.36 211.5L315.14 211.5L324.72 230.08L323.19 238.13L321.66 238.13L321.66 239.66L330.85 252.67L330.37 254.78L326.64 259.57L315.62 259.86L315.91 252.67L292.16 253.06L290.82 260.34L281.24 260.91L278.75 257.27L279.99 251.91L285.55 241.37L283.34 225.19Z" id="b34b3wQo2C"></path><path d="M255.06 216.16L273.74 220.28L280.15 218.08L273.74 210.22L255.35 209.84L250.46 213.38L255.06 216.16Z" id="blMsHjNKx"></path><path d="M249.98 213.38L247.3 215.11L254.77 227.37L266.65 228.42L282.07 220.28L280.25 218.08L249.98 213.38Z" id="a2bwYMlHqS"></path><path d="M270.48 190.97L292.22 201.6L282.84 202.85L269.52 197.96L266.94 190.97L270.48 190.97Z" id="a4Q8IQXLXa"></path><path d="M367.12 221.25L368.08 223.74L356.2 237.92L350.97 238.3L338.77 235.04L329.19 224.7L367.12 221.25Z" id="f5gDfwWEwV"></path><path d="M308.06 210.42L308.34 199.98L305.4 195.39L286.12 188.01L270.51 190.97L308.06 210.42Z" id="afXRXlgbc"></path><path d="M360.18 210.96L347.06 208.76L329.72 218.72L328.19 217.19L320.72 221.88L329.19 224.95L367.18 221.25L360.18 210.96Z" id="aSzKIVoaq"></path></defs><g><g><g><use xlink:href="#bdZsCmF7B" opacity="1" fill="#9b7647" fill-opacity="1"></use></g><g><use xlink:href="#c5NxBxP6uF" opacity="1" fill="#94433f" fill-opacity="1"></use></g><g><use xlink:href="#b34b3wQo2C" opacity="1" fill="#dead4f" fill-opacity="1"></use></g><g><use xlink:href="#blMsHjNKx" opacity="1" fill="#53aa6a" fill-opacity="1"></use></g><g><use xlink:href="#a2bwYMlHqS" opacity="1" fill="#93cd56" fill-opacity="1"></use></g><g><use xlink:href="#a4Q8IQXLXa" opacity="1" fill="#93cd56" fill-opacity="1"></use></g><g><use xlink:href="#f5gDfwWEwV" opacity="1" fill="#93cd56" fill-opacity="1"></use></g><g><use xlink:href="#afXRXlgbc" opacity="1" fill="#53aa6a" fill-opacity="1"></use></g><g><use xlink:href="#aSzKIVoaq" opacity="1" fill="#53aa6a" fill-opacity="1"></use></g></g></g></svg>