<?xml version="1.0" encoding="UTF-8" standalone="no"?>
<!DOCTYPE svg PUBLIC "-//W3C//DTD SVG 1.1//EN" "http://www.w3.org/Graphics/SVG/1.1/DTD/svg11.dtd">
<svg version="1.1" xmlns="http://www.w3.org/2000/svg" xmlns:xlink="http://www.w3.org/1999/xlink" preserveAspectRatio="xMidYMid meet" viewBox="284.7074228715162 80.41034579022494 131 131" width="131" height="131"><defs><path d="M284.71 80.41L415.71 80.41L415.71 211.41L284.71 211.41L284.71 80.41Z" id="aiaePnDpU"></path><path d="M353.62 102.33L389.8 117.14L381.8 195.97L322.88 195.29L315.34 118.96L305.75 142.24L313.56 169.9L291.57 211.41L289.18 211.41L311.7 168.28L303.83 142.81L315.02 116.52L353.62 102.33Z" id="apSTNZ3b"></path><path d="M350.9 101.86L299.38 120.03L299.07 118.95L295.6 118.72L295.91 124.66L300.23 122.73L299.77 121.73L354.32 103.42L408.41 126.11L408.1 128.12L412.11 129.5L411.88 124.03L409.57 123.1L408.95 124.03L356.56 102.6L388.5 91.87L380.17 91.87L352.93 101.29L330.78 92.64L350.9 101.86Z" id="b2mbVw9uEM"></path><path d="M343.97 138.46L344.36 152.96L359.79 152.96L359.79 138.15L361.49 138.15L361.72 172.02L359.79 172.02L359.79 155.97L343.97 155.97L343.97 172.02L342.04 172.02L341.73 138.46L343.97 138.46Z" id="b68sUtRHbd"></path></defs><g><g><g><use xlink:href="#aiaePnDpU" opacity="1" fill="#9b7647" fill-opacity="1"></use></g><g><use xlink:href="#apSTNZ3b" opacity="1" fill="#2b467e" fill-opacity="1"></use></g><g><use xlink:href="#b2mbVw9uEM" opacity="1" fill="#755245" fill-opacity="1"></use></g><g><use xlink:href="#b68sUtRHbd" opacity="1" fill="#eddc31" fill-opacity="1"></use></g></g></g></svg>