<?xml version="1.0" encoding="UTF-8" standalone="no"?>
<!DOCTYPE svg PUBLIC "-//W3C//DTD SVG 1.1//EN" "http://www.w3.org/Graphics/SVG/1.1/DTD/svg11.dtd">
<svg version="1.1" xmlns="http://www.w3.org/2000/svg" xmlns:xlink="http://www.w3.org/1999/xlink" preserveAspectRatio="xMidYMid meet" viewBox="174.29792327488167 153.48973607038118 262.13707183753274 262.1708618442488" width="262.14" height="262.17"><defs><path d="M174.43 153.66L436.43 153.66L436.43 415.66L174.43 415.66L174.43 153.66Z" id="bHav4iGOn"></path><path d="M174.3 409.43L237.51 371.5L289.87 406.61L340.96 375.57L399.58 411.31L401.15 209.74L342.53 172.44L291.75 202.84L239.71 169.3L174.3 207.86L174.3 409.43Z" id="cNhSkx4r0"></path><path d="M187.67 394.38L239.08 363.03L291.43 397.51L340.96 365.54L391.75 397.51L393.31 213.19L342.22 181.84L291.43 213.19L241.28 179.96L190.18 210.05L187.67 394.38Z" id="d5yQMtIHbc"></path><path d="M436.3 153.49L436.3 415.66L400.21 415.66L400.21 153.49L436.3 153.49Z" id="ctHXgZ50w"></path><path d="M400.21 238.89L436.3 236.39L436.3 207.86L400.21 212.87L400.21 238.89Z" id="c3LSe784X"></path></defs><g><g><g><use xlink:href="#bHav4iGOn" opacity="1" fill="#9b7647" fill-opacity="1"></use></g><g><use xlink:href="#cNhSkx4r0" opacity="1" fill="#473e34" fill-opacity="1"></use></g><g><use xlink:href="#d5yQMtIHbc" opacity="1" fill="#b6ad92" fill-opacity="1"></use></g><g><use xlink:href="#ctHXgZ50w" opacity="1" fill="#823ca2" fill-opacity="1"></use></g><g><use xlink:href="#c3LSe784X" opacity="1" fill="#eddb2d" fill-opacity="1"></use></g></g></g></svg>