<?xml version="1.0" encoding="UTF-8" standalone="no"?>
<!DOCTYPE svg PUBLIC "-//W3C//DTD SVG 1.1//EN" "http://www.w3.org/Graphics/SVG/1.1/DTD/svg11.dtd">
<svg version="1.1" xmlns="http://www.w3.org/2000/svg" xmlns:xlink="http://www.w3.org/1999/xlink" preserveAspectRatio="xMidYMid meet" viewBox="164.12512218963838 98.31867057673503 261.99999999999994 262" width="262" height="262"><defs><path d="M164.13 98.32L426.13 98.32L426.13 360.32L164.13 360.32L164.13 98.32Z" id="c24AvvYIv8"></path><path d="M380.64 140.57L398.93 121.94L414.09 131.03L421.72 150.34L417.7 163.49L386.85 159.66L380.64 140.57Z" id="a2iMclJpcm"></path><path d="M283.88 120.11L266.71 145.48L267.27 148.62L264.14 195.41L273.64 241.18L272.74 268.12L265.44 287.98L220.77 305.38L335.44 337.87L361.53 332.44L382.85 316.39L395.2 288.33L394.33 236.62L392.54 236.96L392.54 234.15L378.4 223.38L391.3 223.38L385.47 159.88L387.04 159.88L388.05 146.52L399.01 121.94L283.88 120.11Z" id="d88trWwFc"></path><path d="M249.06 217.96L248.27 215.6L214.24 192.58L189.66 160.6L170.36 121.65L226.67 154.22L240.3 179.07L236.49 162.46L278.35 211.39L283.29 241.14L273.19 241.14L249.06 217.96Z" id="bmbXQsap4"></path><path d="M281.12 241.48L260.47 206.43L243.7 193.07L237.31 188.46L219.24 174.77L173.56 128.08L170.36 121.65L175.24 124.94L230.75 180.85L242.99 188.82L264.51 206.43L283.29 241.14L324.37 299.4L305.96 281.44L276.33 241.48L281.12 241.48Z" id="gwU515Qn9"></path></defs><g><g><g><use xlink:href="#c24AvvYIv8" opacity="1" fill="#9b7647" fill-opacity="1"></use></g><g><use xlink:href="#a2iMclJpcm" opacity="1" fill="#9d874a" fill-opacity="1"></use></g><g><use xlink:href="#d88trWwFc" opacity="1" fill="#d7c27e" fill-opacity="1"></use></g><g><use xlink:href="#bmbXQsap4" opacity="1" fill="#13d22e" fill-opacity="1"></use></g><g><use xlink:href="#gwU515Qn9" opacity="1" fill="#262626" fill-opacity="1"></use></g></g></g></svg>