<?xml version="1.0" encoding="UTF-8" standalone="no"?>
<!DOCTYPE svg PUBLIC "-//W3C//DTD SVG 1.1//EN" "http://www.w3.org/Graphics/SVG/1.1/DTD/svg11.dtd">
<svg version="1.1" xmlns="http://www.w3.org/2000/svg" xmlns:xlink="http://www.w3.org/1999/xlink" preserveAspectRatio="xMidYMid meet" viewBox="454.6806723412144 63.44853674118576 135 135" width="131" height="131"><defs><path d="M455.68 64.45L586.68 64.45L586.68 195.45L455.68 195.45L455.68 64.45Z" id="d4HCO8gw0"></path><path d="" id="fLsaBfyf"></path><path d="M586.21 64.45L586.68 151.17L521.27 195.42L455.7 151.67L455.7 64.45L586.21 64.45Z" id="cdVec0sKT"></path><path d="M487.63 142.5L491.68 146.45L489.01 138.65L487.63 142.5Z" id="a1k9pV3Ihh"></path><path d="M495.63 161.75L496.02 167.27L500.07 163.03L511.82 168.46L512.31 164.81L510.14 160.56L495.63 161.75Z" id="a2V5gOimIy"></path><path d="M495.94 134.55L505.91 134.92L493.48 105.18L514.9 67.86L513.02 88.58L526.15 70.42L521.02 97.86L540.17 86.41L520.43 106.58L549.15 99.47L519.64 115.34L540.66 114.25L527.53 118.3L527.63 119.58L545.89 120.37L527.73 124.03L527.83 125.8L542.24 130.54L536.32 134.19L542.44 135.38L531.68 147.62L576.3 153.74L546.66 171.32L524.55 154.14L517.84 161.45L514.09 155.33L512.41 164.91L509.94 160.56L506.19 148.12L498.89 141.9L490.69 143.68L489.01 138.25L495.94 134.55Z" id="f2RQVIVooT"></path></defs><g><g><g><use xlink:href="#d4HCO8gw0" opacity="1" fill="#795548" fill-opacity="1"></use></g><g><g><g><use xlink:href="#fLsaBfyf" opacity="1" fill-opacity="0" stroke="#000000" stroke-width="1" stroke-opacity="1"></use></g></g><g><use xlink:href="#cdVec0sKT" opacity="1" fill="#6c67cb" fill-opacity="1"></use></g><g><use xlink:href="#a1k9pV3Ihh" opacity="1" fill="#ffb82d" fill-opacity="1"></use></g><g><use xlink:href="#a2V5gOimIy" opacity="1" fill="#ffb82d" fill-opacity="1"></use></g><g><use xlink:href="#f2RQVIVooT" opacity="1" fill="#ae7c45" fill-opacity="1"></use></g></g></g><g><use xlink:href="#d4HCO8gw0" opacity="1" fill="#795548" fill-opacity="1"></use></g><g><g><g><use xlink:href="#fLsaBfyf" opacity="1" fill-opacity="0" stroke="#000000" stroke-width="1" stroke-opacity="1"></use></g></g><g><use xlink:href="#cdVec0sKT" opacity="1" fill="#6c67cb" fill-opacity="1"></use></g><g><use xlink:href="#a1k9pV3Ihh" opacity="1" fill="#ffb82d" fill-opacity="1"></use></g><g><use xlink:href="#a2V5gOimIy" opacity="1" fill="#ffb82d" fill-opacity="1"></use></g><g><use xlink:href="#f2RQVIVooT" opacity="1" fill="#ae7c45" fill-opacity="1"></use></g></g></g></svg>