<?xml version="1.0" encoding="UTF-8" standalone="no"?>
<!DOCTYPE svg PUBLIC "-//W3C//DTD SVG 1.1//EN" "http://www.w3.org/Graphics/SVG/1.1/DTD/svg11.dtd">
<svg version="1.1" xmlns="http://www.w3.org/2000/svg" xmlns:xlink="http://www.w3.org/1999/xlink" preserveAspectRatio="xMidYMid meet" viewBox="230.11129664769126 12.412541254125017 196.49999999999997 196.5" width="196.5" height="196.5"><defs><path d="M230.11 12.41L426.61 12.41L426.61 208.91L230.11 208.91L230.11 12.41Z" id="a17dvly6wv"></path><path d="M262.86 12.41L393.86 12.41L393.86 143.41L262.86 143.41L262.86 12.41Z" id="b5HTOXMRb8"></path><path d="" id="cP25T2pq1"></path><path d="M393.72 12.41L393.72 99.13L328.78 143.33L262.86 99.63L262.86 12.41L393.72 12.41Z" id="a5QmALndzQ"></path><path d="M367.49 50.45L368.74 43.43L364.99 43.74L367.49 50.45Z" id="d10Uqf9mEn"></path><path d="M375.91 52.32L375.91 42.65L372.48 42.96L375.91 52.32Z" id="aZ0yls2nY"></path><path d="M349.79 51.24L348.6 44.9L358.76 44.42L366.9 54.23L349.79 51.24Z" id="d8K5Ff8jP"></path><path d="M335.68 30.73L325.27 26.66L304.34 28.69L289.74 39.1L288.91 50.94L295.01 60.63L341.18 78.57L354.1 92.93L345.84 106.32L323 110.87L293.21 102.26L282.57 83.96L281.49 99.98L290.58 110.15L323.36 120.32L349.91 111.83L366.06 88.74L348.6 69.84L302.3 50.46L302.78 41.13L320.84 35.51L339.26 42.69L341.78 51.66L365.82 58L366.3 54.05L349.79 51.06L348.83 44.96L380.17 42.09L335.68 30.73Z" id="b16kybMKQd"></path><path d="M351.61 38.66L358.05 42.96L362.86 40.4L351.61 38.66Z" id="c15DlxGdDo"></path></defs><g><g><g><use xlink:href="#a17dvly6wv" opacity="1" fill="#795548" fill-opacity="1"></use></g><g><g><use xlink:href="#b5HTOXMRb8" opacity="1" fill="#795548" fill-opacity="1"></use></g><g><g><g><use xlink:href="#cP25T2pq1" opacity="1" fill-opacity="0" stroke="#000000" stroke-width="1" stroke-opacity="1"></use></g></g><g><use xlink:href="#a5QmALndzQ" opacity="1" fill="#469f35" fill-opacity="1"></use></g><g><use xlink:href="#d10Uqf9mEn" opacity="1" fill="#ffffff" fill-opacity="1"></use></g><g><use xlink:href="#aZ0yls2nY" opacity="1" fill="#ffffff" fill-opacity="1"></use></g><g><use xlink:href="#d8K5Ff8jP" opacity="1" fill="#e72651" fill-opacity="1"></use></g><g><use xlink:href="#b16kybMKQd" opacity="1" fill="#d7d7d7" fill-opacity="1"></use></g><g><use xlink:href="#c15DlxGdDo" opacity="1" fill="#000000" fill-opacity="1"></use></g></g></g></g></g></svg>