<?xml version="1.0" encoding="UTF-8" standalone="no"?>
<!DOCTYPE svg PUBLIC "-//W3C//DTD SVG 1.1//EN" "http://www.w3.org/Graphics/SVG/1.1/DTD/svg11.dtd">
<svg version="1.1" xmlns="http://www.w3.org/2000/svg" xmlns:xlink="http://www.w3.org/1999/xlink" preserveAspectRatio="xMidYMid meet" viewBox="60.94352779038678 57.42835531365529 131.00000000000003 131.00000000000003" width="131" height="131"><defs><path d="M60.94 57.43L191.94 57.43L191.94 188.43L60.94 188.43L60.94 57.43Z" id="b80hr9nYb"></path><path d="" id="g1qFhjCTZ"></path><path d="M124.2 119.14L77.8 117.72L88.27 90.71L77.52 98.21L70.76 80.34L93.22 57.75L111.18 65.67L124.62 74.05L124.2 119.14Z" id="c6OvFwodzN"></path><path d="M124.16 119.09L171.26 118.39L160.79 91.37L171.54 98.87L178.18 80.49L155.84 58.41L137.88 66.33L124.58 74.14L124.16 119.09Z" id="gnDBNXeNX"></path><path d="M124.48 119.17L124.48 188.33L111.89 176.56L64.93 149.55L77.66 117.98L124.48 119.17Z" id="aV4blWz2"></path><path d="M124.72 119.26L124.72 188.43L137.3 176.66L184.26 149.64L172.15 118.37L124.72 119.26Z" id="b1kcu1kVBW"></path><path d="M111.14 81.25L111.27 113.7L137.76 113.45L138.14 81.63L151.19 81.63L144.98 88.22L145.23 147.54L154.87 156.41L137.5 156.67L137.38 123.21L111.65 123.21L111.52 156.03L94.66 156.29L104.17 147.41L104.04 88.61L97.33 81.38L111.14 81.25Z" id="aJAfbx3fi"></path></defs><g><g><g><use xlink:href="#b80hr9nYb" opacity="1" fill="#795548" fill-opacity="1"></use></g><g><g><use xlink:href="#g1qFhjCTZ" opacity="1" fill-opacity="0" stroke="#000000" stroke-width="1" stroke-opacity="1"></use></g></g><g><g><use xlink:href="#c6OvFwodzN" opacity="1" fill="#bf1031" fill-opacity="1"></use></g><g><use xlink:href="#gnDBNXeNX" opacity="1" fill="#11a365" fill-opacity="1"></use></g><g><use xlink:href="#aV4blWz2" opacity="1" fill="#f7ce11" fill-opacity="1"></use></g><g><use xlink:href="#b1kcu1kVBW" opacity="1" fill="#3d4b7a" fill-opacity="1"></use></g><g><use xlink:href="#aJAfbx3fi" opacity="1" fill="#dd981d" fill-opacity="1"></use></g></g></g></g></svg>