<?xml version="1.0" encoding="UTF-8" standalone="no"?>
<!DOCTYPE svg PUBLIC "-//W3C//DTD SVG 1.1//EN" "http://www.w3.org/Graphics/SVG/1.1/DTD/svg11.dtd">
<svg version="1.1" xmlns="http://www.w3.org/2000/svg" xmlns:xlink="http://www.w3.org/1999/xlink" preserveAspectRatio="xMidYMid meet" viewBox="30.666666666666572 382.33333333333326 196.49999999999994 196.5" width="196.5" height="196.5"><defs><path d="M30.67 382.33L227.17 382.33L227.17 578.83L30.67 578.83L30.67 382.33Z" id="bGNUHxaDX"></path><path d="M64.18 382.33L195.18 382.33L195.18 513.33L64.18 513.33L64.18 382.33Z" id="c4kPQMnRC8"></path><path d="" id="e1i6th7bNe"></path><path d="M195.18 382.33L195.17 469.81L129.9 513.24L64.21 469.55L64.21 382.33L195.18 382.33Z" id="a5hBHBoXpv"></path><path d="M158.07 428.79L151.84 435.02L152.82 443.87L159.21 446.17L172.16 445.67L170.2 457.8L154.67 460.06L140.85 452.23L140.69 453.87L170.52 473.21L170.36 479.77L149.87 469.77L146.26 482.72L139.21 471.58L130.03 482.89L116.43 472.56L97.9 482.23L92.49 465.51L86.1 471.08L89.54 445.67L79.7 449.12L86.92 428.62L81.67 428.62L91.84 416.82L85.93 417.15L97.9 403.54L88.72 404.53L113.15 389.28L123.97 392.23L121.34 385.67L142.66 391.08L158.56 405.18L180.36 418.62L180.03 424.03L173.64 433.21L158.07 428.79Z" id="fUepvHHWP"></path><path d="M174.01 414.92L180.28 423.82L180.4 418.55L174.01 414.92Z" id="a2llHbBhSy"></path><path d="M142.06 408.53L141.68 414.79L153.83 416.55L154.71 414.17L142.06 408.53Z" id="b2EHMP5Yzb"></path><path d="M169 438.98L173.76 433.09L169.5 432.09L169 438.98Z" id="bnvVfsu0c"></path><path d="M169.25 441.36L172.26 445.37L168.5 445.49L169.25 441.36Z" id="b5OHMdCTuU"></path></defs><g><g><g><use xlink:href="#bGNUHxaDX" opacity="1" fill="#795548" fill-opacity="1"></use></g><g><g><use xlink:href="#c4kPQMnRC8" opacity="1" fill="#795548" fill-opacity="1"></use></g><g><g><g><use xlink:href="#e1i6th7bNe" opacity="1" fill-opacity="0" stroke="#000000" stroke-width="1" stroke-opacity="1"></use></g></g><g><use xlink:href="#a5hBHBoXpv" opacity="1" fill="#bc1031" fill-opacity="1"></use></g><g><use xlink:href="#fUepvHHWP" opacity="1" fill="#da9d0f" fill-opacity="1"></use></g><g><use xlink:href="#a2llHbBhSy" opacity="1" fill="#000000" fill-opacity="1"></use></g><g><use xlink:href="#b2EHMP5Yzb" opacity="1" fill="#000000" fill-opacity="1"></use></g><g><use xlink:href="#bnvVfsu0c" opacity="1" fill="#ffffff" fill-opacity="1"></use></g><g><use xlink:href="#b5OHMdCTuU" opacity="1" fill="#ffffff" fill-opacity="1"></use></g></g></g></g></g></svg>