<?xml version="1.0" encoding="UTF-8" standalone="no"?>
<!DOCTYPE svg PUBLIC "-//W3C//DTD SVG 1.1//EN" "http://www.w3.org/Graphics/SVG/1.1/DTD/svg11.dtd">
<svg version="1.1" xmlns="http://www.w3.org/2000/svg" xmlns:xlink="http://www.w3.org/1999/xlink" preserveAspectRatio="xMidYMid meet" viewBox="232.6153036408713 241.44035608847355 131.00000000000003 131" width="131" height="131"><defs><path d="M232.62 241.44L363.62 241.44L363.62 372.44L232.62 372.44L232.62 241.44Z" id="h3KTy2XNp7"></path><path d="" id="h3zIJkh6Bj"></path><path d="M363.62 241.44L363.59 329.16L298.53 372.37L232.62 328.66L232.62 241.44L363.62 241.44Z" id="c2pL7SHEFw"></path><path d="M263.88 256.21L289.53 247.84L308.55 256.07L327.09 259.8L325.12 263.15L317.44 264.33L324.92 267.08L306.62 269.25L297.56 273.58L318.54 285.53L344.21 308.23L342.25 329.88L350.32 327.91L348.74 334.6L345.4 335.59L335.55 331.85L324.73 343.46L301.3 350.74L305.24 339.92L311.54 338.54L315.08 331.45L311.73 327.12L277.88 337.36L273.15 329.88L288.51 321.22L294.61 310.59L278.66 304.88L246.97 321.02L240.87 311.97L270 294.84L239.88 252.12L243.62 250.55L269.8 274.56L263.88 256.21Z" id="bPpzGhhzd"></path><path d="M327.72 259.58L325.29 263.09L322.79 259.29L327.72 259.58Z" id="a11AAKDy2"></path><path d="M286.29 252.84L276.57 261.47L307.88 256.61L286.29 252.84Z" id="cGaZPAuaz"></path></defs><g><g><g><use xlink:href="#h3KTy2XNp7" opacity="1" fill="#795548" fill-opacity="1"></use></g><g><g><g><use xlink:href="#h3zIJkh6Bj" opacity="1" fill-opacity="0" stroke="#000000" stroke-width="1" stroke-opacity="1"></use></g></g><g><use xlink:href="#c2pL7SHEFw" opacity="1" fill="#f8cf11" fill-opacity="1"></use></g><g><use xlink:href="#bPpzGhhzd" opacity="1" fill="#95978a" fill-opacity="1"></use></g><g><use xlink:href="#a11AAKDy2" opacity="1" fill="#090909" fill-opacity="1"></use></g><g><use xlink:href="#cGaZPAuaz" opacity="1" fill="#242424" fill-opacity="1"></use></g></g></g></g></svg>