<?xml version="1.0" encoding="UTF-8" standalone="no"?>
<!DOCTYPE svg PUBLIC "-//W3C//DTD SVG 1.1//EN" "http://www.w3.org/Graphics/SVG/1.1/DTD/svg11.dtd">
<svg version="1.1" xmlns="http://www.w3.org/2000/svg" xmlns:xlink="http://www.w3.org/1999/xlink" preserveAspectRatio="xMidYMid meet" viewBox="230.11129664769123 219.35630613535727 196.49999999999994 196.5" width="196.5" height="196.5"><defs><path d="M230.11 219.36L426.61 219.36L426.61 415.86L230.11 415.86L230.11 219.36Z" id="j1neZRJjT6"></path><path d="M262.86 219.36L393.86 219.36L393.86 350.36L262.86 350.36L262.86 219.36Z" id="d16SgkG4kH"></path><path d="" id="b1ZQGHgmI4"></path><path d="M393.39 219.36L393.86 306.07L328.45 350.32L262.88 306.57L262.88 219.36L393.39 219.36Z" id="b1jGXpdaXZ"></path><path d="M294.81 297.4L298.86 301.35L296.19 293.55L294.81 297.4Z" id="b1j43ByOrG"></path><path d="M302.81 316.65L303.2 322.18L307.25 317.94L319 323.37L319.49 319.71L317.32 315.47L302.81 316.65Z" id="cdFnfv0cP"></path><path d="M303.12 289.46L313.09 289.83L300.66 260.08L322.08 222.77L320.2 243.49L333.33 225.33L328.2 252.77L347.35 241.32L327.61 261.48L356.33 254.38L326.82 270.25L347.84 269.16L334.71 273.21L334.81 274.49L353.07 275.28L334.91 278.93L335.01 280.71L349.42 285.45L343.5 289.1L349.62 290.29L338.86 302.53L383.48 308.65L353.84 326.23L331.73 309.05L325.02 316.36L321.27 310.24L319.59 319.81L317.12 315.47L313.37 303.03L306.07 296.81L297.87 298.59L296.19 293.16L303.12 289.46Z" id="b17QDTVn0a"></path></defs><g><g><g><use xlink:href="#j1neZRJjT6" opacity="1" fill="#795548" fill-opacity="1"></use></g><g><g><use xlink:href="#d16SgkG4kH" opacity="1" fill="#795548" fill-opacity="1"></use></g><g><g><g><use xlink:href="#b1ZQGHgmI4" opacity="1" fill-opacity="0" stroke="#000000" stroke-width="1" stroke-opacity="1"></use></g></g><g><use xlink:href="#b1jGXpdaXZ" opacity="1" fill="#6c67cb" fill-opacity="1"></use></g><g><use xlink:href="#b1j43ByOrG" opacity="1" fill="#ffb82d" fill-opacity="1"></use></g><g><use xlink:href="#cdFnfv0cP" opacity="1" fill="#ffb82d" fill-opacity="1"></use></g><g><use xlink:href="#b17QDTVn0a" opacity="1" fill="#ae7c45" fill-opacity="1"></use></g></g></g></g></g></svg>