<?xml version="1.0" encoding="UTF-8" standalone="no"?>
<!DOCTYPE svg PUBLIC "-//W3C//DTD SVG 1.1//EN" "http://www.w3.org/Graphics/SVG/1.1/DTD/svg11.dtd">
<svg version="1.1" xmlns="http://www.w3.org/2000/svg" xmlns:xlink="http://www.w3.org/1999/xlink" preserveAspectRatio="xMidYMid meet" viewBox="454.6806723412144 240.44035608847355 135 135" width="131" height="131"><defs><path d="M455.68 241.44L586.68 241.44L586.68 372.44L455.68 372.44L455.68 241.44Z" id="a7ZecLrSiX"></path><path d="" id="b6gczgSbrg"></path><path d="M586.68 241.44L586.67 328.91L521.39 372.34L455.71 328.66L455.71 241.44L586.68 241.44Z" id="fk6hgmYr5"></path><path d="M549.56 287.9L543.33 294.12L544.32 302.98L550.71 305.27L563.66 304.78L561.69 316.91L546.17 319.17L532.35 311.34L532.19 312.98L562.02 332.32L561.86 338.88L541.37 328.88L537.76 341.83L530.71 330.68L521.53 341.99L507.92 331.67L489.4 341.34L483.99 324.62L477.6 330.19L481.04 304.78L471.2 308.22L478.42 287.73L473.17 287.73L483.33 275.93L477.43 276.26L489.4 262.65L480.22 263.63L504.64 248.39L515.46 251.34L512.84 244.78L534.15 250.19L550.05 264.29L571.86 277.73L571.53 283.14L565.14 292.32L549.56 287.9Z" id="d4452Lubl"></path><path d="M565.51 274.03L571.77 282.92L571.9 277.66L565.51 274.03Z" id="kyMCC9cMe"></path><path d="M533.55 267.63L533.18 273.9L545.33 275.65L546.21 273.27L533.55 267.63Z" id="b19aOzRK56"></path><path d="M560.5 298.09L565.26 292.2L561 291.19L560.5 298.09Z" id="bgjySodeK"></path><path d="M560.75 300.47L563.75 304.48L559.99 304.6L560.75 300.47Z" id="cyVK3qwMF"></path></defs><g><g><g><use xlink:href="#a7ZecLrSiX" opacity="1" fill="#795548" fill-opacity="1"></use></g><g><g><g><use xlink:href="#b6gczgSbrg" opacity="1" fill-opacity="0" stroke="#000000" stroke-width="1" stroke-opacity="1"></use></g></g><g><use xlink:href="#fk6hgmYr5" opacity="1" fill="#bc1031" fill-opacity="1"></use></g><g><use xlink:href="#d4452Lubl" opacity="1" fill="#da9d0f" fill-opacity="1"></use></g><g><use xlink:href="#kyMCC9cMe" opacity="1" fill="#000000" fill-opacity="1"></use></g><g><use xlink:href="#b19aOzRK56" opacity="1" fill="#000000" fill-opacity="1"></use></g><g><use xlink:href="#bgjySodeK" opacity="1" fill="#ffffff" fill-opacity="1"></use></g><g><use xlink:href="#cyVK3qwMF" opacity="1" fill="#ffffff" fill-opacity="1"></use></g></g></g><g><use xlink:href="#a7ZecLrSiX" opacity="1" fill="#795548" fill-opacity="1"></use></g><g><g><g><use xlink:href="#b6gczgSbrg" opacity="1" fill-opacity="0" stroke="#000000" stroke-width="1" stroke-opacity="1"></use></g></g><g><use xlink:href="#fk6hgmYr5" opacity="1" fill="#bc1031" fill-opacity="1"></use></g><g><use xlink:href="#d4452Lubl" opacity="1" fill="#da9d0f" fill-opacity="1"></use></g><g><use xlink:href="#kyMCC9cMe" opacity="1" fill="#000000" fill-opacity="1"></use></g><g><use xlink:href="#b19aOzRK56" opacity="1" fill="#000000" fill-opacity="1"></use></g><g><use xlink:href="#bgjySodeK" opacity="1" fill="#ffffff" fill-opacity="1"></use></g><g><use xlink:href="#cyVK3qwMF" opacity="1" fill="#ffffff" fill-opacity="1"></use></g></g><g><g><use xlink:href="#b6gczgSbrg" opacity="1" fill-opacity="0" stroke="#000000" stroke-width="1" stroke-opacity="1"></use></g></g><g><use xlink:href="#fk6hgmYr5" opacity="1" fill="#bc1031" fill-opacity="1"></use></g><g><use xlink:href="#d4452Lubl" opacity="1" fill="#da9d0f" fill-opacity="1"></use></g><g><use xlink:href="#kyMCC9cMe" opacity="1" fill="#000000" fill-opacity="1"></use></g><g><use xlink:href="#b19aOzRK56" opacity="1" fill="#000000" fill-opacity="1"></use></g><g><use xlink:href="#bgjySodeK" opacity="1" fill="#ffffff" fill-opacity="1"></use></g><g><use xlink:href="#cyVK3qwMF" opacity="1" fill="#ffffff" fill-opacity="1"></use></g></g></svg>