<?xml version="1.0" encoding="UTF-8" standalone="no"?>
<!DOCTYPE svg PUBLIC "-//W3C//DTD SVG 1.1//EN" "http://www.w3.org/Graphics/SVG/1.1/DTD/svg11.dtd">
<svg version="1.1" xmlns="http://www.w3.org/2000/svg" xmlns:xlink="http://www.w3.org/1999/xlink" preserveAspectRatio="xMidYMid meet" viewBox="14.92306135357336 221.75 196.49999999999994 196.5" width="196.5" height="196.5"><defs><path d="M14.92 221.75L211.42 221.75L211.42 418.25L14.92 418.25L14.92 221.75Z" id="b9yxMz9Ne"></path><path d="" id="fclVuLwn6"></path><path d="M178.67 221.75L178.65 309.47L113.59 352.68L47.67 308.97L47.67 221.75L178.67 221.75Z" id="a5nIwn7ju"></path><path d="M78.94 236.52L104.58 228.15L123.61 236.38L142.15 240.11L140.18 243.46L132.5 244.64L139.98 247.39L121.67 249.56L112.62 253.89L133.6 265.84L159.27 288.53L157.3 310.19L165.37 308.22L163.8 314.91L160.45 315.9L150.61 312.16L139.78 323.77L116.36 331.05L120.3 320.23L126.59 318.85L130.14 311.76L126.79 307.43L92.93 317.67L88.21 310.19L103.56 301.53L109.67 290.9L93.72 285.19L62.03 301.33L55.93 292.28L85.06 275.15L54.94 232.43L58.68 230.86L84.86 254.87L78.94 236.52Z" id="a29oxXDkgi"></path><path d="M142.77 239.89L140.35 243.4L137.84 239.6L142.77 239.89Z" id="d6Tl95MkBm"></path><path d="M101.34 233.14L91.63 241.78L122.94 236.92L101.34 233.14Z" id="c41HnqHHlt"></path></defs><g><g><g><use xlink:href="#b9yxMz9Ne" opacity="1" fill="#795548" fill-opacity="1"></use></g><g><g><g><use xlink:href="#fclVuLwn6" opacity="1" fill-opacity="0" stroke="#000000" stroke-width="1" stroke-opacity="1"></use></g></g><g><use xlink:href="#a5nIwn7ju" opacity="1" fill="#f8cf11" fill-opacity="1"></use></g><g><use xlink:href="#a29oxXDkgi" opacity="1" fill="#95978a" fill-opacity="1"></use></g><g><use xlink:href="#d6Tl95MkBm" opacity="1" fill="#090909" fill-opacity="1"></use></g><g><use xlink:href="#c41HnqHHlt" opacity="1" fill="#242424" fill-opacity="1"></use></g></g></g></g></svg>