<?xml version="1.0" encoding="UTF-8" standalone="no"?>
<!DOCTYPE svg PUBLIC "-//W3C//DTD SVG 1.1//EN" "http://www.w3.org/Graphics/SVG/1.1/DTD/svg11.dtd">
<svg version="1.1" xmlns="http://www.w3.org/2000/svg" xmlns:xlink="http://www.w3.org/1999/xlink" preserveAspectRatio="xMidYMid meet" viewBox="231.6153036408713 63.44853674118576 135.00000000000003 135" width="131" height="131"><defs><path d="M232.62 64.45L363.62 64.45L363.62 195.45L232.62 195.45L232.62 64.45Z" id="b1qzd6C0yb"></path><path d="" id="d7lWDmVXa"></path><path d="M363.47 64.45L363.47 151.17L298.53 195.36L232.62 151.67L232.62 64.45L363.47 64.45Z" id="dpaZHRPY6"></path><path d="M337.24 102.48L338.49 95.46L334.75 95.77L337.24 102.48Z" id="b1DgtKPn6q"></path><path d="M345.67 104.35L345.67 94.68L342.23 94.99L345.67 104.35Z" id="f4dAzuD65c"></path><path d="M319.55 103.28L318.35 96.94L328.52 96.46L336.65 106.27L319.55 103.28Z" id="czgKKJqRW"></path><path d="M305.43 82.76L295.02 78.7L274.09 80.73L259.5 91.14L258.66 102.98L264.76 112.67L310.93 130.61L323.85 144.96L315.6 158.36L292.75 162.91L262.97 154.29L252.32 135.99L251.24 152.02L260.33 162.19L293.11 172.36L319.66 163.86L335.81 140.78L318.35 121.88L272.06 102.5L272.54 93.17L290.6 87.55L309.02 94.72L311.53 103.7L335.57 110.04L336.05 106.09L319.55 103.1L318.59 97L349.93 94.13L305.43 82.76Z" id="a27TegVVoL"></path><path d="M321.37 90.7L327.81 94.99L332.61 92.43L321.37 90.7Z" id="cEpksAI0k"></path></defs><g><g><g><use xlink:href="#b1qzd6C0yb" opacity="1" fill="#795548" fill-opacity="1"></use></g><g><g><g><use xlink:href="#d7lWDmVXa" opacity="1" fill-opacity="0" stroke="#000000" stroke-width="1" stroke-opacity="1"></use></g></g><g><use xlink:href="#dpaZHRPY6" opacity="1" fill="#469f35" fill-opacity="1"></use></g><g><use xlink:href="#b1DgtKPn6q" opacity="1" fill="#ffffff" fill-opacity="1"></use></g><g><use xlink:href="#f4dAzuD65c" opacity="1" fill="#ffffff" fill-opacity="1"></use></g><g><use xlink:href="#czgKKJqRW" opacity="1" fill="#e72651" fill-opacity="1"></use></g><g><use xlink:href="#a27TegVVoL" opacity="1" fill="#d7d7d7" fill-opacity="1"></use></g><g><use xlink:href="#cEpksAI0k" opacity="1" fill="#000000" fill-opacity="1"></use></g></g></g><g><use xlink:href="#b1qzd6C0yb" opacity="1" fill="#795548" fill-opacity="1"></use></g><g><g><g><use xlink:href="#d7lWDmVXa" opacity="1" fill-opacity="0" stroke="#000000" stroke-width="1" stroke-opacity="1"></use></g></g><g><use xlink:href="#dpaZHRPY6" opacity="1" fill="#469f35" fill-opacity="1"></use></g><g><use xlink:href="#b1DgtKPn6q" opacity="1" fill="#ffffff" fill-opacity="1"></use></g><g><use xlink:href="#f4dAzuD65c" opacity="1" fill="#ffffff" fill-opacity="1"></use></g><g><use xlink:href="#czgKKJqRW" opacity="1" fill="#e72651" fill-opacity="1"></use></g><g><use xlink:href="#a27TegVVoL" opacity="1" fill="#d7d7d7" fill-opacity="1"></use></g><g><use xlink:href="#cEpksAI0k" opacity="1" fill="#000000" fill-opacity="1"></use></g></g><g><g><use xlink:href="#d7lWDmVXa" opacity="1" fill-opacity="0" stroke="#000000" stroke-width="1" stroke-opacity="1"></use></g></g><g><use xlink:href="#dpaZHRPY6" opacity="1" fill="#469f35" fill-opacity="1"></use></g><g><use xlink:href="#b1DgtKPn6q" opacity="1" fill="#ffffff" fill-opacity="1"></use></g><g><use xlink:href="#f4dAzuD65c" opacity="1" fill="#ffffff" fill-opacity="1"></use></g><g><use xlink:href="#czgKKJqRW" opacity="1" fill="#e72651" fill-opacity="1"></use></g><g><use xlink:href="#a27TegVVoL" opacity="1" fill="#d7d7d7" fill-opacity="1"></use></g><g><use xlink:href="#cEpksAI0k" opacity="1" fill="#000000" fill-opacity="1"></use></g></g></svg>