<?xml version="1.0" encoding="UTF-8" standalone="no"?>
<!DOCTYPE svg PUBLIC "-//W3C//DTD SVG 1.1//EN" "http://www.w3.org/Graphics/SVG/1.1/DTD/svg11.dtd">
<svg version="1.1" xmlns="http://www.w3.org/2000/svg" xmlns:xlink="http://www.w3.org/1999/xlink" preserveAspectRatio="xMidYMid meet" viewBox="202.2078431372549 438.7705882352941 196.49999999999991 196.5" width="196.5" height="196.5"><defs><path d="M202.21 438.77L398.71 438.77L398.71 635.27L202.21 635.27L202.21 438.77Z" id="d1vKScNafz"></path><path d="M234.96 438.77L365.96 438.77L365.96 569.77L234.96 569.77L234.96 438.77Z" id="aDLA126as"></path><path d="M365.96 438.77L365.96 524.97L358.28 529.98L297.38 559.44L238.95 531.36L234.96 528.17L234.96 438.77L365.96 438.77Z" id="aJ9ujizS"></path><path d="" id="a2Juzr16K4"></path><path d="M298.21 500.48L251.82 499.07L262.28 472.05L251.53 479.55L244.77 461.68L267.23 439.1L285.2 447.02L298.63 455.39L298.21 500.48Z" id="covIpOOGb"></path><path d="M298.17 500.44L345.27 499.73L334.81 472.71L345.56 480.21L352.19 461.84L329.86 439.76L311.89 447.68L298.6 455.48L298.17 500.44Z" id="h1lezN7Kk1"></path><path d="M298.49 500.51L298.49 569.68L285.91 557.91L238.95 530.89L251.68 499.32L298.49 500.51Z" id="c73tjWHI6"></path><path d="M298.73 500.61L298.73 569.77L311.32 558L358.28 530.99L346.17 499.71L298.73 500.61Z" id="a2Ia17qtsq"></path><path d="M285.15 462.6L285.28 495.04L311.77 494.79L312.15 462.98L325.21 462.98L319 469.57L319.25 528.88L328.88 537.75L311.52 538.01L311.39 504.55L285.66 504.55L285.54 537.37L268.68 537.63L278.18 528.76L278.06 469.95L271.34 462.72L285.15 462.6Z" id="cRAra1lI"></path></defs><g><g><g><use xlink:href="#d1vKScNafz" opacity="1" fill="#795548" fill-opacity="1"></use></g><g><g><use xlink:href="#aDLA126as" opacity="1" fill="#795548" fill-opacity="1"></use></g><g><use xlink:href="#aJ9ujizS" opacity="1" fill="#9e9e9e" fill-opacity="1"></use></g><g><g><use xlink:href="#a2Juzr16K4" opacity="1" fill-opacity="0" stroke="#000000" stroke-width="1" stroke-opacity="1"></use></g></g><g><g><use xlink:href="#covIpOOGb" opacity="1" fill="#bf1031" fill-opacity="1"></use></g><g><use xlink:href="#h1lezN7Kk1" opacity="1" fill="#11a365" fill-opacity="1"></use></g><g><use xlink:href="#c73tjWHI6" opacity="1" fill="#f7ce11" fill-opacity="1"></use></g><g><use xlink:href="#a2Ia17qtsq" opacity="1" fill="#3d4b7a" fill-opacity="1"></use></g><g><use xlink:href="#cRAra1lI" opacity="1" fill="#dd981d" fill-opacity="1"></use></g></g></g></g></g></svg>