<?xml version="1.0" encoding="UTF-8" standalone="no"?>
<!DOCTYPE svg PUBLIC "-//W3C//DTD SVG 1.1//EN" "http://www.w3.org/Graphics/SVG/1.1/DTD/svg11.dtd">
<svg version="1.1" xmlns="http://www.w3.org/2000/svg" xmlns:xlink="http://www.w3.org/1999/xlink" preserveAspectRatio="xMidYMid meet" viewBox="320.08072552718113 179.4026080536396 262 262" width="262" height="262"><defs><path d="M320.08 179.4L582.08 179.4L582.08 441.4L320.08 441.4L320.08 179.4Z" id="d1RDCf9qe4"></path><path d="M320.65 179.98L343.65 179.98L343.65 440.98L320.65 440.98L320.65 179.98Z" id="g3Q6qlvbVO"></path><path d="M344.13 222.61L376.79 222.61L376.79 440.98L344.13 440.98L344.13 222.61Z" id="b1IfyQJDak"></path><path d="M344.13 211.37L376.79 211.37L376.79 222.61L344.13 222.61L344.13 211.37Z" id="a1nGaKEK5G"></path><path d="M376.79 200.71L399.13 200.71L399.13 440.98L376.79 440.98L376.79 200.71Z" id="bWzduJUB2"></path><path d="M399.13 363.83L399.13 375.03L376.79 397.3L376.79 385.67L399.13 363.83Z" id="b18vE1yBTz"></path><path d="M399.13 397.3L399.13 407.52L376.79 429.79L376.79 418.45L399.13 397.3Z" id="b1Y6AEPVyw"></path><path d="M427.69 376.65L419.08 350.07L423.14 321.5L441.71 301.34L462.28 291.96L490.68 291.96L509.19 301.34L527.06 320.24L530.66 351.08L520.29 376.21L506.75 391.64L443.89 391.1L427.69 376.65Z" id="deDXFv0uD"></path><path d="M550.55 267.31L581.42 267.31L581.42 440.98L550.55 440.98L550.55 267.31Z" id="c555MFKZXy"></path><path d="M443.61 402.43L506.55 403.01L530.66 440.98L417.36 440.98L443.61 402.43Z" id="axqTqzlm3"></path><path d="M443.99 391.14L506.81 391.64L506.42 403.01L506.42 403.01L443.99 402.43L443.99 391.14Z" id="d16Jdqzymy"></path></defs><g><g><g><use xlink:href="#d1RDCf9qe4" opacity="1" fill="#9b7647" fill-opacity="1"></use><g><use xlink:href="#d1RDCf9qe4" opacity="1" fill-opacity="0" stroke="#000000" stroke-width="1" stroke-opacity="1"></use></g></g><g><use xlink:href="#g3Q6qlvbVO" opacity="1" fill="#3e8a21" fill-opacity="1"></use></g><g><use xlink:href="#b1IfyQJDak" opacity="1" fill="#7547a8" fill-opacity="1"></use></g><g><use xlink:href="#a1nGaKEK5G" opacity="1" fill="#512780" fill-opacity="1"></use></g><g><use xlink:href="#bWzduJUB2" opacity="1" fill="#bf1313" fill-opacity="1"></use></g><g><use xlink:href="#b18vE1yBTz" opacity="1" fill="#e6e11f" fill-opacity="1"></use></g><g><use xlink:href="#b1Y6AEPVyw" opacity="1" fill="#e6e11f" fill-opacity="1"></use></g><g><use xlink:href="#deDXFv0uD" opacity="1" fill="#dddddd" fill-opacity="1"></use></g><g><use xlink:href="#c555MFKZXy" opacity="1" fill="#e361d5" fill-opacity="1"></use></g><g><use xlink:href="#axqTqzlm3" opacity="1" fill="#d8b00b" fill-opacity="1"></use></g><g><use xlink:href="#d16Jdqzymy" opacity="1" fill="#f9e17a" fill-opacity="1"></use></g></g></g></svg>