<?xml version="1.0" encoding="UTF-8" standalone="no"?>
<!DOCTYPE svg PUBLIC "-//W3C//DTD SVG 1.1//EN" "http://www.w3.org/Graphics/SVG/1.1/DTD/svg11.dtd">
<svg version="1.1" xmlns="http://www.w3.org/2000/svg" xmlns:xlink="http://www.w3.org/1999/xlink" preserveAspectRatio="xMidYMid meet" viewBox="20.61799941444292 285.12159844454027 262 262" width="262" height="262"><defs><path d="M20.62 285.12L282.62 285.12L282.62 547.12L20.62 547.12L20.62 285.12Z" id="b5r06CJ7ae"></path><path d="M43.17 328.75L75.84 328.75L75.84 547.12L43.17 547.12L43.17 328.75Z" id="i5GsI1geu4"></path><path d="M43.17 317.52L75.84 317.52L75.84 328.75L43.17 328.75L43.17 317.52Z" id="abdQPSliz"></path><path d="M75.84 306.85L98.17 306.85L98.17 547.12L75.84 547.12L75.84 306.85Z" id="dcyfONfa2"></path><path d="M98.17 469.97L98.17 481.17L75.84 503.44L75.84 491.82L98.17 469.97Z" id="c2svTp5pIH"></path><path d="M98.17 503.44L98.17 513.66L75.84 535.93L75.84 524.59L98.17 503.44Z" id="baBsNSsu2"></path><path d="M142.11 496.93L205.29 496.93L230.23 547.12L116.66 547.12L142.11 496.93Z" id="caVfiZZjF"></path><path d="M127.22 481.39L118.6 454.27L122.84 428.05L140.33 408.26L160.89 398.87L189.3 398.87L207.81 408.26L225.67 427.15L229.27 458L219.63 482.04L205.36 496.93L142.51 496.93L127.22 481.39Z" id="a2rdzBJqHD"></path><path d="M248.86 372.35L282.62 372.35L282.62 547.12L248.86 547.12L248.86 372.35Z" id="bD3emkAuZ"></path></defs><g><g><g><use xlink:href="#b5r06CJ7ae" opacity="1" fill="#9b7647" fill-opacity="1"></use></g><g><use xlink:href="#i5GsI1geu4" opacity="1" fill="#7547a8" fill-opacity="1"></use></g><g><use xlink:href="#abdQPSliz" opacity="1" fill="#512780" fill-opacity="1"></use></g><g><use xlink:href="#dcyfONfa2" opacity="1" fill="#bf1313" fill-opacity="1"></use></g><g><use xlink:href="#c2svTp5pIH" opacity="1" fill="#e6e11f" fill-opacity="1"></use></g><g><use xlink:href="#baBsNSsu2" opacity="1" fill="#e6e11f" fill-opacity="1"></use></g><g><use xlink:href="#caVfiZZjF" opacity="1" fill="#d8b00b" fill-opacity="1"></use></g><g><use xlink:href="#a2rdzBJqHD" opacity="1" fill="#dddddd" fill-opacity="1"></use></g><g><use xlink:href="#bD3emkAuZ" opacity="1" fill="#ad1e89" fill-opacity="1"></use></g></g></g></svg>