<?xml version="1.0" encoding="UTF-8" standalone="no"?>
<!DOCTYPE svg PUBLIC "-//W3C//DTD SVG 1.1//EN" "http://www.w3.org/Graphics/SVG/1.1/DTD/svg11.dtd">
<svg version="1.1" xmlns="http://www.w3.org/2000/svg" xmlns:xlink="http://www.w3.org/1999/xlink" preserveAspectRatio="xMidYMid meet" viewBox="167.17269593248398 41.31944444444457 262 262" width="262" height="262"><defs><path d="M167.17 41.32L429.17 41.32L429.17 303.32L167.17 303.32L167.17 41.32Z" id="c2BVxaqsO"></path><path d="M189.73 84.95L222.39 84.95L222.39 303.32L189.73 303.32L189.73 84.95Z" id="cTnRC4y7r"></path><path d="M189.73 73.71L222.39 73.71L222.39 84.95L189.73 84.95L189.73 73.71Z" id="d4vhYwgx5"></path><path d="M222.39 63.04L244.73 63.04L244.73 303.32L222.39 303.32L222.39 63.04Z" id="a2lMAIONJH"></path><path d="M244.73 226.16L244.73 237.37L222.39 259.64L222.39 248.01L244.73 226.16Z" id="kCgTThwnu"></path><path d="M244.73 259.64L244.73 269.86L222.39 292.13L222.39 280.79L244.73 259.64Z" id="c1es6lKZ5k"></path><path d="M288.67 253.13L351.85 253.13L376.78 303.32L263.22 303.32L288.67 253.13Z" id="erzsefFut"></path><path d="M273.77 237.59L265.16 210.47L269.4 184.25L286.88 164.46L307.45 155.07L335.85 155.07L354.36 164.46L372.23 183.35L375.83 214.2L366.19 238.23L351.92 253.13L289.07 253.13L273.77 237.59Z" id="b89EDEOPyv"></path><path d="M395.41 128.54L429.17 128.54L429.17 303.32L395.41 303.32L395.41 128.54Z" id="bkWoOJtbf"></path></defs><g><g><g><use xlink:href="#c2BVxaqsO" opacity="1" fill="#9b7647" fill-opacity="1"></use><g><use xlink:href="#c2BVxaqsO" opacity="1" fill-opacity="0" stroke="#31489d" stroke-width="1" stroke-opacity="1"></use></g></g><g><use xlink:href="#cTnRC4y7r" opacity="1" fill="#7547a8" fill-opacity="1"></use></g><g><use xlink:href="#d4vhYwgx5" opacity="1" fill="#512780" fill-opacity="1"></use></g><g><use xlink:href="#a2lMAIONJH" opacity="1" fill="#bf1313" fill-opacity="1"></use></g><g><use xlink:href="#kCgTThwnu" opacity="1" fill="#e6e11f" fill-opacity="1"></use></g><g><use xlink:href="#c1es6lKZ5k" opacity="1" fill="#e6e11f" fill-opacity="1"></use></g><g><use xlink:href="#erzsefFut" opacity="1" fill="#d8b00b" fill-opacity="1"></use></g><g><use xlink:href="#b89EDEOPyv" opacity="1" fill="#dddddd" fill-opacity="1"></use></g><g><use xlink:href="#bkWoOJtbf" opacity="1" fill="#ad1e89" fill-opacity="1"></use></g></g></g></svg>