<?xml version="1.0" encoding="UTF-8" standalone="no"?>
<!DOCTYPE svg PUBLIC "-//W3C//DTD SVG 1.1//EN" "http://www.w3.org/Graphics/SVG/1.1/DTD/svg11.dtd">
<svg version="1.1" xmlns="http://www.w3.org/2000/svg" xmlns:xlink="http://www.w3.org/1999/xlink" preserveAspectRatio="xMidYMid meet" viewBox="19.42382962366787 17.126303874566375 261.9999999999999 262.0000000000001" width="262" height="262"><defs><path d="M19.42 17.13L281.42 17.13L281.42 279.13L19.42 279.13L19.42 17.13Z" id="cD5Jor0po"></path><path d="M19.42 17.13L41.22 17.13L41.22 279.13L19.42 279.13L19.42 17.13Z" id="ak5gNE8dK"></path><path d="M41.22 60.75L73.88 60.75L73.88 279.13L41.22 279.13L41.22 60.75Z" id="d2q9FmleOJ"></path><path d="M41.22 49.52L73.88 49.52L73.88 60.75L41.22 60.75L41.22 49.52Z" id="a2kUE6ADa5"></path><path d="M73.88 38.85L96.22 38.85L96.22 279.13L73.88 279.13L73.88 38.85Z" id="a1ilMdy60u"></path><path d="M96.22 201.97L96.22 213.18L73.88 235.44L73.88 223.82L96.22 201.97Z" id="e1r0LRyfjf"></path><path d="M96.22 235.44L96.22 245.67L73.88 267.94L73.88 256.59L96.22 235.44Z" id="d4noI06SZ"></path><path d="M248.17 104.25L280.83 104.25L280.83 278.35L248.17 278.35L248.17 104.25Z" id="b37CSHkccY"></path><path d="M140.59 228.16L203.76 228.16L228.7 278.35L115.14 278.35L140.59 228.16Z" id="amSRsQars"></path><path d="M125.69 212.62L117.08 185.5L121.32 159.28L138.8 139.49L159.36 130.1L187.77 130.1L206.28 139.49L224.15 158.38L227.75 189.23L218.11 213.27L203.84 228.16L140.98 228.16L125.69 212.62Z" id="b5O9edcSfF"></path></defs><g><g><g><use xlink:href="#cD5Jor0po" opacity="1" fill="#9b7647" fill-opacity="1"></use><g><use xlink:href="#cD5Jor0po" opacity="1" fill-opacity="0" stroke="#18160d" stroke-width="1" stroke-opacity="1"></use></g></g><g><use xlink:href="#ak5gNE8dK" opacity="1" fill="#3e8a21" fill-opacity="1"></use></g><g><use xlink:href="#d2q9FmleOJ" opacity="1" fill="#7547a8" fill-opacity="1"></use></g><g><use xlink:href="#a2kUE6ADa5" opacity="1" fill="#512780" fill-opacity="1"></use></g><g><use xlink:href="#a1ilMdy60u" opacity="1" fill="#bf1313" fill-opacity="1"></use></g><g><use xlink:href="#e1r0LRyfjf" opacity="1" fill="#e6e11f" fill-opacity="1"></use></g><g><use xlink:href="#d4noI06SZ" opacity="1" fill="#e6e11f" fill-opacity="1"></use></g><g><use xlink:href="#b37CSHkccY" opacity="1" fill="#9b69d2" fill-opacity="1"></use></g><g><use xlink:href="#amSRsQars" opacity="1" fill="#d8b00b" fill-opacity="1"></use></g><g><use xlink:href="#b5O9edcSfF" opacity="1" fill="#dddddd" fill-opacity="1"></use></g></g></g></svg>