<?xml version="1.0" encoding="UTF-8" standalone="no"?>
<!DOCTYPE svg PUBLIC "-//W3C//DTD SVG 1.1//EN" "http://www.w3.org/Graphics/SVG/1.1/DTD/svg11.dtd">
<svg version="1.1" xmlns="http://www.w3.org/2000/svg" xmlns:xlink="http://www.w3.org/1999/xlink" preserveAspectRatio="xMidYMid meet" viewBox="320.08072552718113 179.4026080536396 262 262" width="262" height="262"><defs><path d="M320.08 179.4L582.08 179.4L582.08 441.4L320.08 441.4L320.08 179.4Z" id="f2pXBL5gbn"></path><path d="M320.65 179.98L343.65 179.98L343.65 440.98L320.65 440.98L320.65 179.98Z" id="aNGLDcV1N"></path><path d="M344.13 222.61L376.79 222.61L376.79 440.98L344.13 440.98L344.13 222.61Z" id="d2FqdZz0FU"></path><path d="M344.13 211.37L376.79 211.37L376.79 222.61L344.13 222.61L344.13 211.37Z" id="cTPlZ2FHg"></path><path d="M376.79 200.71L399.13 200.71L399.13 440.98L376.79 440.98L376.79 200.71Z" id="c9VXd7NMb0"></path><path d="M399.13 363.83L399.13 375.03L376.79 397.3L376.79 385.67L399.13 363.83Z" id="awmxuU985"></path><path d="M399.13 397.3L399.13 407.52L376.79 429.79L376.79 418.45L399.13 397.3Z" id="a1JFMQj79y"></path><path d="M427.69 376.65L419.08 350.07L423.14 321.5L441.71 301.34L462.28 291.96L490.68 291.96L509.19 301.34L527.06 320.24L530.66 351.08L520.29 376.21L506.75 391.64L443.89 391.1L427.69 376.65Z" id="a5vjH81ZY"></path><path d="M550.55 267.31L581.42 267.31L581.42 440.98L550.55 440.98L550.55 267.31Z" id="a25VMSLN8G"></path><path d="M443.61 402.43L506.55 403.01L530.66 440.98L417.36 440.98L443.61 402.43Z" id="n23NlhEVGD"></path><path d="M443.99 391.14L506.81 391.64L506.42 403.01L506.42 403.01L443.99 402.43L443.99 391.14Z" id="b2AP47zkPU"></path></defs><g><g><g><use xlink:href="#f2pXBL5gbn" opacity="1" fill="#9b7647" fill-opacity="1"></use></g><g><use xlink:href="#aNGLDcV1N" opacity="1" fill="#3e8a21" fill-opacity="1"></use></g><g><use xlink:href="#d2FqdZz0FU" opacity="1" fill="#7547a8" fill-opacity="1"></use></g><g><use xlink:href="#cTPlZ2FHg" opacity="1" fill="#512780" fill-opacity="1"></use></g><g><use xlink:href="#c9VXd7NMb0" opacity="1" fill="#bf1313" fill-opacity="1"></use></g><g><use xlink:href="#awmxuU985" opacity="1" fill="#e6e11f" fill-opacity="1"></use></g><g><use xlink:href="#a1JFMQj79y" opacity="1" fill="#e6e11f" fill-opacity="1"></use></g><g><use xlink:href="#a5vjH81ZY" opacity="1" fill="#dddddd" fill-opacity="1"></use></g><g><use xlink:href="#a25VMSLN8G" opacity="1" fill="#e361d5" fill-opacity="1"></use></g><g><use xlink:href="#n23NlhEVGD" opacity="1" fill="#d8b00b" fill-opacity="1"></use></g><g><use xlink:href="#b2AP47zkPU" opacity="1" fill="#f9e17a" fill-opacity="1"></use></g></g></g></svg>