<?xml version="1.0" encoding="UTF-8" standalone="no"?>
<!DOCTYPE svg PUBLIC "-//W3C//DTD SVG 1.1//EN" "http://www.w3.org/Graphics/SVG/1.1/DTD/svg11.dtd">
<svg version="1.1" xmlns="http://www.w3.org/2000/svg" xmlns:xlink="http://www.w3.org/1999/xlink" preserveAspectRatio="xMidYMid meet" viewBox="368.9954207609535 10.874081714384943 262 262" width="262" height="262"><defs><path d="M369 10.87L631 10.87L631 272.87L369 272.87L369 10.87Z" id="jR4f3esNr"></path><path d="M369.45 11.28L400.22 11.28L404.06 272.52L369.45 272.22L369.45 11.28Z" id="aDYrxGWvG"></path><path d="M400.26 11.32L463.4 11.32L466.05 272.39L404.04 272.52L400.26 11.32Z" id="a3CaLEiB2"></path><path d="M403.57 237.62L465.74 230.81L465.87 251.74L403.95 251.74L403.57 237.62Z" id="d54LCPP6Ss"></path><path d="M463.56 48.16L518.33 48.16L522.61 272.43L466.01 272.55L463.56 48.16Z" id="c3PU5fqkh"></path><path d="M518.38 48.31L533.77 47.81L537.28 272.32L522.62 272.39L518.38 48.31Z" id="fF5p4igP1"></path><path d="M533.84 47.82L597.2 47.27L597.89 272.4L537.23 272.34L533.84 47.82Z" id="bfTMiarE"></path><path d="M536.84 240.4L597.77 239.54L597.96 255.96L537.03 253.86L536.84 240.4Z" id="eDIgPh43N"></path><path d="M597.12 47.27L630.55 46.69L630.46 272.55L597.95 272.55L597.12 47.27Z" id="dqhPmvWPU"></path></defs><g><g><g><use xlink:href="#jR4f3esNr" opacity="1" fill="#9b7647" fill-opacity="1"></use><g><use xlink:href="#jR4f3esNr" opacity="1" fill-opacity="0" stroke="#000000" stroke-width="1" stroke-opacity="1"></use></g></g><g><use xlink:href="#aDYrxGWvG" opacity="1" fill="#da8800" fill-opacity="1"></use></g><g><use xlink:href="#a3CaLEiB2" opacity="1" fill="#55b9cc" fill-opacity="1"></use></g><g><use xlink:href="#d54LCPP6Ss" opacity="1" fill="#88e9d3" fill-opacity="1"></use></g><g><use xlink:href="#c3PU5fqkh" opacity="1" fill="#c63876" fill-opacity="1"></use></g><g><use xlink:href="#fF5p4igP1" opacity="1" fill="#92459b" fill-opacity="1"></use></g><g><use xlink:href="#bfTMiarE" opacity="1" fill="#e7b922" fill-opacity="1"></use></g><g><use xlink:href="#eDIgPh43N" opacity="1" fill="#a4a4a4" fill-opacity="1"></use></g><g><use xlink:href="#dqhPmvWPU" opacity="1" fill="#6e9641" fill-opacity="1"></use></g></g></g></svg>