<?xml version="1.0" encoding="UTF-8" standalone="no"?>
<!DOCTYPE svg PUBLIC "-//W3C//DTD SVG 1.1//EN" "http://www.w3.org/Graphics/SVG/1.1/DTD/svg11.dtd">
<svg version="1.1" xmlns="http://www.w3.org/2000/svg" xmlns:xlink="http://www.w3.org/1999/xlink" preserveAspectRatio="xMidYMid meet" viewBox="361.56798602235995 334.05908467871245 262 262" width="262" height="262"><defs><path d="M361.57 334.06L623.57 334.06L623.57 596.06L361.57 596.06L361.57 334.06Z" id="e3IHBgpXke"></path><path d="M392.25 334.51L455.66 334.62L457.53 595.49L394.78 595.27L392.25 334.51Z" id="b5VytFdy9"></path><path d="M394.89 560.63L457.22 554.35L457.22 575.48L394.89 575.48L394.89 560.63Z" id="atlnXxTmH"></path><path d="M455.62 369.06L510.71 369.54L514.87 595.54L457.4 595.41L455.62 369.06Z" id="b6GqvneaHG"></path><path d="M591.2 368.97L622.82 369.22L622.82 595.49L591.23 595.38L591.2 368.97Z" id="deEo3lynR"></path><path d="M527.18 368.42L591.14 368.69L591.14 595.52L528.81 595.52L527.18 368.42Z" id="beLF0nplH"></path><path d="M528.67 563.13L591.28 563.13L591.28 579.71L528.84 577L528.67 563.13Z" id="i5vDRJR0Ma"></path></defs><g><g><g><use xlink:href="#e3IHBgpXke" opacity="1" fill="#9b7647" fill-opacity="1"></use><g><use xlink:href="#e3IHBgpXke" opacity="1" fill-opacity="0" stroke="#000000" stroke-width="1" stroke-opacity="1"></use></g></g><g><use xlink:href="#b5VytFdy9" opacity="1" fill="#4a6f84" fill-opacity="1"></use></g><g><use xlink:href="#atlnXxTmH" opacity="1" fill="#419ccf" fill-opacity="1"></use></g><g><use xlink:href="#b6GqvneaHG" opacity="1" fill="#bc3b6e" fill-opacity="1"></use></g><g><use xlink:href="#deEo3lynR" opacity="1" fill="#479f4e" fill-opacity="1"></use></g><g><use xlink:href="#beLF0nplH" opacity="1" fill="#e3c47f" fill-opacity="1"></use></g><g><use xlink:href="#i5vDRJR0Ma" opacity="1" fill="#969b99" fill-opacity="1"></use></g></g></g></svg>