<?xml version="1.0" encoding="UTF-8" standalone="no"?>
<!DOCTYPE svg PUBLIC "-//W3C//DTD SVG 1.1//EN" "http://www.w3.org/Graphics/SVG/1.1/DTD/svg11.dtd">
<svg version="1.1" xmlns="http://www.w3.org/2000/svg" xmlns:xlink="http://www.w3.org/1999/xlink" preserveAspectRatio="xMidYMid meet" viewBox="226.37532483393318 175.10877221797477 262 261.9999999999999" width="262" height="262"><defs><path d="M226.38 175.11L488.38 175.11L488.38 437.11L226.38 437.11L226.38 175.11Z" id="b1HWZ5Twh4"></path><path d="M447.26 205.76L487.87 205.31L488.04 436.62L454.67 436.62L447.26 205.76Z" id="i23OwX35EX"></path><path d="M453.13 389.75L488.01 385.76L487.95 405.27L453.35 406.74L453.13 389.75Z" id="b1nP2E9sXr"></path><path d="M389.84 175.21L446.48 175.28L454.77 436.67L400.72 436.56L389.84 175.21Z" id="ds3VQAKWo"></path><path d="M390.75 199.34L447.26 198.51L447.79 217.57L391.59 216.66L390.75 199.34Z" id="b3fNXBueUu"></path><path d="M227.38 244.41L257.51 217.68L399.43 406.13L399.67 412.18L370.34 436.01L227.38 244.41Z" id="i1dvXX5R4V"></path><path d="M257.51 217.78L337.48 175.14L392.27 233.57L399.45 406.37L257.51 217.78Z" id="d5KlrqUQ9G"></path><path d="M346.16 240.72L357.82 240.42L363.65 249.62L363.65 252.99L360.89 254.83L366.87 276.31L361.04 273.24L349.38 280.91L353.98 285.66L359.87 282.5L370.55 286.89L353.83 295.63L335.27 273.39L326.53 271.09L322.54 260.82L331.59 253.15L339.11 252.07L346.16 240.72Z" id="d875ddW2m"></path><path d="M334.97 266.03L330.52 261.28L343.32 262.37L334.97 266.03Z" id="a34hRgbJHX"></path><path d="M354.75 245.63L357.67 251L350.15 258.51L354.75 245.63Z" id="c1AmHgst9n"></path><path d="M345.64 271.18L348.49 269.17L346.06 264.84L345.64 271.18Z" id="b1JQ5miuCf"></path><path d="M353.13 266.53L350.49 268.22L348.17 263.68L353.13 266.53Z" id="b6xxQw9ee"></path><path d="M360.97 273.16L367.66 276.68L370.98 274.77L369.92 268.43L363.82 265.48L360.83 254.75L363.6 253.02L377.95 263.37L381.01 274.66L370.46 286.89L352.01 279.21L360.97 273.16Z" id="b1TAblDwp"></path><path d="M314.29 245.39L323.65 248.09L345.34 238.55L324.41 223.79L355.3 230.37L355.64 226.4L346.52 218.72L319.35 215.77L314.54 219.65L312.01 224.71L325.09 236.53L305.34 235.6L304.84 240.49L301.38 244.61L308.13 256.76L322.39 260.98L331.25 253.47L314.29 245.39Z" id="c29rUWaOAj"></path><path d="M355.38 229.78L357.75 230.45L364.84 233.83L361.88 228L355.47 227.08L355.38 229.78Z" id="b5dVBNunIH"></path><path d="M270.43 313.17L262.43 353.66L278.81 371.74L278.81 421.68L266.36 436.36L248.15 436.22L235.04 421.58L234.38 374.53L249.98 354.09L240.28 313.59L270.43 313.17Z" id="c1YQD1qcsx"></path></defs><g><g><g><use xlink:href="#b1HWZ5Twh4" opacity="1" fill="#9b7647" fill-opacity="1"></use><g><use xlink:href="#b1HWZ5Twh4" opacity="1" fill-opacity="0" stroke="#000000" stroke-width="1" stroke-opacity="1"></use></g></g><g><use xlink:href="#i23OwX35EX" opacity="1" fill="#9dc089" fill-opacity="1"></use></g><g><use xlink:href="#b1nP2E9sXr" opacity="1" fill="#f2cdb2" fill-opacity="1"></use></g><g><use xlink:href="#ds3VQAKWo" opacity="1" fill="#2d8a55" fill-opacity="1"></use></g><g><use xlink:href="#b3fNXBueUu" opacity="1" fill="#ccd9bb" fill-opacity="1"></use></g><g><use xlink:href="#i1dvXX5R4V" opacity="1" fill="#455845" fill-opacity="1"></use></g><g><use xlink:href="#d5KlrqUQ9G" opacity="1" fill="#7b886e" fill-opacity="1"></use></g><g><use xlink:href="#d875ddW2m" opacity="1" fill="#38c863" fill-opacity="1"></use></g><g><use xlink:href="#a34hRgbJHX" opacity="1" fill="#7b886e" fill-opacity="1"></use></g><g><use xlink:href="#c1AmHgst9n" opacity="1" fill="#7b886e" fill-opacity="1"></use></g><g><use xlink:href="#b1JQ5miuCf" opacity="1" fill="#7b886e" fill-opacity="1"></use></g><g><use xlink:href="#b6xxQw9ee" opacity="1" fill="#7b886e" fill-opacity="1"></use></g><g><use xlink:href="#b1TAblDwp" opacity="1" fill="#60fe67" fill-opacity="1"></use></g><g><use xlink:href="#c29rUWaOAj" opacity="1" fill="#52fe5d" fill-opacity="1"></use></g><g><use xlink:href="#b5dVBNunIH" opacity="1" fill="#fe5252" fill-opacity="1"></use></g><g><use xlink:href="#c1YQD1qcsx" opacity="1" fill="#646564" fill-opacity="1"></use></g></g></g></svg>