<?xml version="1.0" encoding="UTF-8" standalone="no"?>
<!DOCTYPE svg PUBLIC "-//W3C//DTD SVG 1.1//EN" "http://www.w3.org/Graphics/SVG/1.1/DTD/svg11.dtd">
<svg version="1.1" xmlns="http://www.w3.org/2000/svg" xmlns:xlink="http://www.w3.org/1999/xlink" preserveAspectRatio="xMidYMid meet" viewBox="143.82757825138742 139.2686845958774 262 262.0255615281169" width="262" height="262.03"><defs><path d="M143.83 139.29L405.83 139.29L405.83 401.29L143.83 401.29L143.83 139.29Z" id="f1VYKpI8D2"></path><path d="M186.7 277.43L179.13 317.53L195.31 336.31L195.62 385.71L182.24 400.75L164.4 400.65L151.61 384.96L151.32 338.52L166.99 317.15L156.45 277.27L186.7 277.43Z" id="buQU55UOX"></path><path d="M364.1 170.25L405.29 169.92L405.29 400.88L371.45 400.88L364.1 170.25Z" id="csoCDXaoO"></path><path d="M369.97 354.24L405.28 350.08L405.28 369.7L370.19 371.24L369.97 354.24Z" id="byOBtzXKl"></path><path d="M306.69 139.27L363.32 139.34L371.43 400.37L317.5 400.44L306.69 139.27Z" id="i5fdO4IJTe"></path><path d="M307.6 163.83L364.1 163L364.63 182.06L308.43 181.16L307.6 163.83Z" id="b7L9cebiiz"></path><path d="M144.23 208.91L174.36 182.18L316.28 370.63L316.51 376.68L287.18 400.51L144.23 208.91Z" id="c1t19HWKEg"></path><path d="M174.36 182.27L254.32 139.64L309.12 198.07L316.3 370.86L174.36 182.27Z" id="b76DrwZr3"></path></defs><g><g><g><use xlink:href="#f1VYKpI8D2" opacity="1" fill="#9b7647" fill-opacity="1"></use><g><use xlink:href="#f1VYKpI8D2" opacity="1" fill-opacity="0" stroke="#000000" stroke-width="1" stroke-opacity="1"></use></g></g><g><use xlink:href="#buQU55UOX" opacity="1" fill="#8dbb8d" fill-opacity="1"></use></g><g><use xlink:href="#csoCDXaoO" opacity="1" fill="#f39f27" fill-opacity="1"></use></g><g><use xlink:href="#byOBtzXKl" opacity="1" fill="#f2cdb2" fill-opacity="1"></use></g><g><use xlink:href="#i5fdO4IJTe" opacity="1" fill="#2d778a" fill-opacity="1"></use></g><g><use xlink:href="#b7L9cebiiz" opacity="1" fill="#8ac5d4" fill-opacity="1"></use></g><g><use xlink:href="#c1t19HWKEg" opacity="1" fill="#c89919" fill-opacity="1"></use></g><g><use xlink:href="#b76DrwZr3" opacity="1" fill="#efc961" fill-opacity="1"></use></g></g></g></svg>