<?xml version="1.0" encoding="UTF-8" standalone="no"?>
<!DOCTYPE svg PUBLIC "-//W3C//DTD SVG 1.1//EN" "http://www.w3.org/Graphics/SVG/1.1/DTD/svg11.dtd">
<svg version="1.1" xmlns="http://www.w3.org/2000/svg" xmlns:xlink="http://www.w3.org/1999/xlink" preserveAspectRatio="xMidYMid meet" viewBox="144.90496916443817 263.7719479767384 262 262" width="262" height="262"><defs><path d="M144.9 263.77L406.9 263.77L406.9 525.77L144.9 525.77L144.9 263.77Z" id="a4FHoeFH8p"></path><path d="M205.08 416.17L261.96 525.17L146.63 525.17L205.08 416.17Z" id="b2j7LnxN3A"></path><path d="M175.54 482.49L175.7 498.61L182.02 511.4L197.19 520.56L155.8 520.41L175.54 482.49Z" id="dIbwSkEym"></path><path d="M185.18 464.64L193.55 458.64L203.5 456.43L203.03 430.2L185.18 464.64Z" id="a5cgvxzJ90"></path><path d="M207.3 455.95L216.3 458.48L226.1 465.9L207.14 429.41L207.3 455.95Z" id="e2xbUWmtAW"></path><path d="M233.99 481.86L234.15 498.92L227.36 511.72L213.61 520.09L255.16 520.09L233.99 481.86Z" id="dhGdbvWmA"></path><path d="M203.19 516.3L196.55 515.67L188.34 510.93L182.49 503.35L179.02 488.97L181.7 477.91L193.08 463.22L203.5 461.48L203.19 516.3Z" id="a6mtXunEhX"></path><path d="M217.56 463.85L228.46 477.12L231.15 490.55L228.15 502.87L220.72 511.88L214.4 514.88L206.35 515.19L206.98 461.8L217.56 463.85Z" id="b9mnjfYEL"></path><path d="M365.31 294.64L406.5 294.31L406.5 525.26L372.66 525.26L365.31 294.64Z" id="g1x0tkz9RS"></path><path d="M371.18 478.63L406.49 474.46L406.49 494.09L371.4 495.62L371.18 478.63Z" id="cA5w8powt"></path><path d="M307.9 264.09L364.53 264.16L372.66 525.31L318.71 525.26L307.9 264.09Z" id="c4cNUyx6ow"></path><path d="M308.81 288.22L365.31 287.39L365.84 306.45L309.64 305.54L308.81 288.22Z" id="ax0hhjqWh"></path><path d="M145.44 333.29L175.57 306.56L317.49 495.01L317.72 501.06L288.39 524.89L145.44 333.29Z" id="b1nCPl78GZ"></path><path d="M175.56 306.66L255.53 264.02L310.33 322.45L317.51 495.25L175.56 306.66Z" id="b3IwUoSu1r"></path></defs><g><g><g><use xlink:href="#a4FHoeFH8p" opacity="1" fill="#9b7647" fill-opacity="1"></use><g><use xlink:href="#a4FHoeFH8p" opacity="1" fill-opacity="0" stroke="#000000" stroke-width="1" stroke-opacity="1"></use></g></g><g><use xlink:href="#b2j7LnxN3A" opacity="1" fill="#f7ca37" fill-opacity="1"></use></g><g><use xlink:href="#dIbwSkEym" opacity="1" fill="#9b7647" fill-opacity="1"></use></g><g><use xlink:href="#a5cgvxzJ90" opacity="1" fill="#9b7647" fill-opacity="1"></use></g><g><use xlink:href="#e2xbUWmtAW" opacity="1" fill="#9b7647" fill-opacity="1"></use></g><g><use xlink:href="#dhGdbvWmA" opacity="1" fill="#9b7647" fill-opacity="1"></use></g><g><use xlink:href="#a6mtXunEhX" opacity="1" fill="#9b7647" fill-opacity="1"></use></g><g><use xlink:href="#b9mnjfYEL" opacity="1" fill="#9b7647" fill-opacity="1"></use></g><g><use xlink:href="#g1x0tkz9RS" opacity="1" fill="#9dc089" fill-opacity="1"></use></g><g><use xlink:href="#cA5w8powt" opacity="1" fill="#f2cdb2" fill-opacity="1"></use></g><g><use xlink:href="#c4cNUyx6ow" opacity="1" fill="#2d8a55" fill-opacity="1"></use></g><g><use xlink:href="#ax0hhjqWh" opacity="1" fill="#ccd9bb" fill-opacity="1"></use></g><g><use xlink:href="#b1nCPl78GZ" opacity="1" fill="#66669a" fill-opacity="1"></use></g><g><use xlink:href="#b3IwUoSu1r" opacity="1" fill="#5481fa" fill-opacity="1"></use></g></g></g></svg>