<?xml version="1.0" encoding="UTF-8" standalone="no"?>
<!DOCTYPE svg PUBLIC "-//W3C//DTD SVG 1.1//EN" "http://www.w3.org/Graphics/SVG/1.1/DTD/svg11.dtd">
<svg version="1.1" xmlns="http://www.w3.org/2000/svg" xmlns:xlink="http://www.w3.org/1999/xlink" preserveAspectRatio="xMidYMid meet" viewBox="155.58851674641164 162.18819776714508 262 262" width="262" height="262"><defs><path d="M155.59 162.19L417.59 162.19L417.59 424.19L155.59 424.19L155.59 162.19Z" id="f2vD5VfYvu"></path><path d="M156.86 198.23L224.11 196.88L224.11 307.23L156.04 336.9L156.86 198.23Z" id="g14OrBoLqH"></path><path d="M156.01 336.87L223.99 307.27L224.19 423.81L156.01 423.6L156.01 336.87Z" id="iaSJIf6Hj"></path><path d="M224.02 182.48L286.67 182.37L287.18 423.75L224.14 423.75L224.02 182.48Z" id="aFHWQaxgA"></path><path d="M365.74 422.01L372.27 423.89L382.56 415.48L390.24 399.83L390.09 383.89L394.15 380.7L399.95 396.93L405.45 398.67L411.25 395.19L417.19 377.66L417.34 357.37L409.95 347.22L403.28 346.93L397.63 353.89L397.77 355.19L354.59 355.48L338.21 367.66L331.11 381.72L335.16 384.18L340.82 371.57L356.18 360.85L396.61 361.86L395.6 373.02L391.83 370.7L387.63 375.63L381.98 368.96L377.05 368.67L372.41 367.8L362.27 375.34L355.45 393.6L355.74 398.67L287.34 389.98L287.34 393.17L290.09 393.75L286.9 402.59L290.38 403.75L294.3 394.91L355.6 408.53L355.6 411.72L365.74 422.01Z" id="b1Axh7stGN"></path><path d="M382.85 376.93L385.89 395.19L380.53 409.83L371.98 417.8L368.21 417.66L361.69 408.38L361.83 392.3L366.47 379.11L374.3 372.3L379.51 372.59L382.85 376.93Z" id="b2gwP5EDoZ"></path><path d="M400.82 384.04L404.59 392.15L406.9 392.73L412.99 382.73L414.15 362.44L400.96 362.01L400.82 384.04Z" id="b28At49Zbd"></path><path d="M406.76 352.15L409.95 352.15L411.25 355.48L404.88 355.19L406.76 352.15Z" id="aRTK0PVdc"></path></defs><g><g><g><use xlink:href="#f2vD5VfYvu" opacity="1" fill="#9b7647" fill-opacity="1"></use><g><use xlink:href="#f2vD5VfYvu" opacity="1" fill-opacity="0" stroke="#000000" stroke-width="1" stroke-opacity="1"></use></g></g><g><use xlink:href="#g14OrBoLqH" opacity="1" fill="#99679a" fill-opacity="1"></use></g><g><use xlink:href="#iaSJIf6Hj" opacity="1" fill="#cb99cc" fill-opacity="1"></use></g><g><use xlink:href="#aFHWQaxgA" opacity="1" fill="#efcd22" fill-opacity="1"></use></g><g><use xlink:href="#b1Axh7stGN" opacity="1" fill="#2d2d2d" fill-opacity="1"></use></g><g><use xlink:href="#b2gwP5EDoZ" opacity="1" fill="#eaeaea" fill-opacity="1"></use></g><g><use xlink:href="#b28At49Zbd" opacity="1" fill="#eaeaea" fill-opacity="1"></use></g><g><use xlink:href="#aRTK0PVdc" opacity="1" fill="#eaeaea" fill-opacity="1"></use></g></g></g></svg>