<?xml version="1.0" encoding="UTF-8" standalone="no"?>
<!DOCTYPE svg PUBLIC "-//W3C//DTD SVG 1.1//EN" "http://www.w3.org/Graphics/SVG/1.1/DTD/svg11.dtd">
<svg version="1.1" xmlns="http://www.w3.org/2000/svg" xmlns:xlink="http://www.w3.org/1999/xlink" preserveAspectRatio="xMidYMid meet" viewBox="112.49932541220562 217.99783751675614 262 262" width="262" height="262"><defs><path d="M112.5 218L374.5 218L374.5 480L112.5 480L112.5 218Z" id="dy2ECEyZ8"></path><path d="M112.88 254.44L180.13 253.09L180.13 363.44L112.95 392.84L112.88 254.44Z" id="eRk4MHtrU"></path><path d="M113 392.55L180.01 363.48L179.95 479.57L113.09 479.63L113 392.55Z" id="aYrRLdM2Z"></path><path d="M180.44 238.38L244.06 238.5L243.6 479.49L180.09 479.49L180.44 238.38Z" id="b3SuburGj1"></path><path d="M286.51 432.04L285.36 429.74L294.18 413.88L305.69 410.81L306.08 434.08L305.57 466.18L290.6 464.39L287.54 458.51L243.93 465.54L243.67 430.63L286.51 432.04Z" id="b5ZstzMVHv"></path><path d="M346.06 479.56L347 369.69L306.08 369.82L305.88 479.56L346.06 479.56Z" id="b3leUYtadw"></path><path d="M294.08 413.83L287.74 425.4L305.95 433.97L320.53 444.72L328.97 444.72L333.32 441.65L334.08 434.74L316.05 416.58L300.63 412.12L294.08 413.83Z" id="a1PPwP9gHb"></path><path d="M317.84 433.46L317.97 437.04L322.83 442.41L329.35 440.5L331.65 435.25L326.92 430.14L321.55 430.14L317.84 433.46Z" id="a3xUUNZDp"></path><path d="M346.61 424.35L360.46 414.2L357.89 412.22L346.57 414.44L346.61 424.35Z" id="b9fS60l8W"></path><path d="M346.55 424.38L346.44 432.3L350.35 434.86L363.26 431.02L366.21 427.06L363.01 414.78L360.45 414.14L346.55 424.38Z" id="a2d1mUV3tJ"></path><path d="M358.28 431.66L359.17 425.52L356.61 423.09L350.48 425.27L349.2 429.36L351.37 433.96L358.28 431.66Z" id="kgqwULaHR"></path><path d="M349.05 450.86L346.26 453.72L346.29 460.63L348.07 463.51L362.19 460.86L363.76 456.84L364.05 450.86L349.05 450.86Z" id="a1B5uawx0w"></path><path d="M352.39 434.98L346.33 439.3L346.38 445.85L349.65 448.73L366.49 447.2L368.25 444.45L368.76 435.5L352.39 434.98Z" id="a9S1F3knn"></path><path d="M346.13 478.58L352.88 475.57L353.86 470.37L350.03 465.76L346.25 464.98L346.13 478.58Z" id="c1XqA9MqxW"></path><path d="M346.14 473.41L350.23 470.37L350.03 466.45L348.66 465.96L348.76 469.29L346.26 471.65L346.14 473.41Z" id="fkQ9TZi6S"></path><path d="M349.64 448.71L346.39 445.85L346.24 453.7L349.25 450.86L364.08 450.86L360.23 447.73L349.64 448.71Z" id="f32ByHeuEl"></path><path d="M350.6 434.73L346.44 432.42L346.41 439.25L352.52 435.24L368.58 435.5L363.3 430.97L350.6 434.73Z" id="a2a5deT8c2"></path><path d="M354.35 460.67L349.44 461.35L347.48 455.67L349.93 452.82L353.56 452.73L356.11 455.67L354.35 460.67Z" id="e11KYPjUd"></path><path d="M351.21 448.41L350.52 440.18L352.78 437.82L358.66 437.73L359.74 440.86L358.37 447.24L351.21 448.41Z" id="dtgwmAlG8"></path><path d="M331.05 369.7L335.48 360.05L328.55 348.84L325.12 348.91L318.26 360.34L323.26 369.77L331.05 369.7Z" id="c2g4LCLIqX"></path></defs><g><g><g><use xlink:href="#dy2ECEyZ8" opacity="1" fill="#9b7647" fill-opacity="1"></use><g><use xlink:href="#dy2ECEyZ8" opacity="1" fill-opacity="0" stroke="#000000" stroke-width="1" stroke-opacity="1"></use></g></g><g><use xlink:href="#eRk4MHtrU" opacity="1" fill="#42a294" fill-opacity="1"></use></g><g><use xlink:href="#aYrRLdM2Z" opacity="1" fill="#33cb98" fill-opacity="1"></use></g><g><use xlink:href="#b3SuburGj1" opacity="1" fill="#cb7733" fill-opacity="1"></use></g><g><use xlink:href="#b5ZstzMVHv" opacity="1" fill="#d0b485" fill-opacity="1"></use></g><g><use xlink:href="#b3leUYtadw" opacity="1" fill="#333333" fill-opacity="1"></use></g><g><use xlink:href="#a1PPwP9gHb" opacity="1" fill="#f2dcc5" fill-opacity="1"></use></g><g><use xlink:href="#a3xUUNZDp" opacity="1" fill="#d0b485" fill-opacity="1"></use></g><g><use xlink:href="#b9fS60l8W" opacity="1" fill="#d0b485" fill-opacity="1"></use></g><g><use xlink:href="#a2d1mUV3tJ" opacity="1" fill="#f2dcc5" fill-opacity="1"></use></g><g><use xlink:href="#kgqwULaHR" opacity="1" fill="#d0b485" fill-opacity="1"></use></g><g><use xlink:href="#a1B5uawx0w" opacity="1" fill="#f2dcc5" fill-opacity="1"></use></g><g><use xlink:href="#a9S1F3knn" opacity="1" fill="#f2dcc5" fill-opacity="1"></use></g><g><use xlink:href="#c1XqA9MqxW" opacity="1" fill="#f2dcc5" fill-opacity="1"></use></g><g><use xlink:href="#fkQ9TZi6S" opacity="1" fill="#d0b485" fill-opacity="1"></use></g><g><use xlink:href="#f32ByHeuEl" opacity="1" fill="#d0b485" fill-opacity="1"></use></g><g><use xlink:href="#a2a5deT8c2" opacity="1" fill="#d0b485" fill-opacity="1"></use></g><g><use xlink:href="#e11KYPjUd" opacity="1" fill="#d0b485" fill-opacity="1"></use></g><g><use xlink:href="#dtgwmAlG8" opacity="1" fill="#d0b485" fill-opacity="1"></use></g><g><use xlink:href="#c2g4LCLIqX" opacity="1" fill="#e43613" fill-opacity="1"></use></g></g></g></svg>