<?xml version="1.0" encoding="UTF-8" standalone="no"?>
<!DOCTYPE svg PUBLIC "-//W3C//DTD SVG 1.1//EN" "http://www.w3.org/Graphics/SVG/1.1/DTD/svg11.dtd">
<svg version="1.1" xmlns="http://www.w3.org/2000/svg" xmlns:xlink="http://www.w3.org/1999/xlink" preserveAspectRatio="xMidYMid meet" viewBox="339.9468845760982 140.8586993530812 262 262" width="262" height="262"><defs><path d="M339.95 140.86L601.95 140.86L601.95 402.86L339.95 402.86L339.95 140.86Z" id="d6lJbaXKIA"></path><path d="M341.22 176.9L408.47 175.55L408.47 285.9L340.4 315.57L341.22 176.9Z" id="bnYgNqdxq"></path><path d="M340.36 315.55L408.34 285.94L408.55 402.48L340.36 402.27L340.36 315.55Z" id="a1M57UpaAV"></path><path d="M408.38 161.15L471.03 161.04L471.54 402.42L408.5 402.42L408.38 161.15Z" id="b34RnTpLiS"></path><path d="M495.92 320.93L486.78 356.62L496.26 352.48L510.4 353.69L527.47 366.1L527.64 374.89L537.13 370.93L545.57 375.07L545.57 365.93L563.16 353.51L577.64 352.65L585.92 356.79L576.95 320.93L564.54 332.31L562.82 329.38L580.92 310.75L598.68 383.34L586.09 402.48L558.68 402.31L545.57 387.31L545.57 382.13L536.09 378.34L527.64 382.31L527.47 387.65L515.06 402.13L487.3 402.13L475.06 382.65L492.47 310.93L510.4 329.03L508.68 332.31L495.92 320.93Z" id="g1ZCTa9Jd"></path><path d="M522.71 386.41L509.88 397.78L489.25 397.25L482.37 386.54L486.21 363L505.12 356.65L522.05 368.15L522.71 386.41Z" id="d1FjR0Kivf"></path><path d="M550.49 386.14L563.72 397.92L583.56 397.52L590.18 386.28L586.6 363.13L567.56 356.78L550.76 368.02L550.49 386.14Z" id="c16dCwXQ2N"></path></defs><g><g><g><use xlink:href="#d6lJbaXKIA" opacity="1" fill="#9b7647" fill-opacity="1"></use></g><g><use xlink:href="#bnYgNqdxq" opacity="1" fill="#99679a" fill-opacity="1"></use></g><g><use xlink:href="#a1M57UpaAV" opacity="1" fill="#cb99cc" fill-opacity="1"></use></g><g><use xlink:href="#b34RnTpLiS" opacity="1" fill="#efcd22" fill-opacity="1"></use></g><g><use xlink:href="#g1ZCTa9Jd" opacity="1" fill="#3b3b3b" fill-opacity="1"></use></g><g><use xlink:href="#d1FjR0Kivf" opacity="1" fill="#eaeaea" fill-opacity="1"></use></g><g><use xlink:href="#c16dCwXQ2N" opacity="1" fill="#eaeaea" fill-opacity="1"></use></g></g></g></svg>