<?xml version="1.0" encoding="UTF-8" standalone="no"?>
<!DOCTYPE svg PUBLIC "-//W3C//DTD SVG 1.1//EN" "http://www.w3.org/Graphics/SVG/1.1/DTD/svg11.dtd">
<svg version="1.1" xmlns="http://www.w3.org/2000/svg" xmlns:xlink="http://www.w3.org/1999/xlink" preserveAspectRatio="xMidYMid meet" viewBox="192.00000000000023 152.66666666666652 262 262" width="262" height="262"><defs><path d="M192 152.67L454 152.67L454 414.67L192 414.67L192 152.67Z" id="d4dlW7dIN5"></path><path d="M193.27 188.71L260.52 187.36L260.52 297.71L192.45 327.37L193.27 188.71Z" id="a8pOvxqjNL"></path><path d="M192.42 327.35L260.4 297.75L260.6 414.28L192.42 414.08L192.42 327.35Z" id="aPOLeNOrZ"></path><path d="M260.43 172.96L323.08 172.85L323.59 414.23L260.55 414.23L260.43 172.96Z" id="f1R9bjJSBb"></path><path d="M347.97 332.74L338.83 368.42L348.32 364.29L362.46 365.49L379.52 377.91L379.7 386.7L389.18 382.74L397.63 386.87L397.63 377.74L415.21 365.32L429.7 364.46L437.97 368.6L429.01 332.74L416.59 344.11L414.87 341.18L432.97 322.56L450.73 395.15L438.14 414.29L410.73 414.11L397.63 399.11L397.63 393.94L388.14 390.15L379.7 394.11L379.52 399.46L367.11 413.94L339.35 413.94L327.11 394.46L344.52 322.74L362.46 340.84L360.73 344.11L347.97 332.74Z" id="e7KCgJ4cBV"></path><path d="M374.77 398.22L361.94 409.59L341.3 409.06L334.42 398.35L338.26 374.8L357.18 368.45L374.11 379.96L374.77 398.22Z" id="bbMiT61QZ"></path><path d="M402.55 397.95L415.77 409.72L435.61 409.33L442.23 398.08L438.66 374.94L419.61 368.59L402.81 379.83L402.55 397.95Z" id="hRxOcZuhU"></path></defs><g><g><g><use xlink:href="#d4dlW7dIN5" opacity="1" fill="#9b7647" fill-opacity="1"></use><g><use xlink:href="#d4dlW7dIN5" opacity="1" fill-opacity="0" stroke="#000000" stroke-width="1" stroke-opacity="1"></use></g></g><g><use xlink:href="#a8pOvxqjNL" opacity="1" fill="#99679a" fill-opacity="1"></use></g><g><use xlink:href="#aPOLeNOrZ" opacity="1" fill="#cb99cc" fill-opacity="1"></use></g><g><use xlink:href="#f1R9bjJSBb" opacity="1" fill="#efcd22" fill-opacity="1"></use></g><g><use xlink:href="#e7KCgJ4cBV" opacity="1" fill="#3b3b3b" fill-opacity="1"></use></g><g><use xlink:href="#bbMiT61QZ" opacity="1" fill="#eaeaea" fill-opacity="1"></use></g><g><use xlink:href="#hRxOcZuhU" opacity="1" fill="#eaeaea" fill-opacity="1"></use></g></g></g></svg>