<?xml version="1.0" encoding="UTF-8" standalone="no"?>
<!DOCTYPE svg PUBLIC "-//W3C//DTD SVG 1.1//EN" "http://www.w3.org/Graphics/SVG/1.1/DTD/svg11.dtd">
<svg version="1.1" xmlns="http://www.w3.org/2000/svg" xmlns:xlink="http://www.w3.org/1999/xlink" preserveAspectRatio="xMidYMid meet" viewBox="272.3489749084277 22.82026973385723 261.99999999999994 262" width="262" height="262"><defs><path d="M272.35 22.82L534.35 22.82L534.35 284.82L272.35 284.82L272.35 22.82Z" id="a2JxDwHRBE"></path><path d="M272.51 23.04L321.66 23.18L321.66 284.29L272.51 284.57L272.51 23.04Z" id="b17F211dCX"></path><path d="M272.49 223.98L321.68 228.44L321.6 246.71L272.67 242L272.49 223.98Z" id="b4eEjathEZ"></path><path d="M321.56 62.5L396.59 63.81L399.4 263.62L321.63 264.9L321.56 62.5Z" id="eByhptElt"></path><path d="M321.42 264.76L399.46 263.86L399.84 283.91L321.81 283.91L321.42 264.76Z" id="a3AE4qs7B4"></path><path d="M321.56 45.15L396.05 43.21L396.6 63.83L321.78 62.22L321.56 45.15Z" id="a4SBmuZXvX"></path><path d="M399.95 284.21L405.55 284.39L429.14 66.02L396.49 76.35L399.95 284.21Z" id="c99ii1ipr"></path><path d="M405.56 284.37L446.09 284.36L466.07 73.23L429.2 65.99L405.56 284.37Z" id="i2xpWHZSka"></path><path d="M466.06 23.33L533.84 23.13L533.94 284.24L467.9 284.24L466.06 23.33Z" id="c1drJaF1N3"></path><path d="M466.23 62.48L533.81 62.58L533.71 83.48L466.33 84.19L466.23 62.48Z" id="e3UoiyXIC9"></path></defs><g><g><g><use xlink:href="#a2JxDwHRBE" opacity="1" fill="#9b7647" fill-opacity="1"></use></g><g><use xlink:href="#b17F211dCX" opacity="1" fill="#c38e40" fill-opacity="1"></use></g><g><use xlink:href="#b4eEjathEZ" opacity="1" fill="#414a89" fill-opacity="1"></use></g><g><use xlink:href="#eByhptElt" opacity="1" fill="#fce71b" fill-opacity="1"></use></g><g><use xlink:href="#a3AE4qs7B4" opacity="1" fill="#09d7cd" fill-opacity="1"></use></g><g><use xlink:href="#a4SBmuZXvX" opacity="1" fill="#09d7cd" fill-opacity="1"></use></g><g><use xlink:href="#c99ii1ipr" opacity="1" fill="#bd55c5" fill-opacity="1"></use></g><g><use xlink:href="#i2xpWHZSka" opacity="1" fill="#f4aff9" fill-opacity="1"></use></g><g><use xlink:href="#c1drJaF1N3" opacity="1" fill="#5ead7f" fill-opacity="1"></use></g><g><use xlink:href="#e3UoiyXIC9" opacity="1" fill="#bfde12" fill-opacity="1"></use></g></g></g></svg>