<?xml version="1.0" encoding="UTF-8" standalone="no"?>
<!DOCTYPE svg PUBLIC "-//W3C//DTD SVG 1.1//EN" "http://www.w3.org/Graphics/SVG/1.1/DTD/svg11.dtd">
<svg version="1.1" xmlns="http://www.w3.org/2000/svg" xmlns:xlink="http://www.w3.org/1999/xlink" preserveAspectRatio="xMidYMid meet" viewBox="52.13793103448279 320 524 262.0000000000002" width="524" height="262"><defs><path d="M52.14 320L576.14 320L576.14 582L52.14 582L52.14 320Z" id="a5cYWfS50"></path><path d="M105.41 560L105.41 581.62L52.8 581.62L52.8 560L105.41 560Z" id="k1lnWtxyI8"></path><path d="M358.88 490.43L378.21 474.57L392.38 474.16L413.44 487.51L413.09 576.32L405.82 581.37L364.83 581.37L358.6 577.07L358.88 490.43Z" id="ch5qMSMOu"></path><path d="M52.46 398.56L104.61 397.64L105.41 560L52.8 560L52.46 398.56Z" id="cDYGNzMaZ"></path><path d="M79.27 355.41L86.33 354.95L95.38 361.7L95.38 374.28L88.64 381.78L104.47 381.32L104.47 397.64L52.46 398.65L52.46 382.85L64.66 382.49L58.57 373.36L57.49 362.93L67.46 355.41L72.68 355.41L69.76 342.68L76.97 329.03L82.95 342.68L79.27 355.41Z" id="bppvaXhL"></path><path d="M128.25 371.61L128.25 355.28L133.59 348.79L138.52 357.07L138.52 371.61L166.48 393.76L167.84 539.96L142.79 539.47L142.79 574.19L167.84 574.19L167.84 581.62L105.41 582L105.41 574.19L128.25 574.19L128.25 539.47L105.41 539.47L104.47 395.62L128.25 371.61Z" id="aJucumm8N"></path><path d="M192.07 500.5L192.07 469.18L210.19 469.18L210.19 499.82L227.87 514.81L229.52 518.57L225.35 562.51L217.13 582L184.91 582L176.39 562.96L172.46 519.31L173.95 515.93L192.07 500.5Z" id="b1JJ8ZZBv"></path><path d="M229.52 518.98L233.56 527.19L234.14 542.44L225.34 562.38L176.37 562.97L167.84 544.35L167.84 529.1L172.46 519.57L229.52 518.98Z" id="a195uI7wG5"></path><path d="M195.26 462.38L188.13 442.42L188.43 459.55L195.26 462.38Z" id="a1Vc9JgbTY"></path><path d="M206.65 463.33L213.68 442.72L215.46 459.09L206.65 463.33Z" id="a8U9HYKX9Y"></path><path d="M194.77 462.12L198.73 463.81L193.08 430.64L191.08 451L194.77 462.12Z" id="i15bRDQNy6"></path><path d="M207.34 462.38L203.08 464.2L205.85 430.34L210.61 451.72L207.34 462.38Z" id="a1MqVFkxHX"></path><path d="M203.25 465.15L201.5 465L198.73 464.2L195.09 442.42L199.52 430.34L204.96 441.13L203.25 465.15Z" id="eMqcW8BTt"></path><path d="M201.7 464.8L222.19 455.89L207.14 469.18L195.66 469.18L178.73 455.59L201.7 464.8Z" id="aXdENegUU"></path><path d="M280.04 433.98L286.58 415.75L259.14 417.89L263.56 433.69L280.04 433.98Z" id="a6jkpEO2E"></path><path d="M255.5 432.86L288.89 432.32L283.76 440.85L283.76 469.66L307.54 501.52L308.91 574.69L300.84 582L247.33 582L242.45 576.82L241.84 501.52L261.05 471.33L261.35 440.85L255.5 432.86Z" id="a5ARtSrNq"></path><path d="M307.76 509.29L308.7 557.61L242.23 557.61L241.84 509.75L307.76 509.29Z" id="e1rJMjgKt"></path><path d="M283.76 440.6L284.01 457.74L261.14 457.52L261.35 440.6L283.76 440.6Z" id="arxxI8zRz"></path><path d="M313.83 538.81L307.98 533.45L306.24 370.4L358.69 369.64L358.88 534.63L351.79 539.63L339.42 539.16L343.96 545.58L337.06 563.43L358.69 577.31L358.69 581.37L308.91 581.37L308.91 576.84L327.81 563.43L321.2 544.92L326.68 539.16L313.83 538.81Z" id="aB7J1VzbG"></path><path d="M358.67 369.64L358.2 365.25L337.52 360.72L344.79 340.13L319.48 340.13L327.98 360.72L306.24 364.97L306.24 370.26L358.67 369.64Z" id="e18KKWWLTK"></path><path d="M387.9 479.93L386.77 516.05L382.3 516.05L382.8 479.93L387.9 479.93Z" id="eqU0eJg4L"></path><path d="M358.6 568.4L413.17 569.44L413.44 515.15L358.6 514.67L358.6 568.4Z" id="b1lqxrXQTh"></path><path d="M391.98 474.16L391.94 480.44L378.05 480.73L378.34 474.4L391.98 474.16Z" id="a156XL41FC"></path><path d="M374.1 464.34L377.78 460.66L380.52 460.66L379.95 443.76L380.8 441.49L384.11 438.28L388.36 440.45L390.18 445.48L390.65 460.87L392.35 460.87L395.94 464.74L395.94 474.16L374.5 474.4L374.1 464.34Z" id="dl42WeHZf"></path><path d="M413.44 474.4L423.9 467.94L495.71 467.08L504.86 476.1L504.6 571.5L492.61 581.37L424.75 581.37L413.01 572.74L413.44 474.4Z" id="b5DgQYP7Q"></path><path d="M495.24 467.08L500.56 463.04L499.69 458.34L466.57 442.52L469.16 427.93L458.65 418.78L448.79 427.23L450.89 442.18L418.38 460.35L418.75 464.31L423.57 468.14L495.24 467.08Z" id="fTq9FO4On"></path><path d="M518.05 430.4L505.48 421.13L532.3 421.13L528.1 412.97L528.84 407.29L532.67 402.34L543.55 402.34L549.36 408.15L550.22 413.72L546.64 421.13L575.53 421.63L561.06 430.4L561.06 560.82L575.53 569.11L575.53 581.37L504.45 581.37L504.86 569.6L518.05 560.82L518.05 430.4Z" id="b2wXIOYuHl"></path><path d="M560.97 430.43L560.97 451.94L518.04 451L518.04 430.43L560.97 430.43Z" id="aqWnFOJN"></path></defs><g><g><g><use xlink:href="#a5cYWfS50" opacity="1" fill="#9b7647" fill-opacity="1"></use></g><g><use xlink:href="#k1lnWtxyI8" opacity="1" fill="#6587fc" fill-opacity="1"></use></g><g><use xlink:href="#ch5qMSMOu" opacity="1" fill="#09887e" fill-opacity="1"></use></g><g><use xlink:href="#cDYGNzMaZ" opacity="1" fill="#2d6783" fill-opacity="1"></use></g><g><use xlink:href="#bppvaXhL" opacity="1" fill="#6587fc" fill-opacity="1"></use></g><g><use xlink:href="#aJucumm8N" opacity="1" fill="#c02a71" fill-opacity="1"></use></g><g><use xlink:href="#b1JJ8ZZBv" opacity="1" fill="#8305ff" fill-opacity="1"></use></g><g><use xlink:href="#a195uI7wG5" opacity="1" fill="#dbd34f" fill-opacity="1"></use></g><g><use xlink:href="#a1Vc9JgbTY" opacity="1" fill="#ec6412" fill-opacity="1"></use></g><g><use xlink:href="#a8U9HYKX9Y" opacity="1" fill="#ec6412" fill-opacity="1"></use></g><g><use xlink:href="#i15bRDQNy6" opacity="1" fill="#f36e10" fill-opacity="1"></use></g><g><use xlink:href="#a1MqVFkxHX" opacity="1" fill="#f36e10" fill-opacity="1"></use></g><g><use xlink:href="#eMqcW8BTt" opacity="1" fill="#ff9600" fill-opacity="1"></use></g><g><use xlink:href="#aXdENegUU" opacity="1" fill="#ff0000" fill-opacity="1"></use></g><g><use xlink:href="#a6jkpEO2E" opacity="1" fill="#aa9a70" fill-opacity="1"></use></g><g><use xlink:href="#a5ARtSrNq" opacity="1" fill="#38748a" fill-opacity="1"></use></g><g><use xlink:href="#e1rJMjgKt" opacity="1" fill="#c271cf" fill-opacity="1"></use></g><g><use xlink:href="#arxxI8zRz" opacity="1" fill="#c271cf" fill-opacity="1"></use></g><g><use xlink:href="#aB7J1VzbG" opacity="1" fill="#acdce6" fill-opacity="1"></use></g><g><use xlink:href="#e18KKWWLTK" opacity="1" fill="#09887e" fill-opacity="1"></use></g><g><use xlink:href="#eqU0eJg4L" opacity="1" fill="#48716e" fill-opacity="1"></use></g><g><use xlink:href="#b1lqxrXQTh" opacity="1" fill="#9bfff7" fill-opacity="1"></use></g><g><use xlink:href="#a156XL41FC" opacity="1" fill="#2f2f2f" fill-opacity="1"></use></g><g><use xlink:href="#dl42WeHZf" opacity="1" fill="#1a1a1a" fill-opacity="1"></use></g><g><use xlink:href="#b5DgQYP7Q" opacity="1" fill="#0a6187" fill-opacity="1"></use></g><g><use xlink:href="#fTq9FO4On" opacity="1" fill="#b1b1b1" fill-opacity="1"></use></g><g><use xlink:href="#b2wXIOYuHl" opacity="1" fill="#ad3a9d" fill-opacity="1"></use></g><g><use xlink:href="#aqWnFOJN" opacity="1" fill="#cfa0c9" fill-opacity="1"></use></g></g></g></svg>