<?xml version="1.0" encoding="UTF-8" standalone="no"?>
<!DOCTYPE svg PUBLIC "-//W3C//DTD SVG 1.1//EN" "http://www.w3.org/Graphics/SVG/1.1/DTD/svg11.dtd">
<svg version="1.1" xmlns="http://www.w3.org/2000/svg" xmlns:xlink="http://www.w3.org/1999/xlink" preserveAspectRatio="xMidYMid meet" viewBox="52.13793103448279 29.4895524332278 524 262.0000000000001" width="524" height="262"><defs><path d="M52.14 29.49L576.14 29.49L576.14 291.49L52.14 291.49L52.14 29.49Z" id="b4BecDrjUD"></path><path d="M105.41 269.49L105.41 291.11L52.8 291.11L52.8 269.49L105.41 269.49Z" id="a2GurccSoy"></path><path d="M358.88 199.92L378.21 184.06L392.38 183.65L413.44 197L413.09 285.81L405.82 290.86L364.83 290.86L358.6 286.56L358.88 199.92Z" id="anUdILKOO"></path><path d="M52.46 108.05L104.61 107.13L105.41 269.49L52.8 269.49L52.46 108.05Z" id="aYPBUHjEK"></path><path d="M79.27 64.9L86.33 64.44L95.38 71.19L95.38 83.77L88.64 91.27L104.47 90.81L104.47 107.13L52.46 108.14L52.46 92.34L64.66 91.98L58.57 82.85L57.49 72.42L67.46 64.9L72.68 64.9L69.76 52.17L76.97 38.52L82.95 52.17L79.27 64.9Z" id="daB4lgyo9"></path><path d="M128.25 81.1L128.25 64.77L133.59 58.28L138.52 66.56L138.52 81.1L166.48 103.25L167.84 249.45L142.79 248.96L142.79 283.68L167.84 283.68L167.84 291.11L105.41 291.49L105.41 283.68L128.25 283.68L128.25 248.96L105.41 248.96L104.47 105.11L128.25 81.1Z" id="e1bL7qm7H2"></path><path d="M192.07 209.98L192.07 178.66L210.19 178.66L210.19 209.31L227.87 224.3L229.52 228.06L225.35 272L217.13 291.49L184.91 291.49L176.39 272.45L172.46 228.8L173.95 225.42L192.07 209.98Z" id="d4G27yT89z"></path><path d="M229.52 228.47L233.56 236.68L234.14 251.93L225.34 271.87L176.37 272.46L167.84 253.84L167.84 238.59L172.46 229.06L229.52 228.47Z" id="aBW1HGcdW"></path><path d="M195.26 171.87L188.13 151.91L188.43 169.04L195.26 171.87Z" id="i8D98pEGJi"></path><path d="M206.65 172.82L213.68 152.21L215.46 168.58L206.65 172.82Z" id="a54StTqCM0"></path><path d="M194.77 171.61L198.73 173.3L193.08 140.13L191.08 160.49L194.77 171.61Z" id="h5MJORWhuD"></path><path d="M207.34 171.87L203.08 173.69L205.85 139.83L210.61 161.21L207.34 171.87Z" id="d2d59LUnl"></path><path d="M203.25 174.64L201.5 174.48L198.73 173.69L195.09 151.91L199.52 139.83L204.96 150.62L203.25 174.64Z" id="c7Du34Qw0H"></path><path d="M201.7 174.29L222.19 165.38L207.14 178.66L195.66 178.66L178.73 165.08L201.7 174.29Z" id="b1WTFB3xkf"></path><path d="M280.04 143.47L286.58 125.24L259.14 127.38L263.56 143.18L280.04 143.47Z" id="at4ltKL3J"></path><path d="M255.5 142.35L288.89 141.81L283.76 150.33L283.76 179.15L307.54 211.01L308.91 284.18L300.84 291.49L247.33 291.49L242.45 286.31L241.84 211.01L261.05 180.82L261.35 150.33L255.5 142.35Z" id="b233cQ1unA"></path><path d="M307.76 218.78L308.7 267.1L242.23 267.1L241.84 219.24L307.76 218.78Z" id="afjj3YRO9"></path><path d="M283.76 150.09L284.01 167.23L261.14 167.01L261.35 150.09L283.76 150.09Z" id="f2bUZAA5CK"></path><path d="M313.83 248.3L307.98 242.94L306.24 79.89L358.69 79.13L358.88 244.12L351.79 249.12L339.42 248.65L343.96 255.07L337.06 272.92L358.69 286.8L358.69 290.86L308.91 290.86L308.91 286.33L327.81 272.92L321.2 254.41L326.68 248.65L313.83 248.3Z" id="c173sftcB"></path><path d="M358.67 79.13L358.2 74.74L337.52 70.21L344.79 49.62L319.48 49.62L327.98 70.21L306.24 74.46L306.24 79.74L358.67 79.13Z" id="e2URiXize"></path><path d="M387.9 189.42L386.77 225.54L382.3 225.54L382.8 189.42L387.9 189.42Z" id="a6cAk8HNde"></path><path d="M358.6 277.89L413.17 278.93L413.44 224.64L358.6 224.16L358.6 277.89Z" id="arAHuQwUE"></path><path d="M391.98 183.65L391.94 189.93L378.05 190.22L378.34 183.89L391.98 183.65Z" id="crMnnu4Bn"></path><path d="M374.1 173.83L377.78 170.15L380.52 170.15L379.95 153.25L380.8 150.98L384.11 147.77L388.36 149.94L390.18 154.97L390.65 170.36L392.35 170.36L395.94 174.23L395.94 183.65L374.5 183.89L374.1 173.83Z" id="d4F4KYyrs"></path><path d="M413.44 183.89L423.9 177.43L495.71 176.57L504.86 185.59L504.6 280.99L492.61 290.86L424.75 290.86L413.01 282.23L413.44 183.89Z" id="e24RK6O6VL"></path><path d="M495.24 176.57L500.56 172.53L499.69 167.83L466.57 152.01L469.16 137.42L458.65 128.27L448.79 136.72L450.89 151.67L418.38 169.84L418.75 173.8L423.57 177.63L495.24 176.57Z" id="ifELODHvM"></path><path d="M518.05 139.89L505.48 130.62L532.3 130.62L528.1 122.46L528.84 116.78L532.67 111.83L543.55 111.83L549.36 117.64L550.22 123.21L546.64 130.62L575.53 131.12L561.06 139.89L561.06 270.31L575.53 278.6L575.53 290.86L504.45 290.86L504.86 279.09L518.05 270.31L518.05 139.89Z" id="a1KadrovF"></path><path d="M560.97 139.92L560.97 161.43L518.04 160.49L518.04 139.92L560.97 139.92Z" id="c3ujcu40Nh"></path></defs><g><g><g><use xlink:href="#b4BecDrjUD" opacity="1" fill="#7e7e7e" fill-opacity="1"></use></g><g><use xlink:href="#a2GurccSoy" opacity="1" fill="#6587fc" fill-opacity="1"></use></g><g><use xlink:href="#anUdILKOO" opacity="1" fill="#09887e" fill-opacity="1"></use></g><g><use xlink:href="#aYPBUHjEK" opacity="1" fill="#2d6783" fill-opacity="1"></use></g><g><use xlink:href="#daB4lgyo9" opacity="1" fill="#6587fc" fill-opacity="1"></use></g><g><use xlink:href="#e1bL7qm7H2" opacity="1" fill="#c02a71" fill-opacity="1"></use></g><g><use xlink:href="#d4G27yT89z" opacity="1" fill="#8305ff" fill-opacity="1"></use></g><g><use xlink:href="#aBW1HGcdW" opacity="1" fill="#dbd34f" fill-opacity="1"></use></g><g><use xlink:href="#i8D98pEGJi" opacity="1" fill="#ec6412" fill-opacity="1"></use></g><g><use xlink:href="#a54StTqCM0" opacity="1" fill="#ec6412" fill-opacity="1"></use></g><g><use xlink:href="#h5MJORWhuD" opacity="1" fill="#f36e10" fill-opacity="1"></use></g><g><use xlink:href="#d2d59LUnl" opacity="1" fill="#f36e10" fill-opacity="1"></use></g><g><use xlink:href="#c7Du34Qw0H" opacity="1" fill="#ff9600" fill-opacity="1"></use></g><g><use xlink:href="#b1WTFB3xkf" opacity="1" fill="#ff0000" fill-opacity="1"></use></g><g><use xlink:href="#at4ltKL3J" opacity="1" fill="#aa9a70" fill-opacity="1"></use></g><g><use xlink:href="#b233cQ1unA" opacity="1" fill="#38748a" fill-opacity="1"></use></g><g><use xlink:href="#afjj3YRO9" opacity="1" fill="#c271cf" fill-opacity="1"></use></g><g><use xlink:href="#f2bUZAA5CK" opacity="1" fill="#c271cf" fill-opacity="1"></use></g><g><use xlink:href="#c173sftcB" opacity="1" fill="#acdce6" fill-opacity="1"></use></g><g><use xlink:href="#e2URiXize" opacity="1" fill="#09887e" fill-opacity="1"></use></g><g><use xlink:href="#a6cAk8HNde" opacity="1" fill="#48716e" fill-opacity="1"></use></g><g><use xlink:href="#arAHuQwUE" opacity="1" fill="#9bfff7" fill-opacity="1"></use></g><g><use xlink:href="#crMnnu4Bn" opacity="1" fill="#2f2f2f" fill-opacity="1"></use></g><g><use xlink:href="#d4F4KYyrs" opacity="1" fill="#1a1a1a" fill-opacity="1"></use></g><g><use xlink:href="#e24RK6O6VL" opacity="1" fill="#0a6187" fill-opacity="1"></use></g><g><use xlink:href="#ifELODHvM" opacity="1" fill="#b1b1b1" fill-opacity="1"></use></g><g><use xlink:href="#a1KadrovF" opacity="1" fill="#ad3a9d" fill-opacity="1"></use></g><g><use xlink:href="#c3ujcu40Nh" opacity="1" fill="#cfa0c9" fill-opacity="1"></use></g></g></g></svg>