<?xml version="1.0" encoding="UTF-8" standalone="no"?>
<!DOCTYPE svg PUBLIC "-//W3C//DTD SVG 1.1//EN" "http://www.w3.org/Graphics/SVG/1.1/DTD/svg11.dtd">
<svg version="1.1" xmlns="http://www.w3.org/2000/svg" xmlns:xlink="http://www.w3.org/1999/xlink" preserveAspectRatio="xMidYMid meet" viewBox="145.73929397693456 72.95229826353398 170.30000000000007 602.6000000000001" width="170.3" height="602.6"><defs><path d="M145.74 72.95L316.04 72.95L316.04 675.55L145.74 675.55L145.74 72.95Z" id="a7DLauHZbX"></path><path d="M302.85 537.85L288.39 607.34L255.05 604.51L268.26 548.22L302.85 537.85Z" id="a6XcoOoWxN"></path><path d="M316.04 239.86L316.04 540.41L256.63 551.73L230.21 518.4L252.22 344.62L260.09 259.09L316.04 239.86Z" id="b5noxEhGUm"></path><path d="M316.04 244.07L276.96 263.76L245.68 255.39L215.15 221.48L197.37 212.02L187 231.48L180.33 222.22L185.52 172.59L197.37 154.44L217 111.85L244.4 90.74L316.04 79.26L316.04 244.07Z" id="aL2PI8C8E"></path><path d="M245.68 161.37L236.62 164.09L222.85 179.67L204.92 174.78L202.68 166.51L215.25 221.84L201.84 219.13L186.8 230.72L184.81 215.68L201.3 160.43L202.06 163.77L203.11 154.31L204.92 149.05L211.98 143.44L232.27 140.36L243.87 150.5L245.68 161.37Z" id="c1H3lApXq4"></path><path d="M245.68 161.73L209.63 170.97L207.09 158.11L216.88 154.13L223.04 147.79L244.05 156.3L245.68 161.73Z" id="b5UCBtp1jC"></path><path d="M236.62 153.4L238.98 163.18L221.95 168.07L218.33 155.57L222.85 147.79L236.62 153.4Z" id="aQxRD21m9"></path><path d="M314.16 123.51L316.04 125.32L316.04 147.79L309.63 157.39L291.51 161.55L270.68 155.39L264.88 156.66L266.51 192.89L235.9 212.64L229.38 208.47L254.56 191.99L256.37 165.54L259.09 157.93L263.25 156.66L263.25 139.63L280.83 119.34L314.16 123.51Z" id="a21g2u08R"></path><path d="M298.94 128.04L314.16 137.46L315.61 144.52L274.85 152.31L276.3 136.19L281.73 130.94L298.94 128.04Z" id="d2ZsavlUC"></path><path d="M285.35 150.5L306.01 146.52L307.46 138.91L298.58 128.04L288.98 129.85L284.27 141.44L285.35 150.5Z" id="ajfrYgK3"></path><path d="M262.26 223.3L311.2 210.62L293.77 228.76L252.4 241.43L234.97 238.44L262.26 223.3Z" id="e2F202L2lO"></path><path d="M254.43 319.06L316.04 341.7L316.04 361.82L227.38 337.61L222.67 324.09L260.4 260.57L254.43 319.06Z" id="aA3N6UnAm"></path><path d="M278.95 664.41L268.1 675.55L213.43 675.55L211.22 661.35L214.28 649.3L248.06 648.79L255.54 601.48L288.98 605.66L278.95 664.41Z" id="dkwjZfXJ"></path><path d="M206.64 659.31L206.64 665.26L213.26 675.55L214.45 648.62L206.64 659.31Z" id="a4E7uzII1f"></path><path d="M268.44 675.55L279.47 664.41L279.47 662.54L267.59 660.84L266.4 675.55L268.44 675.55Z" id="butSYPM6i"></path><path d="M251.59 621.22L285.68 626.88L284.71 633.5L250.63 627.85L251.59 621.22Z" id="c7aapE2Zp"></path><path d="M253.05 612.82L287.14 617.99L288.11 611.05L254.34 607.34L253.05 612.82Z" id="c14jLA6tvj"></path></defs><g><g><g><use xlink:href="#a7DLauHZbX" opacity="1" fill="#7e7e7e" fill-opacity="1"></use></g><g><use xlink:href="#a6XcoOoWxN" opacity="1" fill="#edba81" fill-opacity="1"></use></g><g><use xlink:href="#b5noxEhGUm" opacity="1" fill="#a18668" fill-opacity="1"></use></g><g><use xlink:href="#aL2PI8C8E" opacity="1" fill="#edba81" fill-opacity="1"></use></g><g><use xlink:href="#c1H3lApXq4" opacity="1" fill="#ba925e" fill-opacity="1"></use></g><g><use xlink:href="#b5UCBtp1jC" opacity="1" fill="#efd4a8" fill-opacity="1"></use></g><g><use xlink:href="#aQxRD21m9" opacity="1" fill="#455030" fill-opacity="1"></use></g><g><use xlink:href="#a21g2u08R" opacity="1" fill="#ba925e" fill-opacity="1"></use></g><g><use xlink:href="#d2ZsavlUC" opacity="1" fill="#efd4a8" fill-opacity="1"></use></g><g><use xlink:href="#ajfrYgK3" opacity="1" fill="#455030" fill-opacity="1"></use></g><g><use xlink:href="#e2F202L2lO" opacity="1" fill="#e9c1ca" fill-opacity="1"></use></g><g><use xlink:href="#aA3N6UnAm" opacity="1" fill="#edba81" fill-opacity="1"></use></g><g><use xlink:href="#dkwjZfXJ" opacity="1" fill="#876b57" fill-opacity="1"></use></g><g><use xlink:href="#a4E7uzII1f" opacity="1" fill="#2b202e" fill-opacity="1"></use></g><g><use xlink:href="#butSYPM6i" opacity="1" fill="#2b202e" fill-opacity="1"></use></g><g><use xlink:href="#c7aapE2Zp" opacity="1" fill="#2b202e" fill-opacity="1"></use></g><g><use xlink:href="#c14jLA6tvj" opacity="1" fill="#2b202e" fill-opacity="1"></use></g></g></g></svg>