<?xml version="1.0" encoding="UTF-8" standalone="no"?>
<!DOCTYPE svg PUBLIC "-//W3C//DTD SVG 1.1//EN" "http://www.w3.org/Graphics/SVG/1.1/DTD/svg11.dtd">
<svg version="1.1" xmlns="http://www.w3.org/2000/svg" xmlns:xlink="http://www.w3.org/1999/xlink" preserveAspectRatio="xMidYMid meet" viewBox="163.02349336057182 269.9515094767903 432.3000000000002 144.10000000000002" width="432.3" height="144.1"><defs><path d="M163.02 269.95L595.32 269.95L595.32 414.05L163.02 414.05L163.02 269.95Z" id="d1Fe3frhcp"></path><path d="M397.84 361.33L397.84 414.05L163.02 414.05L163.02 361.85L397.84 361.33Z" id="a1bMPyaV4m"></path><path d="M163.02 334.44L163.33 358.38L378.04 356.25L376.06 327.78L163.02 334.44Z" id="a5WnQrsat"></path><path d="M393.47 321.79L398.33 325.8L411.04 318.97L407.27 277.57L428.26 276.86L425.36 318.97L438.92 327.46L444.34 322.2L448.24 327.46L497.33 322.91L543.55 325.27L547.33 322.2L550.66 326.21L559.47 316.78L572.45 316.78L580.7 327.78L585.18 324.44L585.65 352.16L580.7 349.68L572.83 362.06L558.57 362.06L550.66 352.16L546.77 355.1L542.65 351.8L499.96 357.16L447.98 355.88L442.91 359.04L439.25 356.33L426.4 366L430.41 407.51L407.53 407.16L411.54 366L398.33 357.16L395.62 361.33L391.49 361.33L387.95 355.88L375.45 356.33L360.67 343.99L360.67 339.87L376.06 327.78L387.49 327.78L393.47 321.79Z" id="a1nK4wusns"></path><path d="M411.75 270.38L424.72 270.73L428.85 277.21L406.8 277.21L411.75 270.38Z" id="b5dWK3B45"></path><path d="M430.45 407.51L425.74 413.57L412.29 413.57L407.22 407.51L430.45 407.51Z" id="a7tud8zDp"></path><path d="M557.83 329.16L561.96 325.03L569.86 324.68L573.87 333.52L573.87 348.97L568.21 355.22L563.26 355.22L557.83 349.68L557.83 329.16Z" id="a8NMep4QL"></path><path d="M588.97 328.92L593.8 338L589.67 347.56L585.65 349.44L585.31 328.1L588.97 328.92Z" id="aTrY70KFC"></path></defs><g><g><g><use xlink:href="#d1Fe3frhcp" opacity="1" fill="#7e7e7e" fill-opacity="1"></use></g><g><use xlink:href="#a1bMPyaV4m" opacity="1" fill="#795548" fill-opacity="1"></use></g><g><use xlink:href="#a5WnQrsat" opacity="1" fill="#cecece" fill-opacity="1"></use></g><g><use xlink:href="#a1nK4wusns" opacity="1" fill="#9c9c9c" fill-opacity="1"></use></g><g><use xlink:href="#b5dWK3B45" opacity="1" fill="#d64759" fill-opacity="1"></use></g><g><use xlink:href="#a7tud8zDp" opacity="1" fill="#d64759" fill-opacity="1"></use></g><g><use xlink:href="#a8NMep4QL" opacity="1" fill="#d64759" fill-opacity="1"></use></g><g><use xlink:href="#aTrY70KFC" opacity="1" fill="#d64759" fill-opacity="1"></use></g></g></g></svg>