<?xml version="1.0" encoding="UTF-8" standalone="no"?>
<!DOCTYPE svg PUBLIC "-//W3C//DTD SVG 1.1//EN" "http://www.w3.org/Graphics/SVG/1.1/DTD/svg11.dtd">
<svg version="1.1" xmlns="http://www.w3.org/2000/svg" xmlns:xlink="http://www.w3.org/1999/xlink" preserveAspectRatio="xMidYMid meet" viewBox="326.9889453741216 7 262 786" width="262" height="786"><defs><path d="M326.99 7L588.99 7L588.99 793L326.99 793L326.99 7Z" id="avUZeZmaF"></path><path d="M476.32 530.26L491.59 472.51L496.14 428.6L487.24 370.16L514.77 279.34L513.16 247.53L530.87 221.94L559.36 109.06L588.99 68.1L588.99 22.86L576.38 9.52L500.52 246.11L467.12 350.27L468.38 463.28L446.75 519.49L476.32 530.26Z" id="a2rzmEDfAL"></path><path d="M486.74 529.97L446.96 634.38L437.33 659.15L432.94 660.24L405.14 747.97L377.88 792.55L347.84 791.46L354.28 722.47L387.85 641.99L384.17 639.23L410.38 582.66L442.58 514.59L486.74 529.97Z" id="g1eVRx5Af"></path><path d="M409.41 550.29L398.38 579.33L382.22 619.5L362.79 643.52L347.84 652.25L332.01 640.46L335.5 652.25L340.3 659.02L362.79 655.75L378.84 633.98L391.07 615.42L403.08 592.93L416.97 569.57L409.41 584.42L456.7 608.15L466.53 582.82L481.81 596.36L484.41 618.41L483.47 658.19L477.75 685.05L465.3 715.42L477.75 724.59L477.75 734.42L484.41 752.76L492.16 761.71L503.73 769.79L518.58 771.32L530.37 761.71L524.47 760.4L516.39 767.17L497.07 758L489.76 745.11L486.11 734.42L486.11 720.44L476.33 703.78L484.41 686.97L490.96 657.71L495.76 631.95L497.07 608.15L490.96 586.1L473.12 565.22L475.74 557.58L433.38 534.87L409.41 550.29Z" id="c2oGRCSBq"></path><path d="M425.6 632.85L447.13 633.62L437.34 658.72L417.34 657.75L384.08 639.38L395.49 614.49L425.6 632.85Z" id="b1hZkOyQyz"></path></defs><g><g><g><use xlink:href="#avUZeZmaF" opacity="1" fill="#7e7e7e" fill-opacity="1"></use></g><g><use xlink:href="#a2rzmEDfAL" opacity="1" fill="#cfaa9a" fill-opacity="1"></use></g><g><use xlink:href="#g1eVRx5Af" opacity="1" fill="#98563b" fill-opacity="1"></use></g><g><use xlink:href="#c2oGRCSBq" opacity="1" fill="#fbcc07" fill-opacity="1"></use></g><g><use xlink:href="#b1hZkOyQyz" opacity="1" fill="#fbcc07" fill-opacity="1"></use></g></g></g></svg>