<?xml version="1.0" encoding="UTF-8" standalone="no"?>
<!DOCTYPE svg PUBLIC "-//W3C//DTD SVG 1.1//EN" "http://www.w3.org/Graphics/SVG/1.1/DTD/svg11.dtd">
<svg version="1.1" xmlns="http://www.w3.org/2000/svg" xmlns:xlink="http://www.w3.org/1999/xlink" preserveAspectRatio="xMidYMid meet" viewBox="58 8.267463846417598 524 262.0000000000001" width="524" height="262"><defs><path d="M58 8.27L582 8.27L582 270.27L58 270.27L58 8.27Z" id="c1cmZHduR2"></path><path d="M58 8.27L129.29 8.27L129.29 46.33L58 46.33L58 8.27Z" id="a6nddsb1"></path><path d="M58 46.33L129.29 46.33L129.29 69.31L58 76.19L58 46.33Z" id="aa9N8tYdG"></path><path d="M58 76.19L129.29 69.08L129.29 84.83L58 103.49L58 76.19Z" id="f2eU0GNJc3"></path><path d="M58 103.49L129.29 84.7L129.29 102.34L58 142.94L58 103.49Z" id="hSd3tWRGL"></path><path d="M58 142.94L129.29 102.35L128.81 270.27L58 270.27L58 142.94Z" id="b36wSCN10S"></path><path d="M129.29 8.27L176.83 8.27L176.83 270.27L129.29 270.27L129.29 8.27Z" id="a148sV6iuw"></path><path d="M176.83 202.92L543.23 200.83L543.23 270.27L176.83 270.27L176.83 202.92Z" id="b1yTBqQvy1"></path><path d="M468.06 201.28L459.42 225.55L442.97 226.69L425.38 216.92L414.64 201.28L468.06 201.28Z" id="a1iSLKC1sD"></path><path d="M383.29 88.62L389.44 72.38L370.99 34.25L380.21 34.25L418.29 51.95L437.48 71.63L449.4 67.32L472.77 74.46L518.68 56.71L580 47.85L558.77 61.75L520.9 76.07L505.53 128.51L476.49 153.72L444.69 111.01L397.48 147.55L383.29 88.62Z" id="aaS5SfoXtF"></path><path d="M516.43 200.83L529.46 219.91L528.15 237.66L519.03 242.55L491.02 232.62L475.71 200.83L516.43 200.83Z" id="c5JUfbD54I"></path><path d="M424.74 117.36L453.45 119.55L477.75 152.22L477.75 160.75L400.37 159.55L393.6 145.23L425.62 122.5L424.74 117.36Z" id="aNxbG3naV"></path><path d="M231.23 202.65L198.98 192.71L183.84 167.47L195.24 63.85L201.17 63.85L195.24 168.37L212.5 186.93L239.54 188.89L262.44 170.74L267.65 153.32L322.19 108.06L356.22 97.39L386.02 99.83L398.9 155.08L404.88 150.87L413.84 169.11L451.13 174L468.06 157.23L469.86 159.18L496.25 136.54L501.79 153.8L497.37 168.77L507.31 179.85L508.77 200.83L231.23 202.65Z" id="adxDwT1SB"></path><path d="M353.27 201.85L350.34 190.61L333.56 184.1L318.41 187.19L314.99 201.85L353.27 201.85Z" id="bRM3cJMQF"></path><path d="M211.44 57.71L220.56 25.79L204.6 18.79L199.88 18.79L178.87 20.25L178.87 36.38L180.99 53.48L195.32 63.85L201.67 63.85L211.44 57.71Z" id="e2Ktlwob0"></path><path d="M413.55 145.93L461.3 151.1L468.06 157.28L451.62 174.14L414.05 169.4L404.77 151.1L413.55 145.93Z" id="a6dbekjGm"></path><path d="M412.54 98.87L422.43 95.34L435.85 96.52L444.86 108.66L457.3 99.65L470.23 100.83L481 113.75L459.94 128.94L451.03 116.5L434.95 115.6L425.74 122.55L408.38 103.36L412.54 98.87Z" id="c2y8sQRCmX"></path><path d="M434.87 104.25L438.69 108.47L430.27 115.32L423.41 114.54L416.36 103.86L434.87 104.25Z" id="b4jtV4TalE"></path><path d="M430.66 104.18L429.48 115.32L425.07 114.64L426.25 104.18L430.66 104.18Z" id="ex14bZnBM"></path><path d="M450.81 110.69L456.59 110.36L461.55 110.69L469.81 114.16L469.81 116.48L461.3 121.02L453.78 119.78L448.49 113.09L450.81 110.69Z" id="f25XLJAmbx"></path><path d="M461.47 110.69L460.64 121.02L455.68 120.03L456.76 110.36L461.47 110.69Z" id="h2oGG1nS4k"></path><path d="M430.48 118.96L439.15 128.05L432.29 133.25L443.86 133.25L440.15 128.05L453.45 119.7L451.47 116.4L434.73 115.69L430.48 118.96Z" id="g77Yu6HC5"></path><path d="M383.39 88.54L398.36 101.6L399.16 54.63L383.39 43.16L383.39 88.54Z" id="a1wGVKHZQA"></path><path d="M374.62 53.95L357.91 41.61L332.2 55.11L350.06 34.25L370.49 33.9L383.39 42.89L383.39 71.81L374.62 53.95Z" id="i2H2QmB1yn"></path><path d="M545.02 61.87L558.64 61.87L525.22 100.68L519.05 125.62L502.21 131.15L498.87 101.46L545.02 61.87Z" id="e1I7LFDax6"></path><path d="M514.53 70.67L537.79 61.87L545.38 62.19L513.24 114.37L498.87 101.26L498.87 96.51L514.53 70.67Z" id="a6ZlZoar6V"></path></defs><g><g><g><use xlink:href="#c1cmZHduR2" opacity="1" fill="#9b7647" fill-opacity="1"></use></g><g><use xlink:href="#a6nddsb1" opacity="1" fill="#ad6800" fill-opacity="1"></use></g><g><use xlink:href="#aa9N8tYdG" opacity="1" fill="#fd9902" fill-opacity="1"></use></g><g><use xlink:href="#f2eU0GNJc3" opacity="1" fill="#fecb00" fill-opacity="1"></use></g><g><use xlink:href="#hSd3tWRGL" opacity="1" fill="#ffff02" fill-opacity="1"></use></g><g><use xlink:href="#b36wSCN10S" opacity="1" fill="#feff99" fill-opacity="1"></use></g><g><use xlink:href="#a148sV6iuw" opacity="1" fill="#7383b7" fill-opacity="1"></use></g><g><use xlink:href="#b1yTBqQvy1" opacity="1" fill="#aaefec" fill-opacity="1"></use></g><g><use xlink:href="#a1iSLKC1sD" opacity="1" fill="#d5b69a" fill-opacity="1"></use></g><g><use xlink:href="#aaS5SfoXtF" opacity="1" fill="#ffcb77" fill-opacity="1"></use></g><g><use xlink:href="#c5JUfbD54I" opacity="1" fill="#d5b69a" fill-opacity="1"></use></g><g><use xlink:href="#aNxbG3naV" opacity="1" fill="#bdbdbd" fill-opacity="1"></use></g><g><use xlink:href="#adxDwT1SB" opacity="1" fill="#ce923c" fill-opacity="1"></use></g><g><use xlink:href="#bRM3cJMQF" opacity="1" fill="#d5b69a" fill-opacity="1"></use></g><g><use xlink:href="#e2Ktlwob0" opacity="1" fill="#d5b69a" fill-opacity="1"></use></g><g><use xlink:href="#a6dbekjGm" opacity="1" fill="#d5b69a" fill-opacity="1"></use></g><g><use xlink:href="#c2y8sQRCmX" opacity="1" fill="#d5b69a" fill-opacity="1"></use></g><g><use xlink:href="#b4jtV4TalE" opacity="1" fill="#b5ad49" fill-opacity="1"></use></g><g><use xlink:href="#ex14bZnBM" opacity="1" fill="#000000" fill-opacity="1"></use></g><g><use xlink:href="#f25XLJAmbx" opacity="1" fill="#b5ad49" fill-opacity="1"></use></g><g><use xlink:href="#h2oGG1nS4k" opacity="1" fill="#000000" fill-opacity="1"></use></g><g><use xlink:href="#g77Yu6HC5" opacity="1" fill="#a1573c" fill-opacity="1"></use></g><g><use xlink:href="#a1wGVKHZQA" opacity="1" fill="#a1573c" fill-opacity="1"></use></g><g><use xlink:href="#i2H2QmB1yn" opacity="1" fill="#d5b69a" fill-opacity="1"></use></g><g><use xlink:href="#e1I7LFDax6" opacity="1" fill="#d5b69a" fill-opacity="1"></use></g><g><use xlink:href="#a6ZlZoar6V" opacity="1" fill="#a1573c" fill-opacity="1"></use></g></g></g></svg>