<?xml version="1.0" encoding="UTF-8" standalone="no"?>
<!DOCTYPE svg PUBLIC "-//W3C//DTD SVG 1.1//EN" "http://www.w3.org/Graphics/SVG/1.1/DTD/svg11.dtd">
<svg version="1.1" xmlns="http://www.w3.org/2000/svg" xmlns:xlink="http://www.w3.org/1999/xlink" preserveAspectRatio="xMidYMid meet" viewBox="56.02236842105276 314.7753585832604 524 262.0000000000001" width="524" height="262"><defs><path d="M56.02 314.78L580.02 314.78L580.02 576.78L56.02 576.78L56.02 314.78Z" id="a42RbHsvCA"></path><path d="M56.02 314.78L127.31 314.78L127.31 352.84L56.02 352.84L56.02 314.78Z" id="fgtfnhm3G"></path><path d="M56.02 352.84L127.31 352.84L127.31 375.82L56.02 382.7L56.02 352.84Z" id="gknKbXweb"></path><path d="M56.02 382.7L127.31 375.59L127.31 391.34L56.02 410L56.02 382.7Z" id="a1EaPOVvwJ"></path><path d="M56.02 410L127.31 391.21L127.31 408.84L56.02 449.45L56.02 410Z" id="bMVEdVDNe"></path><path d="M56.02 449.45L127.31 408.86L126.83 576.78L56.02 576.78L56.02 449.45Z" id="aXrriCUaM"></path><path d="M127.31 314.78L174.85 314.78L174.85 576.78L127.31 576.78L127.31 314.78Z" id="dbxaD3rAB"></path><path d="M174.85 509.43L541.25 507.34L541.25 576.78L174.85 576.78L174.85 509.43Z" id="b3IaAkmiZ"></path><path d="M466.08 507.79L457.45 532.06L441 533.2L423.41 523.42L412.66 507.79L466.08 507.79Z" id="aaPus8XaF"></path><path d="M381.31 395.12L387.46 378.89L369.01 340.76L378.24 340.76L416.32 358.46L435.5 378.14L447.42 373.83L470.79 380.97L516.7 363.22L578.02 354.36L556.8 368.26L518.92 382.58L503.55 435.01L474.51 460.23L442.71 417.51L395.5 454.06L381.31 395.12Z" id="blE00xWuH"></path><path d="M514.45 507.34L527.48 526.42L526.18 544.17L517.06 549.06L489.04 539.12L473.73 507.34L514.45 507.34Z" id="d2coMd0Pfq"></path><path d="M422.77 423.87L451.47 426.05L475.77 458.73L475.77 467.26L398.4 466.05L391.62 451.74L423.64 429.01L422.77 423.87Z" id="b4GPeRjxFq"></path><path d="M229.25 509.16L197.01 499.22L181.86 473.98L193.26 370.36L199.19 370.36L193.26 474.87L210.52 493.44L237.56 495.39L260.46 477.25L265.67 459.82L320.21 414.56L354.24 403.9L384.04 406.34L396.92 461.58L402.9 457.38L411.86 475.62L449.16 480.51L466.08 463.73L467.89 465.69L494.27 443.05L499.81 460.31L495.39 475.28L505.33 486.36L506.79 507.34L229.25 509.16Z" id="a2CayNC31"></path><path d="M351.29 508.36L348.36 497.12L331.58 490.61L316.44 493.7L313.02 508.36L351.29 508.36Z" id="b2UL0qCFHk"></path><path d="M209.47 364.22L218.59 332.3L202.63 325.3L197.9 325.3L176.89 326.76L176.89 342.89L179.01 359.99L193.34 370.36L199.69 370.36L209.47 364.22Z" id="a3vOtl4upT"></path><path d="M411.57 452.43L459.32 457.61L466.08 463.79L449.64 480.65L412.08 475.91L402.79 457.61L411.57 452.43Z" id="gzJ5dnhwT"></path><path d="M410.56 405.38L420.45 401.85L433.87 403.02L442.88 415.17L455.32 406.16L468.25 407.33L479.02 420.26L457.97 435.44L449.05 423.01L432.97 422.1L423.76 429.06L406.4 409.86L410.56 405.38Z" id="aqvWaA6Zb"></path><path d="M432.89 410.76L436.71 414.97L428.29 421.83L421.43 421.05L414.38 410.37L432.89 410.76Z" id="d6yyziTbD"></path><path d="M428.68 410.69L427.5 421.83L423.1 421.14L424.27 410.69L428.68 410.69Z" id="d8zFRwHaSq"></path><path d="M448.83 417.2L454.61 416.87L459.57 417.2L467.84 420.67L467.84 422.99L459.32 427.53L451.8 426.29L446.51 419.6L448.83 417.2Z" id="b6a7zJ0PA"></path><path d="M459.49 417.2L458.66 427.53L453.7 426.54L454.78 416.87L459.49 417.2Z" id="f2tPE2Pb5p"></path><path d="M428.5 425.47L437.18 434.56L430.32 439.76L441.89 439.76L438.17 434.56L451.47 426.21L449.49 422.9L432.75 422.2L428.5 425.47Z" id="ahjhAtRSd"></path><path d="M381.41 395.05L396.38 408.11L397.18 361.13L381.41 349.67L381.41 395.05Z" id="bx1rJ7fZ2"></path><path d="M372.64 360.46L355.93 348.12L330.22 361.61L348.08 340.76L368.51 340.41L381.41 349.4L381.41 378.32L372.64 360.46Z" id="fIPUgONdR"></path><path d="M543.04 368.37L556.66 368.37L523.25 407.19L517.08 432.13L500.24 437.65L496.9 407.96L543.04 368.37Z" id="ju2LFVZG"></path><path d="M512.55 377.18L535.82 368.37L543.4 368.7L511.27 420.88L496.9 407.77L496.9 403.01L512.55 377.18Z" id="bbLBEJtSv"></path></defs><g><g><g><use xlink:href="#a42RbHsvCA" opacity="1" fill="#7e7e7e" fill-opacity="1"></use></g><g><use xlink:href="#fgtfnhm3G" opacity="1" fill="#ad6800" fill-opacity="1"></use></g><g><use xlink:href="#gknKbXweb" opacity="1" fill="#fd9902" fill-opacity="1"></use></g><g><use xlink:href="#a1EaPOVvwJ" opacity="1" fill="#fecb00" fill-opacity="1"></use></g><g><use xlink:href="#bMVEdVDNe" opacity="1" fill="#ffff02" fill-opacity="1"></use></g><g><use xlink:href="#aXrriCUaM" opacity="1" fill="#feff99" fill-opacity="1"></use></g><g><use xlink:href="#dbxaD3rAB" opacity="1" fill="#7383b7" fill-opacity="1"></use></g><g><use xlink:href="#b3IaAkmiZ" opacity="1" fill="#aaefec" fill-opacity="1"></use></g><g><use xlink:href="#aaPus8XaF" opacity="1" fill="#d5b69a" fill-opacity="1"></use></g><g><use xlink:href="#blE00xWuH" opacity="1" fill="#ffcb77" fill-opacity="1"></use></g><g><use xlink:href="#d2coMd0Pfq" opacity="1" fill="#d5b69a" fill-opacity="1"></use></g><g><use xlink:href="#b4GPeRjxFq" opacity="1" fill="#bdbdbd" fill-opacity="1"></use></g><g><use xlink:href="#a2CayNC31" opacity="1" fill="#ce923c" fill-opacity="1"></use></g><g><use xlink:href="#b2UL0qCFHk" opacity="1" fill="#d5b69a" fill-opacity="1"></use></g><g><use xlink:href="#a3vOtl4upT" opacity="1" fill="#d5b69a" fill-opacity="1"></use></g><g><use xlink:href="#gzJ5dnhwT" opacity="1" fill="#d5b69a" fill-opacity="1"></use></g><g><use xlink:href="#aqvWaA6Zb" opacity="1" fill="#d5b69a" fill-opacity="1"></use></g><g><use xlink:href="#d6yyziTbD" opacity="1" fill="#b5ad49" fill-opacity="1"></use></g><g><use xlink:href="#d8zFRwHaSq" opacity="1" fill="#000000" fill-opacity="1"></use></g><g><use xlink:href="#b6a7zJ0PA" opacity="1" fill="#b5ad49" fill-opacity="1"></use></g><g><use xlink:href="#f2tPE2Pb5p" opacity="1" fill="#000000" fill-opacity="1"></use></g><g><use xlink:href="#ahjhAtRSd" opacity="1" fill="#a1573c" fill-opacity="1"></use></g><g><use xlink:href="#bx1rJ7fZ2" opacity="1" fill="#a1573c" fill-opacity="1"></use></g><g><use xlink:href="#fIPUgONdR" opacity="1" fill="#d5b69a" fill-opacity="1"></use></g><g><use xlink:href="#ju2LFVZG" opacity="1" fill="#d5b69a" fill-opacity="1"></use></g><g><use xlink:href="#bbLBEJtSv" opacity="1" fill="#a1573c" fill-opacity="1"></use></g></g></g></svg>