<?xml version="1.0" encoding="UTF-8" standalone="no"?>
<!DOCTYPE svg PUBLIC "-//W3C//DTD SVG 1.1//EN" "http://www.w3.org/Graphics/SVG/1.1/DTD/svg11.dtd">
<svg version="1.1" xmlns="http://www.w3.org/2000/svg" xmlns:xlink="http://www.w3.org/1999/xlink" preserveAspectRatio="xMidYMid meet" viewBox="161.5386124123988 108.7027579162409 262.0000000000002 524" width="262" height="524"><defs><path d="M423.54 108.7L423.54 632.7L161.54 632.7L161.54 108.7L423.54 108.7Z" id="bDDqWbR8P"></path><path d="M236.2 267.3L274.97 289.56L289.88 267.9L296.64 303.08L304.79 307.85L314.93 233.18L326.26 207.53L357.87 211.74L370.99 243.72L370.99 208.73L366.42 194.41L351.91 179.3L333.42 168.17L315.72 168.17L285.66 144.71L270.18 141.93L254.29 137.75L246.74 139.74L213.14 169.4L213.14 208.73L236.2 267.3Z" id="a7iXpP9eT0"></path><path d="M214.26 632.7L161.54 632.7L161.54 108.7L213.74 108.7L214.26 632.7Z" id="c60OqYZiki"></path><path d="M242.97 263.47L257.68 267.3L252.04 259.44L242.97 263.47Z" id="bunINrQnj"></path><path d="M289.14 258.23L269.18 267.9L270.39 256.82L289.14 258.23Z" id="e5pTzMC5"></path><path d="M220.58 221.19L242.62 220.4L235.27 213.58L223.99 212.92L219 217.12L220.58 221.19Z" id="fiy9Xi69g"></path><path d="M235.54 213.31L237.64 215.54L236.06 220.79L229.37 220.79L227.79 213.31L235.54 213.31Z" id="c2QDkK4jIX"></path><path d="M302.6 205.57L270.58 214.89L270.18 210.16L286.59 199.01L302.6 205.57Z" id="d1MyNu4ZIA"></path><path d="M291.97 201.5L291.31 208.72L280.55 211.74L280.55 202.81L291.97 201.5Z" id="b9o7pGl8YK"></path><path d="M230.81 197.17L244.07 208.33L244.07 199.93L232.72 191.53L216.51 195.6L230.81 197.17Z" id="bbZB7HGrd"></path><path d="M284.22 178.01L314.93 188.64L281.86 183.26L270.18 195.07L270.18 184.18L284.22 178.01Z" id="fTtLzvsWJ"></path><path d="M348.72 184.75L360.85 197.48L363.04 209.21L358.66 211.74L314.93 231.67L314.93 180.38L348.72 184.75Z" id="aTwHcHdxk"></path><path d="M400.32 528.52L383.61 624.07L412.02 606.8L412.02 524.07L423.54 523.23L423.54 632.7L301.99 632.14L367.45 608.19L379.15 535.21L400.32 528.52Z" id="a50MCn9Asd"></path><path d="M370.99 239.91L370.99 219.23L390.79 232.49L406.9 265.1L423.54 293.33L423.54 534.78L349.68 535.97L309.08 346.5L304.91 307.32L314.93 232.96L321.81 221.83L336.72 212.49L358.39 211.74L370.99 239.91Z" id="b2wylXE2D"></path><path d="M239.74 257.82L240.35 268.11L275.71 289.68L349.1 335.24L319.46 281.82L320.87 238.67L343.65 219.73L361.6 232.42L385.59 402.99L233.57 288.21L215.43 252.09L200.71 236.16L162.34 244.03L161.54 221.85L181.35 211.16L214.82 210.16L239.74 257.82Z" id="i3bIb8rp81"></path></defs><g><g><g><use xlink:href="#bDDqWbR8P" opacity="1" fill="#7e7e7e" fill-opacity="1"></use></g><g><use xlink:href="#a7iXpP9eT0" opacity="1" fill="#fcd5ac" fill-opacity="1"></use></g><g><use xlink:href="#c60OqYZiki" opacity="1" fill="#795548" fill-opacity="1"></use></g><g><use xlink:href="#bunINrQnj" opacity="1" fill="#f39bd3" fill-opacity="1"></use></g><g><use xlink:href="#e5pTzMC5" opacity="1" fill="#f39bd3" fill-opacity="1"></use></g><g><use xlink:href="#fiy9Xi69g" opacity="1" fill="#ffffff" fill-opacity="1"></use></g><g><use xlink:href="#c2QDkK4jIX" opacity="1" fill="#000000" fill-opacity="1"></use></g><g><use xlink:href="#d1MyNu4ZIA" opacity="1" fill="#ffffff" fill-opacity="1"></use></g><g><use xlink:href="#b9o7pGl8YK" opacity="1" fill="#000000" fill-opacity="1"></use></g><g><use xlink:href="#bbZB7HGrd" opacity="1" fill="#ad8a5a" fill-opacity="1"></use></g><g><use xlink:href="#fTtLzvsWJ" opacity="1" fill="#ad8a5a" fill-opacity="1"></use></g><g><use xlink:href="#aTwHcHdxk" opacity="1" fill="#ab8a59" fill-opacity="1"></use></g><g><use xlink:href="#a50MCn9Asd" opacity="1" fill="#d0b999" fill-opacity="1"></use></g><g><use xlink:href="#b2wylXE2D" opacity="1" fill="#a19482" fill-opacity="1"></use></g><g><use xlink:href="#i3bIb8rp81" opacity="1" fill="#d0b999" fill-opacity="1"></use></g></g></g></svg>