<?xml version="1.0" encoding="UTF-8" standalone="no"?>
<!DOCTYPE svg PUBLIC "-//W3C//DTD SVG 1.1//EN" "http://www.w3.org/Graphics/SVG/1.1/DTD/svg11.dtd">
<svg version="1.1" xmlns="http://www.w3.org/2000/svg" xmlns:xlink="http://www.w3.org/1999/xlink" preserveAspectRatio="xMidYMid meet" viewBox="57.83577712609974 265.76565907211057 524.3284457478005 263.5740740740739" width="524.33" height="263.57"><defs><path d="M57.84 265.77L581.84 265.77L581.84 527.77L57.84 527.77L57.84 265.77Z" id="e1kdZ7O8Rz"></path><path d="M161.41 399.85L276.16 311.92L419.34 409.3L550.64 445.1L548.7 426.78L527.75 434.73L522.18 415.1L501.49 422.27L497.24 402.64L471.78 411.63L462.42 389.14L442.79 409.3L434.83 366.85L412.28 385.37L404.59 349.35L386.87 362.69L380.77 331.13L362.21 346.24L356.37 313.35L336.69 327.09L330.32 293.41L304.59 305.66L279.39 285.18L257.91 305.66L233.77 297.92L236.42 326.22L216 318.26L216 344.79L196.9 338.69L197.7 362.03L172.5 354.34L173.29 385.37L146.77 376.62L141.46 400.49L121.57 394.65L116.53 411.63L161.41 399.85Z" id="cHqOIS44"></path><path d="M582.16 452.36L582.16 529.34L58.16 529.34L57.84 456.12L582.16 452.36Z" id="e3SFMmdKhq"></path><path d="M134.67 454.02L195.47 453.06L201.04 466.32L188.04 466.32L185.35 479.85L236.32 482.24L242.68 453.06L509.84 450.79L523.37 460.38L301.78 518L305.23 523.3L528.94 499.32L581.84 458.21L581.84 450.79L438.15 399.08L378.2 356.11L304.67 305.66L257.99 305.66L172.95 385.58L115.39 412.64L134.67 454.02Z" id="c2fqHQ208a"></path><path d="M303.69 328.08L286.18 377.68L299.45 415.08L282.74 452.74L294.94 506.32L232.34 415.08L281.14 328.08L303.69 328.08Z" id="a34W1t4GSQ"></path><path d="M354.19 373.34L387.71 396.14L370.4 486.25L306.94 484.6L309.96 468.67L326.45 468.67L311.34 442.57L313.26 404.38L354.19 373.34Z" id="bmQr3OIpN"></path><path d="M136.45 419.35L140.84 439.13L180.13 467.16L185.35 480.07L182.17 499.07L92.05 489.28L72.68 454.41L72.68 429.51L103.91 408.96L136.45 419.35Z" id="e1kUYvt2qJ"></path></defs><g><g><g><use xlink:href="#e1kdZ7O8Rz" opacity="1" fill="#7e7e7e" fill-opacity="1"></use></g><g><use xlink:href="#cHqOIS44" opacity="1" fill="#60b3ed" fill-opacity="1"></use></g><g><use xlink:href="#e3SFMmdKhq" opacity="1" fill="#795548" fill-opacity="1"></use></g><g><use xlink:href="#c2fqHQ208a" opacity="1" fill="#98cb01" fill-opacity="1"></use></g><g><use xlink:href="#a34W1t4GSQ" opacity="1" fill="#ede270" fill-opacity="1"></use></g><g><use xlink:href="#bmQr3OIpN" opacity="1" fill="#b3ce62" fill-opacity="1"></use></g><g><use xlink:href="#e1kUYvt2qJ" opacity="1" fill="#b3ce62" fill-opacity="1"></use></g></g></g></svg>