<?xml version="1.0" encoding="UTF-8" standalone="no"?>
<!DOCTYPE svg PUBLIC "-//W3C//DTD SVG 1.1//EN" "http://www.w3.org/Graphics/SVG/1.1/DTD/svg11.dtd">
<svg version="1.1" xmlns="http://www.w3.org/2000/svg" xmlns:xlink="http://www.w3.org/1999/xlink" preserveAspectRatio="xMidYMid meet" viewBox="57.83577712609974 29.388864371442423 524.3284457478005 262" width="524.33" height="262"><defs><path d="M57.84 29.39L581.84 29.39L581.84 291.39L57.84 291.39L57.84 29.39Z" id="cJs0JkQAM"></path><path d="M161.41 163.48L276.16 75.54L419.34 172.92L550.64 208.73L548.7 190.4L527.75 198.36L522.18 178.73L501.49 185.89L497.24 166.26L471.78 175.25L462.42 152.76L442.79 172.92L434.83 130.48L412.28 148.99L404.59 112.97L386.87 126.31L380.77 94.75L362.21 109.87L356.37 76.98L336.69 90.72L330.32 57.03L304.59 69.28L279.39 48.81L257.91 69.28L233.77 61.54L236.42 89.84L216 81.88L216 108.41L196.9 102.31L197.7 125.65L172.5 117.96L173.29 148.99L146.77 140.24L141.46 164.11L121.57 158.28L116.53 175.25L161.41 163.48Z" id="a5PAgAJ7zz"></path><path d="M582.16 214.41L582.16 291.39L58.16 291.39L57.84 218.17L582.16 214.41Z" id="afJwvp43V"></path><path d="M134.67 217.64L195.47 216.69L201.04 229.95L188.04 229.95L185.35 243.48L236.32 245.86L242.68 216.69L509.84 214.41L523.37 224.01L301.78 281.62L305.23 286.92L528.94 262.95L581.84 221.83L581.84 214.41L438.15 162.71L378.2 119.74L304.67 69.28L257.99 69.28L172.95 149.2L115.39 176.26L134.67 217.64Z" id="ihMwdyihG"></path><path d="M303.69 91.7L286.18 141.3L299.45 178.7L282.74 216.37L294.94 269.95L232.34 178.7L281.14 91.7L303.69 91.7Z" id="a5hBWrTIg"></path><path d="M354.19 136.96L387.71 159.76L370.4 249.87L306.94 248.22L309.96 232.29L326.45 232.29L311.34 206.19L313.26 168.01L354.19 136.96Z" id="gqCKItcLm"></path><path d="M136.45 182.98L140.84 202.76L180.13 230.78L185.35 243.69L182.17 262.7L92.05 252.9L72.68 218.03L72.68 193.13L103.91 172.58L136.45 182.98Z" id="g4OK12MAWs"></path></defs><g><g><g><use xlink:href="#cJs0JkQAM" opacity="1" fill="#9b7647" fill-opacity="1"></use></g><g><use xlink:href="#a5PAgAJ7zz" opacity="1" fill="#60b3ed" fill-opacity="1"></use></g><g><use xlink:href="#afJwvp43V" opacity="1" fill="#000000" fill-opacity="1"></use></g><g><use xlink:href="#ihMwdyihG" opacity="1" fill="#98cb01" fill-opacity="1"></use></g><g><use xlink:href="#a5hBWrTIg" opacity="1" fill="#ede270" fill-opacity="1"></use></g><g><use xlink:href="#gqCKItcLm" opacity="1" fill="#b3ce62" fill-opacity="1"></use></g><g><use xlink:href="#g4OK12MAWs" opacity="1" fill="#b3ce62" fill-opacity="1"></use></g></g></g></svg>