<?xml version="1.0" encoding="UTF-8" standalone="no"?>
<!DOCTYPE svg PUBLIC "-//W3C//DTD SVG 1.1//EN" "http://www.w3.org/Graphics/SVG/1.1/DTD/svg11.dtd">
<svg version="1.1" xmlns="http://www.w3.org/2000/svg" xmlns:xlink="http://www.w3.org/1999/xlink" preserveAspectRatio="xMidYMid meet" viewBox="62.90909090909099 369.51349780252747 524.3284457478005 262" width="524.33" height="262"><defs><path d="M62.91 369.51L586.91 369.51L586.91 631.51L62.91 631.51L62.91 369.51Z" id="a4v7zJFRsS"></path><path d="M166.48 503.6L281.23 415.67L424.41 513.04L555.71 548.85L553.78 530.52L532.82 538.48L527.25 518.85L506.56 526.01L502.32 506.39L476.85 515.38L467.49 492.88L447.86 513.04L439.9 470.6L417.36 489.12L409.67 453.1L391.95 466.44L385.85 434.87L367.28 449.99L361.44 417.1L341.76 430.84L335.4 397.15L309.67 409.41L284.47 388.93L262.98 409.41L238.84 401.66L241.5 429.97L221.07 422.01L221.07 448.53L201.97 442.43L202.77 465.78L177.57 458.08L178.37 489.12L151.84 480.36L146.54 504.24L126.64 498.4L121.6 515.38L166.48 503.6Z" id="k1HPOfEYu1"></path><path d="M587.24 554.54L587.24 631.51L63.24 631.51L62.91 558.29L587.24 554.54Z" id="axxHvTn5X"></path><path d="M139.75 557.76L200.54 556.81L206.11 570.07L193.11 570.07L190.42 583.6L241.39 585.99L247.76 556.81L514.92 554.54L528.45 564.13L306.85 621.74L310.3 627.05L534.02 603.07L586.91 561.96L586.91 554.54L443.22 502.83L383.27 459.86L309.75 409.41L263.06 409.41L178.02 489.33L120.46 516.39L139.75 557.76Z" id="b55jfwvT4d"></path><path d="M308.76 431.82L291.26 481.43L304.52 518.83L287.81 556.49L300.01 610.07L237.41 518.83L286.22 431.82L308.76 431.82Z" id="b9SExfIjI"></path><path d="M359.27 477.09L392.78 499.89L375.48 590L312.01 588.35L315.04 572.42L331.52 572.42L316.41 546.32L318.33 508.13L359.27 477.09Z" id="hlclKJlG2"></path><path d="M141.52 523.1L145.92 542.88L185.2 570.9L190.42 583.82L187.24 602.82L97.12 593.03L77.76 558.16L77.76 533.26L108.98 512.7L141.52 523.1Z" id="aLFzU1h7U"></path></defs><g><g><g><use xlink:href="#a4v7zJFRsS" opacity="1" fill="#7e7e7e" fill-opacity="1"></use></g><g><use xlink:href="#k1HPOfEYu1" opacity="1" fill="#60b3ed" fill-opacity="1"></use></g><g><use xlink:href="#axxHvTn5X" opacity="1" fill="#000000" fill-opacity="1"></use></g><g><use xlink:href="#b55jfwvT4d" opacity="1" fill="#98cb01" fill-opacity="1"></use></g><g><use xlink:href="#b9SExfIjI" opacity="1" fill="#ede270" fill-opacity="1"></use></g><g><use xlink:href="#hlclKJlG2" opacity="1" fill="#b3ce62" fill-opacity="1"></use></g><g><use xlink:href="#aLFzU1h7U" opacity="1" fill="#b3ce62" fill-opacity="1"></use></g></g></g></svg>