<?xml version="1.0" encoding="UTF-8" standalone="no"?>
<!DOCTYPE svg PUBLIC "-//W3C//DTD SVG 1.1//EN" "http://www.w3.org/Graphics/SVG/1.1/DTD/svg11.dtd">
<svg version="1.1" xmlns="http://www.w3.org/2000/svg" xmlns:xlink="http://www.w3.org/1999/xlink" preserveAspectRatio="xMidYMid meet" viewBox="21.547619047619037 43.080844327539126 262 262.00000000000017" width="262" height="262"><defs><path d="M21.55 43.08L283.55 43.08L283.55 305.08L21.55 305.08L21.55 43.08Z" id="a10bog4Rg0"></path><path d="M78.02 246.82L283.55 246.82L283.55 305.08L78.02 305.08L78.02 246.82Z" id="h6NryIfMu"></path><path d="M77.67 250.8L61.67 260.11L55.62 271.29L64 277.5L66.64 263.53L78.44 269.12L78.02 260.11L90.24 265.86L88.85 255.61L77.67 250.8Z" id="a5t83UhgnI"></path><path d="M132.79 257.32L126.42 265.39L120.52 254.68L125.03 250.8L132.79 257.32Z" id="g1jnBTOQBJ"></path><path d="M149.56 253.12L142.42 261.51L139.47 249.55L149.56 253.12Z" id="dEaLaHJ7x"></path><path d="M159.65 254.68L154.84 260.42L154.06 248.78L159.65 254.68Z" id="cbqftMH9H"></path><path d="" id="bEZlHH8Xf"></path><path d="M198.31 257.23L189.19 264.03L189.19 254.19L195.13 251.15L198.31 257.23Z" id="a63L2n0nD"></path><path d="M213.68 256.13L203.99 262.45L205.52 249.3L213.68 256.13Z" id="h1y4DQVPpR"></path><path d="M228.05 255.42L227.44 257.97L217.55 261.94L223.87 247.67L228.05 255.42Z" id="aPoMvVths"></path><path d="M59.69 247.64L48.58 237.55L45.68 216.01L51.66 200.29L79.35 181.6L147.45 136.97L183.83 129.14L195.15 145.35L207.18 153.04L207.18 175.89L199.66 190.42L193.16 194.18L190.26 246.82L59.69 247.64Z" id="d47fOZBXSN"></path><path d="M78.02 255.6L55.62 271.51L53.21 259.58L58.31 247.65L87.56 246.82L89.19 255.6L78.02 253.16L78.02 255.6Z" id="cFTROCDDb"></path><path d="M114.89 208.97L63.54 169.63L69.42 152.84L114.18 132.67L146.04 135.61L158.78 159.02L140.48 177.5L115.97 174.08L148.45 220.28L150.05 234.25L153.48 233.39L162.18 239.77L162.18 252.88L159.65 255.21L154.95 255.53L139.47 249.55L132.79 257.54L120.52 254.6L116.35 246.82L108.99 246.82L114.89 208.97Z" id="cFzTxyDA4"></path><path d="M216.07 214.53L220.51 231.96L225.64 231.96L231.45 240.85L228.05 255.88L218.8 260L214.53 256.23L205.64 251.62L198.31 257.54L189.19 254.6L190.26 246.82L182.57 238.12L179.49 202.22L193.33 194.18L216.07 214.53Z" id="dyoa68Jn"></path><path d="M184.27 129.14L243.5 97.39L278.75 81.68L275.78 69.58L244.57 56.63L222.8 57.27L187.3 71.41L187.3 74.17L135.71 110.9L138.68 120.87L146.54 137.01L184.27 129.14Z" id="a3CVpFZM6X"></path><path d="M161.45 51.47L116.01 43.61L101.57 43.61L45.68 60.15L27.39 76.5L43.31 97.31L42.46 124.91L64.33 138.71L64.33 147.41L79.19 148.69L115.29 132.67L146.88 137.01L138.81 121.53L135.71 110.92L151.55 101.79L166.2 96.82L184.88 100.09L189.98 97.97L187.22 73.97L161.45 51.47Z" id="b7ibNME33"></path><path d="M177.92 98.9L176.09 103.96L176.09 114.23L184.38 119.01L183.82 129.14L195.21 145.87L207.23 153.33L223.2 172.45L236.14 174.84L241.21 162.05L230.24 161.06L219.27 145.45L233.47 145.87L243.46 157.4L243.46 162.05L259.63 161.06L263.43 148.4L252.32 134.62L253.02 120.7L243.46 117.32L243.46 97.49L237.83 93.83L227.56 91.16L215.89 99.6L216.45 108.46L214.62 109.16L208.86 99.32L200.42 92.71L189.45 90.73L177.92 98.9Z" id="d1hua3AIf2"></path><path d="M273.41 95.52L276.79 92.99L276.79 82.44L266.8 87.08L273.41 95.52Z" id="atYzLIVQR"></path><path d="M224.2 127.56L228.32 133.89L222.15 134.52L218.51 130.72L219.76 127.56L224.2 127.56Z" id="huSsIHihE"></path><path d="M247.15 127.56L250.15 130.56L248.89 134.99L243.35 134.99L243.35 129.93L247.15 127.56Z" id="bFfkONChJ"></path><path d="M188.91 98.35L190.19 97.84L189.33 91.21L182.25 83.1L176.09 86.93L188.91 98.35Z" id="b14n9DSLar"></path></defs><g><g><g><use xlink:href="#a10bog4Rg0" opacity="1" fill="#9b7647" fill-opacity="1"></use></g><g><use xlink:href="#h6NryIfMu" opacity="1" fill="#183d86" fill-opacity="1"></use></g><g><use xlink:href="#a5t83UhgnI" opacity="1" fill="#fefea2" fill-opacity="1"></use></g><g><use xlink:href="#g1jnBTOQBJ" opacity="1" fill="#fefea2" fill-opacity="1"></use></g><g><use xlink:href="#dEaLaHJ7x" opacity="1" fill="#fefea2" fill-opacity="1"></use></g><g><use xlink:href="#cbqftMH9H" opacity="1" fill="#fefea2" fill-opacity="1"></use></g><g><g><use xlink:href="#bEZlHH8Xf" opacity="1" fill-opacity="0" stroke="#000000" stroke-width="1" stroke-opacity="1"></use></g></g><g><use xlink:href="#a63L2n0nD" opacity="1" fill="#fefea2" fill-opacity="1"></use></g><g><use xlink:href="#h1y4DQVPpR" opacity="1" fill="#fefea2" fill-opacity="1"></use></g><g><use xlink:href="#aPoMvVths" opacity="1" fill="#fefea2" fill-opacity="1"></use></g><g><use xlink:href="#d47fOZBXSN" opacity="1" fill="#65b418" fill-opacity="1"></use></g><g><use xlink:href="#cFTROCDDb" opacity="1" fill="#6da59f" fill-opacity="1"></use></g><g><use xlink:href="#cFzTxyDA4" opacity="1" fill="#6da59f" fill-opacity="1"></use></g><g><use xlink:href="#dyoa68Jn" opacity="1" fill="#6da59f" fill-opacity="1"></use></g><g><use xlink:href="#a3CVpFZM6X" opacity="1" fill="#555555" fill-opacity="1"></use></g><g><use xlink:href="#b7ibNME33" opacity="1" fill="#bfbfbf" fill-opacity="1"></use></g><g><use xlink:href="#d1hua3AIf2" opacity="1" fill="#a1d56f" fill-opacity="1"></use></g><g><use xlink:href="#atYzLIVQR" opacity="1" fill="#fefea2" fill-opacity="1"></use></g><g><use xlink:href="#huSsIHihE" opacity="1" fill="#b44818" fill-opacity="1"></use></g><g><use xlink:href="#bFfkONChJ" opacity="1" fill="#b44818" fill-opacity="1"></use></g><g><use xlink:href="#b14n9DSLar" opacity="1" fill="#fefea2" fill-opacity="1"></use></g></g></g></svg>