<?xml version="1.0" encoding="UTF-8" standalone="no"?>
<!DOCTYPE svg PUBLIC "-//W3C//DTD SVG 1.1//EN" "http://www.w3.org/Graphics/SVG/1.1/DTD/svg11.dtd">
<svg version="1.1" xmlns="http://www.w3.org/2000/svg" xmlns:xlink="http://www.w3.org/1999/xlink" preserveAspectRatio="xMidYMid meet" viewBox="322.3705227356912 43.080844327539126 262 262.0000000000001" width="262" height="262"><defs><path d="M322.37 43.08L584.37 43.08L584.37 305.08L322.37 305.08L322.37 43.08Z" id="fSDuLXTrD"></path><path d="M378.84 246.82L584.37 246.82L584.37 305.08L378.84 305.08L378.84 246.82Z" id="b1yLGHkZe0"></path><path d="M378.49 250.8L362.5 260.11L356.44 271.29L364.83 277.5L367.46 263.53L379.27 269.12L378.84 260.11L391.07 265.86L389.67 255.61L378.49 250.8Z" id="aNod5J71G"></path><path d="M433.61 257.32L427.25 265.39L421.35 254.68L425.85 250.8L433.61 257.32Z" id="cjsxhOUsP"></path><path d="M450.38 253.12L443.24 261.51L440.29 249.55L450.38 253.12Z" id="b68M7nVyn"></path><path d="M460.48 254.68L455.66 260.42L454.89 248.78L460.48 254.68Z" id="j4TlhLnRNI"></path><path d="" id="aQdzDcF8P"></path><path d="M499.13 257.23L490.02 264.03L490.02 254.19L495.95 251.15L499.13 257.23Z" id="aVuPdEQyh"></path><path d="M514.5 256.13L504.82 262.45L506.35 249.3L514.5 256.13Z" id="ahiklPek3"></path><path d="M528.87 255.42L528.26 257.97L518.37 261.94L524.69 247.67L528.87 255.42Z" id="cyYQub8aX"></path><path d="M360.52 247.64L349.41 237.55L346.5 216.01L352.48 200.29L380.17 181.6L448.28 136.97L484.65 129.14L495.97 145.35L508 153.04L508 175.89L500.48 190.42L493.99 194.18L491.08 246.82L360.52 247.64Z" id="bfLslHtiT"></path><path d="M378.84 255.6L356.44 271.51L354.03 259.58L359.13 247.65L388.38 246.82L390.01 255.6L378.84 253.16L378.84 255.6Z" id="a4c6Joo0nx"></path><path d="M415.71 208.97L364.36 169.63L370.24 152.84L415 132.67L446.86 135.61L459.61 159.02L441.3 177.5L416.79 174.08L449.28 220.28L450.87 234.25L454.3 233.39L463 239.77L463 252.88L460.48 255.21L455.77 255.53L440.29 249.55L433.61 257.54L421.35 254.6L417.17 246.82L409.82 246.82L415.71 208.97Z" id="gbHeS5iG0"></path><path d="M516.89 214.53L521.34 231.96L526.47 231.96L532.28 240.85L528.87 255.88L519.63 260L515.35 256.23L506.47 251.62L499.13 257.54L490.02 254.6L491.08 246.82L483.39 238.12L480.31 202.22L494.16 194.18L516.89 214.53Z" id="m8kS4fKc5k"></path><path d="M485.09 129.14L544.33 97.39L579.57 81.68L576.6 69.58L545.39 56.63L523.62 57.27L488.13 71.41L488.13 74.17L436.54 110.9L439.51 120.87L447.36 137.01L485.09 129.14Z" id="a2KhMsOCdx"></path><path d="M478.74 98.9L476.92 103.96L476.92 114.23L485.21 119.01L484.65 129.14L496.04 145.87L508.05 153.33L524.03 172.45L536.97 174.84L542.03 162.05L531.06 161.06L520.09 145.45L534.29 145.87L544.28 157.4L544.28 162.05L560.45 161.06L564.25 148.4L553.14 134.62L553.84 120.7L544.28 117.32L544.28 97.49L538.65 93.83L528.39 91.16L516.71 99.6L517.28 108.46L515.45 109.16L509.68 99.32L501.24 92.71L490.27 90.73L478.74 98.9Z" id="a7OAWZoUw"></path><path d="M462.27 51.47L416.83 43.61L402.4 43.61L346.5 60.15L328.21 76.5L344.14 97.31L343.29 124.91L365.16 138.71L365.16 147.41L380.02 148.69L416.11 132.67L447.7 137.01L439.64 121.53L436.54 110.92L452.37 101.79L467.02 96.82L485.71 100.09L490.8 97.97L488.04 73.97L462.27 51.47Z" id="cE920IPcU"></path><path d="M574.24 95.52L577.61 92.99L577.61 82.44L567.63 87.08L574.24 95.52Z" id="c3UIHDXZP8"></path><path d="M525.03 127.56L529.14 133.89L522.97 134.52L519.33 130.72L520.58 127.56L525.03 127.56Z" id="h3Tbm4yyt"></path><path d="M547.97 127.56L550.98 130.56L549.71 134.99L544.17 134.99L544.17 129.93L547.97 127.56Z" id="b3mlSgc0Y"></path><path d="M489.73 98.35L491.01 97.84L490.16 91.21L483.07 83.1L476.92 86.93L489.73 98.35Z" id="a4yqhxNMJo"></path></defs><g><g><g><use xlink:href="#fSDuLXTrD" opacity="1" fill="#7e7e7e" fill-opacity="1"></use></g><g><use xlink:href="#b1yLGHkZe0" opacity="1" fill="#795548" fill-opacity="1"></use></g><g><use xlink:href="#aNod5J71G" opacity="1" fill="#fefea2" fill-opacity="1"></use></g><g><use xlink:href="#cjsxhOUsP" opacity="1" fill="#fefea2" fill-opacity="1"></use></g><g><use xlink:href="#b68M7nVyn" opacity="1" fill="#fefea2" fill-opacity="1"></use></g><g><use xlink:href="#j4TlhLnRNI" opacity="1" fill="#fefea2" fill-opacity="1"></use></g><g><g><use xlink:href="#aQdzDcF8P" opacity="1" fill-opacity="0" stroke="#000000" stroke-width="1" stroke-opacity="1"></use></g></g><g><use xlink:href="#aVuPdEQyh" opacity="1" fill="#fefea2" fill-opacity="1"></use></g><g><use xlink:href="#ahiklPek3" opacity="1" fill="#fefea2" fill-opacity="1"></use></g><g><use xlink:href="#cyYQub8aX" opacity="1" fill="#fefea2" fill-opacity="1"></use></g><g><use xlink:href="#bfLslHtiT" opacity="1" fill="#65b418" fill-opacity="1"></use></g><g><use xlink:href="#a4c6Joo0nx" opacity="1" fill="#6da59f" fill-opacity="1"></use></g><g><use xlink:href="#gbHeS5iG0" opacity="1" fill="#6da59f" fill-opacity="1"></use></g><g><use xlink:href="#m8kS4fKc5k" opacity="1" fill="#6da59f" fill-opacity="1"></use></g><g><use xlink:href="#a2KhMsOCdx" opacity="1" fill="#555555" fill-opacity="1"></use></g><g><use xlink:href="#a7OAWZoUw" opacity="1" fill="#a1d56f" fill-opacity="1"></use></g><g><use xlink:href="#cE920IPcU" opacity="1" fill="#bfbfbf" fill-opacity="1"></use></g><g><use xlink:href="#c3UIHDXZP8" opacity="1" fill="#fefea2" fill-opacity="1"></use></g><g><use xlink:href="#h3Tbm4yyt" opacity="1" fill="#b44818" fill-opacity="1"></use></g><g><use xlink:href="#b3mlSgc0Y" opacity="1" fill="#b44818" fill-opacity="1"></use></g><g><use xlink:href="#a4yqhxNMJo" opacity="1" fill="#fefea2" fill-opacity="1"></use></g></g></g></svg>