<?xml version="1.0" encoding="UTF-8" standalone="no"?>
<!DOCTYPE svg PUBLIC "-//W3C//DTD SVG 1.1//EN" "http://www.w3.org/Graphics/SVG/1.1/DTD/svg11.dtd">
<svg version="1.1" xmlns="http://www.w3.org/2000/svg" xmlns:xlink="http://www.w3.org/1999/xlink" preserveAspectRatio="xMidYMid meet" viewBox="11.20258767449775 113.19050051072522 262 262.0000000000001" width="262" height="262"><defs><path d="M11.2 113.19L273.2 113.19L273.2 375.19L11.2 375.19L11.2 113.19Z" id="b1BnS5WGYn"></path><path d="M217.95 113.51L134.11 168.28L120.37 196.71L131.38 215.71L130.22 227.18L118.17 247.11L124.89 262.06L17 262.41L24.18 245.61L11.2 224.62L11.2 215.12L19.43 205.9L22.26 154.13L11.98 113.19L217.95 113.51Z" id="b54CNanYBV"></path><path d="M11.2 261.88L133.66 261.88L133.66 282.6L11.2 282.6L11.2 261.88Z" id="cxopBRyM3"></path><path d="M186.76 282.6L186.76 312.58L22.64 312.58L23.2 282.6L186.76 282.6Z" id="aQ0G2asEL"></path><path d="M76.92 282.34L76.92 312.87L49.78 312.58L49.53 282.6L76.92 282.34Z" id="a2mAGkvM05"></path><path d="M76.92 312.87L49.78 297.04L77.29 282.34L76.92 312.87Z" id="cuJmCW0Vh"></path><path d="M203.06 312.21L203.06 330.2L11.2 329.48L11.2 312.58L203.06 312.21Z" id="c1hcOESeWo"></path><path d="M239.24 312.58L239.68 330.2L203.06 330.2L203.06 312.21L239.24 312.58Z" id="bG5T7HBgV"></path><path d="M273.2 329.61L273.2 343.94L169.85 344.17L169.85 329.95L273.2 329.61Z" id="aNaMxmFEZ"></path><path d="M50.65 329.48L50.65 344.17L170.25 344.17L170.25 330.2L50.65 329.48Z" id="b4t0mF18gU"></path><path d="M140.43 375.19L140.43 344.17L205.7 344.17L205.7 375.19L140.43 375.19Z" id="eIw0tpL6B"></path><path d="M84.81 344.17L85.11 375.19L140.43 375.19L140.43 344.17L84.81 344.17Z" id="bcz66uX7L"></path><path d="M11.2 343.94L11.2 374.92L85.2 375.19L84.81 344.17L11.2 343.94Z" id="bBbxZEk3T"></path></defs><g><g><g><use xlink:href="#b1BnS5WGYn" opacity="1" fill="#7e7e7e" fill-opacity="1"></use></g><g><use xlink:href="#b54CNanYBV" opacity="1" fill="#795548" fill-opacity="1"></use></g><g><use xlink:href="#cxopBRyM3" opacity="1" fill="#319866" fill-opacity="1"></use></g><g><use xlink:href="#aQ0G2asEL" opacity="1" fill="#3068d8" fill-opacity="1"></use></g><g><use xlink:href="#a2mAGkvM05" opacity="1" fill="#91abe0" fill-opacity="1"></use></g><g><use xlink:href="#cuJmCW0Vh" opacity="1" fill="#e3cd73" fill-opacity="1"></use></g><g><use xlink:href="#c1hcOESeWo" opacity="1" fill="#e6761b" fill-opacity="1"></use></g><g><use xlink:href="#bG5T7HBgV" opacity="1" fill="#d8a071" fill-opacity="1"></use></g><g><use xlink:href="#aNaMxmFEZ" opacity="1" fill="#aa7ed4" fill-opacity="1"></use></g><g><use xlink:href="#b4t0mF18gU" opacity="1" fill="#c1acd5" fill-opacity="1"></use></g><g><use xlink:href="#eIw0tpL6B" opacity="1" fill="#d456a3" fill-opacity="1"></use></g><g><use xlink:href="#bcz66uX7L" opacity="1" fill="#b7b7b7" fill-opacity="1"></use></g><g><use xlink:href="#bBbxZEk3T" opacity="1" fill="#d456a3" fill-opacity="1"></use></g></g></g></svg>