<?xml version="1.0" encoding="UTF-8" standalone="no"?>
<!DOCTYPE svg PUBLIC "-//W3C//DTD SVG 1.1//EN" "http://www.w3.org/Graphics/SVG/1.1/DTD/svg11.dtd">
<svg version="1.1" xmlns="http://www.w3.org/2000/svg" xmlns:xlink="http://www.w3.org/1999/xlink" preserveAspectRatio="xMidYMid meet" viewBox="322.32033082424505 112.19050051072509 262.0000000000001 262.0000000000002" width="262" height="262"><defs><path d="M584.32 112.19L322.32 112.19L322.32 374.19L584.32 374.19L584.32 112.19Z" id="b12uNgDrEG"></path><path d="M385.91 112.51L464.71 164.76L479.03 194.74L468.41 213.5L469.18 225.21L481.23 244.61L474.32 259.85L580.47 259.85L572.21 244.61L584.32 223.62L584.32 214.12L577.26 200.83L575.2 152.16L583.54 120.93L583.54 112.19L385.91 112.51Z" id="bDtU0eM1I"></path><path d="M584.32 259.85L405.04 259.85L404.53 295.77L584.32 259.85Z" id="gi1GGj3Cw"></path><path d="M404.1 295.77L584.32 294.86L584.32 259.85L404.1 295.77Z" id="d4621bpHtz"></path><path d="M322.32 295.77L322.32 319.17L442.72 319.17L442.72 295.1L322.32 295.77Z" id="e2xEMJIYLL"></path><path d="M537.88 295.1L538.77 319.61L442.72 319.17L442.72 295.1L537.88 295.1Z" id="c2x94ff3T"></path><path d="M584.32 294.86L584.32 319.04L538.39 319.61L537.86 295.1L584.32 294.86Z" id="ePKxlddbO"></path><path d="M521.46 319.17L521.46 336.24L563.17 336.78L563.17 319.17L521.46 319.17Z" id="a3jLjDQJMg"></path><path d="M322.32 319.17L322.32 336.78L521.46 336.78L521.46 319.17L322.32 319.17Z" id="bzsOqvQ45"></path><path d="M572.31 374.19L584.32 374.19L584.32 336.16L572.31 336.16L572.31 374.19Z" id="a5k5nJfluz"></path><path d="M398.27 336.16L397.56 374.19L572.31 374.19L572.31 336.16L398.27 336.16Z" id="a4CO3a9mH6"></path></defs><g><g><g><use xlink:href="#b12uNgDrEG" opacity="1" fill="#7e7e7e" fill-opacity="1"></use></g><g><use xlink:href="#bDtU0eM1I" opacity="1" fill="#795548" fill-opacity="1"></use></g><g><use xlink:href="#gi1GGj3Cw" opacity="1" fill="#319866" fill-opacity="1"></use></g><g><use xlink:href="#d4621bpHtz" opacity="1" fill="#96dab9" fill-opacity="1"></use></g><g><use xlink:href="#e2xEMJIYLL" opacity="1" fill="#317598" fill-opacity="1"></use></g><g><use xlink:href="#c2x94ff3T" opacity="1" fill="#7cadc6" fill-opacity="1"></use></g><g><use xlink:href="#ePKxlddbO" opacity="1" fill="#317598" fill-opacity="1"></use></g><g><use xlink:href="#a3jLjDQJMg" opacity="1" fill="#f0be5c" fill-opacity="1"></use></g><g><use xlink:href="#bzsOqvQ45" opacity="1" fill="#f0995c" fill-opacity="1"></use></g><g><use xlink:href="#a5k5nJfluz" opacity="1" fill="#885cf0" fill-opacity="1"></use></g><g><use xlink:href="#a4CO3a9mH6" opacity="1" fill="#9a8bc0" fill-opacity="1"></use></g></g></g></svg>