<?xml version="1.0" encoding="UTF-8" standalone="no"?>
<!DOCTYPE svg PUBLIC "-//W3C//DTD SVG 1.1//EN" "http://www.w3.org/Graphics/SVG/1.1/DTD/svg11.dtd">
<svg version="1.1" xmlns="http://www.w3.org/2000/svg" xmlns:xlink="http://www.w3.org/1999/xlink" preserveAspectRatio="xMidYMid meet" viewBox="34.22120979481997 20.917234362558474 524 262.07103396682464" width="524" height="262.07"><defs><path d="M34.22 20.92L558.22 20.92L558.22 282.92L34.22 282.92L34.22 20.92Z" id="bb60Zw32Yg"></path><path d="M100.42 282.92L357.18 282.99L359.7 243.37L100.89 242.45L100.42 282.92Z" id="e4uz9s8Z06"></path><path d="M143.73 242.45L143.16 282.99L121.81 282.99L121.81 242.45L143.73 242.45Z" id="e3idinQOJr"></path><path d="M193.58 61.69L196 58.89L196.3 60.93L198.94 59.57L199.32 62.06L203.63 61.38L202.95 64.03L207.94 62.44L202.7 72.04L188.64 81.94L177.53 89.12L179.65 84.58L173.83 86.78L178.14 79.37L175.04 79.37L180.78 71.13L193.58 61.69Z" id="g2p6txZHJW"></path><path d="M319.89 247.92L336.39 251.37L336 246.64L346.82 247.41L350.33 244.34L354.29 242.16L348.79 235.26L301.35 241.45L311.2 222.6L311.2 206.74L297.44 176.54L295.77 157.6L312.13 141.63L346.82 111.64L362.04 110.87L372.53 119.9L376.99 140.81L375.45 150.91L377.37 155.31L378.01 149.89L383 140.17L395.15 134.29L404.74 139.53L404.33 174.62L402.15 187.65L403.95 189.06L406.76 179.21L434.12 154.91L438.86 160.8L436.94 210.92L439.75 221.54L440.52 204.66L452.92 157.6L476.84 154.91L494.61 241.45L497.93 234.2L483.23 152.36L468.88 92.65L431.89 60.82L367.88 26.95L356.25 35.51L352.03 44.85L364.81 36.15L364.81 48.94L353.05 73.75L335.27 85.13L321.21 91.11L313.66 92.65L308.93 92.65L290.95 86.38L273.5 96.24L265.06 103.53L262.76 109.8L245.11 112.23L248.56 115.3L239.61 119.39L231.55 119.9L210.45 84.22L208.41 84.22L201.76 77.83L202.4 72.07L193.32 61.2L175.19 62.89L188.2 82.43L197.03 83.07L211.12 105.63L215.44 120.92L197.99 121.88L176.37 130.19L173.69 135.82L172.67 145.03L154.51 151.92L119.15 143.08L89.23 102.55L87.44 87.97L87.44 106.13L101.76 146.66L98.68 166.69L65.3 118.1L56.09 95.59L61.21 115.67L68.24 130.76L91.48 162.47L97.49 174.62L88.15 177.43L70.89 166.18L54.26 149.43L54.65 155.31L76.39 176.54L101.76 204.98L159.56 230.54L192.22 241.45L213.86 242.96L216.8 225.69L237.9 204.98L250.94 200.37L263.98 203.57L284.57 205.49L292.96 213.17L285.93 222L290.27 237.34L286.95 243.22L318.02 250.39L319.89 247.92Z" id="a1zxozhdgY"></path><path d="M316.96 250.04L320.8 255.41L320.8 247.61L316.96 247.1L316.96 250.04Z" id="a5W86E5n2"></path><path d="M339.98 246.33L338.32 258.99L335.25 246.33L339.98 246.33Z" id="cDLLePA04"></path><path d="M354.3 254.39L346.12 247.61L351.36 244.29L354.3 254.39Z" id="a6s0z630nS"></path><path d="M358.01 243.52L352.51 243.52L349.7 235.46L358.01 243.52Z" id="d3L3SORKNT"></path><path d="M115.56 216.24L76.3 198.29L60.82 170.28L77.7 177.44L111.34 206.77L164.15 231.96L115.56 216.24Z" id="bpAXMVr4Y"></path><path d="M88.36 174.96L95.13 173.83L92.83 164.87L101.78 176.77L136.82 206.05L196.54 238.15L193.73 240.45L104.18 197.19L69.52 163.94L88.36 174.96Z" id="e3j2YxuwKL"></path><path d="M74.33 126.47L98.88 146.42L89.8 122.38L88.4 107.42L102.21 143.99L129.85 178.17L200.7 233.16L198.4 235.46L136.37 200.81L100.13 168.72L65.22 119.11L61.64 103.76L74.33 126.47Z" id="b4IAFvD4Ew"></path><path d="M95.13 109.2L122.85 135.86L144.06 146.61L158.51 145.85L169.64 141.5L173.98 135.1L207.62 226.28L202.76 230.37L123.23 165.1L104.81 140.81L88.96 101.17L88.57 81.22L95.13 109.2Z" id="aA0CR0R"></path><path d="M195.68 168.7L211.03 209.62L241.59 172.66L219.47 157.44L196.54 156.93L195.68 168.7Z" id="a4amRnr1I"></path><path d="M196.54 156.93L219.6 155.8L248.47 164.63L260.22 174.99L259.46 193.15L263.93 203.76L273.65 210.41L284.78 206.45L312.13 142L310.61 118.08L299.1 148.65L288.74 149.03L262.92 127.2L257.42 136.15L252.31 140.37L237.09 133.98L212.41 131.17L184.53 138.2L195.68 168.76L196.54 156.93Z" id="a1km2KCtU"></path><path d="M197.32 149.32L204.74 140.63L224.05 132.44L227.37 132.83L241.31 143.83L248.47 164.54L241.31 172.85L219.57 157.64L196.54 156.93L197.32 149.32Z" id="d6rDcuDgk4"></path><path d="M272.72 134.24L281.29 133.72L277.07 131.04L272.72 134.24Z" id="bcseAMBBs"></path><path d="M265.68 127.97L273.74 127.59L270.16 124.26L265.68 127.97Z" id="c250dwicOi"></path><path d="M247.91 111.47L263.89 113.9L264.41 120.42L247.91 111.47Z" id="aOXAH288I"></path><path d="M244.58 96.77L264.02 105.08L262.49 109.55L257.76 110.19L244.58 96.77Z" id="e2hsTBpYaX"></path><path d="M269.01 96.77L253.54 64.12L273.23 91.75L247.91 41.11L265.68 64.12L264.92 54.79L258.27 39.19L267.99 51.85L274.25 72.05L270.54 41.11L281.29 61.18L279.49 37.65L289.47 74.61L293.43 46.73L298.29 69.48L300.08 66.03L300.08 76.51L309.55 55.92L305.58 87.25L311.08 81.63L308.14 97.99L298.93 90.07L299.32 96.77L291.64 97.48L293.05 93.52L285.25 93.52L288.45 97.99L280.9 98.51L280.13 96.46L273.74 97.48L272.21 99.91L275.02 102.47L269.01 107.84L225.53 62.45L269.01 96.77Z" id="a30dXEWn0E"></path><path d="M275.39 112.57L275.39 117.06L272.72 118.93L272.22 109.73L275.39 112.57Z" id="aoWotOpdU"></path><path d="M278.68 115.09L275.39 117.17L275.39 112.14L278.68 115.09Z" id="a45csrBmU"></path><path d="M304.49 109.18L304.49 113.67L307.17 115.53L307.67 106.33L304.49 109.18Z" id="bVNPKnwzV"></path><path d="M301.2 111.7L304.49 113.78L304.49 108.74L301.2 111.7Z" id="aIjKrbz2N"></path><path d="M292.81 146.29L290.29 139.16L280.98 134.24L292.81 146.29Z" id="a2PEWjLatD"></path><path d="M309.57 101.6L310.66 117.17L323.78 109.73L313.44 110.93L325.18 99.44L310.66 106.72L314.9 100.66L331.14 75.97L306.08 102.04L309.57 101.6Z" id="aTSQf7Ktt"></path><path d="M360.96 92.14L367.09 85.67L370.92 55.22L381.81 103.93L375.35 149.61L372.39 127.97L363.3 117.51L355.85 113.78L312.13 142.05L330.77 96.57L360.96 92.14Z" id="b8liWk5Hi"></path><path d="M371.87 46.38L372.41 41.34L412.62 122.25L402.11 185.34L401.89 145.43L397.73 139.16L387.87 138.86L378.67 149.16L387.32 96.57L371.87 46.38Z" id="a1U49l8hAb"></path><path d="M417.13 121.48L404.54 188.4L415.16 173.73L430.39 160.04L435.1 159.6L438.82 165.84L440.56 111.57L377.78 41.34L417.13 121.48Z" id="gsddw9AG"></path><path d="M445.69 108.97L440.56 207.51L448.5 175.09L458.47 159.53L469.31 158L475.89 162.71L494.29 241.23L495.05 239.37L478.56 148.54L462.22 92.8L431.31 68.76L394.29 48.49L445.69 108.97Z" id="aLKO0UNWL"></path></defs><g><g><g><use xlink:href="#bb60Zw32Yg" opacity="1" fill="#9b7647" fill-opacity="1"></use></g><g><use xlink:href="#e4uz9s8Z06" opacity="1" fill="#d8bb78" fill-opacity="1"></use></g><g><use xlink:href="#e3idinQOJr" opacity="1" fill="#5f450b" fill-opacity="1"></use></g><g><use xlink:href="#g2p6txZHJW" opacity="1" fill="#ffffff" fill-opacity="1"></use></g><g><use xlink:href="#a1zxozhdgY" opacity="1" fill="#586777" fill-opacity="1"></use></g><g><use xlink:href="#a5W86E5n2" opacity="1" fill="#ffffff" fill-opacity="1"></use></g><g><use xlink:href="#cDLLePA04" opacity="1" fill="#ffffff" fill-opacity="1"></use></g><g><use xlink:href="#a6s0z630nS" opacity="1" fill="#ffffff" fill-opacity="1"></use></g><g><use xlink:href="#d3L3SORKNT" opacity="1" fill="#ffffff" fill-opacity="1"></use></g><g><use xlink:href="#bpAXMVr4Y" opacity="1" fill="#8f8f75" fill-opacity="1"></use></g><g><use xlink:href="#e3j2YxuwKL" opacity="1" fill="#8f8f75" fill-opacity="1"></use></g><g><use xlink:href="#b4IAFvD4Ew" opacity="1" fill="#8f8f75" fill-opacity="1"></use></g><g><use xlink:href="#aA0CR0R" opacity="1" fill="#8f8f75" fill-opacity="1"></use></g><g><use xlink:href="#a4amRnr1I" opacity="1" fill="#9b7647" fill-opacity="1"></use></g><g><use xlink:href="#a1km2KCtU" opacity="1" fill="#7898af" fill-opacity="1"></use></g><g><use xlink:href="#d6rDcuDgk4" opacity="1" fill="#8f8f75" fill-opacity="1"></use></g><g><use xlink:href="#bcseAMBBs" opacity="1" fill="#ffffff" fill-opacity="1"></use></g><g><use xlink:href="#c250dwicOi" opacity="1" fill="#ffffff" fill-opacity="1"></use></g><g><use xlink:href="#aOXAH288I" opacity="1" fill="#ffffff" fill-opacity="1"></use></g><g><use xlink:href="#e2hsTBpYaX" opacity="1" fill="#ffffff" fill-opacity="1"></use></g><g><use xlink:href="#a30dXEWn0E" opacity="1" fill="#ffffff" fill-opacity="1"></use></g><g><use xlink:href="#aoWotOpdU" opacity="1" fill="#97706b" fill-opacity="1"></use></g><g><use xlink:href="#a45csrBmU" opacity="1" fill="#1b1b1b" fill-opacity="1"></use></g><g><use xlink:href="#bVNPKnwzV" opacity="1" fill="#97706b" fill-opacity="1"></use></g><g><use xlink:href="#aIjKrbz2N" opacity="1" fill="#1b1b1b" fill-opacity="1"></use></g><g><use xlink:href="#a2PEWjLatD" opacity="1" fill="#6a444e" fill-opacity="1"></use></g><g><use xlink:href="#aTSQf7Ktt" opacity="1" fill="#ffffff" fill-opacity="1"></use></g><g><use xlink:href="#b8liWk5Hi" opacity="1" fill="#8f8f75" fill-opacity="1"></use></g><g><use xlink:href="#a1U49l8hAb" opacity="1" fill="#8f8f75" fill-opacity="1"></use></g><g><use xlink:href="#gsddw9AG" opacity="1" fill="#8f8f75" fill-opacity="1"></use></g><g><use xlink:href="#aLKO0UNWL" opacity="1" fill="#8f8f75" fill-opacity="1"></use></g></g></g></svg>