<?xml version="1.0" encoding="UTF-8" standalone="no"?>
<!DOCTYPE svg PUBLIC "-//W3C//DTD SVG 1.1//EN" "http://www.w3.org/Graphics/SVG/1.1/DTD/svg11.dtd">
<svg version="1.1" xmlns="http://www.w3.org/2000/svg" xmlns:xlink="http://www.w3.org/1999/xlink" preserveAspectRatio="xMidYMid meet" viewBox="34.22120979481997 308.22038396885773 524 262.07103396682464" width="524" height="262.07"><defs><path d="M34.22 308.22L558.22 308.22L558.22 570.22L34.22 570.22L34.22 308.22Z" id="imiAlz9B0"></path><path d="M100.42 570.22L357.18 570.29L359.7 530.68L100.89 529.75L100.42 570.22Z" id="f2dE1KPQ3"></path><path d="M143.73 529.75L143.16 570.29L121.81 570.29L121.81 529.75L143.73 529.75Z" id="b1dpAG60EM"></path><path d="M193.58 348.99L196 346.19L196.3 348.23L198.94 346.87L199.32 349.37L203.63 348.69L202.95 351.33L207.94 349.74L202.7 359.34L188.64 369.24L177.53 376.42L179.65 371.89L173.83 374.08L178.14 366.67L175.04 366.67L180.78 358.43L193.58 348.99Z" id="a137DbDadu"></path><path d="M319.89 535.22L336.39 538.67L336 533.94L346.82 534.71L350.33 531.64L354.29 529.47L348.79 522.56L301.35 528.75L311.2 509.9L311.2 494.04L297.44 463.84L295.77 444.9L312.13 428.93L346.82 398.94L362.04 398.17L372.53 407.2L376.99 428.11L375.45 438.21L377.37 442.61L378.01 437.19L383 427.47L395.15 421.59L404.74 426.83L404.33 461.92L402.15 474.95L403.95 476.36L406.76 466.51L434.12 442.22L438.86 448.1L436.94 498.23L439.75 508.84L440.52 491.96L452.92 444.9L476.84 442.22L494.61 528.75L497.93 521.5L483.23 439.66L468.88 379.95L431.89 348.12L367.88 314.25L356.25 322.82L352.03 332.15L364.81 323.46L364.81 336.24L353.05 361.05L335.27 372.43L321.21 378.42L313.66 379.95L308.93 379.95L290.95 373.69L273.5 383.55L265.06 390.83L262.76 397.1L245.11 399.53L248.56 402.6L239.61 406.69L231.55 407.2L210.45 371.53L208.41 371.53L201.76 365.13L202.4 359.38L193.32 348.51L175.19 350.19L188.2 369.74L197.03 370.37L211.12 392.93L215.44 408.23L197.99 409.19L176.37 417.5L173.69 423.12L172.67 432.33L154.51 439.22L119.15 430.39L89.23 389.85L87.44 375.27L87.44 393.43L101.76 433.97L98.68 453.99L65.3 405.4L56.09 382.89L61.21 402.97L68.24 418.06L91.48 449.77L97.49 461.92L88.15 464.74L70.89 453.48L54.26 436.73L54.65 442.61L76.39 463.84L101.76 492.28L159.56 517.84L192.22 528.75L213.86 530.26L216.8 513L237.9 492.28L250.94 487.68L263.98 490.87L284.57 492.79L292.96 500.48L285.93 509.3L290.27 524.65L286.95 530.53L318.02 537.69L319.89 535.22Z" id="d3QxfOgf3Z"></path><path d="M316.96 537.34L320.8 542.71L320.8 534.91L316.96 534.4L316.96 537.34Z" id="h7sirzcGK"></path><path d="M339.98 533.64L338.32 546.3L335.25 533.64L339.98 533.64Z" id="h3cG7hu7G"></path><path d="M354.3 541.69L346.12 534.91L351.36 531.59L354.3 541.69Z" id="b1qBFzDJyQ"></path><path d="M358.01 530.82L352.51 530.82L349.7 522.77L358.01 530.82Z" id="asVQmf7pa"></path><path d="M115.56 503.55L76.3 485.59L60.82 457.59L77.7 464.75L111.34 494.07L164.15 519.26L115.56 503.55Z" id="c26KmCKSRP"></path><path d="M88.36 462.27L95.13 461.13L92.83 452.18L101.78 464.07L136.82 493.35L196.54 525.45L193.73 527.75L104.18 484.49L69.52 451.24L88.36 462.27Z" id="a4LoREWUD2"></path><path d="M74.33 413.78L98.88 433.72L89.8 409.68L88.4 394.72L102.21 431.3L129.85 465.48L200.7 520.46L198.4 522.77L136.37 488.11L100.13 456.03L65.22 406.41L61.64 391.07L74.33 413.78Z" id="bnt6vdcj"></path><path d="M95.13 396.5L122.85 423.16L144.06 433.92L158.51 433.15L169.64 428.8L173.98 422.41L207.62 513.58L202.76 517.68L123.23 452.41L104.81 428.11L88.96 388.47L88.57 368.52L95.13 396.5Z" id="c1LUtFFYnP"></path><path d="M195.68 456L211.03 496.92L241.59 459.97L219.47 444.75L196.54 444.24L195.68 456Z" id="e2oq0GJ4X0"></path><path d="M196.54 444.24L219.6 443.1L248.47 451.93L260.22 462.29L259.46 480.45L263.93 491.07L273.65 497.71L284.78 493.75L312.13 429.3L310.61 405.39L299.1 435.95L288.74 436.33L262.92 414.5L257.42 423.46L252.31 427.68L237.09 421.28L212.41 418.47L184.53 425.5L195.68 456.07L196.54 444.24Z" id="avzAyTkMc"></path><path d="M197.32 436.63L204.74 427.93L224.05 419.75L227.37 420.13L241.31 431.13L248.47 451.85L241.31 460.16L219.57 444.94L196.54 444.24L197.32 436.63Z" id="a3vouGPj1"></path><path d="M272.72 421.54L281.29 421.03L277.07 418.34L272.72 421.54Z" id="cazFJL9cO"></path><path d="M265.68 415.27L273.74 414.89L270.16 411.56L265.68 415.27Z" id="bDjEhTLvh"></path><path d="M247.91 398.78L263.89 401.21L264.41 407.73L247.91 398.78Z" id="a6b3zpgzTu"></path><path d="M244.58 384.07L264.02 392.38L262.49 396.86L257.76 397.5L244.58 384.07Z" id="b2zQ9DVStd"></path><path d="M269.01 384.07L253.54 351.43L273.23 379.05L247.91 328.41L265.68 351.43L264.92 342.09L258.27 326.49L267.99 339.15L274.25 359.36L270.54 328.41L281.29 348.49L279.49 324.96L289.47 361.91L293.43 334.04L298.29 356.78L300.08 353.33L300.08 363.81L309.55 343.23L305.58 374.56L311.08 368.93L308.14 385.3L298.93 377.37L299.32 384.07L291.64 384.79L293.05 380.82L285.25 380.82L288.45 385.3L280.9 385.81L280.13 383.76L273.74 384.79L272.21 387.22L275.02 389.77L269.01 395.14L225.53 349.75L269.01 384.07Z" id="bBvUGlvrU"></path><path d="M275.39 399.88L275.39 404.37L272.72 406.23L272.22 397.03L275.39 399.88Z" id="f1jhjrjJsk"></path><path d="M278.68 402.4L275.39 404.48L275.39 399.44L278.68 402.4Z" id="d3SYwNdbf"></path><path d="M304.49 396.48L304.49 400.97L307.17 402.83L307.67 393.63L304.49 396.48Z" id="a2aXEmTgXx"></path><path d="M301.2 399L304.49 401.08L304.49 396.04L301.2 399Z" id="amMZsD6pT"></path><path d="M292.81 433.59L290.29 426.46L280.98 421.54L292.81 433.59Z" id="boR7vLLTG"></path><path d="M309.57 388.9L310.66 404.48L323.78 397.03L313.44 398.23L325.18 386.74L310.66 394.03L314.9 387.96L331.14 363.27L306.08 389.34L309.57 388.9Z" id="c1O2CRY7I"></path><path d="M360.96 379.44L367.09 372.98L370.92 342.53L381.81 391.23L375.35 436.91L372.39 415.27L363.3 404.82L355.85 401.08L312.13 429.35L330.77 383.87L360.96 379.44Z" id="c1YXBsDRrM"></path><path d="M371.87 333.68L372.41 328.64L412.62 409.55L402.11 472.64L401.89 432.74L397.73 426.46L387.87 426.16L378.67 436.46L387.32 383.87L371.87 333.68Z" id="afCgLiCWG"></path><path d="M417.13 408.79L404.54 475.71L415.16 461.03L430.39 447.34L435.1 446.9L438.82 453.14L440.56 398.87L377.78 328.64L417.13 408.79Z" id="b3wqskeOE"></path><path d="M445.69 396.28L440.56 494.81L448.5 462.39L458.47 446.84L469.31 445.3L475.89 450.01L494.29 528.53L495.05 526.67L478.56 435.84L462.22 380.1L431.31 356.06L394.29 335.8L445.69 396.28Z" id="c2Ryu7UND0"></path></defs><g><g><g><use xlink:href="#imiAlz9B0" opacity="1" fill="#7e7e7e" fill-opacity="1"></use></g><g><use xlink:href="#f2dE1KPQ3" opacity="1" fill="#d8bb78" fill-opacity="1"></use></g><g><use xlink:href="#b1dpAG60EM" opacity="1" fill="#5f450b" fill-opacity="1"></use></g><g><use xlink:href="#a137DbDadu" opacity="1" fill="#ffffff" fill-opacity="1"></use></g><g><use xlink:href="#d3QxfOgf3Z" opacity="1" fill="#586777" fill-opacity="1"></use></g><g><use xlink:href="#h7sirzcGK" opacity="1" fill="#ffffff" fill-opacity="1"></use></g><g><use xlink:href="#h3cG7hu7G" opacity="1" fill="#ffffff" fill-opacity="1"></use></g><g><use xlink:href="#b1qBFzDJyQ" opacity="1" fill="#ffffff" fill-opacity="1"></use></g><g><use xlink:href="#asVQmf7pa" opacity="1" fill="#ffffff" fill-opacity="1"></use></g><g><use xlink:href="#c26KmCKSRP" opacity="1" fill="#8f8f75" fill-opacity="1"></use></g><g><use xlink:href="#a4LoREWUD2" opacity="1" fill="#8f8f75" fill-opacity="1"></use></g><g><use xlink:href="#bnt6vdcj" opacity="1" fill="#8f8f75" fill-opacity="1"></use></g><g><use xlink:href="#c1LUtFFYnP" opacity="1" fill="#8f8f75" fill-opacity="1"></use></g><g><use xlink:href="#e2oq0GJ4X0" opacity="1" fill="#7e7e7e" fill-opacity="1"></use></g><g><use xlink:href="#avzAyTkMc" opacity="1" fill="#7898af" fill-opacity="1"></use></g><g><use xlink:href="#a3vouGPj1" opacity="1" fill="#8f8f75" fill-opacity="1"></use></g><g><use xlink:href="#cazFJL9cO" opacity="1" fill="#ffffff" fill-opacity="1"></use></g><g><use xlink:href="#bDjEhTLvh" opacity="1" fill="#ffffff" fill-opacity="1"></use></g><g><use xlink:href="#a6b3zpgzTu" opacity="1" fill="#ffffff" fill-opacity="1"></use></g><g><use xlink:href="#b2zQ9DVStd" opacity="1" fill="#ffffff" fill-opacity="1"></use></g><g><use xlink:href="#bBvUGlvrU" opacity="1" fill="#ffffff" fill-opacity="1"></use></g><g><use xlink:href="#f1jhjrjJsk" opacity="1" fill="#97706b" fill-opacity="1"></use></g><g><use xlink:href="#d3SYwNdbf" opacity="1" fill="#1b1b1b" fill-opacity="1"></use></g><g><use xlink:href="#a2aXEmTgXx" opacity="1" fill="#97706b" fill-opacity="1"></use></g><g><use xlink:href="#amMZsD6pT" opacity="1" fill="#1b1b1b" fill-opacity="1"></use></g><g><use xlink:href="#boR7vLLTG" opacity="1" fill="#6a444e" fill-opacity="1"></use></g><g><use xlink:href="#c1O2CRY7I" opacity="1" fill="#ffffff" fill-opacity="1"></use></g><g><use xlink:href="#c1YXBsDRrM" opacity="1" fill="#8f8f75" fill-opacity="1"></use></g><g><use xlink:href="#afCgLiCWG" opacity="1" fill="#8f8f75" fill-opacity="1"></use></g><g><use xlink:href="#b3wqskeOE" opacity="1" fill="#8f8f75" fill-opacity="1"></use></g><g><use xlink:href="#c2Ryu7UND0" opacity="1" fill="#8f8f75" fill-opacity="1"></use></g></g></g></svg>