<?xml version="1.0" encoding="UTF-8" standalone="no"?>
<!DOCTYPE svg PUBLIC "-//W3C//DTD SVG 1.1//EN" "http://www.w3.org/Graphics/SVG/1.1/DTD/svg11.dtd">
<svg version="1.1" xmlns="http://www.w3.org/2000/svg" xmlns:xlink="http://www.w3.org/1999/xlink" preserveAspectRatio="xMidYMid meet" viewBox="327.6414306244933 7 262 786" width="262" height="786"><defs><path d="M327.64 7L589.64 7L589.64 793L327.64 793L327.64 7Z" id="d1hTFM0kV9"></path><path d="" id="c1NIys1rIY"></path><path d="M341.5 28.04L341.08 47.19L353.91 118.08L381.39 265.94L393.8 314.11L429.26 387.85L450.33 476.2L435.66 478.89L423.32 408.67L413.31 380.86L379.62 319.32L338.48 74.12L337.6 25.36L341.5 28.04Z" id="czs6HKkCr"></path><path d="M340.61 48.42L353.91 117.21L351.25 74.13L354.97 44.69L353.91 35.47L341.08 27.79L340.61 48.42Z" id="fzFdMOK9l"></path><path d="M456.41 472.82L522.3 667.92L527.46 709.69L516.64 777.91L495.01 780.4L474.55 739.47L455.74 686.74L423.13 480.79L456.41 472.82Z" id="a7p55nYPVk"></path><path d="M427.29 507.1L424.46 507.1L419.31 604.77L402 607.93L405.33 617.25L427.29 612.59L431.62 535.22L432.78 543.04L476.54 532.06L473.71 523.24L516.64 593.62L540.27 588.63L540.94 578.65L516.64 584.14L470.72 495.95L465.06 497.45L460.4 484.3L425.3 493.79L427.29 507.1Z" id="d1mIkzTV7h"></path><path d="M429.12 515.75L467.27 505.6L465.27 497.52L427.46 507.01L429.12 515.75Z" id="bIbwtcTbj"></path><path d="M471.19 515.25L474.57 526.07L431.76 536.38L430.29 525.57L471.19 515.25Z" id="b180Dpw1i7"></path></defs><g><g><g><use xlink:href="#d1hTFM0kV9" opacity="1" fill="#7e7e7e" fill-opacity="1"></use></g><g><use xlink:href="#c1NIys1rIY" opacity="1" fill="#786d92" fill-opacity="1"></use><g><use xlink:href="#c1NIys1rIY" opacity="1" fill-opacity="0" stroke="#000000" stroke-width="1" stroke-opacity="1"></use></g></g><g><use xlink:href="#czs6HKkCr" opacity="1" fill="#702920" fill-opacity="1"></use></g><g><use xlink:href="#fzFdMOK9l" opacity="1" fill="#442925" fill-opacity="1"></use></g><g><use xlink:href="#a7p55nYPVk" opacity="1" fill="#943324" fill-opacity="1"></use></g><g><use xlink:href="#d1mIkzTV7h" opacity="1" fill="#fce782" fill-opacity="1"></use></g><g><use xlink:href="#bIbwtcTbj" opacity="1" fill="#943324" fill-opacity="1"></use></g><g><use xlink:href="#b180Dpw1i7" opacity="1" fill="#943324" fill-opacity="1"></use></g></g></g></svg>