<?xml version="1.0" encoding="UTF-8" standalone="no"?>
<!DOCTYPE svg PUBLIC "-//W3C//DTD SVG 1.1//EN" "http://www.w3.org/Graphics/SVG/1.1/DTD/svg11.dtd">
<svg version="1.1" xmlns="http://www.w3.org/2000/svg" xmlns:xlink="http://www.w3.org/1999/xlink" preserveAspectRatio="xMidYMid meet" viewBox="329.09395563545183 7 262 786" width="262" height="786"><defs><path d="M329.09 7L591.09 7L591.09 793L329.09 793L329.09 7Z" id="a33j68WmE"></path><path d="M468.81 457.78L534.84 135.95L531.36 111.82L534.84 86.91L546.03 66.45L558.97 70.89L559.55 116.87L544.13 138.12L481.74 460.74L491.41 463.02L490.04 479.39L453.68 468.93L455.95 453.73L468.81 457.78Z" id="b2qEbQdS1"></path><path d="M445.05 502.26L404.7 572.53L408.37 576.39L430.38 538.55L440.22 537.2L451.71 503.8L477.96 510.37L476.23 544.15L483.56 555.73L486.26 605.54L491.28 606.51L485.32 512.68L489.76 479.39L453.08 469.06L445.05 502.26Z" id="bu9zUYBMk"></path><path d="M443.19 529.77L435.67 528.42L440.69 518.57L445.51 515.1L447.06 517.03L443.19 529.77Z" id="a19gUwB2Hh"></path><path d="M476.4 533.63L483.16 541.74L483.16 528.61L477.56 523.21L476.4 533.63Z" id="g5UYLXM9Ty"></path><path d="M404.7 573.01L383.35 566.83L388.18 551.58L412.89 558.34L404.7 573.01Z" id="c8SeWZkxJr"></path><path d="M491.28 606.51L517.13 613.36L517.13 592.12L489.72 584.4L491.28 606.51Z" id="c68FTPuPip"></path><path d="M403.23 642.33L395.32 715.75L409.02 792.59L410.96 792.59L447.99 735.53L473.31 652.74L478.05 510.09L451.5 503.65L403.23 642.33Z" id="dxtsDoAE"></path><path d="M451.24 495.7L459.19 498.3L461.78 479.39L455.73 476.71L451.24 495.7Z" id="b9I2bTZH"></path><path d="M475.77 503.13L483.16 505.03L485.96 486.9L479.78 484.48L475.77 503.13Z" id="a41lqZIhHD"></path></defs><g><g><g><use xlink:href="#a33j68WmE" opacity="1" fill="#7e7e7e" fill-opacity="1"></use></g><g><use xlink:href="#b2qEbQdS1" opacity="1" fill="#000000" fill-opacity="1"></use></g><g><use xlink:href="#bu9zUYBMk" opacity="1" fill="#b9b9b9" fill-opacity="1"></use></g><g><use xlink:href="#a19gUwB2Hh" opacity="1" fill="#9b7647" fill-opacity="1"></use></g><g><use xlink:href="#g5UYLXM9Ty" opacity="1" fill="#9b7647" fill-opacity="1"></use></g><g><use xlink:href="#c8SeWZkxJr" opacity="1" fill="#000000" fill-opacity="1"></use></g><g><use xlink:href="#c68FTPuPip" opacity="1" fill="#000000" fill-opacity="1"></use></g><g><use xlink:href="#dxtsDoAE" opacity="1" fill="#c8ab6c" fill-opacity="1"></use></g><g><use xlink:href="#b9I2bTZH" opacity="1" fill="#000000" fill-opacity="1"></use></g><g><use xlink:href="#a41lqZIhHD" opacity="1" fill="#000000" fill-opacity="1"></use></g></g></g></svg>