<?xml version="1.0" encoding="UTF-8" standalone="no"?>
<!DOCTYPE svg PUBLIC "-//W3C//DTD SVG 1.1//EN" "http://www.w3.org/Graphics/SVG/1.1/DTD/svg11.dtd">
<svg version="1.1" xmlns="http://www.w3.org/2000/svg" xmlns:xlink="http://www.w3.org/1999/xlink" preserveAspectRatio="xMidYMid meet" viewBox="12.166056166056478 305.3202095917327 1519.5999999999995 314.4000000000001" width="1519.6" height="314.4"><defs><path d="M12.17 305.32L1531.77 305.32L1531.77 619.72L12.17 619.72L12.17 305.32Z" id="bfSQKXCuP"></path><path d="M1483.94 551.09L1526.24 585.99L1477.57 612.89L492.17 512.18L509.63 455.09L1483.94 551.09Z" id="bf2HMqEUA"></path><path d="M1503.53 566.9L1526.94 585.79L1503.53 598.52L514.22 504.17L531.47 472.96L1503.53 566.9Z" id="e202dFiSNL"></path><path d="" id="bhPFqi5w"></path><path d="M48.38 395.76L72.1 370.22L100.94 377.15L118.09 402.7L129.29 393.85L137.8 404.52L242.54 405.62L354.58 427L369.18 414.6L375.75 424.08L413.71 410.95L421.01 371.53L409.69 360.95L422.94 355.47L427.32 335.01L421.01 322.99L469.62 330.82L461.98 335.01L458.96 360.95L470.28 368.25L454.95 374.45L448.38 421.89L472.1 441.24L482.69 432.84L551.67 488.98L464.44 522.99L465.9 509.85L434.15 519.7L427.32 560.14L440.83 572.55L424.77 579.85L422.94 600.29L436.45 609.05L370.75 597.37L383.53 591.53L386.81 574.74L374.77 563.43L389.73 557.59L397.03 512.33L366.37 488.98L356.88 495.18L345.94 483.87L346.99 478.25L236.04 473.14L130.94 451.6L121.81 462.52L113.05 451.6L90.06 469.12L64.15 469.12L44.8 437L33.12 442.48L37.5 386.27L48.38 395.76Z" id="b4jgBcIC6q"></path><path d="M461.53 329.56L454.35 319.7L434.43 319.7L430.73 324.84L461.53 329.56Z" id="j2XfAnlZZz"></path><path d="M458.45 361.18L455.58 374.32L421.29 371.24L423.34 355.23L458.45 361.18Z" id="caUuKTODk"></path><path d="M476.52 488.19L484.53 487.58L490.49 480.39L484.53 471.15L477.76 471.15L470.16 477.31L476.52 488.19Z" id="dM5FQpDCS"></path><path d="M386.79 574.97L399.73 576.81L401.99 558.95L389.67 557.92L386.79 574.97Z" id="cjDdNhGzP"></path><path d="M424.98 579.69L413.07 578.87L416.36 560.8L427.45 560.8L424.98 579.69Z" id="aDMeqUd31"></path><path d="M418.41 605.67L405.48 617.16L396.24 617.16L384.33 599.51L418.41 605.67Z" id="d2jKJyLt1N"></path><path d="M361.7 460.41L369.91 456.1L361.7 449.32L355.13 453.63L361.7 460.41Z" id="bbCYCKoxw"></path><path d="M128.31 421.03L132.42 428.83L123.79 435.6L118.04 427.39L128.31 421.03Z" id="icIzSw2Xr"></path><path d="M34.47 433.55L20.92 426.98L23.18 401.93L36.87 399.05L34.47 433.55Z" id="ah2VopX6U"></path><path d="M90.32 391.87L98.95 399.67L102.85 426.77L95.66 446.9L82.73 452.24L63.01 443.82L61.58 415.07L70.2 392.89L90.32 391.87Z" id="c4NaaYD58B"></path></defs><g><g><g><use xlink:href="#bfSQKXCuP" opacity="1" fill="#7e7e7e" fill-opacity="1"></use></g><g><use xlink:href="#bf2HMqEUA" opacity="1" fill="#656565" fill-opacity="1"></use></g><g><use xlink:href="#e202dFiSNL" opacity="1" fill="#aeaeae" fill-opacity="1"></use></g><g><g><use xlink:href="#bhPFqi5w" opacity="1" fill-opacity="0" stroke="#000000" stroke-width="1" stroke-opacity="1"></use></g></g><g><use xlink:href="#b4jgBcIC6q" opacity="1" fill="#926432" fill-opacity="1"></use></g><g><use xlink:href="#j2XfAnlZZz" opacity="1" fill="#7b2218" fill-opacity="1"></use></g><g><use xlink:href="#caUuKTODk" opacity="1" fill="#7b2218" fill-opacity="1"></use></g><g><use xlink:href="#dM5FQpDCS" opacity="1" fill="#7b2218" fill-opacity="1"></use></g><g><use xlink:href="#cjDdNhGzP" opacity="1" fill="#7b2218" fill-opacity="1"></use></g><g><use xlink:href="#aDMeqUd31" opacity="1" fill="#7b2218" fill-opacity="1"></use></g><g><use xlink:href="#d2jKJyLt1N" opacity="1" fill="#7b2218" fill-opacity="1"></use></g><g><use xlink:href="#bbCYCKoxw" opacity="1" fill="#7b2218" fill-opacity="1"></use></g><g><use xlink:href="#icIzSw2Xr" opacity="1" fill="#7b2218" fill-opacity="1"></use></g><g><use xlink:href="#ah2VopX6U" opacity="1" fill="#7b2218" fill-opacity="1"></use></g><g><use xlink:href="#c4NaaYD58B" opacity="1" fill="#7b2218" fill-opacity="1"></use></g></g></g></svg>