<?xml version="1.0" encoding="UTF-8" standalone="no"?>
<!DOCTYPE svg PUBLIC "-//W3C//DTD SVG 1.1//EN" "http://www.w3.org/Graphics/SVG/1.1/DTD/svg11.dtd">
<svg version="1.1" xmlns="http://www.w3.org/2000/svg" xmlns:xlink="http://www.w3.org/1999/xlink" preserveAspectRatio="xMidYMid meet" viewBox="213.00478738383572 11.99999999999909 524.5106035889069 1048.000000000001" width="524.51" height="1048"><defs><path d="M213 12L737 12L737 1060L213 1060L213 12Z" id="e51UNIN7zz"></path><path d="M640.92 123.6L640.92 206.03L615.3 217.6L608.49 215.78L607.59 228.48L598.55 242.09L600.78 269.14L613.03 275.72L622.55 281.84L642.21 308.93L646.77 556.83L560.84 673.97L573.25 714.84L574.21 734.88L561.8 822.3L586.86 954.36L598.55 973.45L605.47 1042.19L599.51 1046.25L556.55 1044.34L536.02 1021.9L531.49 994.69L537.69 910.47L532.68 895.29L536.98 828.94L525.76 760.73L529.58 743.55L525.76 738.3L524.81 699.11L530.29 686.23L524.81 644.94L523.85 544.7L515.02 522.64L464.42 518.82L456.79 508.56L456.79 453.5L465.86 414.59L465.14 395.5L456.79 363.13L457.47 350L465.86 321.12L483.04 294.87L491.76 293.77L499.51 277.04L509.31 265.2L504.82 258.67L481.96 244.38L457.47 244.38L452.57 234.59L430.53 234.59L411.76 252.96L405.63 236.22L405.63 212.55L415.43 188.47L440.33 159.89L455.02 156.22L479.51 128.06L509.31 108.47L564.82 103.16L587.68 112.55L619.92 130.1L640.92 123.6Z" id="a1VZyJWmhu"></path><path d="M507.15 152.21L506.03 160.34L514.99 173.22L466.25 181.63L467.65 165.94L470.45 158.38L507.15 152.21Z" id="b23fN67KjQ"></path><path d="M502.92 175.27L504.54 165.71L497.04 157.77L482.63 160.71L472.04 169.09L470.27 180.86L502.92 175.27Z" id="a3E93svN8"></path><path d="M480.13 165.12L483.21 160.56L489.54 159.39L494.1 160.56L498.36 165.42L498.95 170.86L497.77 176.45L484.69 178.65L480.13 176.15L477.48 171.3L480.13 165.12Z" id="a8ZHbuFsj"></path><path d="M547.99 144.93L557.55 136.11L579.46 142.58L589.32 142.58L591.82 164.2L537.55 169.93L547.99 144.93Z" id="d38FlDjfzd"></path><path d="M543.14 166.26L555.49 143.31L569.76 142.87L582.26 151.26L582.99 155.81L572.41 166.26L542.41 169.31L543.14 166.26Z" id="d4fDS3drZ"></path><path d="M550.49 155.52L552.7 149.05L556.82 145.23L564.69 144.2L569.61 147.73L572.99 152.73L572.41 158.17L570.05 163.76L563.29 166.26L556.82 164.93L551.52 160.37L550.49 155.52Z" id="b3TLvx0ApY"></path><path d="M527.11 247.57L519.91 244.77L511.08 239.18L511.96 234.04L514.99 228.74L522.11 225.51L545.05 221.1L565.35 231.54L552.55 243.01L527.11 247.57Z" id="aPdqluPvZ"></path><path d="M523.88 230.65L540.64 227.12L553.29 233.89L539.91 237.57L516.82 238.15L523.88 230.65Z" id="i5CMwycRL"></path><path d="M447.49 189.6L447.49 201.21L451.32 211.36L454.55 210.04L453.23 216.21L456.46 220.33L467.05 218.57L467.49 213.57L461.32 205.48L457.2 206.21L461.32 196.36L454.55 188.27L447.49 189.6Z" id="l57frI1Bq"></path><path d="M524.75 285.98L560.94 328.15L593.59 346.81L613.18 335.61L614.67 304.64L599.93 268.63L610.75 274.42L636.5 322.22L640.98 323.71L656.65 460.21L685.12 497.64L703.97 560.33L653.81 696.26L638.86 693.76L621.34 694.49L560.94 674.57L543.93 664.6L524.75 647.2L527.92 669.77L522.62 670.07L522.62 655.09L519.59 652.04L519.59 646.5L515.9 645.57L515.9 640.44L498.41 643.04L490.72 639.57L489.84 632.75L521.08 630.52L515.38 587.24L514.43 522.72L580.84 528.58L638.86 554.95L647.67 557.53L638.13 497.64L620.12 498.54L637.65 482.13L642.88 469.38L636.5 470.13L595.46 487.4L585.72 501.56L497.41 479.4L512.99 361.62L508.45 300.56L491.43 294.2L498.97 277.31L524.75 285.98Z" id="cDYe7DwFJ"></path><path d="M737.52 1060L643.52 1060L635.86 12L736.51 12L737.52 1060Z" id="c1kshDyMOw"></path><path d="M638.13 556.39L688.02 557.53L698.68 552.76L695.05 548.46L639.04 537.57L639.04 533.04L677.81 531.45L701.4 526.91L707.75 520.79L702.3 518.3L638.13 520.11L638.13 514.9L661.26 512.17L694.37 496.53L694.37 487.91L677.81 487.91L656.5 496.53L638.13 497.21L638.13 556.39Z" id="dgfapSVBf"></path></defs><g><g><g><use xlink:href="#e51UNIN7zz" opacity="1" fill="#7e7e7e" fill-opacity="1"></use></g><g><use xlink:href="#a1VZyJWmhu" opacity="1" fill="#a5897e" fill-opacity="1"></use></g><g><use xlink:href="#b23fN67KjQ" opacity="1" fill="#5b483f" fill-opacity="1"></use></g><g><use xlink:href="#a3E93svN8" opacity="1" fill="#ececec" fill-opacity="1"></use></g><g><use xlink:href="#a8ZHbuFsj" opacity="1" fill="#3f6d91" fill-opacity="1"></use></g><g><use xlink:href="#d38FlDjfzd" opacity="1" fill="#5b483f" fill-opacity="1"></use></g><g><use xlink:href="#d4fDS3drZ" opacity="1" fill="#ececec" fill-opacity="1"></use></g><g><use xlink:href="#b3TLvx0ApY" opacity="1" fill="#3f6d91" fill-opacity="1"></use></g><g><use xlink:href="#aPdqluPvZ" opacity="1" fill="#7c556b" fill-opacity="1"></use></g><g><use xlink:href="#i5CMwycRL" opacity="1" fill="#000000" fill-opacity="1"></use></g><g><use xlink:href="#l57frI1Bq" opacity="1" fill="#090909" fill-opacity="1"></use></g><g><use xlink:href="#cDYe7DwFJ" opacity="1" fill="#5b8090" fill-opacity="1"></use></g><g><use xlink:href="#c1kshDyMOw" opacity="1" fill="#795548" fill-opacity="1"></use></g><g><use xlink:href="#dgfapSVBf" opacity="1" fill="#a5897e" fill-opacity="1"></use></g></g></g></svg>