<?xml version="1.0" encoding="UTF-8" standalone="no"?>
<!DOCTYPE svg PUBLIC "-//W3C//DTD SVG 1.1//EN" "http://www.w3.org/Graphics/SVG/1.1/DTD/svg11.dtd">
<svg version="1.1" xmlns="http://www.w3.org/2000/svg" xmlns:xlink="http://www.w3.org/1999/xlink" preserveAspectRatio="xMidYMid meet" viewBox="212.0512820512821 3.4000000000005457 262 943.1999999999998" width="262" height="943.2"><defs><path d="M212.05 3.4L474.05 3.4L474.05 946.6L212.05 946.6L212.05 3.4Z" id="k19EciNlE"></path><path d="M212.05 48.23L212.05 61.08L235.74 60.14L245.77 36.63L236.99 26.91L212.05 48.23Z" id="b1vj5vgVMG"></path><path d="M245.77 36.6L219.37 97.73L219.77 120.66L234.41 174.96L244.63 186.65L343.05 262.62L434.42 366.26L469.51 415.86L466.01 386.42L412.38 262.95L378.12 183.65L323.11 120.98L281.58 97.73L278.75 97.73L267.33 82.4L274.59 67.75L273.11 66L305.37 39.26L286.95 16.95L252.41 18.16L238.97 29.18L245.77 36.6Z" id="aTdDLSqFe"></path><path d="M273.27 190.98L342.77 261.82L357.56 307.66L343.05 293.01L318.52 337.01L322.96 337.01L326.32 360.53L318.52 379.35L313.15 379.35L280.02 367.4L275.45 375.33L270.61 337.83L301.39 337.43L321.9 279.06L305.9 263.73L245.06 187.25L247.73 130.33L273.27 190.98Z" id="a3fYN80O3l"></path><path d="M435.02 355.2L434.34 371.14L473.59 465.36L473.59 469.39L424.13 383.5L435.02 457.29L436.02 775.45L422.13 919.06L416.72 577.24L388.35 396.48L362.62 336.95L343.05 261.81L435.02 355.2Z" id="b7cbQZ5Ku"></path><path d="M281.76 378.68L253.4 434.84L212.05 434.23L212.05 450.9L262.4 450.43L297.84 378.68L312.89 379.35L309.4 350.32L291.52 346.96L280.23 367.25L281.76 378.68Z" id="c4FUQLelZu"></path></defs><g><g><g><use xlink:href="#k19EciNlE" opacity="1" fill="#7e7e7e" fill-opacity="1"></use></g><g><use xlink:href="#b1vj5vgVMG" opacity="1" fill="#ffdc2b" fill-opacity="1"></use></g><g><use xlink:href="#aTdDLSqFe" opacity="1" fill="#ff3030" fill-opacity="1"></use></g><g><use xlink:href="#a3fYN80O3l" opacity="1" fill="#ffcc00" fill-opacity="1"></use></g><g><use xlink:href="#b7cbQZ5Ku" opacity="1" fill="#a40000" fill-opacity="1"></use></g><g><use xlink:href="#c4FUQLelZu" opacity="1" fill="#2a36ab" fill-opacity="1"></use></g></g></g></svg>