<?xml version="1.0" encoding="UTF-8" standalone="no"?>
<!DOCTYPE svg PUBLIC "-//W3C//DTD SVG 1.1//EN" "http://www.w3.org/Graphics/SVG/1.1/DTD/svg11.dtd">
<svg version="1.1" xmlns="http://www.w3.org/2000/svg" xmlns:xlink="http://www.w3.org/1999/xlink" preserveAspectRatio="xMidYMid meet" viewBox="171.3682014565369 206.00658950747652 314.4000000000001 419.20000000000005" width="314.4" height="419.2"><defs><path d="M171.37 206.01L485.77 206.01L485.77 625.21L171.37 625.21L171.37 206.01Z" id="c9TyJtQXak"></path><path d="M243.4 361.61L243.4 504.54L233.05 506.81L231.79 363.63L243.4 361.61Z" id="c1e7rngxbN"></path><path d="M274.97 353.53L274.97 501.76L264.87 502.52L264.87 355.8L274.97 353.53Z" id="cAkt536Pj"></path><path d="M335.58 354.79L337.85 497.72L327.5 490.4L324.72 353.53L335.58 354.79Z" id="c4Iuv9lLIS"></path><path d="M357.29 359.34L359.57 502.52L371.43 504.54L371.43 361.61L357.29 359.34Z" id="b237MYEOEL"></path><path d="M204.26 519.48L402.75 516.7L403.76 506.81L305.27 492.71L294.92 493.47L204.26 506.81L204.26 519.48Z" id="dqRRLjtuD"></path><path d="M299.47 501.99L398.2 515.63L400.22 564.62L297.95 595.68L205.53 568.22L205.53 514.43L299.47 501.99Z" id="avTMuaIBr"></path><path d="M268.15 419.66L245.68 417.4L204.26 405.51L204.26 400.97L245.68 392.64L268.15 409.55L268.15 419.66Z" id="b52sJTdaQ"></path><path d="M313.61 418.9L325.73 408.29L369.16 400.72L369.16 398.44L334.57 383.04L325.73 384.3L311.08 404.5L313.61 418.9Z" id="dEl67B0F0"></path><path d="M295.55 397.41L298.87 380.17L294.49 375.66L286.93 380.56L290.91 383.48L284.15 397.01L270.75 381.62L273.94 377.91L265.71 376.19L259.88 384.81L262.66 386.4L264.52 385.21L275.39 404.04L295.55 397.41Z" id="j1IzLf2Ms"></path><path d="M287.99 396.51L304.7 397.57L313.27 403.27L315.86 417.4L304.32 427.13L354.45 451.4L353.92 464.66L312.54 441.06L358.55 528.15L393.7 546.45L358.95 545.26L304.7 485.34L298.34 480.83L278.98 512.93L292.64 547.01L271.02 558.02L254.44 556.16L250.73 553.77L271.02 540.64L262.53 510.41L286.8 465.71L274.97 450.06L250.73 457.75L250.73 446.35L287.99 430.83L281.5 428.02L265.71 418.9L265.18 406.69L274.2 401.65L287.99 396.51Z" id="agPMGauh6"></path><path d="M280.77 412.67L276.3 414.09L274 412.01L277.58 408.83L280.77 412.67Z" id="aj694uXIl"></path><path d="M295.22 413.2L291.38 412.67L290.18 410.02L290.98 407.77L293.76 407.77L295.22 413.2Z" id="g2agh0b1yo"></path><path d="M296.15 425.62L283.02 425.62L280.24 421.82L296.15 421.29L296.15 425.62Z" id="a3SJ7O3qp"></path><path d="M207.6 368.67L207.6 569.18L197.62 566.37L194.04 372.25L207.6 368.67Z" id="b9lwSskdlC"></path><path d="M250.73 357.93L251.35 581.97L242.93 578.65L239.31 361.61L250.73 357.93Z" id="b2uWGC9qR"></path><path d="M304.53 348.42L305.3 595.03L294.3 595.03L294.3 349.75L304.53 348.42Z" id="d1ZEcJwqcR"></path><path d="M360.54 360.35L362.79 577.04L353.38 580.37L351.59 359.34L360.54 360.35Z" id="a1HUisrBBN"></path><path d="M405.81 369.81L407.34 564.44L397.62 567L396.86 367.77L405.81 369.81Z" id="dHv9uPNcP"></path><path d="M248.43 459.76L250.73 462.94L248.96 464.8L251.35 466.65L249.63 468.38L241 469.04L238.48 466.26L234.51 462.94L241 454.85L248.96 457.5L248.43 459.76Z" id="h1koSiJG7R"></path><path d="M355.3 465L361.14 467.38L370.29 458.37L369.16 453.19L361.14 447.22L355.3 451.47L355.3 465Z" id="a4AMHnyvLD"></path><path d="M299.8 591.61L407.34 561.07L407.34 570.41L296.7 601.83L197.96 572.56L197.49 562.59L299.8 591.61Z" id="a1WW0L7Sl9"></path><path d="M292.03 344.98L265.27 289.68L263.06 289.68L254.99 298.22L240.75 297.75L236 289.05L236 275.8L242.33 268.16L254.99 267.84L260.45 275.8L485.77 273.46L485.77 369.96L403.91 288.33L359.61 288.33L309.23 345.57L405.75 365.5L406.22 372.46L304.51 352.56L296.15 352.08L194.04 375.98L194.04 363.79L292.03 344.98Z" id="a1ZUCyFmO"></path><path d="M292.19 327.69L304.21 303.95L298.87 288.6L274.97 288.92L292.19 327.69Z" id="c5ftI0kwFI"></path><path d="M306.43 312.81L311.81 330.38L299.8 343.98L294.88 334.49L306.43 312.81Z" id="c1lEYxp3jQ"></path><path d="M308.96 295.88L312.76 288.6L305.64 288.6L308.96 295.88Z" id="j1HVRLEvVG"></path><path d="M347.09 288.6L316.71 325.15L311.81 304.74L320.19 288.6L347.09 288.6Z" id="bBkwFpYsn"></path></defs><g><g><g><use xlink:href="#c9TyJtQXak" opacity="1" fill="#7e7e7e" fill-opacity="1"></use></g><g><use xlink:href="#c1e7rngxbN" opacity="1" fill="#c3ac4f" fill-opacity="1"></use></g><g><use xlink:href="#cAkt536Pj" opacity="1" fill="#c3ac4f" fill-opacity="1"></use></g><g><use xlink:href="#c4Iuv9lLIS" opacity="1" fill="#c3ac4f" fill-opacity="1"></use></g><g><use xlink:href="#b237MYEOEL" opacity="1" fill="#c3ac4f" fill-opacity="1"></use></g><g><use xlink:href="#dqRRLjtuD" opacity="1" fill="#fccf19" fill-opacity="1"></use></g><g><use xlink:href="#avTMuaIBr" opacity="1" fill="#c9ae78" fill-opacity="1"></use></g><g><use xlink:href="#b52sJTdaQ" opacity="1" fill="#ec7d58" fill-opacity="1"></use></g><g><use xlink:href="#dEl67B0F0" opacity="1" fill="#ec7d58" fill-opacity="1"></use></g><g><use xlink:href="#j1IzLf2Ms" opacity="1" fill="#fff3a1" fill-opacity="1"></use></g><g><use xlink:href="#agPMGauh6" opacity="1" fill="#44b3ef" fill-opacity="1"></use></g><g><use xlink:href="#aj694uXIl" opacity="1" fill="#0d166b" fill-opacity="1"></use></g><g><use xlink:href="#g2agh0b1yo" opacity="1" fill="#0d166b" fill-opacity="1"></use></g><g><use xlink:href="#a3SJ7O3qp" opacity="1" fill="#ed4d4d" fill-opacity="1"></use></g><g><use xlink:href="#b9lwSskdlC" opacity="1" fill="#fccf19" fill-opacity="1"></use></g><g><use xlink:href="#b2uWGC9qR" opacity="1" fill="#fccf19" fill-opacity="1"></use></g><g><use xlink:href="#d1ZEcJwqcR" opacity="1" fill="#fccf19" fill-opacity="1"></use></g><g><use xlink:href="#a1HUisrBBN" opacity="1" fill="#fccf19" fill-opacity="1"></use></g><g><use xlink:href="#dHv9uPNcP" opacity="1" fill="#fccf19" fill-opacity="1"></use></g><g><use xlink:href="#h1koSiJG7R" opacity="1" fill="#44b3ef" fill-opacity="1"></use></g><g><use xlink:href="#a4AMHnyvLD" opacity="1" fill="#44b3ef" fill-opacity="1"></use></g><g><use xlink:href="#a1WW0L7Sl9" opacity="1" fill="#fccf19" fill-opacity="1"></use></g><g><use xlink:href="#a1ZUCyFmO" opacity="1" fill="#fccf19" fill-opacity="1"></use></g><g><use xlink:href="#c5ftI0kwFI" opacity="1" fill="#7e7e7e" fill-opacity="1"></use></g><g><use xlink:href="#c1lEYxp3jQ" opacity="1" fill="#7e7e7e" fill-opacity="1"></use></g><g><use xlink:href="#j1HVRLEvVG" opacity="1" fill="#7e7e7e" fill-opacity="1"></use></g><g><use xlink:href="#bBkwFpYsn" opacity="1" fill="#7e7e7e" fill-opacity="1"></use></g></g></g></svg>