<?xml version="1.0" encoding="UTF-8" standalone="no"?>
<!DOCTYPE svg PUBLIC "-//W3C//DTD SVG 1.1//EN" "http://www.w3.org/Graphics/SVG/1.1/DTD/svg11.dtd">
<svg version="1.1" xmlns="http://www.w3.org/2000/svg" xmlns:xlink="http://www.w3.org/1999/xlink" preserveAspectRatio="xMidYMid meet" viewBox="221.05304633516107 48.5393258426966 524 917.0000000000003" width="524" height="917"><defs><path d="M221.05 48.54L745.05 48.54L745.05 965.54L221.05 965.54L221.05 48.54Z" id="aAm08d15A"></path><path d="" id="b6aoM6yki"></path><path d="M221.05 842.55L221.05 965.54L745.05 965.54L745.05 850.43L221.05 842.55Z" id="a11J9f1sHq"></path><path d="M617.68 239.17L649.41 253.27L702.84 315.38L700.98 406.61L663.48 340.58L663.48 360.99L650.66 366.86L662 668.3L655.27 883.69L688.93 926.96L687.32 936.25L651.75 951.96L622.9 906.76L611.04 675.67L563.48 674.78L528.54 901.38L494.57 938.24L484.63 939.84L446.49 922.21L494.57 899.14L507.07 669.28L520.21 483.2L507.07 360.99L506.43 312.27L420.21 365.79L329.18 323.17L327.26 317.4L323.09 319.64L303.54 312.27L297.77 284.7L307.71 278.61L310.59 282.14L318.04 273.99L333.9 300.44L413.23 330.24L524.77 242.26L617.68 239.17Z" id="ac3gm8Zg2"></path><path d="M531.01 242.03L555.05 275.36L633.25 257.73L639.66 248.76L650.24 253.89L662.84 358.24L664.55 579.59L662.84 669.75L610.59 683.85L563.16 683.85L485.27 658.21L506.78 419.21L506.78 361.26L522.48 282.41L525.37 242.03L531.01 242.03Z" id="azh7ACHvo"></path><path d="M745.05 850.41L695.22 849.82L699.23 48.54L744.05 48.54L745.05 850.41Z" id="g1He0B02GS"></path><path d="M509.21 636.12L576.69 659.84L623.63 657.39L662.84 636.85L662.84 645.7L627.79 662.77L574.91 666.24L508.13 645.7L487.11 634.21L488.08 623.94L509.21 636.12Z" id="b2N3YtwKY4"></path><path d="M444.2 208.5L457.64 192.36L497.99 175.98L647.96 126.57L720.82 114.59L732.31 107.99L710.31 85.25L679.5 81.09L642.56 89.92L490.72 130.51L435.71 169.38L431.8 193.59L438.89 211.92L444.2 208.5Z" id="a2X0VX5He2"></path><path d="M653.24 178.77L684.78 158.72L685.52 134.52L725.61 112.51L709.97 92.95L683.32 87.82L660.82 94.66L646.4 121.56L495.79 171.09L479.89 154.47L459.35 157.4L440.28 186.25L443.46 209.72L460.33 195.3L504.34 220.97L516.81 220.97L653.24 178.77Z" id="agn0I6WAK"></path><path d="M496.4 171.51L492 130.19L519.38 98.4L552.39 83.24L592 79.09L643.1 89.11L652.44 178.5L603.78 264.57L574.91 270.68L535.32 248.92L507.45 206.62L496.4 171.51Z" id="cgWvaQMp"></path><path d="M512.04 147.29L528.86 143.89L540.96 146.51L550.79 160.33L548.14 180.56L530.75 193.79L512.98 194.93L502.78 179.99L502.78 155.23L512.04 147.29Z" id="c5wLdYss2t"></path><path d="M508.45 173.19L523.19 179.61L535.1 177.54L543.42 158.25L512.98 157.31L508.45 173.19Z" id="bQKdBjfwT"></path><path d="M512.98 157.31L533.78 157.31L539.83 166.95L535.1 177.35L523.38 179.61L514.5 175.65L510.34 167.52L512.98 157.31Z" id="dzt0QlMjG"></path><path d="M529.24 161.66L530.56 170.54L523.76 174.32L517.52 170.54L518.84 161.66L529.24 161.66Z" id="b62a4wr501"></path><path d="M542.85 131.41L533.59 124.79L514.87 127.82L496.54 153.72L517.52 137.27L534.34 135L548.33 139.16L542.85 131.41Z" id="c2molvhkj"></path><path d="M578.01 134.62L588.03 125.93L604.67 121.39L616.57 125.44L629.05 134.62L627.73 157.88L622.06 164.11L595.78 171.3L572.22 155.8L578.01 134.62Z" id="aaJpBJDjJ"></path><path d="M611.47 131.79L620.73 139.26L608.45 154.39L594.65 157.31L576.88 149.18L593.13 132.92L611.47 131.79Z" id="fGRW5ppL"></path><path d="M592.95 132.92L607.88 131.79L612.79 136.89L613.36 148.05L608.64 154.39L595.21 157.31L586.9 153.15L585.01 140.67L592.95 132.92Z" id="bVZ3fL1vp"></path><path d="M603.53 138.22L607.12 139.26L607.12 148.8L599.75 151.64L593.32 146.34L594.08 142L597.67 135.76L603.53 138.22Z" id="dYXhWDwYv"></path><path d="M572.22 116.85L583.49 106.46L587.46 107.03L606.18 102.68L627.54 118.56L604.67 112.51L583.49 117.42L568.18 130.09L572.22 116.85Z" id="afcTUFFvX"></path><path d="M585.01 188.5L600.63 197.95L600.22 205.7L589.54 210.81L588.03 220.07L574.04 234.25L559.3 229.14L554.95 220.07L548.9 220.07L543.42 210.81L554.95 199.27L553.25 184.15L553.25 124.79L585.01 188.5Z" id="bTnOCLrrT"></path><path d="M576.88 243.62L608.2 228.12L602.72 242.68L579.47 259.69L562.45 256.29L548.33 242.68L576.88 243.62Z" id="i9hPjjqYP"></path><path d="M311 254.26L304.12 235.61L319.61 252.39L339.27 238.62L325.35 259.85L347.87 250.67L329.8 263.3L346.3 261.43L317.46 274.34L290.63 251.1L311 254.26Z" id="eOBqw3RoO"></path></defs><g><g><g><use xlink:href="#aAm08d15A" opacity="1" fill="#7e7e7e" fill-opacity="1"></use></g><g><g><use xlink:href="#b6aoM6yki" opacity="1" fill-opacity="0" stroke="#000000" stroke-width="1" stroke-opacity="1"></use></g></g><g><use xlink:href="#a11J9f1sHq" opacity="1" fill="#000000" fill-opacity="1"></use></g><g><use xlink:href="#ac3gm8Zg2" opacity="1" fill="#e4caad" fill-opacity="1"></use></g><g><use xlink:href="#azh7ACHvo" opacity="1" fill="#9ec6e3" fill-opacity="1"></use></g><g><use xlink:href="#g1He0B02GS" opacity="1" fill="#795548" fill-opacity="1"></use></g><g><use xlink:href="#b2N3YtwKY4" opacity="1" fill="#6b85c1" fill-opacity="1"></use></g><g><use xlink:href="#a2X0VX5He2" opacity="1" fill="#e4caad" fill-opacity="1"></use></g><g><use xlink:href="#agn0I6WAK" opacity="1" fill="#bfa588" fill-opacity="1"></use></g><g><use xlink:href="#cgWvaQMp" opacity="1" fill="#f3e2ce" fill-opacity="1"></use></g><g><use xlink:href="#c5wLdYss2t" opacity="1" fill="#e4caad" fill-opacity="1"></use></g><g><use xlink:href="#bQKdBjfwT" opacity="1" fill="#ffffff" fill-opacity="1"></use></g><g><use xlink:href="#dzt0QlMjG" opacity="1" fill="#486c4d" fill-opacity="1"></use></g><g><use xlink:href="#b62a4wr501" opacity="1" fill="#8ebf94" fill-opacity="1"></use></g><g><use xlink:href="#c2molvhkj" opacity="1" fill="#c8c8c8" fill-opacity="1"></use></g><g><use xlink:href="#aaJpBJDjJ" opacity="1" fill="#e4caad" fill-opacity="1"></use></g><g><use xlink:href="#fGRW5ppL" opacity="1" fill="#ffffff" fill-opacity="1"></use></g><g><use xlink:href="#bVZ3fL1vp" opacity="1" fill="#486c4d" fill-opacity="1"></use></g><g><use xlink:href="#dYXhWDwYv" opacity="1" fill="#8ebf94" fill-opacity="1"></use></g><g><use xlink:href="#afcTUFFvX" opacity="1" fill="#c8c8c8" fill-opacity="1"></use></g><g><use xlink:href="#bTnOCLrrT" opacity="1" fill="#e4caad" fill-opacity="1"></use></g><g><use xlink:href="#i9hPjjqYP" opacity="1" fill="#e7ced9" fill-opacity="1"></use></g><g><use xlink:href="#eOBqw3RoO" opacity="1" fill="#e4943e" fill-opacity="1"></use></g></g></g></svg>