<?xml version="1.0" encoding="UTF-8" standalone="no"?>
<!DOCTYPE svg PUBLIC "-//W3C//DTD SVG 1.1//EN" "http://www.w3.org/Graphics/SVG/1.1/DTD/svg11.dtd">
<svg version="1.1" xmlns="http://www.w3.org/2000/svg" xmlns:xlink="http://www.w3.org/1999/xlink" preserveAspectRatio="xMidYMid meet" viewBox="73.25602605863185 168.61846374708125 157.20000000000002 157.58153625291874" width="157.2" height="157.58"><defs><path d="M73.26 168.62L230.46 168.62L230.46 325.82L73.26 325.82L73.26 168.62Z" id="b1E2TxLiKr"></path><path d="M230.46 168.62L230.46 173.42L219.81 206.98L210.48 214.44L195.93 213.7L195.93 228.44L205.07 235.71L224.1 240L224.1 247.22L214.58 261.65L214.58 268.55L206.37 273.77L192.19 297.44L191.63 311.46L185.29 317.62L177.83 316.12L172.42 325.82L95.55 325.82L86.78 320.23L91.26 300.08L93.13 297.44L138.46 283.82L143.87 284.75L162.53 263.3L162.53 256.77L131.19 249.49L111.6 225.8L106 203.04L113.84 182.14L133.99 168.62L230.46 168.62Z" id="d49MP0irU"></path><path d="M81.24 308.71L85.73 325.01L88.57 314.51L97.21 308.38L91.09 300.06L81.24 308.71Z" id="a1k03X9rnu"></path><path d="M114.83 326.2L121.28 318.12L127.19 314.83L125.66 304.55L119.86 301.38L113.52 306.41L112.97 325.82L114.83 326.2Z" id="f3hAXsj2k9"></path><path d="M159.89 306.46L159.35 314.78L154.86 317.95L150.92 325.82L148.95 325.82L145.12 311.82L154.21 302.63L159.89 306.46Z" id="a7YXBriJFV"></path></defs><g><g><g><use xlink:href="#b1E2TxLiKr" opacity="1" fill="#7e7e7e" fill-opacity="1"></use></g><g><use xlink:href="#d49MP0irU" opacity="1" fill="#795548" fill-opacity="1"></use></g><g><use xlink:href="#a1k03X9rnu" opacity="1" fill="#000000" fill-opacity="1"></use></g><g><use xlink:href="#f3hAXsj2k9" opacity="1" fill="#000000" fill-opacity="1"></use></g><g><use xlink:href="#a7YXBriJFV" opacity="1" fill="#000000" fill-opacity="1"></use></g></g></g></svg>