<?xml version="1.0" encoding="UTF-8" standalone="no"?>
<!DOCTYPE svg PUBLIC "-//W3C//DTD SVG 1.1//EN" "http://www.w3.org/Graphics/SVG/1.1/DTD/svg11.dtd">
<svg version="1.1" xmlns="http://www.w3.org/2000/svg" xmlns:xlink="http://www.w3.org/1999/xlink" preserveAspectRatio="xMidYMid meet" viewBox="122.89280444898418 223.99492794229644 196.4999999999999 157.2000000000001" width="196.5" height="157.2"><defs><path d="M122.89 223.99L319.39 223.99L319.39 381.19L122.89 381.19L122.89 223.99Z" id="fF3oYWBW2"></path><path d="M123.61 263.4L128.61 253.16L137.3 245.68L151.25 223.99L319.39 224.59L318.94 262.19L311.48 270.62L296.83 277.35L276.63 278.4L250.8 271.49L234.8 275.79L229.76 286.86L231.48 296.79L214.97 296.79L201.24 302.59L193.3 312.21L194 336.11L201.24 356.09L221.14 373.05L214.46 380.85L123.61 380.85L123.61 365.45L130.49 349.86L131.65 329.25L123.61 300.59L123.61 263.4Z" id="e7CmYuoFXC"></path><path d="M319.39 232.52L319.39 245.64L137.24 245.64L145.53 232.52L319.39 232.52Z" id="b29jGNUx3V"></path></defs><g><g><g><use xlink:href="#fF3oYWBW2" opacity="1" fill="#7e7e7e" fill-opacity="1"></use></g><g><use xlink:href="#e7CmYuoFXC" opacity="1" fill="#795548" fill-opacity="1"></use></g><g><use xlink:href="#b29jGNUx3V" opacity="1" fill="#452f27" fill-opacity="1"></use></g></g></g></svg>