<?xml version="1.0" encoding="UTF-8" standalone="no"?>
<!DOCTYPE svg PUBLIC "-//W3C//DTD SVG 1.1//EN" "http://www.w3.org/Graphics/SVG/1.1/DTD/svg11.dtd">
<svg version="1.1" xmlns="http://www.w3.org/2000/svg" xmlns:xlink="http://www.w3.org/1999/xlink" preserveAspectRatio="xMidYMid meet" viewBox="433.70509977827066 170.58906134515883 209.60000000000002 209.60000000000008" width="209.6" height="209.6"><defs><path d="M433.71 170.59L643.31 170.59L643.31 380.19L433.71 380.19L433.71 170.59Z" id="btCeotKUw"></path><path d="M626.56 170.59L622.83 190.3L576.82 217.16L539.85 202.54L529.75 170.59L626.56 170.59Z" id="cNWT3QRj0"></path><path d="M560.67 258.44L543.51 292.01L523.71 319.88L475.17 357.1L456.74 344.7L451.63 324.8L458.57 310.19L465.87 309.48L471.52 316.59L473.9 333.2L480.46 317.69L480.46 310.19L472.25 297.98L458.57 294.88L446.16 299.99L433.71 317.69L434.48 339.4L451.08 380.19L527.44 380.19L545.32 362.12L573.06 347.34L597.33 346.61L597.33 360.48L577.8 380.19L627.8 380.19L621.6 365.95L621.6 345.7L630.54 329.89L633.09 310.19L628.71 286.28L611.66 254.4L623.37 189.77L584.27 205.99L558.21 205.99L539.85 201.74L560.67 258.44Z" id="b20rjFKPau"></path></defs><g><g><g><use xlink:href="#btCeotKUw" opacity="1" fill="#7e7e7e" fill-opacity="1"></use></g><g><use xlink:href="#cNWT3QRj0" opacity="1" fill="#795548" fill-opacity="1"></use></g><g><use xlink:href="#b20rjFKPau" opacity="1" fill="#000000" fill-opacity="1"></use></g></g></g></svg>