<?xml version="1.0" encoding="UTF-8" standalone="no"?>
<!DOCTYPE svg PUBLIC "-//W3C//DTD SVG 1.1//EN" "http://www.w3.org/Graphics/SVG/1.1/DTD/svg11.dtd">
<svg version="1.1" xmlns="http://www.w3.org/2000/svg" xmlns:xlink="http://www.w3.org/1999/xlink" preserveAspectRatio="xMidYMid meet" viewBox="226.4646464646463 317.8000000000001 104.80000000000007 157.20000000000005" width="104.8" height="157.2"><defs><path d="M226.46 317.8L331.26 317.8L331.26 475L226.46 475L226.46 317.8Z" id="a2Um4CguwQ"></path><path d="M230.3 355.07L236.46 342.45L236.46 337.12L232.15 334.47L232.4 321.83L236.66 317.8L322.57 317.8L327.36 322.47L326.76 334.47L322.14 337.12L321.8 342.94L327.7 353L321.8 406.56L306.27 437.97L306.06 443.94L314.91 455.36L314.91 465.78L306.81 474.65L251.01 474.3L243.43 465.78L243.87 455.1L252.68 444.5L252.68 438.66L237.2 406.56L230.3 355.07Z" id="gpL9Q3Boo"></path><path d="M322.08 337.23L321.86 342.9L236.49 342.61L236.49 337.09L322.08 337.23Z" id="a2RXrzneDl"></path><path d="M306.2 438.13L306.2 444.01L252.67 444.52L252.67 438.89L306.2 438.13Z" id="da2ZUe8tu"></path></defs><g><g><g><use xlink:href="#a2Um4CguwQ" opacity="1" fill="#7e7e7e" fill-opacity="1"></use></g><g><use xlink:href="#gpL9Q3Boo" opacity="1" fill="#795548" fill-opacity="1"></use></g><g><use xlink:href="#a2RXrzneDl" opacity="1" fill="#452f27" fill-opacity="1"></use></g><g><use xlink:href="#da2ZUe8tu" opacity="1" fill="#452f27" fill-opacity="1"></use></g></g></g></svg>