<?xml version="1.0" encoding="UTF-8" standalone="no"?>
<!DOCTYPE svg PUBLIC "-//W3C//DTD SVG 1.1//EN" "http://www.w3.org/Graphics/SVG/1.1/DTD/svg11.dtd">
<svg version="1.1" xmlns="http://www.w3.org/2000/svg" xmlns:xlink="http://www.w3.org/1999/xlink" preserveAspectRatio="xMidYMid meet" viewBox="215 60 262 655" width="262" height="655"><defs><path d="M215 60L477 60L477 715L215 715L215 60Z" id="d2vyJT8DGG"></path><path d="M367.66 97.18L377.58 78.2L390.04 64.88L403.92 60L443.02 60L467.95 78.2L477 98.59L477 138.82L438.37 224.17L430.58 221.49L428.85 225.67L423.69 220.43L460.3 127.77L459.16 107.37L444.72 86.41L420.07 78.2L399.11 83.58L388.63 94.34L381.26 125.79L373.04 128.62L361.71 120.97L367.66 97.18Z" id="b1YVgYH1FR"></path><path d="M376.96 211.28L466.09 238.02L474.57 221.71L469.35 220.41L464.43 234.97L438.91 228.45L444.35 210.19L440 209.54L434.78 225.63L412.31 219.32L418.04 201.93L414.78 200.41L410.74 217.15L403.48 215.41L409.35 198.89L405.65 197.58L400.43 214.32L390 211.28L396.3 193.89L391.52 192.15L385.22 208.45L381.52 207.37L386.96 190.19L383.72 189.31L377.61 206.5L376.96 211.28Z" id="b3Yj36C1Ak"></path><path d="M235.23 654.85L261.68 668.31L477 337.96L477 245.05L468.18 233.9L376.07 201.42L341.73 204.9L235.23 654.85Z" id="b11tR36YOH"></path><path d="M239.53 658.81L242.31 660.9L396.23 225.77L381.38 208.83L371.17 213.66L239.53 658.81Z" id="b2smMuAGk"></path><path d="M398.16 220.9L401.64 210.92L388.88 206.51L398.16 220.9Z" id="b2wksga1P"></path><path d="M412.31 214.38L427.16 228.76L429.02 225.98L458.25 245.93L248.78 662.74L245.3 660.9L425.76 232.5L403.73 212.31L412.31 214.38Z" id="c4CUZB2re"></path><path d="M454.59 236.88L460.93 231.85L440.63 224.59L454.59 236.88Z" id="cA4QgPqyu"></path><path d="M467.94 234.46L476.5 245.27L477 252.77L462.83 236.26L463.91 232.79L467.94 234.46Z" id="a2RFArFST"></path><path d="M251.9 663.64L257.16 666.95L476.5 308.8L477 262.11L251.9 663.64Z" id="a1srvNxv7E"></path><path d="M254.35 667.61L229.99 715L223.49 715L219.55 707.75L239.97 662.74L254.35 667.61Z" id="fPrrkbcSi"></path><path d="M262.71 667.61L258.53 675.26L232.77 662.04L235.79 653.69L262.71 667.61Z" id="doswMVPIE"></path></defs><g><g><g><use xlink:href="#d2vyJT8DGG" opacity="1" fill="#7e7e7e" fill-opacity="1"></use></g><g><use xlink:href="#b1YVgYH1FR" opacity="1" fill="#64422c" fill-opacity="1"></use></g><g><use xlink:href="#b3Yj36C1Ak" opacity="1" fill="#9d5c21" fill-opacity="1"></use></g><g><use xlink:href="#b11tR36YOH" opacity="1" fill="#bc3195" fill-opacity="1"></use></g><g><use xlink:href="#b2smMuAGk" opacity="1" fill="#f996dd" fill-opacity="1"></use></g><g><use xlink:href="#b2wksga1P" opacity="1" fill="#f996dd" fill-opacity="1"></use></g><g><use xlink:href="#c4CUZB2re" opacity="1" fill="#f996dd" fill-opacity="1"></use></g><g><use xlink:href="#cA4QgPqyu" opacity="1" fill="#f996dd" fill-opacity="1"></use></g><g><use xlink:href="#a2RFArFST" opacity="1" fill="#f996dd" fill-opacity="1"></use></g><g><use xlink:href="#a1srvNxv7E" opacity="1" fill="#f996dd" fill-opacity="1"></use></g><g><use xlink:href="#fPrrkbcSi" opacity="1" fill="#9d5c21" fill-opacity="1"></use></g><g><use xlink:href="#doswMVPIE" opacity="1" fill="#64422c" fill-opacity="1"></use></g></g></g></svg>