<?xml version="1.0" encoding="UTF-8" standalone="no"?>
<!DOCTYPE svg PUBLIC "-//W3C//DTD SVG 1.1//EN" "http://www.w3.org/Graphics/SVG/1.1/DTD/svg11.dtd">
<svg version="1.1" xmlns="http://www.w3.org/2000/svg" xmlns:xlink="http://www.w3.org/1999/xlink" preserveAspectRatio="xMidYMid meet" viewBox="52.24801412180042 23.986802184465887 262.0000000000002 524" width="262" height="524"><defs><path d="M314.25 23.99L314.25 547.99L52.25 547.99L52.25 23.99L314.25 23.99Z" id="c20EP1AYpU"></path><path d="M185.6 523.38L139.24 547.43L137.19 536.24L103.22 528.6L101.29 513.94L79.16 532.22L52.25 512.98L52.25 43.73L79.16 41.44L185.6 523.38Z" id="hdqqCeEcD"></path><path d="M88.15 494.22L80.24 503.64L74.37 499.27L75.46 404.73L88.15 494.22Z" id="akDO6Xugp"></path><path d="M129.73 492.67L130.41 497.31L175.71 478.75L177.48 487.08L132.05 506.31L131.09 501.95L99.99 497.03L98.63 487.08L129.73 492.67Z" id="aQ7qZdNqa"></path><path d="M134.1 516.13L134.78 522L181.16 502.49L183.25 510.54L136.69 532.23L135.19 524.32L101.9 517.23L101.35 509.59L134.1 516.13Z" id="g3rjAlbO8e"></path></defs><g><g><g><use xlink:href="#c20EP1AYpU" opacity="1" fill="#7e7e7e" fill-opacity="1"></use></g><g><use xlink:href="#hdqqCeEcD" opacity="1" fill="#882c1d" fill-opacity="1"></use></g><g><use xlink:href="#akDO6Xugp" opacity="1" fill="#7e7e7e" fill-opacity="1"></use></g><g><use xlink:href="#aQ7qZdNqa" opacity="1" fill="#e5c04d" fill-opacity="1"></use></g><g><use xlink:href="#g3rjAlbO8e" opacity="1" fill="#e5c04d" fill-opacity="1"></use></g></g></g></svg>