<?xml version="1.0" encoding="UTF-8" standalone="no"?>
<!DOCTYPE svg PUBLIC "-//W3C//DTD SVG 1.1//EN" "http://www.w3.org/Graphics/SVG/1.1/DTD/svg11.dtd">
<svg version="1.1" xmlns="http://www.w3.org/2000/svg" xmlns:xlink="http://www.w3.org/1999/xlink" preserveAspectRatio="xMidYMid meet" viewBox="66.02267456179567 215.5999999999999 314.40000000000026 628.8" width="314.4" height="628.8"><defs><path d="M66.02 215.6L380.42 215.6L380.42 844.4L66.02 844.4L66.02 215.6Z" id="a18zGTyPrh"></path><path d="M158.72 775.01L66.02 797.61L66.02 791.64L178.88 715.14L223 580.39L184.8 555.2L169.99 521.53L184.8 510.62L177.27 506.21L188.18 495.56L174.41 475.3L172.85 466.73L188.69 451.4L198.31 448.81L212.59 455.3L208.18 401.25L218.31 374.23L231.03 365.92L220.12 353.2L221.94 349.82L175.45 343.59L87.4 310.34L72.33 295.53L68.95 276.05L82.2 258.39L127.14 237.61L170.77 233.46L225.11 248.29L254.98 270.1L254.2 273.22L265.37 283.61L292.12 292.96L347.71 292.96L353.94 289.07L380.42 287.51L380.2 633.87L306.54 479.95L286.02 480.99L301.84 534.86L284.18 552.78L297.94 568.36L298.72 582.39L323.4 613.56L327.03 652L235.59 802.95L204.74 831.13L128.29 844.4L90.28 844.4L157.23 782.3L158.72 775.01Z" id="aa8Ks8zHh"></path><path d="M343.61 422.05L350.83 428.5L322.92 429.31L302.04 436.54L345.81 433.52L362.48 438.34L368.5 443.36L361.88 447.18L329.75 439.75L289.19 451.8L354.85 449.99L359.47 454.41L354.85 458.82L314.69 463.44L280.55 464.05L274.13 470.07L276.94 474.49L313.89 482.12L354.05 477.9L356.86 480.91L354.85 483.52L323.73 488.34L291.2 485.53L254.45 476.9L235.9 482.12L196.62 478.7L188.69 466.73L199.86 448.81L235.9 440.48L315.71 422.05L343.61 422.05Z" id="h2EPOklYir"></path></defs><g><g><g><use xlink:href="#a18zGTyPrh" opacity="1" fill="#7e7e7e" fill-opacity="1"></use></g><g><use xlink:href="#aa8Ks8zHh" opacity="1" fill="#151515" fill-opacity="1"></use></g><g><use xlink:href="#h2EPOklYir" opacity="1" fill="#c8c0b2" fill-opacity="1"></use></g></g></g></svg>