<?xml version="1.0" encoding="UTF-8" standalone="no"?>
<!DOCTYPE svg PUBLIC "-//W3C//DTD SVG 1.1//EN" "http://www.w3.org/Graphics/SVG/1.1/DTD/svg11.dtd">
<svg version="1.1" xmlns="http://www.w3.org/2000/svg" xmlns:xlink="http://www.w3.org/1999/xlink" preserveAspectRatio="xMidYMid meet" viewBox="328.5124304668044 124.70723282686049 261.9999999999999 262" width="262" height="262"><defs><path d="M328.51 124.71L590.51 124.71L590.51 386.71L328.51 386.71L328.51 124.71Z" id="a2A14Ozxy"></path><path d="M359.2 125.16L422.6 125.27L424.47 386.14L361.73 385.92L359.2 125.16Z" id="h1GbUH0d6c"></path><path d="M361.83 351.27L424.16 344.99L424.16 366.13L361.83 366.13L361.83 351.27Z" id="b1YmSJ4zpL"></path><path d="M422.57 159.7L477.66 160.19L481.81 386.19L424.34 386.06L422.57 159.7Z" id="d2cXhCjvrS"></path><path d="M558.14 159.62L589.76 159.87L589.76 386.14L558.17 386.03L558.14 159.62Z" id="b4TPVP9pkP"></path><path d="M494.13 159.07L558.08 159.34L558.08 386.17L495.75 386.17L494.13 159.07Z" id="dLfos6NWp"></path><path d="M495.62 353.78L558.22 353.78L558.22 370.36L495.79 367.65L495.62 353.78Z" id="f4iabpSpzB"></path></defs><g><g><g><use xlink:href="#a2A14Ozxy" opacity="1" fill="#9b7647" fill-opacity="1"></use></g><g><use xlink:href="#h1GbUH0d6c" opacity="1" fill="#4a6f84" fill-opacity="1"></use></g><g><use xlink:href="#b1YmSJ4zpL" opacity="1" fill="#419ccf" fill-opacity="1"></use></g><g><use xlink:href="#d2cXhCjvrS" opacity="1" fill="#bc3b6e" fill-opacity="1"></use></g><g><use xlink:href="#b4TPVP9pkP" opacity="1" fill="#479f4e" fill-opacity="1"></use></g><g><use xlink:href="#dLfos6NWp" opacity="1" fill="#e3c47f" fill-opacity="1"></use></g><g><use xlink:href="#f4iabpSpzB" opacity="1" fill="#969b99" fill-opacity="1"></use></g></g></g></svg>