<?xml version="1.0" encoding="UTF-8" standalone="no"?>
<!DOCTYPE svg PUBLIC "-//W3C//DTD SVG 1.1//EN" "http://www.w3.org/Graphics/SVG/1.1/DTD/svg11.dtd">
<svg version="1.1" xmlns="http://www.w3.org/2000/svg" xmlns:xlink="http://www.w3.org/1999/xlink" preserveAspectRatio="xMidYMid meet" viewBox="24.27319853873132 128.92963726994049 262 262" width="262" height="262"><defs><path d="M24.27 128.93L286.27 128.93L286.27 390.93L24.27 390.93L24.27 128.93Z" id="c4bDSf5knP"></path><path d="M24.73 129.33L55.49 129.33L59.34 390.58L24.73 390.28L24.73 129.33Z" id="ecr7QqswC"></path><path d="M55.54 129.38L118.68 129.38L121.33 390.45L59.32 390.58L55.54 129.38Z" id="ehaazrVIg"></path><path d="M58.85 355.68L121.02 348.87L121.15 369.8L59.23 369.8L58.85 355.68Z" id="c11ncmItx9"></path><path d="M118.84 166.22L173.61 166.22L177.89 390.48L121.28 390.61L118.84 166.22Z" id="b11vwqXKKI"></path><path d="M173.66 166.36L189.04 165.86L192.56 390.37L177.89 390.45L173.66 166.36Z" id="aRvXSje6"></path><path d="M189.12 165.88L252.48 165.33L253.17 390.46L192.51 390.39L189.12 165.88Z" id="gyntCSSVJ"></path><path d="M192.12 358.45L253.05 357.59L253.24 374.02L192.31 371.92L192.12 358.45Z" id="b7cC9eMSH0"></path><path d="M252.4 165.32L285.82 164.74L285.74 390.6L253.22 390.6L252.4 165.32Z" id="a5FsfUM4C"></path></defs><g><g><g><use xlink:href="#c4bDSf5knP" opacity="1" fill="#9b7647" fill-opacity="1"></use></g><g><use xlink:href="#ecr7QqswC" opacity="1" fill="#da8800" fill-opacity="1"></use></g><g><use xlink:href="#ehaazrVIg" opacity="1" fill="#55b9cc" fill-opacity="1"></use></g><g><use xlink:href="#c11ncmItx9" opacity="1" fill="#88e9d3" fill-opacity="1"></use></g><g><use xlink:href="#b11vwqXKKI" opacity="1" fill="#c63876" fill-opacity="1"></use></g><g><use xlink:href="#aRvXSje6" opacity="1" fill="#92459b" fill-opacity="1"></use></g><g><use xlink:href="#gyntCSSVJ" opacity="1" fill="#e7b922" fill-opacity="1"></use></g><g><use xlink:href="#b7cC9eMSH0" opacity="1" fill="#a4a4a4" fill-opacity="1"></use></g><g><use xlink:href="#a5FsfUM4C" opacity="1" fill="#6e9641" fill-opacity="1"></use></g></g></g></svg>