<?xml version="1.0" encoding="UTF-8" standalone="no"?>
<!DOCTYPE svg PUBLIC "-//W3C//DTD SVG 1.1//EN" "http://www.w3.org/Graphics/SVG/1.1/DTD/svg11.dtd">
<svg version="1.1" xmlns="http://www.w3.org/2000/svg" xmlns:xlink="http://www.w3.org/1999/xlink" preserveAspectRatio="xMidYMid meet" viewBox="11.883133806943079 11.490906818099631 262 262.02556152811684" width="262" height="262.03"><defs><path d="M11.88 11.52L273.88 11.52L273.88 273.52L11.88 273.52L11.88 11.52Z" id="f3FsP7i0Ac"></path><path d="M54.75 149.65L47.18 189.75L63.36 208.53L63.67 257.93L50.29 272.97L32.45 272.87L19.66 257.18L19.38 210.74L35.05 189.38L24.51 149.49L54.75 149.65Z" id="bD7OBBAVf"></path><path d="M232.16 42.48L273.35 42.15L273.35 273.1L239.51 273.1L232.16 42.48Z" id="kdJbaAqHq"></path><path d="M238.03 226.47L273.34 222.3L273.34 241.93L238.25 243.46L238.03 226.47Z" id="aXnLa8Ox6"></path><path d="M174.74 11.49L231.38 11.57L239.49 272.59L185.56 272.66L174.74 11.49Z" id="c85Ft9vN8S"></path><path d="M175.65 36.06L232.16 35.22L232.69 54.29L176.49 53.38L175.65 36.06Z" id="b2TDoLdNAL"></path><path d="M12.29 81.13L42.41 54.4L184.33 242.85L184.57 248.9L155.24 272.73L12.29 81.13Z" id="a3856YjNL3"></path><path d="M42.41 54.49L122.38 11.86L177.17 70.29L184.35 243.09L42.41 54.49Z" id="b18ashZQWz"></path></defs><g><g><g><use xlink:href="#f3FsP7i0Ac" opacity="1" fill="#9b7647" fill-opacity="1"></use></g><g><use xlink:href="#bD7OBBAVf" opacity="1" fill="#8dbb8d" fill-opacity="1"></use></g><g><use xlink:href="#kdJbaAqHq" opacity="1" fill="#f39f27" fill-opacity="1"></use></g><g><use xlink:href="#aXnLa8Ox6" opacity="1" fill="#f2cdb2" fill-opacity="1"></use></g><g><use xlink:href="#c85Ft9vN8S" opacity="1" fill="#2d778a" fill-opacity="1"></use></g><g><use xlink:href="#b2TDoLdNAL" opacity="1" fill="#8ac5d4" fill-opacity="1"></use></g><g><use xlink:href="#a3856YjNL3" opacity="1" fill="#c89919" fill-opacity="1"></use></g><g><use xlink:href="#b18ashZQWz" opacity="1" fill="#efc961" fill-opacity="1"></use></g></g></g></svg>