<?xml version="1.0" encoding="UTF-8" standalone="no"?>
<!DOCTYPE svg PUBLIC "-//W3C//DTD SVG 1.1//EN" "http://www.w3.org/Graphics/SVG/1.1/DTD/svg11.dtd">
<svg version="1.1" xmlns="http://www.w3.org/2000/svg" xmlns:xlink="http://www.w3.org/1999/xlink" preserveAspectRatio="xMidYMid meet" viewBox="25.676036341725535 20.040738436061474 262 262" width="262" height="262"><defs><path d="M25.68 20.04L287.68 20.04L287.68 282.04L25.68 282.04L25.68 20.04Z" id="bsYr52qMZ"></path><path d="M26.06 56.48L93.31 55.13L93.31 165.48L26.13 194.88L26.06 56.48Z" id="adlCPtZWA"></path><path d="M26.18 194.59L93.19 165.52L93.12 281.61L26.27 281.67L26.18 194.59Z" id="c4rv0LxHc4"></path><path d="M93.61 40.42L157.24 40.54L156.77 281.53L93.27 281.53L93.61 40.42Z" id="guv3XXfPC"></path><path d="M199.69 234.08L198.54 231.78L207.36 215.92L218.87 212.85L219.25 236.13L219.07 268.32L203.78 266.43L200.71 260.55L157.11 267.59L156.85 232.67L199.69 234.08Z" id="f3BtSYvjj"></path><path d="M259.24 281.98L260.17 171.73L219.25 171.86L219.01 282.03L259.24 281.98Z" id="a2vheNtU0c"></path><path d="M207.26 215.87L200.92 227.44L219.13 236.02L233.7 246.76L242.14 246.76L246.49 243.69L247.26 236.78L229.23 218.63L213.8 214.16L207.26 215.87Z" id="a3UpS06od"></path><path d="M231.02 235.51L231.15 239.09L236.01 244.46L242.53 242.54L244.83 237.3L240.1 232.18L234.73 232.18L231.02 235.51Z" id="c68lszCu3"></path><path d="M259.78 226.39L273.64 216.24L271.07 214.27L259.75 216.49L259.78 226.39Z" id="aFSoQWgUT"></path><path d="M259.72 226.43L259.62 234.34L263.53 236.9L276.44 233.06L279.38 229.1L276.18 216.82L273.63 216.18L259.72 226.43Z" id="e9GPcSLqz"></path><path d="M271.45 233.7L272.35 227.56L269.79 225.14L263.65 227.31L262.37 231.4L264.55 236L271.45 233.7Z" id="b1wV0U7Z0"></path><path d="M262.23 252.91L259.44 255.76L259.46 262.67L261.25 265.55L275.37 262.91L276.93 258.89L277.23 252.91L262.23 252.91Z" id="jEl9D1aan"></path><path d="M265.57 237.03L259.51 241.34L259.56 247.9L262.83 250.77L279.67 249.24L281.43 246.49L281.94 237.54L265.57 237.03Z" id="drSw9iT44"></path><path d="M259.31 280.62L266.05 277.61L267.03 272.42L263.21 267.81L259.43 267.02L259.31 280.62Z" id="a2kiP8uxOX"></path><path d="M259.31 275.45L263.41 272.42L263.21 268.49L261.84 268L261.93 271.34L259.43 273.7L259.31 275.45Z" id="b41cQhjVy"></path><path d="M262.82 250.75L259.57 247.89L259.42 255.74L262.42 252.91L277.26 252.9L273.41 249.77L262.82 250.75Z" id="a4TMnL6MxA"></path><path d="M263.78 236.77L259.62 234.46L259.58 241.29L265.7 237.28L281.75 237.54L276.48 233.02L263.78 236.77Z" id="h1wxc8Q4B"></path><path d="M267.52 262.71L262.62 263.4L260.66 257.71L263.11 254.87L266.74 254.77L269.29 257.71L267.52 262.71Z" id="bIOoKbFa1"></path><path d="M264.39 250.45L263.7 242.22L265.95 239.87L271.84 239.77L272.92 242.91L271.54 249.28L264.39 250.45Z" id="b2hrj4DXzV"></path><path d="M244.23 171.74L248.65 162.1L241.73 150.88L238.3 150.95L231.44 162.38L236.44 171.81L244.23 171.74Z" id="g5AefbswUs"></path></defs><g><g><g><use xlink:href="#bsYr52qMZ" opacity="1" fill="#9b7647" fill-opacity="1"></use></g><g><use xlink:href="#adlCPtZWA" opacity="1" fill="#42a294" fill-opacity="1"></use></g><g><use xlink:href="#c4rv0LxHc4" opacity="1" fill="#33cb98" fill-opacity="1"></use></g><g><use xlink:href="#guv3XXfPC" opacity="1" fill="#cb7733" fill-opacity="1"></use></g><g><use xlink:href="#f3BtSYvjj" opacity="1" fill="#d0b485" fill-opacity="1"></use></g><g><use xlink:href="#a2vheNtU0c" opacity="1" fill="#333333" fill-opacity="1"></use></g><g><use xlink:href="#a3UpS06od" opacity="1" fill="#f2dcc5" fill-opacity="1"></use></g><g><use xlink:href="#c68lszCu3" opacity="1" fill="#d0b485" fill-opacity="1"></use></g><g><use xlink:href="#aFSoQWgUT" opacity="1" fill="#d0b485" fill-opacity="1"></use></g><g><use xlink:href="#e9GPcSLqz" opacity="1" fill="#f2dcc5" fill-opacity="1"></use></g><g><use xlink:href="#b1wV0U7Z0" opacity="1" fill="#d0b485" fill-opacity="1"></use></g><g><use xlink:href="#jEl9D1aan" opacity="1" fill="#f2dcc5" fill-opacity="1"></use></g><g><use xlink:href="#drSw9iT44" opacity="1" fill="#f2dcc5" fill-opacity="1"></use></g><g><use xlink:href="#a2kiP8uxOX" opacity="1" fill="#f2dcc5" fill-opacity="1"></use></g><g><use xlink:href="#b41cQhjVy" opacity="1" fill="#d0b485" fill-opacity="1"></use></g><g><use xlink:href="#a4TMnL6MxA" opacity="1" fill="#d0b485" fill-opacity="1"></use></g><g><use xlink:href="#h1wxc8Q4B" opacity="1" fill="#d0b485" fill-opacity="1"></use></g><g><use xlink:href="#bIOoKbFa1" opacity="1" fill="#d0b485" fill-opacity="1"></use></g><g><use xlink:href="#b2hrj4DXzV" opacity="1" fill="#d0b485" fill-opacity="1"></use></g><g><use xlink:href="#g5AefbswUs" opacity="1" fill="#e43613" fill-opacity="1"></use></g></g></g></svg>