<?xml version="1.0" encoding="UTF-8" standalone="no"?>
<!DOCTYPE svg PUBLIC "-//W3C//DTD SVG 1.1//EN" "http://www.w3.org/Graphics/SVG/1.1/DTD/svg11.dtd">
<svg version="1.1" xmlns="http://www.w3.org/2000/svg" xmlns:xlink="http://www.w3.org/1999/xlink" preserveAspectRatio="xMidYMid meet" viewBox="333.9013743035823 21.376581578240803 262.0073059758537 262.0660745567021" width="262.01" height="262.07"><defs><path d="M333.9 21.38L595.9 21.38L595.9 283.38L333.9 283.38L333.9 21.38Z" id="a2bjC2v1d9"></path><path d="M333.94 21.52L399.96 21.44L400.25 283.44L334.03 283.27L333.94 21.52Z" id="cL8cqFSrT"></path><path d="M334.38 204.21L400.15 204.21L400.19 219.24L334.43 219.24L334.38 204.21Z" id="a15eQnNOW5"></path><path d="M334.44 248.12L400.18 248.16L400.18 257.75L334.4 257.79L334.44 248.12Z" id="d11uZezi8h"></path><path d="M400.15 72.11L465.45 72.45L465.87 108.13L399.98 109.14L400.15 72.11Z" id="f79xpJtwe"></path><path d="M400.32 108.93L465.82 108.01L465.77 283.3L400.13 283.3L400.32 108.93Z" id="b3zNSWaCsI"></path><path d="M475.25 131.3L537.65 113.18L595.91 131.3L595.91 283.37L475.32 283.44L475.25 131.3Z" id="c28EBguJmp"></path><path d="M490.6 142.87L579.18 142.87L579.18 263.66L490.6 263.66L490.6 142.87Z" id="f4oACjH8sK"></path></defs><g><g><g><use xlink:href="#a2bjC2v1d9" opacity="1" fill="#9b7647" fill-opacity="1"></use></g><g><use xlink:href="#cL8cqFSrT" opacity="1" fill="#3d1ced" fill-opacity="1"></use></g><g><use xlink:href="#a15eQnNOW5" opacity="1" fill="#c7469b" fill-opacity="1"></use></g><g><use xlink:href="#d11uZezi8h" opacity="1" fill="#c7469b" fill-opacity="1"></use></g><g><use xlink:href="#f79xpJtwe" opacity="1" fill="#484848" fill-opacity="1"></use></g><g><use xlink:href="#b3zNSWaCsI" opacity="1" fill="#959595" fill-opacity="1"></use></g><g><use xlink:href="#c28EBguJmp" opacity="1" fill="#e4bd98" fill-opacity="1"></use></g><g><use xlink:href="#f4oACjH8sK" opacity="1" fill="#90ffa0" fill-opacity="1"></use></g></g></g></svg>