<?xml version="1.0" encoding="UTF-8" standalone="no"?>
<!DOCTYPE svg PUBLIC "-//W3C//DTD SVG 1.1//EN" "http://www.w3.org/Graphics/SVG/1.1/DTD/svg11.dtd">
<svg version="1.1" xmlns="http://www.w3.org/2000/svg" xmlns:xlink="http://www.w3.org/1999/xlink" preserveAspectRatio="xMidYMid meet" viewBox="24.564205140344626 28.406391634014426 262.01812230870985 262.0459467758543" width="262.02" height="262.05"><defs><path d="M24.58 28.41L286.58 28.41L286.58 290.41L24.58 290.41L24.58 28.41Z" id="gbhGtYEdDK"></path><path d="M24.62 28.45L90.2 28.45L90.49 290.3L24.56 290.35L24.62 28.45Z" id="be7Y6sCOl"></path><path d="M24.62 210.78L90.39 210.78L90.43 225.8L24.67 225.8L24.62 210.78Z" id="aefSkpcDV"></path><path d="M24.68 254.69L90.42 254.73L90.42 264.32L24.64 264.36L24.68 254.69Z" id="ghm5JgOMD"></path><path d="M90.39 78.68L155.69 79.02L156.11 114.7L90.22 115.7L90.39 78.68Z" id="abuIc7OTP"></path><path d="M90.56 115.49L156.06 114.57L156.01 290.45L90.37 290.38L90.56 115.49Z" id="bTmrjP6kV"></path><path d="M240.3 50.75L286.49 50.82L286.56 290.43L240.23 290.43L240.3 50.75Z" id="d1BAbzSHnT"></path><path d="M240.34 92.9L286.42 92.9L286.49 104.29L240.48 104.57L240.34 92.9Z" id="d2sWGS8Qte"></path><path d="M156.34 166.82L187 153.61L188.06 174.42L171.57 180.86L156.34 166.82Z" id="c15kdi7JI5"></path><path d="M163.79 183.58L194.34 171L237.28 273.24L232.4 290.38L218.09 290.42L206.28 285.48L163.79 183.58Z" id="a1YzDsj5E"></path></defs><g><g><g><use xlink:href="#gbhGtYEdDK" opacity="1" fill="#9b7647" fill-opacity="1"></use></g><g><use xlink:href="#be7Y6sCOl" opacity="1" fill="#3d1ced" fill-opacity="1"></use></g><g><use xlink:href="#aefSkpcDV" opacity="1" fill="#c7469b" fill-opacity="1"></use></g><g><use xlink:href="#ghm5JgOMD" opacity="1" fill="#c7469b" fill-opacity="1"></use></g><g><use xlink:href="#abuIc7OTP" opacity="1" fill="#484848" fill-opacity="1"></use></g><g><use xlink:href="#bTmrjP6kV" opacity="1" fill="#959595" fill-opacity="1"></use></g><g><use xlink:href="#d1BAbzSHnT" opacity="1" fill="#9f9381" fill-opacity="1"></use></g><g><use xlink:href="#d2sWGS8Qte" opacity="1" fill="#cbb886" fill-opacity="1"></use></g><g><use xlink:href="#c15kdi7JI5" opacity="1" fill="#d1cd7f" fill-opacity="1"></use></g><g><use xlink:href="#a1YzDsj5E" opacity="1" fill="#1bc0e1" fill-opacity="1"></use></g></g></g></svg>