<?xml version="1.0" encoding="UTF-8" standalone="no"?>
<!DOCTYPE svg PUBLIC "-//W3C//DTD SVG 1.1//EN" "http://www.w3.org/Graphics/SVG/1.1/DTD/svg11.dtd">
<svg version="1.1" xmlns="http://www.w3.org/2000/svg" xmlns:xlink="http://www.w3.org/1999/xlink" preserveAspectRatio="xMidYMid meet" viewBox="171.55555481629446 332.01440868787677 262.19742957078734 262.0334098975168" width="262.2" height="262.03"><defs><path d="M171.57 332.01L433.57 332.01L433.57 594.01L171.57 594.01L171.57 332.01Z" id="b5GNpo669F"></path><path d="M171.61 332.06L237.19 332.06L237.48 593.91L171.56 594.05L171.61 332.06Z" id="b1km88jqPn"></path><path d="M171.61 514.39L237.38 514.39L237.42 529.41L171.66 529.41L171.61 514.39Z" id="d9fYPo5YUG"></path><path d="M171.67 558.3L237.41 558.34L237.41 567.93L171.63 567.97L171.67 558.3Z" id="azbrTCNAy"></path><path d="M237.38 382.29L302.68 382.62L303.1 418.31L237.21 419.31L237.38 382.29Z" id="c1f7wq5hmE"></path><path d="M237.56 419.1L303.06 418.18L303 593.97L237.36 593.99L237.56 419.1Z" id="dCl2gTHd3"></path><path d="M387.29 354.36L433.48 354.43L433.75 594.04L387.22 594.04L387.29 354.36Z" id="dVFBA0XPY"></path><path d="M387.33 396.51L433.41 396.51L433.48 407.9L387.47 408.18L387.33 396.51Z" id="g1CwblwwZg"></path><path d="M302.85 541.49L308.78 557.32L318.8 571.87L332.53 585.49L351.25 593.97L367.91 593.94L384.22 581.88L386.43 558.48L381.43 539.27L372.03 527.48L352.79 508.07L329.39 500.04L322.29 500.74L313.09 504.35L304.71 512.61L302.73 518.32L302.85 541.49Z" id="a5eMARODIA"></path><path d="M322.23 524.63L326.44 530.48L336.61 531.31L339.58 527.4L339.69 517.55L330.96 510.98L321 512.52L311.45 523.71L312.58 537.16L321.31 547.53L335.58 552.87L362.27 552.87L371.92 561.29L371.51 572.37L362.68 578.02L355.5 574.63L355.19 569.19L361.45 568.16L357.55 562.21L350.36 566.11L350.47 574.74L361.66 584.8L369.56 583.46L377.57 572.37L374.8 557.9L361.14 545.27L339.28 545.06L322.13 537.36L316.89 527.51L317.72 519.7L324.8 515.8L333.32 517.55L336.4 524.63L330.34 526.89L327.26 518.68L322.23 524.63Z" id="aa6FJkdQ5m"></path></defs><g><g><g><use xlink:href="#b5GNpo669F" opacity="1" fill="#9b7647" fill-opacity="1"></use></g><g><use xlink:href="#b1km88jqPn" opacity="1" fill="#3d1ced" fill-opacity="1"></use></g><g><use xlink:href="#d9fYPo5YUG" opacity="1" fill="#c7469b" fill-opacity="1"></use></g><g><use xlink:href="#azbrTCNAy" opacity="1" fill="#c7469b" fill-opacity="1"></use></g><g><use xlink:href="#c1f7wq5hmE" opacity="1" fill="#484848" fill-opacity="1"></use></g><g><use xlink:href="#dCl2gTHd3" opacity="1" fill="#959595" fill-opacity="1"></use></g><g><use xlink:href="#dVFBA0XPY" opacity="1" fill="#9f9381" fill-opacity="1"></use></g><g><use xlink:href="#g1CwblwwZg" opacity="1" fill="#cbb886" fill-opacity="1"></use></g><g><use xlink:href="#a5eMARODIA" opacity="1" fill="#fbf148" fill-opacity="1"></use></g><g><use xlink:href="#aa6FJkdQ5m" opacity="1" fill="#6fbd23" fill-opacity="1"></use></g></g></g></svg>