<?xml version="1.0" encoding="UTF-8" standalone="no"?>
<!DOCTYPE svg PUBLIC "-//W3C//DTD SVG 1.1//EN" "http://www.w3.org/Graphics/SVG/1.1/DTD/svg11.dtd">
<svg version="1.1" xmlns="http://www.w3.org/2000/svg" xmlns:xlink="http://www.w3.org/1999/xlink" preserveAspectRatio="xMidYMid meet" viewBox="335.2231020056406 83.41841905008869 261.9999999999999 262.06300224438536" width="262" height="262.06"><defs><path d="M335.22 83.42L597.22 83.42L597.22 345.42L335.22 345.42L335.22 83.42Z" id="a1HZCJfxOl"></path><path d="M335.37 107.52L382.88 107.52L386.36 345.31L335.37 345.31L335.37 107.52Z" id="a2Z6f1lPKH"></path><path d="M381.82 83.53L455.7 83.47L455.43 345.36L386.48 345.3L381.82 83.53Z" id="bKrkKOvl3"></path><path d="M382.48 116.63L455.59 114.43L455.59 132.61L382.68 133.41L382.48 116.63Z" id="agBpzcbIL"></path><path d="M455.65 222.94L597.16 222.94L597.16 244.1L455.65 244.1L455.65 222.94Z" id="d44afT2QG4"></path><path d="M462.72 244.01L591.46 244.01L573.37 345.34L483.16 345.48L462.72 244.01Z" id="c38GTm34"></path><path d="M551.75 171.4L548.96 139.33L523.63 113.51L484.65 116.3L472.64 142.45L496.49 179.3L467.87 153.31L465.4 122.39L480.54 105.12L528.23 103.97L560.8 135.55L558.99 186.04L523.96 222.88L513.27 222.72L551.75 171.4Z" id="c19LGs7Yl6"></path><path d="M497.31 149.53L487 164.77L482.18 157.15L497.31 149.53Z" id="b23fOADDti"></path><path d="M501.92 84.06L503.73 104.63L496 104.79L501.92 84.06Z" id="f2rcFYHTsz"></path><path d="M583.33 150.83L559.98 158.07L560.42 146.56L583.33 150.83Z" id="b4H85YTBn"></path><path d="M541.06 116.46L561.29 106.59L561.79 84.06L536.79 96.56L536.84 112.4L541.06 116.46Z" id="a1abqGEqv"></path><path d="M546.98 214.29L572.64 222.67L561.13 198.17L548.68 196.85L543.25 202.55L546.98 214.29Z" id="a6qQS3tcNb"></path></defs><g><g><g><use xlink:href="#a1HZCJfxOl" opacity="1" fill="#9b7647" fill-opacity="1"></use></g><g><use xlink:href="#a2Z6f1lPKH" opacity="1" fill="#a990ff" fill-opacity="1"></use></g><g><use xlink:href="#bKrkKOvl3" opacity="1" fill="#90ddff" fill-opacity="1"></use></g><g><use xlink:href="#agBpzcbIL" opacity="1" fill="#5f62e1" fill-opacity="1"></use></g><g><use xlink:href="#d44afT2QG4" opacity="1" fill="#eb7454" fill-opacity="1"></use></g><g><use xlink:href="#c38GTm34" opacity="1" fill="#d05b47" fill-opacity="1"></use></g><g><use xlink:href="#c19LGs7Yl6" opacity="1" fill="#42d137" fill-opacity="1"></use></g><g><use xlink:href="#b23fOADDti" opacity="1" fill="#9aed2e" fill-opacity="1"></use></g><g><use xlink:href="#f2rcFYHTsz" opacity="1" fill="#9aed2e" fill-opacity="1"></use></g><g><use xlink:href="#b4H85YTBn" opacity="1" fill="#9aed2e" fill-opacity="1"></use></g><g><use xlink:href="#a1abqGEqv" opacity="1" fill="#769548" fill-opacity="1"></use></g><g><use xlink:href="#a6qQS3tcNb" opacity="1" fill="#769548" fill-opacity="1"></use></g></g></g></svg>