<?xml version="1.0" encoding="UTF-8" standalone="no"?>
<!DOCTYPE svg PUBLIC "-//W3C//DTD SVG 1.1//EN" "http://www.w3.org/Graphics/SVG/1.1/DTD/svg11.dtd">
<svg version="1.1" xmlns="http://www.w3.org/2000/svg" xmlns:xlink="http://www.w3.org/1999/xlink" preserveAspectRatio="xMidYMid meet" viewBox="618.2877211485054 393.8421922670743 262.1436800250525 262" width="262.14" height="262"><defs><path d="M618.43 393.84L880.43 393.84L880.43 655.84L618.43 655.84L618.43 393.84Z" id="f2xUaGHdFN"></path><path d="M864.55 593.81L879.72 613.53L879.69 634.29L860.24 655.71L618.29 655.71L618.74 650.04L858.88 648.68L876.56 620.56L860.46 599.7L618.29 599.7L618.29 594.26L864.55 593.81Z" id="c9AtujYJ9"></path><path d="M859.1 648.68L876.79 620.79L860.4 599.47L859.1 648.68Z" id="aa6kbeKSv"></path><path d="M633.71 625.32L620.56 650.04L859.1 648.91L860.31 599.7L620.98 599.66L633.71 625.32Z" id="c2P7HRICJ1"></path><path d="M844.97 587.57L853.44 567.5L842.78 547.32L636.88 549.36L636.2 538.25L844.59 539.61L857.52 552.54L856.84 581.33L848.67 593.58L636.66 594.26L636.92 589.16L844.97 587.57Z" id="i29h9m0nr7"></path><path d="M837.68 587.78L844.82 587.59L853.52 567.71L842.8 547.33L837.3 547.44L837.68 587.78Z" id="b2qi95SLQz"></path><path d="M837.31 547.33L837.89 587.7L637.3 589.11L645.83 570.74L637.11 553.69L636.92 549.33L837.31 547.33Z" id="b4ZNtQG9kI"></path><path d="M814.96 533.61L815.71 518.84L811.55 507.48L640.9 507.29L640.9 499.52L816.28 499.33L824.61 520.17L821.02 539.3L640.9 538.16L641.09 534.56L814.96 533.61Z" id="a6ApPOYGS"></path><path d="M811.47 507.47L815.71 518.27L814.89 533.61L800.17 533.62L800.28 507.46L811.47 507.47Z" id="aQ4GqyhaV"></path><path d="M800.28 507.46L800.19 533.71L641.18 534.49L649.05 521.49L640.9 507.28L800.28 507.46Z" id="a8MP1qnDG"></path><path d="M651.28 472.61L810.66 472.38L810.42 498.77L651.04 499.24L651.28 472.61Z" id="b3KpaxySqn"></path><path d="M650.96 436.78L802.82 436.78L802.82 472.59L650.96 472.59L650.96 436.78Z" id="a1OQPVqyN2"></path><path d="M785.14 436.78L794.44 436.78L794.44 472.59L785.14 472.59L785.14 436.78Z" id="b3bXT6nG1O"></path><path d="M650.96 406.54L802.82 406.54L802.82 436.78L650.96 436.78L650.96 406.54Z" id="a2jCErOPnO"></path><path d="M670.72 406.66L749.56 406.66L749.56 462.01L709.79 498.75L670.72 462.01L670.72 406.66Z" id="a77weAJcZ"></path><path d="M670.79 439.45L707.57 406.63L694.91 406.69L670.76 428.52L670.79 439.45Z" id="c13q3UCDrk"></path><path d="M742.98 406.53L749.43 406.66L678.13 469.16L675.4 466.4L742.98 406.53Z" id="bsmDzExGk"></path><path d="M749.62 420.81L749.62 424.27L688.03 478.29L685.27 475.7L749.62 420.81Z" id="c4Slut4W6d"></path><path d="M749.59 448.29L749.7 461.92L709.96 498.89L703.31 492.84L749.59 448.29Z" id="a3wgSe7uKX"></path></defs><g><g><g><use xlink:href="#f2xUaGHdFN" opacity="1" fill="#9b7647" fill-opacity="1"></use></g><g><use xlink:href="#c9AtujYJ9" opacity="1" fill="#332e8f" fill-opacity="1"></use></g><g><use xlink:href="#aa6kbeKSv" opacity="1" fill="#3363ff" fill-opacity="1"></use></g><g><use xlink:href="#c2P7HRICJ1" opacity="1" fill="#e0d6a1" fill-opacity="1"></use></g><g><use xlink:href="#i29h9m0nr7" opacity="1" fill="#ff33d4" fill-opacity="1"></use></g><g><use xlink:href="#b2qi95SLQz" opacity="1" fill="#ec98f2" fill-opacity="1"></use></g><g><use xlink:href="#b4ZNtQG9kI" opacity="1" fill="#eae8ba" fill-opacity="1"></use></g><g><use xlink:href="#a6ApPOYGS" opacity="1" fill="#ff8615" fill-opacity="1"></use></g><g><use xlink:href="#aQ4GqyhaV" opacity="1" fill="#ffe700" fill-opacity="1"></use></g><g><use xlink:href="#a8MP1qnDG" opacity="1" fill="#ece8c5" fill-opacity="1"></use></g><g><use xlink:href="#b3KpaxySqn" opacity="1" fill="#a5c07d" fill-opacity="1"></use></g><g><use xlink:href="#a1OQPVqyN2" opacity="1" fill="#90acd7" fill-opacity="1"></use></g><g><use xlink:href="#b3bXT6nG1O" opacity="1" fill="#929292" fill-opacity="1"></use></g><g><use xlink:href="#a2jCErOPnO" opacity="1" fill="#cf9acf" fill-opacity="1"></use></g><g><use xlink:href="#a77weAJcZ" opacity="1" fill="#c00303" fill-opacity="1"></use></g><g><use xlink:href="#c13q3UCDrk" opacity="1" fill="#fce124" fill-opacity="1"></use></g><g><use xlink:href="#bsmDzExGk" opacity="1" fill="#fce124" fill-opacity="1"></use></g><g><use xlink:href="#c4Slut4W6d" opacity="1" fill="#fce124" fill-opacity="1"></use></g><g><use xlink:href="#a3wgSe7uKX" opacity="1" fill="#fce124" fill-opacity="1"></use></g></g></g></svg>