<?xml version="1.0" encoding="UTF-8" standalone="no"?>
<!DOCTYPE svg PUBLIC "-//W3C//DTD SVG 1.1//EN" "http://www.w3.org/Graphics/SVG/1.1/DTD/svg11.dtd">
<svg version="1.1" xmlns="http://www.w3.org/2000/svg" xmlns:xlink="http://www.w3.org/1999/xlink" preserveAspectRatio="xMidYMid meet" viewBox="33.90985681959569 220.28516520410247 261.99999999999994 262.0836491249345" width="262" height="262.08"><defs><path d="M33.91 220.37L295.91 220.37L295.91 482.37L33.91 482.37L33.91 220.37Z" id="b61H8a6xji"></path><path d="M280.71 420.43L295.88 440.15L295.86 460.91L276.4 482.33L34.45 482.33L34.91 476.66L275.04 475.3L292.73 447.18L276.63 426.32L34.45 426.32L34.45 420.88L280.71 420.43Z" id="j1KeNBt4E0"></path><path d="M275.27 475.3L292.96 447.41L276.57 426.09L275.27 475.3Z" id="c2GrWnHwQo"></path><path d="M49.87 451.94L36.72 476.66L275.27 475.53L276.47 426.32L37.14 426.28L49.87 451.94Z" id="b46Udpqwad"></path><path d="M261.13 414.19L269.6 394.12L258.94 373.94L53.05 375.98L52.37 364.87L260.76 366.23L273.68 379.16L273 407.95L264.84 420.2L52.82 420.88L53.08 415.78L261.13 414.19Z" id="cV7qB60z8"></path><path d="M253.85 414.4L260.98 414.21L269.68 394.33L258.96 373.95L253.47 374.06L253.85 414.4Z" id="a8Dv5wr2Y3"></path><path d="M253.48 373.95L254.05 414.32L53.47 415.73L61.99 397.36L53.28 380.31L53.09 375.95L253.48 373.95Z" id="a1bzyBD0tR"></path><path d="M231.12 360.23L231.88 345.46L227.71 334.1L57.07 333.91L57.07 326.14L232.45 325.95L240.78 346.79L237.18 365.92L57.07 364.78L57.26 361.18L231.12 360.23Z" id="c1GBpZeUgP"></path><path d="M227.63 334.09L231.88 344.89L231.05 360.23L216.34 360.24L216.45 334.08L227.63 334.09Z" id="aPdFejc5g"></path><path d="M216.45 334.08L216.35 360.33L57.35 361.11L65.21 348.11L57.07 333.9L216.45 334.08Z" id="a19ANnqtdU"></path><path d="M140.81 287.24L148.78 293.57L151.37 301.06L148.01 317.95L141.29 323.03L126.41 325.63L112.79 318.62L108.66 305.09L111.54 294.44L116.91 289.06L124.5 284.74L140.81 287.24Z" id="c5Y41BAGqk"></path><path d="M150.98 300.9L148.57 293.41L140.43 286.98L200.89 221.53L210.29 263.09L190.33 298.12L151.08 303.01L150.98 300.9Z" id="b1tazmcBG7"></path><path d="M124.21 258L157.03 220.29L167.22 258.2L140.33 287.18L124.97 284.78L124.21 258Z" id="a1sQVEGGDt"></path></defs><g><g><g><use xlink:href="#b61H8a6xji" opacity="1" fill="#9b7647" fill-opacity="1"></use></g><g><use xlink:href="#j1KeNBt4E0" opacity="1" fill="#332e8f" fill-opacity="1"></use></g><g><use xlink:href="#c2GrWnHwQo" opacity="1" fill="#3363ff" fill-opacity="1"></use></g><g><use xlink:href="#b46Udpqwad" opacity="1" fill="#e0d6a1" fill-opacity="1"></use></g><g><use xlink:href="#cV7qB60z8" opacity="1" fill="#ff33d4" fill-opacity="1"></use></g><g><use xlink:href="#a8Dv5wr2Y3" opacity="1" fill="#ec98f2" fill-opacity="1"></use></g><g><use xlink:href="#a1bzyBD0tR" opacity="1" fill="#eae8ba" fill-opacity="1"></use></g><g><use xlink:href="#c1GBpZeUgP" opacity="1" fill="#ff8615" fill-opacity="1"></use></g><g><use xlink:href="#aPdFejc5g" opacity="1" fill="#ffe700" fill-opacity="1"></use></g><g><use xlink:href="#a19ANnqtdU" opacity="1" fill="#ece8c5" fill-opacity="1"></use></g><g><use xlink:href="#c5Y41BAGqk" opacity="1" fill="#ffed19" fill-opacity="1"></use></g><g><use xlink:href="#b1tazmcBG7" opacity="1" fill="#e6e6e6" fill-opacity="1"></use></g><g><use xlink:href="#a1sQVEGGDt" opacity="1" fill="#b4b4b4" fill-opacity="1"></use></g></g></g></svg>