<?xml version="1.0" encoding="UTF-8" standalone="no"?>
<!DOCTYPE svg PUBLIC "-//W3C//DTD SVG 1.1//EN" "http://www.w3.org/Graphics/SVG/1.1/DTD/svg11.dtd">
<svg version="1.1" xmlns="http://www.w3.org/2000/svg" xmlns:xlink="http://www.w3.org/1999/xlink" preserveAspectRatio="xMidYMid meet" viewBox="329.99643468844835 110.6243597493642 261.99999999999994 262.16059170433726" width="262" height="262.16"><defs><path d="M330 110.62L592 110.62L592 372.62L330 372.62L330 110.62Z" id="b2QqjQ2Q8V"></path><path d="M330 148.43L353.07 148.5L352.19 372.33L330.01 372.24L330 148.43Z" id="a2fZdcWwA9"></path><path d="M353.22 148.76L360.93 148.64L360.93 372.59L352.16 372.78L353.22 148.76Z" id="h2HE0QWed"></path><path d="M370.93 148.29L393.71 148.42L395.05 372.33L371.27 372.23L370.93 148.29Z" id="a3xvOKCYZ6"></path><path d="M393.86 148.27L399.81 148.34L400.44 372.23L394.88 372.14L393.86 148.27Z" id="b4lAOwyQm3"></path><path d="M408.26 148.44L429.76 148.41L429.82 372.22L408.43 372.25L408.26 148.44Z" id="e18hUTnHu6"></path><path d="M429.79 148.51L437.88 148.39L438.09 372.09L430.02 372.19L429.79 148.51Z" id="bj8uclu5M"></path><path d="M443.58 153.41L466.79 151.41L485.87 366.74L462.41 372.23L443.58 153.41Z" id="a1hAI7jlDX"></path><path d="M439.31 153.7L443.66 153.55L462.35 372.13L457.12 372.1L439.31 153.7Z" id="a1mzdQhKI"></path><path d="M485.44 148.21L511.96 148.62L511.98 372.3L486.44 372.17L485.44 148.21Z" id="a2MFp5MUZK"></path><path d="M512.07 148.65L517.31 148.66L518.16 372.25L511.97 372.25L512.07 148.65Z" id="bjTlJcDNm"></path><path d="M526.25 148.29L552.8 148.06L551.7 372.19L526.22 372.23L526.25 148.29Z" id="bfPxbUrUt"></path><path d="M552.8 148.06L558.03 148.27L557.61 372.18L551.55 372.22L552.8 148.06Z" id="epDotOHgt"></path><path d="M563.52 148.32L584.26 148.34L584.17 372.34L562.87 372.13L563.52 148.32Z" id="b6B5hgbiQ"></path><path d="M584.26 148.46L591.77 148.42L591.97 372.2L584.15 372.25L584.26 148.46Z" id="a1XgfiI7RE"></path></defs><g><g><g><use xlink:href="#b2QqjQ2Q8V" opacity="1" fill="#9b7647" fill-opacity="1"></use></g><g><use xlink:href="#a2fZdcWwA9" opacity="1" fill="#29aab7" fill-opacity="1"></use></g><g><use xlink:href="#h2HE0QWed" opacity="1" fill="#e3441c" fill-opacity="1"></use></g><g><use xlink:href="#a3xvOKCYZ6" opacity="1" fill="#29aab7" fill-opacity="1"></use></g><g><use xlink:href="#b4lAOwyQm3" opacity="1" fill="#e38a1c" fill-opacity="1"></use></g><g><use xlink:href="#e18hUTnHu6" opacity="1" fill="#29aab7" fill-opacity="1"></use></g><g><use xlink:href="#bj8uclu5M" opacity="1" fill="#fff000" fill-opacity="1"></use></g><g><use xlink:href="#a1hAI7jlDX" opacity="1" fill="#29aab7" fill-opacity="1"></use></g><g><use xlink:href="#a1mzdQhKI" opacity="1" fill="#42db42" fill-opacity="1"></use></g><g><use xlink:href="#a2MFp5MUZK" opacity="1" fill="#29aab7" fill-opacity="1"></use></g><g><use xlink:href="#bjTlJcDNm" opacity="1" fill="#0072ff" fill-opacity="1"></use></g><g><use xlink:href="#bfPxbUrUt" opacity="1" fill="#29aab7" fill-opacity="1"></use></g><g><use xlink:href="#epDotOHgt" opacity="1" fill="#a500ff" fill-opacity="1"></use></g><g><use xlink:href="#b6B5hgbiQ" opacity="1" fill="#29aab7" fill-opacity="1"></use></g><g><use xlink:href="#a1XgfiI7RE" opacity="1" fill="#ff00e4" fill-opacity="1"></use></g></g></g></svg>