<?xml version="1.0" encoding="UTF-8" standalone="no"?>
<!DOCTYPE svg PUBLIC "-//W3C//DTD SVG 1.1//EN" "http://www.w3.org/Graphics/SVG/1.1/DTD/svg11.dtd">
<svg version="1.1" xmlns="http://www.w3.org/2000/svg" xmlns:xlink="http://www.w3.org/1999/xlink" preserveAspectRatio="xMidYMid meet" viewBox="188.12143468844835 178.74501801266933 262.18792302347583 262.1605917043373" width="262.19" height="262.16"><defs><path d="M188.12 178.75L450.12 178.75L450.12 440.75L188.12 440.75L188.12 178.75Z" id="b5LQnCQaYm"></path><path d="M188.12 217.49L214.54 217.68L213.53 440.88L188.13 440.78L188.12 217.49Z" id="b332ehORTA"></path><path d="M214.57 217.65L223.56 217.79L223.56 440.71L213.51 440.91L214.57 217.65Z" id="broqCw0fv"></path><path d="M234.2 217.74L259.82 217.86L261.93 440.74L235.18 440.78L234.2 217.74Z" id="d40hJXeYtd"></path><path d="M259.83 217.84L266.81 217.78L267.7 440.77L261.88 440.68L259.83 217.84Z" id="bn1U3ggxC"></path><path d="M276.16 217.63L300.75 217.85L300.68 440.77L276.07 440.79L276.16 217.63Z" id="anLzeg28"></path><path d="M300.66 217.83L309.78 217.83L309.47 440.76L300.63 440.73L300.66 217.83Z" id="h2yqpgFzfk"></path><path d="M315.57 222.91L341.67 220.7L362.36 436.24L336.98 440.46L315.57 222.91Z" id="a37UxVBhey"></path><path d="M310.35 223.09L315.45 222.84L336.91 440.46L329.44 440.64L310.35 223.09Z" id="e8pPpY7iKR"></path><path d="M362.56 217.93L392.28 217.91L392.31 440.73L363.99 440.71L362.56 217.93Z" id="c1SXh173cj"></path><path d="M392.29 217.94L398.17 217.84L399.34 440.68L392.4 440.79L392.29 217.94Z" id="gSirSY16O"></path><path d="M406.78 217.79L443.58 217.77L443.01 440.73L408.15 440.77L406.78 217.79Z" id="bvwhI12Qw"></path><path d="M443.58 217.67L449.99 217.77L450.31 440.61L442.98 440.66L443.58 217.67Z" id="h35d7bcZNi"></path></defs><g><g><g><use xlink:href="#b5LQnCQaYm" opacity="1" fill="#9b7647" fill-opacity="1"></use></g><g><use xlink:href="#b332ehORTA" opacity="1" fill="#29aab7" fill-opacity="1"></use></g><g><use xlink:href="#broqCw0fv" opacity="1" fill="#e3441c" fill-opacity="1"></use></g><g><use xlink:href="#d40hJXeYtd" opacity="1" fill="#29aab7" fill-opacity="1"></use></g><g><use xlink:href="#bn1U3ggxC" opacity="1" fill="#e38a1c" fill-opacity="1"></use></g><g><use xlink:href="#anLzeg28" opacity="1" fill="#29aab7" fill-opacity="1"></use></g><g><use xlink:href="#h2yqpgFzfk" opacity="1" fill="#fff000" fill-opacity="1"></use></g><g><use xlink:href="#a37UxVBhey" opacity="1" fill="#29aab7" fill-opacity="1"></use></g><g><use xlink:href="#e8pPpY7iKR" opacity="1" fill="#42db42" fill-opacity="1"></use></g><g><use xlink:href="#c1SXh173cj" opacity="1" fill="#29aab7" fill-opacity="1"></use></g><g><use xlink:href="#gSirSY16O" opacity="1" fill="#0072ff" fill-opacity="1"></use></g><g><use xlink:href="#bvwhI12Qw" opacity="1" fill="#29aab7" fill-opacity="1"></use></g><g><use xlink:href="#h35d7bcZNi" opacity="1" fill="#a500ff" fill-opacity="1"></use></g></g></g></svg>