<?xml version="1.0" encoding="UTF-8" standalone="no"?>
<!DOCTYPE svg PUBLIC "-//W3C//DTD SVG 1.1//EN" "http://www.w3.org/Graphics/SVG/1.1/DTD/svg11.dtd">
<svg version="1.1" xmlns="http://www.w3.org/2000/svg" xmlns:xlink="http://www.w3.org/1999/xlink" preserveAspectRatio="xMidYMid meet" viewBox="320.14637703099515 24.51177625442756 262.11040564280256 262.2852919663346" width="262.11" height="262.29"><defs><path d="M320.26 24.51L582.26 24.51L582.26 286.51L320.26 286.51L320.26 24.51Z" id="e1otzQzakU"></path><path d="M320.15 260.47L582.09 260.63L581.94 286.8L320.18 286.43L320.15 260.47Z" id="b4YXYkFvO"></path><path d="M564.77 260.54L572.61 260.59L572.61 286.69L564.12 286.73L564.77 260.54Z" id="i2hjDlWOL"></path><path d="M416.98 247.24L479.83 262.87L513.16 210.26L536.43 108.35L535.73 99.5L488.68 130.75L442.68 111.48L435.21 111.65L416.98 247.24Z" id="e72qmTBnkA"></path><path d="M445.14 183.54L473.44 159.06L437.68 111.84L418.4 111.84L374.48 166.18L355.28 259.98L383.91 235.59L382.52 260.59L420.19 260.59L435.64 286.63L438.94 270.66L454.74 286.11L451.62 268.58L462.03 273.44L465.85 286.11L472.97 276.22L481.13 285.77L482.35 271.53L486.69 274.65L489.98 285.94L496.41 269.79L481.48 260.94L425.05 246.18L445.14 183.54Z" id="b3CZkYC8ct"></path><path d="M541.63 149.85L542.33 185.78L523.23 223.98L500.14 194.12L514.55 142.21L535.9 104.19L541.63 149.85Z" id="boL8H6cgq"></path><path d="M488.11 131.22L536.03 99.27L525.09 43.2L544.53 31.04L520.57 28.96L508.07 38.86L482.9 32.09L467.45 38.68L453.39 30.18L435.16 30L449.91 45.28L440.89 62.47L438.28 92.5L443.14 111.43L488.11 131.22Z" id="a4nS2vI2g"></path><path d="M461.49 50.14L464.11 65.22L476.69 57.09L461.49 50.14Z" id="cJ75LpNIR"></path><path d="M465.94 52.11L467.39 63.25L469.09 62.07L470.92 54.6L465.94 52.11Z" id="e18eTC1j2t"></path><path d="M513.39 50.14L506.18 67.84L495.43 59.97L513.39 50.14Z" id="c7bWPZOoYC"></path><path d="M504.87 54.86L508.02 63.9L499.89 57.48L504.87 54.86Z" id="cPWPQnaDt"></path><path d="M489.01 78.71L496.22 69.02L487.57 64.43L478.79 69.93L489.01 78.71Z" id="f1CCtp6BQ3"></path></defs><g><g><g><use xlink:href="#e1otzQzakU" opacity="1" fill="#9b7647" fill-opacity="1"></use></g><g><use xlink:href="#b4YXYkFvO" opacity="1" fill="#b700ff" fill-opacity="1"></use></g><g><use xlink:href="#i2hjDlWOL" opacity="1" fill="#ffcc00" fill-opacity="1"></use></g><g><use xlink:href="#e72qmTBnkA" opacity="1" fill="#d6b083" fill-opacity="1"></use></g><g><use xlink:href="#b3CZkYC8ct" opacity="1" fill="#cc9866" fill-opacity="1"></use></g><g><use xlink:href="#boL8H6cgq" opacity="1" fill="#cc9866" fill-opacity="1"></use></g><g><use xlink:href="#a4nS2vI2g" opacity="1" fill="#e0c2a6" fill-opacity="1"></use></g><g><use xlink:href="#cJ75LpNIR" opacity="1" fill="#ffe112" fill-opacity="1"></use></g><g><use xlink:href="#e18eTC1j2t" opacity="1" fill="#4a4a4a" fill-opacity="1"></use></g><g><use xlink:href="#c7bWPZOoYC" opacity="1" fill="#ffe112" fill-opacity="1"></use></g><g><use xlink:href="#cPWPQnaDt" opacity="1" fill="#4a4a4a" fill-opacity="1"></use></g><g><use xlink:href="#f1CCtp6BQ3" opacity="1" fill="#4a4a4a" fill-opacity="1"></use></g></g></g></svg>