<?xml version="1.0" encoding="UTF-8" standalone="no"?>
<!DOCTYPE svg PUBLIC "-//W3C//DTD SVG 1.1//EN" "http://www.w3.org/Graphics/SVG/1.1/DTD/svg11.dtd">
<svg version="1.1" xmlns="http://www.w3.org/2000/svg" xmlns:xlink="http://www.w3.org/1999/xlink" preserveAspectRatio="xMidYMid meet" viewBox="23.861931763403845 332.20408394673507 262.0367102780202 262" width="262.04" height="262"><defs><path d="M23.9 332.2L285.9 332.2L285.9 594.2L23.9 594.2L23.9 332.2Z" id="d51zHel89"></path><path d="M24.34 542.11L285.87 543.8L285.72 594.12L23.86 594.14L24.34 542.11Z" id="b1NGrn2nvN"></path><path d="M47.69 542.03L83.95 542.42L84.11 594.18L47.86 594.01L47.69 542.03Z" id="b21kvCimuB"></path><path d="M143.49 542.51L160.64 557.81L160.3 570.92L156.27 560.83L122.82 548.57L103.49 566.21L103.66 576.97L95.76 566.55L114.25 542.68L143.49 542.51Z" id="a6NJsAQOUj"></path><path d="" id="c6CVpM1V0"></path><path d="M89.13 466.1L124.58 454.29L122.97 408.36L104.11 394.97L67.38 389.57L57.98 395.74L49.6 405.73L48.26 429.36L66.79 455.14L89.13 466.1Z" id="aeenJiaST"></path><path d="M57 417.87L67.83 419.3L70.69 428.7L60.68 428.9L57 417.87Z" id="f7XGK5NI8x"></path><path d="M101.54 417.26L97.45 428.9L87.44 428.7L92.75 418.89L101.54 417.26Z" id="igS5XP9aJ"></path><path d="M77.84 431.56L85.19 440.55L78.45 452.4L71.51 439.73L77.84 431.56Z" id="c4J9sShZdm"></path><path d="M58.1 382.08L69.95 375.95L101.21 375.95L126.34 396.38L149.55 440.81L217.17 479.42L230.24 490.05L251.69 516.81L240.46 522.33L259.87 534.99L221.25 541.73L162.42 525.19L143.83 542.08L113.8 542.29L107.05 523.29L65.38 472.21L66.81 455.26L95.61 460.36L118.9 443.61L117.27 407.25L91.73 395.4L79.07 407.04L66.4 395.4L49.24 405.82L58.1 382.08Z" id="a2sKAhSXH1"></path></defs><g><g><g><use xlink:href="#d51zHel89" opacity="1" fill="#9b7647" fill-opacity="1"></use></g><g><use xlink:href="#b1NGrn2nvN" opacity="1" fill="#b700ff" fill-opacity="1"></use></g><g><use xlink:href="#b21kvCimuB" opacity="1" fill="#ffcc00" fill-opacity="1"></use></g><g><use xlink:href="#a6NJsAQOUj" opacity="1" fill="#3f3f3f" fill-opacity="1"></use></g><g><g><use xlink:href="#c6CVpM1V0" opacity="1" fill-opacity="0" stroke="#ff0000" stroke-width="1" stroke-opacity="1"></use></g></g><g><use xlink:href="#aeenJiaST" opacity="1" fill="#f1f1f1" fill-opacity="1"></use></g><g><use xlink:href="#f7XGK5NI8x" opacity="1" fill="#535353" fill-opacity="1"></use></g><g><use xlink:href="#igS5XP9aJ" opacity="1" fill="#535353" fill-opacity="1"></use></g><g><use xlink:href="#c4J9sShZdm" opacity="1" fill="#535353" fill-opacity="1"></use></g><g><use xlink:href="#a2sKAhSXH1" opacity="1" fill="#d8d8d8" fill-opacity="1"></use></g></g></g></svg>