<?xml version="1.0" encoding="UTF-8" standalone="no"?>
<!DOCTYPE svg PUBLIC "-//W3C//DTD SVG 1.1//EN" "http://www.w3.org/Graphics/SVG/1.1/DTD/svg11.dtd">
<svg version="1.1" xmlns="http://www.w3.org/2000/svg" xmlns:xlink="http://www.w3.org/1999/xlink" preserveAspectRatio="xMidYMid meet" viewBox="340.27438193437825 39.90876788068772 262.12564900042054 262.12522363369226" width="262.13" height="262.13"><defs><path d="M340.28 39.91L602.28 39.91L602.28 301.91L340.28 301.91L340.28 39.91Z" id="biTR7SBF3"></path><path d="M340.3 105.33L396.18 105.98L397.77 301.9L340.27 301.94L340.3 105.33Z" id="ggXwjEz3M"></path><path d="M372.14 240.25L396.84 260.14L387.03 231.65L396.19 225.64L383.61 222.68L372.97 192.7L360.39 218.51L340.41 214.72L355.58 227.39L340.78 257.27L372.14 240.25Z" id="dcVwxO6P4"></path><path d="M564.1 87.56L602.19 90.03L602.4 301.84L564.54 301.98L564.1 87.56Z" id="j2OiGMnlCB"></path><path d="M564.36 270.06L602.27 267.69L602.29 278.05L564.35 281.73L564.36 270.06Z" id="aS3VPF2Uu"></path><path d="M564.2 112.36L602.36 111.76L602.3 130L564.24 129.06L564.2 112.36Z" id="cegSOIlYk"></path><path d="M488.39 151.56L454.96 163.33L410.58 194.08L410.31 288.2L421.29 301.89L491.56 302.03L504.96 287.39L507.64 159.32L488.39 151.56Z" id="e1icAKBoGa"></path><path d="M506.9 190.72L533.84 182.6L552.84 203.82L552.29 241.27L531.25 267.29L505.38 263.93L504.97 285.55L537.53 277.81L564.46 249.21L563.91 196.07L537.16 167.47L506.71 177.81L506.9 190.72Z" id="a1Q7dL0ZpZ"></path><path d="M507.4 148.22L493.93 135.12L458.87 135.3L406.47 149.7L396.51 162.06L397.06 167.96L405.74 190.1L410.9 194.16L440.24 190.47L458.69 171.28L470.87 170.91L484.52 159.47L507.58 159.66L507.4 148.22Z" id="cfUYp9aTd"></path></defs><g><g><g><use xlink:href="#biTR7SBF3" opacity="1" fill="#9b7647" fill-opacity="1"></use></g><g><use xlink:href="#ggXwjEz3M" opacity="1" fill="#9353b6" fill-opacity="1"></use></g><g><use xlink:href="#dcVwxO6P4" opacity="1" fill="#42b657" fill-opacity="1"></use></g><g><use xlink:href="#j2OiGMnlCB" opacity="1" fill="#fb9fb7" fill-opacity="1"></use></g><g><use xlink:href="#aS3VPF2Uu" opacity="1" fill="#44b8c9" fill-opacity="1"></use></g><g><use xlink:href="#cegSOIlYk" opacity="1" fill="#44b8c9" fill-opacity="1"></use></g><g><use xlink:href="#e1icAKBoGa" opacity="1" fill="#f2d046" fill-opacity="1"></use></g><g><use xlink:href="#a1Q7dL0ZpZ" opacity="1" fill="#ffffff" fill-opacity="1"></use></g><g><use xlink:href="#cfUYp9aTd" opacity="1" fill="#ffffff" fill-opacity="1"></use></g></g></g></svg>