<?xml version="1.0" encoding="UTF-8" standalone="no"?>
<!DOCTYPE svg PUBLIC "-//W3C//DTD SVG 1.1//EN" "http://www.w3.org/Graphics/SVG/1.1/DTD/svg11.dtd">
<svg version="1.1" xmlns="http://www.w3.org/2000/svg" xmlns:xlink="http://www.w3.org/1999/xlink" preserveAspectRatio="xMidYMid meet" viewBox="32.4695038855976 161.3721825148342 262.15629397330696 262.1109891188935" width="262.16" height="262.11"><defs><path d="M32.47 161.37L294.47 161.37L294.47 423.37L32.47 423.37L32.47 161.37Z" id="e1Yzquw0O"></path><path d="M32.5 226.79L88.37 227.45L89.96 423.36L32.47 423.4L32.5 226.79Z" id="b1uZnHbVaz"></path><path d="M64.33 361.72L89.03 381.6L79.22 353.11L88.38 347.1L75.8 344.14L65.16 314.17L52.58 339.98L32.6 336.18L47.77 348.86L32.97 378.74L64.33 361.72Z" id="b1V4fIPby"></path><path d="M88.43 256.11L137.17 256.05L137.17 280.33L88.77 281.22L88.43 256.11Z" id="b30QlVNW9O"></path><path d="M88.63 281.06L137.31 280.45L137.72 423.35L89.93 423.48L88.63 281.06Z" id="a4e9aUW86x"></path><path d="M136.64 181.5L196.8 180.51L195.23 423.41L137.63 423.33L136.64 181.5Z" id="a8vITuEZ5"></path><path d="M163.84 221.74L182.02 221.83L153.01 270.26L173.75 226.99L152.51 226.83L165.32 181.79L163.84 221.74Z" id="blaGl8z4q"></path><path d="M240.95 398.89L234.8 337.38L256.87 279.5L255.97 235.58L243.36 208.33L207.26 295.24L203.2 353.58L211.99 395.24L249.37 422.5L240.95 398.89Z" id="b3JwwFUIX"></path><path d="M256.2 209.75L294.43 212.09L294.5 423.24L256.64 423.38L256.2 209.75Z" id="b4IesWddWY"></path><path d="M256.63 392.12L294.63 390L294.48 400.69L256.7 404.2L256.63 392.12Z" id="c1fj6Q7b36"></path><path d="M256.23 234.58L294.47 233.74L294.49 252.47L256.26 251.28L256.23 234.58Z" id="b1fIKvZJ7e"></path></defs><g><g><g><use xlink:href="#e1Yzquw0O" opacity="1" fill="#9b7647" fill-opacity="1"></use></g><g><use xlink:href="#b1uZnHbVaz" opacity="1" fill="#9353b6" fill-opacity="1"></use></g><g><use xlink:href="#b1V4fIPby" opacity="1" fill="#42b657" fill-opacity="1"></use></g><g><use xlink:href="#b30QlVNW9O" opacity="1" fill="#f2ce18" fill-opacity="1"></use></g><g><use xlink:href="#a4e9aUW86x" opacity="1" fill="#d8bb26" fill-opacity="1"></use></g><g><use xlink:href="#a8vITuEZ5" opacity="1" fill="#79d0e0" fill-opacity="1"></use></g><g><use xlink:href="#blaGl8z4q" opacity="1" fill="#44b4c9" fill-opacity="1"></use></g><g><use xlink:href="#b3JwwFUIX" opacity="1" fill="#feff96" fill-opacity="1"></use></g><g><use xlink:href="#b4IesWddWY" opacity="1" fill="#fb9fb7" fill-opacity="1"></use></g><g><use xlink:href="#c1fj6Q7b36" opacity="1" fill="#44b8c9" fill-opacity="1"></use></g><g><use xlink:href="#b1fIKvZJ7e" opacity="1" fill="#44b8c9" fill-opacity="1"></use></g></g></g></svg>