<?xml version="1.0" encoding="UTF-8" standalone="no"?>
<!DOCTYPE svg PUBLIC "-//W3C//DTD SVG 1.1//EN" "http://www.w3.org/Graphics/SVG/1.1/DTD/svg11.dtd">
<svg version="1.1" xmlns="http://www.w3.org/2000/svg" xmlns:xlink="http://www.w3.org/1999/xlink" preserveAspectRatio="xMidYMid meet" viewBox="347.0927846825906 142.47534901125914 262.1623087499786 262" width="262.16" height="262"><defs><path d="M347.25 142.48L609.25 142.48L609.25 404.48L347.25 404.48L347.25 142.48Z" id="a1Yqtkjs1Q"></path><path d="M347.09 366.26L609.24 366.47L609.26 404.47L347.09 404.45L347.09 366.26Z" id="b4z4KC43nt"></path><path d="M358 330.33L594.58 328.7L594.3 366.55L358.11 366.32L358 330.33Z" id="b3bGmxi4ZM"></path><path d="M543.63 389.13L575.34 401.55L604.72 390.46L586.2 328.71L608.79 303.54L608.79 271.61L573.31 224.61L525.52 211.34L492.54 182.68L477.12 179.62L400.96 191.88L347.75 251.61L347.69 287.63L364.1 330.32L526.2 329.78L543.63 389.13Z" id="d1pTfciphO"></path><path d="M497.74 315.42L526.46 329.44L401.16 329.95L497.74 315.42Z" id="m8bYbKX4r"></path><path d="M530.97 262.84L608.58 282.16L608.92 303.69L588.58 325.83L533.36 285.83L362.66 326.65L350.87 295.2L530.97 262.84Z" id="a1jdc6mw95"></path><path d="M524.95 211.37L573.33 224.17L585.12 240.09L437.81 243.28L347.89 266.19L348.06 250.63L373.02 223.11L524.95 211.37Z" id="a4LltONbxo"></path></defs><g><g><g><use xlink:href="#a1Yqtkjs1Q" opacity="1" fill="#9b7647" fill-opacity="1"></use></g><g><use xlink:href="#b4z4KC43nt" opacity="1" fill="#415be0" fill-opacity="1"></use></g><g><use xlink:href="#b3bGmxi4ZM" opacity="1" fill="#4bbf4f" fill-opacity="1"></use></g><g><use xlink:href="#d1pTfciphO" opacity="1" fill="#cc66cc" fill-opacity="1"></use></g><g><use xlink:href="#m8bYbKX4r" opacity="1" fill="#cb99cc" fill-opacity="1"></use></g><g><use xlink:href="#a1jdc6mw95" opacity="1" fill="#cb99cc" fill-opacity="1"></use></g><g><use xlink:href="#a4LltONbxo" opacity="1" fill="#cb99cc" fill-opacity="1"></use></g></g></g></svg>