<?xml version="1.0" encoding="UTF-8" standalone="no"?>
<!DOCTYPE svg PUBLIC "-//W3C//DTD SVG 1.1//EN" "http://www.w3.org/Graphics/SVG/1.1/DTD/svg11.dtd">
<svg version="1.1" xmlns="http://www.w3.org/2000/svg" xmlns:xlink="http://www.w3.org/1999/xlink" preserveAspectRatio="xMidYMid meet" viewBox="339.6591536435329 65.78369478019135 262.3276519932544 262.15449035383176" width="262.33" height="262.15"><defs><path d="M339.81 65.85L601.81 65.85L601.81 327.85L339.81 327.85L339.81 65.85Z" id="aAACinaTY"></path><path d="M339.79 83.37L405.96 84.13L405.7 327.94L339.66 327.94L339.79 83.37Z" id="cst1STsFG"></path><path d="M517.25 65.78L601.99 65.78L601.78 313.79L516.2 314L517.25 65.78Z" id="a2GIobTFvK"></path><path d="M516 313.97L601.76 313.76L601.83 327.92L515.78 327.7L516 313.97Z" id="bJJEP2JMI"></path><path d="M517.18 97.92L601.68 98.02L601.96 117.89L517.18 118.3L517.18 97.92Z" id="j17bVcIlVd"></path><path d="M405.85 316.29L409.33 308.93L412.44 309.97L432.23 268.36L429.55 267.29L437.87 250.6L440.45 251.69L513.07 91.11L517.22 91.31L517.01 99.4L449.79 254.17L451.66 254.8L443.68 273.62L441.41 272.47L422.74 315.38L425.1 317.45L421.06 326.92L405.77 318.6L405.85 316.29Z" id="b1vF5bxUjw"></path></defs><g><g><g><use xlink:href="#aAACinaTY" opacity="1" fill="#9b7647" fill-opacity="1"></use></g><g><use xlink:href="#cst1STsFG" opacity="1" fill="#eca16c" fill-opacity="1"></use></g><g><use xlink:href="#a2GIobTFvK" opacity="1" fill="#99cccb" fill-opacity="1"></use></g><g><use xlink:href="#bJJEP2JMI" opacity="1" fill="#1de1de" fill-opacity="1"></use></g><g><use xlink:href="#j17bVcIlVd" opacity="1" fill="#1de1de" fill-opacity="1"></use></g><g><use xlink:href="#b1vF5bxUjw" opacity="1" fill="#d2bc9c" fill-opacity="1"></use></g></g></g></svg>