<?xml version="1.0" encoding="UTF-8" standalone="no"?>
<!DOCTYPE svg PUBLIC "-//W3C//DTD SVG 1.1//EN" "http://www.w3.org/Graphics/SVG/1.1/DTD/svg11.dtd">
<svg version="1.1" xmlns="http://www.w3.org/2000/svg" xmlns:xlink="http://www.w3.org/1999/xlink" preserveAspectRatio="xMidYMid meet" viewBox="351.5181834414722 343.30043665319226 262.3276519932545 262.1544903538319" width="262.33" height="262.15"><defs><path d="M351.67 343.37L613.67 343.37L613.67 605.37L351.67 605.37L351.67 343.37Z" id="a1pyk6VbI4"></path><path d="M351.65 360.89L417.82 361.65L417.56 605.45L351.52 605.45L351.65 360.89Z" id="a2OqDeg1gd"></path><path d="M529.11 343.3L613.85 343.3L613.64 591.31L528.06 591.52L529.11 343.3Z" id="dcf4wSbYs"></path><path d="M527.86 591.49L613.62 591.27L613.69 605.43L527.64 605.22L527.86 591.49Z" id="agf367WxM"></path><path d="M529.04 375.44L613.54 375.54L613.82 395.4L529.04 395.82L529.04 375.44Z" id="h1Cp5W93Q"></path><path d="M462.13 532.52L475.6 528.46L461.26 561.36L460.24 572.52L452.46 587.39L453.16 591.8L456 594.72L464.16 592.56L460.39 601.8L441.2 605.34L429.67 597.01L428.8 587.59L450.68 559.33L454.73 521.95L462.13 532.52Z" id="c1PjjPvUaZ"></path><path d="M525.65 349.77L529.13 348.46L529.13 356.09L470.93 529.98L462.18 532.49L458.96 527.87L525.65 349.77Z" id="a3RlYyyHK"></path></defs><g><g><g><use xlink:href="#a1pyk6VbI4" opacity="1" fill="#9b7647" fill-opacity="1"></use></g><g><use xlink:href="#a2OqDeg1gd" opacity="1" fill="#eca16c" fill-opacity="1"></use></g><g><use xlink:href="#dcf4wSbYs" opacity="1" fill="#99cccb" fill-opacity="1"></use></g><g><use xlink:href="#agf367WxM" opacity="1" fill="#1de1de" fill-opacity="1"></use></g><g><use xlink:href="#h1Cp5W93Q" opacity="1" fill="#1de1de" fill-opacity="1"></use></g><g><use xlink:href="#c1PjjPvUaZ" opacity="1" fill="#c9c07c" fill-opacity="1"></use></g><g><use xlink:href="#a3RlYyyHK" opacity="1" fill="#fff3f3" fill-opacity="1"></use></g></g></g></svg>