<?xml version="1.0" encoding="UTF-8" standalone="no"?>
<!DOCTYPE svg PUBLIC "-//W3C//DTD SVG 1.1//EN" "http://www.w3.org/Graphics/SVG/1.1/DTD/svg11.dtd">
<svg version="1.1" xmlns="http://www.w3.org/2000/svg" xmlns:xlink="http://www.w3.org/1999/xlink" preserveAspectRatio="xMidYMid meet" viewBox="327.3070390286726 28.785341663550867 261.99999999999994 262.0835989334995" width="262" height="262.08"><defs><path d="M327.31 28.87L589.31 28.87L589.31 290.87L327.31 290.87L327.31 28.87Z" id="a1iayHyrk3"></path><path d="M409.11 236.01L409.29 260.56L399.18 275L381.49 289.98L356.22 290.16L337.63 272.29L333.48 260.92L332.75 235.1L409.11 236.01Z" id="eWdbtgoaq"></path><path d="M409.03 236.08L384.16 204.82L381.91 139.19L352.53 139.32L353.16 204.4L332.66 235.03L409.03 236.08Z" id="b1iGJXt5ke"></path><path d="M408.59 45.53L425.1 50.71L425.08 290.85L409.03 290.81L408.59 45.53Z" id="c1dpHj1KKt"></path><path d="M425.01 28.84L425.1 50.82L408.58 45.5L408.58 28.79L425.01 28.84Z" id="a3dM6u2C76"></path><path d="M425.25 82.86L425.25 100.24L408.58 86.59L408.58 71.79L425.25 82.86Z" id="c89769ipuE"></path><path d="M425.13 120.42L425.18 135.05L408.72 143.33L408.58 127.66L425.13 120.42Z" id="a2WghXNEk"></path><path d="M503.32 290.58L480.75 277.71L572.24 146.2L588.42 158.52L503.32 290.58Z" id="b3NFkZYw2h"></path><path d="M572.39 146.11L561.79 143.4L475.37 272.54L480.75 277.71L572.39 146.11Z" id="d3mRnSlQQ"></path><path d="M561.94 143.43L503.55 125.56L430.86 228.5L475.33 272.74L561.94 143.43Z" id="b6mmsaBA42"></path><path d="M542.16 230.98L532.98 224.93L543.73 227.14L546.51 223.22L537.46 212.04L548.43 219.94L550.85 216.17L533.26 202.85L528.7 209.9L540.46 222.36L524.57 215.74L520.3 222.51L538.6 235.4L542.16 230.98Z" id="k33dlDXpHq"></path><path d="M528.4 251.03L513.38 240.92L516.65 236.15L512.45 233.08L503.9 246.05L508.11 248.97L511.45 244.74L526 254.77L528.4 251.03Z" id="a3grNBwEL"></path><path d="M559.43 203.25L551.67 196.84L552.45 195.63L563.2 197.41L565.13 193.63L554.66 192.92L558.15 187.93L552.66 183.73L546.89 183.73L539.49 194.2L556.94 207.02L559.43 203.25Z" id="dJ5OSmbgb"></path><path d="M552.16 189.15L548.6 195.41L545.47 192.71L549.53 187.08L552.16 189.15Z" id="d2Uv7Sc30n"></path></defs><g><g><g><use xlink:href="#a1iayHyrk3" opacity="1" fill="#9b7647" fill-opacity="1"></use></g><g><use xlink:href="#eWdbtgoaq" opacity="1" fill="#d161d5" fill-opacity="1"></use></g><g><use xlink:href="#b1iGJXt5ke" opacity="1" fill="#e99aec" fill-opacity="1"></use></g><g><use xlink:href="#c1dpHj1KKt" opacity="1" fill="#e9ed9b" fill-opacity="1"></use></g><g><use xlink:href="#a3dM6u2C76" opacity="1" fill="#dec08d" fill-opacity="1"></use></g><g><use xlink:href="#c89769ipuE" opacity="1" fill="#dec08d" fill-opacity="1"></use></g><g><use xlink:href="#a2WghXNEk" opacity="1" fill="#dec08d" fill-opacity="1"></use></g><g><use xlink:href="#b3NFkZYw2h" opacity="1" fill="#6e6e6e" fill-opacity="1"></use></g><g><use xlink:href="#d3mRnSlQQ" opacity="1" fill="#424242" fill-opacity="1"></use></g><g><use xlink:href="#b6mmsaBA42" opacity="1" fill="#6e6e6e" fill-opacity="1"></use></g><g><use xlink:href="#k33dlDXpHq" opacity="1" fill="#999999" fill-opacity="1"></use></g><g><use xlink:href="#a3grNBwEL" opacity="1" fill="#999999" fill-opacity="1"></use></g><g><use xlink:href="#dJ5OSmbgb" opacity="1" fill="#999999" fill-opacity="1"></use></g><g><use xlink:href="#d2Uv7Sc30n" opacity="1" fill="#6e6e6e" fill-opacity="1"></use></g></g></g></svg>