<?xml version="1.0" encoding="UTF-8" standalone="no"?>
<!DOCTYPE svg PUBLIC "-//W3C//DTD SVG 1.1//EN" "http://www.w3.org/Graphics/SVG/1.1/DTD/svg11.dtd">
<svg version="1.1" xmlns="http://www.w3.org/2000/svg" xmlns:xlink="http://www.w3.org/1999/xlink" preserveAspectRatio="xMidYMid meet" viewBox="38.4101756581249 27.421705299914436 261.99999999999994 262.3294663382599" width="262" height="262.33"><defs><path d="M38.41 27.51L300.41 27.51L300.41 289.51L38.41 289.51L38.41 27.51Z" id="b29EViXVyV"></path><path d="M120.21 234.64L120.39 259.19L110.28 273.63L92.59 288.61L67.32 288.79L48.73 270.92L44.58 259.55L43.86 233.74L120.21 234.64Z" id="jXGRbyCAO"></path><path d="M120.13 234.72L95.26 203.45L93.01 137.83L63.63 137.95L64.26 203.04L43.76 233.66L120.13 234.72Z" id="bIbTVYs00"></path><path d="M119.7 44.17L136.2 49.35L136.19 289.49L120.13 289.45L119.7 44.17Z" id="b1g7RFVEuF"></path><path d="M136.12 27.48L136.21 49.45L119.68 44.14L119.68 27.42L136.12 27.48Z" id="e18fBP4yyE"></path><path d="M136.35 81.49L136.35 98.88L119.68 85.23L119.68 70.43L136.35 81.49Z" id="e7ftzd2gs"></path><path d="M136.23 119.06L136.28 133.69L119.83 141.96L119.68 126.3L136.23 119.06Z" id="c1MNGHVE3F"></path><path d="M211.86 289.75L189.96 275.54L281.32 146.46L299.66 158.91L211.86 289.75Z" id="d2etC0lIlx"></path><path d="M281.13 146.78L212.22 125.55L141.96 224.98L189.94 275.69L281.13 146.78Z" id="b2oevDsHrP"></path><path d="M178.88 191.1L173.25 180.47L178.37 173.51L178.88 191.1Z" id="a3EzolWrG"></path><path d="M267.23 142.7L229.97 160.37L274.15 155.63L281.06 146.41L267.23 142.7Z" id="d14nNfPzX5"></path><path d="M234.57 212.69L226.87 223.51L211.6 223.29L234.04 202.21L234.57 212.69Z" id="d4GKSOodq"></path><path d="M185.41 250.87L189.13 263.17L192.71 241.4L185.41 250.87Z" id="e59vwO5kV"></path><path d="M153.43 217.21L155.09 225.15L160.86 212.09L153.43 217.21Z" id="d1wNsxiipJ"></path><path d="M215.27 166.89L203.75 168.17L203.11 170.73L179.29 191.09L179.74 212.6L220.01 170.22L215.27 166.89Z" id="ltR9ApgFS"></path><path d="M219.63 169.74L223.78 169.7L234.27 179.37L234.22 202.23L211.56 223.36L189.54 223.62L179.68 212.48L219.63 169.74Z" id="b2bct8kHda"></path><path d="M201.03 169.59L179.43 190.93L207.44 181.49L205 169.84L234.07 169.71L234.15 202.28L245.34 169.71L222.55 158.45L205.13 166.26L236.76 133.09L212.17 125.55L199.58 143.47L201.03 169.59Z" id="bfAZybJ1"></path><path d="M200.01 234.49L189.58 223.61L211.32 223.37L200.01 234.49Z" id="eiMgaAK1p"></path><path d="M179.4 224.24L179.72 212.51L189.5 223.55L179.4 224.24Z" id="a2NKWEpSG3"></path></defs><g><g><g><use xlink:href="#b29EViXVyV" opacity="1" fill="#9b7647" fill-opacity="1"></use></g><g><use xlink:href="#jXGRbyCAO" opacity="1" fill="#d161d5" fill-opacity="1"></use></g><g><use xlink:href="#bIbTVYs00" opacity="1" fill="#e99aec" fill-opacity="1"></use></g><g><use xlink:href="#b1g7RFVEuF" opacity="1" fill="#e9ed9b" fill-opacity="1"></use></g><g><use xlink:href="#e18fBP4yyE" opacity="1" fill="#dec08d" fill-opacity="1"></use></g><g><use xlink:href="#e7ftzd2gs" opacity="1" fill="#dec08d" fill-opacity="1"></use></g><g><use xlink:href="#c1MNGHVE3F" opacity="1" fill="#dec08d" fill-opacity="1"></use></g><g><use xlink:href="#d2etC0lIlx" opacity="1" fill="#414141" fill-opacity="1"></use></g><g><use xlink:href="#b2oevDsHrP" opacity="1" fill="#848484" fill-opacity="1"></use></g><g><use xlink:href="#a3EzolWrG" opacity="1" fill="#9acefe" fill-opacity="1"></use></g><g><use xlink:href="#d14nNfPzX5" opacity="1" fill="#9acefe" fill-opacity="1"></use></g><g><use xlink:href="#d4GKSOodq" opacity="1" fill="#9acefe" fill-opacity="1"></use></g><g><use xlink:href="#e59vwO5kV" opacity="1" fill="#9acefe" fill-opacity="1"></use></g><g><use xlink:href="#d1wNsxiipJ" opacity="1" fill="#9acefe" fill-opacity="1"></use></g><g><use xlink:href="#ltR9ApgFS" opacity="1" fill="#f0dca5" fill-opacity="1"></use></g><g><use xlink:href="#b2bct8kHda" opacity="1" fill="#d8d3a2" fill-opacity="1"></use></g><g><use xlink:href="#bfAZybJ1" opacity="1" fill="#9acefe" fill-opacity="1"></use></g><g><use xlink:href="#eiMgaAK1p" opacity="1" fill="#9acefe" fill-opacity="1"></use></g><g><use xlink:href="#a2NKWEpSG3" opacity="1" fill="#9acefe" fill-opacity="1"></use></g></g></g></svg>