<?xml version="1.0" encoding="UTF-8" standalone="no"?>
<!DOCTYPE svg PUBLIC "-//W3C//DTD SVG 1.1//EN" "http://www.w3.org/Graphics/SVG/1.1/DTD/svg11.dtd">
<svg version="1.1" xmlns="http://www.w3.org/2000/svg" xmlns:xlink="http://www.w3.org/1999/xlink" preserveAspectRatio="xMidYMid meet" viewBox="336.04756933170285 312.64061870431175 261.99999999999994 262.09569695983527" width="262" height="262.1"><defs><path d="M336.05 312.72L598.05 312.72L598.05 574.72L336.05 574.72L336.05 312.72Z" id="b15JrDx395"></path><path d="M417.85 519.86L418.03 544.41L407.92 558.85L390.23 573.83L364.96 574.01L346.37 556.14L342.22 544.77L341.49 518.96L417.85 519.86Z" id="fdvSfb5zn"></path><path d="M417.77 519.94L392.9 488.67L390.65 423.05L361.27 423.17L361.9 488.26L341.4 518.88L417.77 519.94Z" id="c8OOR0rAE"></path><path d="M417.33 329.39L433.84 334.57L433.82 574.7L417.77 574.66L417.33 329.39Z" id="a87zMb7y"></path><path d="M433.75 312.69L433.84 334.67L417.32 329.36L417.32 312.64L433.75 312.69Z" id="a8Rp3bA1d"></path><path d="M433.99 366.71L433.99 384.1L417.32 370.45L417.32 355.65L433.99 366.71Z" id="acvsSYS6Mr"></path><path d="M433.87 404.28L433.92 418.91L417.47 427.18L417.32 411.52L433.87 404.28Z" id="c1OMHD4mP"></path><path d="M433.84 527.68L598.02 527.68L598.02 574.74L433.84 574.74L433.84 527.68Z" id="aE7HBxCkD"></path><path d="M588.27 506.31L585.89 527.51L546.34 527.35L540.8 506.15L588.27 506.31Z" id="bFHQZnIUD"></path><path d="M538.9 497.2L555.99 485.33L555.15 473.63L574.34 469.17L574.76 486.26L589.75 496.36L588.57 506.29L540.84 506.04L538.9 497.2Z" id="c758K3dP3N"></path><path d="M568.7 357.57L570.9 373.25L597.88 373.42L597.37 413.66L561.28 455.38L486.58 470.22L484.05 466.84L495.01 404.62L521.15 363.64L568.7 357.57Z" id="a23dMNNBqx"></path><path d="M447.1 505.5L436.98 526.74L453.85 504.65L515.23 439.22L510.85 437.54L447.1 505.5Z" id="a3Ate3WaHv"></path><path d="M511.3 424.71L520.72 407.55L549.19 401.2L549.39 418.66L541.26 438.7L519.73 441.18L510.7 437.21L511.3 424.71Z" id="ccQvvhgzN"></path><path d="M526.73 425.32L525.84 433.35L536.45 429.68L537.94 420.36L531.59 416.09L521.08 419.17L519.09 424.03L526.73 425.32Z" id="a56poZPsqg"></path></defs><g><g><g><use xlink:href="#b15JrDx395" opacity="1" fill="#9b7647" fill-opacity="1"></use></g><g><use xlink:href="#fdvSfb5zn" opacity="1" fill="#d161d5" fill-opacity="1"></use></g><g><use xlink:href="#c8OOR0rAE" opacity="1" fill="#e99aec" fill-opacity="1"></use></g><g><use xlink:href="#a87zMb7y" opacity="1" fill="#e9ed9b" fill-opacity="1"></use></g><g><use xlink:href="#a8Rp3bA1d" opacity="1" fill="#dec08d" fill-opacity="1"></use></g><g><use xlink:href="#acvsSYS6Mr" opacity="1" fill="#dec08d" fill-opacity="1"></use></g><g><use xlink:href="#c1OMHD4mP" opacity="1" fill="#dec08d" fill-opacity="1"></use></g><g><use xlink:href="#aE7HBxCkD" opacity="1" fill="#aee18e" fill-opacity="1"></use></g><g><use xlink:href="#bFHQZnIUD" opacity="1" fill="#e7419b" fill-opacity="1"></use></g><g><use xlink:href="#c758K3dP3N" opacity="1" fill="#edbfd8" fill-opacity="1"></use></g><g><use xlink:href="#a23dMNNBqx" opacity="1" fill="#6395ea" fill-opacity="1"></use></g><g><use xlink:href="#a3Ate3WaHv" opacity="1" fill="#8390a5" fill-opacity="1"></use></g><g><use xlink:href="#ccQvvhgzN" opacity="1" fill="#ecdbff" fill-opacity="1"></use></g><g><use xlink:href="#a56poZPsqg" opacity="1" fill="#cb99cc" fill-opacity="1"></use></g></g></g></svg>