<?xml version="1.0" encoding="UTF-8" standalone="no"?>
<!DOCTYPE svg PUBLIC "-//W3C//DTD SVG 1.1//EN" "http://www.w3.org/Graphics/SVG/1.1/DTD/svg11.dtd">
<svg version="1.1" xmlns="http://www.w3.org/2000/svg" xmlns:xlink="http://www.w3.org/1999/xlink" preserveAspectRatio="xMidYMid meet" viewBox="171.5477045508539 341.4679746746206 262.380003154323 262.2864463589528" width="262.38" height="262.29"><defs><path d="M171.78 341.61L433.78 341.61L433.78 603.61L171.78 603.61L171.78 341.61Z" id="harTO1Xa4R"></path><path d="M171.71 363.88L246.19 364.04L250.15 603.6L171.55 603.75L171.71 363.88Z" id="fNh0ESZ36"></path><path d="M245.52 341.56L303.97 341.47L303.95 603.52L250.01 603.52L245.52 341.56Z" id="dUaOA1EzL"></path><path d="M372.62 464.62L373.11 359.83L304.19 359.66L304.02 372.88L372.62 464.62Z" id="gxLAFcVmn"></path><path d="M303.93 425.21L372.95 512.64L372.95 465.12L304.02 373.05L303.93 425.21Z" id="c96YopJSI"></path><path d="M304.02 470.74L372.78 557.6L373.11 512.92L303.93 425.08L304.02 470.74Z" id="fS3P2ZrCJ"></path><path d="M304.02 517.77L372.59 603.41L372.78 557.36L303.86 470.58L304.02 517.77Z" id="aSimZ2LGd"></path><path d="M303.98 603.56L372.65 603.53L303.69 517.76L303.98 603.56Z" id="gZRw25LbQ"></path><path d="M372.77 393.47L433.8 393.47L433.8 570.07L372.67 570.27L372.77 393.47Z" id="a2fhX3e6g"></path><path d="M372.88 570.27L433.83 569.97L433.93 603.75L372.67 603.55L372.88 570.27Z" id="brVkIGdnW"></path></defs><g><g><g><use xlink:href="#harTO1Xa4R" opacity="1" fill="#9b7647" fill-opacity="1"></use></g><g><use xlink:href="#fNh0ESZ36" opacity="1" fill="#eabc63" fill-opacity="1"></use></g><g><use xlink:href="#dUaOA1EzL" opacity="1" fill="#e9a6cc" fill-opacity="1"></use></g><g><use xlink:href="#gxLAFcVmn" opacity="1" fill="#7fbf84" fill-opacity="1"></use></g><g><use xlink:href="#c96YopJSI" opacity="1" fill="#b192e7" fill-opacity="1"></use></g><g><use xlink:href="#fS3P2ZrCJ" opacity="1" fill="#83c8e6" fill-opacity="1"></use></g><g><use xlink:href="#aSimZ2LGd" opacity="1" fill="#fbea4a" fill-opacity="1"></use></g><g><use xlink:href="#gZRw25LbQ" opacity="1" fill="#7fbf84" fill-opacity="1"></use></g><g><use xlink:href="#a2fhX3e6g" opacity="1" fill="#d1dd51" fill-opacity="1"></use></g><g><use xlink:href="#brVkIGdnW" opacity="1" fill="#a2a2a2" fill-opacity="1"></use></g></g></g></svg>