<?xml version="1.0" encoding="UTF-8" standalone="no"?>
<!DOCTYPE svg PUBLIC "-//W3C//DTD SVG 1.1//EN" "http://www.w3.org/Graphics/SVG/1.1/DTD/svg11.dtd">
<svg version="1.1" xmlns="http://www.w3.org/2000/svg" xmlns:xlink="http://www.w3.org/1999/xlink" preserveAspectRatio="xMidYMid meet" viewBox="51.06246945911078 55.62651825260218 262.380003154323 262.28644635895273" width="262.38" height="262.29"><defs><path d="M51.3 55.77L313.3 55.77L313.3 317.77L51.3 317.77L51.3 55.77Z" id="b1RN5Brb"></path><path d="M51.22 78.04L125.7 78.2L129.67 317.75L51.06 317.91L51.22 78.04Z" id="aR5hIXUrh"></path><path d="M125.04 55.72L183.49 55.63L183.46 317.68L129.52 317.68L125.04 55.72Z" id="e4GmIk4AR8"></path><path d="M252.13 178.78L252.63 73.99L183.7 73.82L183.54 87.04L252.13 178.78Z" id="c3Bvy7kUrp"></path><path d="M183.7 139.36L252.46 226.8L252.46 179.27L183.54 87.21L183.7 139.36Z" id="arRq30UIb"></path><path d="M183.54 184.65L252.3 271.75L252.63 227.08L183.7 139.36L183.54 184.65Z" id="fBQgxSZHF"></path><path d="M183.54 231.93L252.1 317.57L252.3 271.52L183.37 184.74L183.54 231.93Z" id="d2Kjv58DaT"></path><path d="M183.5 317.72L252.17 317.69L183.2 231.92L183.5 317.72Z" id="cqttT3Qto"></path><path d="M252.29 107.63L313.32 107.63L313.32 284.23L252.19 284.43L252.29 107.63Z" id="b36AtrGtq5"></path><path d="M252.39 284.43L313.34 284.13L313.44 317.91L252.19 317.71L252.39 284.43Z" id="a1k15UNzuU"></path><path d="M117.39 174.67L106.69 218.76L114.01 234.33L108.57 258.16L115.32 260.6L120.39 232.64L111.2 208.82L122.27 185.74L127.14 182.55L126.96 167.17L117.39 174.67Z" id="axyzp9KnW"></path><path d="M106.98 270.94L115.67 270.72L115.12 260.82L108.3 258.29L106.98 270.94Z" id="cf6eTD4Vn"></path><path d="M117.76 300.81L109.62 308.51L104.01 293.88L106.87 271.33L115.56 270.67L117.76 300.81Z" id="a3HGz3UCr7"></path></defs><g><g><g><use xlink:href="#b1RN5Brb" opacity="1" fill="#9b7647" fill-opacity="1"></use></g><g><use xlink:href="#aR5hIXUrh" opacity="1" fill="#eabc63" fill-opacity="1"></use></g><g><use xlink:href="#e4GmIk4AR8" opacity="1" fill="#e9a6cc" fill-opacity="1"></use></g><g><use xlink:href="#c3Bvy7kUrp" opacity="1" fill="#7fbf84" fill-opacity="1"></use></g><g><use xlink:href="#arRq30UIb" opacity="1" fill="#b192e7" fill-opacity="1"></use></g><g><use xlink:href="#fBQgxSZHF" opacity="1" fill="#83c8e6" fill-opacity="1"></use></g><g><use xlink:href="#d2Kjv58DaT" opacity="1" fill="#fbea4a" fill-opacity="1"></use></g><g><use xlink:href="#cqttT3Qto" opacity="1" fill="#7fbf84" fill-opacity="1"></use></g><g><use xlink:href="#b36AtrGtq5" opacity="1" fill="#d1dd51" fill-opacity="1"></use></g><g><use xlink:href="#a1k15UNzuU" opacity="1" fill="#a2a2a2" fill-opacity="1"></use></g><g><use xlink:href="#axyzp9KnW" opacity="1" fill="#cea76e" fill-opacity="1"></use></g><g><use xlink:href="#cf6eTD4Vn" opacity="1" fill="#aaaaaa" fill-opacity="1"></use></g><g><use xlink:href="#a3HGz3UCr7" opacity="1" fill="#f5e36b" fill-opacity="1"></use></g></g></g></svg>