<?xml version="1.0" encoding="UTF-8" standalone="no"?>
<!DOCTYPE svg PUBLIC "-//W3C//DTD SVG 1.1//EN" "http://www.w3.org/Graphics/SVG/1.1/DTD/svg11.dtd">
<svg version="1.1" xmlns="http://www.w3.org/2000/svg" xmlns:xlink="http://www.w3.org/1999/xlink" preserveAspectRatio="xMidYMid meet" viewBox="41.6432132500448 175.33852695694168 262.0367693501455 262.07336525409767" width="262.04" height="262.07"><defs><path d="M41.68 175.34L303.68 175.34L303.68 437.34L41.68 437.34L41.68 175.34Z" id="c1UDAR4vZ8"></path><path d="M41.64 196.16L79.18 195.38L80.4 437.26L41.71 437.31L41.64 196.16Z" id="b71fjTmimr"></path><path d="M78.95 205.4L106.38 205.73L107.67 437.41L80.37 437.34L78.95 205.4Z" id="b4qY3nZoj1"></path><path d="M106.43 206.06L132.14 206.28L131.92 437.3L107.59 437.3L106.43 206.06Z" id="a8m3ogw8H5"></path><path d="M285.26 273.66L283.34 436.82L132.38 437.3L132.38 265.29L285.26 273.66Z" id="aFqxIenTF"></path><path d="M172.82 364.33L174.01 337.3L193.15 353.57L191.24 324.14L205.59 325.34L205.35 371.51L194.82 374.86L183.82 360.74L186.45 377.73L176.16 381.32L140.52 347.11L148.17 339.21L172.82 364.33Z" id="b2dnccj0JE"></path><path d="M214.44 321.27L225.69 322.71L235.49 310.98L236.93 325.34L245.54 327.25L277.36 292.8L267.07 284.67L247.93 310.03L242.19 287.54L225.69 304.05L226.64 275.82L211.81 276.77L214.44 321.27Z" id="dUdQgSBTz"></path><path d="M217.31 425.34L227.12 427.73L237.89 410.98L235.49 429.4L245.54 430.84L275.69 401.17L265.4 391.37L246.74 415.05L242.43 394L228.56 405.72L229.27 381.32L216.12 383.23L217.31 425.34Z" id="a8GwQbKia5"></path><path d="M184.3 242.65L196.26 236.91L239.56 240.02L247.7 246L247.22 263.46L234.78 262.51L235.49 248.63L197.46 247.67L197.22 261.07L183.34 260.35L184.3 242.65Z" id="advmxNRZ2"></path><path d="M148.16 258.41L273.43 264.06L285.09 272.89L132.44 265.12L148.16 258.41Z" id="f2P683OklZ"></path><path d="M283.45 436.53L303.23 420.46L302.7 414.63L285.04 276.11L283.45 436.53Z" id="fF5d9xyCL"></path></defs><g><g><g><use xlink:href="#c1UDAR4vZ8" opacity="1" fill="#9b7647" fill-opacity="1"></use></g><g><use xlink:href="#b71fjTmimr" opacity="1" fill="#78adc5" fill-opacity="1"></use></g><g><use xlink:href="#b4qY3nZoj1" opacity="1" fill="#7dc578" fill-opacity="1"></use></g><g><use xlink:href="#a8m3ogw8H5" opacity="1" fill="#fbeb51" fill-opacity="1"></use></g><g><use xlink:href="#aFqxIenTF" opacity="1" fill="#fb87ff" fill-opacity="1"></use></g><g><use xlink:href="#b2dnccj0JE" opacity="1" fill="#ffdf60" fill-opacity="1"></use></g><g><use xlink:href="#dUdQgSBTz" opacity="1" fill="#ffdf60" fill-opacity="1"></use></g><g><use xlink:href="#a8GwQbKia5" opacity="1" fill="#ffdf60" fill-opacity="1"></use></g><g><use xlink:href="#advmxNRZ2" opacity="1" fill="#fb87ff" fill-opacity="1"></use></g><g><use xlink:href="#f2P683OklZ" opacity="1" fill="#c14ec5" fill-opacity="1"></use></g><g><use xlink:href="#fF5d9xyCL" opacity="1" fill="#c14ec5" fill-opacity="1"></use></g></g></g></svg>