<?xml version="1.0" encoding="UTF-8" standalone="no"?>
<!DOCTYPE svg PUBLIC "-//W3C//DTD SVG 1.1//EN" "http://www.w3.org/Graphics/SVG/1.1/DTD/svg11.dtd">
<svg version="1.1" xmlns="http://www.w3.org/2000/svg" xmlns:xlink="http://www.w3.org/1999/xlink" preserveAspectRatio="xMidYMid meet" viewBox="69.82821411130224 69.59613153160777 262.4649071750194 262.11704533772127" width="262.46" height="262.12"><defs><path d="M70.29 69.65L332.29 69.65L332.29 331.65L70.29 331.65L70.29 69.65Z" id="b13lzw9pY7"></path><path d="M70.28 88.14L144.6 87.96L143.54 331.5L70.45 331.67L70.28 88.14Z" id="e2xuPqv5Lm"></path><path d="M157.46 152.13L220.76 154.07L220.41 331.36L157.46 331.71L157.46 152.13Z" id="a3StdDzTxT"></path><path d="M247.3 69.6L332.28 69.77L332.28 331.52L247.48 331.52L247.3 69.6Z" id="b1g76opPVL"></path><path d="M157.46 99.72L221.32 100.43L220.96 153.98L157.64 152.57L157.46 99.72Z" id="baIyHir9N"></path><path d="M157.59 180.8L220.59 182.05L220.8 205.6L157.38 204.35L157.59 180.8Z" id="bG6LAKA2S"></path><path d="M246.99 117.67L332.24 117.19L332.08 135.69L247.34 135.69L246.99 117.67Z" id="a9oJ6g53C"></path><path d="M247.19 296.52L332.24 298.26L332.09 317.72L247.34 312.01L247.19 296.52Z" id="d35s1fZIHn"></path><path d="M105.16 89.24L144.47 203.77L105.44 331.69L69.83 201.21L105.16 89.24Z" id="bhjY4qp2n"></path></defs><g><g><g><use xlink:href="#b13lzw9pY7" opacity="1" fill="#9b7647" fill-opacity="1"></use></g><g><use xlink:href="#e2xuPqv5Lm" opacity="1" fill="#a175a2" fill-opacity="1"></use></g><g><use xlink:href="#a3StdDzTxT" opacity="1" fill="#298b9e" fill-opacity="1"></use></g><g><use xlink:href="#b1g76opPVL" opacity="1" fill="#a175a2" fill-opacity="1"></use></g><g><use xlink:href="#baIyHir9N" opacity="1" fill="#44c7e1" fill-opacity="1"></use></g><g><use xlink:href="#bG6LAKA2S" opacity="1" fill="#44c7e1" fill-opacity="1"></use></g><g><use xlink:href="#a9oJ6g53C" opacity="1" fill="#721474" fill-opacity="1"></use></g><g><use xlink:href="#d35s1fZIHn" opacity="1" fill="#721474" fill-opacity="1"></use></g><g><use xlink:href="#bhjY4qp2n" opacity="1" fill="#6ccb30" fill-opacity="1"></use></g></g></g></svg>