<?xml version="1.0" encoding="UTF-8" standalone="no"?>
<!DOCTYPE svg PUBLIC "-//W3C//DTD SVG 1.1//EN" "http://www.w3.org/Graphics/SVG/1.1/DTD/svg11.dtd">
<svg version="1.1" xmlns="http://www.w3.org/2000/svg" xmlns:xlink="http://www.w3.org/1999/xlink" preserveAspectRatio="xMidYMid meet" viewBox="350.33988993547814 348.4959673279951 262.46490717501933 262.11704533772115" width="262.46" height="262.12"><defs><path d="M350.8 348.54L612.8 348.54L612.8 610.54L350.8 610.54L350.8 348.54Z" id="b1o9yhl030"></path><path d="M350.79 367.04L425.11 366.86L424.05 610.4L350.96 610.57L350.79 367.04Z" id="a54XdM4Tc4"></path><path d="M437.98 431.03L501.27 432.97L500.92 610.26L437.98 610.61L437.98 431.03Z" id="g6jn044PP"></path><path d="M527.81 348.5L612.79 348.67L612.79 610.42L527.99 610.42L527.81 348.5Z" id="c8u3T1Zk0"></path><path d="M437.98 378.62L501.83 379.33L501.48 432.88L438.15 431.47L437.98 378.62Z" id="b6dSS4tQV"></path><path d="M438.1 459.7L501.1 460.95L501.31 484.5L437.89 483.25L438.1 459.7Z" id="a5azT1eW5"></path><path d="M527.5 365.36L612.75 362.31L612.74 380.39L527 386.23L527.5 365.36Z" id="d8UoSNdAhf"></path><path d="M527.7 574.42L612.76 576.16L612.6 595.62L527.86 589.91L527.7 574.42Z" id="a5mduQszCr"></path><path d="M385.67 368.14L424.98 482.67L385.95 610.59L350.34 480.11L385.67 368.14Z" id="imrHYa2Sg"></path><path d="M579.65 414.08L579.95 461.98L605.63 520.39L596.17 534.95L546.62 535.1L534.01 518.29L557.58 462.58L557.73 414.08L579.65 414.08Z" id="g8VmtoZfK4"></path><path d="M425.16 378.49L438.1 378.78L438.1 610.49L424.16 610.34L425.16 378.49Z" id="blzZD23iu"></path><path d="M502.02 379.22L528.11 379.22L528.11 610.39L501.02 610.25L502.02 379.22Z" id="a6GxnihD5W"></path></defs><g><g><g><use xlink:href="#b1o9yhl030" opacity="1" fill="#9b7647" fill-opacity="1"></use></g><g><use xlink:href="#a54XdM4Tc4" opacity="1" fill="#a175a2" fill-opacity="1"></use></g><g><use xlink:href="#g6jn044PP" opacity="1" fill="#298b9e" fill-opacity="1"></use></g><g><use xlink:href="#c8u3T1Zk0" opacity="1" fill="#717171" fill-opacity="1"></use></g><g><use xlink:href="#b6dSS4tQV" opacity="1" fill="#44c7e1" fill-opacity="1"></use></g><g><use xlink:href="#a5azT1eW5" opacity="1" fill="#44c7e1" fill-opacity="1"></use></g><g><use xlink:href="#d8UoSNdAhf" opacity="1" fill="#454545" fill-opacity="1"></use></g><g><use xlink:href="#a5mduQszCr" opacity="1" fill="#454545" fill-opacity="1"></use></g><g><use xlink:href="#imrHYa2Sg" opacity="1" fill="#6ccb30" fill-opacity="1"></use></g><g><use xlink:href="#g8VmtoZfK4" opacity="1" fill="#454545" fill-opacity="1"></use></g><g><use xlink:href="#blzZD23iu" opacity="1" fill="#14745b" fill-opacity="1"></use></g><g><use xlink:href="#a6GxnihD5W" opacity="1" fill="#742414" fill-opacity="1"></use></g></g></g></svg>