<?xml version="1.0" encoding="UTF-8" standalone="no"?>
<!DOCTYPE svg PUBLIC "-//W3C//DTD SVG 1.1//EN" "http://www.w3.org/Graphics/SVG/1.1/DTD/svg11.dtd">
<svg version="1.1" xmlns="http://www.w3.org/2000/svg" xmlns:xlink="http://www.w3.org/1999/xlink" preserveAspectRatio="xMidYMid meet" viewBox="67.77292564976368 353.3982148649411 262.4649071750194 262.11704533772127" width="262.46" height="262.12"><defs><path d="M68.24 353.45L330.24 353.45L330.24 615.45L68.24 615.45L68.24 353.45Z" id="a67HByMEc"></path><path d="M68.22 371.94L142.54 371.76L141.49 615.3L68.4 615.48L68.22 371.94Z" id="d1BCUkywUd"></path><path d="M155.41 435.93L218.71 437.87L218.36 615.16L155.41 615.52L155.41 435.93Z" id="a1bWIFFSgl"></path><path d="M245.25 353.4L330.22 353.57L330.22 615.33L245.42 615.33L245.25 353.4Z" id="efzHEgwBy"></path><path d="M155.41 383.53L219.26 384.23L218.91 437.78L155.59 436.37L155.41 383.53Z" id="d26TqMvPIr"></path><path d="M155.53 464.6L218.53 465.85L218.74 489.4L155.33 488.16L155.53 464.6Z" id="c9mNwT5qJo"></path><path d="M244.94 370.26L330.19 367.21L330.17 385.29L244.43 391.13L244.94 370.26Z" id="b5TJ3jwvsc"></path><path d="M245.13 579.32L330.19 581.06L330.03 600.52L245.29 594.81L245.13 579.32Z" id="f2AqHbBsjd"></path><path d="M103.1 373.04L142.42 487.57L103.39 615.49L67.77 485.01L103.1 373.04Z" id="dw3fFEeyw"></path><path d="M297.09 418.98L297.39 466.88L323.06 525.29L313.6 539.85L264.05 540L251.44 523.19L275.01 467.48L275.16 418.98L297.09 418.98Z" id="deaSPvh1P"></path></defs><g><g><g><use xlink:href="#a67HByMEc" opacity="1" fill="#9b7647" fill-opacity="1"></use></g><g><use xlink:href="#d1BCUkywUd" opacity="1" fill="#a175a2" fill-opacity="1"></use></g><g><use xlink:href="#a1bWIFFSgl" opacity="1" fill="#298b9e" fill-opacity="1"></use></g><g><use xlink:href="#efzHEgwBy" opacity="1" fill="#717171" fill-opacity="1"></use></g><g><use xlink:href="#d26TqMvPIr" opacity="1" fill="#44c7e1" fill-opacity="1"></use></g><g><use xlink:href="#c9mNwT5qJo" opacity="1" fill="#44c7e1" fill-opacity="1"></use></g><g><use xlink:href="#b5TJ3jwvsc" opacity="1" fill="#454545" fill-opacity="1"></use></g><g><use xlink:href="#f2AqHbBsjd" opacity="1" fill="#454545" fill-opacity="1"></use></g><g><use xlink:href="#dw3fFEeyw" opacity="1" fill="#6ccb30" fill-opacity="1"></use></g><g><use xlink:href="#deaSPvh1P" opacity="1" fill="#454545" fill-opacity="1"></use></g></g></g></svg>