<?xml version="1.0" encoding="UTF-8" standalone="no"?>
<!DOCTYPE svg PUBLIC "-//W3C//DTD SVG 1.1//EN" "http://www.w3.org/Graphics/SVG/1.1/DTD/svg11.dtd">
<svg version="1.1" xmlns="http://www.w3.org/2000/svg" xmlns:xlink="http://www.w3.org/1999/xlink" preserveAspectRatio="xMidYMid meet" viewBox="328.85576840820016 34.9903274137107 262.5706668193363 262.2694178280915" width="262.57" height="262.27"><defs><path d="M329.31 34.99L591.31 34.99L591.31 296.99L329.31 296.99L329.31 34.99Z" id="j60S1NHP0i"></path><path d="M329.17 166.88L556.53 166.64L553.66 240.14L329.17 240.72L329.17 166.88Z" id="a69RKCcdTZ"></path><path d="M328.86 240.63L591.2 240.25L591.43 297L329.09 297.26L328.86 240.63Z" id="l9SuNRLPjo"></path><path d="M556.54 166.47L574.83 166.59L574.95 240.27L553.61 240.16L556.54 166.47Z" id="d5jQ3CqKjY"></path><path d="M363.78 240.63L377.4 240.74L383.27 296.9L369.42 296.9L363.78 240.63Z" id="bq8lfdCKH"></path><path d="" id="emmvXAfxO"></path><path d="M550.42 35.47L551.14 122.95L485.48 166.55L419.56 122.69L419.56 35.47L550.42 35.47Z" id="a10HiqiQcJ"></path><path d="M450.83 50.24L476.47 41.88L495.5 50.11L514.04 53.83L512.07 57.18L504.39 58.36L511.87 61.12L493.56 63.28L484.51 67.61L505.49 79.56L531.16 102.26L529.19 123.91L537.26 121.94L535.69 128.64L532.34 129.62L522.5 125.88L511.67 137.5L488.25 144.78L492.18 133.95L498.48 132.57L502.03 125.49L498.68 121.16L464.82 131.39L460.1 123.91L475.45 115.25L481.55 104.62L465.61 98.91L433.92 115.05L427.81 106L456.95 88.87L426.83 46.16L430.57 44.58L456.75 68.6L450.83 50.24Z" id="c2tlvBkoAn"></path><path d="M514.66 53.62L512.23 57.13L509.73 53.32L514.66 53.62Z" id="aRIX8kCBw"></path><path d="M473.23 46.87L463.52 55.51L494.83 50.65L473.23 46.87Z" id="c1ITYAPwNg"></path><path d="M420.28 167.28L485.98 166.87L419.66 122.66L420.28 167.28Z" id="d102qqY7oE"></path><path d="M550.87 167.28L485.17 166.87L551.49 122.65L550.87 167.28Z" id="b1nSDvoC7z"></path></defs><g><g><g><use xlink:href="#j60S1NHP0i" opacity="1" fill="#9b7647" fill-opacity="1"></use></g><g><use xlink:href="#a69RKCcdTZ" opacity="1" fill="#ffcb68" fill-opacity="1"></use></g><g><use xlink:href="#l9SuNRLPjo" opacity="1" fill="#ffff9b" fill-opacity="1"></use></g><g><use xlink:href="#d5jQ3CqKjY" opacity="1" fill="#fc9bf8" fill-opacity="1"></use></g><g><use xlink:href="#bq8lfdCKH" opacity="1" fill="#95d268" fill-opacity="1"></use></g><g><g><use xlink:href="#emmvXAfxO" opacity="1" fill-opacity="0" stroke="#000000" stroke-width="1" stroke-opacity="1"></use></g></g><g><use xlink:href="#a10HiqiQcJ" opacity="1" fill="#f8cf11" fill-opacity="1"></use></g><g><use xlink:href="#c2tlvBkoAn" opacity="1" fill="#95978a" fill-opacity="1"></use></g><g><use xlink:href="#aRIX8kCBw" opacity="1" fill="#090909" fill-opacity="1"></use></g><g><use xlink:href="#c1ITYAPwNg" opacity="1" fill="#242424" fill-opacity="1"></use></g><g><use xlink:href="#d102qqY7oE" opacity="1" fill="#000000" fill-opacity="1"></use></g><g><use xlink:href="#b1nSDvoC7z" opacity="1" fill="#000000" fill-opacity="1"></use></g></g></g></svg>