<?xml version="1.0" encoding="UTF-8" standalone="no"?>
<!DOCTYPE svg PUBLIC "-//W3C//DTD SVG 1.1//EN" "http://www.w3.org/Graphics/SVG/1.1/DTD/svg11.dtd">
<svg version="1.1" xmlns="http://www.w3.org/2000/svg" xmlns:xlink="http://www.w3.org/1999/xlink" preserveAspectRatio="xMidYMid meet" viewBox="328.45024256149793 35.7167088753863 262.5706668193362 262.2694178280915" width="262.57" height="262.27"><defs><path d="M328.91 35.72L590.91 35.72L590.91 297.72L328.91 297.72L328.91 35.72Z" id="bHbyLDFc1"></path><path d="M328.76 167.6L556.12 167.36L553.26 240.87L328.76 241.44L328.76 167.6Z" id="a337lpThis"></path><path d="M328.45 241.35L590.8 240.97L591.02 297.73L328.69 297.99L328.45 241.35Z" id="a5aiWJbv"></path><path d="M556.14 167.2L574.43 167.31L574.54 241L553.2 240.89L556.14 167.2Z" id="h1EFgUyzwf"></path><path d="M363.37 241.36L376.99 241.47L382.86 297.63L369.01 297.63L363.37 241.36Z" id="aLBECzbhy"></path><path d="" id="cMUoxjDOI"></path><path d="M550.01 36.2L550.5 123.67L485.07 167.28L419.16 123.42L419.16 36.2L550.01 36.2Z" id="b1qKzgBLKu"></path><path d="M513.24 82.66L507.01 88.89L508 97.74L514.39 100.03L527.34 99.54L525.37 111.67L509.85 113.93L496.03 106.1L495.86 107.74L525.7 127.08L525.54 133.64L505.04 123.64L501.44 136.59L494.39 125.44L485.21 136.75L471.6 126.43L453.08 136.1L447.67 119.38L441.27 124.95L444.72 99.54L434.88 102.98L442.09 82.49L436.85 82.49L447.01 70.69L441.11 71.02L453.08 57.41L443.9 58.39L468.32 43.15L479.14 46.1L476.52 39.54L497.83 44.95L513.73 59.05L535.54 72.49L535.21 77.9L528.82 87.08L513.24 82.66Z" id="a1vP35Cft"></path><path d="M529.19 68.79L535.45 77.68L535.58 72.42L529.19 68.79Z" id="a7SrGYQnX2"></path><path d="M497.23 62.39L496.86 68.66L509.01 70.41L509.89 68.03L497.23 62.39Z" id="d6YIJixCnd"></path><path d="M524.17 92.85L528.94 86.96L524.67 85.95L524.17 92.85Z" id="a5WcvqruQ5"></path><path d="M524.42 95.23L527.43 99.24L523.67 99.36L524.42 95.23Z" id="e1ueBBfOyC"></path><path d="M419.74 168.13L485.45 167.72L419.12 123.5L419.74 168.13Z" id="acue1mYgW"></path><path d="M550.33 168.13L484.63 167.72L550.95 123.5L550.33 168.13Z" id="b6spG1vFsQ"></path></defs><g><g><g><use xlink:href="#bHbyLDFc1" opacity="1" fill="#9b7647" fill-opacity="1"></use></g><g><use xlink:href="#a337lpThis" opacity="1" fill="#ffcb68" fill-opacity="1"></use></g><g><use xlink:href="#a5aiWJbv" opacity="1" fill="#ffff9b" fill-opacity="1"></use></g><g><use xlink:href="#h1EFgUyzwf" opacity="1" fill="#fc9bf8" fill-opacity="1"></use></g><g><use xlink:href="#aLBECzbhy" opacity="1" fill="#95d268" fill-opacity="1"></use></g><g><g><use xlink:href="#cMUoxjDOI" opacity="1" fill-opacity="0" stroke="#000000" stroke-width="1" stroke-opacity="1"></use></g></g><g><use xlink:href="#b1qKzgBLKu" opacity="1" fill="#bc1031" fill-opacity="1"></use></g><g><use xlink:href="#a1vP35Cft" opacity="1" fill="#da9d0f" fill-opacity="1"></use></g><g><use xlink:href="#a7SrGYQnX2" opacity="1" fill="#000000" fill-opacity="1"></use></g><g><use xlink:href="#d6YIJixCnd" opacity="1" fill="#000000" fill-opacity="1"></use></g><g><use xlink:href="#a5WcvqruQ5" opacity="1" fill="#ffffff" fill-opacity="1"></use></g><g><use xlink:href="#e1ueBBfOyC" opacity="1" fill="#ffffff" fill-opacity="1"></use></g><g><use xlink:href="#acue1mYgW" opacity="1" fill="#000000" fill-opacity="1"></use></g><g><use xlink:href="#b6spG1vFsQ" opacity="1" fill="#000000" fill-opacity="1"></use></g></g></g></svg>