<?xml version="1.0" encoding="UTF-8" standalone="no"?>
<!DOCTYPE svg PUBLIC "-//W3C//DTD SVG 1.1//EN" "http://www.w3.org/Graphics/SVG/1.1/DTD/svg11.dtd">
<svg version="1.1" xmlns="http://www.w3.org/2000/svg" xmlns:xlink="http://www.w3.org/1999/xlink" preserveAspectRatio="xMidYMid meet" viewBox="343.25210736336294 42.733025891703164 262.57066681933634 262.2694178280916" width="262.57" height="262.27"><defs><path d="M343.71 42.73L605.71 42.73L605.71 304.73L343.71 304.73L343.71 42.73Z" id="b2tnQHjwPj"></path><path d="M343.56 174.62L570.92 174.38L568.06 247.88L343.56 248.46L343.56 174.62Z" id="d2YU0y0Wh5"></path><path d="M343.25 248.37L605.6 247.99L605.82 304.75L343.49 305L343.25 248.37Z" id="b36yLVMfuK"></path><path d="M570.94 174.22L589.23 174.33L589.34 248.02L568.01 247.9L570.94 174.22Z" id="c1w4IDEgdZ"></path><path d="M378.17 248.37L391.8 248.48L397.67 304.64L383.82 304.64L378.17 248.37Z" id="c21AEWxq7j"></path><path d="" id="a3r66vnP3G"></path><path d="M565.41 43.22L565.89 140.92L500.47 174.29L435.74 140.23L434.55 43.22L565.41 43.22Z" id="j2wndhIWWB"></path><path d="M492.1 116.31L475.15 99.36L482.21 92.77L501.36 109.25L519.42 92.77L526.32 99.83L509.84 116.31L548.15 150.07L534.02 157.44L500.42 124.79L467.61 157.13L453.64 149.59L492.1 116.31Z" id="e3Olu9rblr"></path><path d="M436.29 93.75L445.24 89.83L448.69 80.25L451.52 89.36L461.72 94.07L452.93 96.74L448.69 106.63L445.24 96.58L436.29 93.75Z" id="f3PsBGH7xX"></path><path d="M436.29 55.92L445.56 52.78L448.54 44.3L451.83 52.31L461.1 55.92L450.74 59.69L448.69 70.05L444.3 59.37L436.29 55.92Z" id="eh2G2MBDc"></path><path d="M463.77 73.35L472.87 70.68L475.7 61.26L479.31 71.31L488.57 74.13L479.93 77.74L476.48 87.48L472.56 76.49L463.77 73.35Z" id="f5gCXzMDHD"></path><path d="M512.59 73.97L522.79 70.99L525.46 60.32L529.7 70.83L537.08 73.97L528.76 77.11L525.3 87.95L521.54 77.43L512.59 73.97Z" id="cmQe6VADk"></path><path d="M540.53 55.92L549.95 52.47L553.25 43.83L555.76 52L564.86 56.39L556.54 58.9L553.25 70.99L550.74 59.53L540.53 55.92Z" id="m8BHCi6b2"></path><path d="M564.71 93.75L556.23 89.99L552.78 80.72L549.64 89.67L539.75 94.23L549.01 97.52L553.09 106.78L556.23 97.05L564.71 93.75Z" id="c2mnR3hvPJ"></path><path d="M436 174.34L500.97 174.52L435.48 140.01L436 174.34Z" id="ahGrTJwBO"></path><path d="M565.44 174.2L501.07 174.36L565.97 140.57L565.44 174.2Z" id="b8kQcLdAnb"></path></defs><g><g><g><use xlink:href="#b2tnQHjwPj" opacity="1" fill="#9b7647" fill-opacity="1"></use></g><g><use xlink:href="#d2YU0y0Wh5" opacity="1" fill="#ffcb68" fill-opacity="1"></use></g><g><use xlink:href="#b36yLVMfuK" opacity="1" fill="#ffff9b" fill-opacity="1"></use></g><g><use xlink:href="#c1w4IDEgdZ" opacity="1" fill="#fc9bf8" fill-opacity="1"></use></g><g><use xlink:href="#c21AEWxq7j" opacity="1" fill="#95d268" fill-opacity="1"></use></g><g><g><use xlink:href="#a3r66vnP3G" opacity="1" fill-opacity="0" stroke="#000000" stroke-width="1" stroke-opacity="1"></use></g></g><g><use xlink:href="#j2wndhIWWB" opacity="1" fill="#9764c8" fill-opacity="1"></use></g><g><use xlink:href="#e3Olu9rblr" opacity="1" fill="#fdfe59" fill-opacity="1"></use></g><g><use xlink:href="#f3PsBGH7xX" opacity="1" fill="#fdfe59" fill-opacity="1"></use></g><g><use xlink:href="#eh2G2MBDc" opacity="1" fill="#fdfe59" fill-opacity="1"></use></g><g><use xlink:href="#f5gCXzMDHD" opacity="1" fill="#fdfe59" fill-opacity="1"></use></g><g><use xlink:href="#cmQe6VADk" opacity="1" fill="#fdfe59" fill-opacity="1"></use></g><g><use xlink:href="#m8BHCi6b2" opacity="1" fill="#fdfe59" fill-opacity="1"></use></g><g><use xlink:href="#c2mnR3hvPJ" opacity="1" fill="#fdfe59" fill-opacity="1"></use></g><g><use xlink:href="#ahGrTJwBO" opacity="1" fill="#c864ba" fill-opacity="1"></use></g><g><use xlink:href="#b8kQcLdAnb" opacity="1" fill="#c864ba" fill-opacity="1"></use></g></g></g></svg>