<?xml version="1.0" encoding="UTF-8" standalone="no"?>
<!DOCTYPE svg PUBLIC "-//W3C//DTD SVG 1.1//EN" "http://www.w3.org/Graphics/SVG/1.1/DTD/svg11.dtd">
<svg version="1.1" xmlns="http://www.w3.org/2000/svg" xmlns:xlink="http://www.w3.org/1999/xlink" preserveAspectRatio="xMidYMid meet" viewBox="316.6562437810945 13.714607647453477 262.5706668193363 262.2694178280913" width="262.57" height="262.27"><defs><path d="M317.11 13.71L579.11 13.71L579.11 275.71L317.11 275.71L317.11 13.71Z" id="a1iibz1r5y"></path><path d="M316.97 145.6L544.33 145.36L541.46 218.86L316.97 219.44L316.97 145.6Z" id="a78C7SMem"></path><path d="M316.66 219.35L579 218.97L579.23 275.73L316.89 275.98L316.66 219.35Z" id="cBcxX8hke"></path><path d="M544.34 145.2L562.63 145.31L562.75 219L541.41 218.89L544.34 145.2Z" id="b4ecLM6WK6"></path><path d="M351.58 219.35L365.2 219.47L371.07 275.62L357.22 275.62L351.58 219.35Z" id="e2m7pFMCm4"></path><path d="" id="a1gVSENDyK"></path><path d="M474.52 80.44L418.19 80.88L434.24 42.45L420.7 53.77L409.38 41.05L442.43 14.64L473.83 30.94L474.52 80.44Z" id="afxceU30x"></path><path d="M474.37 78.2L473.92 145.32L539.65 99.33L531.21 80.85L474.37 78.2Z" id="bw3PlLhRt"></path><path d="M474.4 80.47L531.34 80.95L513.53 41.06L540.18 41.06L507.4 15.45L473.79 31.03L474.4 80.47Z" id="dNJGwRZlc"></path><path d="M474.51 80.4L473.92 145.22L409.43 98.94L417.9 80.9L474.51 80.4Z" id="bIY4XsrWf"></path><path d="M459.61 40.79L459.74 71.47L489.61 70.78L489.99 41.03L503.34 41.17L496.84 46.59L497.24 106.05L506.58 114.63L488.62 114.88L488.5 80.54L460.12 80.98L459.99 113.81L443.14 114.06L452.64 105.19L452.52 46.38L445.8 41.51L459.61 40.79Z" id="b1D4U1OikS"></path></defs><g><g><g><use xlink:href="#a1iibz1r5y" opacity="1" fill="#9b7647" fill-opacity="1"></use></g><g><use xlink:href="#a78C7SMem" opacity="1" fill="#ffcb68" fill-opacity="1"></use></g><g><use xlink:href="#cBcxX8hke" opacity="1" fill="#ffff9b" fill-opacity="1"></use></g><g><use xlink:href="#b4ecLM6WK6" opacity="1" fill="#fc9bf8" fill-opacity="1"></use></g><g><use xlink:href="#e2m7pFMCm4" opacity="1" fill="#95d268" fill-opacity="1"></use></g><g><g><use xlink:href="#a1gVSENDyK" opacity="1" fill-opacity="0" stroke="#000000" stroke-width="1" stroke-opacity="1"></use></g></g><g><use xlink:href="#afxceU30x" opacity="1" fill="#bf1031" fill-opacity="1"></use></g><g><use xlink:href="#bw3PlLhRt" opacity="1" fill="#3d4b7a" fill-opacity="1"></use></g><g><use xlink:href="#dNJGwRZlc" opacity="1" fill="#11a365" fill-opacity="1"></use></g><g><use xlink:href="#bIY4XsrWf" opacity="1" fill="#f7ce11" fill-opacity="1"></use></g><g><use xlink:href="#b1D4U1OikS" opacity="1" fill="#dd981d" fill-opacity="1"></use></g></g></g></svg>