<?xml version="1.0" encoding="UTF-8" standalone="no"?>
<!DOCTYPE svg PUBLIC "-//W3C//DTD SVG 1.1//EN" "http://www.w3.org/Graphics/SVG/1.1/DTD/svg11.dtd">
<svg version="1.1" xmlns="http://www.w3.org/2000/svg" xmlns:xlink="http://www.w3.org/1999/xlink" preserveAspectRatio="xMidYMid meet" viewBox="39.181662065661556 121.07550126020146 261.99999999999994 262.1254416672317" width="262" height="262.13"><defs><path d="M39.18 121.08L301.18 121.08L301.18 383.08L39.18 383.08L39.18 121.08Z" id="bnxgNoDNU"></path><path d="M39.42 132.61L112.77 132.79L111.01 383.02L39.25 383.2L39.42 132.61Z" id="aul7in6r3"></path><path d="M112.78 133.07L170.15 133.6L170.86 383.18L111.01 382.83L112.78 133.07Z" id="aqHWPtD6X"></path><path d="M112.46 166.8L170.38 167.04L170.38 191.08L112.1 190.47L112.46 166.8Z" id="a1qrgIlTBH"></path><path d="M111.42 319.76L170.58 320.25L170.7 336.43L111.42 336.55L111.42 319.76Z" id="e1VmtEOiDg"></path><path d="M217.17 194.8L215.55 180.12L222.33 164.31L226.52 161.25L231.84 164.64L239.26 186.57L237.65 198.02L230.39 209.15L226.04 208.99L217.17 194.8Z" id="b7108ns3Kc"></path><path d="M209.26 209.15L246.84 209.15L242.17 359.8L212.17 359.64L209.26 209.15Z" id="b2NJ949Oz8"></path><path d="M170.63 362.46L209.04 382.27L244.22 382.27L277.24 363.94L284.38 349.79L293.68 345.61L300.82 349.52L300.69 345.07L294.62 341.57L283.44 344.67L277.51 359.5L170.77 359.5L170.63 362.46Z" id="a3N3ojpdXz"></path></defs><g><g><g><use xlink:href="#bnxgNoDNU" opacity="1" fill="#9b7647" fill-opacity="1"></use></g><g><use xlink:href="#aul7in6r3" opacity="1" fill="#75aad4" fill-opacity="1"></use></g><g><use xlink:href="#aqHWPtD6X" opacity="1" fill="#84db8d" fill-opacity="1"></use></g><g><use xlink:href="#a1qrgIlTBH" opacity="1" fill="#a59551" fill-opacity="1"></use></g><g><use xlink:href="#e1VmtEOiDg" opacity="1" fill="#a59551" fill-opacity="1"></use></g><g><use xlink:href="#b7108ns3Kc" opacity="1" fill="#e7a50f" fill-opacity="1"></use></g><g><use xlink:href="#b2NJ949Oz8" opacity="1" fill="#d1a8d5" fill-opacity="1"></use></g><g><use xlink:href="#a3N3ojpdXz" opacity="1" fill="#e68e10" fill-opacity="1"></use></g></g></g></svg>