<?xml version="1.0" encoding="UTF-8" standalone="no"?>
<!DOCTYPE svg PUBLIC "-//W3C//DTD SVG 1.1//EN" "http://www.w3.org/Graphics/SVG/1.1/DTD/svg11.dtd">
<svg version="1.1" xmlns="http://www.w3.org/2000/svg" xmlns:xlink="http://www.w3.org/1999/xlink" preserveAspectRatio="xMidYMid meet" viewBox="61.48062072709995 23.234863748388847 524.0427562870374 262.2824575135943" width="524.04" height="262.28"><defs><path d="M61.52 23.5L585.52 23.5L585.52 285.5L61.52 285.5L61.52 23.5Z" id="ghfiESyXT"></path><path d="M61.53 69.02L136.92 68.53L138.16 285.52L61.55 285.37L61.53 69.02Z" id="dve5Dlz0j"></path><path d="M61.62 250.88L138.11 251.67L138.21 263.91L61.62 262.83L61.62 250.88Z" id="j1vX7gA1DO"></path><path d="M61.71 224.25L137.81 223.46L138.01 235.12L61.51 235.61L61.71 224.25Z" id="b3NqEVzWpD"></path><path d="M61.76 53.23L136.16 53.47L136.53 69.62L61.48 68.75L61.76 53.23Z" id="m37uPPJlsf"></path><path d="M136.56 53.25L192.24 53.73L191.95 285.34L138.1 285.43L136.56 53.25Z" id="cKlToI9I2"></path><path d="M522.1 247.72L508.48 235.95L476.59 215.83L492.07 206.7L479.72 175.85L477.86 173.83L479.41 138.54L457.7 86.82L483.71 63.76L540.06 62.98L478.29 28.77L444.83 23.23L381.25 85.86L323.38 237.12L288.55 236.96L221.53 248.42L286.54 284.95L433.52 284.98L452.25 276.31L507.67 283.9L584.92 262.53L585.07 251.85L537.55 240.71L522.1 247.72Z" id="f7DzIO0tTW"></path><path d="M477.69 173.99L448.28 150.46L468.71 141.48L478.62 155.41L477.69 173.99Z" id="ch8d4eCZG"></path><path d="M367.16 173.52L386.82 123.06L403.85 116.24L447.04 149.53L367.16 173.52Z" id="aflV51IWL"></path><path d="M442.55 191.79L481.87 203.25L459.27 182.35L433.42 176.47L368.71 195.35L442.55 191.79Z" id="c2m5d72EWJ"></path></defs><g><g><g><use xlink:href="#ghfiESyXT" opacity="1" fill="#9b7647" fill-opacity="1"></use></g><g><use xlink:href="#dve5Dlz0j" opacity="1" fill="#cff0be" fill-opacity="1"></use></g><g><use xlink:href="#j1vX7gA1DO" opacity="1" fill="#cbcc66" fill-opacity="1"></use></g><g><use xlink:href="#b3NqEVzWpD" opacity="1" fill="#cbcc66" fill-opacity="1"></use></g><g><use xlink:href="#m37uPPJlsf" opacity="1" fill="#cbcc66" fill-opacity="1"></use></g><g><use xlink:href="#cKlToI9I2" opacity="1" fill="#cdfffe" fill-opacity="1"></use></g><g><use xlink:href="#f7DzIO0tTW" opacity="1" fill="#e2c5a7" fill-opacity="1"></use></g><g><use xlink:href="#ch8d4eCZG" opacity="1" fill="#d6af86" fill-opacity="1"></use></g><g><use xlink:href="#aflV51IWL" opacity="1" fill="#d6af86" fill-opacity="1"></use></g><g><use xlink:href="#c2m5d72EWJ" opacity="1" fill="#d6af86" fill-opacity="1"></use></g></g></g></svg>