<?xml version="1.0" encoding="UTF-8" standalone="no"?>
<!DOCTYPE svg PUBLIC "-//W3C//DTD SVG 1.1//EN" "http://www.w3.org/Graphics/SVG/1.1/DTD/svg11.dtd">
<svg version="1.1" xmlns="http://www.w3.org/2000/svg" xmlns:xlink="http://www.w3.org/1999/xlink" preserveAspectRatio="xMidYMid meet" viewBox="58.4489776453389 296.9327804150556 524.0427562870374 262.2824575135943" width="524.04" height="262.28"><defs><path d="M58.49 297.19L582.49 297.19L582.49 559.19L58.49 559.19L58.49 297.19Z" id="fvQ2KgM5J"></path><path d="M58.49 342.72L133.88 342.23L135.13 559.22L58.52 559.07L58.49 342.72Z" id="d8h7oXPyV"></path><path d="M58.59 524.58L135.08 525.37L135.18 537.61L58.59 536.53L58.59 524.58Z" id="a1mDyDjV8b"></path><path d="M58.68 497.95L134.78 497.16L134.97 508.81L58.48 509.31L58.68 497.95Z" id="e31vNmnXzx"></path><path d="M58.73 326.93L133.13 327.16L133.5 343.31L58.45 342.45L58.73 326.93Z" id="a2d0yiT180"></path><path d="M133.52 326.95L189.21 327.43L188.92 559.03L135.07 559.13L133.52 326.95Z" id="gjPnEYNxm"></path><path d="M519.07 521.42L505.45 509.65L473.56 489.53L489.04 480.4L476.68 449.54L474.83 447.53L476.37 412.24L454.67 360.52L480.68 337.45L537.02 336.68L475.26 302.47L441.8 296.93L378.22 359.56L320.35 510.81L285.52 510.66L218.5 522.11L283.51 558.65L430.49 558.68L449.22 550.01L504.64 557.59L581.89 536.23L582.04 525.55L534.52 514.4L519.07 521.42Z" id="a7pwlDjBy5"></path><path d="M474.66 447.69L445.24 424.16L465.68 415.18L475.59 429.11L474.66 447.69Z" id="a2XxAMFYdP"></path><path d="M364.13 447.22L383.79 396.76L400.82 389.93L444.01 423.23L364.13 447.22Z" id="c2amCfVyhJ"></path><path d="M439.52 465.49L478.84 476.94L456.24 456.05L430.38 450.16L365.68 469.05L439.52 465.49Z" id="eQvWmo6CE"></path><path d="M512.02 430.67L537.31 377.98L563.31 376.1L564.48 439.08L544.1 510.51L519.04 521.75L505.21 509.51L473.48 489.48L502.04 472.76L512.02 430.67Z" id="dkRKEM8gj"></path><path d="M320.89 424.16L290.68 417.6L271.95 429.78L248.53 486.22L254.15 499.34L286.75 510.67L320.42 510.81L347.36 441.02L320.89 424.16Z" id="jL8eqJnQ"></path><path d="M307.63 474.99L308.53 460.99L294.17 469.79L307.63 474.99Z" id="a1F4UFaNE8"></path><path d="M283.52 459.61L298.32 464.82L283.66 472.08L272.29 465.23L283.52 459.61Z" id="f16vVFw30s"></path><path d="M307.77 448.38L320.65 438.52L320.65 449.06L307.63 459.61L307.77 448.38Z" id="abT1mMfni"></path><path d="M283.66 459.61L291.33 462.35L291.61 467.97L283.8 471.8L277.63 468.52L277.63 462.08L283.66 459.61Z" id="aoqBywUMR"></path><path d="M308.05 447.97L316.68 441.53L320.65 444.41L320.78 448.93L312.15 456.19L307.91 453.04L308.05 447.97Z" id="cJWCoPAU"></path><path d="M320.75 424.12L320.24 418.93L347.53 401.21L357.92 412.51L347.33 441.03L320.75 424.12Z" id="b2Uo9QRbg"></path><path d="M332.97 415.87L346.31 410.88L344.38 425.04L333.79 429.21L332.97 415.87Z" id="b5T7TJ1Dlg"></path><path d="M230.36 438.21L237.19 454.7L255.31 470.39L269.88 435.05L239.63 432.3L230.36 438.21Z" id="bQp39XTzu"></path><path d="M261.73 454.7L257.55 464.68L238.92 449.41L255.31 448.08L261.73 454.7Z" id="a2Ni7ruz78"></path></defs><g><g><g><use xlink:href="#fvQ2KgM5J" opacity="1" fill="#9b7647" fill-opacity="1"></use></g><g><use xlink:href="#d8h7oXPyV" opacity="1" fill="#cff0be" fill-opacity="1"></use></g><g><use xlink:href="#a1mDyDjV8b" opacity="1" fill="#cbcc66" fill-opacity="1"></use></g><g><use xlink:href="#e31vNmnXzx" opacity="1" fill="#cbcc66" fill-opacity="1"></use></g><g><use xlink:href="#a2d0yiT180" opacity="1" fill="#cbcc66" fill-opacity="1"></use></g><g><use xlink:href="#gjPnEYNxm" opacity="1" fill="#cdfffe" fill-opacity="1"></use></g><g><use xlink:href="#a7pwlDjBy5" opacity="1" fill="#e2c5a7" fill-opacity="1"></use></g><g><use xlink:href="#a2XxAMFYdP" opacity="1" fill="#d6af86" fill-opacity="1"></use></g><g><use xlink:href="#c2amCfVyhJ" opacity="1" fill="#d6af86" fill-opacity="1"></use></g><g><use xlink:href="#eQvWmo6CE" opacity="1" fill="#d6af86" fill-opacity="1"></use></g><g><use xlink:href="#dkRKEM8gj" opacity="1" fill="#ffcc64" fill-opacity="1"></use></g><g><use xlink:href="#jL8eqJnQ" opacity="1" fill="#ffcc64" fill-opacity="1"></use></g><g><use xlink:href="#a1F4UFaNE8" opacity="1" fill="#e7b9e3" fill-opacity="1"></use></g><g><use xlink:href="#f16vVFw30s" opacity="1" fill="#efeb46" fill-opacity="1"></use></g><g><use xlink:href="#abT1mMfni" opacity="1" fill="#efeb46" fill-opacity="1"></use></g><g><use xlink:href="#aoqBywUMR" opacity="1" fill="#000000" fill-opacity="1"></use></g><g><use xlink:href="#cJWCoPAU" opacity="1" fill="#000000" fill-opacity="1"></use></g><g><use xlink:href="#b2Uo9QRbg" opacity="1" fill="#fddab7" fill-opacity="1"></use></g><g><use xlink:href="#b5T7TJ1Dlg" opacity="1" fill="#fdf4ed" fill-opacity="1"></use></g><g><use xlink:href="#bQp39XTzu" opacity="1" fill="#fddab7" fill-opacity="1"></use></g><g><use xlink:href="#a2Ni7ruz78" opacity="1" fill="#fdf4ed" fill-opacity="1"></use></g></g></g></svg>