<?xml version="1.0" encoding="UTF-8" standalone="no"?>
<!DOCTYPE svg PUBLIC "-//W3C//DTD SVG 1.1//EN" "http://www.w3.org/Graphics/SVG/1.1/DTD/svg11.dtd">
<svg version="1.1" xmlns="http://www.w3.org/2000/svg" xmlns:xlink="http://www.w3.org/1999/xlink" preserveAspectRatio="xMidYMid meet" viewBox="182.72727272727298 189 262 262" width="262" height="262"><defs><path d="M182.73 189L444.73 189L444.73 451L182.73 451L182.73 189Z" id="a9xbUxEXM"></path><path d="M183.39 243.51L314.39 243.51L314.39 374.51L183.39 374.51L183.39 243.51Z" id="a7vHuiKBA"></path><path d="M269.49 342.21L263.21 374.22L236.87 374.22L229.02 342.05L269.49 342.21Z" id="c3zz8Y8SJ"></path><path d="M266.5 332.11L273.99 323.46L274.62 308.33L259.74 300.83L260.62 298.06L279.15 281.95L276.99 270.96L269.12 268.58L262.37 283.44L263.62 270.96L255.49 254.21L244.87 253.83L238.87 261.71L236.49 288.81L236.99 306.19L231.37 298.06L229.24 290.31L226.24 289.69L225.49 283.44L213.99 277.31L210.12 279.94L210.12 303.6L216.87 305.1L230.8 332.55L266.5 332.11Z" id="a1TijVeI"></path><path d="M274.62 331.6L274.24 342.6L224.62 342.97L223.37 332.1L274.62 331.6Z" id="asi3pTsZI"></path><path d="M210.12 303.63L214.75 304.65L214.16 299.61L210.12 299.61L210.12 303.63Z" id="c1TYzkZYIK"></path><path d="M210.12 279.8L214.01 277.32L215.92 278.56L210.12 282.21L210.12 279.8Z" id="cNxcJjTf0"></path><path d="M229.24 290.18L230.54 294.42L226.95 294.71L226.22 289.74L229.24 290.18Z" id="hzQlOtdk"></path><path d="M237.7 310.87L232.51 308.16L236.31 305.97L237.7 310.87Z" id="afAHRG21v"></path><path d="M228.71 328.34L231.12 322.64L225.86 322.86L228.71 328.34Z" id="m7uLGSIOr1"></path><path d="M249.42 331.88L246.93 327.94L243.13 331.88L249.42 331.88Z" id="e1LHHCG8lb"></path><path d="M273.99 323.71L274.14 320.5L271.95 318.38L271.45 326.42L273.99 323.71Z" id="c4MyxawIRI"></path><path d="M257.03 313.92L259.23 315.52L260.98 311.36L258.06 309.31L253.23 313.33L257.03 313.92Z" id="aTIEyc7z"></path><path d="M250.38 297.28L246.73 293.85L244.43 296.7L250.38 297.28Z" id="a2tpqdMXTx"></path><path d="M256.52 276.82L260.18 281.2L255.64 283.03L252.36 285.66L252.36 276.82L256.52 276.82Z" id="aMO4clWym"></path><path d="M261.57 297.44L266.1 293.42L261.57 290.79L261.57 297.44Z" id="d5uLQRFxju"></path><path d="M238.76 261.84L244.9 253.83L247.02 254.02L238.76 266.52L238.76 261.84Z" id="cktcCaWIc"></path><path d="M277.14 270.9L277.72 276.09L272.75 271.71L275.45 270.47L277.14 270.9Z" id="lHwAHNISs"></path><path d="M313.73 243.51L444.73 243.51L444.73 374.51L313.73 374.51L313.73 243.51Z" id="b30vqUcqSj"></path><path d="M427.17 310.62L426.02 327.39L417.86 327.39L398.65 374.27L356.47 374.27L338.87 324.55L336.04 324.55L336.52 309.01L427.17 310.62Z" id="h8f8ojKay"></path><path d="M359.55 282.57L370.56 268.87L391.35 268.87L400.93 287.45L399.39 295.5L397.86 295.5L397.86 297.03L407.06 310.05L406.58 312.16L402.84 316.94L391.83 317.23L392.11 310.05L368.36 310.43L367.02 317.71L357.44 318.29L354.95 314.65L356.19 309.28L361.75 298.75L359.55 282.57Z" id="epQVicGG6"></path><path d="M331.26 273.54L349.94 277.66L356.36 275.45L349.94 267.6L331.55 267.22L326.66 270.76L331.26 273.54Z" id="a8NdSWzVI"></path><path d="M326.19 270.76L323.5 272.48L330.97 284.74L342.85 285.8L358.27 277.66L356.45 275.45L326.19 270.76Z" id="a13PPbTfIO"></path><path d="M346.68 248.35L368.43 258.98L359.04 260.22L345.73 255.34L343.14 248.35L346.68 248.35Z" id="a1aIwimy1"></path><path d="M443.32 278.62L444.28 281.11L432.4 295.29L427.17 295.67L414.97 292.42L405.39 282.07L443.32 278.62Z" id="b6YjqCaDe9"></path><path d="M384.26 267.8L384.55 257.36L381.61 252.76L362.32 245.39L346.71 248.35L384.26 267.8Z" id="bfy873KZT"></path><path d="M436.39 268.34L423.26 266.13L405.93 276.09L404.39 274.56L396.92 279.26L405.39 282.32L443.38 278.62L436.39 268.34Z" id="c4WlmxgqL"></path><path d="M183.39 412.87L427 412.87L427 451L183.39 451L183.39 412.87Z" id="c3JvkSBQC9"></path><path d="M182.73 374.51L443.78 374.51L443.78 412.87L182.73 412.87L182.73 374.51Z" id="aQ1YoLU2"></path><path d="M212.86 374.51L223.06 374.51L223.06 412.87L212.86 412.87L212.86 374.51Z" id="a8n5BHfud"></path><path d="M183.39 412.87L431.28 412.87L431.28 422.41L183.39 422.41L183.39 412.87Z" id="f4ACMEkA"></path><path d="M183.39 441.46L431.28 441.46L431.28 451L183.39 451L183.39 441.46Z" id="c2c31EUMMS"></path><path d="M182.73 412.87L196.4 413.11L207.95 431.68L196.4 451L182.73 451L182.73 412.87Z" id="grX3M2scS"></path></defs><g><g><g><use xlink:href="#a9xbUxEXM" opacity="1" fill="#9b7647" fill-opacity="1"></use></g><g><g><use xlink:href="#a7vHuiKBA" opacity="1" fill="#9b7647" fill-opacity="1"></use></g><g><use xlink:href="#c3zz8Y8SJ" opacity="1" fill="#d25106" fill-opacity="1"></use></g><g><use xlink:href="#a1TijVeI" opacity="1" fill="#bac869" fill-opacity="1"></use></g><g><use xlink:href="#asi3pTsZI" opacity="1" fill="#d27a47" fill-opacity="1"></use></g><g><use xlink:href="#c1TYzkZYIK" opacity="1" fill="#e2245e" fill-opacity="1"></use></g><g><use xlink:href="#cNxcJjTf0" opacity="1" fill="#e2245e" fill-opacity="1"></use></g><g><use xlink:href="#hzQlOtdk" opacity="1" fill="#e2245e" fill-opacity="1"></use></g><g><use xlink:href="#afAHRG21v" opacity="1" fill="#e2245e" fill-opacity="1"></use></g><g><use xlink:href="#m7uLGSIOr1" opacity="1" fill="#e2245e" fill-opacity="1"></use></g><g><use xlink:href="#e1LHHCG8lb" opacity="1" fill="#e2245e" fill-opacity="1"></use></g><g><use xlink:href="#c4MyxawIRI" opacity="1" fill="#e2245e" fill-opacity="1"></use></g><g><use xlink:href="#aTIEyc7z" opacity="1" fill="#e2245e" fill-opacity="1"></use></g><g><use xlink:href="#a2tpqdMXTx" opacity="1" fill="#e2245e" fill-opacity="1"></use></g><g><use xlink:href="#aMO4clWym" opacity="1" fill="#e2245e" fill-opacity="1"></use></g><g><use xlink:href="#d5uLQRFxju" opacity="1" fill="#e2245e" fill-opacity="1"></use></g><g><use xlink:href="#cktcCaWIc" opacity="1" fill="#e2245e" fill-opacity="1"></use></g><g><use xlink:href="#lHwAHNISs" opacity="1" fill="#e2245e" fill-opacity="1"></use></g></g><g><g><use xlink:href="#b30vqUcqSj" opacity="1" fill="#9b7647" fill-opacity="1"></use></g><g><use xlink:href="#h8f8ojKay" opacity="1" fill="#94433f" fill-opacity="1"></use></g><g><use xlink:href="#epQVicGG6" opacity="1" fill="#dead4f" fill-opacity="1"></use></g><g><use xlink:href="#a8NdSWzVI" opacity="1" fill="#53aa6a" fill-opacity="1"></use></g><g><use xlink:href="#a13PPbTfIO" opacity="1" fill="#93cd56" fill-opacity="1"></use></g><g><use xlink:href="#a1aIwimy1" opacity="1" fill="#93cd56" fill-opacity="1"></use></g><g><use xlink:href="#b6YjqCaDe9" opacity="1" fill="#93cd56" fill-opacity="1"></use></g><g><use xlink:href="#bfy873KZT" opacity="1" fill="#53aa6a" fill-opacity="1"></use></g><g><use xlink:href="#c4WlmxgqL" opacity="1" fill="#53aa6a" fill-opacity="1"></use></g></g><g><use xlink:href="#c3JvkSBQC9" opacity="1" fill="#c6ab8a" fill-opacity="1"></use></g><g><use xlink:href="#aQ1YoLU2" opacity="1" fill="#3f6594" fill-opacity="1"></use></g><g><use xlink:href="#a8n5BHfud" opacity="1" fill="#c840c8" fill-opacity="1"></use></g><g><use xlink:href="#f4ACMEkA" opacity="1" fill="#51943f" fill-opacity="1"></use></g><g><use xlink:href="#c2c31EUMMS" opacity="1" fill="#51943f" fill-opacity="1"></use></g><g><use xlink:href="#grX3M2scS" opacity="1" fill="#51943f" fill-opacity="1"></use></g></g></g></svg>