<?xml version="1.0" encoding="UTF-8" standalone="no"?>
<!DOCTYPE svg PUBLIC "-//W3C//DTD SVG 1.1//EN" "http://www.w3.org/Graphics/SVG/1.1/DTD/svg11.dtd">
<svg version="1.1" xmlns="http://www.w3.org/2000/svg" xmlns:xlink="http://www.w3.org/1999/xlink" preserveAspectRatio="xMidYMid meet" viewBox="180.04085801838625 153.64657814096017 261.99999999999994 262" width="262" height="262"><defs><path d="M180.04 153.65L442.04 153.65L442.04 415.65L180.04 415.65L180.04 153.65Z" id="a2JZ25wbUt"></path><path d="M338.37 188.58L255.36 216.2L254.76 214.1L249.95 214.7L249.95 224.77L257.17 222.22L256.72 219.36L342.73 190.05L430.85 226.74L430.85 231.56L435.36 232.61L436.26 222.98L430.85 221.63L430.85 222.98L346.61 188.58L395.63 171.89L388.87 170.83L341.95 187.07L305.11 172.34L301.05 172.34L338.37 188.58Z" id="k1MmsyovRP"></path><path d="M280.31 209.45L342.73 188.65L399.57 212.41L387.53 338.65L293.98 337.6L281.3 216.38L262.32 253.17L271.96 309.14L244.6 360.26L247.15 362.37L251.21 387.48L244.6 402.97L232.72 411.39L209.86 412.74L196.93 405.07L187.15 380.26L197.68 355.75L216.32 346.43L232.26 349.74L241.99 357.36L269.81 307.44L259.26 253.17L280.31 211.81L280.31 209.45Z" id="bnPj1hNsV"></path><path d="M321.93 301.6L325.99 301.3L340.58 277.69L355.02 302.05L359.23 302.05L366.9 244.61L363.89 244.61L355.47 296.49L340.58 271.38L324.94 296.49L317.72 245.21L314.42 245.21L321.93 301.6Z" id="a2QccSkLRl"></path></defs><g><g><g><use xlink:href="#a2JZ25wbUt" opacity="1" fill="#9b7647" fill-opacity="1"></use></g><g><use xlink:href="#k1MmsyovRP" opacity="1" fill="#785545" fill-opacity="1"></use></g><g><use xlink:href="#bnPj1hNsV" opacity="1" fill="#3d509b" fill-opacity="1"></use></g><g><use xlink:href="#a2QccSkLRl" opacity="1" fill="#edca16" fill-opacity="1"></use></g></g></g></svg>