<?xml version="1.0" encoding="UTF-8" standalone="no"?>
<!DOCTYPE svg PUBLIC "-//W3C//DTD SVG 1.1//EN" "http://www.w3.org/Graphics/SVG/1.1/DTD/svg11.dtd">
<svg version="1.1" xmlns="http://www.w3.org/2000/svg" xmlns:xlink="http://www.w3.org/1999/xlink" preserveAspectRatio="xMidYMid meet" viewBox="118.97408953818285 187.07701245689168 261.9999999999999 262" width="262" height="262"><defs><path d="M118.97 187.08L380.97 187.08L380.97 449.08L118.97 449.08L118.97 187.08Z" id="h3zkCwRA9v"></path><path d="M171.37 187.08L380.97 187.08L380.97 396.68L171.37 396.68L171.37 187.08Z" id="b1930gpdD"></path><path d="M281.63 222.15L339.53 245.85L326.73 371.97L232.45 370.89L220.39 248.75L205.05 286.01L217.54 330.26L182.36 396.68L178.53 396.68L214.57 327.66L201.97 286.92L219.87 244.85L281.63 222.15Z" id="lavCq23pm"></path><path d="M277.28 221.39L194.85 250.47L194.36 248.74L188.8 248.37L189.29 257.87L196.21 254.79L195.47 253.18L282.75 223.9L369.29 260.2L368.8 263.41L375.22 265.63L374.85 256.86L371.15 255.38L370.16 256.86L286.33 222.58L337.44 205.42L324.11 205.42L280.53 220.48L245.1 206.65L277.28 221.39Z" id="a2cRV387TP"></path><path d="M266.2 279.95L266.81 303.16L291.5 303.16L291.5 279.45L294.22 279.45L294.59 333.65L291.5 333.65L291.5 307.97L266.2 307.97L266.2 333.65L263.11 333.65L262.62 279.95L266.2 279.95Z" id="b1Ua8nlEz9"></path><path d="M135.72 437.41L150.1 446.56L160.83 447.32L172.9 444.38L183.07 436.6L191.02 419.55L186.53 396.68L171.09 383.61L155.65 380.87L135.26 391.56L126.73 415.75L135.72 437.41Z" id="dgW6loQAi"></path></defs><g><g><g><use xlink:href="#h3zkCwRA9v" opacity="1" fill="#9b7647" fill-opacity="1"></use></g><g><g><use xlink:href="#b1930gpdD" opacity="1" fill="#9b7647" fill-opacity="1"></use></g><g><use xlink:href="#lavCq23pm" opacity="1" fill="#2b467e" fill-opacity="1"></use></g><g><use xlink:href="#a2cRV387TP" opacity="1" fill="#755245" fill-opacity="1"></use></g><g><use xlink:href="#b1Ua8nlEz9" opacity="1" fill="#eddc31" fill-opacity="1"></use></g></g><g><use xlink:href="#dgW6loQAi" opacity="1" fill="#2b467e" fill-opacity="1"></use></g></g></g></svg>