<?xml version="1.0" encoding="UTF-8" standalone="no"?>
<!DOCTYPE svg PUBLIC "-//W3C//DTD SVG 1.1//EN" "http://www.w3.org/Graphics/SVG/1.1/DTD/svg11.dtd">
<svg version="1.1" xmlns="http://www.w3.org/2000/svg" xmlns:xlink="http://www.w3.org/1999/xlink" preserveAspectRatio="xMidYMid meet" viewBox="186.97437861763694 216.14601066848263 262 262" width="262" height="262"><defs><path d="M186.97 216.15L448.97 216.15L448.97 478.15L186.97 478.15L186.97 216.15Z" id="b60ABft6ZE"></path><path d="M186.97 279.07L219.23 279.07L218.93 478.15L186.97 478.15L186.97 279.07Z" id="bMCRK0lLy"></path><path d="M390.71 273.89L448.97 273.89L448.97 478.01L390.94 478.15L390.71 273.89Z" id="p2l49fiShi"></path><path d="M390.52 309.77L448.97 309.77L448.97 318.26L390.7 318.44L390.52 309.77Z" id="dCrmbSCNe"></path><path d="M258.83 474.97L258.83 477.57L266.96 477.57L390.71 445.82L390.52 437.84L258.83 474.97Z" id="e1MFRC7eTO"></path><path d="M236.17 473.5L233.5 473.01L223.49 458.53L225.21 338.01L219.05 337.76L219.05 458.06L230.04 477.57L259.59 477.57L236.17 473.5Z" id="b4QJWoGxL"></path><path d="M258.83 474.95L256.56 477.23L233.54 473L223.45 458.52L225.24 338.1L260.57 341.52L259.29 444.29L376.94 400.69L390.52 437.84L258.83 474.95Z" id="a4DMqktAM"></path><path d="M259.29 446.73L250.58 464.87L258.83 474.88L258.83 477.57L252.13 476.51L243.67 469.1L243.91 461.46L251.64 446.32L259.29 444.29L259.29 446.73Z" id="b1WW0fO6Gb"></path><path d="M277.17 363.76L293.73 404.7L298.46 403.04L278.81 356.55L274.02 359.38L251.27 446.88L258.8 447.54L277.17 363.76Z" id="g1A4YSgqq0"></path><path d="M305.09 298L307.06 310.7L312.98 318.34L338.01 311.44L357.86 297.01L374.63 272.33L355.05 276.52L360.35 264.68L340.87 272.33L343.09 260.98L340.87 240.88L334.58 216.96L317.32 236.08L310.66 255.93L294.76 238.05L276.88 225.35L281.5 245.2L297.5 276.82L305.09 298Z" id="j7xVxDl5jy"></path><path d="M294.14 270.18L291.92 279.01L295.98 280.04L305.85 261.53L348.47 236.1L301.78 302.39L314.31 317.57L348.47 337.55L335.03 343.22L322.08 364.76L325.75 364.76L337.99 375.4L342.43 375.89L345.75 379.47L344.55 384.77L339.22 390.32L335.64 401.91L332.19 403.27L329.6 400.93L336.63 379.47L323.31 374.41L318.5 400.43L320.6 405.24L319.86 409.8L313.94 414.98L314.31 420.04L311.35 423.74L306.67 424.35L313.94 405.73L313.94 369.93L306.67 363.65L307.16 359.95L320.6 337.14L316.29 336.15L308.52 325.05L304.94 325.05L293.15 360.69L294.14 368.7L289.06 372.15L282.25 368.33L282.01 364.76L287.19 360.69L289.06 352.43L282.25 359.58L279.79 364.76L273.13 363.65L270.42 357.97L273.87 353.9L278.68 354.27L293.15 338.48L294.14 313.08L296.83 309.71L290.05 308.6L281.66 305.64L275.99 295.41L277.84 284.19L274.14 280.98L262.3 282.46L261.32 279.01L268.84 277.53L262.3 275.06L265.26 270.38L280.67 277.16L289.06 259.9L294.14 270.18Z" id="d6nTlblnl"></path><path d="M302.65 246.66L308.87 232.82L299.01 243.03L302.65 246.66Z" id="a1knqfLYvG"></path></defs><g><g><g><use xlink:href="#b60ABft6ZE" opacity="1" fill="#9b7647" fill-opacity="1"></use></g><g><use xlink:href="#bMCRK0lLy" opacity="1" fill="#dba5ec" fill-opacity="1"></use></g><g><use xlink:href="#p2l49fiShi" opacity="1" fill="#a5d1ec" fill-opacity="1"></use></g><g><use xlink:href="#dCrmbSCNe" opacity="1" fill="#53a0cf" fill-opacity="1"></use></g><g><use xlink:href="#e1MFRC7eTO" opacity="1" fill="#59445d" fill-opacity="1"></use></g><g><use xlink:href="#b4QJWoGxL" opacity="1" fill="#59445d" fill-opacity="1"></use></g><g><use xlink:href="#a4DMqktAM" opacity="1" fill="#fedead" fill-opacity="1"></use></g><g><use xlink:href="#b1WW0fO6Gb" opacity="1" fill="#de345a" fill-opacity="1"></use></g></g><g><use xlink:href="#g1A4YSgqq0" opacity="1" fill="#de345a" fill-opacity="1"></use></g><g><g><use xlink:href="#j7xVxDl5jy" opacity="1" fill="#aeaeae" fill-opacity="1"></use></g><g><use xlink:href="#d6nTlblnl" opacity="1" fill="#6babad" fill-opacity="1"></use></g><g><use xlink:href="#a1knqfLYvG" opacity="1" fill="#6babad" fill-opacity="1"></use></g></g></g></svg>