<?xml version="1.0" encoding="UTF-8" standalone="no"?>
<!DOCTYPE svg PUBLIC "-//W3C//DTD SVG 1.1//EN" "http://www.w3.org/Graphics/SVG/1.1/DTD/svg11.dtd">
<svg version="1.1" xmlns="http://www.w3.org/2000/svg" xmlns:xlink="http://www.w3.org/1999/xlink" preserveAspectRatio="xMidYMid meet" viewBox="186.97437861763694 216.14601066848263 262 262" width="262" height="262"><defs><path d="M186.97 216.15L448.97 216.15L448.97 478.15L186.97 478.15L186.97 216.15Z" id="a1eLiT0lbq"></path><path d="M186.97 279.07L219.23 279.07L218.93 478.15L186.97 478.15L186.97 279.07Z" id="eFqn7gsAl"></path><path d="M390.71 273.89L448.97 273.89L448.97 478.01L390.94 478.15L390.71 273.89Z" id="a2KA05B9C5"></path><path d="M390.52 309.77L448.97 309.77L448.97 318.26L390.7 318.44L390.52 309.77Z" id="a707dnpyP"></path><path d="M350.93 474.97L350.93 477.57L342.79 477.57L219.05 445.82L219.23 437.84L350.93 474.97Z" id="aF6IBwRaX"></path><path d="M373.59 473.5L376.26 473.01L386.26 458.53L384.55 338.01L390.71 337.76L390.71 458.06L379.71 477.57L350.16 477.57L373.59 473.5Z" id="cxKREidMU"></path><path d="M350.93 474.95L353.19 477.23L376.22 473L386.31 458.52L384.52 338.1L349.19 341.52L350.46 444.29L232.81 400.69L219.23 437.84L350.93 474.95Z" id="a1S73ujiBG"></path><path d="M350.46 446.73L359.17 464.87L350.93 474.88L350.93 477.57L357.62 476.51L366.09 469.1L365.84 461.46L358.11 446.32L350.46 444.29L350.46 446.73Z" id="niXZtkdZ"></path><path d="M279.05 364.87L274.16 362.36L263.2 376.94L255.87 377.63L274.16 356.15L283.94 361.17L358.23 446.55L350.7 447.21L279.05 364.87Z" id="bo08Y8ybY"></path><path d="M301.45 298.18L303.42 310.88L309.34 318.53L334.37 311.62L354.23 297.2L371 272.51L351.41 276.7L356.72 264.86L337.23 272.51L339.45 261.17L337.23 241.07L330.95 217.15L313.68 236.26L307.03 256.11L291.12 238.23L273.24 225.53L277.86 245.38L293.87 277L301.45 298.18Z" id="a41QGMBRZE"></path><path d="M290.5 270.37L288.28 279.19L292.35 280.23L302.21 261.72L344.83 236.28L298.14 302.58L310.67 317.75L344.83 337.73L331.39 343.4L318.44 364.94L322.12 364.94L334.35 375.58L338.79 376.08L342.12 379.65L340.92 384.96L335.58 390.5L332.01 402.09L328.55 403.45L325.96 401.11L332.99 379.65L319.68 374.6L314.87 400.62L316.96 405.42L316.22 409.99L310.31 415.17L310.67 420.22L307.72 423.92L303.03 424.54L310.31 405.92L310.31 370.12L303.03 363.83L303.52 360.13L316.96 337.32L312.65 336.33L304.88 325.23L301.3 325.23L289.52 360.87L290.5 368.88L285.42 372.34L278.62 368.51L278.37 364.94L283.55 360.87L285.42 352.61L278.62 359.76L276.15 364.94L269.49 363.83L266.78 358.16L270.23 354.09L275.04 354.46L289.52 338.66L290.5 313.26L293.19 309.9L286.41 308.79L278.02 305.83L272.35 295.59L274.2 284.37L270.5 281.17L258.67 282.65L257.68 279.19L265.2 277.71L258.67 275.25L261.62 270.56L277.04 277.34L285.42 260.08L290.5 270.37Z" id="a212JbWL9s"></path><path d="M299.01 246.85L305.24 233.01L295.38 243.21L299.01 246.85Z" id="d2EZQC6MxP"></path></defs><g><g><g><use xlink:href="#a1eLiT0lbq" opacity="1" fill="#9b7647" fill-opacity="1"></use></g><g><use xlink:href="#eFqn7gsAl" opacity="1" fill="#dba5ec" fill-opacity="1"></use></g><g><use xlink:href="#a2KA05B9C5" opacity="1" fill="#a5d1ec" fill-opacity="1"></use></g><g><use xlink:href="#a707dnpyP" opacity="1" fill="#53a0cf" fill-opacity="1"></use></g><g><use xlink:href="#aF6IBwRaX" opacity="1" fill="#59445d" fill-opacity="1"></use></g><g><use xlink:href="#cxKREidMU" opacity="1" fill="#59445d" fill-opacity="1"></use></g><g><use xlink:href="#a1S73ujiBG" opacity="1" fill="#fedead" fill-opacity="1"></use></g><g><use xlink:href="#niXZtkdZ" opacity="1" fill="#de345a" fill-opacity="1"></use></g></g><g><use xlink:href="#bo08Y8ybY" opacity="1" fill="#de345a" fill-opacity="1"></use></g><g><g><use xlink:href="#a41QGMBRZE" opacity="1" fill="#aeaeae" fill-opacity="1"></use></g><g><use xlink:href="#a212JbWL9s" opacity="1" fill="#6babad" fill-opacity="1"></use></g><g><use xlink:href="#d2EZQC6MxP" opacity="1" fill="#6babad" fill-opacity="1"></use></g></g></g></svg>