<?xml version="1.0" encoding="UTF-8" standalone="no"?>
<!DOCTYPE svg PUBLIC "-//W3C//DTD SVG 1.1//EN" "http://www.w3.org/Graphics/SVG/1.1/DTD/svg11.dtd">
<svg version="1.1" xmlns="http://www.w3.org/2000/svg" xmlns:xlink="http://www.w3.org/1999/xlink" preserveAspectRatio="xMidYMid meet" viewBox="201.49787234042572 137.60425531914905 262 262.0000000000001" width="262" height="262"><defs><path d="M201.5 137.6L463.5 137.6L463.5 399.6L201.5 399.6L201.5 137.6Z" id="aOUHDORoV"></path><path d="M201.5 201.51L233.15 201.51L233.15 399.6L201.5 399.6L201.5 201.51Z" id="b7T618d3e"></path><path d="M405.99 195.88L463.5 195.88L463.5 399.6L405.99 399.6L405.99 195.88Z" id="e2y5ILB4RZ"></path><path d="M399.83 364.32L274.44 398.17L247.19 396.87L235.74 379.62L236.16 272.2L239.49 260.03L275 262.06L273.89 365.49L392.44 322L405.99 358.23L399.83 364.32Z" id="fb4wU0Omf"></path><path d="M233.58 259.64L240.12 259.64L238.68 379.17L247.97 394.81L274.24 396.61L406.42 358.19L406.42 366.5L281.27 399.6L246.12 399.6L233.58 380.33L233.58 259.64Z" id="bcsFegfFK"></path><path d="M273.68 396.72L264.84 386.28L274.26 368.75L285.86 341.06L288.32 299.61L293.1 289.75L296.87 289.75L308.32 325.84L313.1 324.54L302.38 291.06L293.1 282.65L288.32 286.13L283.97 308.01L283.1 339.06L257.89 382.82L258.61 390.8L266.15 397.17L273.68 396.72Z" id="d2k4DQfBtt"></path><path d="M316.89 207.66L322.32 234.69L323.12 239.47L351.52 233.38L369.93 220.63L386.6 195.88L368.91 199.33L374.13 188.31L354.86 194.54L356.74 184.83L355.73 165.56L349.2 137.6L332.5 157.15L325.15 177.88L309.2 159.33L291.52 147.15L297.17 169.47L312.39 197.3L316.89 207.66Z" id="b5mPVut7Ff"></path><path d="M289.72 202.54L292.32 205.01L291.6 217.62L295.95 226.6L304.06 230.09L312.03 230.09L308.56 235.17L307.54 259.49L293.63 275.6L287.54 275.6L284.93 278.79L288.99 285.97L294.06 286.26L296.96 280.67L304.06 273.72L302.61 281.69L296.96 285.6L296.96 289.8L303.48 293.57L309.28 289.37L308.56 277.78L319.65 246.33L323.48 246.33L329.86 257.78L335.22 258.07L321.45 281.25L321.45 285.6L328.56 291.25L328.56 324.01L320.59 346.47L321.45 348.07L325.51 346.47L328.99 340.24L328.99 335.6L333.77 332.12L335.22 326.04L332.9 321.83L337.69 295.31L350.59 300.38L344.06 320.82L346.82 325.31L350.15 323.57L353.92 311.83L358.56 307.78L360.15 301.25L356.38 296.26L352.18 296.26L340.59 285.97L336.38 286.26L349.14 264.46L363.05 258.95L328.99 239.33L316.24 224.11L362.47 158.17L318.7 184.54L310.01 201.07L306.96 199.76L308.56 190.63L303.48 181.21L295.51 198.89L279.72 191.79L276.96 197.01L283.34 198.89L276.09 200.49L276.09 204.11L288.41 202.95L289.72 202.54Z" id="b2IJ7wnfN1"></path><path d="M322.63 155.35L316.71 167.98L313.55 164.16L322.63 155.35Z" id="d3MHM9K8Y"></path><path d="M405.99 233.34L463.5 233.34L463.5 241.97L405.99 241.97L405.99 233.34Z" id="bcjzUAFyp"></path></defs><g><g><g><use xlink:href="#aOUHDORoV" opacity="1" fill="#9b7647" fill-opacity="1"></use></g><g><use xlink:href="#b7T618d3e" opacity="1" fill="#a4a0fd" fill-opacity="1"></use></g><g><use xlink:href="#e2y5ILB4RZ" opacity="1" fill="#f88cc6" fill-opacity="1"></use></g><g><use xlink:href="#fb4wU0Omf" opacity="1" fill="#fcd9aa" fill-opacity="1"></use></g><g><use xlink:href="#bcsFegfFK" opacity="1" fill="#d31d8c" fill-opacity="1"></use></g><g><use xlink:href="#d2k4DQfBtt" opacity="1" fill="#de395c" fill-opacity="1"></use></g><g><use xlink:href="#b5mPVut7Ff" opacity="1" fill="#bdbdbd" fill-opacity="1"></use></g><g><use xlink:href="#b2IJ7wnfN1" opacity="1" fill="#6ba8aa" fill-opacity="1"></use></g><g><use xlink:href="#d3MHM9K8Y" opacity="1" fill="#6ba8aa" fill-opacity="1"></use></g><g><use xlink:href="#bcjzUAFyp" opacity="1" fill="#aa6b8b" fill-opacity="1"></use></g></g></g></svg>