<?xml version="1.0" encoding="UTF-8" standalone="no"?>
<!DOCTYPE svg PUBLIC "-//W3C//DTD SVG 1.1//EN" "http://www.w3.org/Graphics/SVG/1.1/DTD/svg11.dtd">
<svg version="1.1" xmlns="http://www.w3.org/2000/svg" xmlns:xlink="http://www.w3.org/1999/xlink" preserveAspectRatio="xMidYMid meet" viewBox="186.97437861763694 216.14601066848263 262 262" width="262" height="262"><defs><path d="M186.97 216.15L448.97 216.15L448.97 478.15L186.97 478.15L186.97 216.15Z" id="asoZ8GHkJ"></path><path d="M186.97 279.07L219.23 279.07L218.93 478.15L186.97 478.15L186.97 279.07Z" id="b2kRx22ZuS"></path><path d="M390.71 273.89L448.97 273.89L448.97 478.01L390.94 478.15L390.71 273.89Z" id="bIoKzC5J"></path><path d="M390.52 309.77L448.97 309.77L448.97 318.26L390.7 318.44L390.52 309.77Z" id="fVF5lbKe"></path><path d="M350.93 474.97L350.93 477.57L342.79 477.57L219.05 445.82L219.23 437.84L350.93 474.97Z" id="c2iRKqtGh2"></path><path d="M373.59 473.5L376.26 473.01L386.26 458.53L384.55 338.01L390.71 337.76L390.71 458.06L379.71 477.57L350.16 477.57L373.59 473.5Z" id="a26w2qnQ0"></path><path d="M350.93 474.95L353.19 477.23L376.22 473L386.31 458.52L384.52 338.1L349.19 341.52L350.46 444.29L232.81 400.69L219.23 437.84L350.93 474.95Z" id="c14LVN6wVd"></path><path d="M350.46 446.73L359.17 464.87L350.93 474.88L350.93 477.57L357.62 476.51L366.09 469.1L365.84 461.46L358.11 446.32L350.46 444.29L350.46 446.73Z" id="aerfzdHQn"></path><path d="M330.42 363.95L274.59 406.09L272.24 402.1L330.81 359.18L334.39 359.89L358.23 446.55L350.7 447.21L330.42 363.95Z" id="j1I0D9Tr5T"></path><path d="M304.35 298.71L302.38 311.41L296.46 319.06L271.43 312.15L251.58 297.73L234.81 273.04L254.39 277.23L249.08 265.4L268.57 273.04L266.35 261.7L268.57 241.6L274.86 217.68L292.12 236.79L298.78 256.64L314.68 238.76L332.56 226.06L327.94 245.91L311.93 277.53L304.35 298.71Z" id="b2kXj91vzg"></path><path d="M315.3 270.9L317.52 279.72L313.45 280.76L303.59 262.25L260.97 236.81L307.66 303.11L295.13 318.29L260.97 338.26L274.41 343.93L287.36 365.47L283.68 365.47L271.45 376.12L267.01 376.61L263.68 380.19L264.89 385.49L270.22 391.04L273.8 402.63L277.25 403.98L279.84 401.64L272.81 380.19L286.13 375.13L290.93 401.15L288.84 405.96L289.58 410.52L295.5 415.7L295.13 420.75L298.09 424.45L302.77 425.07L295.5 406.45L295.5 370.65L302.77 364.36L302.28 360.66L288.84 337.85L293.15 336.86L300.92 325.77L304.5 325.77L316.29 361.4L315.3 369.42L320.38 372.87L327.19 369.05L327.43 365.47L322.25 361.4L320.38 353.14L327.19 360.29L329.65 365.47L336.31 364.36L339.02 358.69L335.57 354.62L330.76 354.99L316.29 339.19L315.3 313.79L312.61 310.43L319.39 309.32L327.78 306.36L333.45 296.12L331.6 284.9L335.3 281.7L347.14 283.18L348.12 279.72L340.6 278.25L347.14 275.78L344.18 271.09L328.76 277.88L320.38 260.61L315.3 270.9Z" id="a1NywwMeRS"></path><path d="M306.79 247.38L300.57 233.54L310.43 243.75L306.79 247.38Z" id="b28MQoUMNF"></path></defs><g><g><g><use xlink:href="#asoZ8GHkJ" opacity="1" fill="#9b7647" fill-opacity="1"></use></g><g><use xlink:href="#b2kRx22ZuS" opacity="1" fill="#dba5ec" fill-opacity="1"></use></g><g><use xlink:href="#bIoKzC5J" opacity="1" fill="#a5d1ec" fill-opacity="1"></use></g><g><use xlink:href="#fVF5lbKe" opacity="1" fill="#53a0cf" fill-opacity="1"></use></g><g><use xlink:href="#c2iRKqtGh2" opacity="1" fill="#59445d" fill-opacity="1"></use></g><g><use xlink:href="#a26w2qnQ0" opacity="1" fill="#59445d" fill-opacity="1"></use></g><g><use xlink:href="#c14LVN6wVd" opacity="1" fill="#fedead" fill-opacity="1"></use></g><g><use xlink:href="#aerfzdHQn" opacity="1" fill="#de345a" fill-opacity="1"></use></g></g><g><use xlink:href="#j1I0D9Tr5T" opacity="1" fill="#de345a" fill-opacity="1"></use></g><g><g><use xlink:href="#b2kXj91vzg" opacity="1" fill="#aeaeae" fill-opacity="1"></use></g><g><use xlink:href="#a1NywwMeRS" opacity="1" fill="#6babad" fill-opacity="1"></use></g><g><use xlink:href="#b28MQoUMNF" opacity="1" fill="#6babad" fill-opacity="1"></use></g></g></g></svg>