<?xml version="1.0" encoding="UTF-8" standalone="no"?>
<!DOCTYPE svg PUBLIC "-//W3C//DTD SVG 1.1//EN" "http://www.w3.org/Graphics/SVG/1.1/DTD/svg11.dtd">
<svg version="1.1" xmlns="http://www.w3.org/2000/svg" xmlns:xlink="http://www.w3.org/1999/xlink" preserveAspectRatio="xMidYMid meet" viewBox="185.8388600646664 159.6851110359171 261.9999999999999 262.00000000000017" width="262" height="262"><defs><path d="M185.84 159.69L447.84 159.69L447.84 421.69L185.84 421.69L185.84 159.69Z" id="b4QCTx828a"></path><path d="M185.84 159.69L222.53 159.69L222.53 421.69L185.84 421.69L185.84 159.69Z" id="e4bRbpT9li"></path><path d="M222.53 193.42L252.49 193.42L255.53 421.69L222.53 421.69L222.53 193.42Z" id="b81ZFgClmB"></path><path d="M395.6 309.45L412.98 318.67L425.74 334.27L429.47 342.61L430 363.53L420.96 380.55L401.1 395.98L389.04 400.59L370.78 398.1L352.69 382.15L344.01 364.06L344.54 344.03L350.74 329.66L360.14 318.67L371.49 311.4L381.06 309.45L395.6 309.45Z" id="i4WVAZZgm"></path><path d="M425.96 355.94L426.98 361.93L421.13 374.7L413.51 382.5L408.37 380.73L386.2 388L378.58 384.27L381.24 379.49L372.73 382.15L365.28 376.3L360.49 378.42L356.06 373.46L354.47 361.93L358.72 358.39L353.93 352.89L354.47 345.27L358.72 343.32L359.43 333.03L368.3 325.94L379.11 328.78L380 322.22L381.77 321.69L385.67 325.94L390.64 321.69L397.2 326.65L404.82 326.65L409.08 323.81L416.17 330.55L425.96 355.94Z" id="a54xAhREz"></path><path d="M395.78 309.45L404.64 309.45L419.71 320.09L426.27 334.81L426.27 357.68L413.69 382.32L400.08 394.11L383.37 399.52L371.13 397.93L365.28 391.56L377.94 395.14L383.57 393.86L395.78 389.95L404.11 382.32L415.64 362.47L419.01 342.25L415.64 325.02L406.91 316.04L396.33 314.62L391.92 311.47L395.78 309.45Z" id="duYx6js9"></path><path d="M404.47 314.06L393.35 310.73L380.88 316.01L371.56 326.79L375.21 327.81L394.89 316.54L406.95 316.01L404.47 314.06Z" id="bpJSDKvR"></path><path d="M360.64 378.22L356.24 373.28L357.3 380.2L365.28 391.54L371.84 393.85L377.87 395.8L383.72 393.85L371.84 390.84L366.17 383.74L364.04 377.01L360.64 378.22Z" id="keQVxe0V6"></path><path d="M343.23 244.71L341.26 257.42L335.34 265.06L310.31 258.15L290.45 243.73L273.68 219.04L293.27 223.23L287.96 211.4L307.45 219.04L305.23 207.7L307.45 187.6L313.73 163.68L331 182.79L337.66 202.64L353.56 184.76L371.44 172.06L366.82 191.92L350.81 223.54L343.23 244.71Z" id="b15twZEoZ"></path><path d="M354.18 216.9L356.4 225.73L352.33 226.76L342.47 208.25L299.85 182.82L346.54 249.11L334.01 264.29L299.85 284.26L313.29 289.93L326.24 311.47L322.56 311.47L310.33 322.12L305.89 322.61L302.56 326.19L303.76 331.49L309.1 337.04L312.67 348.63L316.13 349.98L318.72 347.64L311.69 326.19L325 321.13L329.81 347.15L327.72 351.96L328.46 356.52L334.38 361.7L334.01 366.75L336.96 370.45L341.65 371.07L334.38 352.45L334.38 316.65L341.65 310.36L341.16 306.66L327.72 283.85L332.03 282.87L339.8 271.77L343.38 271.77L355.16 307.4L354.18 315.42L359.26 318.87L366.06 315.05L366.31 311.47L361.13 307.4L359.26 299.14L366.06 306.29L368.53 311.47L375.19 310.36L377.9 304.69L374.45 300.62L369.64 300.99L355.16 285.2L354.18 259.79L351.49 256.43L358.27 255.32L366.66 252.36L372.33 242.13L370.48 230.9L374.18 227.7L386.02 229.18L387 225.73L379.48 224.25L386.02 221.78L383.06 217.09L367.64 223.88L359.26 206.61L354.18 216.9Z" id="f724sI8IqJ"></path><path d="M345.67 193.38L339.44 179.54L349.31 189.75L345.67 193.38Z" id="brEJTJrTX"></path></defs><g><g><g><use xlink:href="#b4QCTx828a" opacity="1" fill="#9b7647" fill-opacity="1"></use></g><g><use xlink:href="#e4bRbpT9li" opacity="1" fill="#65a177" fill-opacity="1"></use></g><g><use xlink:href="#b81ZFgClmB" opacity="1" fill="#37343d" fill-opacity="1"></use></g><g><g><use xlink:href="#i4WVAZZgm" opacity="1" fill="#d4d4d4" fill-opacity="1"></use></g><g><use xlink:href="#a54xAhREz" opacity="1" fill="#bc0d34" fill-opacity="1"></use></g><g><use xlink:href="#duYx6js9" opacity="1" fill="#c07535" fill-opacity="1"></use></g><g><use xlink:href="#bpJSDKvR" opacity="1" fill="#cfa784" fill-opacity="1"></use></g><g><use xlink:href="#keQVxe0V6" opacity="1" fill="#cfa784" fill-opacity="1"></use></g></g><g><g><use xlink:href="#b15twZEoZ" opacity="1" fill="#aeaeae" fill-opacity="1"></use></g><g><use xlink:href="#f724sI8IqJ" opacity="1" fill="#6babad" fill-opacity="1"></use></g><g><use xlink:href="#brEJTJrTX" opacity="1" fill="#6babad" fill-opacity="1"></use></g></g></g></g></svg>