<?xml version="1.0" encoding="UTF-8" standalone="no"?>
<!DOCTYPE svg PUBLIC "-//W3C//DTD SVG 1.1//EN" "http://www.w3.org/Graphics/SVG/1.1/DTD/svg11.dtd">
<svg version="1.1" xmlns="http://www.w3.org/2000/svg" xmlns:xlink="http://www.w3.org/1999/xlink" preserveAspectRatio="xMidYMid meet" viewBox="167.50000000000003 150.83333333333346 262 262" width="262" height="262"><defs><path d="M167.5 150.83L429.5 150.83L429.5 412.83L167.5 412.83L167.5 150.83Z" id="g9AHClaLa"></path><path d="M167.5 150.83L191.3 150.83L191.3 412.83L167.5 412.83L167.5 150.83Z" id="b2zeP39WGY"></path><path d="M191.3 185.12L205.54 185.12L205.54 412.83L191.3 412.83L191.3 185.12Z" id="a5gjK48iUo"></path><path d="M261.99 412.83L277.46 407.1L219.23 241.72L205.54 248.33L261.99 412.83Z" id="j32GKxAxc"></path><path d="M207.9 203.51L218.08 175.64L222.16 169.44L247.9 153.33L270.31 152.95L299.75 164.01L311.79 173.36L316.11 182.68L318.98 204.25L315.73 224.06L299.34 246.74L282.31 257.6L265.19 260.47L243.8 258.81L227.69 251.58L219.81 241.72L212.04 229.36L207.9 203.51Z" id="eoMCZJQla"></path><path d="M239.69 161.82L218.08 190.58L216.51 203.54L223.45 206.71L227.53 213.17L226.51 224.74L232.9 225.93L232.62 232.04L236.05 233.72L241.88 230.85L244.94 245.48L260.03 249.19L269.1 243.17L274.9 246.58L284.06 241.72L286.19 232.04L294.44 234.35L304.44 225.93L308.6 216.67L300.45 214.91L301.56 202.22L294.81 194.91L301.29 194.45L300.45 184.82L281.57 170.17L277.46 159.33L267.31 155.91L245.37 157.85L239.69 161.82Z" id="a2uOvs64m3"></path><path d="M211.51 228.98L226.79 238.33L244.01 240.46L243.18 236.58L219.47 225.65L209.47 212.41L211.51 228.98Z" id="e13jXAXMVb"></path><path d="M314.95 188.68L317.73 206.27L306.99 223.86L304.58 225.81L306.47 217.2L302.36 215.62L308.38 209.33L311.44 197.47L309.12 184.14L314.95 188.68Z" id="g2Ur7aQmSr"></path><path d="M297.06 174.42L282.86 170.05L251.1 170.51L231.75 178.38L213.6 194.49L209.9 209.03L210.95 213.7L212.12 229.31L205.54 220.14L205.54 193.94L218.05 175.6L239.74 162.02L277.24 159.33L296.78 165.08L316.25 182.66L320.97 192.94L318.98 204.51L316.81 207.38L314.77 190.62L297.06 174.42Z" id="dXNeYFFon"></path><path d="M341.52 288.49L347.47 293.73L367.97 304.09L396.84 305.25L421.62 298.03L404.97 288.02L414.86 282.55L396.84 275.64L408.25 267.49L415.2 253.56L425.02 229.88L401.97 232.56L384.04 243.62L383.69 220.92L378.22 201.6L367.97 217.78L360.86 251.4L356.2 271.65L347.47 282.95L341.52 288.49Z" id="e2e1DGsgI8"></path><path d="M383.93 232.65L398.48 224.16L383.58 224.62L383.93 232.65Z" id="aAnFtTjD7"></path><path d="M356.61 231.89L354.4 229.31L349.04 233.05L351.14 228.51L344.85 228.51L340.06 240.43L341.22 245.58L331.71 251.84L330.16 263.77L339.71 276.17L334.82 277.22L308.04 257.54L307.18 251.26L302.69 247.07L299.36 246.72L295.82 248.81L294.7 254.11L299.36 258.42L303.67 258.88L314.98 272.04L302.38 266.57L298.5 261.33L299.36 260.05L296.45 256.79L289.58 255.62L285.16 259.47L285.16 263.77L288.3 267.61L293.87 268.38L294.34 267.22L331.71 288.52L337.53 297.02L338.08 314.32L314.98 322.47L312.19 331.67L324.53 354.13L307.18 365.43L307.18 371.48L308.46 371.48L316.38 367.06L321.73 367.06L332.26 361.39L332.72 354.4L327.95 351.96L325.85 332.28L338.08 328.91L346.69 340.43L360.2 355.91L367.06 378.73L371.02 369.42L367.06 364.99L367.65 354.75L364.84 350.56L358.92 349.63L353.06 328.41L362.4 330.85L347.84 296.04L347.84 273.87L424.56 252.79L374.74 245.58L357.62 252.79L355.3 249.19L362.4 244.76L364.84 233.59L348.78 241.62L356.61 231.89Z" id="aPALdYRgd"></path></defs><g><g><g><use xlink:href="#g9AHClaLa" opacity="1" fill="#9b7647" fill-opacity="1"></use></g><g><use xlink:href="#b2zeP39WGY" opacity="1" fill="#4262e1" fill-opacity="1"></use></g><g><use xlink:href="#a5gjK48iUo" opacity="1" fill="#79cdec" fill-opacity="1"></use></g><g><use xlink:href="#j32GKxAxc" opacity="1" fill="#b833ce" fill-opacity="1"></use></g><g><use xlink:href="#eoMCZJQla" opacity="1" fill="#d2d2d2" fill-opacity="1"></use></g><g><use xlink:href="#a2uOvs64m3" opacity="1" fill="#901a0f" fill-opacity="1"></use></g><g><use xlink:href="#e13jXAXMVb" opacity="1" fill="#b59871" fill-opacity="1"></use></g><g><use xlink:href="#g2Ur7aQmSr" opacity="1" fill="#b59871" fill-opacity="1"></use></g><g><use xlink:href="#dXNeYFFon" opacity="1" fill="#b38248" fill-opacity="1"></use></g><g><use xlink:href="#e2e1DGsgI8" opacity="1" fill="#a2a2a2" fill-opacity="1"></use></g><g><use xlink:href="#aAnFtTjD7" opacity="1" fill="#42a7b5" fill-opacity="1"></use></g><g><use xlink:href="#aPALdYRgd" opacity="1" fill="#42a7b5" fill-opacity="1"></use></g></g></g></svg>