<?xml version="1.0" encoding="UTF-8" standalone="no"?>
<!DOCTYPE svg PUBLIC "-//W3C//DTD SVG 1.1//EN" "http://www.w3.org/Graphics/SVG/1.1/DTD/svg11.dtd">
<svg version="1.1" xmlns="http://www.w3.org/2000/svg" xmlns:xlink="http://www.w3.org/1999/xlink" preserveAspectRatio="xMidYMid meet" viewBox="312.50552673133313 70.79622214702817 261.9999999999999 262.0000000000002" width="262" height="262"><defs><path d="M312.51 70.8L574.51 70.8L574.51 332.8L312.51 332.8L312.51 70.8Z" id="b1TbNVtJdw"></path><path d="M312.51 70.8L349.2 70.8L349.2 332.8L312.51 332.8L312.51 70.8Z" id="h1S67lNxQJ"></path><path d="M349.2 104.53L379.16 104.53L382.2 332.8L349.2 332.8L349.2 104.53Z" id="a5S5qGZFtW"></path><path d="M415.67 168.45L398.52 158.82L386.13 142.91L382.61 134.49L382.58 113.56L392.03 96.77L412.25 81.82L424.41 77.5L442.61 80.42L460.31 96.81L468.56 115.1L467.55 135.11L461 149.32L451.34 160.09L439.82 167.08L430.21 168.8L415.67 168.45Z" id="a24hpjABc"></path><path d="M386.43 121.25L385.56 115.23L391.71 102.61L399.52 94.99L404.62 96.89L426.95 90.15L434.48 94.06L431.71 98.78L440.28 96.33L447.58 102.35L452.42 100.34L456.73 105.41L458.05 116.97L453.71 120.41L458.37 126.02L457.65 133.63L453.35 135.48L452.4 145.75L443.36 152.62L432.62 149.53L431.58 156.06L429.79 156.55L425.99 152.21L420.93 156.34L414.49 151.22L406.87 151.04L402.54 153.77L395.62 146.87L386.43 121.25Z" id="i17voFphah"></path><path d="M415.49 168.45L406.63 168.24L391.82 157.24L385.61 142.37L386.16 119.5L399.34 95.17L413.22 83.71L430.06 78.7L442.25 80.59L447.95 87.09L435.39 83.22L429.72 84.36L417.42 87.97L408.91 95.4L396.91 114.97L393.06 135.1L396.01 152.41L404.53 161.59L415.06 163.27L419.4 166.53L415.49 168.45Z" id="c6KAkPK80"></path><path d="M406.92 163.63L417.95 167.23L430.54 162.25L440.12 151.7L436.5 150.58L416.55 161.38L404.48 161.62L406.92 163.63Z" id="bNvBj8lul"></path><path d="M452.27 100.54L456.55 105.58L455.65 98.65L447.95 87.11L441.45 84.65L435.47 82.55L429.57 84.36L441.37 87.66L446.88 94.89L448.84 101.68L452.27 100.54Z" id="akfX9wP0"></path><path d="M541.1 174.69L530.59 196.15L550.27 194.83L574.51 203.41L555.2 217.98L538.36 227.43L526 229.3L540.93 244.13L527.93 243.78L539.15 259.48L510.41 253.6L490.52 241.68L475.72 222.7L480.44 213.1L490.93 207.16L507.42 192.45L527.85 167.46L545.12 155L541.1 174.69Z" id="b2owismM6r"></path><path d="M549.9 185.72L535.12 185.31L537.38 180.25L549.9 185.72Z" id="a3ECDBI8me"></path><path d="M512.67 186.33L503.27 187.61L502.89 191.49L522.39 193.34L561.41 221.99L485.09 205.05L476.11 222.41L471.36 260.6L461.09 250.09L460.42 249.84L461.47 276.65L465.13 280.12L465.3 284.55L461.13 290.75L462.46 296L460.18 300.53L455.67 301.24L458.91 281.92L451.21 248.61L437.29 246.54L438.02 250.59L433.16 264.37L434.44 268.43L431.79 273.74L426.97 274.38L419.7 271.8L408.09 272.51L405.52 270.22L406.85 266.82L428.84 264.79L428.88 241.21L431.48 233.18L434.1 231.11L460.89 235.29L460.19 230.61L467.47 220.01L465.52 216.65L465.52 216.65L463.86 206.75L461.53 192.34L445.51 177.83L440.51 178.21L436.77 174.54L439.69 168.92L445.88 167.43L448.6 172.92L455.49 178.17L452.7 169.96L448.34 167.7L447.54 164.27L453.6 159.82L459.13 162.36L458.71 170.68L473.09 202.7L477.23 203.49L475.3 196.77L475.34 187.78L482.76 179.14L492.85 177.15L494.01 172.91L488.58 162.43L491.52 159.87L495.51 166.59L494.88 160.06L500.64 160.22L500.13 177.16L519.45 177.56L512.67 186.33Z" id="a4GSS9xYsi"></path></defs><g><g><g><use xlink:href="#b1TbNVtJdw" opacity="1" fill="#9b7647" fill-opacity="1"></use></g><g><use xlink:href="#h1S67lNxQJ" opacity="1" fill="#65a177" fill-opacity="1"></use></g><g><use xlink:href="#a5S5qGZFtW" opacity="1" fill="#37343d" fill-opacity="1"></use></g><g><g><use xlink:href="#a24hpjABc" opacity="1" fill="#d4d4d4" fill-opacity="1"></use></g><g><use xlink:href="#i17voFphah" opacity="1" fill="#bc0d34" fill-opacity="1"></use></g><g><use xlink:href="#c6KAkPK80" opacity="1" fill="#c07535" fill-opacity="1"></use></g><g><use xlink:href="#bNvBj8lul" opacity="1" fill="#cfa784" fill-opacity="1"></use></g><g><use xlink:href="#akfX9wP0" opacity="1" fill="#cfa784" fill-opacity="1"></use></g></g><g><g><use xlink:href="#b2owismM6r" opacity="1" fill="#a2a2a2" fill-opacity="1"></use></g><g><use xlink:href="#a3ECDBI8me" opacity="1" fill="#43acb7" fill-opacity="1"></use></g><g><use xlink:href="#a4GSS9xYsi" opacity="1" fill="#43acb7" fill-opacity="1"></use></g></g></g></g></svg>