<?xml version="1.0" encoding="UTF-8" standalone="no"?>
<!DOCTYPE svg PUBLIC "-//W3C//DTD SVG 1.1//EN" "http://www.w3.org/Graphics/SVG/1.1/DTD/svg11.dtd">
<svg version="1.1" xmlns="http://www.w3.org/2000/svg" xmlns:xlink="http://www.w3.org/1999/xlink" preserveAspectRatio="xMidYMid meet" viewBox="10.05829556691333 12.881083611748636 261.9999999999999 524" width="262" height="524"><defs><path d="M10.06 12.88L272.06 12.88L272.06 536.88L10.06 536.88L10.06 12.88Z" id="aVsr3aJcs"></path><path d="M97.29 133.71L95.31 146.41L89.39 154.05L64.36 147.15L44.51 132.72L27.74 108.04L47.32 112.23L42.02 100.39L61.5 108.04L59.28 96.69L61.5 76.59L67.79 52.67L85.05 71.78L91.71 91.64L107.62 73.76L125.5 61.06L120.88 80.91L104.87 112.53L97.29 133.71Z" id="e4TP2wTDzB"></path><path d="M108.23 105.89L110.46 114.72L106.39 115.75L96.53 97.24L53.91 71.81L100.59 138.1L88.06 153.28L53.91 173.26L67.35 178.93L80.29 200.46L76.62 200.46L64.39 211.11L59.95 211.6L56.62 215.18L57.82 220.48L63.15 226.03L66.73 237.62L70.18 238.98L72.77 236.63L65.74 215.18L79.06 210.12L83.87 236.14L81.77 240.95L82.51 245.51L88.43 250.69L88.06 255.75L91.02 259.45L95.71 260.06L88.43 241.44L88.43 205.64L95.71 199.36L95.21 195.66L81.77 172.84L86.09 171.86L93.86 160.76L97.43 160.76L109.22 196.4L108.23 204.41L113.31 207.86L120.12 204.04L120.37 200.46L115.19 196.4L113.31 188.13L120.12 195.29L122.59 200.46L129.25 199.36L131.96 193.68L128.51 189.61L123.7 189.98L109.22 174.19L108.23 148.79L105.55 145.42L112.33 144.31L120.71 141.35L126.39 131.12L124.54 119.9L128.23 116.69L140.07 118.17L141.06 114.72L133.54 113.24L140.07 110.77L137.11 106.09L121.7 112.87L113.31 95.61L108.23 105.89Z" id="b1eQbVBCnO"></path><path d="M99.73 82.37L93.5 68.53L103.36 78.74L99.73 82.37Z" id="gcMpTXfK2"></path><path d="M90.73 396.38L98.89 274.09L109.58 267.75L197.98 267.75L208.13 274.09L216.64 396.38L205.36 401.64L101.75 402.29L90.73 396.38Z" id="bjEb79e7C"></path><path d="M207.94 273.67L209.21 267.3L208.85 234.54L203.78 220.41L190.01 205.2L170.81 196.32L148.52 194.51L130.59 197.77L114.1 207.91L104.68 219.87L97.44 239.18L97.44 267.75L98.52 273.67L207.94 273.67Z" id="ePjbIdMEq"></path><path d="M197.62 267.75L202.87 256.83L202.87 237.26L195.99 219.36L180.77 206.1L160.66 199.58L145.81 199.58L125.15 206.1L109.76 221.14L103.6 236.72L104.32 256.83L109.76 267.75L197.62 267.75Z" id="c1gAPdIQud"></path><path d="M108.83 283.46L113.65 278.92L194.26 278.92L198.81 283.46L205.36 391.62L101.75 391.62L108.83 283.46Z" id="aVtqjv05j"></path><path d="M111.6 430.9L132.39 436.53L174.89 436.22L195.14 430.18L201.53 422.5L210.94 429.27L210.94 435.88L202.88 441.37L177.72 447.66L127.88 447.66L104.33 441.37L96.43 435.88L96.43 429.27L104.81 422.5L111.6 430.9Z" id="do83WQUH5"></path><path d="M111.59 431.05L132.07 436.53L174.49 436.53L194.81 430.56L201.75 422.5L200.94 403.14L182.23 410.56L125.46 410.56L106.59 402.5L104.65 422.5L111.59 431.05Z" id="b3vSb7ADQR"></path><path d="M125.56 410.6L182.22 410.6L200.91 403.33L200.91 399.65L189.58 391.62L176.36 391.62L176.36 397.57L167.58 402.2L138.4 401.54L131.04 397.85L131.04 391.62L117.53 391.62L106.67 399.27L106.67 402.78L125.56 410.6Z" id="c2aZvYKlPD"></path><path d="M131.04 397.95L138.12 401.82L167.49 402.29L176.46 397.66L176.46 391.62L130.85 391.81L131.04 397.95Z" id="b1BXs47piP"></path><path d="M171.53 301.12L190.52 335.09L189.85 364.48L173.94 391.62L133.57 391.62L117.12 364.48L117.52 332.93L135.84 301.12L171.53 301.12Z" id="cQEjdgUSa"></path><path d="M161.24 391.62L161.24 347.51L146.4 347.51L146.4 391.62L161.24 391.62Z" id="b3QfQebMJO"></path><path d="M155.89 347.51L160.04 339.35L153.46 318.36L147.2 338.55L151.35 347.51L155.89 347.51Z" id="c11upRFnxo"></path><path d="M131.29 391.62L115.38 365.55L115.38 332.26L134.64 301.12L136.77 301.12L118.19 334.47L118.19 364.95L134.1 391.62L131.29 391.62Z" id="aPLyJVROb"></path><path d="M189.18 334.8L189.18 364.35L173.41 391.62L176.08 391.62L191.45 365.55L191.99 333.88L173.81 301.12L170.33 301.12L189.18 334.8Z" id="agHN96gTt"></path><path d="M108.3 294.62L115.92 284.86L191.99 284.86L199.74 297.56L187.31 301.12L119.93 300.63L108.3 297.56L108.3 294.62Z" id="b1sKcQ8jxD"></path><path d="M191.99 284.86L186.51 278.96L186.91 267.3L120.6 267.71L120.6 278.96L115.79 284.86L191.99 284.86Z" id="beU7UW0Fp"></path><path d="M186.37 267.3L174.89 255.49L173.81 249.61L177.82 249.21L182.1 245.87L171.67 239.18L136.24 239.18L124.74 245.87L129.69 249.21L132.76 249.21L132.76 255.49L120.46 268.06L186.37 267.3Z" id="c1OwyiGDFw"></path><path d="" id="f4IDmOydAu"></path></defs><g><g><g><use xlink:href="#aVsr3aJcs" opacity="1" fill="#7e7e7e" fill-opacity="1"></use></g><g><g><use xlink:href="#e4TP2wTDzB" opacity="1" fill="#aeaeae" fill-opacity="1"></use></g><g><use xlink:href="#b1eQbVBCnO" opacity="1" fill="#6babad" fill-opacity="1"></use></g><g><use xlink:href="#gcMpTXfK2" opacity="1" fill="#6babad" fill-opacity="1"></use></g></g><g><g><use xlink:href="#bjEb79e7C" opacity="1" fill="#c9a851" fill-opacity="1"></use></g><g><use xlink:href="#ePjbIdMEq" opacity="1" fill="#000000" fill-opacity="1"></use></g><g><use xlink:href="#c1gAPdIQud" opacity="1" fill="#7e7e7e" fill-opacity="1"></use></g><g><use xlink:href="#aVtqjv05j" opacity="1" fill="#7e7e7e" fill-opacity="1"></use></g><g><use xlink:href="#do83WQUH5" opacity="1" fill="#784a00" fill-opacity="1"></use></g><g><use xlink:href="#b3vSb7ADQR" opacity="1" fill="#bf7f02" fill-opacity="1"></use></g><g><use xlink:href="#c2aZvYKlPD" opacity="1" fill="#784a00" fill-opacity="1"></use></g><g><use xlink:href="#b1BXs47piP" opacity="1" fill="#000000" fill-opacity="1"></use></g><g><use xlink:href="#cQEjdgUSa" opacity="1" fill="#feff99" fill-opacity="1"></use></g><g><use xlink:href="#b3QfQebMJO" opacity="1" fill="#bdb497" fill-opacity="1"></use></g><g><use xlink:href="#c11upRFnxo" opacity="1" fill="#fd9800" fill-opacity="1"></use></g><g><use xlink:href="#aPLyJVROb" opacity="1" fill="#bfbfbf" fill-opacity="1"></use></g><g><use xlink:href="#agHN96gTt" opacity="1" fill="#bfbfbf" fill-opacity="1"></use></g><g><use xlink:href="#b1sKcQ8jxD" opacity="1" fill="#784a00" fill-opacity="1"></use></g><g><use xlink:href="#beU7UW0Fp" opacity="1" fill="#bf7f02" fill-opacity="1"></use></g><g><use xlink:href="#c1OwyiGDFw" opacity="1" fill="#784a00" fill-opacity="1"></use></g><g><g><use xlink:href="#f4IDmOydAu" opacity="1" fill-opacity="0" stroke="#000000" stroke-width="1" stroke-opacity="1"></use></g></g></g></g></g></svg>