<?xml version="1.0" encoding="UTF-8" standalone="no"?>
<!DOCTYPE svg PUBLIC "-//W3C//DTD SVG 1.1//EN" "http://www.w3.org/Graphics/SVG/1.1/DTD/svg11.dtd">
<svg version="1.1" xmlns="http://www.w3.org/2000/svg" xmlns:xlink="http://www.w3.org/1999/xlink" preserveAspectRatio="xMidYMid meet" viewBox="116.4505927013966 161.8003937229637 261.99999999999994 262.0000000000001" width="262" height="262"><defs><path d="M116.45 161.8L378.45 161.8L378.45 423.8L116.45 423.8L116.45 161.8Z" id="b3g4zN2Zg"></path><path d="M116.53 175.12L138.25 175.01L138.72 423.7L116.53 423.58L116.53 175.12Z" id="b8rUcEvQv"></path><path d="M138.09 174.84L179.03 174.96L179.02 423.76L138.7 423.69L138.09 174.84Z" id="aSZqam2z5"></path><path d="M178.82 191.64L232.76 191.88L232.86 423.71L178.95 423.71L178.82 191.64Z" id="d8ayf6Rivr"></path><path d="M178.85 212.85L232.74 213.08L232.62 226.45L178.85 226.56L178.85 212.85Z" id="auTb5uJrv"></path><path d="M232.86 390.37L378.45 390.37L378.45 423.8L232.86 423.8L232.86 390.37Z" id="amF7LSpgb"></path><path d="M232.86 361.41L357.01 361.41L357.01 390.37L232.86 390.37L232.86 361.41Z" id="bcap0eVBLh"></path><path d="M271.44 303.64L269.27 308.25L270.29 293.41L266.95 297.62L272.75 280.18L265.98 284.64L274.02 270.46L269.28 272.08L280.28 263.13L271.45 264.37L287.86 258.11L280.94 255.79L303.35 251.88L298.25 247.01L316.68 254.31L317.37 244.52L321.24 254.06L326.15 247.36L324.6 252.44L333.27 251.33L327.29 255.4L335.59 257.97L340.81 251.84L343.36 260.7L349.79 262.83L360.38 276.75L356.61 274.67L363.96 285.81L357 280.82L359.6 287.06L362.96 303.81L360.08 298.62L356.92 315.58L355.83 309.23L351.59 320.2L351.21 316.9L337.61 329.26L339.99 322.56L329.16 329.57L329.75 327.37L322.02 331.62L292.29 331.61L273.03 316.81L271.44 303.64Z" id="a5fXcMJIrm"></path><path d="M309.61 285.96L305.13 290.91L301.91 291.54L298.54 289.33L296.99 283.94L299.25 280.48L304.98 278.83L308.47 280.19L309.61 285.96Z" id="b1mkccu3"></path><path d="M334.97 294.19L336.37 290.31L329.96 292.45L334.97 294.19Z" id="dE5RNi7Uz"></path><path d="M337.5 270.85L342.5 273.62L344.17 277.87L342.17 281.7L336.39 280.11L334.55 274.73L337.5 270.85Z" id="arZXYdh1o"></path><path d="M242.25 335.44L371.53 335.44L371.53 358.14L242.25 358.14L242.25 335.44Z" id="h4kF5IJoG"></path><path d="M232.86 331.62L375.7 331.62L375.7 335.42L242.47 335.8L250.96 346.93L242.47 357.92L375.7 357.92L375.7 361.41L232.86 361.41L232.86 331.62Z" id="duaIM3tPm"></path><path d="M249.25 390.37L249.25 423.8L244.07 423.8L244.07 390.37L249.25 390.37Z" id="a2C0NpCXyz"></path><path d="M343.88 361.41L343.88 390.37L352.13 390.37L351.56 361.41L343.88 361.41Z" id="f1uaH6VhTQ"></path></defs><g><g><g><use xlink:href="#b3g4zN2Zg" opacity="1" fill="#9b7647" fill-opacity="1"></use></g><g><use xlink:href="#b8rUcEvQv" opacity="1" fill="#e35585" fill-opacity="1"></use></g><g><use xlink:href="#aSZqam2z5" opacity="1" fill="#9355e3" fill-opacity="1"></use></g><g><use xlink:href="#d8ayf6Rivr" opacity="1" fill="#e355e3" fill-opacity="1"></use></g><g><use xlink:href="#auTb5uJrv" opacity="1" fill="#a237a2" fill-opacity="1"></use></g><g><use xlink:href="#amF7LSpgb" opacity="1" fill="#a83c77" fill-opacity="1"></use></g><g><use xlink:href="#bcap0eVBLh" opacity="1" fill="#7c1ae7" fill-opacity="1"></use></g><g><g><use xlink:href="#a5fXcMJIrm" opacity="1" fill="#ff63b7" fill-opacity="1"></use></g><g><use xlink:href="#b1mkccu3" opacity="1" fill="#a83c77" fill-opacity="1"></use></g><g><use xlink:href="#dE5RNi7Uz" opacity="1" fill="#000000" fill-opacity="1"></use></g><g><use xlink:href="#arZXYdh1o" opacity="1" fill="#a83c77" fill-opacity="1"></use></g></g><g><use xlink:href="#h4kF5IJoG" opacity="1" fill="#ecebd2" fill-opacity="1"></use></g><g><use xlink:href="#duaIM3tPm" opacity="1" fill="#a83c77" fill-opacity="1"></use></g><g><use xlink:href="#a2C0NpCXyz" opacity="1" fill="#ff54b1" fill-opacity="1"></use></g><g><use xlink:href="#f1uaH6VhTQ" opacity="1" fill="#4a1d7b" fill-opacity="1"></use></g></g></g></svg>