<?xml version="1.0" encoding="UTF-8" standalone="no"?>
<!DOCTYPE svg PUBLIC "-//W3C//DTD SVG 1.1//EN" "http://www.w3.org/Graphics/SVG/1.1/DTD/svg11.dtd">
<svg version="1.1" xmlns="http://www.w3.org/2000/svg" xmlns:xlink="http://www.w3.org/1999/xlink" preserveAspectRatio="xMidYMid meet" viewBox="166.78396871945256 122.91300097751719 262 262" width="262" height="262"><defs><path d="M166.78 122.91L428.78 122.91L428.78 384.91L166.78 384.91L166.78 122.91Z" id="c23orqoSI"></path><path d="M205.57 311.34L284.6 319.06L287.25 331.2L293.43 327.45L295.41 351.29L307.78 341.36L314.4 366.75L323.67 357.25L336.92 370.94L235.81 381.54L176.87 370.94L178.2 315.97L205.57 311.34Z" id="c1KnRBJAiM"></path><path d="M179.52 370.94L195.41 349.31L179.52 318.84L285.04 318.84L271.57 305.16L179.52 305.82L166.78 317.96L166.78 370.94L181.29 384.91L351.71 384.91L337.36 370.94L179.52 370.94Z" id="d4h6twQDlC"></path><path d="M183.05 237.61L171.57 265.64L180.62 297.21L266.94 290.37L262.74 273.15L259.24 279.11L254.13 267.85L241.33 273.15L243.98 249.97L240.67 244.23L183.05 237.61Z" id="aBGz7rujm"></path><path d="M266.72 289.7L183.49 289.7L182.17 243.35L254.8 244.67L251.04 231.87L178.86 231.87L166.78 243.35L166.78 289.7L179.52 305.82L271.57 305.16L266.72 289.7Z" id="cCn6uxK5C"></path><path d="M416.76 370.26L413.45 384.91L402.19 384.38L400.43 382.84L416.76 370.26Z" id="eDRF8h9ar"></path><path d="M359.14 358.11L349.21 367.16L349.21 345.75L359.14 358.11Z" id="c7ij8xTvO"></path><path d="M400.55 356.46L376.26 331.62L369.64 342L400.55 356.46Z" id="ejltXhLe7"></path><path d="M419.19 346.44L428.78 355.24L428.78 347.52L419.19 346.44Z" id="fAGs63bE"></path><path d="M403.3 332.73L416.1 332.73L403.3 317.72L388.95 317.72L403.3 332.73Z" id="a4PGTk6EF2"></path><path d="M428.78 318.38L421.62 305.82L428.78 305.82L428.78 318.38Z" id="atdjYirYa"></path><path d="M350.31 324.12L349.21 339.35L329.34 321.25L330.45 305.16L350.31 324.12Z" id="guNJBDeMj"></path><path d="M305.11 249.7L299.59 283.48L286.56 267.41L291.86 239.33L305.11 249.7Z" id="d67X40JZZ7"></path><path d="M323.43 259.86L326.96 287.23L309.08 271.56L323.43 259.86Z" id="a48mv1iQtd"></path><path d="M347.71 302.9L355.88 294.29L336.92 293.19L347.71 302.9Z" id="gou9eTHO1"></path><path d="M384.35 285.69L383.69 264.94L374.42 274.87L384.35 285.69Z" id="a77nwheTx"></path><path d="M336.92 259.86L347.2 259.86L337.93 241.31L323.36 241.31L336.92 259.86Z" id="dnLINTLYH"></path><path d="M304.73 231.87L307.97 209.15L283.69 231.87L304.73 231.87Z" id="gX0nocyHV"></path><path d="M294.88 171.84L303.71 144.91L285.61 158.82L275.9 187.3L294.88 171.84Z" id="g5GkrlyNP"></path><path d="M341.68 227.92L348.53 224.16L346.4 195.24L336.92 203.19L341.68 227.92Z" id="apAR0g5Es"></path><path d="M383.41 138.95L383.41 163.24L355.88 187.3L360.23 160.59L383.41 138.95Z" id="a4R3J7tWoZ"></path><path d="M399.3 187.3L407.47 182.22L405.7 155.29L398.2 171.62L399.3 187.3Z" id="e2UUpGhUa"></path><path d="M428.22 167.43L428.22 170.3L415.63 190.39L415.63 174.94L428.22 167.43Z" id="aJn91E3cu"></path><path d="M373.82 243.01L384.35 243.46L373.82 231.09L362.35 231.09L373.82 243.01Z" id="a11QUQf9Ay"></path><path d="M402.52 231.09L406.28 231.09L398.99 212.55L392.81 215.42L402.52 231.09Z" id="e3ugUqw7R"></path></defs><g><g><g><use xlink:href="#c23orqoSI" opacity="1" fill="#9b7647" fill-opacity="1"></use></g><g><use xlink:href="#c1KnRBJAiM" opacity="1" fill="#ecd5ab" fill-opacity="1"></use></g><g><use xlink:href="#d4h6twQDlC" opacity="1" fill="#4f718d" fill-opacity="1"></use></g><g><use xlink:href="#aBGz7rujm" opacity="1" fill="#ecd5ab" fill-opacity="1"></use></g><g><use xlink:href="#cCn6uxK5C" opacity="1" fill="#cc99ff" fill-opacity="1"></use></g><g><use xlink:href="#eDRF8h9ar" opacity="1" fill="#ecd5ab" fill-opacity="1"></use></g><g><use xlink:href="#c7ij8xTvO" opacity="1" fill="#ecd5ab" fill-opacity="1"></use></g><g><use xlink:href="#ejltXhLe7" opacity="1" fill="#ecd5ab" fill-opacity="1"></use></g><g><use xlink:href="#fAGs63bE" opacity="1" fill="#ecd5ab" fill-opacity="1"></use></g><g><use xlink:href="#a4PGTk6EF2" opacity="1" fill="#ecd5ab" fill-opacity="1"></use></g><g><use xlink:href="#atdjYirYa" opacity="1" fill="#ecd5ab" fill-opacity="1"></use></g><g><use xlink:href="#guNJBDeMj" opacity="1" fill="#4f718d" fill-opacity="1"></use></g><g><use xlink:href="#d67X40JZZ7" opacity="1" fill="#cc99ff" fill-opacity="1"></use></g><g><use xlink:href="#a48mv1iQtd" opacity="1" fill="#ecd5ab" fill-opacity="1"></use></g><g><use xlink:href="#gou9eTHO1" opacity="1" fill="#ecd5ab" fill-opacity="1"></use></g><g><use xlink:href="#a77nwheTx" opacity="1" fill="#ecd5ab" fill-opacity="1"></use></g><g><use xlink:href="#dnLINTLYH" opacity="1" fill="#ecd5ab" fill-opacity="1"></use></g><g><use xlink:href="#gX0nocyHV" opacity="1" fill="#ecd5ab" fill-opacity="1"></use></g><g><use xlink:href="#g5GkrlyNP" opacity="1" fill="#cc99ff" fill-opacity="1"></use></g><g><use xlink:href="#apAR0g5Es" opacity="1" fill="#cc99ff" fill-opacity="1"></use></g><g><use xlink:href="#a4R3J7tWoZ" opacity="1" fill="#4f718d" fill-opacity="1"></use></g><g><use xlink:href="#e2UUpGhUa" opacity="1" fill="#4f718d" fill-opacity="1"></use></g><g><use xlink:href="#aJn91E3cu" opacity="1" fill="#ecd5ab" fill-opacity="1"></use></g><g><use xlink:href="#a11QUQf9Ay" opacity="1" fill="#ecd5ab" fill-opacity="1"></use></g><g><use xlink:href="#e3ugUqw7R" opacity="1" fill="#ecd5ab" fill-opacity="1"></use></g></g></g></svg>