<?xml version="1.0" encoding="UTF-8" standalone="no"?>
<!DOCTYPE svg PUBLIC "-//W3C//DTD SVG 1.1//EN" "http://www.w3.org/Graphics/SVG/1.1/DTD/svg11.dtd">
<svg version="1.1" xmlns="http://www.w3.org/2000/svg" xmlns:xlink="http://www.w3.org/1999/xlink" preserveAspectRatio="xMidYMid meet" viewBox="241.23167155425216 186.72531769305965 262.00000000000006 262" width="262" height="262"><defs><path d="M241.23 186.73L503.23 186.73L503.23 448.73L241.23 448.73L241.23 186.73Z" id="b6WiQu8nJ0"></path><path d="M241.23 217.91L303.55 217.91L303.55 448.73L241.23 448.73L241.23 217.91Z" id="c100dKFWU"></path><path d="M278.13 254.95L285.59 261.94L286.38 272.09L280.99 276.38L280.99 277.97L287.97 281.78L289.08 296.38L285.59 303.05L255.11 305.43L253.21 256.22L278.13 254.95Z" id="cqSvtHcio"></path><path d="M276.23 257.65L283.05 262.57L284 270.03L279.4 276.54L257.81 279.55L257.02 258.6L276.23 257.65Z" id="g69V6KnQk"></path><path d="M277.5 278.76L285.27 283.52L286.23 295.59L284 300.03L259.08 301.14L257.97 281.94L277.5 278.76Z" id="a5UDa8la8n"></path><path d="M316.46 401.05L314.52 442.29L496.42 441.12L496.42 399.49L316.46 401.05Z" id="bR3SNExi2"></path><path d="M303.55 448.73L503.23 448.73L503.23 438.19L317.16 438.19L330.97 419.7L320 405.11L503.23 402.19L503.23 392.47L303.55 396.18L303.55 448.73Z" id="b2k1secbb"></path><path d="M354.8 273.98L462.22 259.7L471.08 261.41L476.51 265.13L481.94 280.19L481.94 293.98L471.65 314.55L462.22 329.98L447.37 339.41L438.51 340.27L436.22 352.84L432.8 363.7L425.08 385.41L408.8 394.27L379.94 394.27L350.8 382.84L346.22 364.84L338.8 314.55L354.8 273.98Z" id="a2aaB9ue6f"></path><path d="M360.42 275.81L380.03 272.64L421.51 268.26L441.11 275.81L425.73 363.67L424.22 367.89L402.35 374.14L369.62 375.13L353.48 368.95L351.52 365.03L345.04 316.01L360.42 275.81Z" id="b8OvRbD8gi"></path><path d="M454.09 272.74L463.44 272.74L467.36 277.57L466.6 294.16L458.76 309.7L446.24 321.7L440.36 323.57L446.24 278.48L454.09 272.74Z" id="bbAFQb6J4"></path><path d="M373.26 274.83L387.71 280.41L403.81 279.42L418.09 270.56L425.81 276.96L437.96 277.47L456.52 268.26L460.79 260.21L459.14 240.34L450.93 230.98L441.11 229.67L437.3 218.83L421.54 213.74L418.09 213.74L418.09 211.61L406.43 200.61L393.08 197.32L379.5 197.32L362.1 209.65L357.17 219.99L357.5 221.63L344.53 223.93L330.24 236.41L327.78 249.45L331.23 255.03L329.26 255.03L324.99 269.48L330.24 287.71L338.14 294.28L335.99 294.93L333.86 306.3L338.14 314.18L354.36 318.69L360.66 316.43L367.87 298.64L368.77 277.47L373.26 274.83Z" id="d4Cx5tQcDg"></path></defs><g><g><g><use xlink:href="#b6WiQu8nJ0" opacity="1" fill="#9b7647" fill-opacity="1"></use></g><g><use xlink:href="#c100dKFWU" opacity="1" fill="#bd2a1c" fill-opacity="1"></use></g><g><use xlink:href="#cqSvtHcio" opacity="1" fill="#e69a49" fill-opacity="1"></use></g><g><use xlink:href="#g69V6KnQk" opacity="1" fill="#bd2a1c" fill-opacity="1"></use></g><g><use xlink:href="#a5UDa8la8n" opacity="1" fill="#bd2a1c" fill-opacity="1"></use></g><g><use xlink:href="#bR3SNExi2" opacity="1" fill="#edddb8" fill-opacity="1"></use></g><g><use xlink:href="#b2k1secbb" opacity="1" fill="#1c31bd" fill-opacity="1"></use></g><g><use xlink:href="#a2aaB9ue6f" opacity="1" fill="#8c8c8c" fill-opacity="1"></use></g><g><use xlink:href="#b8OvRbD8gi" opacity="1" fill="#bf9c41" fill-opacity="1"></use></g><g><use xlink:href="#bbAFQb6J4" opacity="1" fill="#9b7647" fill-opacity="1"></use></g><g><use xlink:href="#d4Cx5tQcDg" opacity="1" fill="#fffdec" fill-opacity="1"></use></g></g></g></svg>