<?xml version="1.0" encoding="UTF-8" standalone="no"?>
<!DOCTYPE svg PUBLIC "-//W3C//DTD SVG 1.1//EN" "http://www.w3.org/Graphics/SVG/1.1/DTD/svg11.dtd">
<svg version="1.1" xmlns="http://www.w3.org/2000/svg" xmlns:xlink="http://www.w3.org/1999/xlink" preserveAspectRatio="xMidYMid meet" viewBox="357.2564694457032 42.15053763440824 261.99999999999983 262" width="262" height="262"><defs><path d="M357.26 42.15L619.26 42.15L619.26 304.15L357.26 304.15L357.26 42.15Z" id="d6LVClcbCh"></path><path d="M589.46 300.8L589.16 297.4L582.17 283.99L589.16 271.64L589.46 267.69L357.26 267.69L357.26 300.8L589.46 300.8Z" id="d1gJztUENr"></path><path d="M366.07 284.88L379.84 298.95L360.98 298.95L360.98 269.91L380.74 268.71L366.07 284.88Z" id="api8JJ0ec"></path><path d="M589.46 263.83L357.26 263.83L357.26 304.15L589.46 303.29L589.46 297.39L363.05 297.39L363.05 271.04L589.46 271.76L589.46 263.83Z" id="b2H3XYChmq"></path><path d="M509.13 255.22L557.98 238.55L582.17 253.91L557.17 252.6L542.62 262.08L514.53 304.09L506.34 304.15L509.13 255.22Z" id="bKlgv4BAW"></path><path d="M568.44 224.46L586.41 219.24L604.72 193.74L602.1 169.73L595.4 169.73L596.71 183.12L590.83 197.83L574.65 211.56C566.89 211.76 562.04 211.89 560.1 211.94C549.28 212.23 538.58 214.25 528.41 217.93C528.41 217.93 528.41 217.93 528.41 217.93L568.44 224.46Z" id="cRvcIHM6d"></path><path d="M413.91 200.55L423.01 130.9L469.98 117.48L484.52 126.48L455.76 127.44L438.19 146.93L436.59 171.53L438.51 183.67L485.47 264.09L455.18 264.09L413.91 200.55Z" id="ba1c0x7EnE"></path><path d="M492.62 237.83L513.78 222.73L527.19 218.03L580.54 217.6L588.81 210.89L601.08 194.06L599.94 174.37L579.11 149.41L554.43 153.69L538.88 173.15L539.45 185.22L554.43 190.92L567.13 185.22L555.29 194.77L539.45 192.49L532.18 183.22L533.75 169.81L545.73 145.27L575.69 138L588.81 142.71L606.04 160.58L609.18 173.15L609.18 191.82L603.93 206.21L595.02 219.64L574.05 227.91L597.59 240.75L608.28 264.72L609.85 287.4L602.86 302.81L599.3 274.7L592.45 264L582.22 253.89L552.98 244.9L542.28 249.32L506.48 304.15L444.57 304.15L492.62 237.83Z" id="b5lsUickA"></path><path d="M456.12 264.09L422.7 189.64L423.65 156.82L439.63 130.14L468.05 121.41L484.44 126.32L505.19 147.55L507.21 177.6L495.07 189.64L477.4 194.01L470.9 187.21L476.53 169.25L466.82 181.19L467.5 193.52L477.69 200.61L495.75 200.12L514.97 188.09L521.56 178.79L521.56 144.22L514.56 126.32L493.17 107.6L475.88 101.22L445.43 104.51L423.21 118.09L410.24 134.35L401.4 173.15L420.95 264.09L456.12 264.09Z" id="bqBFoZqT"></path></defs><g><g><g><use xlink:href="#d6LVClcbCh" opacity="1" fill="#9b7647" fill-opacity="1"></use></g><g><use xlink:href="#d1gJztUENr" opacity="1" fill="#e6e3b9" fill-opacity="1"></use></g><g><use xlink:href="#api8JJ0ec" opacity="1" fill="#53689f" fill-opacity="1"></use></g><g><use xlink:href="#b2H3XYChmq" opacity="1" fill="#394a78" fill-opacity="1"></use></g><g><use xlink:href="#bKlgv4BAW" opacity="1" fill="#53689f" fill-opacity="1"></use></g><g><use xlink:href="#cRvcIHM6d" opacity="1" fill="#53689f" fill-opacity="1"></use></g><g><use xlink:href="#ba1c0x7EnE" opacity="1" fill="#53689f" fill-opacity="1"></use></g><g><use xlink:href="#b5lsUickA" opacity="1" fill="#394a78" fill-opacity="1"></use></g><g><use xlink:href="#bqBFoZqT" opacity="1" fill="#394a78" fill-opacity="1"></use></g></g></g></svg>