<?xml version="1.0" encoding="UTF-8" standalone="no"?>
<!DOCTYPE svg PUBLIC "-//W3C//DTD SVG 1.1//EN" "http://www.w3.org/Graphics/SVG/1.1/DTD/svg11.dtd">
<svg version="1.1" xmlns="http://www.w3.org/2000/svg" xmlns:xlink="http://www.w3.org/1999/xlink" preserveAspectRatio="xMidYMid meet" viewBox="160.13685239491696 159.47214076246337 261.99999999999994 262" width="262" height="262"><defs><path d="M160.14 159.47L422.14 159.47L422.14 421.47L160.14 421.47L160.14 159.47Z" id="ai9cGVTtx"></path><path d="M245.71 284.08L188.12 239.98L190.82 202.51L270.28 159.47L323.69 215.76L250.63 281.93L245.71 284.08Z" id="m3b06xMRRf"></path><path d="M242.69 277.31L248.99 284.69L268.67 257.12L256.39 243.36L268.78 245.47L261.31 236.92L265.06 234.34L263.58 232.5L259.89 235.82L258.17 239.88L254.23 240.62L243.53 228.07L239.23 234.34L239.72 243.69L246.61 243.69L242.69 277.31Z" id="c5K1u02zQF"></path><path d="M270.11 241.96L271.09 239.93L262.93 230.51L261.67 231.6L270.11 241.96Z" id="fSEAnmZAc"></path><path d="M270.56 236.48L271.77 238.34L276.59 227.93L286.89 241.96L307.71 225.79L286.4 212.2L293.9 208.26L306.23 225.08L320.7 216.42L296.63 206.36L301.66 204.17L296.19 203.73L291.42 198.91L291.42 206.36L289.67 210.03L285.01 209.54L281.89 203.29L280.19 211.9L278.32 216.17L273.56 215.29L269.28 209.32L269.28 217.79L265.78 223L271.09 220.26L273.28 223.27L272.74 231L263.48 238.89L270.56 236.48Z" id="cCCQv2eyh"></path><path d="M252.8 299.04L325.53 242.8L328.15 220.3L322.3 214.29L306.73 222.77L257.73 263.75L248.18 279.32L252.8 299.04Z" id="d7qgaUcCG"></path><path d="M347.43 319.36L334.64 393.17L330.48 393.17L255.9 296.39L281.79 261.72L301.51 245.23L326.01 235.37L347.43 319.36Z" id="egI9TQJd5"></path><path d="M302.99 421.47L335.04 395.12L189.89 202.51L160.14 230.55L302.99 421.47Z" id="baTwMMQGas"></path><path d="M281.84 214.46L293.23 228.54L275.26 217.96L281.84 214.46Z" id="b7KBOdnba"></path><path d="M236.56 195.7L244.42 189.35L249.56 190.06L253.39 195.7L251.68 201.75L247.95 204.98L240.59 206.69L234.94 199.64L236.56 195.7Z" id="a1hLJqXHR"></path><path d="M278.52 421.47L225.28 317.52L219.55 306.49L160.61 421.47L278.52 421.47Z" id="apMhDr03D"></path><path d="M171.05 415.77L210.75 415.77L196.78 407.39L190.9 394.15L190.46 378.71L171.05 415.77Z" id="aymaq8DIq"></path><path d="M268.4 415.77L249.58 378.71L249.58 394.59L242.08 408.27L228.99 415.77L268.4 415.77Z" id="ltvV4vZkC"></path><path d="M208.4 354.3L200.9 359.15L218.11 325.92L218.11 351.65L208.4 354.3Z" id="g28WzXHosr"></path><path d="M222.67 351.51L231.05 353.42L240.46 360.77L223.11 326.51L222.67 351.51Z" id="h2UDwO460O"></path><path d="M208.4 358.42L196.78 373.86L194.28 384.15L197.96 399.45L202.37 405.48L211.64 411.8L217.67 411.8L218.11 357.24L208.4 358.42Z" id="aC2MKg1x"></path><path d="M221.78 411.8L227.81 411.8L235.46 407.68L243.55 398.86L245.9 388.12L243.99 373.27L233.4 359.15L222.22 357.24L221.78 411.8Z" id="c1HpeZEfqX"></path><path d="M387.56 421.47L380.01 159.47L322.98 159.47L333.39 421.47L387.56 421.47Z" id="bvyFEmbJv"></path><path d="M381.05 190.38L421.42 189.35L422.14 421.47L387.56 421.47L381.05 190.38Z" id="a2oxvwtmRh"></path><path d="M386.52 374.38L422.14 369.43L422.14 389.48L386.52 392.08L386.52 374.38Z" id="a4S6pdVrYZ"></path><path d="M381.05 182.71L323.69 184.01L324.8 201.72L381.05 202.51L381.05 182.71Z" id="d3dY4OXzc2"></path></defs><g><g><g><use xlink:href="#ai9cGVTtx" opacity="1" fill="#9b7647" fill-opacity="1"></use></g><g><use xlink:href="#m3b06xMRRf" opacity="1" fill="#97aab9" fill-opacity="1"></use></g><g><use xlink:href="#c5K1u02zQF" opacity="1" fill="#181818" fill-opacity="1"></use></g><g><use xlink:href="#fSEAnmZAc" opacity="1" fill="#92691a" fill-opacity="1"></use></g><g><use xlink:href="#cCCQv2eyh" opacity="1" fill="#181818" fill-opacity="1"></use></g><g><use xlink:href="#d7qgaUcCG" opacity="1" fill="#565656" fill-opacity="1"></use></g><g><use xlink:href="#egI9TQJd5" opacity="1" fill="#1378ed" fill-opacity="1"></use></g><g><use xlink:href="#baTwMMQGas" opacity="1" fill="#676697" fill-opacity="1"></use></g><g><use xlink:href="#b7KBOdnba" opacity="1" fill="#97aab9" fill-opacity="1"></use></g><g><use xlink:href="#a1hLJqXHR" opacity="1" fill="#f8f6d9" fill-opacity="1"></use></g><g><use xlink:href="#apMhDr03D" opacity="1" fill="#eaba1d" fill-opacity="1"></use></g><g><use xlink:href="#aymaq8DIq" opacity="1" fill="#9b7647" fill-opacity="1"></use></g><g><use xlink:href="#ltvV4vZkC" opacity="1" fill="#9b7647" fill-opacity="1"></use></g><g><use xlink:href="#g28WzXHosr" opacity="1" fill="#9b7647" fill-opacity="1"></use></g><g><use xlink:href="#h2UDwO460O" opacity="1" fill="#9b7647" fill-opacity="1"></use></g><g><use xlink:href="#aC2MKg1x" opacity="1" fill="#9b7647" fill-opacity="1"></use></g><g><use xlink:href="#c1HpeZEfqX" opacity="1" fill="#9b7647" fill-opacity="1"></use></g><g><use xlink:href="#bvyFEmbJv" opacity="1" fill="#296f36" fill-opacity="1"></use></g><g><use xlink:href="#a2oxvwtmRh" opacity="1" fill="#6b2bac" fill-opacity="1"></use></g><g><use xlink:href="#a4S6pdVrYZ" opacity="1" fill="#fc37d2" fill-opacity="1"></use></g><g><use xlink:href="#d3dY4OXzc2" opacity="1" fill="#a9ab14" fill-opacity="1"></use></g></g></g></svg>