<?xml version="1.0" encoding="UTF-8" standalone="no"?>
<!DOCTYPE svg PUBLIC "-//W3C//DTD SVG 1.1//EN" "http://www.w3.org/Graphics/SVG/1.1/DTD/svg11.dtd">
<svg version="1.1" xmlns="http://www.w3.org/2000/svg" xmlns:xlink="http://www.w3.org/1999/xlink" preserveAspectRatio="xMidYMid meet" viewBox="330.056435338974 335.2127754366361 265.9999999999999 266" width="262" height="262"><defs><path d="M331.06 336.21L593.06 336.21L593.06 598.21L331.06 598.21L331.06 336.21Z" id="a3fKe6YdAD"></path><path d="M472.84 360.32L520.35 360.32L523.83 598.11L472.84 598.11L472.84 360.32Z" id="a2Wiuqkx1G"></path><path d="M519.18 336.33L593.06 336.26L592.79 598.16L523.84 598.1L519.18 336.33Z" id="b5ykL6Eek"></path><path d="M519.95 369.43L593.06 367.23L593.06 385.4L520.15 386.2L519.95 369.43Z" id="f3dlMcLDnk"></path><path d="M331.06 475.67L472.56 475.67L472.56 496.83L331.06 496.83L331.06 475.67Z" id="aQz2O6lXz"></path><path d="M338.12 496.74L466.86 496.74L448.78 598.07L358.57 598.07L338.12 496.74Z" id="a3GnHLNipf"></path><path d="M427.98 423.56L425.18 391.49L399.85 365.66L360.87 368.46L348.87 394.61L372.71 431.45L344.1 405.47L341.63 374.54L356.76 357.28L404.46 356.12L437.02 387.7L435.21 438.2L400.18 475.04L389.49 474.87L427.98 423.56Z" id="eKNAs24ge"></path><path d="M373.54 401.68L363.23 416.92L358.41 409.3L373.54 401.68Z" id="b1pG8yLbjH"></path><path d="M378.14 336.21L379.95 356.78L372.22 356.95L378.14 336.21Z" id="a4vQD0C36"></path><path d="M459.56 402.99L436.2 410.23L436.64 398.71L459.56 402.99Z" id="deqecUWeL"></path><path d="M417.29 368.61L437.52 358.75L438.01 336.21L413.01 348.71L413.06 364.56L417.29 368.61Z" id="c4BOj3GJ0"></path><path d="M423.21 466.44L448.87 474.83L437.35 450.32L424.91 449.01L419.48 454.71L423.21 466.44Z" id="d6nPsrgH2e"></path></defs><g><g><use xlink:href="#a3fKe6YdAD" opacity="1" fill="#9b7647" fill-opacity="1"></use></g><g><g><use xlink:href="#a2Wiuqkx1G" opacity="1" fill="#a990ff" fill-opacity="1"></use></g><g><use xlink:href="#b5ykL6Eek" opacity="1" fill="#90ddff" fill-opacity="1"></use></g><g><use xlink:href="#f3dlMcLDnk" opacity="1" fill="#5f62e1" fill-opacity="1"></use></g></g><g><g><g><use xlink:href="#aQz2O6lXz" opacity="1" fill="#eb7454" fill-opacity="1"></use></g><g><use xlink:href="#a3GnHLNipf" opacity="1" fill="#d05b47" fill-opacity="1"></use></g></g><g><g><use xlink:href="#eKNAs24ge" opacity="1" fill="#42d137" fill-opacity="1"></use></g><g><use xlink:href="#b1pG8yLbjH" opacity="1" fill="#9aed2e" fill-opacity="1"></use></g><g><use xlink:href="#a4vQD0C36" opacity="1" fill="#9aed2e" fill-opacity="1"></use></g><g><use xlink:href="#deqecUWeL" opacity="1" fill="#9aed2e" fill-opacity="1"></use></g><g><use xlink:href="#c4BOj3GJ0" opacity="1" fill="#769548" fill-opacity="1"></use></g><g><use xlink:href="#d6nPsrgH2e" opacity="1" fill="#769548" fill-opacity="1"></use></g></g></g></g></svg>