<?xml version="1.0" encoding="UTF-8" standalone="no"?>
<!DOCTYPE svg PUBLIC "-//W3C//DTD SVG 1.1//EN" "http://www.w3.org/Graphics/SVG/1.1/DTD/svg11.dtd">
<svg version="1.1" xmlns="http://www.w3.org/2000/svg" xmlns:xlink="http://www.w3.org/1999/xlink" preserveAspectRatio="xMidYMid meet" viewBox="339.02298565264664 315.7097720544325 262 262" width="262" height="262"><defs><path d="M339.02 315.71L601.02 315.71L601.02 577.71L339.02 577.71L339.02 315.71Z" id="bLzjfSwbz"></path><path d="M381.89 453.85L374.32 493.95L395.57 524.65L396.04 555.1L385.6 576.93L358.61 577.06L346.8 552.23L346.52 525.72L362.84 493.57L349.03 454.34L381.89 453.85Z" id="azrltcuAA"></path><path d="M559.3 346.67L600.49 346.34L600.49 577.29L566.65 577.29L559.3 346.67Z" id="d2MjVm3CtE"></path><path d="M565.17 530.66L600.48 526.49L600.48 546.12L565.39 547.65L565.17 530.66Z" id="a1Buxz0KH"></path><path d="M501.88 315.73L558.52 315.73L566.63 576.79L512.7 576.85L501.88 315.73Z" id="a4WrZcbYw"></path><path d="M502.79 340.25L559.3 339.42L559.83 358.48L503.63 357.57L502.79 340.25Z" id="b1ZThPsWj6"></path><path d="M339.02 386.14L369.55 358.59L511.47 547.04L511.71 553.09L482.38 577.68L339.02 386.14Z" id="bGLHB2LMS"></path><path d="M369.55 358.69L449.52 316.05L504.31 374.49L511.49 547.28L369.55 358.69Z" id="a17pDLOM6"></path></defs><g><g><g><use xlink:href="#bLzjfSwbz" opacity="1" fill="#9b7647" fill-opacity="1"></use></g><g><use xlink:href="#azrltcuAA" opacity="1" fill="#8dbb8d" fill-opacity="1"></use></g><g><use xlink:href="#d2MjVm3CtE" opacity="1" fill="#f39f27" fill-opacity="1"></use></g><g><use xlink:href="#a1Buxz0KH" opacity="1" fill="#f2cdb2" fill-opacity="1"></use></g><g><use xlink:href="#a4WrZcbYw" opacity="1" fill="#2d778a" fill-opacity="1"></use></g><g><use xlink:href="#b1ZThPsWj6" opacity="1" fill="#8ac5d4" fill-opacity="1"></use></g><g><use xlink:href="#bGLHB2LMS" opacity="1" fill="#c89919" fill-opacity="1"></use></g><g><use xlink:href="#a17pDLOM6" opacity="1" fill="#efc961" fill-opacity="1"></use></g></g></g></svg>