<?xml version="1.0" encoding="UTF-8" standalone="no"?>
<!DOCTYPE svg PUBLIC "-//W3C//DTD SVG 1.1//EN" "http://www.w3.org/Graphics/SVG/1.1/DTD/svg11.dtd">
<svg version="1.1" xmlns="http://www.w3.org/2000/svg" xmlns:xlink="http://www.w3.org/1999/xlink" preserveAspectRatio="xMidYMid meet" viewBox="363.1808803894888 101.49766110686369 261.99999999999994 261.9999999999999" width="262" height="262"><defs><path d="M363.18 101.5L625.18 101.5L625.18 363.5L363.18 363.5L363.18 101.5Z" id="b3stQEBED"></path><path d="M584.06 132.15L624.68 131.7L624.85 363.01L591.47 363.01L584.06 132.15Z" id="a2rtFx8EXH"></path><path d="M589.93 316.14L624.81 312.15L624.75 331.66L590.15 333.13L589.93 316.14Z" id="a4l55HGJGX"></path><path d="M526.65 101.6L583.28 101.67L591.58 363.06L537.52 362.95L526.65 101.6Z" id="aQPrRRQIg"></path><path d="M527.56 125.73L584.06 124.89L584.59 143.96L528.39 143.05L527.56 125.73Z" id="a2t51gXSLA"></path><path d="M364.19 170.8L394.32 144.07L536.24 332.52L536.47 338.57L507.14 362.4L364.19 170.8Z" id="fq15CDeVt"></path><path d="M394.32 144.16L474.28 101.53L529.08 159.96L536.26 332.76L394.32 144.16Z" id="a9O1CLBRZ"></path><path d="M482.97 167.11L494.62 166.81L500.45 176.01L500.45 179.38L497.69 181.22L503.67 202.69L497.85 199.63L486.19 207.3L490.79 212.05L496.68 208.89L507.35 213.28L490.64 222.02L472.08 199.78L463.34 197.48L459.35 187.2L468.4 179.54L475.91 178.46L482.97 167.11Z" id="a4Cx5EeKH"></path><path d="M471.77 192.42L467.32 187.66L480.12 188.76L471.77 192.42Z" id="bomQMFMwY"></path><path d="M491.56 172.02L494.47 177.39L486.96 184.9L491.56 172.02Z" id="a18Y2QEkMW"></path><path d="M482.44 197.57L485.29 195.56L482.86 191.23L482.44 197.57Z" id="h6whZlJXo3"></path><path d="M489.94 192.92L487.3 194.61L484.98 190.07L489.94 192.92Z" id="f1tDCvFEPb"></path><path d="M497.77 199.54L504.47 203.07L507.78 201.16L506.73 194.82L500.63 191.87L497.64 181.13L500.4 179.41L514.75 189.75L517.82 201.05L507.26 213.28L488.81 205.6L497.77 199.54Z" id="axq993nHF"></path><path d="M451.09 171.78L460.46 174.48L482.15 164.94L461.22 150.17L492.1 156.76L492.44 152.79L483.33 145.11L456.16 142.16L451.35 146.04L448.81 151.1L461.89 162.92L442.15 161.99L441.64 166.88L438.18 171L444.93 183.15L459.19 187.37L468.05 179.86L451.09 171.78Z" id="bnCs8BTdL"></path><path d="M492.19 156.17L494.55 156.84L501.64 160.22L498.69 154.39L492.27 153.47L492.19 156.17Z" id="aPUXbAg5M"></path><path d="M407.23 239.56L399.24 280.05L415.62 298.13L415.62 348.07L403.17 362.74L384.95 362.61L371.85 347.97L371.19 300.92L386.79 280.48L377.09 239.98L407.23 239.56Z" id="b8Vvmsqes"></path></defs><g><g><g><use xlink:href="#b3stQEBED" opacity="1" fill="#9b7647" fill-opacity="1"></use></g><g><use xlink:href="#a2rtFx8EXH" opacity="1" fill="#9dc089" fill-opacity="1"></use></g><g><use xlink:href="#a4l55HGJGX" opacity="1" fill="#f2cdb2" fill-opacity="1"></use></g><g><use xlink:href="#aQPrRRQIg" opacity="1" fill="#2d8a55" fill-opacity="1"></use></g><g><use xlink:href="#a2t51gXSLA" opacity="1" fill="#ccd9bb" fill-opacity="1"></use></g><g><use xlink:href="#fq15CDeVt" opacity="1" fill="#455845" fill-opacity="1"></use></g><g><use xlink:href="#a9O1CLBRZ" opacity="1" fill="#7b886e" fill-opacity="1"></use></g><g><use xlink:href="#a4Cx5EeKH" opacity="1" fill="#38c863" fill-opacity="1"></use></g><g><use xlink:href="#bomQMFMwY" opacity="1" fill="#7b886e" fill-opacity="1"></use></g><g><use xlink:href="#a18Y2QEkMW" opacity="1" fill="#7b886e" fill-opacity="1"></use></g><g><use xlink:href="#h6whZlJXo3" opacity="1" fill="#7b886e" fill-opacity="1"></use></g><g><use xlink:href="#f1tDCvFEPb" opacity="1" fill="#7b886e" fill-opacity="1"></use></g><g><use xlink:href="#axq993nHF" opacity="1" fill="#60fe67" fill-opacity="1"></use></g><g><use xlink:href="#bnCs8BTdL" opacity="1" fill="#52fe5d" fill-opacity="1"></use></g><g><use xlink:href="#aPUXbAg5M" opacity="1" fill="#fe5252" fill-opacity="1"></use></g><g><use xlink:href="#b8Vvmsqes" opacity="1" fill="#646564" fill-opacity="1"></use></g></g></g></svg>