<?xml version="1.0" encoding="UTF-8" standalone="no"?>
<!DOCTYPE svg PUBLIC "-//W3C//DTD SVG 1.1//EN" "http://www.w3.org/Graphics/SVG/1.1/DTD/svg11.dtd">
<svg version="1.1" xmlns="http://www.w3.org/2000/svg" xmlns:xlink="http://www.w3.org/1999/xlink" preserveAspectRatio="xMidYMid meet" viewBox="73.37719138666034 319.3275035322938 262 262" width="262" height="262"><defs><path d="M73.38 319.33L335.38 319.33L335.38 581.33L73.38 581.33L73.38 319.33Z" id="aytGrnOk"></path><path d="M133.56 471.72L190.43 580.73L75.1 580.73L133.56 471.72Z" id="a2IgU7yVRO"></path><path d="M104.01 538.05L104.17 554.16L110.49 566.96L125.66 576.12L84.27 575.96L104.01 538.05Z" id="fotdYldmi"></path><path d="M113.65 520.2L122.02 514.19L131.98 511.98L131.5 485.76L113.65 520.2Z" id="a2fN46nZyw"></path><path d="M135.77 511.51L144.77 514.04L154.57 521.46L135.61 484.97L135.77 511.51Z" id="b7D2PqEe"></path><path d="M162.47 537.42L162.62 554.48L155.83 567.27L142.09 575.65L183.64 575.65L162.47 537.42Z" id="b1uvVvJ174"></path><path d="M131.66 571.86L125.03 571.22L116.81 566.48L110.97 558.9L107.49 544.52L110.18 533.47L121.55 518.77L131.98 517.04L131.66 571.86Z" id="bCsbCemCv"></path><path d="M146.04 519.41L156.94 532.68L159.62 546.1L156.62 558.43L149.2 567.43L142.88 570.43L134.82 570.75L135.45 517.35L146.04 519.41Z" id="cbljWspQio"></path><path d="M293.79 350.19L334.97 349.86L334.97 580.82L301.13 580.82L293.79 350.19Z" id="bbHbdoxc2"></path><path d="M299.65 534.18L334.96 530.02L334.96 549.64L299.87 551.18L299.65 534.18Z" id="cp0w8Hm6Z"></path><path d="M236.37 319.64L293.01 319.72L301.13 580.87L247.18 580.81L236.37 319.64Z" id="f2gcFi4DDo"></path><path d="M237.28 343.77L293.79 342.94L294.32 362L238.11 361.1L237.28 343.77Z" id="ak0RUBo51"></path><path d="M73.91 388.85L104.04 362.12L245.96 550.57L246.19 556.62L216.86 580.45L73.91 388.85Z" id="c5VwDQTBl"></path><path d="M104.04 362.21L184 319.58L238.8 378.01L245.98 550.8L104.04 362.21Z" id="b4vWh3A3Ai"></path></defs><g><g><g><use xlink:href="#aytGrnOk" opacity="1" fill="#9b7647" fill-opacity="1"></use></g><g><use xlink:href="#a2IgU7yVRO" opacity="1" fill="#f7ca37" fill-opacity="1"></use></g><g><use xlink:href="#fotdYldmi" opacity="1" fill="#9b7647" fill-opacity="1"></use></g><g><use xlink:href="#a2fN46nZyw" opacity="1" fill="#9b7647" fill-opacity="1"></use></g><g><use xlink:href="#b7D2PqEe" opacity="1" fill="#9b7647" fill-opacity="1"></use></g><g><use xlink:href="#b1uvVvJ174" opacity="1" fill="#9b7647" fill-opacity="1"></use></g><g><use xlink:href="#bCsbCemCv" opacity="1" fill="#9b7647" fill-opacity="1"></use></g><g><use xlink:href="#cbljWspQio" opacity="1" fill="#9b7647" fill-opacity="1"></use></g><g><use xlink:href="#bbHbdoxc2" opacity="1" fill="#9dc089" fill-opacity="1"></use></g><g><use xlink:href="#cp0w8Hm6Z" opacity="1" fill="#f2cdb2" fill-opacity="1"></use></g><g><use xlink:href="#f2gcFi4DDo" opacity="1" fill="#2d8a55" fill-opacity="1"></use></g><g><use xlink:href="#ak0RUBo51" opacity="1" fill="#ccd9bb" fill-opacity="1"></use></g><g><use xlink:href="#c5VwDQTBl" opacity="1" fill="#66669a" fill-opacity="1"></use></g><g><use xlink:href="#b4vWh3A3Ai" opacity="1" fill="#5481fa" fill-opacity="1"></use></g></g></g></svg>