<?xml version="1.0" encoding="UTF-8" standalone="no"?>
<!DOCTYPE svg PUBLIC "-//W3C//DTD SVG 1.1//EN" "http://www.w3.org/Graphics/SVG/1.1/DTD/svg11.dtd">
<svg version="1.1" xmlns="http://www.w3.org/2000/svg" xmlns:xlink="http://www.w3.org/1999/xlink" preserveAspectRatio="xMidYMid meet" viewBox="40.981775173377855 314.99718653119 262 262" width="262" height="262"><defs><path d="M40.98 315L302.98 315L302.98 577L40.98 577L40.98 315Z" id="g7c2HQHVy"></path><path d="M42.25 351.04L109.5 349.69L109.5 460.04L41.43 489.7L42.25 351.04Z" id="b3tVmyIR9Z"></path><path d="M41.4 489.68L109.38 460.08L109.58 576.62L41.4 576.41L41.4 489.68Z" id="bInPtDoyZ"></path><path d="M109.41 335.29L172.06 335.18L172.57 576.56L109.53 576.56L109.41 335.29Z" id="aNDMIwDuk"></path><path d="M251.14 574.82L257.66 576.7L267.95 568.29L275.63 552.64L275.49 536.7L279.54 533.51L285.34 549.74L290.85 551.48L296.65 548L302.59 530.47L302.73 510.18L295.34 500.03L288.67 499.74L283.02 506.7L283.17 508L239.98 508.29L223.6 520.47L216.5 534.53L220.56 536.99L226.21 524.38L241.57 513.66L282.01 514.67L280.99 525.83L277.22 523.51L273.02 528.44L267.37 521.77L262.44 521.48L257.8 520.61L247.66 528.15L240.85 546.41L241.14 551.48L172.73 542.79L172.73 545.97L175.49 546.55L172.3 555.4L175.78 556.55L179.69 547.71L240.99 561.34L240.99 564.53L251.14 574.82Z" id="f4aOBwgFAV"></path><path d="M268.24 529.74L271.28 548L265.92 562.64L257.37 570.61L253.6 570.47L247.08 561.19L247.22 545.11L251.86 531.92L259.69 525.11L264.91 525.4L268.24 529.74Z" id="bfHz77xj8"></path><path d="M286.21 536.84L289.98 544.96L292.3 545.54L298.38 535.54L299.54 515.25L286.36 514.82L286.21 536.84Z" id="a1gc2EfpE6"></path><path d="M292.15 504.96L295.34 504.96L296.65 508.29L290.27 508L292.15 504.96Z" id="a1t6K9FnZt"></path></defs><g><g><g><use xlink:href="#g7c2HQHVy" opacity="1" fill="#9b7647" fill-opacity="1"></use></g><g><use xlink:href="#b3tVmyIR9Z" opacity="1" fill="#99679a" fill-opacity="1"></use></g><g><use xlink:href="#bInPtDoyZ" opacity="1" fill="#cb99cc" fill-opacity="1"></use></g><g><use xlink:href="#aNDMIwDuk" opacity="1" fill="#efcd22" fill-opacity="1"></use></g><g><use xlink:href="#f4aOBwgFAV" opacity="1" fill="#2d2d2d" fill-opacity="1"></use></g><g><use xlink:href="#bfHz77xj8" opacity="1" fill="#eaeaea" fill-opacity="1"></use></g><g><use xlink:href="#a1gc2EfpE6" opacity="1" fill="#eaeaea" fill-opacity="1"></use></g><g><use xlink:href="#a1t6K9FnZt" opacity="1" fill="#eaeaea" fill-opacity="1"></use></g></g></g></svg>