<?xml version="1.0" encoding="UTF-8" standalone="no"?>
<!DOCTYPE svg PUBLIC "-//W3C//DTD SVG 1.1//EN" "http://www.w3.org/Graphics/SVG/1.1/DTD/svg11.dtd">
<svg version="1.1" xmlns="http://www.w3.org/2000/svg" xmlns:xlink="http://www.w3.org/1999/xlink" preserveAspectRatio="xMidYMid meet" viewBox="333.9013743035823 327.1532975767657 262.01812230870996 262.0334098975168" width="262.02" height="262.03"><defs><path d="M333.91 327.19L595.91 327.19L595.91 589.19L333.91 589.19L333.91 327.19Z" id="b2Hb2QZcQY"></path><path d="M333.92 327.15L595.92 327.15L595.92 589.15L333.92 589.15L333.92 327.15Z" id="m4uOXBg7Ks"></path><path d="M333.9 350.79L396.28 350.79L399.82 589.05L333.9 589.1L333.9 350.79Z" id="a2kGkBQ1uN"></path><path d="M333.95 509.52L399.73 509.52L399.82 521.41L333.9 521.41L333.95 509.52Z" id="gpHCWGVg"></path><path d="M334.02 549.88L399.75 549.92L399.75 559.51L333.97 559.55L334.02 549.88Z" id="j4v1BI53LF"></path><path d="M413.54 382.03L472.56 379.02L472.56 413.32L414.21 415.08L413.54 382.03Z" id="caHqnmCAl"></path><path d="M413.54 416.12L472.56 413.32L473.13 589.1L418.12 589.1L413.54 416.12Z" id="oy0XsSypL"></path><path d="M549.64 349.5L595.83 349.57L595.9 589.18L551.66 589.1L549.64 349.5Z" id="d2O7j7Q8q0"></path><path d="M549.64 390.64L595.72 390.64L595.79 402.03L549.78 402.31L549.64 390.64Z" id="f3tXCDx0mC"></path><path d="M473.13 460.43L496.34 451.39L496.34 470.43L484.43 474.63L473.13 460.43Z" id="egvXYD75B"></path><path d="M480.51 476.39L504.32 467.18L547.74 567.98L546.07 578.38L533.85 584.23L520.28 578.38L480.51 476.39Z" id="l5ghnsA6kl"></path></defs><g><g><g><g><use xlink:href="#b2Hb2QZcQY" opacity="1" fill-opacity="0" stroke="#75a4e5" stroke-width="1" stroke-opacity="1"></use></g></g><g><use xlink:href="#m4uOXBg7Ks" opacity="1" fill="#9b7647" fill-opacity="1"></use></g><g><use xlink:href="#a2kGkBQ1uN" opacity="1" fill="#3d1ced" fill-opacity="1"></use></g><g><use xlink:href="#gpHCWGVg" opacity="1" fill="#c7469b" fill-opacity="1"></use></g><g><use xlink:href="#j4v1BI53LF" opacity="1" fill="#c7469b" fill-opacity="1"></use></g><g><use xlink:href="#caHqnmCAl" opacity="1" fill="#484848" fill-opacity="1"></use></g><g><use xlink:href="#oy0XsSypL" opacity="1" fill="#959595" fill-opacity="1"></use></g><g><use xlink:href="#d2O7j7Q8q0" opacity="1" fill="#9f9381" fill-opacity="1"></use></g><g><use xlink:href="#f3tXCDx0mC" opacity="1" fill="#cbb886" fill-opacity="1"></use></g><g><use xlink:href="#egvXYD75B" opacity="1" fill="#d1cd7f" fill-opacity="1"></use></g><g><use xlink:href="#l5ghnsA6kl" opacity="1" fill="#1bc0e1" fill-opacity="1"></use></g></g></g></svg>