<?xml version="1.0" encoding="UTF-8" standalone="no"?>
<!DOCTYPE svg PUBLIC "-//W3C//DTD SVG 1.1//EN" "http://www.w3.org/Graphics/SVG/1.1/DTD/svg11.dtd">
<svg version="1.1" xmlns="http://www.w3.org/2000/svg" xmlns:xlink="http://www.w3.org/1999/xlink" preserveAspectRatio="xMidYMid meet" viewBox="28.000879783418497 343.0164548712937 261.99999999999994 262.2537824752726" width="262" height="262.25"><defs><path d="M28 343.02L290 343.02L290 605.02L28 605.02L28 343.02Z" id="aZfoCMX2I"></path><path d="M28.14 367.12L75.66 367.12L79.14 604.91L28.14 604.91L28.14 367.12Z" id="d3h7Jxl58p"></path><path d="M74.6 343.13L148.48 343.06L148.21 604.96L79.26 604.9L74.6 343.13Z" id="fryMX88aZ"></path><path d="M75.26 376.23L148.36 374.03L148.36 392.21L75.46 393.01L75.26 376.23Z" id="alpT9FovB"></path><path d="M289.56 474.55L276.99 481.31L281.59 485.63L290 504.45L195.29 605.27L169.09 595.76L148.48 574.17L148.48 569.5L237.49 463.28L259.3 467.64L262.92 470.3L268.89 461.52L287.38 463.28L289.56 474.55Z" id="aQwRe0MsV"></path><path d="M235.74 472.59L250.4 494.42L270.18 502.07L278.28 509.05L201.28 594.09L175.17 586.75L159 562.01L235.74 472.59Z" id="b70f1MRKXm"></path><path d="M217.25 520.44L236.04 472.59L250.61 494.41L270.18 501.73L278 508.95L274.81 512.66L233.52 533.09L229.04 541.59L160.68 563.71L159 561.84L166.97 552.97L217.25 520.44Z" id="d1ktQnnIW"></path><path d="M175.02 586.73L201.14 593.89L203.64 591.13L228.9 541.56L160.36 563.71L175.02 586.73Z" id="h4feZgOR"></path></defs><g><g><g><use xlink:href="#aZfoCMX2I" opacity="1" fill="#9b7647" fill-opacity="1"></use></g><g><use xlink:href="#d3h7Jxl58p" opacity="1" fill="#a990ff" fill-opacity="1"></use></g><g><use xlink:href="#fryMX88aZ" opacity="1" fill="#90ddff" fill-opacity="1"></use></g><g><use xlink:href="#alpT9FovB" opacity="1" fill="#5f62e1" fill-opacity="1"></use></g><g><use xlink:href="#aQwRe0MsV" opacity="1" fill="#f5c647" fill-opacity="1"></use></g><g><use xlink:href="#b70f1MRKXm" opacity="1" fill="#9b7647" fill-opacity="1"></use></g><g><use xlink:href="#d1ktQnnIW" opacity="1" fill="#cccccc" fill-opacity="1"></use></g><g><use xlink:href="#h4feZgOR" opacity="1" fill="#c2bd70" fill-opacity="1"></use></g></g></g></svg>