<?xml version="1.0" encoding="UTF-8" standalone="no"?>
<!DOCTYPE svg PUBLIC "-//W3C//DTD SVG 1.1//EN" "http://www.w3.org/Graphics/SVG/1.1/DTD/svg11.dtd">
<svg version="1.1" xmlns="http://www.w3.org/2000/svg" xmlns:xlink="http://www.w3.org/1999/xlink" preserveAspectRatio="xMidYMid meet" viewBox="193.0771511739799 128.46193359467634 262.08072314453943 262" width="262.08" height="262"><defs><path d="M193.14 128.46L455.14 128.46L455.14 390.46L193.14 390.46L193.14 128.46Z" id="bqkETDm1B"></path><path d="M193.27 128.72L244.44 128.72L237.42 389.92L193.27 390.26L193.27 128.72Z" id="arlehjHTW"></path><path d="M193.22 176.8L243.1 181.23L242.53 206.34L193.08 202.34L193.22 176.8Z" id="e6SZZxsmWU"></path><path d="M243.77 155.54L285.52 144.97L288.79 156.83L245.95 167.68L243.67 158.68L243.77 155.54Z" id="arGXLj8lM"></path><path d="M325.29 291.31L319.24 155.83L285.57 145.05L325.29 291.31Z" id="arFNjmI2F"></path><path d="M325.24 291.05L329.63 390.38L297.31 390.38L246.04 167.64L288.77 156.77L325.24 291.05Z" id="e1c8wQGSrV"></path><path d="M327.58 344.67L290.01 358.24L286.01 341.67L326.9 328.16L327.58 344.67Z" id="a4ai9pqUTM"></path><path d="M318.75 144.57L358.39 144.46L361.67 390.21L329.61 390.41L318.75 144.57Z" id="a8fvkGIY29"></path><path d="M358.4 144.5L401.5 144.4L404.24 390.41L361.63 390.41L358.4 144.5Z" id="b14scQdON"></path><path d="M360.22 286.31L403.39 310.56L403.55 329.19L360.51 310.75L360.22 286.31Z" id="b5tqonZGGE"></path><path d="M401.97 175.64L455.08 174.62L455.16 390.45L404.24 390.3L401.97 175.64Z" id="f1ZEAWy8iN"></path><path d="M402.44 208.99L455.06 206.18L454.98 240.66L402.68 242.38L402.44 208.99Z" id="a6UcOSSdtt"></path></defs><g><g><g><use xlink:href="#bqkETDm1B" opacity="1" fill="#9b7647" fill-opacity="1"></use></g><g><use xlink:href="#arlehjHTW" opacity="1" fill="#d047ae" fill-opacity="1"></use></g><g><use xlink:href="#e6SZZxsmWU" opacity="1" fill="#f8e636" fill-opacity="1"></use></g><g><use xlink:href="#arGXLj8lM" opacity="1" fill="#a38bdb" fill-opacity="1"></use></g><g><use xlink:href="#arFNjmI2F" opacity="1" fill="#d109d1" fill-opacity="1"></use></g><g><use xlink:href="#e1c8wQGSrV" opacity="1" fill="#df69e3" fill-opacity="1"></use></g><g><use xlink:href="#a4ai9pqUTM" opacity="1" fill="#8979ae" fill-opacity="1"></use></g><g><use xlink:href="#a8fvkGIY29" opacity="1" fill="#66d81d" fill-opacity="1"></use></g><g><use xlink:href="#b14scQdON" opacity="1" fill="#458bcc" fill-opacity="1"></use></g><g><use xlink:href="#b5tqonZGGE" opacity="1" fill="#45c9cc" fill-opacity="1"></use></g><g><use xlink:href="#f1ZEAWy8iN" opacity="1" fill="#ff999a" fill-opacity="1"></use></g><g><use xlink:href="#a6UcOSSdtt" opacity="1" fill="#ff3398" fill-opacity="1"></use></g></g></g></svg>