<?xml version="1.0" encoding="UTF-8" standalone="no"?>
<!DOCTYPE svg PUBLIC "-//W3C//DTD SVG 1.1//EN" "http://www.w3.org/Graphics/SVG/1.1/DTD/svg11.dtd">
<svg version="1.1" xmlns="http://www.w3.org/2000/svg" xmlns:xlink="http://www.w3.org/1999/xlink" preserveAspectRatio="xMidYMid meet" viewBox="313.8480969181475 340.5299548036526 262.05451502392594 262" width="262.05" height="262"><defs><path d="M313.85 340.53L575.85 340.53L575.85 602.53L313.85 602.53L313.85 340.53Z" id="bVisBCmd8"></path><path d="M313.88 561.51L575.81 561.63L575.81 602.34L313.88 602.48L313.88 561.51Z" id="aA3gLWUnl"></path><path d="M329.64 508.45L575.9 507.52L575.67 561.62L329.87 561.51L329.64 508.45Z" id="c88dI801f"></path><path d="M360.15 461.49L391.95 461.66L391.62 508.19L360.15 508.19L360.15 461.49Z" id="b1v70mkXm"></path><path d="M391.21 461.88L558.55 462.05L558.72 507.61L391.55 508.28L391.21 461.88Z" id="b1JH5kgQgM"></path><path d="M403.67 432.35L532.82 432.52L532.82 461.67L403.17 461.83L403.67 432.35Z" id="brFLvFrBv"></path><path d="M465.99 432.51L469.33 436.23L462.15 446.99L463.64 439.57L458.32 435.48L454.23 438.58L454.36 446.75L449.65 436.72L455.1 432.51L465.99 432.51Z" id="d9PWDtOzU"></path><path d="M493.59 432.51L498.66 439.94L494.33 445.14L494.7 439.57L490.5 434.62L478.49 442.66L482.08 432.51L493.59 432.51Z" id="bZP4elmPy"></path><path d="M502.85 432.71L507.3 412.91L507.55 365.26L505.57 360.56L501.24 357.96L503.96 356.23L500.25 344.96L494.93 353.87L485.43 347.15L472.15 347.44L470.92 342.12L451.59 360.54L450.84 374.16L449.73 373.29L440.69 400.4L443.79 432.2L502.85 432.71Z" id="b1qYfbc3X0"></path><path d="M497.36 432.67L505.03 411.38L503.92 389.6L487.95 399.13L464.93 397.77L454.41 385.51L446.49 405.44L449.46 432.3L497.36 432.67Z" id="c1Sujk8sGg"></path><path d="" id="d13zbbj3Io"></path><path d="M461.73 379.29L457.64 379.92L453.64 370.78L455.43 363.53L459 360.17L465.83 360.38L461.73 379.29Z" id="b9hTOTj3s"></path><path d="M496.92 362.69L496.08 364.37L496.92 384.54L502.91 382.86L505.43 376.24L505.22 366.68L498.92 363.01L496.92 362.69Z" id="cno6CN8Vs"></path><path d="M470.45 357.96L480.43 371.09L496.82 360.8L499.34 363.22L497.97 363.64L502.38 367.73L503.12 374.88L499.23 384.43L480.11 393.15L477.8 393.15L460.16 380.86L456.69 371.93L456.8 367.42L459.95 362.69L464.99 359.43L470.45 357.96Z" id="cN4PPIbd0"></path><path d="M469.29 372.96L465.51 369.19L465.83 366.22L467.04 365.02L471.37 364.78L475.71 370.24L469.29 372.96Z" id="a55o5GCI4K"></path><path d="M489.43 376.74L492.64 375.05L495.05 374.89L494.89 372.56L496.41 369.19L492 367.27L486.38 369.99L489.43 376.74Z" id="cxA6Y5LBo"></path><path d="M480.2 384.12L478.92 389.02L477.47 383.8L478.92 379.79L480.2 384.12Z" id="a9cpblc1v6"></path><path d="M471.93 369.11L469.93 370.88L468.64 368.55L470.09 366.78L471.93 369.11Z" id="b5a6yxZXR"></path><path d="M492.32 370.96L490.39 373.61L489.11 371.04L490.87 369.19L492.32 370.96Z" id="l9wrfeDCR"></path></defs><g><g><g><use xlink:href="#bVisBCmd8" opacity="1" fill="#9b7647" fill-opacity="1"></use></g><g><use xlink:href="#aA3gLWUnl" opacity="1" fill="#d7a8cb" fill-opacity="1"></use></g><g><use xlink:href="#c88dI801f" opacity="1" fill="#905bb6" fill-opacity="1"></use></g><g><use xlink:href="#b1v70mkXm" opacity="1" fill="#8bcbe3" fill-opacity="1"></use></g><g><use xlink:href="#b1JH5kgQgM" opacity="1" fill="#4b91ab" fill-opacity="1"></use></g><g><use xlink:href="#brFLvFrBv" opacity="1" fill="#e387d9" fill-opacity="1"></use></g><g><use xlink:href="#d9PWDtOzU" opacity="1" fill="#8f8f8f" fill-opacity="1"></use></g><g><use xlink:href="#bZP4elmPy" opacity="1" fill="#8f8f8f" fill-opacity="1"></use></g><g><use xlink:href="#b1qYfbc3X0" opacity="1" fill="#c5ad8e" fill-opacity="1"></use></g><g><use xlink:href="#c1Sujk8sGg" opacity="1" fill="#e6e6e6" fill-opacity="1"></use></g><g><g><use xlink:href="#d13zbbj3Io" opacity="1" fill-opacity="0" stroke="#ff0000" stroke-width="1" stroke-opacity="1"></use></g></g><g><use xlink:href="#b9hTOTj3s" opacity="1" fill="#444444" fill-opacity="1"></use></g><g><use xlink:href="#cno6CN8Vs" opacity="1" fill="#444444" fill-opacity="1"></use></g><g><use xlink:href="#cN4PPIbd0" opacity="1" fill="#e6e6e6" fill-opacity="1"></use></g><g><use xlink:href="#a55o5GCI4K" opacity="1" fill="#fbc513" fill-opacity="1"></use></g><g><use xlink:href="#cxA6Y5LBo" opacity="1" fill="#fbc513" fill-opacity="1"></use></g><g><use xlink:href="#a9cpblc1v6" opacity="1" fill="#fffa19" fill-opacity="1"></use></g><g><use xlink:href="#b5a6yxZXR" opacity="1" fill="#444444" fill-opacity="1"></use></g><g><use xlink:href="#l9wrfeDCR" opacity="1" fill="#444444" fill-opacity="1"></use></g></g></g></svg>