<?xml version="1.0" encoding="UTF-8" standalone="no"?>
<!DOCTYPE svg PUBLIC "-//W3C//DTD SVG 1.1//EN" "http://www.w3.org/Graphics/SVG/1.1/DTD/svg11.dtd">
<svg version="1.1" xmlns="http://www.w3.org/2000/svg" xmlns:xlink="http://www.w3.org/1999/xlink" preserveAspectRatio="xMidYMid meet" viewBox="25.305802173752227 29.727160869812224 262.55372775279125 262" width="262.55" height="262"><defs><path d="M25.86 29.73L287.86 29.73L287.86 291.73L25.86 291.73L25.86 29.73Z" id="qOgALX3o5"></path><path d="M25.31 253.8L287.1 251.03L287.1 291.64L25.31 291.64L25.31 253.8Z" id="aTGRCTGkA"></path><path d="M257.76 251.3L272.67 251.3L272.67 291.65L257.76 291.65L257.76 251.3Z" id="d51206pQjG"></path><path d="M229.79 177.33L230.95 129.97L227.79 113.94L231.26 107.51L227.96 78.47L217.73 58.33L189.34 43.15L169.38 46.29L137.3 63.07L125.58 94.92L120.96 91.12L99.01 112.9L72.22 253.53L96.31 253.53L114.46 235.71L135.91 267.56L141.36 255.18L147.79 266.73L151.09 256.83L159.18 272.18L164.96 253.04L175.02 269.21L181.95 258.32L186.41 269.54L190.7 260.79L194.16 272.67L204.23 259.97L189.87 239.67L229.79 177.33Z" id="i1cWraJoM0"></path><path d="M209.26 162.15L207.78 135.08L226.26 113.47L212.23 96.47L159.76 96.47L147.55 112.31L182.86 140.53L183.52 168.58L157.45 193.83L178.4 222.87L209.26 162.15Z" id="aG9yQDrLw"></path><path d="M170.99 62.37L184.36 67.16L174.96 78.71L159.44 71.94L170.99 62.37Z" id="byX86SOZr"></path><path d="M205.87 65.73L215.11 76.78L199.76 82.06L190.52 70.84L205.87 65.73Z" id="f8GcKHHMto"></path><path d="M173.84 63.3L179.24 73.53L175.01 78.74L166.71 75.08L168.14 64.67L170.69 62.43L173.84 63.3Z" id="b6AYcVxkaq"></path><path d="M205.91 65.73L207.89 68.16L207.82 79.26L199.79 82L196.68 78.2L200.77 67.44L205.91 65.73Z" id="d5J1QIGXF"></path><path d="M184.91 75.46L193.6 82.73L185.13 95.87L179.27 81.32L184.91 75.46Z" id="g4jwuRs65n"></path></defs><g><g><g><use xlink:href="#qOgALX3o5" opacity="1" fill="#9b7647" fill-opacity="1"></use></g><g><use xlink:href="#aTGRCTGkA" opacity="1" fill="#b700ff" fill-opacity="1"></use></g><g><use xlink:href="#d51206pQjG" opacity="1" fill="#ffcc00" fill-opacity="1"></use></g><g><use xlink:href="#i1cWraJoM0" opacity="1" fill="#ffffff" fill-opacity="1"></use></g><g><use xlink:href="#aG9yQDrLw" opacity="1" fill="#ffecfe" fill-opacity="1"></use></g><g><use xlink:href="#byX86SOZr" opacity="1" fill="#fff900" fill-opacity="1"></use></g><g><use xlink:href="#f8GcKHHMto" opacity="1" fill="#fff900" fill-opacity="1"></use></g><g><use xlink:href="#b6AYcVxkaq" opacity="1" fill="#414141" fill-opacity="1"></use></g><g><use xlink:href="#d5J1QIGXF" opacity="1" fill="#414141" fill-opacity="1"></use></g><g><use xlink:href="#g4jwuRs65n" opacity="1" fill="#414141" fill-opacity="1"></use></g></g></g></svg>