<?xml version="1.0" encoding="UTF-8" standalone="no"?>
<!DOCTYPE svg PUBLIC "-//W3C//DTD SVG 1.1//EN" "http://www.w3.org/Graphics/SVG/1.1/DTD/svg11.dtd">
<svg version="1.1" xmlns="http://www.w3.org/2000/svg" xmlns:xlink="http://www.w3.org/1999/xlink" preserveAspectRatio="xMidYMid meet" viewBox="345.72153640592273 338.8518573115822 262.0021096095512 262.1109891188935" width="262" height="262.11"><defs><path d="M345.72 338.85L607.72 338.85L607.72 600.85L345.72 600.85L345.72 338.85Z" id="gectwiP0U"></path><path d="M345.75 404.27L401.62 404.93L403.21 600.84L345.72 600.88L345.75 404.27Z" id="d8KK6dHca"></path><path d="M377.58 539.2L402.28 559.08L392.48 530.59L401.63 524.58L389.05 521.62L378.42 491.65L365.83 517.46L345.85 513.66L361.02 526.34L346.22 556.22L377.58 539.2Z" id="b4ZYhfdsw"></path><path d="M401.68 433.59L450.42 433.52L450.42 457.81L402.02 458.7L401.68 433.59Z" id="k1GnoDtaDt"></path><path d="M401.88 458.54L450.57 457.93L450.98 600.83L403.18 600.96L401.88 458.54Z" id="d1Ep0rtNeC"></path><path d="M449.89 358.98L510.05 357.99L508.48 600.89L450.89 600.81L449.89 358.98Z" id="b1I0NqmiLq"></path><path d="M477.09 399.22L495.27 399.31L466.26 447.74L487.01 404.47L465.77 404.31L478.58 359.27L477.09 399.22Z" id="aQQ1gK8hY"></path><path d="M566.94 367.65L574.5 440.05L594.4 465.74L590.62 589.16L581.3 600.74L540.24 600.74L525.89 589.92L521.86 467.23L542.76 441.54L545.28 367.48L566.94 367.65Z" id="b4kGtggdfX"></path><path d="M542.92 344.21L571.19 344.34L570.17 367.66L542.67 367.41L542.92 344.21Z" id="b1h0RN2j49"></path><path d="M558.88 490.33L588.45 484.73L587.66 566.25L560.45 572.86L529.21 566.36L528.43 485.4L558.88 490.33Z" id="a30niYJbKc"></path></defs><g><g><g><use xlink:href="#gectwiP0U" opacity="1" fill="#9b7647" fill-opacity="1"></use></g><g><use xlink:href="#d8KK6dHca" opacity="1" fill="#9353b6" fill-opacity="1"></use></g><g><use xlink:href="#b4ZYhfdsw" opacity="1" fill="#42b657" fill-opacity="1"></use></g><g><use xlink:href="#k1GnoDtaDt" opacity="1" fill="#f2ce18" fill-opacity="1"></use></g><g><use xlink:href="#d1Ep0rtNeC" opacity="1" fill="#d8bb26" fill-opacity="1"></use></g><g><use xlink:href="#b1I0NqmiLq" opacity="1" fill="#79d0e0" fill-opacity="1"></use></g><g><use xlink:href="#aQQ1gK8hY" opacity="1" fill="#44b4c9" fill-opacity="1"></use></g><g><use xlink:href="#b4kGtggdfX" opacity="1" fill="#d4c170" fill-opacity="1"></use></g><g><use xlink:href="#b1h0RN2j49" opacity="1" fill="#a7a7a7" fill-opacity="1"></use></g><g><use xlink:href="#a30niYJbKc" opacity="1" fill="#4a3762" fill-opacity="1"></use></g></g></g></svg>