<?xml version="1.0" encoding="UTF-8" standalone="no"?>
<!DOCTYPE svg PUBLIC "-//W3C//DTD SVG 1.1//EN" "http://www.w3.org/Graphics/SVG/1.1/DTD/svg11.dtd">
<svg version="1.1" xmlns="http://www.w3.org/2000/svg" xmlns:xlink="http://www.w3.org/1999/xlink" preserveAspectRatio="xMidYMid meet" viewBox="31.6220847368715 142.72726187264107 261.99999999999994 262" width="262" height="262"><defs><path d="M31.62 142.73L293.62 142.73L293.62 404.73L31.62 404.73L31.62 142.73Z" id="a8VF7Shorl"></path><path d="M53.5 308.41L67.99 291.47L135.03 283.71L220.24 286.08L258.2 302.41L271.66 341.18L271.26 386.49L224.11 390.77L126.56 390.37L53.5 382.41L55.34 360.77L55.13 321.39L53.5 308.41Z" id="b9nvfl9ibW"></path><path d="M63.31 404.07L277.04 404.07L293.06 389.99L292.82 383.93L222.92 386.62L211.27 371.81L125.83 374.97L117.34 385.41L56.9 377.4L57.9 356.43L55.65 356.26L31.97 368.38L63.31 404.07Z" id="d9aPCsDYb"></path><path d="M292.72 355.5L271.32 378.25L271.37 355.5L292.72 355.5Z" id="bp12MkIn6"></path><path d="M293.08 312.92L268.8 205.31L160.7 190.4L60.19 200.63L33.68 272.9L37.88 273.07L32 325.42L45.43 294.38L41.57 343.2L66.74 302.26L68.25 355.62L94.42 301.76L98.78 345.38L121.94 298.4L136.03 343.37L154.15 291.52L182.93 295.68L206.08 355.58L249.87 355.25L254.24 307.09L271.66 349.81L271.69 316.82L290.98 354.07L280.41 312.13L293.16 327.06L293.08 312.92Z" id="b1c6Mw4Y8j"></path><path d="M156.4 232.34L128.88 233.69L140.29 208.52L156.4 232.34Z" id="b600MRb5qE"></path><path d="M171.33 231.34L155.9 231.84L165.29 215.23L171.33 231.34Z" id="b16I9TB8Dd"></path><path d="M193.31 230L176.2 231L187.27 215.23L193.31 230Z" id="bdUK3URXg"></path><path d="M145.12 316.5L169.75 309.28L192.5 319.86L194.88 327.48L191.12 334.7L189.34 321.94L187.56 320.85L180.14 333.02L177.57 318.08L168.07 333.22L164.51 315.12L155.21 331.34L154.03 317.88L139.19 334.9L145.12 316.5Z" id="bIXUvcecc"></path><path d="M171.24 312.64L193.79 323.82L183.11 295.63L154.22 291.28L144.53 318.68L171.24 312.64Z" id="b2CtSoLtqA"></path><path d="M151.99 374.02L152.29 355.62L151 356.02L141.8 373.82L151.99 374.02Z" id="d18mcqIFAk"></path><path d="M188.29 372.73L191.65 355.92L177.11 370.26L172.27 355.72L163.56 369.27L159.41 355.42L154.07 373.82L188.29 372.73Z" id="b3oeguWhFB"></path></defs><g><g><g><use xlink:href="#a8VF7Shorl" opacity="1" fill="#9b7647" fill-opacity="1"></use></g><g><use xlink:href="#b9nvfl9ibW" opacity="1" fill="#fbf0a4" fill-opacity="1"></use></g><g><use xlink:href="#d9aPCsDYb" opacity="1" fill="#e3be80" fill-opacity="1"></use></g><g><use xlink:href="#bp12MkIn6" opacity="1" fill="#e3be80" fill-opacity="1"></use></g><g><use xlink:href="#b1c6Mw4Y8j" opacity="1" fill="#e3be80" fill-opacity="1"></use></g><g><use xlink:href="#b600MRb5qE" opacity="1" fill="#ffd609" fill-opacity="1"></use></g><g><use xlink:href="#b16I9TB8Dd" opacity="1" fill="#ffd609" fill-opacity="1"></use></g><g><use xlink:href="#bdUK3URXg" opacity="1" fill="#ffd609" fill-opacity="1"></use></g><g><use xlink:href="#bIXUvcecc" opacity="1" fill="#ffffff" fill-opacity="1"></use></g><g><use xlink:href="#b2CtSoLtqA" opacity="1" fill="#e39494" fill-opacity="1"></use></g><g><use xlink:href="#d18mcqIFAk" opacity="1" fill="#ffffff" fill-opacity="1"></use></g><g><use xlink:href="#b3oeguWhFB" opacity="1" fill="#ffffff" fill-opacity="1"></use></g></g></g></svg>