<?xml version="1.0" encoding="UTF-8" standalone="no"?>
<!DOCTYPE svg PUBLIC "-//W3C//DTD SVG 1.1//EN" "http://www.w3.org/Graphics/SVG/1.1/DTD/svg11.dtd">
<svg version="1.1" xmlns="http://www.w3.org/2000/svg" xmlns:xlink="http://www.w3.org/1999/xlink" preserveAspectRatio="xMidYMid meet" viewBox="36.147270150332574 357.0057701974979 262.32765199325445 262.15449035383176" width="262.33" height="262.15"><defs><path d="M36.3 357.07L298.3 357.07L298.3 619.07L36.3 619.07L36.3 357.07Z" id="b2pJ34HEYo"></path><path d="M36.28 374.59L102.45 375.36L102.19 619.16L36.15 619.16L36.28 374.59Z" id="c7SYNpm4j"></path><path d="M213.73 357.01L298.47 357.01L298.27 605.02L212.69 605.23L213.73 357.01Z" id="b2DGelqfGM"></path><path d="M212.49 605.19L298.25 604.98L298.32 619.14L212.27 618.92L212.49 605.19Z" id="d26qN50ITv"></path><path d="M213.67 389.14L298.17 389.25L298.45 409.11L213.67 409.53L213.67 389.14Z" id="bD1FZgqQ8"></path><path d="M107.13 602.56L106.79 596.04L116.46 581.66L115.67 569.19L133.31 542.37L132.53 533.83L151.96 498.55L152.64 487.76L171.63 456.74L171.47 446.76L190.12 415.64L189.67 412.49L192.59 403.95L209.56 370.36L213.04 372.04L198.38 410.77L193.17 417.27L181.72 452.24L175.65 458.09L163.4 495.84L158.53 500.73L145.65 539.77L140.82 544.26L130.93 578.64L124.19 584.37L119.92 604.49L115.42 606.96L114.3 618.87L102.5 618.64L102.39 606.73L107.13 602.56Z" id="b2gFNzWrH"></path></defs><g><g><g><use xlink:href="#b2pJ34HEYo" opacity="1" fill="#9b7647" fill-opacity="1"></use></g><g><use xlink:href="#c7SYNpm4j" opacity="1" fill="#eca16c" fill-opacity="1"></use></g><g><use xlink:href="#b2DGelqfGM" opacity="1" fill="#99cccb" fill-opacity="1"></use></g><g><use xlink:href="#d26qN50ITv" opacity="1" fill="#1de1de" fill-opacity="1"></use></g><g><use xlink:href="#bD1FZgqQ8" opacity="1" fill="#1de1de" fill-opacity="1"></use></g><g><use xlink:href="#b2gFNzWrH" opacity="1" fill="#d2bc9c" fill-opacity="1"></use></g></g></g></svg>