<?xml version="1.0" encoding="UTF-8" standalone="no"?>
<!DOCTYPE svg PUBLIC "-//W3C//DTD SVG 1.1//EN" "http://www.w3.org/Graphics/SVG/1.1/DTD/svg11.dtd">
<svg version="1.1" xmlns="http://www.w3.org/2000/svg" xmlns:xlink="http://www.w3.org/1999/xlink" preserveAspectRatio="xMidYMid meet" viewBox="47.610069331702846 314.99746287567206 261.99999999999994 262.08359893349956" width="262" height="262.08"><defs><path d="M47.61 315.08L309.61 315.08L309.61 577.08L47.61 577.08L47.61 315.08Z" id="c10oHMHav"></path><path d="M129.41 522.22L129.59 546.77L119.48 561.21L101.79 576.19L76.52 576.37L57.93 558.5L53.78 547.13L53.06 521.32L129.41 522.22Z" id="a4HC7L18NS"></path><path d="M129.33 522.29L104.46 491.03L102.21 425.4L72.83 425.53L73.46 490.61L52.96 521.24L129.33 522.29Z" id="a4cB1SgZbF"></path><path d="M128.9 331.74L145.4 336.92L145.39 577.06L129.33 577.02L128.9 331.74Z" id="aSszEYpZ8"></path><path d="M145.32 315.05L145.41 337.03L128.88 331.71L128.88 315L145.32 315.05Z" id="dra36aaLb"></path><path d="M145.55 369.07L145.55 386.45L128.88 372.81L128.88 358.01L145.55 369.07Z" id="b5pJlCh3Ve"></path><path d="M145.43 406.63L145.48 421.26L129.03 429.54L128.88 413.88L145.43 406.63Z" id="a2tYBdWfp"></path><path d="M223.62 576.79L201.05 563.92L292.54 432.42L308.72 444.73L223.62 576.79Z" id="c1GAXj0wg0"></path><path d="M292.7 432.32L282.09 429.61L195.67 558.75L201.05 563.92L292.7 432.32Z" id="a1q8cbJ7Kj"></path><path d="M282.25 429.64L223.85 411.78L151.16 514.71L195.63 558.95L282.25 429.64Z" id="a1qmj5h4M1"></path></defs><g><g><g><use xlink:href="#c10oHMHav" opacity="1" fill="#9b7647" fill-opacity="1"></use></g><g><use xlink:href="#a4HC7L18NS" opacity="1" fill="#d161d5" fill-opacity="1"></use></g><g><use xlink:href="#a4cB1SgZbF" opacity="1" fill="#e99aec" fill-opacity="1"></use></g><g><use xlink:href="#aSszEYpZ8" opacity="1" fill="#e9ed9b" fill-opacity="1"></use></g><g><use xlink:href="#dra36aaLb" opacity="1" fill="#dec08d" fill-opacity="1"></use></g><g><use xlink:href="#b5pJlCh3Ve" opacity="1" fill="#dec08d" fill-opacity="1"></use></g><g><use xlink:href="#a2tYBdWfp" opacity="1" fill="#dec08d" fill-opacity="1"></use></g><g><use xlink:href="#c1GAXj0wg0" opacity="1" fill="#554cfe" fill-opacity="1"></use></g><g><use xlink:href="#a1q8cbJ7Kj" opacity="1" fill="#9c36ff" fill-opacity="1"></use></g><g><use xlink:href="#a1qmj5h4M1" opacity="1" fill="#554cfe" fill-opacity="1"></use></g></g></g></svg>