<?xml version="1.0" encoding="UTF-8" standalone="no"?>
<!DOCTYPE svg PUBLIC "-//W3C//DTD SVG 1.1//EN" "http://www.w3.org/Graphics/SVG/1.1/DTD/svg11.dtd">
<svg version="1.1" xmlns="http://www.w3.org/2000/svg" xmlns:xlink="http://www.w3.org/1999/xlink" preserveAspectRatio="xMidYMid meet" viewBox="325.02390867929614 53.917802656271874 262.38000315432294 262.28644635895273" width="262.38" height="262.29"><defs><path d="M325.26 54.06L587.26 54.06L587.26 316.06L325.26 316.06L325.26 54.06Z" id="akN7bncRo"></path><path d="M325.18 76.33L399.67 76.49L403.63 316.05L325.02 316.2L325.18 76.33Z" id="a1QGvA01Fv"></path><path d="M399 54.01L457.45 53.92L457.42 315.97L403.48 315.97L399 54.01Z" id="d11sOebuCR"></path><path d="M526.09 177.07L526.59 72.28L457.66 72.11L457.5 85.33L526.09 177.07Z" id="c5qedPUTNj"></path><path d="M457.66 137.65L526.42 225.09L526.42 177.57L457.5 85.5L457.66 137.65Z" id="a7GOWyVry"></path><path d="M457.5 182.94L526.26 270.05L526.59 225.37L457.66 137.65L457.5 182.94Z" id="dfosDIhji"></path><path d="M457.5 230.22L526.06 315.86L526.26 269.81L457.33 183.03L457.5 230.22Z" id="a1DRVVi7xc"></path><path d="M457.46 316.01L526.13 315.98L457.17 230.21L457.46 316.01Z" id="b3cHo3u8V"></path><path d="M526.25 105.92L587.28 105.92L587.28 282.52L526.15 282.72L526.25 105.92Z" id="co6NzWSOC"></path><path d="M526.35 282.72L587.3 282.42L587.4 316.2L526.15 316L526.35 282.72Z" id="dXdGp4ZP8"></path><path d="M391.35 172.96L380.65 217.05L387.97 232.62L382.53 256.45L389.29 258.89L394.35 230.94L385.16 207.11L396.23 184.03L401.11 180.84L400.92 165.46L391.35 172.96Z" id="b7hlp6z0B"></path><path d="M380.94 269.23L389.63 269.01L389.08 259.11L382.26 256.58L380.94 269.23Z" id="cyPwbhq2A"></path><path d="M391.72 299.11L383.58 306.81L377.97 292.17L380.83 269.62L389.52 268.96L391.72 299.11Z" id="b16yxVhpCK"></path><path d="M564.33 54.52L582.95 64.81L586.99 73.02L586.88 90.48L582.83 96.83L567.11 105.97L545.49 105.85L530.34 94.99L526.88 86.66L526.88 76.03L533.23 65.51L554.62 54.52L564.33 54.52Z" id="i3tW4Nwb4d"></path><path d="M548.03 82.73L552.19 82.73L551.73 75.45L549.19 75.68L548.03 82.73Z" id="b2omC8mkOG"></path><path d="M564.22 82.38L568.73 82.5L568.03 74.87L565.26 74.75L564.22 82.38Z" id="b7E0LETJfA"></path></defs><g><g><g><use xlink:href="#akN7bncRo" opacity="1" fill="#9b7647" fill-opacity="1"></use></g><g><use xlink:href="#a1QGvA01Fv" opacity="1" fill="#eabc63" fill-opacity="1"></use></g><g><use xlink:href="#d11sOebuCR" opacity="1" fill="#e9a6cc" fill-opacity="1"></use></g><g><use xlink:href="#c5qedPUTNj" opacity="1" fill="#7fbf84" fill-opacity="1"></use></g><g><use xlink:href="#a7GOWyVry" opacity="1" fill="#b192e7" fill-opacity="1"></use></g><g><use xlink:href="#dfosDIhji" opacity="1" fill="#83c8e6" fill-opacity="1"></use></g><g><use xlink:href="#a1DRVVi7xc" opacity="1" fill="#fbea4a" fill-opacity="1"></use></g><g><use xlink:href="#b3cHo3u8V" opacity="1" fill="#7fbf84" fill-opacity="1"></use></g><g><use xlink:href="#co6NzWSOC" opacity="1" fill="#d1dd51" fill-opacity="1"></use></g><g><use xlink:href="#dXdGp4ZP8" opacity="1" fill="#a2a2a2" fill-opacity="1"></use></g><g><use xlink:href="#b7hlp6z0B" opacity="1" fill="#cea76e" fill-opacity="1"></use></g><g><use xlink:href="#cyPwbhq2A" opacity="1" fill="#aaaaaa" fill-opacity="1"></use></g><g><use xlink:href="#b16yxVhpCK" opacity="1" fill="#f5e36b" fill-opacity="1"></use></g><g><use xlink:href="#i3tW4Nwb4d" opacity="1" fill="#f684ff" fill-opacity="1"></use></g><g><use xlink:href="#b2omC8mkOG" opacity="1" fill="#141414" fill-opacity="1"></use></g><g><use xlink:href="#b7E0LETJfA" opacity="1" fill="#141414" fill-opacity="1"></use></g></g></g></svg>