<?xml version="1.0" encoding="UTF-8" standalone="no"?>
<!DOCTYPE svg PUBLIC "-//W3C//DTD SVG 1.1//EN" "http://www.w3.org/Graphics/SVG/1.1/DTD/svg11.dtd">
<svg version="1.1" xmlns="http://www.w3.org/2000/svg" xmlns:xlink="http://www.w3.org/1999/xlink" preserveAspectRatio="xMidYMid meet" viewBox="337.57286149125156 174.78576313784617 262.03676935014556 262.07336525409767" width="262.04" height="262.07"><defs><path d="M337.61 174.79L599.61 174.79L599.61 436.79L337.61 436.79L337.61 174.79Z" id="a3V8wRBU9K"></path><path d="M337.57 195.61L375.11 194.83L376.33 436.71L337.64 436.76L337.57 195.61Z" id="f2OCw4DWUV"></path><path d="M374.88 204.85L402.31 205.18L403.6 436.86L376.3 436.79L374.88 204.85Z" id="d28NRqLb3"></path><path d="M402.36 205.51L428.07 205.73L427.85 436.74L403.52 436.75L402.36 205.51Z" id="c3YNVwlGhw"></path><path d="M445.36 345.75L427.7 301.6L428.36 248.62L441.16 230.07L487.3 204.91L543.37 211.97L572.73 258.11L587.3 373.87L574.94 420L530.35 436.34L511.36 436.34L445.36 345.75Z" id="e5MuVfLx90"></path><path d="M484.72 295.44L492.8 299.55L491.58 317.08L465.97 335.53L450.72 327.3L446.91 305.65L452.86 298.49L484.72 295.44Z" id="b4bHwukhkq"></path><path d="M453.16 309.31L460.33 301.99L481.82 300.92L487.46 303.67L487.61 315.25L471.15 328.82L456.97 326.84L453.16 309.31Z" id="ecQaIA73w"></path><path d="M533.35 308.41L521 294.99L525.11 286.76L551.03 269.08L560.02 270.75L571.3 289.81L564.6 305.97L533.35 308.41Z" id="dbusroOooh"></path><path d="M534.41 303.38L556.36 304.29L565.97 293.62L557.74 277.46L547.83 276.85L530.45 289.2L527.71 295.14L534.41 303.38Z" id="a2muP7qMrY"></path><path d="M507.74 328.02L508.5 342.8L513.07 345.85L518.25 344.33L515.97 325.73L507.74 328.02Z" id="b3zySdWTb"></path><path d="M521.76 343.11L527.1 341.58L528.77 336.4L521.3 324.21L516.12 325.73L521.76 343.11Z" id="b5AwZhSlXp"></path><path d="M498.23 397.06L500.86 396.85L489.19 372.03L486.56 372.87L498.23 397.06Z" id="b4zwbpMBOR"></path><path d="M505.27 396.22L508.74 396.32L498.44 369.3L494.76 370.56L505.27 396.22Z" id="c4v6rDYGDA"></path><path d="M517.16 395.58L519.57 395.48L509.8 365.93L506.12 366.77L517.16 395.58Z" id="c1Q7l7dXwA"></path><path d="M527.88 394.22L531.46 394.32L520.42 362.99L517.26 363.83L527.88 394.22Z" id="a8AMh2NCka"></path><path d="M539.76 393.27L543.13 391.38L533.14 359.41L530.41 360.04L539.76 393.27Z" id="a14s4BmJxf"></path><path d="M552.28 387.59L555.75 385.91L546.81 355.21L543.44 356.15L552.28 387.59Z" id="aOjQcqCi7"></path><path d="M562.37 382.34L565.53 381.28L560.79 351.21L556.59 352.16L562.37 382.34Z" id="juFGhzky5"></path></defs><g><g><g><use xlink:href="#a3V8wRBU9K" opacity="1" fill="#9b7647" fill-opacity="1"></use></g><g><use xlink:href="#f2OCw4DWUV" opacity="1" fill="#78adc5" fill-opacity="1"></use></g><g><use xlink:href="#d28NRqLb3" opacity="1" fill="#7dc578" fill-opacity="1"></use></g><g><use xlink:href="#c3YNVwlGhw" opacity="1" fill="#fbeb51" fill-opacity="1"></use></g><g><use xlink:href="#e5MuVfLx90" opacity="1" fill="#424242" fill-opacity="1"></use></g><g><use xlink:href="#b4bHwukhkq" opacity="1" fill="#818181" fill-opacity="1"></use></g><g><use xlink:href="#ecQaIA73w" opacity="1" fill="#c3c3c3" fill-opacity="1"></use></g><g><use xlink:href="#dbusroOooh" opacity="1" fill="#818181" fill-opacity="1"></use></g><g><use xlink:href="#a2muP7qMrY" opacity="1" fill="#c3c3c3" fill-opacity="1"></use></g><g><use xlink:href="#b3zySdWTb" opacity="1" fill="#c3c3c3" fill-opacity="1"></use></g><g><use xlink:href="#b5AwZhSlXp" opacity="1" fill="#c3c3c3" fill-opacity="1"></use></g><g><use xlink:href="#b4zwbpMBOR" opacity="1" fill="#c3c3c3" fill-opacity="1"></use></g><g><use xlink:href="#c4v6rDYGDA" opacity="1" fill="#c3c3c3" fill-opacity="1"></use></g><g><use xlink:href="#c1Q7l7dXwA" opacity="1" fill="#c3c3c3" fill-opacity="1"></use></g><g><use xlink:href="#a8AMh2NCka" opacity="1" fill="#c3c3c3" fill-opacity="1"></use></g><g><use xlink:href="#a14s4BmJxf" opacity="1" fill="#c3c3c3" fill-opacity="1"></use></g><g><use xlink:href="#aOjQcqCi7" opacity="1" fill="#c3c3c3" fill-opacity="1"></use></g><g><use xlink:href="#juFGhzky5" opacity="1" fill="#c3c3c3" fill-opacity="1"></use></g></g></g></svg>