<?xml version="1.0" encoding="UTF-8" standalone="no"?>
<!DOCTYPE svg PUBLIC "-//W3C//DTD SVG 1.1//EN" "http://www.w3.org/Graphics/SVG/1.1/DTD/svg11.dtd">
<svg version="1.1" xmlns="http://www.w3.org/2000/svg" xmlns:xlink="http://www.w3.org/1999/xlink" preserveAspectRatio="xMidYMid meet" viewBox="352.90513718822524 68.05766999314622 262.46490717501945 262.16161979120034" width="262.46" height="262.16"><defs><path d="M353.37 68.11L615.37 68.11L615.37 330.11L353.37 330.11L353.37 68.11Z" id="a4thllemIN"></path><path d="M353.35 86.6L427.67 86.42L426.62 329.96L353.53 330.14L353.35 86.6Z" id="a1l5umPlnL"></path><path d="M440.54 150.59L503.84 152.53L503.49 329.82L440.54 330.17L440.54 150.59Z" id="b3zRbQnRB"></path><path d="M530.38 68.06L615.36 68.23L615.36 329.99L530.55 329.99L530.38 68.06Z" id="c4OAQzaSZ"></path><path d="M440.54 98.19L504.39 98.89L504.04 152.44L440.72 151.03L440.54 98.19Z" id="aTCnVsfww"></path><path d="M440.67 179.26L503.67 180.51L503.87 204.06L440.46 202.82L440.67 179.26Z" id="bVSvSBA2b"></path><path d="M530.07 116.14L615.32 115.65L615.16 134.16L530.42 134.16L530.07 116.14Z" id="b2QLby9Hcs"></path><path d="M530.26 294.98L615.32 296.72L615.16 316.18L530.42 310.47L530.26 294.98Z" id="e3vWKyjYw"></path><path d="M388.23 87.7L427.55 202.23L388.52 330.15L352.91 199.67L388.23 87.7Z" id="b1uEATNXSU"></path><path d="M427.58 98.23L440.52 98.51L440.52 330.22L426.58 330.08L427.58 98.23Z" id="k3Q4D2sPkC"></path><path d="M504.43 98.95L530.53 98.95L530.53 330.12L503.43 329.98L504.43 98.95Z" id="a2XHXqxDAa"></path></defs><g><g><g><use xlink:href="#a4thllemIN" opacity="1" fill="#9b7647" fill-opacity="1"></use></g><g><use xlink:href="#a1l5umPlnL" opacity="1" fill="#a175a2" fill-opacity="1"></use></g><g><use xlink:href="#b3zRbQnRB" opacity="1" fill="#298b9e" fill-opacity="1"></use></g><g><use xlink:href="#c4OAQzaSZ" opacity="1" fill="#a175a2" fill-opacity="1"></use></g><g><use xlink:href="#aTCnVsfww" opacity="1" fill="#44c7e1" fill-opacity="1"></use></g><g><use xlink:href="#bVSvSBA2b" opacity="1" fill="#44c7e1" fill-opacity="1"></use></g><g><use xlink:href="#b2QLby9Hcs" opacity="1" fill="#721474" fill-opacity="1"></use></g><g><use xlink:href="#e3vWKyjYw" opacity="1" fill="#721474" fill-opacity="1"></use></g><g><use xlink:href="#b1uEATNXSU" opacity="1" fill="#6ccb30" fill-opacity="1"></use></g><g><use xlink:href="#k3Q4D2sPkC" opacity="1" fill="#14745b" fill-opacity="1"></use></g><g><use xlink:href="#a2XHXqxDAa" opacity="1" fill="#742414" fill-opacity="1"></use></g></g></g></svg>