<?xml version="1.0" encoding="UTF-8" standalone="no"?>
<!DOCTYPE svg PUBLIC "-//W3C//DTD SVG 1.1//EN" "http://www.w3.org/Graphics/SVG/1.1/DTD/svg11.dtd">
<svg version="1.1" xmlns="http://www.w3.org/2000/svg" xmlns:xlink="http://www.w3.org/1999/xlink" preserveAspectRatio="xMidYMid meet" viewBox="328.6666927779484 44.4812776399549 262.5706668193363 262.26941782809166" width="262.57" height="262.27"><defs><path d="M329.12 44.48L591.12 44.48L591.12 306.48L329.12 306.48L329.12 44.48Z" id="c7PA7dbhVj"></path><path d="M328.98 176.37L556.34 176.13L553.47 249.63L328.98 250.21L328.98 176.37Z" id="a1rh3I7q2"></path><path d="M328.67 250.12L591.01 249.74L591.24 306.5L328.91 306.75L328.67 250.12Z" id="e1hmhcMzeO"></path><path d="M556.35 175.96L574.64 176.08L574.76 249.77L553.42 249.65L556.35 175.96Z" id="c1cmP8fA3P"></path><path d="M363.59 250.12L377.21 250.23L383.08 306.39L369.23 306.39L363.59 250.12Z" id="aCNXXrsKe"></path><path d="" id="a2CWo0i49Z"></path><path d="M550.23 44.97L551.24 126.11L543.12 141.54L485.29 176.04L429.11 142.39L420.32 125.61L420.1 44.97L550.23 44.97Z" id="b2wtKGKora"></path><path d="M459.06 129.81L454.07 133.32L448.96 130.59L445.5 132.59L441.66 130.59L439.66 132.05L435.82 129.13L442.21 124.02L425.79 115.26L421.23 99.02L425.97 101.75L421.04 85.7L425.06 88.98L422.5 74.93L427.61 78.94L427.07 62.7L431.63 67.27L431.26 53.76L459 93.72L459.06 129.81Z" id="b1mvz61V0y"></path><path d="M490.39 52.85L512.65 67.45L512.65 127.85L490.75 142.08L459.18 141.72L459 53.03L490.39 52.85Z" id="b2QvaXBAO"></path><path d="M499.33 75.48L499.69 122.56L472.14 129.31L472.14 65.99L499.33 75.48Z" id="b69AQ5hZx"></path><path d="M445.48 132.64L459.11 124.67L459.11 119.04L441.66 130.52L445.48 132.64Z" id="bbpQoI9Ga"></path><path d="M431.64 67.15L458.93 103.44L459.11 93.73L431.22 53.81L431.64 67.15Z" id="b1bD4IccV1"></path><path d="M425.71 115.21L441.85 123.89L452.56 114.84L421.37 99.27L425.71 115.21Z" id="b2AmbGdreH"></path><path d="M425.07 88.83L457.14 111.82L459.12 110.2L459.23 104.89L422.64 75.06L425.07 88.83Z" id="d4guaU1kg7"></path><path d="M512.74 129.68L517.72 133.18L522.83 130.45L526.3 132.45L530.13 130.45L532.14 131.91L535.97 128.99L529.58 123.88L546.01 115.12L550.57 98.88L545.83 101.62L550.75 85.56L546.74 88.84L549.29 74.79L544.18 78.81L544.73 62.56L540.17 67.13L540.53 53.62L512.8 93.59L512.74 129.68Z" id="bscmzvrge"></path><path d="M526.32 132.5L512.68 124.53L512.68 118.9L530.14 130.38L526.32 132.5Z" id="c2aC6Mg4K"></path><path d="M540.15 67.01L512.86 103.3L512.69 93.59L540.58 53.67L540.15 67.01Z" id="b2N9ExawNP"></path><path d="M546.09 115.08L529.94 123.75L519.23 114.7L550.43 99.13L546.09 115.08Z" id="eieaRZCFl"></path><path d="M546.73 88.7L514.66 111.68L512.67 110.06L512.57 104.75L549.16 74.92L546.73 88.7Z" id="cJgP1CGER"></path><path d="M429.32 142.31L485.62 176.17L421.13 176.22L419.95 124.98L429.32 142.31Z" id="fo8DmMQa6"></path><path d="M542.78 141.72L485.64 176.24L550.63 176.29L551.49 126.06L542.78 141.72Z" id="cyiWhRp"></path></defs><g><g><g><use xlink:href="#c7PA7dbhVj" opacity="1" fill="#9b7647" fill-opacity="1"></use></g><g><use xlink:href="#a1rh3I7q2" opacity="1" fill="#ffcb68" fill-opacity="1"></use></g><g><use xlink:href="#e1hmhcMzeO" opacity="1" fill="#ffff9b" fill-opacity="1"></use></g><g><use xlink:href="#c1cmP8fA3P" opacity="1" fill="#fc9bf8" fill-opacity="1"></use></g><g><use xlink:href="#aCNXXrsKe" opacity="1" fill="#95d268" fill-opacity="1"></use></g><g><g><use xlink:href="#a2CWo0i49Z" opacity="1" fill-opacity="0" stroke="#000000" stroke-width="1" stroke-opacity="1"></use></g></g><g><use xlink:href="#b2wtKGKora" opacity="1" fill="#7f0200" fill-opacity="1"></use></g><g><use xlink:href="#b1mvz61V0y" opacity="1" fill="#f7c702" fill-opacity="1"></use></g><g><use xlink:href="#b2QvaXBAO" opacity="1" fill="#454545" fill-opacity="1"></use></g><g><use xlink:href="#b69AQ5hZx" opacity="1" fill="#7f0200" fill-opacity="1"></use></g><g><use xlink:href="#bbpQoI9Ga" opacity="1" fill="#c9a719" fill-opacity="1"></use></g><g><use xlink:href="#b1bD4IccV1" opacity="1" fill="#c9a719" fill-opacity="1"></use></g><g><use xlink:href="#b2AmbGdreH" opacity="1" fill="#c9a719" fill-opacity="1"></use></g><g><use xlink:href="#d4guaU1kg7" opacity="1" fill="#c9a719" fill-opacity="1"></use></g><g><use xlink:href="#bscmzvrge" opacity="1" fill="#f7c702" fill-opacity="1"></use></g><g><use xlink:href="#c2aC6Mg4K" opacity="1" fill="#c9a719" fill-opacity="1"></use></g><g><use xlink:href="#b2N9ExawNP" opacity="1" fill="#c9a719" fill-opacity="1"></use></g><g><use xlink:href="#eieaRZCFl" opacity="1" fill="#c9a719" fill-opacity="1"></use></g><g><use xlink:href="#cJgP1CGER" opacity="1" fill="#c9a719" fill-opacity="1"></use></g><g><use xlink:href="#fo8DmMQa6" opacity="1" fill="#c5c5c5" fill-opacity="1"></use></g><g><use xlink:href="#cyiWhRp" opacity="1" fill="#c5c5c5" fill-opacity="1"></use></g></g></g></svg>