<?xml version="1.0" encoding="UTF-8" standalone="no"?>
<!DOCTYPE svg PUBLIC "-//W3C//DTD SVG 1.1//EN" "http://www.w3.org/Graphics/SVG/1.1/DTD/svg11.dtd">
<svg version="1.1" xmlns="http://www.w3.org/2000/svg" xmlns:xlink="http://www.w3.org/1999/xlink" preserveAspectRatio="xMidYMid meet" viewBox="20.486975921684937 17.48824043517061 262.57066681933634 262.2694178280915" width="262.57" height="262.27"><defs><path d="M20.94 17.49L282.94 17.49L282.94 279.49L20.94 279.49L20.94 17.49Z" id="c5ihXtoAPy"></path><path d="M20.8 149.37L248.16 149.14L245.29 222.64L20.8 223.21L20.8 149.37Z" id="f4sufxrGE3"></path><path d="M20.49 223.13L282.83 222.75L283.06 279.5L20.73 279.76L20.49 223.13Z" id="b2Xt4Emcfz"></path><path d="M248.17 148.97L266.46 149.08L266.58 222.77L245.24 222.66L248.17 148.97Z" id="b5pM7pcyjj"></path><path d="M55.41 223.13L69.03 223.24L74.9 279.4L61.05 279.4L55.41 223.13Z" id="d12FOeXfYw"></path><path d="" id="b1gGfh3ah"></path><path d="M177.24 79.8L130.84 78.39L141.31 51.37L130.56 58.87L123.8 41L146.26 18.42L164.22 26.34L177.66 34.71L177.24 79.8Z" id="bLMxt8pdu"></path><path d="M177.2 79.76L224.3 79.05L213.83 52.04L224.58 59.53L231.22 41.16L208.88 19.08L190.92 27L177.62 34.81L177.2 79.76Z" id="aJiDwKO49"></path><path d="M177.52 79.83L177.52 149L164.93 137.23L117.97 110.21L130.7 78.64L177.52 79.83Z" id="aQ2O7vHr7"></path><path d="M177.76 79.93L177.76 149.09L190.34 137.33L237.3 110.31L225.19 79.04L177.76 79.93Z" id="g20heAA8XZ"></path><path d="M164.18 41.92L164.31 74.36L190.8 74.11L191.18 42.3L204.23 42.3L198.02 48.89L198.27 108.21L207.91 117.08L190.54 117.33L190.42 83.87L164.69 83.87L164.56 116.7L147.7 116.95L157.21 108.08L157.08 49.27L150.36 42.05L164.18 41.92Z" id="h4k4HGKjX4"></path></defs><g><g><g><use xlink:href="#c5ihXtoAPy" opacity="1" fill="#9b7647" fill-opacity="1"></use></g><g><use xlink:href="#f4sufxrGE3" opacity="1" fill="#ffcb68" fill-opacity="1"></use></g><g><use xlink:href="#b2Xt4Emcfz" opacity="1" fill="#ffff9b" fill-opacity="1"></use></g><g><use xlink:href="#b5pM7pcyjj" opacity="1" fill="#fc9bf8" fill-opacity="1"></use></g><g><use xlink:href="#d12FOeXfYw" opacity="1" fill="#95d268" fill-opacity="1"></use></g><g><g><use xlink:href="#b1gGfh3ah" opacity="1" fill-opacity="0" stroke="#000000" stroke-width="1" stroke-opacity="1"></use></g></g><g><use xlink:href="#bLMxt8pdu" opacity="1" fill="#bf1031" fill-opacity="1"></use></g><g><use xlink:href="#aJiDwKO49" opacity="1" fill="#11a365" fill-opacity="1"></use></g><g><use xlink:href="#aQ2O7vHr7" opacity="1" fill="#f7ce11" fill-opacity="1"></use></g><g><use xlink:href="#g20heAA8XZ" opacity="1" fill="#3d4b7a" fill-opacity="1"></use></g><g><use xlink:href="#h4k4HGKjX4" opacity="1" fill="#dd981d" fill-opacity="1"></use></g></g></g></svg>