<?xml version="1.0" encoding="UTF-8" standalone="no"?>
<!DOCTYPE svg PUBLIC "-//W3C//DTD SVG 1.1//EN" "http://www.w3.org/Graphics/SVG/1.1/DTD/svg11.dtd">
<svg version="1.1" xmlns="http://www.w3.org/2000/svg" xmlns:xlink="http://www.w3.org/1999/xlink" preserveAspectRatio="xMidYMid meet" viewBox="296.82334671737067 14.55477102555028 262.57066681933634 262.2694178280916" width="262.57" height="262.27"><defs><path d="M297.28 14.55L559.28 14.55L559.28 276.55L297.28 276.55L297.28 14.55Z" id="f41jDPfpe"></path><path d="M297.13 146.44L524.49 146.2L521.63 219.7L297.13 220.28L297.13 146.44Z" id="d1K97igQSW"></path><path d="M296.82 220.19L559.17 219.81L559.39 276.57L297.06 276.82L296.82 220.19Z" id="eu4nBLiWd"></path><path d="M524.51 146.04L542.8 146.15L542.91 219.84L521.58 219.73L524.51 146.04Z" id="d1Pfo71fc2"></path><path d="M331.74 220.19L345.37 220.31L351.24 276.46L337.39 276.46L331.74 220.19Z" id="hfFFO5vP3"></path><path d="" id="iyPqS9fnl"></path><path d="M519.09 14.98L519.56 101.69L454.15 146.06L388.23 102.2L388.23 14.98L519.09 14.98Z" id="a1CdCYDTNj"></path><path d="M492.86 53.01L494.11 45.99L490.36 46.3L492.86 53.01Z" id="c3D45qtCWI"></path><path d="M501.28 54.88L501.28 45.21L497.85 45.52L501.28 54.88Z" id="aTkmLNNGf"></path><path d="M475.16 53.81L473.97 47.47L484.13 46.99L492.27 56.8L475.16 53.81Z" id="bLnvdecEA"></path><path d="M461.05 33.29L450.64 29.22L429.71 31.26L415.11 41.66L414.28 53.51L420.38 63.2L466.55 81.14L479.47 95.49L471.21 108.89L448.37 113.44L418.58 104.82L407.94 86.52L406.86 102.55L415.95 112.72L448.73 122.89L475.28 114.39L491.43 91.31L473.97 72.41L427.67 53.03L428.15 43.7L446.21 38.08L464.63 45.25L467.15 54.22L491.19 60.56L491.67 56.62L475.16 53.63L474.2 47.53L505.54 44.66L461.05 33.29Z" id="kCsVPryBf"></path><path d="M476.98 41.23L483.42 45.52L488.23 42.96L476.98 41.23Z" id="c1YVZKazJK"></path><path d="M388.59 146.56L454.29 146.14L387.97 101.93L388.59 146.56Z" id="bt0crqXxH"></path><path d="M519.14 146.21L453.6 146.11L519.76 101.58L519.14 146.21Z" id="lcdWAvdyF"></path></defs><g><g><g><use xlink:href="#f41jDPfpe" opacity="1" fill="#9b7647" fill-opacity="1"></use></g><g><use xlink:href="#d1K97igQSW" opacity="1" fill="#ffcb68" fill-opacity="1"></use></g><g><use xlink:href="#eu4nBLiWd" opacity="1" fill="#ffff9b" fill-opacity="1"></use></g><g><use xlink:href="#d1Pfo71fc2" opacity="1" fill="#fc9bf8" fill-opacity="1"></use></g><g><use xlink:href="#hfFFO5vP3" opacity="1" fill="#95d268" fill-opacity="1"></use></g><g><g><use xlink:href="#iyPqS9fnl" opacity="1" fill-opacity="0" stroke="#000000" stroke-width="1" stroke-opacity="1"></use></g></g><g><use xlink:href="#a1CdCYDTNj" opacity="1" fill="#469f35" fill-opacity="1"></use></g><g><use xlink:href="#c3D45qtCWI" opacity="1" fill="#ffffff" fill-opacity="1"></use></g><g><use xlink:href="#aTkmLNNGf" opacity="1" fill="#ffffff" fill-opacity="1"></use></g><g><use xlink:href="#bLnvdecEA" opacity="1" fill="#e72651" fill-opacity="1"></use></g><g><use xlink:href="#kCsVPryBf" opacity="1" fill="#d7d7d7" fill-opacity="1"></use></g><g><use xlink:href="#c1YVZKazJK" opacity="1" fill="#000000" fill-opacity="1"></use></g><g><use xlink:href="#bt0crqXxH" opacity="1" fill="#000000" fill-opacity="1"></use></g><g><use xlink:href="#lcdWAvdyF" opacity="1" fill="#000000" fill-opacity="1"></use></g></g></g></svg>