<?xml version="1.0" encoding="UTF-8" standalone="no"?>
<!DOCTYPE svg PUBLIC "-//W3C//DTD SVG 1.1//EN" "http://www.w3.org/Graphics/SVG/1.1/DTD/svg11.dtd">
<svg version="1.1" xmlns="http://www.w3.org/2000/svg" xmlns:xlink="http://www.w3.org/1999/xlink" preserveAspectRatio="xMidYMid meet" viewBox="298.7054652577378 26.093630804032273 262.5706668193363 262.2694178280916" width="262.57" height="262.27"><defs><path d="M299.16 26.09L561.16 26.09L561.16 288.09L299.16 288.09L299.16 26.09Z" id="a7k5FxlDyO"></path><path d="M299.01 157.98L526.38 157.74L523.51 231.24L299.01 231.82L299.01 157.98Z" id="aqf7NEqQ3"></path><path d="M298.71 231.73L561.05 231.35L561.28 288.11L298.94 288.36L298.71 231.73Z" id="a27OYVbRko"></path><path d="M526.39 157.58L544.68 157.69L544.8 231.38L523.46 231.27L526.39 157.58Z" id="aJ9h7L64c"></path><path d="M333.63 231.73L347.25 231.84L353.12 288L339.27 288L333.63 231.73Z" id="h1loLgkcvI"></path><path d="" id="hOLt8prz"></path><path d="M520.97 26.52L521.44 113.23L456.03 157.59L390.11 113.73L390.11 26.52L520.97 26.52Z" id="aAoVG8kiz"></path><path d="M422.39 104.56L426.44 108.51L423.77 100.71L422.39 104.56Z" id="b4HJO2GF7j"></path><path d="M430.39 123.81L430.78 129.34L434.83 125.1L446.58 130.53L447.07 126.87L444.9 122.63L430.39 123.81Z" id="dTVEVZAMD"></path><path d="M430.7 96.62L440.67 96.99L428.24 67.24L449.66 29.93L447.78 50.65L460.91 32.49L455.78 59.93L474.93 48.48L455.19 68.64L483.91 61.54L454.4 77.41L475.42 76.32L462.29 80.37L462.39 81.65L480.66 82.44L462.49 86.09L462.59 87.87L477 92.61L471.08 96.26L477.2 97.45L466.44 109.69L511.06 115.81L481.43 133.39L459.31 116.21L452.6 123.52L448.85 117.4L447.17 126.97L444.7 122.63L440.95 110.19L433.65 103.97L425.45 105.75L423.77 100.32L430.7 96.62Z" id="awHKbGuj7"></path><path d="M391.01 158.15L456.71 157.73L390.39 113.52L391.01 158.15Z" id="bFAZBNCp7"></path><path d="M520.98 157.99L455.27 157.58L521.6 113.36L520.98 157.99Z" id="a17MgqQm9P"></path></defs><g><g><g><use xlink:href="#a7k5FxlDyO" opacity="1" fill="#9b7647" fill-opacity="1"></use></g><g><use xlink:href="#aqf7NEqQ3" opacity="1" fill="#ffcb68" fill-opacity="1"></use></g><g><use xlink:href="#a27OYVbRko" opacity="1" fill="#ffff9b" fill-opacity="1"></use></g><g><use xlink:href="#aJ9h7L64c" opacity="1" fill="#fc9bf8" fill-opacity="1"></use></g><g><use xlink:href="#h1loLgkcvI" opacity="1" fill="#95d268" fill-opacity="1"></use></g><g><g><use xlink:href="#hOLt8prz" opacity="1" fill-opacity="0" stroke="#000000" stroke-width="1" stroke-opacity="1"></use></g></g><g><use xlink:href="#aAoVG8kiz" opacity="1" fill="#6c67cb" fill-opacity="1"></use></g><g><use xlink:href="#b4HJO2GF7j" opacity="1" fill="#ffb82d" fill-opacity="1"></use></g><g><use xlink:href="#dTVEVZAMD" opacity="1" fill="#ffb82d" fill-opacity="1"></use></g><g><use xlink:href="#awHKbGuj7" opacity="1" fill="#ae7c45" fill-opacity="1"></use></g><g><use xlink:href="#bFAZBNCp7" opacity="1" fill="#000000" fill-opacity="1"></use></g><g><use xlink:href="#a17MgqQm9P" opacity="1" fill="#000000" fill-opacity="1"></use></g></g></g></svg>