<?xml version="1.0" encoding="UTF-8" standalone="no"?>
<!DOCTYPE svg PUBLIC "-//W3C//DTD SVG 1.1//EN" "http://www.w3.org/Graphics/SVG/1.1/DTD/svg11.dtd">
<svg version="1.1" xmlns="http://www.w3.org/2000/svg" xmlns:xlink="http://www.w3.org/1999/xlink" preserveAspectRatio="xMidYMid meet" viewBox="329.9108287323283 117.53383459353472 261.99999999999994 262.1254416672318" width="262" height="262.13"><defs><path d="M329.91 117.53L591.91 117.53L591.91 379.53L329.91 379.53L329.91 117.53Z" id="a1DZ2NE2dh"></path><path d="M330.15 129.07L403.5 129.25L401.73 379.48L329.98 379.66L330.15 129.07Z" id="fezolNbGm"></path><path d="M403.51 129.53L460.88 130.05L461.59 379.64L401.74 379.29L403.51 129.53Z" id="afmLC1BA7"></path><path d="M403.19 163.25L461.11 163.5L461.11 187.54L402.83 186.93L403.19 163.25Z" id="eWIiHLhSl"></path><path d="M402.15 316.22L461.3 316.71L461.43 332.89L402.15 333.01L402.15 316.22Z" id="dZkOXaHz"></path><path d="M556.48 266.04L575.15 280.53L574.87 379.52L480.55 379.63L480.44 280.8L498.27 266.32L556.48 266.04Z" id="a2XzjYWDyG"></path><path d="M556.36 266.2L556.13 247.75L498.96 247.75L498.5 265.86L556.36 266.2Z" id="a48RrixoD5"></path><path d="M556.36 257.66L556.36 263.01L498.62 256.4L498.84 250.94L556.36 257.66Z" id="a8sD0iBD7"></path><path d="M539.44 361.84L556.11 349.83L563.88 334.3L559.36 316.78L548.06 302.94L522.63 286.98L497.63 324.69L493.68 333.87L499.05 348.14L517.83 360.99L539.44 361.84Z" id="a2zEBd1UOk"></path><path d="M511.33 347.29L515.71 331.75L530.12 310.57L546.36 326.39L548.2 336.84L540.57 357.46L516 356.9L511.33 347.29Z" id="d3bgQklP5u"></path></defs><g><g><g><use xlink:href="#a1DZ2NE2dh" opacity="1" fill="#9b7647" fill-opacity="1"></use></g><g><use xlink:href="#fezolNbGm" opacity="1" fill="#75aad4" fill-opacity="1"></use></g><g><use xlink:href="#afmLC1BA7" opacity="1" fill="#84db8d" fill-opacity="1"></use></g><g><use xlink:href="#eWIiHLhSl" opacity="1" fill="#a59551" fill-opacity="1"></use></g><g><use xlink:href="#dZkOXaHz" opacity="1" fill="#a59551" fill-opacity="1"></use></g><g><use xlink:href="#a2XzjYWDyG" opacity="1" fill="#e4e4e4" fill-opacity="1"></use></g><g><use xlink:href="#a48RrixoD5" opacity="1" fill="#9248da" fill-opacity="1"></use></g><g><use xlink:href="#a8sD0iBD7" opacity="1" fill="#b593d7" fill-opacity="1"></use></g><g><use xlink:href="#a2zEBd1UOk" opacity="1" fill="#66cbff" fill-opacity="1"></use></g><g><use xlink:href="#d3bgQklP5u" opacity="1" fill="#b1e0fa" fill-opacity="1"></use></g></g></g></svg>