<?xml version="1.0" encoding="UTF-8" standalone="no"?>
<!DOCTYPE svg PUBLIC "-//W3C//DTD SVG 1.1//EN" "http://www.w3.org/Graphics/SVG/1.1/DTD/svg11.dtd">
<svg version="1.1" xmlns="http://www.w3.org/2000/svg" xmlns:xlink="http://www.w3.org/1999/xlink" preserveAspectRatio="xMidYMid meet" viewBox="55.772015020031745 578.4522472558972 524.0442476626716 262" width="524.04" height="262"><defs><path d="M55.77 578.45L579.77 578.45L579.77 840.45L55.77 840.45L55.77 578.45Z" id="a5y4CKT5Yz"></path><path d="M349.08 788.55L579.82 788.17L579.82 840.44L349.08 840.44L349.08 788.55Z" id="e2AbgBwECx"></path><path d="M362.74 746.04L579.47 746.23L579.66 788.06L362.55 788.63L362.74 746.04Z" id="b49fRAVj8o"></path><path d="M535.84 579.01L497.81 593.65L449.53 707.18L369.68 593.88L344.49 584.01L326.81 589.14L295.84 767.7L240.32 612.75L200.4 624.35L154.89 691.23L96.1 711.48L79.37 808.06L98.96 828.97L165.7 809.85L183.19 754.33L219.85 680.38L279.51 839.86L285.97 840.05L332.21 806.18L358.9 654.43L415.55 746.06L485.51 746.06L528.48 636.37L578.67 661.08L535.84 579.01Z" id="c8PiQLURD"></path><path d="M102.83 750.13L131.16 725.23L108.54 721.99L102.83 750.13Z" id="amPQABxjI"></path><path d="M154.16 768L155.11 793.48L125.46 790.81L154.16 768Z" id="i95KB5uAX"></path><path d="M62.26 838.91L78.31 828.83L79.9 839.31L92.5 822.07L84.38 813.32L62.26 838.91Z" id="bVyvSRsaZ"></path></defs><g><g><g><use xlink:href="#a5y4CKT5Yz" opacity="1" fill="#9b7647" fill-opacity="1"></use></g><g><use xlink:href="#e2AbgBwECx" opacity="1" fill="#fdf4ed" fill-opacity="1"></use></g><g><use xlink:href="#b49fRAVj8o" opacity="1" fill="#a884c6" fill-opacity="1"></use></g><g><use xlink:href="#c8PiQLURD" opacity="1" fill="#67cc64" fill-opacity="1"></use></g><g><use xlink:href="#amPQABxjI" opacity="1" fill="#000000" fill-opacity="1"></use></g><g><use xlink:href="#i95KB5uAX" opacity="1" fill="#000000" fill-opacity="1"></use></g><g><use xlink:href="#bVyvSRsaZ" opacity="1" fill="#e35585" fill-opacity="1"></use></g></g></g></svg>