<?xml version="1.0" encoding="UTF-8" standalone="no"?>
<!DOCTYPE svg PUBLIC "-//W3C//DTD SVG 1.1//EN" "http://www.w3.org/Graphics/SVG/1.1/DTD/svg11.dtd">
<svg version="1.1" xmlns="http://www.w3.org/2000/svg" xmlns:xlink="http://www.w3.org/1999/xlink" preserveAspectRatio="xMidYMid meet" viewBox="32.75580893881385 40.10420367654888 262.0098527517345 262" width="262.01" height="262"><defs><path d="M32.77 40.1L294.77 40.1L294.77 302.1L32.77 302.1L32.77 40.1Z" id="a3s8GTz79i"></path><path d="M32.76 53.43L54.48 53.31L54.95 302L32.76 301.88L32.76 53.43Z" id="a3hgtBLgN1"></path><path d="M54.32 53.15L95.25 53.26L95.24 302.06L54.93 301.99L54.32 53.15Z" id="b1eUFL2Teq"></path><path d="M95.04 69.95L148.98 70.18L149.09 302.01L95.18 302.01L95.04 69.95Z" id="d22kWiVj5M"></path><path d="M95.08 91.15L148.96 91.38L148.85 104.75L95.08 104.87L95.08 91.15Z" id="f3JXN4LD0F"></path><path d="M148.81 159.78L176.43 159.63L177.21 302L148.96 302L148.81 159.78Z" id="gDf6mk3WP"></path><path d="M176.17 40.14L216.92 40.14L217.33 301.9L177.11 301.9L176.17 40.14Z" id="aKA3VbNvx"></path><path d="M278.4 132.52L283.89 235.22L239.65 266.3L237.09 267.22L217.16 211.09L226.85 119.28L281.51 41.04L278.4 132.52Z" id="dx0Cm62ms"></path><path d="M255.74 126.76L244.04 221.37L239.47 266.34L237.82 299.8L236.72 216.22L248.79 125.32L280.42 43.79L255.74 126.76Z" id="c1lbjYJeVr"></path></defs><g><g><g><use xlink:href="#a3s8GTz79i" opacity="1" fill="#9b7647" fill-opacity="1"></use></g><g><use xlink:href="#a3hgtBLgN1" opacity="1" fill="#e35585" fill-opacity="1"></use></g><g><use xlink:href="#b1eUFL2Teq" opacity="1" fill="#9355e3" fill-opacity="1"></use></g><g><use xlink:href="#d22kWiVj5M" opacity="1" fill="#e355e3" fill-opacity="1"></use></g><g><use xlink:href="#f3JXN4LD0F" opacity="1" fill="#a237a2" fill-opacity="1"></use></g><g><use xlink:href="#gDf6mk3WP" opacity="1" fill="#ddc754" fill-opacity="1"></use></g><g><use xlink:href="#aKA3VbNvx" opacity="1" fill="#7fdd54" fill-opacity="1"></use></g><g><use xlink:href="#dx0Cm62ms" opacity="1" fill="#99cdff" fill-opacity="1"></use></g><g><use xlink:href="#c1lbjYJeVr" opacity="1" fill="#8f8f8f" fill-opacity="1"></use></g></g></g></svg>