<?xml version="1.0" encoding="UTF-8" standalone="no"?>
<!DOCTYPE svg PUBLIC "-//W3C//DTD SVG 1.1//EN" "http://www.w3.org/Graphics/SVG/1.1/DTD/svg11.dtd">
<svg version="1.1" xmlns="http://www.w3.org/2000/svg" xmlns:xlink="http://www.w3.org/1999/xlink" preserveAspectRatio="xMidYMid meet" viewBox="336.1293029147174 35.64637235124769 262.00985275173446 262" width="262.01" height="262"><defs><path d="M336.14 35.65L598.14 35.65L598.14 297.65L336.14 297.65L336.14 35.65Z" id="b2s8UT7gSl"></path><path d="M336.13 48.97L357.85 48.85L358.32 297.54L336.13 297.43L336.13 48.97Z" id="a2YpthZvNf"></path><path d="M357.69 48.69L398.63 48.81L398.62 297.61L358.3 297.54L357.69 48.69Z" id="cy7iBsztn"></path><path d="M398.42 65.49L452.36 65.72L452.46 297.55L398.55 297.55L398.42 65.49Z" id="b1h8ryGOux"></path><path d="M398.45 86.69L452.34 86.93L452.22 100.29L398.45 100.41L398.45 86.69Z" id="g47gUs7CSs"></path><path d="M452.18 155.32L479.81 155.17L480.58 297.54L452.34 297.54L452.18 155.32Z" id="a17OeDnsIN"></path><path d="M479.54 35.68L520.29 35.68L520.7 297.44L480.48 297.44L479.54 35.68Z" id="a18DzlJcXp"></path><path d="M529.93 262.05L526.14 287.11L528.95 293.59L527.36 297.01L522.84 289.43L522.35 282.1L527.73 261.8L529.93 262.05Z" id="b6Vmd2pKKr"></path><path d="M525.89 261.48L532.37 262.7L543.5 193.51L537.02 192.65L525.89 261.48Z" id="dLEj6BT1F"></path><path d="M539.53 193.24L542.44 137.58L549.97 102.93L571.33 43.23L588.58 36.45L592.16 36.45L595.74 55.16L540.81 193.47L539.53 193.24Z" id="awT5hg0lE"></path><path d="M540.68 193.36L555.04 126.28L589.46 36.03L585.32 37.65L551.2 131.42L539.83 192.94L540.68 193.36Z" id="buGFSt6wY"></path></defs><g><g><g><use xlink:href="#b2s8UT7gSl" opacity="1" fill="#9b7647" fill-opacity="1"></use></g><g><use xlink:href="#a2YpthZvNf" opacity="1" fill="#e35585" fill-opacity="1"></use></g><g><use xlink:href="#cy7iBsztn" opacity="1" fill="#9355e3" fill-opacity="1"></use></g><g><use xlink:href="#b1h8ryGOux" opacity="1" fill="#e355e3" fill-opacity="1"></use></g><g><use xlink:href="#g47gUs7CSs" opacity="1" fill="#a237a2" fill-opacity="1"></use></g><g><use xlink:href="#a17OeDnsIN" opacity="1" fill="#ddc754" fill-opacity="1"></use></g><g><use xlink:href="#a18DzlJcXp" opacity="1" fill="#7fdd54" fill-opacity="1"></use></g><g><use xlink:href="#b6Vmd2pKKr" opacity="1" fill="#ffce09" fill-opacity="1"></use></g><g><use xlink:href="#dLEj6BT1F" opacity="1" fill="#363636" fill-opacity="1"></use></g><g><use xlink:href="#awT5hg0lE" opacity="1" fill="#727f8f" fill-opacity="1"></use></g><g><use xlink:href="#buGFSt6wY" opacity="1" fill="#292929" fill-opacity="1"></use></g></g></g></svg>