<?xml version="1.0" encoding="UTF-8" standalone="no"?>
<!DOCTYPE svg PUBLIC "-//W3C//DTD SVG 1.1//EN" "http://www.w3.org/Graphics/SVG/1.1/DTD/svg11.dtd">
<svg version="1.1" xmlns="http://www.w3.org/2000/svg" xmlns:xlink="http://www.w3.org/1999/xlink" preserveAspectRatio="xMidYMid meet" viewBox="30.33871383340403 333.43651701804276 261.99999999999994 262" width="262" height="262"><defs><path d="M30.34 333.44L292.34 333.44L292.34 595.44L30.34 595.44L30.34 333.44Z" id="bhJ0dcm9T"></path><path d="M30.42 346.76L52.14 346.64L52.61 595.33L30.42 595.22L30.42 346.76Z" id="azSm1QHA"></path><path d="M51.98 346.48L92.92 346.6L92.9 595.4L52.59 595.33L51.98 346.48Z" id="b5wBgrCZ4p"></path><path d="M92.71 363.28L146.65 363.51L146.75 595.34L92.84 595.34L92.71 363.28Z" id="bofgBca3N"></path><path d="M92.74 384.48L146.62 384.72L146.51 398.08L92.74 398.2L92.74 384.48Z" id="b9Hru8KgG"></path><path d="M155.7 593.38L151.87 552.34L148.74 553.31L155.7 593.38Z" id="as63j3mOp"></path><path d="M146.6 466.92L175.23 376.04L206.36 345.53L251.03 336.33L291.25 360.13L251.4 339.51L209.64 347.31L178.07 376L148.6 468.27L151.82 552.4L148.75 553.37L146.6 466.92Z" id="d2HS2dPp3"></path><path d="M160.36 460.52L191.46 379.87L215.55 359.8L257.02 353.39L291.21 360.11L251.33 339.43L209.61 347.32L178.06 375.99L148.55 468.36L151.83 552.41L160.36 460.52Z" id="a2fpEJt2Yx"></path></defs><g><g><g><use xlink:href="#bhJ0dcm9T" opacity="1" fill="#9b7647" fill-opacity="1"></use></g><g><use xlink:href="#azSm1QHA" opacity="1" fill="#e35585" fill-opacity="1"></use></g><g><use xlink:href="#b5wBgrCZ4p" opacity="1" fill="#9355e3" fill-opacity="1"></use></g><g><use xlink:href="#bofgBca3N" opacity="1" fill="#e355e3" fill-opacity="1"></use></g><g><use xlink:href="#b9Hru8KgG" opacity="1" fill="#a237a2" fill-opacity="1"></use></g><g><use xlink:href="#as63j3mOp" opacity="1" fill="#298553" fill-opacity="1"></use></g><g><use xlink:href="#d2HS2dPp3" opacity="1" fill="#0cdc54" fill-opacity="1"></use></g><g><use xlink:href="#a2fpEJt2Yx" opacity="1" fill="#c1fc65" fill-opacity="1"></use></g></g></g></svg>