<?xml version="1.0" encoding="UTF-8" standalone="no"?>
<!DOCTYPE svg PUBLIC "-//W3C//DTD SVG 1.1//EN" "http://www.w3.org/Graphics/SVG/1.1/DTD/svg11.dtd">
<svg version="1.1" xmlns="http://www.w3.org/2000/svg" xmlns:xlink="http://www.w3.org/1999/xlink" preserveAspectRatio="xMidYMid meet" viewBox="186.69064516387613 145.56947887321436 261.99999999999994 262.0129608916095" width="262" height="262.01"><defs><path d="M186.69 145.58L448.69 145.58L448.69 407.58L186.69 407.58L186.69 145.58Z" id="b2qdqAPTkG"></path><path d="M186.72 160.34L217.28 160.14L217.13 407.56L186.72 407.31L186.72 160.34Z" id="fuIQCIEer"></path><path d="M265.29 213.04L321.95 212.61L324.95 407.49L262.29 407.58L265.29 213.04Z" id="aUh5844B"></path><path d="M321.3 164.57L265.99 165.17L265.14 213.17L321.73 212.57L321.3 164.57Z" id="b3SkGihqV"></path><path d="M217.32 185.17L265.5 183.8L262.59 407.56L217.06 407.39L217.32 185.17Z" id="b2gmGSmIAZ"></path><path d="M217.28 160.31L265.87 160.14L265.62 184.2L217.37 185.23L217.28 160.31Z" id="bsrQkpt2C"></path><path d="M321.69 202.27L374.1 202.44L379.58 407.41L324.77 407.49L321.69 202.27Z" id="ayTsTm8c7"></path><path d="M323.11 309.26L377.33 309.1L377.65 320.81L323.35 321.37L323.11 309.26Z" id="a2wTz2UL0"></path><path d="M372.7 145.57L426.47 145.74L426.64 407.54L379.46 407.37L372.7 145.57Z" id="d26v2E2t6h"></path><path d="M378.49 362.82L427.04 377.62L426.59 393.43L378.83 380.98L378.49 362.82Z" id="b2s4iUzKZK"></path><path d="M426.84 173.19L448.64 173.19L448.64 407.53L426.58 407.44L426.84 173.19Z" id="bN0TzDoS8"></path></defs><g><g><g><use xlink:href="#b2qdqAPTkG" opacity="1" fill="#9b7647" fill-opacity="1"></use></g><g><use xlink:href="#fuIQCIEer" opacity="1" fill="#c1fc65" fill-opacity="1"></use></g><g><use xlink:href="#aUh5844B" opacity="1" fill="#a0cfe4" fill-opacity="1"></use></g><g><use xlink:href="#b3SkGihqV" opacity="1" fill="#81c6e4" fill-opacity="1"></use></g><g><use xlink:href="#b2gmGSmIAZ" opacity="1" fill="#ec68af" fill-opacity="1"></use></g><g><use xlink:href="#bsrQkpt2C" opacity="1" fill="#eaa7cb" fill-opacity="1"></use></g><g><use xlink:href="#ayTsTm8c7" opacity="1" fill="#ecdba5" fill-opacity="1"></use></g><g><use xlink:href="#a2wTz2UL0" opacity="1" fill="#95e6bd" fill-opacity="1"></use></g><g><use xlink:href="#d26v2E2t6h" opacity="1" fill="#a5ecd7" fill-opacity="1"></use></g><g><use xlink:href="#b2s4iUzKZK" opacity="1" fill="#eafc1e" fill-opacity="1"></use></g><g><use xlink:href="#bN0TzDoS8" opacity="1" fill="#dba5ec" fill-opacity="1"></use></g></g></g></svg>