<?xml version="1.0" encoding="UTF-8" standalone="no"?>
<!DOCTYPE svg PUBLIC "-//W3C//DTD SVG 1.1//EN" "http://www.w3.org/Graphics/SVG/1.1/DTD/svg11.dtd">
<svg version="1.1" xmlns="http://www.w3.org/2000/svg" xmlns:xlink="http://www.w3.org/1999/xlink" preserveAspectRatio="xMidYMid meet" viewBox="342.9166666666666 35.27777777777783 261.99999999999994 262.27359781121737" width="262" height="262.27"><defs><path d="M342.92 35.28L604.92 35.28L604.92 297.28L342.92 297.28L342.92 35.28Z" id="d121YamDVZ"></path><path d="M546.65 93.3L604.92 93.3L604.92 297.41L546.88 297.55L546.65 93.3Z" id="aFmwWZ4CF"></path><path d="M546.46 128.91L604.92 128.91L604.92 137.39L546.64 137.57L546.46 128.91Z" id="a2TEboI9r8"></path><path d="M473.92 104.01L518.75 131.04L538.66 178.11L540.32 228.56L528.12 258.23L488.22 288.32L462.02 296.6L416.24 296.6L392.74 290.88L363.53 260.3L349.64 237.1L346.48 213L360.75 145.8L378.98 124.12L417.98 101.83L473.92 104.01Z" id="aBe614Daa"></path><path d="M348.54 202.55L360.72 145.64L378.89 124.01L381.41 122.71L364.54 183.75L348.54 202.55Z" id="a4x578zBkX"></path><path d="M506.45 151.94L530.86 175.64L537.59 214.26L518.3 244.17L476.45 252.75L451.94 234.48L441.14 201.24L447.1 176.35L462.95 151.94L506.45 151.94Z" id="a8EHwix6S"></path></defs><g><g><g><use xlink:href="#d121YamDVZ" opacity="1" fill="#9b7647" fill-opacity="1"></use></g><g><use xlink:href="#aFmwWZ4CF" opacity="1" fill="#a5d1ec" fill-opacity="1"></use></g><g><use xlink:href="#a2TEboI9r8" opacity="1" fill="#53a0cf" fill-opacity="1"></use></g><g><use xlink:href="#aBe614Daa" opacity="1" fill="#cd3301" fill-opacity="1"></use></g><g><use xlink:href="#a4x578zBkX" opacity="1" fill="#a13332" fill-opacity="1"></use></g><g><use xlink:href="#a8EHwix6S" opacity="1" fill="#a13332" fill-opacity="1"></use></g></g></g></svg>