<?xml version="1.0" encoding="UTF-8" standalone="no"?>
<!DOCTYPE svg PUBLIC "-//W3C//DTD SVG 1.1//EN" "http://www.w3.org/Graphics/SVG/1.1/DTD/svg11.dtd">
<svg version="1.1" xmlns="http://www.w3.org/2000/svg" xmlns:xlink="http://www.w3.org/1999/xlink" preserveAspectRatio="xMidYMid meet" viewBox="30.416666666666572 35.27777777777783 262 262" width="262" height="262"><defs><path d="M30.42 35.28L292.42 35.28L292.42 297.28L30.42 297.28L30.42 35.28Z" id="a2Ctt8I42W"></path><path d="M30.42 98.2L62.67 98.2L62.38 297.28L30.42 297.28L30.42 98.2Z" id="ahNnYG6Kg"></path><path d="M234.15 93.02L292.42 93.02L292.42 297.14L234.38 297.28L234.15 93.02Z" id="a3fFAOagag"></path><path d="M233.96 128.91L292.42 128.91L292.42 137.39L234.14 137.57L233.96 128.91Z" id="d3oaVTKEq9"></path><path d="M194.37 294.1L194.37 296.71L186.23 296.71L62.49 264.95L62.67 256.98L194.37 294.1Z" id="h8HFWd0JU"></path><path d="M217.03 292.63L219.7 292.14L229.71 277.66L227.99 157.14L234.15 156.89L234.15 277.19L223.16 296.71L193.6 296.71L217.03 292.63Z" id="a2ZoL9lzZ9"></path><path d="M194.37 294.09L196.63 296.36L219.66 292.13L229.75 277.65L227.96 157.24L192.63 160.65L193.91 263.42L76.26 219.82L62.67 256.98L194.37 294.09Z" id="l8Ap0o4wf"></path><path d="M193.91 265.86L202.61 284.01L194.37 294.01L194.37 296.71L201.07 295.64L209.53 288.24L209.28 280.59L201.55 265.45L193.91 263.42L193.91 265.86Z" id="d4axPM0evT"></path></defs><g><g><g><use xlink:href="#a2Ctt8I42W" opacity="1" fill="#9b7647" fill-opacity="1"></use></g><g><use xlink:href="#ahNnYG6Kg" opacity="1" fill="#dba5ec" fill-opacity="1"></use></g><g><use xlink:href="#a3fFAOagag" opacity="1" fill="#a5d1ec" fill-opacity="1"></use></g><g><use xlink:href="#d3oaVTKEq9" opacity="1" fill="#53a0cf" fill-opacity="1"></use></g><g><use xlink:href="#h8HFWd0JU" opacity="1" fill="#59445d" fill-opacity="1"></use></g><g><use xlink:href="#a2ZoL9lzZ9" opacity="1" fill="#59445d" fill-opacity="1"></use></g><g><use xlink:href="#l8Ap0o4wf" opacity="1" fill="#fedead" fill-opacity="1"></use></g><g><use xlink:href="#d4axPM0evT" opacity="1" fill="#de345a" fill-opacity="1"></use></g></g></g></svg>