<?xml version="1.0" encoding="UTF-8" standalone="no"?>
<!DOCTYPE svg PUBLIC "-//W3C//DTD SVG 1.1//EN" "http://www.w3.org/Graphics/SVG/1.1/DTD/svg11.dtd">
<svg version="1.1" xmlns="http://www.w3.org/2000/svg" xmlns:xlink="http://www.w3.org/1999/xlink" preserveAspectRatio="xMidYMid meet" viewBox="30.41666666666663 351.2499999999998 261.99999999999994 262" width="262" height="262"><defs><path d="M30.42 351.25L292.42 351.25L292.42 613.25L30.42 613.25L30.42 351.25Z" id="a1j5AGGP35"></path><path d="M202.96 406.09L226.35 408.97L251.09 423.21L282.45 460.49L291.94 492.19L291.94 514.39L275.67 544.73L255.84 561.1L231.94 563.48L204.65 556.02L155.5 512.97L160.75 453.99L179.23 418.73L202.96 406.09Z" id="b4wBwDsfv0"></path><path d="M162.55 493.31L162.89 447.04L129.84 429.58L114.42 428.39L66.28 431.44L37.97 452.46L31.03 477.38L31.03 505.17L38.48 517.55L162.55 493.31Z" id="a5bIKjHle6"></path><path d="M160.28 607.16L136.55 612.58L76.55 612.58L46.38 596.31L31.03 578.85L31.03 525.8L51.3 502.58L107.06 481.39L131.64 480.38L161.81 487.32L191.47 502.24L204.01 525.12L204.69 555.97L201.3 574.27L182.14 596.31L160.28 607.16Z" id="bH4a2ceJG"></path></defs><g><g><g><use xlink:href="#a1j5AGGP35" opacity="1" fill="#9b7647" fill-opacity="1"></use></g><g><use xlink:href="#b4wBwDsfv0" opacity="1" fill="#878787" fill-opacity="1"></use></g><g><use xlink:href="#a5bIKjHle6" opacity="1" fill="#9acc99" fill-opacity="1"></use></g><g><use xlink:href="#bH4a2ceJG" opacity="1" fill="#ff9a66" fill-opacity="1"></use></g></g></g></svg>