<?xml version="1.0" encoding="UTF-8" standalone="no"?>
<!DOCTYPE svg PUBLIC "-//W3C//DTD SVG 1.1//EN" "http://www.w3.org/Graphics/SVG/1.1/DTD/svg11.dtd">
<svg version="1.1" xmlns="http://www.w3.org/2000/svg" xmlns:xlink="http://www.w3.org/1999/xlink" preserveAspectRatio="xMidYMid meet" viewBox="340.1388888888889 105.41666666666652 262 262" width="262" height="262"><defs><path d="M340.14 105.42L602.14 105.42L602.14 367.42L340.14 367.42L340.14 105.42Z" id="dxHU4kZU6"></path><path d="M340.14 325.81L601.94 326.21L601.94 367.42L340.14 367.42L340.14 325.81Z" id="iWkfK7Wq"></path><path d="M361.96 325.81L382.46 325.81L382.27 367.42L362.25 367.42L361.96 325.81Z" id="h3gvPuMePV"></path><path d="M340.41 262.24L601.94 263.16L601.94 326.18L340.41 325.81L340.41 262.24Z" id="a7BiZzdUi"></path><path d="M456.08 273.11L455.39 281.61L467.23 291.73L464.01 274.37L473.21 266.1L486.08 275.87L483.21 291.73L499.64 278.51L498.95 274.95L479.64 262.24L464.93 262.24L456.08 273.11Z" id="aJDGrsxIJ"></path><path d="M528.56 234.42L505.58 262.8L521.42 262.86L530.5 252.61L559.91 288L546.8 347.2L557.84 343.87L570.25 286.74L528.56 234.42Z" id="afBcJKPkP"></path><path d="M458.05 249.47L467.7 239.47L477.52 235.45L486.9 240.28L495.98 254.42L497.85 262.8L456.78 262.67L458.05 249.47Z" id="i1N2nXF3GP"></path><path d="M460.46 251.08L468.05 248.44L468.05 255.34L460.46 251.08Z" id="dhzZlmndx"></path><path d="M489.65 253.96L482.87 256.49L482.87 250.51L489.65 253.96Z" id="axusRg43n"></path><path d="M538.26 189.78L559.99 195.42L601.71 212.66L601.71 222.54L555 201.26L540.63 198.38L497.76 262.24L496.46 257L538.26 189.78Z" id="bcIxGENP0"></path><path d="M449.79 262.57L453.36 219.41L442.45 217.22L440.6 262.57L434.28 262.57L434.85 215.84L413.7 212.05L370.53 262.34L357.77 262.34L411.15 202.64L432.64 207.12L393.56 173.55L340.69 188.61L340.69 181.14L396.78 165.39L442.45 208.91L461.41 212.36L456.78 262.67L449.79 262.57Z" id="a20RC9nAdt"></path></defs><g><g><g><use xlink:href="#dxHU4kZU6" opacity="1" fill="#9b7647" fill-opacity="1"></use></g><g><use xlink:href="#iWkfK7Wq" opacity="1" fill="#eae154" fill-opacity="1"></use></g><g><use xlink:href="#h3gvPuMePV" opacity="1" fill="#605d29" fill-opacity="1"></use></g><g><use xlink:href="#a7BiZzdUi" opacity="1" fill="#a7a038" fill-opacity="1"></use></g><g><use xlink:href="#aJDGrsxIJ" opacity="1" fill="#cecece" fill-opacity="1"></use></g><g><use xlink:href="#afBcJKPkP" opacity="1" fill="#2a2a2a" fill-opacity="1"></use></g><g><use xlink:href="#i1N2nXF3GP" opacity="1" fill="#6f7f8f" fill-opacity="1"></use></g><g><use xlink:href="#dhzZlmndx" opacity="1" fill="#b83f10" fill-opacity="1"></use></g><g><use xlink:href="#axusRg43n" opacity="1" fill="#b83f10" fill-opacity="1"></use></g><g><use xlink:href="#bcIxGENP0" opacity="1" fill="#2a2a2a" fill-opacity="1"></use></g><g><use xlink:href="#a20RC9nAdt" opacity="1" fill="#2a2a2a" fill-opacity="1"></use></g></g></g></svg>