<?xml version="1.0" encoding="UTF-8" standalone="no"?>
<!DOCTYPE svg PUBLIC "-//W3C//DTD SVG 1.1//EN" "http://www.w3.org/Graphics/SVG/1.1/DTD/svg11.dtd">
<svg version="1.1" xmlns="http://www.w3.org/2000/svg" xmlns:xlink="http://www.w3.org/1999/xlink" preserveAspectRatio="xMidYMid meet" viewBox="43.611111111111086 105.41666666666652 261.99999999999994 262.00000000000006" width="262" height="262"><defs><path d="M43.61 105.42L305.61 105.42L305.61 367.42L43.61 367.42L43.61 105.42Z" id="b1B4nAnM3Q"></path><path d="M43.61 168.13L107.8 167.61L107.59 367.42L43.61 367.13L43.61 168.13Z" id="dKfRGdkxL"></path><path d="M43.99 156.4L108.05 155.98L107.83 167.91L43.61 168.53L43.99 156.4Z" id="h3vq7yrJnI"></path><path d="M108.05 105.42L174.38 105.62L174.61 367.42L107.56 367.42L108.05 105.42Z" id="d2UqFgXrnr"></path><path d="M107.36 270.59L175.37 270.59L174.61 353.16L107.8 353.61L107.36 270.59Z" id="biVb1VTVX"></path><path d="M158.53 270.59L175.37 270.59L175.37 291.12L115.4 353.61L107.59 353.61L107.36 320.81L158.53 270.59Z" id="eqsyaQlhP"></path><path d="M174.61 217.12L208.58 217.12L208.58 367.42L174.61 367.42L174.61 217.12Z" id="arO0W9uUA"></path><path d="M208.58 180.34L241.69 180.65L239.72 367.42L208.58 367.42L208.58 180.34Z" id="b1bzynQVcn"></path><path d="M241.9 148.39L305.61 149.01L305.61 367.42L239.72 367.42L241.9 148.39Z" id="dwcjK1CMj"></path></defs><g><g><g><use xlink:href="#b1B4nAnM3Q" opacity="1" fill="#9b7647" fill-opacity="1"></use></g><g><use xlink:href="#dKfRGdkxL" opacity="1" fill="#ff9a66" fill-opacity="1"></use></g><g><use xlink:href="#h3vq7yrJnI" opacity="1" fill="#de6d33" fill-opacity="1"></use></g><g><use xlink:href="#d2UqFgXrnr" opacity="1" fill="#5a91ec" fill-opacity="1"></use></g><g><use xlink:href="#biVb1VTVX" opacity="1" fill="#5aece5" fill-opacity="1"></use></g><g><use xlink:href="#eqsyaQlhP" opacity="1" fill="#db48e0" fill-opacity="1"></use></g><g><use xlink:href="#arO0W9uUA" opacity="1" fill="#9554ea" fill-opacity="1"></use></g><g><use xlink:href="#b1bzynQVcn" opacity="1" fill="#ea9c54" fill-opacity="1"></use></g><g><use xlink:href="#dwcjK1CMj" opacity="1" fill="#e9be5c" fill-opacity="1"></use></g></g></g></svg>