<?xml version="1.0" encoding="UTF-8" standalone="no"?>
<!DOCTYPE svg PUBLIC "-//W3C//DTD SVG 1.1//EN" "http://www.w3.org/Graphics/SVG/1.1/DTD/svg11.dtd">
<svg version="1.1" xmlns="http://www.w3.org/2000/svg" xmlns:xlink="http://www.w3.org/1999/xlink" preserveAspectRatio="xMidYMid meet" viewBox="43.6111111111112 54.72222222222217 261.99999999999994 262" width="262" height="262"><defs><path d="M43.61 54.72L305.61 54.72L305.61 316.72L43.61 316.72L43.61 54.72Z" id="b2zoUdSVdY"></path><path d="M62.95 267.15L296.63 266.02L296.63 316.72L62.95 316.72L62.95 267.15Z" id="a1XJg5AGq5"></path><path d="M54.46 217.15L305.61 217.26L305.35 266.02L54.79 267.15L54.46 217.15Z" id="a1TUp3Vfqs"></path><path d="M80.28 217.15L91.82 217.48L91.82 267.15L80.28 267.15L80.28 217.15Z" id="b21Gy6VkoL"></path><path d="M103.23 217.15L115.1 217.47L115.1 267.15L103.23 267.15L103.23 217.15Z" id="bRXv2izYP"></path><path d="M60.66 172.44L278.84 172.01L278.51 217.62L60.66 217.15L60.66 172.44Z" id="a7iTetJSmh"></path><path d="M104.39 167.14L114.92 161.28L163 160.54L172.34 165.58L172.71 172.26L104.39 172.26L104.39 167.14Z" id="a20VOcpiE"></path><path d="M180.37 146.09L194.2 119.18L197.09 93.13L146.4 97.62L107.28 97.62L78.17 90.74L78.71 101.53L81.73 117.07L90.13 138.75L104.39 153.96L115.33 161.13L163.04 160.54L180.37 146.09Z" id="i529CkqkDZ"></path><path d="M189.06 129.33L192.7 130.5L212.59 124.31L221.68 113.98L223.12 99.05L215.48 92.79L207.64 93.41L194.43 118.39L197.09 93.41L207.29 86.8L221.47 87.69L228.42 94.78L230.76 108.2L224.09 122.1L211.84 131.81L180.39 146.26L189.06 129.33Z" id="a8tnvwych"></path><path d="M145.6 97.61L107.15 97.61L78.17 90.59L78.45 81.78L98.89 88.85L143.23 91.43L197.87 84.62L196.91 93.29L145.6 97.61Z" id="b2TVQwmGGM"></path><path d="M198.19 82.72L166.81 71.56L126.08 71.33L93.32 74.91L78.39 81.58L98.97 88.88L143.46 91.39L197.87 84.44L198.19 82.72Z" id="a1BEtSd6jj"></path></defs><g><g><g><use xlink:href="#b2zoUdSVdY" opacity="1" fill="#9b7647" fill-opacity="1"></use></g><g><use xlink:href="#a1XJg5AGq5" opacity="1" fill="#635b5b" fill-opacity="1"></use></g><g><use xlink:href="#a1TUp3Vfqs" opacity="1" fill="#9769bd" fill-opacity="1"></use></g><g><use xlink:href="#b21Gy6VkoL" opacity="1" fill="#bd69ae" fill-opacity="1"></use></g><g><use xlink:href="#bRXv2izYP" opacity="1" fill="#bd69ae" fill-opacity="1"></use></g><g><use xlink:href="#a7iTetJSmh" opacity="1" fill="#69bdbc" fill-opacity="1"></use></g><g><use xlink:href="#a20VOcpiE" opacity="1" fill="#3b6fe7" fill-opacity="1"></use></g><g><use xlink:href="#i529CkqkDZ" opacity="1" fill="#ffffff" fill-opacity="1"></use></g><g><use xlink:href="#a8tnvwych" opacity="1" fill="#3b6fe7" fill-opacity="1"></use></g><g><use xlink:href="#b2TVQwmGGM" opacity="1" fill="#3b6fe7" fill-opacity="1"></use></g><g><use xlink:href="#a1BEtSd6jj" opacity="1" fill="#cecece" fill-opacity="1"></use></g></g></g></svg>