<?xml version="1.0" encoding="UTF-8" standalone="no"?>
<!DOCTYPE svg PUBLIC "-//W3C//DTD SVG 1.1//EN" "http://www.w3.org/Graphics/SVG/1.1/DTD/svg11.dtd">
<svg version="1.1" xmlns="http://www.w3.org/2000/svg" xmlns:xlink="http://www.w3.org/1999/xlink" preserveAspectRatio="xMidYMid meet" viewBox="43.6111111111112 339.44444444444434 261.99999999999994 262" width="262" height="262"><defs><path d="M43.61 339.44L305.61 339.44L305.61 601.44L43.61 601.44L43.61 339.44Z" id="gxwkJW1Qz"></path><path d="M62.95 551.87L296.63 550.74L296.63 601.44L62.95 601.44L62.95 551.87Z" id="a1kAyGnF2"></path><path d="M54.46 501.87L305.61 501.99L305.35 550.74L54.79 551.87L54.46 501.87Z" id="caidIjO5W"></path><path d="M80.28 501.87L91.82 502.2L91.82 551.87L80.28 551.87L80.28 501.87Z" id="a3jW4Zz34W"></path><path d="M103.23 501.87L115.1 502.19L115.1 551.87L103.23 551.87L103.23 501.87Z" id="d2rPbh7iV"></path><path d="M60.66 457.17L278.84 456.73L278.51 502.35L60.66 501.87L60.66 457.17Z" id="diq3qUf4k"></path><path d="M155.35 373.08L210.52 340.06L220.34 340.06L270.46 393.02L243.4 456.73L175.67 456.73L155.35 373.08Z" id="g6vzzL01k"></path><path d="M158.38 385.64L209.46 351.82L260.39 401.06L238.11 456.73L175.77 456.73L158.38 385.64Z" id="bcfM4rNV0"></path><path d="M205.35 382.23L238.37 407.96L227.1 437.53L202.7 450.4L180.95 432.63L176.83 398.39L205.35 382.23Z" id="bGmyen6lF"></path></defs><g><g><g><use xlink:href="#gxwkJW1Qz" opacity="1" fill="#9b7647" fill-opacity="1"></use></g><g><use xlink:href="#a1kAyGnF2" opacity="1" fill="#635b5b" fill-opacity="1"></use></g><g><use xlink:href="#caidIjO5W" opacity="1" fill="#9769bd" fill-opacity="1"></use></g><g><use xlink:href="#a3jW4Zz34W" opacity="1" fill="#bd69ae" fill-opacity="1"></use></g><g><use xlink:href="#d2rPbh7iV" opacity="1" fill="#bd69ae" fill-opacity="1"></use></g><g><use xlink:href="#diq3qUf4k" opacity="1" fill="#69bdbc" fill-opacity="1"></use></g><g><use xlink:href="#g6vzzL01k" opacity="1" fill="#fffe65" fill-opacity="1"></use></g><g><use xlink:href="#bcfM4rNV0" opacity="1" fill="#ff9a66" fill-opacity="1"></use></g><g><use xlink:href="#bGmyen6lF" opacity="1" fill="#cc33ff" fill-opacity="1"></use></g></g></g></svg>