<?xml version="1.0" encoding="UTF-8" standalone="no"?>
<!DOCTYPE svg PUBLIC "-//W3C//DTD SVG 1.1//EN" "http://www.w3.org/Graphics/SVG/1.1/DTD/svg11.dtd">
<svg version="1.1" xmlns="http://www.w3.org/2000/svg" xmlns:xlink="http://www.w3.org/1999/xlink" preserveAspectRatio="xMidYMid meet" viewBox="354.72222222222223 54.72222222222217 261.99999999999994 262" width="262" height="262"><defs><path d="M354.72 54.72L616.72 54.72L616.72 316.72L354.72 316.72L354.72 54.72Z" id="djKHcLnO4"></path><path d="M374.06 267.15L607.74 266.02L607.74 316.72L374.06 316.72L374.06 267.15Z" id="a4kQKeuDA"></path><path d="M365.57 217.15L616.72 217.26L616.46 266.02L365.9 267.15L365.57 217.15Z" id="d3TTRQMczm"></path><path d="M391.39 217.15L402.93 217.48L402.93 267.15L391.39 267.15L391.39 217.15Z" id="c4tu5SxoAQ"></path><path d="M414.34 217.15L426.21 217.47L426.21 267.15L414.34 267.15L414.34 217.15Z" id="a2i1uBjyAq"></path><path d="M371.77 172.44L589.95 172.01L589.62 217.62L371.77 217.15L371.77 172.44Z" id="a56TCSHKn4"></path><path d="M386.07 157.85L409.06 172.29L438.38 172.29L457.94 158.64L457.94 126.19L464.8 120.65L476.56 120.65L482.37 126.47L483.83 159.08L502.72 172.29L531.65 172.01L555.03 157.23L553.97 126.98L557.01 126.98L557.01 120.65L482 119.2L475.8 113.78L465.23 113.78L458.89 118.67L458.49 120.12L383.85 120.65L383.85 126.47L386.63 126.47L386.07 157.85Z" id="b37mgB2S0d"></path><path d="M391.89 154.68L413.55 167.1L437.06 165.25L452.26 152.57L452.26 126.15L394.53 126.68L391.89 154.68Z" id="e2O4sR8tZT"></path><path d="M488.85 153.28L504.7 165.43L529.8 166.1L549.75 153.68L546.71 126.99L488.85 126.54L488.85 153.28Z" id="b2UW7qxtq6"></path></defs><g><g><g><use xlink:href="#djKHcLnO4" opacity="1" fill="#9b7647" fill-opacity="1"></use></g><g><use xlink:href="#a4kQKeuDA" opacity="1" fill="#635b5b" fill-opacity="1"></use></g><g><use xlink:href="#d3TTRQMczm" opacity="1" fill="#9769bd" fill-opacity="1"></use></g><g><use xlink:href="#c4tu5SxoAQ" opacity="1" fill="#bd69ae" fill-opacity="1"></use></g><g><use xlink:href="#a2i1uBjyAq" opacity="1" fill="#bd69ae" fill-opacity="1"></use></g><g><use xlink:href="#a56TCSHKn4" opacity="1" fill="#69bdbc" fill-opacity="1"></use></g><g><use xlink:href="#b37mgB2S0d" opacity="1" fill="#fde291" fill-opacity="1"></use></g><g><use xlink:href="#e2O4sR8tZT" opacity="1" fill="#e9e9ff" fill-opacity="1"></use></g><g><use xlink:href="#b2UW7qxtq6" opacity="1" fill="#e9e9ff" fill-opacity="1"></use></g></g></g></svg>