<?xml version="1.0" encoding="UTF-8" standalone="no"?>
<!DOCTYPE svg PUBLIC "-//W3C//DTD SVG 1.1//EN" "http://www.w3.org/Graphics/SVG/1.1/DTD/svg11.dtd">
<svg version="1.1" xmlns="http://www.w3.org/2000/svg" xmlns:xlink="http://www.w3.org/1999/xlink" preserveAspectRatio="xMidYMid meet" viewBox="397.01826388460154 621.1029411764703 262.261727936889 262.0000000000001" width="262.26" height="262"><defs><path d="M397.28 621.1L659.28 621.1L659.28 883.1L397.28 883.1L397.28 621.1Z" id="dhBU9UCct"></path><path d="M397.02 851.91L528.28 851.19L528.28 882.7L397.28 883.1L397.02 851.91Z" id="a7k05Dkw0"></path><path d="M397.28 821.8L515.33 821.8L515.33 851.19L397.28 852.14L397.28 821.8Z" id="f22bMeAvqF"></path><path d="M412.29 821.8L430.05 821.8L444.94 851.91L427.32 851.71L412.29 821.8Z" id="a481AR9n"></path><path d="M397.28 804.47L515.33 804.47L515.33 821.8L397.28 821.8L397.28 804.47Z" id="b2VHRHYf85"></path><path d="M528.28 621.1L582.64 621.1L582.64 882.71L528.28 882.71L528.28 621.1Z" id="a3PanTeqAw"></path><path d="M582.64 704.87L621.44 704.87L622.09 882.71L582.64 882.71L582.64 704.87Z" id="d2DRl5TFos"></path><path d="M621.44 660.83L659.28 660.83L659.28 882.71L622.09 882.47L621.44 660.83Z" id="e1OAC7PwWG"></path><path d="M582.64 849.52L621.9 849.34L622.09 866.78L582.77 867.4L582.64 849.52Z" id="a1HCbZjomd"></path><path d="M521.23 739.73L519.08 752.1L527.76 754.91L521.23 739.73Z" id="a7H9V9lUM"></path><path d="M438.02 712.27L422.18 728.4L423.93 738.03L397.28 749.16L427.16 697.64L407.05 673.22L474.93 696.34L438.02 712.27Z" id="a1c9qEfJQ2"></path><path d="M412.97 804.47L445.65 772.39L426.44 755.45L412.97 804.47Z" id="i195lIvOr"></path><path d="M502.58 765.61L492.09 770.44L479.39 773.01L457.26 774.28L507.26 804.13L510.19 787.05L525.04 790.89L510.6 759.78L502.58 765.61Z" id="b5iu3T7yrD"></path><path d="M505.84 748.73L519.08 752.1L521.32 739.83L509.16 710.15L518.49 710.15L474.76 696.27L437.91 712.24L422.18 728.34L423.9 738.04L432.01 734.6L426.48 755.45L445.65 772.38L449.01 769.13L457.26 774.18L478.89 773.14L492.16 770.45L503.09 765.4L510.63 759.78L505.84 748.73Z" id="a5B2ATggGF"></path><path d="M495.13 761.83L504.99 748.14L506.86 726.29L499.46 710.9L481.78 704.47L458.3 703.42L437.9 712.26L422.18 728.29L423.86 738.11L432.01 734.6L426.42 755.45L445.65 772.39L449.12 769.2L457.46 774.46L478.97 773.1L495.13 761.83Z" id="c1HSePnlZ"></path><path d="M448.02 722.89L455.93 717.02L466.81 716.17L475.32 722.21L477.1 727.65L477.44 741.08L474.89 744.4L465.54 748.48L457.26 748.14L448.95 744.23L445.47 738.9L445.65 728.58L448.02 722.89Z" id="efsUq2kkr"></path></defs><g><g><g><use xlink:href="#dhBU9UCct" opacity="1" fill="#9b7647" fill-opacity="1"></use></g><g><use xlink:href="#a7k05Dkw0" opacity="1" fill="#fffe65" fill-opacity="1"></use></g><g><use xlink:href="#f22bMeAvqF" opacity="1" fill="#65ffbc" fill-opacity="1"></use></g><g><use xlink:href="#a481AR9n" opacity="1" fill="#42ba86" fill-opacity="1"></use></g><g><use xlink:href="#b2VHRHYf85" opacity="1" fill="#6594ff" fill-opacity="1"></use></g><g><use xlink:href="#a3PanTeqAw" opacity="1" fill="#65e0ff" fill-opacity="1"></use></g><g><use xlink:href="#d2DRl5TFos" opacity="1" fill="#f37f99" fill-opacity="1"></use></g><g><use xlink:href="#e1OAC7PwWG" opacity="1" fill="#65ff91" fill-opacity="1"></use></g><g><use xlink:href="#a1HCbZjomd" opacity="1" fill="#ffeb65" fill-opacity="1"></use></g><g><use xlink:href="#a7H9V9lUM" opacity="1" fill="#f5deb4" fill-opacity="1"></use></g><g><use xlink:href="#a1c9qEfJQ2" opacity="1" fill="#f5deb4" fill-opacity="1"></use></g><g><use xlink:href="#i195lIvOr" opacity="1" fill="#f5deb4" fill-opacity="1"></use></g><g><use xlink:href="#b5iu3T7yrD" opacity="1" fill="#f5deb4" fill-opacity="1"></use></g><g><use xlink:href="#a5B2ATggGF" opacity="1" fill="#ffffff" fill-opacity="1"></use></g><g><use xlink:href="#c1HSePnlZ" opacity="1" fill="#66cbfd" fill-opacity="1"></use></g><g><use xlink:href="#efsUq2kkr" opacity="1" fill="#4f5963" fill-opacity="1"></use></g></g></g></svg>