<?xml version="1.0" encoding="UTF-8" standalone="no"?>
<!DOCTYPE svg PUBLIC "-//W3C//DTD SVG 1.1//EN" "http://www.w3.org/Graphics/SVG/1.1/DTD/svg11.dtd">
<svg version="1.1" xmlns="http://www.w3.org/2000/svg" xmlns:xlink="http://www.w3.org/1999/xlink" preserveAspectRatio="xMidYMid meet" viewBox="72.51604984088874 29.41176470588232 262.261727936889 262.0000000000001" width="262.26" height="262"><defs><path d="M72.78 29.41L334.78 29.41L334.78 291.41L72.78 291.41L72.78 29.41Z" id="amD28HSwq"></path><path d="M72.52 260.22L203.78 259.5L203.78 291.01L72.78 291.41L72.52 260.22Z" id="f2sbxEQduL"></path><path d="M72.78 230.11L190.82 230.11L190.82 259.5L72.78 260.45L72.78 230.11Z" id="a1ZvaRAydW"></path><path d="M87.79 230.11L105.55 230.11L120.44 260.22L102.82 260.01L87.79 230.11Z" id="c3L2Y8Tzey"></path><path d="M72.78 212.78L190.82 212.78L190.82 230.11L72.78 230.11L72.78 212.78Z" id="b5yrepatRq"></path><path d="M72.78 193.72L203.78 193.72L203.78 212.97L72.96 212.78L72.78 193.72Z" id="bA0RO4rBp"></path><path d="M203.78 29.41L258.14 29.41L258.14 291.02L203.78 291.02L203.78 29.41Z" id="b6tUlgBJ00"></path><path d="M258.14 113.18L296.93 113.18L297.59 291.02L258.14 291.02L258.14 113.18Z" id="b7H2cObo5t"></path><path d="M296.93 69.14L334.78 69.14L334.78 291.02L297.59 290.78L296.93 69.14Z" id="a8v1VIYey"></path><path d="M258.14 257.83L297.4 257.65L297.59 275.09L258.26 275.71L258.14 257.83Z" id="b1e66FBvU8"></path><path d="M102.68 144.58L112.77 157.69L112.77 173.8L137.81 189.45L165.51 170.36L163.47 152.05L176.62 143.76L186.32 162.07L161.59 212.46L152.99 212.78L139.21 207.14L138.28 193.72L130.45 209.33L119.81 211.99L113.76 212.46L92.42 158.78L102.13 142.35L102.68 144.58Z" id="h1bZP7jblk"></path><path d="M112.95 157.91L143.76 165.1L176.89 143.78L177.26 120.15L171.05 104.44L148.51 88.36L134.87 103.83L119.74 92.14L102.47 115.57L102.47 144.81L112.95 157.91Z" id="b1gekIl3Rq"></path><path d="M143.88 165.1L163.49 152.47L165.57 170.13L137.79 189.38L112.95 173.66L112.95 158.07L143.88 165.1Z" id="c3Luz5TMj"></path><path d="M92.42 158.8L106.37 194.01L79.57 193.72L79.57 183.77L89.68 172.69L83.23 139.56L95.7 114.31L102.47 120.19L102.47 142L92.42 158.8Z" id="a8g2arj2eT"></path><path d="M186.32 162.2L176.82 144.05L177.26 119.94L184.62 113.6L194.36 131.51L185.35 175.36L194.36 185.71L194.36 194.01L170.85 193.72L186.32 162.2Z" id="b4dYLc8fCd"></path><path d="M102.71 140.43L137.31 155.16L176.14 120.24L136.7 148.8L102.71 138.91L102.71 140.43Z" id="fM6RQN6bf"></path><path d="M111.56 117.89L123.56 115.36L126.48 109.02L121.12 103.16L111.56 117.89Z" id="a2uGJqfMhU"></path><path d="M116.93 109.64L124.63 113.21L125.31 111.84L118.05 107.78L116.93 109.64Z" id="c8Q2qEL8KX"></path><path d="M141.31 106.28L144.83 110.53L155.85 108.04L146 96.33L141.31 106.28Z" id="amVsyVQAw"></path><path d="M143.55 109.02L150.97 102.19L149.19 100.05L142.48 107.73L143.55 109.02Z" id="aYSEI5yU"></path></defs><g><g><g><use xlink:href="#amD28HSwq" opacity="1" fill="#9b7647" fill-opacity="1"></use></g><g><use xlink:href="#f2sbxEQduL" opacity="1" fill="#fffe65" fill-opacity="1"></use></g><g><use xlink:href="#a1ZvaRAydW" opacity="1" fill="#65ffbc" fill-opacity="1"></use></g><g><use xlink:href="#c3L2Y8Tzey" opacity="1" fill="#42ba86" fill-opacity="1"></use></g><g><use xlink:href="#b5yrepatRq" opacity="1" fill="#6594ff" fill-opacity="1"></use></g><g><use xlink:href="#bA0RO4rBp" opacity="1" fill="#be65ff" fill-opacity="1"></use></g><g><use xlink:href="#b6tUlgBJ00" opacity="1" fill="#65e0ff" fill-opacity="1"></use></g><g><use xlink:href="#b7H2cObo5t" opacity="1" fill="#f37f99" fill-opacity="1"></use></g><g><use xlink:href="#a8v1VIYey" opacity="1" fill="#65ff91" fill-opacity="1"></use></g><g><use xlink:href="#b1e66FBvU8" opacity="1" fill="#ffeb65" fill-opacity="1"></use></g><g><use xlink:href="#h1bZP7jblk" opacity="1" fill="#76842a" fill-opacity="1"></use></g><g><use xlink:href="#b1gekIl3Rq" opacity="1" fill="#2b9c40" fill-opacity="1"></use></g><g><use xlink:href="#c3Luz5TMj" opacity="1" fill="#65c019" fill-opacity="1"></use></g><g><use xlink:href="#a8g2arj2eT" opacity="1" fill="#65c019" fill-opacity="1"></use></g><g><use xlink:href="#b4dYLc8fCd" opacity="1" fill="#65c019" fill-opacity="1"></use></g><g><use xlink:href="#fM6RQN6bf" opacity="1" fill="#181818" fill-opacity="1"></use></g><g><use xlink:href="#a2uGJqfMhU" opacity="1" fill="#dae413" fill-opacity="1"></use></g><g><use xlink:href="#c8Q2qEL8KX" opacity="1" fill="#181818" fill-opacity="1"></use></g><g><use xlink:href="#amVsyVQAw" opacity="1" fill="#dae413" fill-opacity="1"></use></g><g><use xlink:href="#aYSEI5yU" opacity="1" fill="#181818" fill-opacity="1"></use></g></g></g></svg>