<?xml version="1.0" encoding="UTF-8" standalone="no"?>
<!DOCTYPE svg PUBLIC "-//W3C//DTD SVG 1.1//EN" "http://www.w3.org/Graphics/SVG/1.1/DTD/svg11.dtd">
<svg version="1.1" xmlns="http://www.w3.org/2000/svg" xmlns:xlink="http://www.w3.org/1999/xlink" preserveAspectRatio="xMidYMid meet" viewBox="72.77777777777777 621.1029411764703 262.261727936889 262.0000000000001" width="262.26" height="262"><defs><path d="M73.04 621.1L335.04 621.1L335.04 883.1L73.04 883.1L73.04 621.1Z" id="b4Kn34XPY"></path><path d="M72.78 851.91L204.04 851.19L204.04 882.7L73.04 883.1L72.78 851.91Z" id="d1ivNzYQ14"></path><path d="M73.04 821.8L191.09 821.8L191.09 851.19L73.04 852.14L73.04 821.8Z" id="a8vnX8WVii"></path><path d="M88.05 821.8L105.81 821.8L120.7 851.91L103.08 851.71L88.05 821.8Z" id="bTrp6ZQPn"></path><path d="M73.04 804.47L191.09 804.47L191.09 821.8L73.04 821.8L73.04 804.47Z" id="b2wrK68Td2"></path><path d="M204.04 621.1L258.4 621.1L258.4 882.71L204.04 882.71L204.04 621.1Z" id="dJsWcLkSW"></path><path d="M258.4 704.87L297.19 704.87L297.85 882.71L258.4 882.71L258.4 704.87Z" id="b6E2mGmmp"></path><path d="M297.19 660.83L335.04 660.83L335.04 882.71L297.85 882.47L297.19 660.83Z" id="a1eCP8IDIX"></path><path d="M258.4 849.52L297.66 849.34L297.85 866.78L258.53 867.4L258.4 849.52Z" id="a5VVb3uIHw"></path><path d="M80.97 802.71L87.32 795.95L91.33 801.88L96.02 796.5L99.89 801.88L104.38 794.43L115.78 801.88L119.09 788.76L126.96 793.6L128.21 785.59L133.87 785.17L133.87 779.92L143.12 782.13L137.05 770.95L139.53 756.17L126.96 763.76L119.5 765.28L107.76 760.31L105.69 772.46L96.02 765.28L90.78 777.85L86.63 779.51L73.37 780.89L80.97 790.56L80.97 802.71Z" id="b1gnrXnS5N"></path><path d="M180.97 759.73L172.82 746.2L166.33 753.38L157.49 743.85L143.12 755.04L142.02 739.98L116.88 750.34L115.91 727.96L103.21 733.77L104.86 716.36L92.02 716.36L93.68 705.45L77.1 706.83L91.33 691.92L91.33 673.27L96.02 673.27L110.94 687.91L126.27 690.53L144.09 683.08L143.54 698.27L153.21 703.79L163.29 693.57L166.33 710.24L173.79 718.53L203.78 727.37L187.87 742.56L180.97 759.73Z" id="a69T53JChX"></path></defs><g><g><g><use xlink:href="#b4Kn34XPY" opacity="1" fill="#9b7647" fill-opacity="1"></use></g><g><use xlink:href="#d1ivNzYQ14" opacity="1" fill="#fffe65" fill-opacity="1"></use></g><g><use xlink:href="#a8vnX8WVii" opacity="1" fill="#65ffbc" fill-opacity="1"></use></g><g><use xlink:href="#bTrp6ZQPn" opacity="1" fill="#42ba86" fill-opacity="1"></use></g><g><use xlink:href="#b2wrK68Td2" opacity="1" fill="#6594ff" fill-opacity="1"></use></g><g><use xlink:href="#dJsWcLkSW" opacity="1" fill="#65e0ff" fill-opacity="1"></use></g><g><use xlink:href="#b6E2mGmmp" opacity="1" fill="#f37f99" fill-opacity="1"></use></g><g><use xlink:href="#a1eCP8IDIX" opacity="1" fill="#65ff91" fill-opacity="1"></use></g><g><use xlink:href="#a5VVb3uIHw" opacity="1" fill="#ffeb65" fill-opacity="1"></use></g><g><use xlink:href="#b1gnrXnS5N" opacity="1" fill="#000000" fill-opacity="1"></use></g><g><use xlink:href="#a69T53JChX" opacity="1" fill="#000000" fill-opacity="1"></use></g></g></g></svg>