<?xml version="1.0" encoding="UTF-8" standalone="no"?>
<!DOCTYPE svg PUBLIC "-//W3C//DTD SVG 1.1//EN" "http://www.w3.org/Graphics/SVG/1.1/DTD/svg11.dtd">
<svg version="1.1" xmlns="http://www.w3.org/2000/svg" xmlns:xlink="http://www.w3.org/1999/xlink" preserveAspectRatio="xMidYMid meet" viewBox="22.777777777777715 19.796380090497706 262 262.0000000000002" width="262" height="262"><defs><path d="M22.78 19.8L284.78 19.8L284.78 281.8L22.78 281.8L22.78 19.8Z" id="a4MlViVPOU"></path><path d="M22.78 250.61L153.78 249.88L153.78 281.39L22.78 281.8L22.78 250.61Z" id="arBV9xrxF"></path><path d="M22.78 220.5L140.82 220.5L140.82 249.88L22.78 250.83L22.78 220.5Z" id="a1qzGvJsUj"></path><path d="M37.79 220.5L55.55 220.5L70.44 250.61L52.82 250.4L37.79 220.5Z" id="ha2O8z1MJ"></path><path d="M22.78 203.16L140.82 203.16L140.82 220.5L22.78 220.5L22.78 203.16Z" id="b63P2tkP"></path><path d="M22.78 184.11L153.78 184.11L153.78 203.36L22.96 203.16L22.78 184.11Z" id="a13uNKvPW7"></path><path d="M153.78 19.8L208.14 19.8L208.14 281.41L153.78 281.41L153.78 19.8Z" id="cavyljz0q"></path><path d="M208.14 103.56L246.93 103.56L247.59 281.41L208.14 281.41L208.14 103.56Z" id="dmGQcDKex"></path><path d="M246.93 59.52L284.78 59.52L284.78 281.41L247.59 281.16L246.93 59.52Z" id="g28cr7gnpm"></path><path d="M208.14 248.22L247.4 248.03L247.59 265.47L208.26 266.09L208.14 248.22Z" id="d2UMTYbdS6"></path><path d="M52.68 134.97L62.77 148.07L62.77 164.19L87.81 179.84L115.51 160.75L113.47 142.44L126.62 134.14L136.32 152.45L111.59 202.84L102.99 203.16L89.21 197.52L88.28 184.11L80.45 199.71L69.81 202.37L63.76 202.84L42.42 149.17L52.13 132.73L52.68 134.97Z" id="a2pbVqOpgt"></path><path d="M62.95 148.3L93.76 155.48L126.89 134.17L127.26 110.54L121.05 94.83L98.51 78.75L84.87 94.22L69.74 82.52L52.47 105.96L52.47 135.19L62.95 148.3Z" id="a4eWPQ7Txh"></path><path d="M93.88 155.48L113.49 142.86L115.57 160.52L87.79 179.76L62.95 164.05L62.95 148.46L93.88 155.48Z" id="b1goraiARg"></path><path d="M42.42 149.19L56.37 184.39L29.57 184.11L29.57 174.16L39.68 163.07L33.23 129.94L45.7 104.69L52.47 110.58L52.47 132.38L42.42 149.19Z" id="b1CfdpYTkc"></path><path d="M136.32 152.59L126.82 134.44L127.26 110.32L134.62 103.99L144.36 121.89L135.35 165.74L144.36 176.1L144.36 184.39L120.85 184.11L136.32 152.59Z" id="c4CiSwH2aK"></path><path d="M52.71 130.81L87.31 145.55L126.14 110.62L86.7 139.19L52.71 129.3L52.71 130.81Z" id="b29Jj6tQR"></path><path d="M61.56 108.28L73.56 105.74L76.48 99.4L71.12 93.55L61.56 108.28Z" id="doyL5o0sq"></path><path d="M66.93 100.02L74.63 103.6L75.31 102.23L68.05 98.17L66.93 100.02Z" id="a24be0mVcm"></path><path d="M91.31 96.67L94.83 100.91L105.85 98.42L96 86.72L91.31 96.67Z" id="c4yW5WZvm"></path><path d="M93.55 99.41L100.97 92.57L99.19 90.43L92.48 98.12L93.55 99.41Z" id="a2ksCcezsn"></path></defs><g><g><g><use xlink:href="#a4MlViVPOU" opacity="1" fill="#9b7647" fill-opacity="1"></use></g><g><use xlink:href="#arBV9xrxF" opacity="1" fill="#fffe65" fill-opacity="1"></use></g><g><use xlink:href="#a1qzGvJsUj" opacity="1" fill="#65ffbc" fill-opacity="1"></use></g><g><use xlink:href="#ha2O8z1MJ" opacity="1" fill="#42ba86" fill-opacity="1"></use></g><g><use xlink:href="#b63P2tkP" opacity="1" fill="#6594ff" fill-opacity="1"></use></g><g><use xlink:href="#a13uNKvPW7" opacity="1" fill="#be65ff" fill-opacity="1"></use></g><g><use xlink:href="#cavyljz0q" opacity="1" fill="#65e0ff" fill-opacity="1"></use></g><g><use xlink:href="#dmGQcDKex" opacity="1" fill="#f37f99" fill-opacity="1"></use></g><g><use xlink:href="#g28cr7gnpm" opacity="1" fill="#65ff91" fill-opacity="1"></use></g><g><use xlink:href="#d2UMTYbdS6" opacity="1" fill="#ffeb65" fill-opacity="1"></use></g><g><use xlink:href="#a2pbVqOpgt" opacity="1" fill="#76842a" fill-opacity="1"></use></g><g><use xlink:href="#a4eWPQ7Txh" opacity="1" fill="#2b9c40" fill-opacity="1"></use></g><g><use xlink:href="#b1goraiARg" opacity="1" fill="#65c019" fill-opacity="1"></use></g><g><use xlink:href="#b1CfdpYTkc" opacity="1" fill="#65c019" fill-opacity="1"></use></g><g><use xlink:href="#c4CiSwH2aK" opacity="1" fill="#65c019" fill-opacity="1"></use></g><g><use xlink:href="#b29Jj6tQR" opacity="1" fill="#181818" fill-opacity="1"></use></g><g><use xlink:href="#doyL5o0sq" opacity="1" fill="#dae413" fill-opacity="1"></use></g><g><use xlink:href="#a24be0mVcm" opacity="1" fill="#181818" fill-opacity="1"></use></g><g><use xlink:href="#c4yW5WZvm" opacity="1" fill="#dae413" fill-opacity="1"></use></g><g><use xlink:href="#a2ksCcezsn" opacity="1" fill="#181818" fill-opacity="1"></use></g></g></g></svg>