<?xml version="1.0" encoding="UTF-8" standalone="no"?>
<!DOCTYPE svg PUBLIC "-//W3C//DTD SVG 1.1//EN" "http://www.w3.org/Graphics/SVG/1.1/DTD/svg11.dtd">
<svg version="1.1" xmlns="http://www.w3.org/2000/svg" xmlns:xlink="http://www.w3.org/1999/xlink" preserveAspectRatio="xMidYMid meet" viewBox="72.77777777777777 324.2892156862745 261.99999999999994 262.0000000000001" width="262" height="262"><defs><path d="M72.78 324.29L334.78 324.29L334.78 586.29L72.78 586.29L72.78 324.29Z" id="caSeeh5L"></path><path d="M203.78 324.29L258.14 324.29L258.14 585.9L203.78 585.9L203.78 324.29Z" id="g1aOqLxmLX"></path><path d="M258.14 408.05L296.93 408.05L297.59 585.9L258.14 585.9L258.14 408.05Z" id="ifyOJIY2p"></path><path d="M296.93 364.02L334.78 364.02L334.78 585.9L297.59 585.65L296.93 364.02Z" id="b4Aq5uMTta"></path><path d="M258.14 552.71L297.4 552.52L297.59 569.97L258.26 570.58L258.14 552.71Z" id="bRhpeNcnw"></path><path d="M72.99 507.56L203.78 507.23L203.78 538.66L72.99 539.12L72.99 507.56Z" id="l2zEGk8tGa"></path><path d="M85.5 539.12L203.78 538.82L203.78 568.52L85.5 568.82L85.5 539.12Z" id="g3eedkqVx5"></path><path d="M156.39 538.82L173.62 538.82L188.77 568.82L171.54 568.52L156.39 538.82Z" id="b5EnjZ6cH"></path><path d="M85.5 568.82L203.78 568.42L203.78 585.9L85.9 585.9L85.5 568.82Z" id="k19CWvignM"></path><path d="M124.79 473.03L123.46 482.18L107.95 481.29L104.14 470.96L106.47 466.25L110.05 463.53L123.97 431.51L137.46 422.63L132.92 394.05L146.56 412.56L143.67 387.08L155.62 410.25L203.78 461.11L203.78 507.23L155.62 507.49L155.19 457.89L124.79 473.03Z" id="a10Pp8L3pW"></path><path d="M114.02 470.29L115.62 473.77L111.85 477.25L110.44 474.14L114.02 470.29Z" id="izCfOWoWc"></path><path d="M138.28 431.85L145.15 432.6L142.89 436.74L135.55 436.74L138.28 431.85Z" id="g1mc4lJIa2"></path><path d="M78.52 376.55L134.54 424.69L126.91 429.61L78.52 376.55Z" id="b1QAkyB5Gb"></path><path d="M155.63 410.23L175.48 407.97L203.78 433.46L203.78 461.22L155.63 410.23Z" id="b8anUVRAT"></path></defs><g><g><g><use xlink:href="#caSeeh5L" opacity="1" fill="#9b7647" fill-opacity="1"></use></g><g><use xlink:href="#g1aOqLxmLX" opacity="1" fill="#65e0ff" fill-opacity="1"></use></g><g><use xlink:href="#ifyOJIY2p" opacity="1" fill="#f37f99" fill-opacity="1"></use></g><g><use xlink:href="#b4Aq5uMTta" opacity="1" fill="#65ff91" fill-opacity="1"></use></g><g><use xlink:href="#bRhpeNcnw" opacity="1" fill="#ffeb65" fill-opacity="1"></use></g><g><use xlink:href="#l2zEGk8tGa" opacity="1" fill="#d7ff65" fill-opacity="1"></use></g><g><use xlink:href="#g3eedkqVx5" opacity="1" fill="#65ffac" fill-opacity="1"></use></g><g><use xlink:href="#b5EnjZ6cH" opacity="1" fill="#65c591" fill-opacity="1"></use></g><g><use xlink:href="#k19CWvignM" opacity="1" fill="#65f6ff" fill-opacity="1"></use></g><g><use xlink:href="#a10Pp8L3pW" opacity="1" fill="#fcfd97" fill-opacity="1"></use></g><g><use xlink:href="#izCfOWoWc" opacity="1" fill="#1b1b1b" fill-opacity="1"></use></g><g><use xlink:href="#g1mc4lJIa2" opacity="1" fill="#6cbee9" fill-opacity="1"></use></g><g><use xlink:href="#b1QAkyB5Gb" opacity="1" fill="#f0db85" fill-opacity="1"></use></g><g><use xlink:href="#b8anUVRAT" opacity="1" fill="#eedc87" fill-opacity="1"></use></g></g></g></svg>