<?xml version="1.0" encoding="UTF-8" standalone="no"?>
<!DOCTYPE svg PUBLIC "-//W3C//DTD SVG 1.1//EN" "http://www.w3.org/Graphics/SVG/1.1/DTD/svg11.dtd">
<svg version="1.1" xmlns="http://www.w3.org/2000/svg" xmlns:xlink="http://www.w3.org/1999/xlink" preserveAspectRatio="xMidYMid meet" viewBox="396.7565359477125 29.023510251512278 262.26172793688903 262.00000000000006" width="262.26" height="262"><defs><path d="M397.02 29.02L659.02 29.02L659.02 291.02L397.02 291.02L397.02 29.02Z" id="b25TyWTT7o"></path><path d="M396.76 259.83L528.02 259.11L528.02 290.62L397.02 291.02L396.76 259.83Z" id="b3DfyUQYt"></path><path d="M397.02 229.72L515.06 229.72L515.06 259.11L397.02 260.06L397.02 229.72Z" id="bxz3eOzvi"></path><path d="M412.03 229.72L429.79 229.72L444.68 259.83L427.06 259.63L412.03 229.72Z" id="b8qD9iwaT"></path><path d="M397.02 212.39L515.06 212.39L515.06 229.72L397.02 229.72L397.02 212.39Z" id="arye4Sin5"></path><path d="M528.02 29.02L582.38 29.02L582.38 290.64L528.02 290.64L528.02 29.02Z" id="hsQRfNK4P"></path><path d="M582.38 112.79L621.17 112.79L621.83 290.64L582.38 290.64L582.38 112.79Z" id="a1yraleyB2"></path><path d="M621.17 68.75L659.02 68.75L659.02 290.64L621.83 290.39L621.17 68.75Z" id="b1ZCB8cfh7"></path><path d="M582.38 257.44L621.64 257.26L621.83 274.7L582.5 275.32L582.38 257.44Z" id="b1glcFcVje"></path><path d="M411.64 165.26L423.13 157.54L421.61 125.73L434.95 119.48L445.09 125.06L460.63 119.48L461.81 96.34L476 83.84L517.55 93.48L523.47 105.13L517.55 115.1L501.85 105.98L502.23 142.36L491.54 161.25L470.93 164.63L460.12 157.54L449.48 162.1L445.93 207.2L436.47 212.39L423.13 212.39L411.64 165.26Z" id="g2QoOuP286"></path><path d="M507.69 109.44L502.23 105.88L502.23 99.78L507.69 96.14L517.74 102.47L517.74 109.44L507.69 109.44Z" id="aopuh8ytL"></path><path d="M421.96 202.77L434.47 207.76L435.89 194.45L402.56 150.82L397.49 155.66L397.49 162.86L423.06 212.39L421.96 202.77Z" id="aku9J5Fb3"></path><path d="M427.97 205.05L433.36 194.2L426.23 190L420.77 194.99L422.04 202.67L427.97 205.05Z" id="c4uZ3doJTc"></path></defs><g><g><g><use xlink:href="#b25TyWTT7o" opacity="1" fill="#9b7647" fill-opacity="1"></use></g><g><use xlink:href="#b3DfyUQYt" opacity="1" fill="#fffe65" fill-opacity="1"></use></g><g><use xlink:href="#bxz3eOzvi" opacity="1" fill="#65ffbc" fill-opacity="1"></use></g><g><use xlink:href="#b8qD9iwaT" opacity="1" fill="#42ba86" fill-opacity="1"></use></g><g><use xlink:href="#arye4Sin5" opacity="1" fill="#6594ff" fill-opacity="1"></use></g><g><use xlink:href="#hsQRfNK4P" opacity="1" fill="#65e0ff" fill-opacity="1"></use></g><g><use xlink:href="#a1yraleyB2" opacity="1" fill="#f37f99" fill-opacity="1"></use></g><g><use xlink:href="#b1ZCB8cfh7" opacity="1" fill="#65ff91" fill-opacity="1"></use></g><g><use xlink:href="#b1glcFcVje" opacity="1" fill="#ffeb65" fill-opacity="1"></use></g><g><use xlink:href="#g2QoOuP286" opacity="1" fill="#f2d7a8" fill-opacity="1"></use></g><g><use xlink:href="#aopuh8ytL" opacity="1" fill="#efc287" fill-opacity="1"></use></g><g><use xlink:href="#aku9J5Fb3" opacity="1" fill="#efc287" fill-opacity="1"></use></g><g><use xlink:href="#c4uZ3doJTc" opacity="1" fill="#c0805a" fill-opacity="1"></use></g></g></g></svg>