<?xml version="1.0" encoding="UTF-8" standalone="no"?>
<!DOCTYPE svg PUBLIC "-//W3C//DTD SVG 1.1//EN" "http://www.w3.org/Graphics/SVG/1.1/DTD/svg11.dtd">
<svg version="1.1" xmlns="http://www.w3.org/2000/svg" xmlns:xlink="http://www.w3.org/1999/xlink" preserveAspectRatio="xMidYMid meet" viewBox="396.7565359477125 324.28921568627453 262.26172793688903 262.00000000000006" width="262.26" height="262"><defs><path d="M397.02 324.29L659.02 324.29L659.02 586.29L397.02 586.29L397.02 324.29Z" id="bcZkqZU3p"></path><path d="M396.76 555.1L528.02 554.38L528.02 585.89L397.02 586.29L396.76 555.1Z" id="at51od81c"></path><path d="M397.02 524.99L515.06 524.99L515.06 554.38L397.02 555.33L397.02 524.99Z" id="e8AuSo2Z6a"></path><path d="M412.03 524.99L429.79 524.99L444.68 555.1L427.06 554.89L412.03 524.99Z" id="b1nfVzbpko"></path><path d="M397.02 507.66L515.06 507.66L515.06 524.99L397.02 524.99L397.02 507.66Z" id="aa7tp3wyt0"></path><path d="M528.02 324.29L582.38 324.29L582.38 585.9L528.02 585.9L528.02 324.29Z" id="e6s2Lznct"></path><path d="M582.38 408.05L621.17 408.05L621.83 585.9L582.38 585.9L582.38 408.05Z" id="a73ygnAtPT"></path><path d="M621.17 364.02L659.02 364.02L659.02 585.9L621.83 585.65L621.17 364.02Z" id="ecZaA9a8X"></path><path d="M582.38 552.71L621.64 552.52L621.83 569.97L582.5 570.58L582.38 552.71Z" id="cWZnpOcpr"></path><path d="M461.58 489.31L463.83 487.43L461.21 496.34L449.39 498.12L448.17 507.41L450.87 504.03L452.11 507.66L455.2 500.94L466.09 501.41L471.46 482.66L464.89 473.34L468.37 470.28L492.57 468.5L505.42 480.6L511.52 476.19L521.55 482.66L517.99 475.44L525.68 478.35L520.62 473.75L524.93 473.75L518.83 468.87L506.04 473.34L498.25 464.05L485.31 452.33L483.7 418.58L483.7 412.01L480.33 408.17L462.69 407.42L462.97 405.07L483.05 400.85L480.33 392.32L459.69 386.03L457.91 376.65L455.56 376.65L454.34 382.83L459.69 391.37L473.38 396.25L450 402.91L448.43 409.76L472.82 417L460.34 423.28L453.87 430.6L446.65 423L438.58 426.57L422.26 437.64L413.63 441.01L411.66 427.22L400.4 423.75L403.31 426.57L397.96 428.35L403.31 431.07L397.96 433.23L408.37 435.57L406.5 449.55L425.64 442.61L440.18 434.73L446.65 438.11L443.46 441.58L441.58 479.36L445.9 482.92L439.43 484.89L433.33 478.89L428.54 487.8L422.26 478.61L417.57 491.46L408.66 494.09L405.19 489.68L404.25 495.12L403.03 495.4L400.03 490.71L399.65 496.81L397.96 496.81L401.53 506.28L449.65 496.81L450.87 487.43L461.58 489.31Z" id="b1rEyv25RQ"></path><path d="M404.41 505.58L404.41 499.58L401.4 500.05L404.41 505.58Z" id="c3rbP6ON4m"></path><path d="M410.22 504.36L410.79 497.8L406.85 498.64L410.22 504.36Z" id="adQyZhu5H"></path><path d="M422.79 483.16L425.7 488.79L420.07 490.2L422.79 483.16Z" id="b6Mev0aj6"></path><path d="M433.77 481.57L437.24 485.41L431.42 487.1L433.77 481.57Z" id="a1uoIQQio"></path><path d="M443.34 441.34L441.74 442.84L430.77 387.77L416.98 415.05L424.86 428.46L417.45 430.9L428.61 446.11L424.58 452.02L429.27 457.08L422.89 463.56L441.46 479.22L443.34 441.34Z" id="b54jHLH09"></path><path d="M507.71 458.17L492.14 448.61L515.03 435.94L500.11 426.75L519.72 415.87L519.72 385.75L457.43 441.48L456.04 452.83L474.97 479.94L507.71 458.17Z" id="cc2OCIzw4"></path></defs><g><g><g><use xlink:href="#bcZkqZU3p" opacity="1" fill="#9b7647" fill-opacity="1"></use></g><g><use xlink:href="#at51od81c" opacity="1" fill="#fffe65" fill-opacity="1"></use></g><g><use xlink:href="#e8AuSo2Z6a" opacity="1" fill="#65ffbc" fill-opacity="1"></use></g><g><use xlink:href="#b1nfVzbpko" opacity="1" fill="#42ba86" fill-opacity="1"></use></g><g><use xlink:href="#aa7tp3wyt0" opacity="1" fill="#6594ff" fill-opacity="1"></use></g><g><use xlink:href="#e6s2Lznct" opacity="1" fill="#65e0ff" fill-opacity="1"></use></g><g><use xlink:href="#a73ygnAtPT" opacity="1" fill="#f37f99" fill-opacity="1"></use></g><g><use xlink:href="#ecZaA9a8X" opacity="1" fill="#65ff91" fill-opacity="1"></use></g><g><use xlink:href="#cWZnpOcpr" opacity="1" fill="#ffeb65" fill-opacity="1"></use></g><g><use xlink:href="#b1rEyv25RQ" opacity="1" fill="#323232" fill-opacity="1"></use></g><g><use xlink:href="#c3rbP6ON4m" opacity="1" fill="#f8f8f8" fill-opacity="1"></use></g><g><use xlink:href="#adQyZhu5H" opacity="1" fill="#f8f8f8" fill-opacity="1"></use></g><g><use xlink:href="#b6Mev0aj6" opacity="1" fill="#b60a0a" fill-opacity="1"></use></g><g><use xlink:href="#a1uoIQQio" opacity="1" fill="#b60a0a" fill-opacity="1"></use></g><g><use xlink:href="#b54jHLH09" opacity="1" fill="#969696" fill-opacity="1"></use></g><g><use xlink:href="#cc2OCIzw4" opacity="1" fill="#969696" fill-opacity="1"></use></g></g></g></svg>