<?xml version="1.0" encoding="UTF-8" standalone="no"?>
<!DOCTYPE svg PUBLIC "-//W3C//DTD SVG 1.1//EN" "http://www.w3.org/Graphics/SVG/1.1/DTD/svg11.dtd">
<svg version="1.1" xmlns="http://www.w3.org/2000/svg" xmlns:xlink="http://www.w3.org/1999/xlink" preserveAspectRatio="xMidYMid meet" viewBox="610.0694202445814 182.89982104317312 261.9999999999999 262" width="262" height="262"><defs><path d="M610.07 182.9L872.07 182.9L872.07 444.9L610.07 444.9L610.07 182.9Z" id="bxkxQu60B"></path><path d="M610.56 425.37L760.8 430.77L760.8 443.91L610.56 444.51L610.56 425.37Z" id="a13oysDpYF"></path><path d="M761.55 183.5L802.46 183.5L801.38 443.91L760.8 443.91L761.55 183.5Z" id="aj2RqXXMT"></path><path d="M802.46 293.57L840.17 294.91L840.17 444.51L801.38 443.83L802.46 293.57Z" id="d44zfzBkQ6"></path><path d="M839.91 218.43L871.81 218.43L872.07 444.9L840.17 444.9L839.91 218.43Z" id="aYmq07n8h"></path><path d="M801.38 415.8L840.17 416.22L840.17 429.19L801.38 428.94L801.38 415.8Z" id="b1WtcnvjP5"></path><path d="M645.07 375.35L658.35 392.34L658.48 409.25L684.25 423.13L718.59 405.93L717.6 389.81L731.99 382.21L743.04 400.32L713.02 444.11L700.47 444.11L686.69 439.26L685.68 428.34L677 441.24L663.24 444.11L656.87 443.91L634.5 391.11L645.07 379.66L645.07 375.35Z" id="bu91CwI4f"></path><path d="M658.35 392.32L694.47 401.48L732.22 382.03L732.22 359.13L724.24 341.03L698.97 325.99L684.76 340.32L666.99 328.02L646.95 351.23L645.28 375.68L658.35 392.32Z" id="esNddQSPM"></path><path d="M695.55 401.48L717.41 389.89L718.44 405.89L684.34 423.16L658.35 409.29L658.35 392.34L695.55 401.48Z" id="a1k5BDbtTe"></path><path d="M634.5 390.93L649.8 426.75L620.72 425.84L620.3 415.9L631.66 407.1L623.09 374.45L638.2 350.02L646.42 356.68L644.97 379.93L634.5 390.93Z" id="am9EDcCxv"></path><path d="M743.04 400.15L732.2 382.01L732.2 358.85L740.44 352.9L752.88 371.85L741.62 413.01L751.23 423.06L751.23 430.46L723.39 429.19L743.04 400.15Z" id="c1cODDNpa"></path><path d="M645.64 374.01L687.2 389.89L730.91 359.01L686.58 383.53L645.64 374.01Z" id="jgveddljx"></path><path d="M660.07 352.51L678.72 350.02L668.39 340.89L660.07 352.51Z" id="b1W47pMxU0"></path><path d="M664.94 345.77L674.32 350.6L678.72 350.03L666.09 344L664.94 345.77Z" id="a4WkmguEi"></path><path d="M689.52 348.27L707.8 344.94L696.7 334.58L689.52 348.27Z" id="f7ttNsEKL"></path><path d="M694.35 347.38L702.22 339.72L700.14 337.77L690.3 348.12L694.35 347.38Z" id="mpDGtQbLb"></path></defs><g><g><g><use xlink:href="#bxkxQu60B" opacity="1" fill="#9b7647" fill-opacity="1"></use></g><g><use xlink:href="#a13oysDpYF" opacity="1" fill="#fffe65" fill-opacity="1"></use></g><g><use xlink:href="#aj2RqXXMT" opacity="1" fill="#65e0ff" fill-opacity="1"></use></g><g><use xlink:href="#d44zfzBkQ6" opacity="1" fill="#f37f99" fill-opacity="1"></use></g><g><use xlink:href="#aYmq07n8h" opacity="1" fill="#65ff91" fill-opacity="1"></use></g><g><use xlink:href="#b1WtcnvjP5" opacity="1" fill="#ffeb65" fill-opacity="1"></use></g><g><use xlink:href="#bu91CwI4f" opacity="1" fill="#a9ab4c" fill-opacity="1"></use></g><g><use xlink:href="#esNddQSPM" opacity="1" fill="#569439" fill-opacity="1"></use></g><g><use xlink:href="#a1k5BDbtTe" opacity="1" fill="#dac073" fill-opacity="1"></use></g><g><use xlink:href="#am9EDcCxv" opacity="1" fill="#293533" fill-opacity="1"></use></g><g><use xlink:href="#c1cODDNpa" opacity="1" fill="#293533" fill-opacity="1"></use></g><g><use xlink:href="#jgveddljx" opacity="1" fill="#181818" fill-opacity="1"></use></g><g><use xlink:href="#b1W47pMxU0" opacity="1" fill="#dae413" fill-opacity="1"></use></g><g><use xlink:href="#a4WkmguEi" opacity="1" fill="#181818" fill-opacity="1"></use></g><g><use xlink:href="#f7ttNsEKL" opacity="1" fill="#dae413" fill-opacity="1"></use></g><g><use xlink:href="#mpDGtQbLb" opacity="1" fill="#181818" fill-opacity="1"></use></g></g></g></svg>