<?xml version="1.0" encoding="UTF-8" standalone="no"?>
<!DOCTYPE svg PUBLIC "-//W3C//DTD SVG 1.1//EN" "http://www.w3.org/Graphics/SVG/1.1/DTD/svg11.dtd">
<svg version="1.1" xmlns="http://www.w3.org/2000/svg" xmlns:xlink="http://www.w3.org/1999/xlink" preserveAspectRatio="xMidYMid meet" viewBox="28.365384615384812 141.0576923076917 261.99999999999994 262" width="262" height="262"><defs><path d="M28.37 141.06L290.37 141.06L290.37 403.06L28.37 403.06L28.37 141.06Z" id="e2ZGrSmDT"></path><path d="M255.9 232.51L289.66 276.04L289.66 331.25L276.72 372.57L223.41 402.23L96.28 402.23L41.71 372.57L29.09 334.09L29.09 276.04L62.53 232.51L255.9 232.51Z" id="g4KrB8HD9"></path><path d="M44.02 201.77L96.35 171.54L222.25 171.54L274.97 201.77L274.97 216.54L243.19 245.03L75.83 244.34L43.36 216.54L44.02 201.77Z" id="g1xzBhrzpt"></path><path d="M114.31 230.61L204.47 230.61L244.36 214.38L207.4 190.02L113.62 189.33L73.38 215.07L114.31 230.61Z" id="a1SMd3Ed2"></path></defs><g><g><g><use xlink:href="#e2ZGrSmDT" opacity="1" fill="#9b7647" fill-opacity="1"></use></g><g><use xlink:href="#g4KrB8HD9" opacity="1" fill="#9e9e9e" fill-opacity="1"></use></g><g><use xlink:href="#g1xzBhrzpt" opacity="1" fill="#7a7a7a" fill-opacity="1"></use></g><g><use xlink:href="#a1SMd3Ed2" opacity="1" fill="#e9cd9c" fill-opacity="1"></use></g></g></g></svg>