<?xml version="1.0" encoding="UTF-8" standalone="no"?>
<!DOCTYPE svg PUBLIC "-//W3C//DTD SVG 1.1//EN" "http://www.w3.org/Graphics/SVG/1.1/DTD/svg11.dtd">
<svg version="1.1" xmlns="http://www.w3.org/2000/svg" xmlns:xlink="http://www.w3.org/1999/xlink" preserveAspectRatio="xMidYMid meet" viewBox="332.1153846153849 141.0576923076917 261.99999999999994 262" width="262" height="262"><defs><path d="M332.12 141.06L594.12 141.06L594.12 403.06L332.12 403.06L332.12 141.06Z" id="dzo9X0DgD"></path><path d="M353.27 249.9L338.75 311.5L364.05 364.66L422.6 402.13L506.2 402.13L582.08 364.66L591.21 296.98L570.27 252.17L528.12 219.21L392.65 219.21L353.27 249.9Z" id="i7c7V3rI7"></path><path d="M461.59 219.21L432.32 302.69L459.88 401.73L422.23 402.13L391.53 382.22L396.13 272.06L446.48 219.21L461.59 219.21Z" id="cZ9EzRvES"></path><path d="M492.02 219.21L539.95 265.81L526.76 391.78L506.06 402.13L476.6 402.13L499.11 278.46L467.05 219.21L492.02 219.21Z" id="f1wScB4Lxz"></path><path d="M480.39 157.45L468.52 145.45L448.33 143.13L426.56 159.09L421.59 184.46L435.23 209.98L432.09 179.28L444.51 157.18L466.75 162.36L472.2 187.47L440.14 219.21L492.67 219.21L480.39 157.45Z" id="fRysn9Rj0"></path><path d="M505.45 198.79L538.19 178.46L562.34 200.43L580.35 200.43L585.26 190.33L581.3 177.23L550.2 171.91L583.08 170.41L592.63 188.42L585.26 203.02L564.66 210.39L540.22 188.42L512.82 202.47L501.63 219.21L494.67 219.21L505.45 198.79Z" id="dqTAI90LM"></path></defs><g><g><g><use xlink:href="#dzo9X0DgD" opacity="1" fill="#9b7647" fill-opacity="1"></use></g><g><use xlink:href="#i7c7V3rI7" opacity="1" fill="#ff9a66" fill-opacity="1"></use></g><g><use xlink:href="#cZ9EzRvES" opacity="1" fill="#ff7f50" fill-opacity="1"></use></g><g><use xlink:href="#f1wScB4Lxz" opacity="1" fill="#ff7f50" fill-opacity="1"></use></g><g><use xlink:href="#fRysn9Rj0" opacity="1" fill="#43a751" fill-opacity="1"></use></g><g><use xlink:href="#dqTAI90LM" opacity="1" fill="#43a751" fill-opacity="1"></use></g></g></g></svg>