<?xml version="1.0" encoding="UTF-8" standalone="no"?>
<!DOCTYPE svg PUBLIC "-//W3C//DTD SVG 1.1//EN" "http://www.w3.org/Graphics/SVG/1.1/DTD/svg11.dtd">
<svg version="1.1" xmlns="http://www.w3.org/2000/svg" xmlns:xlink="http://www.w3.org/1999/xlink" preserveAspectRatio="xMidYMid meet" viewBox="342.9166666666667 130.9108959539028 261.99999999999994 262" width="262" height="262"><defs><path d="M342.92 130.91L604.92 130.91L604.92 392.91L342.92 392.91L342.92 130.91Z" id="c5ER92JiI2"></path><path d="M343.2 146.49L385.49 146.49L384.83 392.46L343.2 392.46L343.2 146.49Z" id="ah9u2uW6k"></path><path d="M385.49 146.49L422.99 146.49L422.83 392.71L384.61 392.38L385.49 146.49Z" id="ak33tZzBK"></path><path d="M384.83 254.99L422.49 254.99L422.49 292.83L384.83 293.2L384.83 254.99Z" id="b2CAme4tmS"></path><path d="M422.49 335.27L604.92 335.27L604.92 366.85L422.74 366.85L422.49 335.27Z" id="fW0C7IM8"></path><path d="M422.49 366.87L591.64 366.53L591.89 392.46L422.77 392.71L422.49 366.87Z" id="a1HG8z1DKs"></path><path d="M463.29 195.68L463.29 268.03L479.56 312.94L476.03 327.84L466.82 335.27L438.19 335.27L428.19 328.62L422.99 311.56L440.54 269.01L440.54 194.9L463.29 195.68Z" id="m1GziIsFb"></path><path d="M463.29 242.54L463.29 216.07L440.5 240.97L440.5 268.03L463.29 242.54Z" id="k1B7hzqtZ9"></path><path d="M500.03 214.94L521.41 214.94L522.39 253.56L541.8 265.08L541.8 288.46L519.84 335.27L506.31 335.27L479.56 288.46L479.56 265.52L501.02 253.56L500.03 214.94Z" id="a1aSMgsFwZ"></path><path d="M495.72 278.86L511.6 253.76L531.21 278.46L514.74 335.27L511.6 335.27L495.72 278.86Z" id="dtLoAauhF"></path><path d="M589.13 152.53L595.6 131.8L556.19 131.8L563.68 152.27L589.13 152.53Z" id="c6dfUYA8ea"></path><path d="M554.03 335.27L596.58 335.27L595.6 152.58L555.8 151.99L554.03 335.27Z" id="dBLhR1J2k"></path><path d="M554.47 289.21L596.58 289.21L595.6 192.94L555.25 192.94L554.47 289.21Z" id="c5D62V0F7B"></path></defs><g><g><g><use xlink:href="#c5ER92JiI2" opacity="1" fill="#9b7647" fill-opacity="1"></use></g><g><use xlink:href="#ah9u2uW6k" opacity="1" fill="#ff7f50" fill-opacity="1"></use></g><g><use xlink:href="#ak33tZzBK" opacity="1" fill="#c850ff" fill-opacity="1"></use></g><g><use xlink:href="#b2CAme4tmS" opacity="1" fill="#5250ff" fill-opacity="1"></use></g><g><use xlink:href="#fW0C7IM8" opacity="1" fill="#daa6ef" fill-opacity="1"></use></g><g><use xlink:href="#a1HG8z1DKs" opacity="1" fill="#ff9e50" fill-opacity="1"></use></g><g><use xlink:href="#m1GziIsFb" opacity="1" fill="#66cea1" fill-opacity="1"></use></g><g><use xlink:href="#k1B7hzqtZ9" opacity="1" fill="#f3e94f" fill-opacity="1"></use></g><g><use xlink:href="#a1aSMgsFwZ" opacity="1" fill="#be8cff" fill-opacity="1"></use></g><g><use xlink:href="#dtLoAauhF" opacity="1" fill="#4fc7f3" fill-opacity="1"></use></g><g><use xlink:href="#c6dfUYA8ea" opacity="1" fill="#debf83" fill-opacity="1"></use></g><g><use xlink:href="#dBLhR1J2k" opacity="1" fill="#b2ceb8" fill-opacity="1"></use></g><g><use xlink:href="#c5D62V0F7B" opacity="1" fill="#f9f7d6" fill-opacity="1"></use></g></g></g></svg>