<?xml version="1.0" encoding="UTF-8" standalone="no"?>
<!DOCTYPE svg PUBLIC "-//W3C//DTD SVG 1.1//EN" "http://www.w3.org/Graphics/SVG/1.1/DTD/svg11.dtd">
<svg version="1.1" xmlns="http://www.w3.org/2000/svg" xmlns:xlink="http://www.w3.org/1999/xlink" preserveAspectRatio="xMidYMid meet" viewBox="24.166666666666742 131.1111111111111 261.99999999999994 262" width="262" height="262"><defs><path d="M24.17 131.11L286.17 131.11L286.17 393.11L24.17 393.11L24.17 131.11Z" id="kdcHqghAn"></path><path d="M24.45 146.69L66.74 146.69L66.08 392.66L24.45 392.66L24.45 146.69Z" id="i33xalZdhO"></path><path d="M66.74 146.69L104.24 146.69L104.08 392.91L65.86 392.58L66.74 146.69Z" id="a1gsfVlO05"></path><path d="M66.08 255.19L103.74 255.19L103.74 293.03L66.08 293.4L66.08 255.19Z" id="d6akLW5EcL"></path><path d="M103.74 335.47L286.17 335.47L286.17 367.05L103.99 367.05L103.74 335.47Z" id="bvwyb6PMF"></path><path d="M103.74 367.07L272.89 366.73L273.14 392.66L104.02 392.91L103.74 367.07Z" id="bix8Qvi8D"></path><path d="M254.44 215.88L265.89 335.47L123.91 335.47L135.87 217.41L195.66 164.23L254.44 215.88Z" id="bNLucqUW2"></path><path d="M150.38 215.35L131.21 335.47L123.91 335.47L135.95 217.16L188.61 170.46L150.38 215.35Z" id="b3NsRpEm7Z"></path><path d="M172.53 215.67L171.11 335.47L165.15 335.47L164.78 214.78L192.57 167.57L172.53 215.67Z" id="a1tnswTG4g"></path><path d="M195.81 163.92L197.08 165.24L198.8 335.47L192.2 335.17L194.9 165.24L195.81 163.92Z" id="b2erIZjdBR"></path><path d="M218.47 215.06L199.31 168.36L225.95 216.07L225.95 335.47L219.35 335.47L218.47 215.06Z" id="a5RZMZMSf"></path><path d="M254.42 215.71L203.16 171.04L242 216.28L258.87 335.47L265.89 335.16L254.42 215.71Z" id="b46AdouPu"></path><path d="M164.78 239.65L225.95 240.16L225.95 296.25L164.78 295.62L164.78 239.65Z" id="b3w7v6zqvd"></path></defs><g><g><g><use xlink:href="#kdcHqghAn" opacity="1" fill="#9b7647" fill-opacity="1"></use></g><g><use xlink:href="#i33xalZdhO" opacity="1" fill="#ff7f50" fill-opacity="1"></use></g><g><use xlink:href="#a1gsfVlO05" opacity="1" fill="#c850ff" fill-opacity="1"></use></g><g><use xlink:href="#d6akLW5EcL" opacity="1" fill="#5250ff" fill-opacity="1"></use></g><g><use xlink:href="#bvwyb6PMF" opacity="1" fill="#daa6ef" fill-opacity="1"></use></g><g><use xlink:href="#bix8Qvi8D" opacity="1" fill="#ff9e50" fill-opacity="1"></use></g><g><use xlink:href="#bNLucqUW2" opacity="1" fill="#ffffff" fill-opacity="1"></use></g><g><use xlink:href="#b3NsRpEm7Z" opacity="1" fill="#f31e5d" fill-opacity="1"></use></g><g><use xlink:href="#a1tnswTG4g" opacity="1" fill="#f31e5d" fill-opacity="1"></use></g><g><use xlink:href="#b2erIZjdBR" opacity="1" fill="#f31e5d" fill-opacity="1"></use></g><g><use xlink:href="#a5RZMZMSf" opacity="1" fill="#f31e5d" fill-opacity="1"></use></g><g><use xlink:href="#b46AdouPu" opacity="1" fill="#f31e5d" fill-opacity="1"></use></g><g><use xlink:href="#b3w7v6zqvd" opacity="1" fill="#6550ff" fill-opacity="1"></use></g></g></g></svg>