<?xml version="1.0" encoding="UTF-8" standalone="no"?>
<!DOCTYPE svg PUBLIC "-//W3C//DTD SVG 1.1//EN" "http://www.w3.org/Graphics/SVG/1.1/DTD/svg11.dtd">
<svg version="1.1" xmlns="http://www.w3.org/2000/svg" xmlns:xlink="http://www.w3.org/1999/xlink" preserveAspectRatio="xMidYMid meet" viewBox="173.7895812053116 172.40040858018392 261.9999999999999 262" width="262" height="262"><defs><path d="M435.79 172.4L173.79 172.4L173.79 434.4L435.79 434.4L435.79 172.4Z" id="cWhmcbZt"></path><path d="M435.79 434.4L173.79 434.4L173.79 388.94L435.79 388.94L435.79 434.4Z" id="c1IrLlQjRI"></path><path d="M187.91 388.94L188.63 339.83L308.39 339.83L308.39 388.94L187.91 388.94Z" id="fE9YhaoE5"></path><path d="M274.04 380.76L276.71 363.85L269.42 350.51L255 345.71L240.24 351.22L233.47 365.46L236.5 380.76L247.18 388.94L262.83 388.94L274.04 380.76Z" id="g1IdJ6vsC"></path><path d="M195.4 350.87L193.62 355.14L202.34 366.7L206.96 366.17L206.96 359.94L195.4 350.87Z" id="g1OeJWY96"></path><path d="M308.39 339.83L308.39 326.77L264.65 325.61L263.99 316.24L251.31 316.24L250.31 325.61L188.57 325.61L188.57 340.06L308.39 339.83Z" id="ab4zSgaJI"></path><path d="M227.25 325.95L220.66 322.22L209.81 321.68L203.05 325.95L201.98 336.81L209.28 345.17L220.66 345.71L228.85 335.56L227.25 325.95Z" id="a1hCc680dz"></path><path d="M211.84 328.59L209.41 331.35L209.96 335.32L212.28 337.96L218.67 337.96L220.99 334.87L220.99 331.13L217.79 328.59L211.84 328.59Z" id="ggNZcTkqB"></path><path d="M267.62 330.68L268.28 336.42L279.64 336.42L279.2 330.46L267.62 330.68Z" id="a3kvMwIz7r"></path><path d="M248.66 329.69L248.66 336.42L260.9 336.42L260.9 330.46L248.66 329.69Z" id="a3cCKezadz"></path><path d="M270.92 298L245.12 298L244.57 316.24L270.7 316.24L270.92 298Z" id="aJtOjnAuy"></path><path d="M308.39 351.49L326.66 351.49L326.66 333.44L338.35 336.16L360.73 337.6L360.4 388.94L327.11 388.94L326.66 377.84L308.39 377.84L308.39 351.49Z" id="e1QziFbE5B"></path><path d="M326.52 333.44L309.71 326.4L292.13 310.72L280.12 279.4L284.78 237.39L310.8 208.17L340.02 196.59L371.11 199.79L403.18 221.85L418.76 253.82L418.76 280.88L402.84 316.24L360.73 337.6L338.35 336.42L326.52 333.44Z" id="aPECDMi7J"></path><path d="M363.13 277.76L351.44 286.03L333.25 281.4L331.26 262.22L343.17 251.96L360.73 257.47L363.13 277.76Z" id="bvaOtRVZn"></path></defs><g><g><g><use xlink:href="#cWhmcbZt" opacity="1" fill="#9b7647" fill-opacity="1"></use></g><g><use xlink:href="#c1IrLlQjRI" opacity="1" fill="#fb92fb" fill-opacity="1"></use></g><g><use xlink:href="#fE9YhaoE5" opacity="1" fill="#a9a18e" fill-opacity="1"></use></g><g><use xlink:href="#g1IdJ6vsC" opacity="1" fill="#202020" fill-opacity="1"></use></g><g><use xlink:href="#g1OeJWY96" opacity="1" fill="#b2b3ae" fill-opacity="1"></use></g><g><use xlink:href="#ab4zSgaJI" opacity="1" fill="#6c6c6c" fill-opacity="1"></use></g><g><use xlink:href="#a1hCc680dz" opacity="1" fill="#b2b3ae" fill-opacity="1"></use></g><g><use xlink:href="#ggNZcTkqB" opacity="1" fill="#202020" fill-opacity="1"></use></g><g><use xlink:href="#a3kvMwIz7r" opacity="1" fill="#202020" fill-opacity="1"></use></g><g><use xlink:href="#a3cCKezadz" opacity="1" fill="#202020" fill-opacity="1"></use></g><g><use xlink:href="#aJtOjnAuy" opacity="1" fill="#202020" fill-opacity="1"></use></g><g><use xlink:href="#e1QziFbE5B" opacity="1" fill="#202020" fill-opacity="1"></use></g><g><use xlink:href="#aPECDMi7J" opacity="1" fill="#6c6c6c" fill-opacity="1"></use></g><g><use xlink:href="#bvaOtRVZn" opacity="1" fill="#a4a4a4" fill-opacity="1"></use></g></g></g></svg>