<?xml version="1.0" encoding="UTF-8" standalone="no"?>
<!DOCTYPE svg PUBLIC "-//W3C//DTD SVG 1.1//EN" "http://www.w3.org/Graphics/SVG/1.1/DTD/svg11.dtd">
<svg version="1.1" xmlns="http://www.w3.org/2000/svg" xmlns:xlink="http://www.w3.org/1999/xlink" preserveAspectRatio="xMidYMid meet" viewBox="175.73099503445394 160.1702048962677 261.9999999999999 262" width="262" height="262"><defs><path d="M175.73 160.17L437.73 160.17L437.73 422.17L175.73 422.17L175.73 160.17Z" id="ciXt9oZiH"></path><path d="M260.07 242.51L267.88 226.67L291.33 202.37L323.71 230.52L335.6 312.16L320.15 321.82L275.04 323.16L259.93 313.16L260.07 242.51Z" id="a14v5lwGgA"></path><path d="M274.26 249.28L267.09 250.93L260.78 256.07L260.78 252.8L266.65 246.76L274.41 244.7L282.34 246.76L278.03 251.59L274.26 249.28Z" id="bHddujcji"></path><path d="M306.15 240.37L316.75 242.09L325.32 248.82L326.12 252.8L315.16 245.64L308.11 245.09L304.81 249.19L300.4 245.64L306.15 240.37Z" id="b50muwpKKt"></path><path d="M285.64 255.25L287.72 257.4L288.21 262.36L282.95 262.6L279.76 258.5L282.52 255.07L285.64 255.25Z" id="d9S1DredB"></path><path d="M303.09 255.07L305.6 257.95L303.89 261.99L299.05 261.99L297.4 258.84L299.54 254.52L303.09 255.07Z" id="cVV5Hq9FU"></path><path d="M260.56 288.43L267.97 279.43L279.76 276.18L317.51 278.14L325.41 290.76L321.06 298.9L310.46 289.84L280.4 288.13L264.9 294.43L260.56 288.43Z" id="aistIiamL"></path><path d="M268.95 299.52L285.73 303.74L320.75 298.66L310.34 289.84L280.4 288.06L264.9 294.31L268.95 299.52Z" id="d1OMHkhG2k"></path><path d="M258.97 421.27L279.53 421.27L275.01 323.16L259.7 312.95L258.97 421.27Z" id="aFNk4Nr1g"></path><path d="M259.93 312.95L260.56 180.76L240.46 197.17L244.11 369.07L252.16 421.27L258.97 421.27L259.93 312.95Z" id="ah32zF0pY"></path><path d="M221.7 221.91L224.63 207.99L240.46 197.26L244.13 368.88L221.7 221.91Z" id="bFvhc4gDZ"></path><path d="M233.93 301.25L232.8 293.39L242.37 293.12L242.67 302.6L233.93 301.25Z" id="d8Hmk7fxna"></path><path d="M252.22 421.27L222.76 421.27L217.57 242.06L221.7 221.84L252.22 421.27Z" id="e5uMkihvr"></path><path d="M222.76 421.27L209.98 421.27L211.95 270.38L217.57 242.16L222.76 421.27Z" id="bTvwCh0oj"></path><path d="M260.44 180.9L283.99 168.72L296.3 168.72L259.93 242.9L260.44 180.9Z" id="a21wIxRyq6"></path><path d="M315.59 177.56L314.09 167.74L296.3 168.72L267.8 226.78L315.59 177.56Z" id="c43IJXI2Yw"></path><path d="M315.59 177.56L323.82 230.68L291.33 202.48L315.59 177.56Z" id="b7KAIZ7Od"></path><path d="M323.67 230.48L351.53 421.27L358.46 421.27L341.35 212.64L335.21 184.98L314.09 167.84L323.67 230.48Z" id="d7EF5U7rE"></path><path d="M340.94 349.22L352.51 349.22L351.58 338.85L339.6 340.67L340.94 349.22Z" id="d2RbdcaLt1"></path><path d="M351.58 421.27L316.29 421.27L320.17 321.77L335.6 312.08L351.58 421.27Z" id="c66Tp6Dfv1"></path><path d="M341.34 212.74L364.24 304.27L367.12 421.27L358.34 421.27L341.34 212.74Z" id="a24SFWwCt8"></path><path d="M364.24 304.27L392.67 421.27L367.12 421.27L364.24 304.27Z" id="d8jfjFGylv"></path><path d="M341.34 213.02L335.21 184.98L365.62 209.82L372.77 226.54L397.04 421.27L392.67 421.27L341.34 213.02Z" id="h2XiD1UCg"></path><path d="M388.32 263.2L372.74 226.69L397.04 421.27L388.32 263.2Z" id="a1KW0JCcTe"></path><path d="M325.94 246.36L344.03 246.59L342.79 231.97L324.04 233.45L325.94 246.36Z" id="flOJPkyhF"></path></defs><g><g><g><use xlink:href="#ciXt9oZiH" opacity="1" fill="#9b7647" fill-opacity="1"></use></g><g><use xlink:href="#a14v5lwGgA" opacity="1" fill="#c39c83" fill-opacity="1"></use></g><g><use xlink:href="#bHddujcji" opacity="1" fill="#000000" fill-opacity="1"></use></g><g><use xlink:href="#b50muwpKKt" opacity="1" fill="#000000" fill-opacity="1"></use></g><g><use xlink:href="#d9S1DredB" opacity="1" fill="#582f1d" fill-opacity="1"></use></g><g><use xlink:href="#cVV5Hq9FU" opacity="1" fill="#582f1d" fill-opacity="1"></use></g><g><use xlink:href="#aistIiamL" opacity="1" fill="#000000" fill-opacity="1"></use></g><g><use xlink:href="#d1OMHkhG2k" opacity="1" fill="#ff99cb" fill-opacity="1"></use></g><g><use xlink:href="#aFNk4Nr1g" opacity="1" fill="#211612" fill-opacity="1"></use></g><g><use xlink:href="#ah32zF0pY" opacity="1" fill="#271915" fill-opacity="1"></use></g><g><use xlink:href="#bFvhc4gDZ" opacity="1" fill="#000000" fill-opacity="1"></use></g><g><use xlink:href="#d8Hmk7fxna" opacity="1" fill="#ffd500" fill-opacity="1"></use></g><g><use xlink:href="#e5uMkihvr" opacity="1" fill="#41302a" fill-opacity="1"></use></g><g><use xlink:href="#bTvwCh0oj" opacity="1" fill="#000000" fill-opacity="1"></use></g><g><use xlink:href="#a21wIxRyq6" opacity="1" fill="#17100b" fill-opacity="1"></use></g><g><use xlink:href="#c43IJXI2Yw" opacity="1" fill="#1e1711" fill-opacity="1"></use></g><g><use xlink:href="#b7KAIZ7Od" opacity="1" fill="#271915" fill-opacity="1"></use></g><g><use xlink:href="#d7EF5U7rE" opacity="1" fill="#211815" fill-opacity="1"></use></g><g><use xlink:href="#d2RbdcaLt1" opacity="1" fill="#1311cf" fill-opacity="1"></use></g><g><use xlink:href="#c66Tp6Dfv1" opacity="1" fill="#211612" fill-opacity="1"></use></g><g><use xlink:href="#a24SFWwCt8" opacity="1" fill="#281e1c" fill-opacity="1"></use></g><g><use xlink:href="#d8jfjFGylv" opacity="1" fill="#000000" fill-opacity="1"></use></g><g><use xlink:href="#h2XiD1UCg" opacity="1" fill="#291a16" fill-opacity="1"></use></g><g><use xlink:href="#a1KW0JCcTe" opacity="1" fill="#582f1d" fill-opacity="1"></use></g><g><use xlink:href="#flOJPkyhF" opacity="1" fill="#c50000" fill-opacity="1"></use></g></g></g></svg>