<?xml version="1.0" encoding="UTF-8" standalone="no"?>
<!DOCTYPE svg PUBLIC "-//W3C//DTD SVG 1.1//EN" "http://www.w3.org/Graphics/SVG/1.1/DTD/svg11.dtd">
<svg version="1.1" xmlns="http://www.w3.org/2000/svg" xmlns:xlink="http://www.w3.org/1999/xlink" preserveAspectRatio="xMidYMid meet" viewBox="152.06073669064745 155.52062243571754 261.9999999999999 262" width="262" height="262"><defs><path d="M152.06 155.52L414.06 155.52L414.06 417.52L152.06 417.52L152.06 155.52Z" id="b2a6q9eU5I"></path><path d="M338.89 203.97L331.13 193.87L317.27 186.81L292.82 181.41L276.6 183.76L250.98 192.45L234.09 208.2L219.95 234.06L218.78 260.15L233.12 293.77L247.22 308.57L255.45 312.1L338.89 203.97Z" id="i6sqtbcg14"></path><path d="M278.83 346.89L297.76 359.35L320 368.4L342.42 368.4L368.51 359.35L385.43 348.77L400.24 327.85L411.29 302.93L409.17 265.79L403.53 246.75L394.13 232.88L375.8 216.43L359.58 208.44L338.19 203.03L302.69 208.44L282.24 217.37L266.96 235.47L256.62 253.57L251.69 270.96L250.98 296.12L261.32 330.67L278.83 346.89Z" id="a2Ffr63fV0"></path><path d="M228.88 284.29L187.65 306.2L169.84 327.3L170.66 342.37L186 345.66L228.2 345.66L307.37 311.41L309.84 331.96L245.18 361.82L201.89 368.4L167.92 357.44L158.33 340.72L159.15 314.97L178.61 290.59L223.26 271.68L228.88 284.29Z" id="b5GYpeqIaR"></path></defs><g><g><g><use xlink:href="#b2a6q9eU5I" opacity="1" fill="#9b7647" fill-opacity="1"></use></g><g><use xlink:href="#i6sqtbcg14" opacity="1" fill="#c64b87" fill-opacity="1"></use></g><g><use xlink:href="#a2Ffr63fV0" opacity="1" fill="#d78da7" fill-opacity="1"></use></g><g><use xlink:href="#b5GYpeqIaR" opacity="1" fill="#41281c" fill-opacity="1"></use></g></g></g></svg>