<?xml version="1.0" encoding="UTF-8" standalone="no"?>
<!DOCTYPE svg PUBLIC "-//W3C//DTD SVG 1.1//EN" "http://www.w3.org/Graphics/SVG/1.1/DTD/svg11.dtd">
<svg version="1.1" xmlns="http://www.w3.org/2000/svg" xmlns:xlink="http://www.w3.org/1999/xlink" preserveAspectRatio="xMidYMid meet" viewBox="174.03797329215365 170.9665494020096 262 262" width="262" height="262"><defs><path d="M174.04 170.97L436.04 170.97L436.04 432.97L174.04 432.97L174.04 170.97Z" id="b3fClIV15h"></path><path d="M365.13 363.62L428.77 363.05L436.04 432.97L367.41 432.97L365.13 363.62Z" id="eRmCEgvh"></path><path d="M365.13 363.05L358.46 426.4L367.41 426.4L365.13 363.05Z" id="a4ddE6tIPm"></path><path d="M400.08 385.78L422.95 406.09L426.21 412.62L426.21 420.44L419.4 422L400.59 415.89L382.61 422L376.92 420.44L375.65 412.62L378.77 406.09L400.08 385.78Z" id="a1t5wttdYI"></path><path d="M382.75 380.1L379.34 376.97L376.78 378.53L374.93 383.93L375.65 394.16L379.91 397.28L384.17 390.18L382.75 380.1Z" id="g12RrwaCt3"></path><path d="M388.15 375.69L389 370.58L391.84 367.6L395.67 370.01L397.09 379.53L393.97 387.13L389 383.36L388.15 375.69" id="a38Jq5OgEE"></path><path d="M406.04 387.91L410.73 387.13L412.86 382.09L412.43 372.57L409.59 368.45L406.04 369.73L404.05 376.97L406.04 387.91Z" id="b38uleKM7p"></path><path d="M416.84 391.6L418.83 382.51L422.66 381.09L425.08 384.5L425.79 392.31L424.51 397.71L420.25 400.69L416.84 391.6Z" id="a1eW6h1xfA"></path><path d="M199.21 432.97L199.66 181.89L352.82 181.89L352.82 432.97L199.21 432.97Z" id="a21es0Qh1n"></path><path d="M199.95 181.89L189.49 181.89L189.49 432.97L199.21 432.97L199.95 181.89Z" id="d4NNdigS"></path><path d="M217.04 337.93L219.88 351.85L228.3 366.71L235.69 398.81L230.57 402.65L229.3 407.62L233.84 409.46L233.13 413.73L241.94 416.14L247.05 411.74L258.41 368.7L270.49 367.84L270.49 374.52L278.59 385.17L288.53 393.27L288.53 398.01L286.4 402.65L281.99 404.49L280.43 408.47L294.64 410.88L296.2 388.3L288.53 380.77L289.24 367.13L306 387.13L312.02 390.43L312.02 403.5L306 407.62L306 410.88L322.34 410.88L318.27 384.18L312.39 378.64L312.02 352.56L318.27 351.85L333.33 341.62L336.45 329.55L333.76 318.61L325.8 333.24L314.72 341.62L303.93 341.05L293.84 333.24L261.31 326.28L255.49 321.03L251.09 320.46L250.09 314.07L259.18 315.2L265.01 313.36L265.72 310.37L263.02 311.08L255.49 308.67L266.99 306.82L270.97 303.41L270.72 296.88L260.03 291.48L255.06 284.38L257.62 280.69L257.62 277.99L245.4 282.11L245.4 271.59L242.42 271.59L232.34 294.04L219.55 314.38L217.04 337.93Z" id="b1T7N16Pf"></path><path d="M243.88 379.26L242.61 389.63L240.9 383.95L241.61 369.18L243.88 379.26Z" id="d7ApSc4Ry"></path><path d="M250.76 291.28L253.67 291.96L254.48 290.34L251.64 289.32L250.76 291.28Z" id="adERiVjlD"></path><path d="M262.11 311.13L262.11 307.96L260.42 310.32L262.11 311.13Z" id="b1szPjqVRG"></path><path d="M265.75 310.46L264.74 307.22L263.26 311.13L265.75 310.46Z" id="axjMzzrhj"></path></defs><g><g><g><use xlink:href="#b3fClIV15h" opacity="1" fill="#9b7647" fill-opacity="1"></use></g><g><use xlink:href="#eRmCEgvh" opacity="1" fill="#ffe0b0" fill-opacity="1"></use></g><g><use xlink:href="#a4ddE6tIPm" opacity="1" fill="#e0c49c" fill-opacity="1"></use></g><g><use xlink:href="#a1t5wttdYI" opacity="1" fill="#b9b9b9" fill-opacity="1"></use></g><g><use xlink:href="#g12RrwaCt3" opacity="1" fill="#b9b9b9" fill-opacity="1"></use></g><g><use xlink:href="#a38Jq5OgEE" opacity="1" fill="#b9b9b9" fill-opacity="1"></use></g><g><use xlink:href="#b38uleKM7p" opacity="1" fill="#b9b9b9" fill-opacity="1"></use></g><g><use xlink:href="#a1eW6h1xfA" opacity="1" fill="#b9b9b9" fill-opacity="1"></use></g><g><use xlink:href="#a21es0Qh1n" opacity="1" fill="#a3e8ff" fill-opacity="1"></use></g><g><use xlink:href="#d4NNdigS" opacity="1" fill="#b3b3b3" fill-opacity="1"></use></g><g><use xlink:href="#b1T7N16Pf" opacity="1" fill="#b9b9b9" fill-opacity="1"></use></g><g><use xlink:href="#d7ApSc4Ry" opacity="1" fill="#a3e8ff" fill-opacity="1"></use></g><g><use xlink:href="#adERiVjlD" opacity="1" fill="#f7ffa3" fill-opacity="1"></use></g><g><use xlink:href="#b1szPjqVRG" opacity="1" fill="#dbdbdb" fill-opacity="1"></use></g><g><use xlink:href="#axjMzzrhj" opacity="1" fill="#dbdbdb" fill-opacity="1"></use></g></g></g></svg>