<?xml version="1.0" encoding="UTF-8" standalone="no"?>
<!DOCTYPE svg PUBLIC "-//W3C//DTD SVG 1.1//EN" "http://www.w3.org/Graphics/SVG/1.1/DTD/svg11.dtd">
<svg version="1.1" xmlns="http://www.w3.org/2000/svg" xmlns:xlink="http://www.w3.org/1999/xlink" preserveAspectRatio="xMidYMid meet" viewBox="187.09434736729136 168.11339198435974 262.3032584585918 262.0000000000001" width="262.3" height="262"><defs><path d="M187.4 168.11L449.4 168.11L449.4 430.11L187.4 430.11L187.4 168.11Z" id="e3N4NeUnLh"></path><path d="M187.4 168.11L222.09 168.11L221.16 342.64L187.4 343.04L187.4 168.11Z" id="a1aLToIqHf"></path><path d="M222.09 178.86L250.38 178.86L250.85 342.62L221.14 342.62L222.09 178.86Z" id="awb328QmI"></path><path d="M187.09 343.04L337.3 341.87L337.3 366.94L187.4 366.94L187.09 343.04Z" id="b2SIP3ibWx"></path><path d="M193.3 366.94L328.69 366.94L328.69 391.89L192.83 391.89L193.3 366.94Z" id="bdMd7FETF"></path><path d="M187.4 391.64L431.24 391.17L431.24 430.11L187.4 430.11L187.4 391.64Z" id="f19WQWRmG"></path><path d="M187.68 208.6L222.09 217.44L222.09 205.3L187.68 195.63L187.68 208.6Z" id="dh8WbMftN"></path><path d="M221.48 290.34L250.6 290.34L250.6 280.55L221.48 280.55L221.48 290.34Z" id="acxav0mc5"></path><path d="M214.26 366.94L225.7 366.94L213.9 342.62L202.47 342.62L214.26 366.94Z" id="c6Smh24Eo"></path><path d="M295.01 366.94L305.27 366.94L316 341.87L304.56 341.87L295.01 366.94Z" id="gR9P2mSW"></path><path d="M243.95 366.94L256.81 366.94L256.81 391.89L243.36 391.89L243.95 366.94Z" id="ckdKZrfsi"></path><path d="M277.45 391.89L250.08 429.81L220.97 391.6L277.45 391.89Z" id="e1YlrYAR4q"></path><path d="M410.12 379.82L407.52 391.5L377.45 384.54L377.45 376.76L378.52 371.92L410.12 379.82Z" id="dQSFENdFy"></path><path d="M416.95 179.19L447.84 186.86L410.12 379.82L378.99 372.28L416.95 179.19Z" id="dnrBtsfbp"></path><path d="M448.98 175.43L447.84 186.89L416.72 179.19L419.14 168.11L448.98 175.43Z" id="aj4cxirgg"></path><path d="M276.5 248.12L275.06 231.1L284.34 218.18L293.3 213.54L301.58 213.2L313.56 220.31L320.81 235.63L310.31 263.26L299.37 273.87L295.95 276.85L290.86 276.08L289.54 274.86L277.94 251.77L276.5 248.12Z" id="bcf5AWQuG"></path><path d="M276.28 247.79L275.06 230.88L278.82 225.91L287.11 226.8L288.76 232.43L286.44 236.41L282.58 234.64L280.04 238.29L282.02 244.36L277.83 251.66L276.28 247.79Z" id="adxjO4DYq"></path><path d="M307.44 252.32L306.67 254.86L302.8 250.99L304.79 249.34L307.44 252.32Z" id="e48Mk4MG9e"></path><path d="M299.68 273.71L299.41 269.42L302.8 270.54L299.68 273.71Z" id="a1dgwdQBA0"></path><path d="M342.1 246.2L350.3 244.38L352.7 239.49L350.87 233.56L357.31 228.21L360.1 231.91L355.89 245.29L364.43 232.37L357.59 223.77L343.41 226.67L336.69 240L342.1 246.2Z" id="a1VcNTNAhy"></path><path d="M336.64 240.05L357.73 223.77L345.18 239.31L332.48 254.18L332.48 247.51L336.64 240.05Z" id="c6lPcgeEBP"></path><path d="M327.78 262.25L332.5 247.6L332.66 253.94L345.01 239.49L333.73 263.74L333.73 266.02L325.2 283.07L303.28 296.63L327.78 262.25Z" id="d4v7LXq8kT"></path><path d="M340.7 290.34L353.5 288.88L363.21 355.18L357.56 354.41L341.93 299.95L331.23 310.16L313.4 307.57L340.7 290.34Z" id="g4I62l0e6"></path><path d="M276.37 248.11L289.64 275.05L290.89 276.07L286.89 297.33L293.52 302.7L334.82 276.85L340.95 276.3L344.71 282.31L350.59 348.52L357.35 354.41L381.76 356.65L377.45 377.3L377.45 370.67L363.36 371.42L349.59 384.06L342.58 383.19L335.32 289.43L311.92 307.38L281.91 302.7L266.61 295.31L266.11 257.02L270.37 245.88L267.86 239.75L276.01 239.75L276.37 248.11Z" id="b9gVlBA3"></path><path d="M270.47 245.63L266.35 256.89L266.62 295.28L281.91 302.69L329.07 309.8L337.67 316.23L337.67 318.4L334.6 319.29L338.06 321.66L338.06 325.12L330.35 322.85L338.31 328.28L338.75 335.69L331.74 338.16L322.94 339.15L322.65 335.49L327.49 335.69L298.83 317.91L257.33 306.39L254.27 283.19L254.61 255.15L259.12 239.75L267.76 239.49L270.47 245.63Z" id="c7LL3DoVi"></path><path d="M251.7 263.99L254.27 282.46L254.67 255.49L251.7 263.99Z" id="a2wqNjbFIi"></path><path d="M265.24 326.77L276.4 340.3L287.47 340.5L299.03 317.97L260.76 307.4L265.24 326.77Z" id="a736ERiq"></path></defs><g><g><g><use xlink:href="#e3N4NeUnLh" opacity="1" fill="#9b7647" fill-opacity="1"></use></g><g><use xlink:href="#a1aLToIqHf" opacity="1" fill="#0002fc" fill-opacity="1"></use></g><g><use xlink:href="#awb328QmI" opacity="1" fill="#ffcc01" fill-opacity="1"></use></g><g><use xlink:href="#b2SIP3ibWx" opacity="1" fill="#00cd00" fill-opacity="1"></use></g><g><use xlink:href="#bdMd7FETF" opacity="1" fill="#000000" fill-opacity="1"></use></g><g><use xlink:href="#f19WQWRmG" opacity="1" fill="#993300" fill-opacity="1"></use></g><g><use xlink:href="#dh8WbMftN" opacity="1" fill="#000080" fill-opacity="1"></use></g><g><use xlink:href="#acxav0mc5" opacity="1" fill="#ff9901" fill-opacity="1"></use></g><g><use xlink:href="#c6Smh24Eo" opacity="1" fill="#339965" fill-opacity="1"></use></g><g><use xlink:href="#gR9P2mSW" opacity="1" fill="#339965" fill-opacity="1"></use></g><g><use xlink:href="#ckdKZrfsi" opacity="1" fill="#808080" fill-opacity="1"></use></g><g><use xlink:href="#e1YlrYAR4q" opacity="1" fill="#ffcc01" fill-opacity="1"></use></g><g><use xlink:href="#dQSFENdFy" opacity="1" fill="#c95efc" fill-opacity="1"></use></g><g><use xlink:href="#dnrBtsfbp" opacity="1" fill="#670398" fill-opacity="1"></use></g><g><use xlink:href="#aj4cxirgg" opacity="1" fill="#c95efc" fill-opacity="1"></use></g><g><use xlink:href="#bcf5AWQuG" opacity="1" fill="#d7b899" fill-opacity="1"></use></g><g><use xlink:href="#adxjO4DYq" opacity="1" fill="#c8a68c" fill-opacity="1"></use></g><g><use xlink:href="#e48Mk4MG9e" opacity="1" fill="#202020" fill-opacity="1"></use></g><g><use xlink:href="#a1dgwdQBA0" opacity="1" fill="#c8a68c" fill-opacity="1"></use></g><g><use xlink:href="#a1VcNTNAhy" opacity="1" fill="#ae947b" fill-opacity="1"></use></g><g><use xlink:href="#c6lPcgeEBP" opacity="1" fill="#d7b899" fill-opacity="1"></use></g><g><use xlink:href="#d4v7LXq8kT" opacity="1" fill="#c8a68c" fill-opacity="1"></use></g><g><use xlink:href="#g4I62l0e6" opacity="1" fill="#c8a68c" fill-opacity="1"></use></g><g><use xlink:href="#b9gVlBA3" opacity="1" fill="#b4997f" fill-opacity="1"></use></g><g><use xlink:href="#c7LL3DoVi" opacity="1" fill="#d7b899" fill-opacity="1"></use></g><g><use xlink:href="#a2wqNjbFIi" opacity="1" fill="#b4997f" fill-opacity="1"></use></g><g><use xlink:href="#a736ERiq" opacity="1" fill="#b4997f" fill-opacity="1"></use></g></g></g></svg>