<?xml version="1.0" encoding="UTF-8" standalone="no"?>
<!DOCTYPE svg PUBLIC "-//W3C//DTD SVG 1.1//EN" "http://www.w3.org/Graphics/SVG/1.1/DTD/svg11.dtd">
<svg version="1.1" xmlns="http://www.w3.org/2000/svg" xmlns:xlink="http://www.w3.org/1999/xlink" preserveAspectRatio="xMidYMid meet" viewBox="170.28791214758144 172.0516559351854 262.2806319361974 262" width="262.28" height="262"><defs><path d="M170.29 172.05L432.29 172.05L432.29 434.05L170.29 434.05L170.29 172.05Z" id="b1tbuJNrJS"></path><path d="M387.29 172.05L432.57 172.05L432.29 434.05L387.29 434.05L387.29 172.05Z" id="lu7J4MZNS"></path><path d="M314.41 218.67L387.29 218.67L387.29 433.75L314.41 434.05L314.41 218.67Z" id="a2WVqOsr0Y"></path><path d="M314.41 239.85L387.29 239.85L387.29 247.16L314.41 246.85L314.41 239.85Z" id="bwEFE528W"></path><path d="M314.17 381.58L387.29 381.58L387.29 388.19L314.17 388.19L314.17 381.58Z" id="qjHkB8kOy"></path><path d="M314.41 408L387.29 408L387.52 415.75L314.41 415.75L314.41 408Z" id="iKHhXuI6m"></path><path d="M387.5 180.87L432.29 192.89L432.29 201.24L387.29 189.12L387.5 180.87Z" id="f253CJQUH"></path><path d="M387.29 352.78L432.29 364.69L432.29 379.32L387 367.3L387.29 352.78Z" id="btEx60V1"></path><path d="M387.29 394.11L432.29 406.23L432.29 418.04L387.52 406.23L387.29 394.11Z" id="dkzIrCOj4"></path><path d="M178.36 420.08L184.27 428.18L197.62 434.05L286.02 434.05L300.46 428.4L306.26 420.41L306.7 398.75L177.71 395.79L178.36 420.08Z" id="b3DP2qlVus"></path><path d="M177.54 303.46L182.68 289.68L193.18 282.93L291.54 282.93L301.61 289.68L307.08 303.79L307.51 336.07L177.32 335.74L177.54 303.46Z" id="czP5AKBdk"></path><path d="M198.07 269.56L202.77 261.13L281.66 261.13L286.47 268.35L286.47 282.93L198.07 282.93L198.07 269.56Z" id="d1Su2uXqui"></path><path d="M307.51 335.74L306.7 399.03L177.71 395.79L177.32 335.74L307.51 335.74Z" id="a2pChMEIai"></path><path d="M307.28 367.85L241.85 396.73L177.71 367.39L242.2 336.07L307.28 367.85Z" id="ed21UWxZP"></path><path d="M242.2 393.67L300.94 368.07L242.49 339.95L183.87 367.82L242.2 393.67Z" id="b5JMyK6S6"></path><path d="M242.2 390.28L295.46 368.51L242.2 344L189.23 368.51L242.2 390.28Z" id="i4yiPHx3F"></path><path d="M242.42 387L286.6 368.29L242.24 348.27L197.76 368.29L242.42 387Z" id="b1cSPH0wFO"></path><path d="M236.27 350.89L236.27 365.11L248.53 365.11L248.53 350.89L254.98 354.17L254.98 381.58L247.87 384.59L247.87 371.68L236.27 371.68L236.27 384.59L229.38 381.58L229.38 353.63L236.27 350.89Z" id="b1I8Z8UFwU"></path></defs><g><g><g><use xlink:href="#b1tbuJNrJS" opacity="1" fill="#9b7647" fill-opacity="1"></use></g><g><use xlink:href="#lu7J4MZNS" opacity="1" fill="#ffcb9a" fill-opacity="1"></use></g><g><use xlink:href="#a2WVqOsr0Y" opacity="1" fill="#98cbfc" fill-opacity="1"></use></g><g><use xlink:href="#bwEFE528W" opacity="1" fill="#ccffff" fill-opacity="1"></use></g><g><use xlink:href="#qjHkB8kOy" opacity="1" fill="#ccffff" fill-opacity="1"></use></g><g><use xlink:href="#iKHhXuI6m" opacity="1" fill="#ccffff" fill-opacity="1"></use></g><g><use xlink:href="#f253CJQUH" opacity="1" fill="#fd9902" fill-opacity="1"></use></g><g><use xlink:href="#btEx60V1" opacity="1" fill="#fe9901" fill-opacity="1"></use></g><g><use xlink:href="#dkzIrCOj4" opacity="1" fill="#fc9705" fill-opacity="1"></use></g><g><use xlink:href="#b3DP2qlVus" opacity="1" fill="#d0b89a" fill-opacity="1"></use></g><g><use xlink:href="#czP5AKBdk" opacity="1" fill="#d0b89a" fill-opacity="1"></use></g><g><use xlink:href="#d1Su2uXqui" opacity="1" fill="#b6b6b6" fill-opacity="1"></use></g><g><use xlink:href="#a2pChMEIai" opacity="1" fill="#d2b4be" fill-opacity="1"></use></g><g><use xlink:href="#ed21UWxZP" opacity="1" fill="#f904fc" fill-opacity="1"></use></g><g><use xlink:href="#b5JMyK6S6" opacity="1" fill="#02fd02" fill-opacity="1"></use></g><g><use xlink:href="#i4yiPHx3F" opacity="1" fill="#f904fc" fill-opacity="1"></use></g><g><use xlink:href="#b1cSPH0wFO" opacity="1" fill="#fc98ca" fill-opacity="1"></use></g><g><use xlink:href="#b1I8Z8UFwU" opacity="1" fill="#02fd02" fill-opacity="1"></use></g></g></g></svg>