<?xml version="1.0" encoding="UTF-8" standalone="no"?>
<!DOCTYPE svg PUBLIC "-//W3C//DTD SVG 1.1//EN" "http://www.w3.org/Graphics/SVG/1.1/DTD/svg11.dtd">
<svg version="1.1" xmlns="http://www.w3.org/2000/svg" xmlns:xlink="http://www.w3.org/1999/xlink" preserveAspectRatio="xMidYMid meet" viewBox="336.75472302273454 27.291666666666742 262 262" width="262" height="262"><defs><path d="M336.75 27.29L598.75 27.29L598.75 289.29L336.75 289.29L336.75 27.29Z" id="b8N01Isfe"></path><path d="M344.83 275.32L350.74 283.42L364.09 289.29L452.49 289.29L466.93 283.64L472.73 275.65L473.17 253.99L344.17 251.03L344.83 275.32Z" id="b1z7agu29z"></path><path d="M344 158.7L349.14 144.92L359.65 138.17L458.01 138.17L468.07 144.92L473.54 159.03L473.98 191.31L343.78 190.98L344 158.7Z" id="aaXidru6N"></path><path d="M364.54 124.8L369.24 116.37L448.12 116.37L452.94 123.59L452.94 138.17L364.54 138.17L364.54 124.8Z" id="b3KN19lVKh"></path><path d="M473.98 190.98L473.17 254.27L344.17 251.03L343.78 190.98L473.98 190.98Z" id="azjHmwPgJ"></path><path d="M473.75 223.09L408.32 251.97L344.17 222.63L408.67 191.31L473.75 223.09Z" id="c1PMr1Jnak"></path><path d="M408.67 248.91L467.4 223.31L408.96 195.19L350.33 223.06L408.67 248.91Z" id="b2UMyHfiEj"></path><path d="M408.67 245.52L461.93 223.75L408.67 199.24L355.7 223.75L408.67 245.52Z" id="a2zHlUzb3S"></path><path d="M408.88 242.24L453.07 223.53L408.7 203.51L364.23 223.53L408.88 242.24Z" id="b61YbLfkcs"></path><path d="M402.74 206.13L402.74 220.35L415 220.35L415 206.13L421.45 209.41L421.45 236.82L414.34 239.83L414.34 226.92L402.74 226.92L402.74 239.83L395.85 236.82L395.85 208.87L402.74 206.13Z" id="azWmlYWU"></path><path d="M481.33 161.24L598.75 161.24L598.75 289.29L481.33 289.29L481.33 161.24Z" id="b85al1Lp7P"></path><path d="M481.33 225.27L546.51 222.63L553.12 161.24L559.03 161.24L553.12 222.05L598.75 219.58L598.75 226.19L552.18 228.31L546.51 289.29L539.43 289.29L545.8 228.31L481.33 230.91L481.33 225.27Z" id="gBrV17BA0"></path><path d="M598.75 121.14L556.37 48.48L490.82 86.45L534.02 161.24L539.35 161.24L598.75 125.52L598.75 121.14Z" id="a70wFQhyj"></path><path d="M564.15 80.39L551.37 104.74L553.11 106.58L587.21 101.31L586 99.34L554.07 104.21L571.5 75.3L564.15 80.39Z" id="bNhw6YUT3"></path><path d="M554.02 104.21L586.01 99.33L584.29 96.41L557.16 101.6L573.27 77.43L571.74 74.88L554.02 104.21Z" id="bnEa7RaFa"></path><path d="M521.72 68.45L541.69 92.68L570.52 72.79L571.88 75.06L543.75 95.33L578.61 137.68L575.03 139.97L540.37 97.97L510.16 119.85L508.2 116.73L538.61 95.33L518.34 70.36L521.72 68.45Z" id="f4rYrhNxk"></path><path d="M557 101.79L584.28 96.48L582.87 93.88L561.44 99.08L574.71 79.92L573.24 77.43L557 101.79Z" id="cyJQU2VF9"></path><path d="M582.93 93.97L561.24 99.08L574.72 79.92L582.93 93.97Z" id="c2u9effOfh"></path></defs><g><g><g><use xlink:href="#b8N01Isfe" opacity="1" fill="#9b7647" fill-opacity="1"></use></g><g><use xlink:href="#b1z7agu29z" opacity="1" fill="#d0b89a" fill-opacity="1"></use></g><g><use xlink:href="#aaXidru6N" opacity="1" fill="#d0b89a" fill-opacity="1"></use></g><g><use xlink:href="#b3KN19lVKh" opacity="1" fill="#b6b6b6" fill-opacity="1"></use></g><g><use xlink:href="#azjHmwPgJ" opacity="1" fill="#d2b4be" fill-opacity="1"></use></g><g><use xlink:href="#c1PMr1Jnak" opacity="1" fill="#f904fc" fill-opacity="1"></use></g><g><use xlink:href="#b2UMyHfiEj" opacity="1" fill="#02fd02" fill-opacity="1"></use></g><g><use xlink:href="#a2zHlUzb3S" opacity="1" fill="#f904fc" fill-opacity="1"></use></g><g><use xlink:href="#b61YbLfkcs" opacity="1" fill="#fc98ca" fill-opacity="1"></use></g><g><use xlink:href="#azWmlYWU" opacity="1" fill="#02fd02" fill-opacity="1"></use></g><g><use xlink:href="#b85al1Lp7P" opacity="1" fill="#eec472" fill-opacity="1"></use></g><g><use xlink:href="#gBrV17BA0" opacity="1" fill="#c08211" fill-opacity="1"></use></g><g><use xlink:href="#a70wFQhyj" opacity="1" fill="#eec472" fill-opacity="1"></use></g><g><use xlink:href="#bNhw6YUT3" opacity="1" fill="#ec06ea" fill-opacity="1"></use></g><g><use xlink:href="#bnEa7RaFa" opacity="1" fill="#09f60d" fill-opacity="1"></use></g><g><use xlink:href="#f4rYrhNxk" opacity="1" fill="#ca921c" fill-opacity="1"></use></g><g><use xlink:href="#cyJQU2VF9" opacity="1" fill="#ec06ea" fill-opacity="1"></use></g><g><use xlink:href="#c2u9effOfh" opacity="1" fill="#fd98ca" fill-opacity="1"></use></g></g></g></svg>