<?xml version="1.0" encoding="UTF-8" standalone="no"?>
<!DOCTYPE svg PUBLIC "-//W3C//DTD SVG 1.1//EN" "http://www.w3.org/Graphics/SVG/1.1/DTD/svg11.dtd">
<svg version="1.1" xmlns="http://www.w3.org/2000/svg" xmlns:xlink="http://www.w3.org/1999/xlink" preserveAspectRatio="xMidYMid meet" viewBox="194.93584648687533 108.95448270499651 261.9999999999999 262.43879250265405" width="262" height="262.44"><defs><path d="M194.94 108.95L456.94 108.95L456.94 370.95L194.94 370.95L194.94 108.95Z" id="a1PPnfkLOh"></path><path d="M431.65 370.95L441.26 357.58L441.26 188.67L435.49 167.52L421.39 160.15L230.04 158.22L216.9 167.52L211.77 188.67L209.85 355.34L220.11 370.95L431.65 370.95Z" id="h27sxNQFW"></path><path d="M407.37 160.67L407.37 132.01L394.4 119.13L258.57 119.13L245.43 132.01L245.43 159.09L407.37 160.67Z" id="a6J3Z0ZrPB"></path><path d="M234.54 352.5L278.03 341.27L252.54 321.48L210.47 339.13L209.85 355.35L220.28 370.95L245.05 370.95L234.54 352.5Z" id="c28I0E8Vr8"></path><path d="M288.9 371.39L314.79 350.54L327.23 357.36L327.94 370.95L288.9 371.39Z" id="c2j28pb0AP"></path><path d="M289.44 371.39L315.19 351.07L289.44 338.06L303.7 334.49L282.84 308.65L272.15 313.82L267.29 333.07L278.03 341.27L234.18 352.28L244.88 370.95L289.44 371.39Z" id="b5yvAri96I"></path><path d="M354.31 341.78L359.49 341.78L373.5 315.1L326.85 328.16L327.94 371.39L364.44 370.95L354.31 341.78Z" id="arZeEkbIg"></path><path d="M326.66 328.16L288.9 337.87L327.59 357.82L326.66 328.16Z" id="fhsqs0MjY"></path><path d="M350.33 322.18L303.12 334.55L287.84 315.1L350.33 322.18Z" id="g3dTSplYfc"></path><path d="M374.52 315.1L350.33 322.19L287.84 315.1L282.99 309.11L317.47 294.85L374.52 315.1Z" id="a5KRA4iYR"></path><path d="M374.52 315.1C394.91 309.54 407.65 306.07 412.75 304.68C413.3 304.53 413.88 304.63 414.35 304.95C417.94 307.39 426.91 313.51 441.26 323.29L441.26 357.82L431.95 370.95L395.1 370.95L374.52 315.1Z" id="c14gjMJz3v"></path><path d="M441.26 339.19L401.49 340.02L395.25 370.95L364.64 370.95L354.09 341.71L359.59 341.71L373.86 315.1L441.26 339.19Z" id="b9u4WuEnZ"></path><path d="M441.26 244.02L326.38 291.66L211.47 244.02L325.94 198.39L441.26 244.02Z" id="cwnJqlTOR"></path><path d="M427.83 245.02L326.36 286.57L224.74 244.57L325.56 204.21L427.83 245.02Z" id="g1ylxb5Do8"></path><path d="M421.47 245.02L326.36 283.12L231.1 245.39L326.36 208.39L421.47 245.02Z" id="bgxXKAoXg"></path><path d="M325.94 279.3L414.56 245.02L325.94 211.12L238.38 245.02L325.94 279.3Z" id="fue0FCs5h"></path><path d="M254.13 238.85L254.13 241.72L258.62 241.72L258.62 236.89L262.65 235.62L262.3 254.38L258.62 253L258.62 245.21L254.13 245.75L253.79 250.7L250.56 249.43L250.56 239.95L254.13 238.85Z" id="g34g9WkRdb"></path><path d="M275.19 230.91L274.69 258.75L265.06 255.3L265.06 234.7L275.19 230.91Z" id="a21dhKGFdZ"></path><path d="M272.31 239.19L272.31 251.74L268.63 251.74L268.63 239.19L272.31 239.19Z" id="a13ssBNvhn"></path><path d="M281.06 261.75L281.06 249.66L284.51 263.01L288.65 264.59L288.19 225.61L284.51 226.99L284.51 239.19L280.02 228.95L277.38 229.99L276.8 259.79L281.06 261.75Z" id="c29tlBv6OG"></path><path d="M313.74 216.41L317.54 224.92L320.76 213.42L326.29 211.12L343.66 217.9L344.12 272.33L325.94 278.89L326.29 221.7L320.76 233.9L320.76 277.4L313.74 274.41L314.55 233.9L308.91 222.39L308.22 229.41L297.86 231.6L297.86 238.16L307.07 244.49L298.67 250.12L298.67 258.41L307.76 260.48L307.07 271.41L291.88 265.77L291.88 224.23L313.74 216.41Z" id="aCknxKgGx"></path><path d="M338.48 226.76L338.14 262.09L332.5 265.2L332.5 223.89L338.48 226.76Z" id="c1STXMNBLY"></path><path d="M352.46 221.32L352.92 258.49L357.87 256.65L357.87 223.51L361.67 224.77L362.01 265.2L347.51 271.03L346.71 218.9L352.46 221.32Z" id="cAu6972pc"></path><path d="M367.88 227.19L368.69 238.93L376.86 230.91L376.86 237.78L371.1 243.42L376.86 248.94L376.86 259.53L369.38 250.67L369.38 262.17L365.35 263.78L365.01 226.27L367.88 227.19Z" id="a3E28EjZdh"></path><path d="M388.88 235.2L388.88 238.77L383.25 238.77L382.9 242.91L388.88 244.29L382.9 247.63L382.9 252.35L388.88 250.16L388.88 254.99L379.68 258.33L379.22 231.63L388.88 235.2Z" id="a6KlAjZjdy"></path><path d="M395.67 240.84L403.96 247.17L403.96 248.66L392.22 253.73L392.22 248.66L398.55 247.97L392.22 241.53L392.22 239L394.64 237.5L403.96 240.84L403.96 243.14L395.67 240.84Z" id="a8ii8pDuf"></path></defs><g><g><g><use xlink:href="#a1PPnfkLOh" opacity="1" fill="#9b7647" fill-opacity="1"></use></g><g><use xlink:href="#h27sxNQFW" opacity="1" fill="#ebe1d5" fill-opacity="1"></use></g><g><use xlink:href="#a6J3Z0ZrPB" opacity="1" fill="#b6b6b6" fill-opacity="1"></use></g><g><use xlink:href="#c28I0E8Vr8" opacity="1" fill="#f9f965" fill-opacity="1"></use></g><g><use xlink:href="#c2j28pb0AP" opacity="1" fill="#fdfdb5" fill-opacity="1"></use></g><g><use xlink:href="#b5yvAri96I" opacity="1" fill="#eced30" fill-opacity="1"></use></g><g><use xlink:href="#arZeEkbIg" opacity="1" fill="#f6f52b" fill-opacity="1"></use></g><g><use xlink:href="#fhsqs0MjY" opacity="1" fill="#f7f516" fill-opacity="1"></use></g><g><use xlink:href="#g3dTSplYfc" opacity="1" fill="#f8f876" fill-opacity="1"></use></g><g><use xlink:href="#a5KRA4iYR" opacity="1" fill="#f8f955" fill-opacity="1"></use></g><g><use xlink:href="#c14gjMJz3v" opacity="1" fill="#f8f873" fill-opacity="1"></use></g><g><use xlink:href="#b9u4WuEnZ" opacity="1" fill="#f5f349" fill-opacity="1"></use></g><g><use xlink:href="#cwnJqlTOR" opacity="1" fill="#c64469" fill-opacity="1"></use></g><g><use xlink:href="#g1ylxb5Do8" opacity="1" fill="#4da05a" fill-opacity="1"></use></g><g><use xlink:href="#bgxXKAoXg" opacity="1" fill="#c64469" fill-opacity="1"></use></g><g><use xlink:href="#fue0FCs5h" opacity="1" fill="#f699c9" fill-opacity="1"></use></g><g><use xlink:href="#g34g9WkRdb" opacity="1" fill="#4da05a" fill-opacity="1"></use></g><g><use xlink:href="#a21dhKGFdZ" opacity="1" fill="#4da05a" fill-opacity="1"></use></g><g><use xlink:href="#a13ssBNvhn" opacity="1" fill="#f699c9" fill-opacity="1"></use></g><g><use xlink:href="#c29tlBv6OG" opacity="1" fill="#4da05a" fill-opacity="1"></use></g><g><use xlink:href="#aCknxKgGx" opacity="1" fill="#4da05a" fill-opacity="1"></use></g><g><use xlink:href="#c1STXMNBLY" opacity="1" fill="#f699c9" fill-opacity="1"></use></g><g><use xlink:href="#cAu6972pc" opacity="1" fill="#4da05a" fill-opacity="1"></use></g><g><use xlink:href="#a3E28EjZdh" opacity="1" fill="#4da05a" fill-opacity="1"></use></g><g><use xlink:href="#a6KlAjZjdy" opacity="1" fill="#4da05a" fill-opacity="1"></use></g><g><use xlink:href="#a8ii8pDuf" opacity="1" fill="#4da05a" fill-opacity="1"></use></g></g></g></svg>