<?xml version="1.0" encoding="UTF-8" standalone="no"?>
<!DOCTYPE svg PUBLIC "-//W3C//DTD SVG 1.1//EN" "http://www.w3.org/Graphics/SVG/1.1/DTD/svg11.dtd">
<svg version="1.1" xmlns="http://www.w3.org/2000/svg" xmlns:xlink="http://www.w3.org/1999/xlink" preserveAspectRatio="xMidYMid meet" viewBox="178.4359723201313 141.51402451481113 262.35389209695416 262" width="262.35" height="262"><defs><path d="M178.44 141.51L440.44 141.51L440.44 403.51L178.44 403.51L178.44 141.51Z" id="a1CPMEf76d"></path><path d="M197.71 365.08L440.44 365.62L440.44 403.51L197.3 403.51L197.71 365.08Z" id="g2cAaJZcAa"></path><path d="M198.85 313.19L440.44 312.78L440.44 365.79L197.91 365.39L198.85 313.19Z" id="avqX5Hn6h"></path><path d="M217.52 269.56L440.44 268.75L440.79 312.78L216.98 313.37L217.52 269.56Z" id="b2MyuH0Uh6"></path><path d="M178.44 241.71L395.05 242.92L395.59 268.75L178.44 270.8L178.44 241.71Z" id="l47PJqeGk"></path><path d="M331.78 243.77L398.25 331.5L357.17 350.7L360.97 365.79L239.32 379.49L231.95 235.97L318.87 202.26L383.79 243.15L331.78 243.77Z" id="b3GFDzBcjl"></path><path d="M239.09 379.49L237.09 342.66L252.26 339.76L251.59 378.38L239.09 379.49Z" id="h2NqtYSvXK"></path><path d="M284.18 333.29L279.05 374.81L274.14 375.48L266.55 336.86L284.18 333.29Z" id="a7gJD1NfK"></path><path d="M335.3 323.47L350.25 366.99L326.59 369.9L323.92 325.25L335.3 323.47Z" id="aoLTTUqy"></path><path d="M374.14 342.89L351.59 310.07L346.68 311.19L356.95 350.7L374.14 342.89Z" id="jdVzRKi8d"></path><path d="M398.25 331.5L374.14 300.25L365.88 304.05L381.73 339.29L398.25 331.5Z" id="c3kzsLgff"></path><path d="M308.5 328.58L319.7 370.41L298.19 372.91L294.36 331.38L308.5 328.58Z" id="b4YEWYkzwi"></path><path d="M234.19 277.92L332.13 256.25L326.23 229.91L231.95 241.25L231.95 236.09L318.72 202.26L326.23 229.17L336.69 213.56L363.5 229.91L354.91 243.94L332.57 243.94L351.56 269.86L337.68 275.16L340.18 285.18L235.32 307.12L234.19 277.92Z" id="f1cf0ZwW6c"></path></defs><g><g><g><use xlink:href="#a1CPMEf76d" opacity="1" fill="#9b7647" fill-opacity="1"></use></g><g><use xlink:href="#g2cAaJZcAa" opacity="1" fill="#d9c5ac" fill-opacity="1"></use></g><g><use xlink:href="#avqX5Hn6h" opacity="1" fill="#9e92d0" fill-opacity="1"></use></g><g><use xlink:href="#b2MyuH0Uh6" opacity="1" fill="#34f2e5" fill-opacity="1"></use></g><g><use xlink:href="#l47PJqeGk" opacity="1" fill="#20fa17" fill-opacity="1"></use></g><g><use xlink:href="#b3GFDzBcjl" opacity="1" fill="#882c1d" fill-opacity="1"></use></g><g><use xlink:href="#h2NqtYSvXK" opacity="1" fill="#e5c04d" fill-opacity="1"></use></g><g><use xlink:href="#a7gJD1NfK" opacity="1" fill="#e5c04d" fill-opacity="1"></use></g><g><use xlink:href="#aoLTTUqy" opacity="1" fill="#e5c04d" fill-opacity="1"></use></g><g><use xlink:href="#jdVzRKi8d" opacity="1" fill="#e5c04d" fill-opacity="1"></use></g><g><use xlink:href="#c3kzsLgff" opacity="1" fill="#e5c04d" fill-opacity="1"></use></g><g><use xlink:href="#b4YEWYkzwi" opacity="1" fill="#e5c04d" fill-opacity="1"></use></g><g><use xlink:href="#f1cf0ZwW6c" opacity="1" fill="#e5c04d" fill-opacity="1"></use></g></g></g></svg>