<?xml version="1.0" encoding="UTF-8" standalone="no"?>
<!DOCTYPE svg PUBLIC "-//W3C//DTD SVG 1.1//EN" "http://www.w3.org/Graphics/SVG/1.1/DTD/svg11.dtd">
<svg version="1.1" xmlns="http://www.w3.org/2000/svg" xmlns:xlink="http://www.w3.org/1999/xlink" preserveAspectRatio="xMidYMid meet" viewBox="167.56944444444446 139.09722222222217 262 262" width="262" height="262"><defs><path d="M167.57 139.1L429.57 139.1L429.57 401.1L167.57 401.1L167.57 139.1Z" id="bcH5FrG1C"></path><path d="M167.57 154.69L201.06 154.34L200.67 401.1L167.57 401.1L167.57 154.69Z" id="c29nwU5H9l"></path><path d="M201.06 172.4L230.86 172.05L231.33 401.1L200.67 401.1L201.06 172.4Z" id="b1RSBCVCkb"></path><path d="M384.42 180.35L429.57 180.94L429.57 401.1L384.42 401.1L384.42 180.35Z" id="c4FbhZqXDh"></path><path d="M235.85 349.08L244 226.78L254.69 220.45L343.09 220.45L353.24 226.78L361.75 349.08L350.47 354.33L246.86 354.99L235.85 349.08Z" id="c4UYLYkPW3"></path><path d="M396.65 234.2L384.73 279.29L410.08 243.43L429.22 256.74L419.78 229.41L428.89 217.84L416.86 220.41L407 194.6L399.22 223.1L384.73 225.44L396.65 234.2Z" id="a3NiMtN14c"></path><path d="M353.06 226.37L354.32 220L353.96 187.24L348.89 173.11L335.12 157.89L315.92 149.01L293.64 147.2L275.7 150.46L259.22 160.61L249.8 172.56L242.55 191.88L242.55 220.45L243.64 226.37L353.06 226.37Z" id="cA9bVMorV"></path><path d="M342.73 220.45L347.98 209.52L347.98 189.96L341.1 172.05L325.88 158.8L305.77 152.27L290.92 152.27L270.27 158.8L254.87 173.83L248.71 189.41L249.43 209.52L254.87 220.45L342.73 220.45Z" id="b8VM9gAxmG"></path><path d="M253.94 236.16L258.76 231.61L339.37 231.61L343.92 236.16L350.47 344.32L246.86 344.32L253.94 236.16Z" id="a6PJMwbXg"></path><path d="M201.06 190.42L201.06 209.12L167.82 221.27L167.82 202.22L201.06 190.42Z" id="m6khttvUOf"></path><path d="M201.06 220.45L201.06 238.44L167.82 253.74L167.82 232.36L201.06 220.45Z" id="gicTFF9aU"></path><path d="M201.06 229.89L231 219.96L231 208.86L201.06 200.21L201.06 229.89Z" id="b1zrX0LBlt"></path><path d="M256.71 383.59L277.51 389.22L320 388.91L340.25 382.88L346.64 375.19L356.05 381.97L356.05 388.58L347.99 394.06L322.83 400.35L272.99 400.35L249.44 394.06L241.54 388.58L241.54 381.97L249.92 375.19L256.71 383.59Z" id="d1pzg8GI0"></path><path d="M256.7 383.74L277.18 389.22L319.6 389.22L339.92 383.26L346.86 375.19L346.05 355.84L327.34 363.26L270.57 363.26L251.7 355.19L249.76 375.19L256.7 383.74Z" id="b1Qduypoi7"></path><path d="M270.67 363.3L327.33 363.3L346.02 356.02L346.02 352.34L334.69 344.32L321.47 344.32L321.47 350.26L312.69 354.89L283.51 354.23L276.15 350.55L276.15 344.32L262.64 344.32L251.78 351.96L251.78 355.48L270.67 363.3Z" id="b1QvxAUXO"></path><path d="M276.15 350.64L283.23 354.51L312.6 354.99L321.57 350.36L321.57 344.32L275.96 344.5L276.15 350.64Z" id="c10a4inoF3"></path><path d="M316.64 253.81L335.63 287.78L334.96 317.18L319.05 344.32L278.68 344.32L262.23 317.18L262.63 285.63L280.95 253.81L316.64 253.81Z" id="c7GtG5BNN9"></path><path d="M306.35 344.32L306.35 300.2L291.51 300.2L291.51 344.32L306.35 344.32Z" id="b2ldefQKpY"></path><path d="M301 300.2L305.15 292.04L298.57 271.05L292.31 291.24L296.46 300.2L301 300.2Z" id="ayfdM9uyt"></path><path d="M276.4 344.32L260.5 318.25L260.5 284.96L279.75 253.81L281.89 253.81L263.3 287.16L263.3 317.65L279.21 344.32L276.4 344.32Z" id="c5ud01V9AU"></path><path d="M334.29 287.5L334.29 317.04L318.52 344.32L321.19 344.32L336.56 318.25L337.1 286.58L318.92 253.81L315.44 253.81L334.29 287.5Z" id="b40OTco9aV"></path><path d="M253.41 247.31L261.03 237.55L337.1 237.55L344.85 250.25L332.42 253.81L265.04 253.33L253.41 250.25L253.41 247.31Z" id="c3bVtr6W5"></path><path d="M337.1 237.55L331.62 231.66L332.02 220L265.71 220.4L265.71 231.66L260.9 237.55L337.1 237.55Z" id="c1Iv2d2FgZ"></path><path d="M331.48 220L320 208.19L318.92 202.31L322.93 201.9L327.21 198.56L316.78 191.88L281.35 191.88L269.85 198.56L274.8 201.9L277.87 201.9L277.87 208.19L265.58 220.75L331.48 220Z" id="h1415Zakt6"></path><path d="" id="b2akUWHwf"></path></defs><g><g><g><use xlink:href="#bcH5FrG1C" opacity="1" fill="#9b7647" fill-opacity="1"></use></g><g><use xlink:href="#c29nwU5H9l" opacity="1" fill="#99cdff" fill-opacity="1"></use></g><g><use xlink:href="#b1RSBCVCkb" opacity="1" fill="#feff01" fill-opacity="1"></use></g><g><use xlink:href="#c4FbhZqXDh" opacity="1" fill="#0001fe" fill-opacity="1"></use></g><g><use xlink:href="#c4UYLYkPW3" opacity="1" fill="#c9a851" fill-opacity="1"></use></g><g><use xlink:href="#a3NiMtN14c" opacity="1" fill="#ffde00" fill-opacity="1"></use></g><g><use xlink:href="#cA9bVMorV" opacity="1" fill="#000000" fill-opacity="1"></use></g><g><use xlink:href="#b8VM9gAxmG" opacity="1" fill="#9b7647" fill-opacity="1"></use></g><g><use xlink:href="#a6PJMwbXg" opacity="1" fill="#9b7647" fill-opacity="1"></use></g><g><use xlink:href="#m6khttvUOf" opacity="1" fill="#993365" fill-opacity="1"></use></g><g><use xlink:href="#gicTFF9aU" opacity="1" fill="#993365" fill-opacity="1"></use></g><g><use xlink:href="#b1zrX0LBlt" opacity="1" fill="#ffcb9a" fill-opacity="1"></use></g><g><use xlink:href="#d1pzg8GI0" opacity="1" fill="#784a00" fill-opacity="1"></use></g><g><use xlink:href="#b1Qduypoi7" opacity="1" fill="#bf7f02" fill-opacity="1"></use></g><g><use xlink:href="#b1QvxAUXO" opacity="1" fill="#784a00" fill-opacity="1"></use></g><g><use xlink:href="#c10a4inoF3" opacity="1" fill="#000000" fill-opacity="1"></use></g><g><use xlink:href="#c7GtG5BNN9" opacity="1" fill="#feff99" fill-opacity="1"></use></g><g><use xlink:href="#b2ldefQKpY" opacity="1" fill="#bdb497" fill-opacity="1"></use></g><g><use xlink:href="#ayfdM9uyt" opacity="1" fill="#fd9800" fill-opacity="1"></use></g><g><use xlink:href="#c5ud01V9AU" opacity="1" fill="#bfbfbf" fill-opacity="1"></use></g><g><use xlink:href="#b40OTco9aV" opacity="1" fill="#bfbfbf" fill-opacity="1"></use></g><g><use xlink:href="#c3bVtr6W5" opacity="1" fill="#784a00" fill-opacity="1"></use></g><g><use xlink:href="#c1Iv2d2FgZ" opacity="1" fill="#bf7f02" fill-opacity="1"></use></g><g><use xlink:href="#h1415Zakt6" opacity="1" fill="#784a00" fill-opacity="1"></use></g><g><g><use xlink:href="#b2akUWHwf" opacity="1" fill-opacity="0" stroke="#000000" stroke-width="1" stroke-opacity="1"></use></g></g></g></g></svg>