<?xml version="1.0" encoding="UTF-8" standalone="no"?>
<!DOCTYPE svg PUBLIC "-//W3C//DTD SVG 1.1//EN" "http://www.w3.org/Graphics/SVG/1.1/DTD/svg11.dtd">
<svg version="1.1" xmlns="http://www.w3.org/2000/svg" xmlns:xlink="http://www.w3.org/1999/xlink" preserveAspectRatio="xMidYMid meet" viewBox="158.652471405229 148.81944444444457 262.00000000000006 262" width="262" height="262"><defs><path d="M158.65 148.82L420.65 148.82L420.65 410.82L158.65 410.82L158.65 148.82Z" id="eyBZV8gVa"></path><path d="M184.22 283.85L188.89 300.26L200.99 312.58L201.63 318.8L198.02 322.98L186.13 330.84L176.79 345.06L170.63 369.48L159.17 384.34L159.17 388.8L160.44 390.28L177.85 377.76L176.79 386.89L170.63 403.02L174.88 407.48L177.85 405.99L190.38 381.37L193.35 382.43L187.62 408.75L190.38 409.82L193.99 407.48L204.39 383.7L209.06 385.4L204.39 410.82L210.76 410.82L218.4 385.4L222.44 385.4L218.4 407.48L221.38 409.82L225.2 404.93L230.93 380.3L230.29 377.76L236.03 366.5L237.72 348.67L234.11 338.34L213.52 321.56L213.52 318.8L220.53 313.92L237.72 306.7L244.31 296.72L246.85 278.89L244.31 267.85L246.85 264.24L246.85 239.61L243.74 234.15L240.91 235.79L239.21 257.87L234.11 256.81L234.11 232.82L230.93 229.42L228.59 229.42L225.62 254.9L220.53 253.84L217.55 229.42L215.01 227.09L210.76 225.81L210.76 252.99L206.3 252.99L201.63 227.09L198.45 224.11L193.99 227.72L195.47 242.8L193.99 253.84L180.82 236.64L178.7 237.28L177.85 242.8L184.65 259.78L184.22 283.85Z" id="eRCSuW25J"></path><path d="M204.18 302.11L213.31 305.93L223.29 304.65L233.48 299.77L238.57 291.07L239.42 282.79L234.96 271.53L226.47 265.16L211.82 263.47L203.01 267.92L197.38 275.35L196.11 284.48L197.38 294.04L204.18 302.11Z" id="b2pzkCcpA"></path><path d="M191.65 339.15L188.04 348.7L186.56 356.98L189.74 365.69L197.38 373.12L211.61 374.82L222.44 371.42L229.44 361.65L231.14 353.16L228.38 343.61L220.74 335.96L210.12 332.14L199.51 333.42L191.65 339.15Z" id="jLbYfPxAi"></path><path d="M246.4 148.82L420.65 148.82L420.65 410.82L246.4 410.82L246.4 148.82Z" id="jkktfKXOk"></path><path d="M246.85 387.66L420.65 387.66L420.65 405.45L246.4 405.45L246.85 387.66Z" id="c2ltfdmPuR"></path><path d="M265.16 333.89L410.96 333.89L410.96 379.49L265.16 379.11L265.16 333.89Z" id="e4zV7EnTCf"></path><path d="M265.52 302.19L346.93 302.19L346.93 330.39L265.16 330.39L265.52 302.19Z" id="fUV9yuoaj"></path><path d="M352.27 215.69L411.12 215.69L411.12 330.39L351.63 330.39L352.27 215.69Z" id="a2vM00dRkQ"></path><path d="M269.4 236.63L278.37 225.6L289.65 218.68L298.63 215.99L313.5 215.99L326.45 221.24L336.45 228.94L342.99 238.42L346.93 249.19L346.93 262.65L344.53 272.27L337.48 283.42L325.81 293.68L311.2 297.65L299.78 298.17L288.89 294.7L278.37 287.91L270.94 279.32L265.55 265.47L265.55 247.14L269.4 236.63Z" id="aaJoypvuZ"></path><path d="M255.55 153.29L266.84 153.55L273.89 163.42L273.89 187.13L270.55 192.26L266.84 194.83L280.43 204.44L286.84 204.44L290.55 201.37L292.73 204.44L282.99 210.85L279.4 210.85L263.89 197.39L256.96 197.39L251.58 192.26L248.76 185.85L248.37 160.98L255.55 153.29Z" id="cLWK4PU1b"></path><path d="M263.12 162.52L263.12 183.93L261.45 185.47L259.14 185.47L257.61 182.78L257.99 165.72L259.78 161.62L263.12 162.52Z" id="b89xyg6ae"></path><path d="M283.25 159.44L284.27 184.96L286.32 185.85L288.37 183.42L289.27 159.44L295.81 159.7L295.81 188.8L290.43 192.39L280.43 192.39L276.71 188.8L276.71 159.7L283.25 159.44Z" id="atxp7Meu"></path><path d="M307.09 159.44L307.09 192.39L298.89 192.39L298.89 159.44L307.09 159.44Z" id="c4HSG9piKM"></path><path d="M325.3 159.83L329.66 164.96L329.66 171.88L326.45 175.92L329.66 179.83L329.66 188.16L326.45 192.39L310.17 192.13L310.17 159.44L325.3 159.83Z" id="a2IuvM4or"></path><path d="M320.81 166.24L322.22 168.42L321.2 172.26L317.09 172.65L317.09 166.24L320.81 166.24Z" id="bdW8bZAur"></path><path d="M320.81 179.19L322.61 181.24L321.84 186.11L317.48 186.11L317.09 179.19L320.81 179.19Z" id="n3MsUZWWHK"></path><path d="M347.48 159.44L352.22 164.57L352.22 172.01L349.02 175.34L352.22 179.7L352.22 188.29L348.63 192.39L332.73 192.39L332.73 159.44L347.48 159.44Z" id="a36yMrVjcd"></path><path d="M343.5 166.24L345.17 168.42L344.02 172.26L339.4 172.65L339.4 166.24L343.5 166.24Z" id="e1GC8wSKV"></path><path d="M343.63 179.7L344.78 180.98L344.4 185.85L340.3 185.85L339.78 179.19L343.63 179.7Z" id="b1TKZwurmY"></path><path d="M362.32 159.44L362.71 185.39L373.35 185.39L373.35 192.39L355.27 192.39L355.27 159.44L362.32 159.44Z" id="aUQ1pstbC"></path><path d="M392.71 159.44L392.71 165.78L383.86 165.78L383.22 171.55L387.45 171.55L388.09 177.31L383.22 177.7L382.45 184.62L392.71 184.62L392.71 192.39L376.3 192.39L375.27 159.44L392.71 159.44Z" id="d1TI5M4WbJ"></path><path d="M404.25 192.39L403.86 178.47L407.96 179.19L407.96 192.39L415.53 192.39L415.53 180.65L412.32 175.52L416.04 172.19L416.43 164.75L412.32 159.44L396.04 159.44L396.04 192.39L404.25 192.39Z" id="b2h8AgZTgL"></path><path d="M407.71 166.8L407.71 170.9L403.48 172.65L403.48 167.19L405.53 165.52L407.71 166.8Z" id="b2ip1EWAne"></path></defs><g><g><g><use xlink:href="#eyBZV8gVa" opacity="1" fill="#9b7647" fill-opacity="1"></use></g><g><use xlink:href="#eRCSuW25J" opacity="1" fill="#fcc4ff" fill-opacity="1"></use></g><g><use xlink:href="#b2pzkCcpA" opacity="1" fill="#b9efe6" fill-opacity="1"></use></g><g><use xlink:href="#jLbYfPxAi" opacity="1" fill="#b9efe6" fill-opacity="1"></use></g><g><use xlink:href="#jkktfKXOk" opacity="1" fill="#c4d6ff" fill-opacity="1"></use></g><g><use xlink:href="#c2ltfdmPuR" opacity="1" fill="#f7ffc4" fill-opacity="1"></use></g><g><use xlink:href="#e4zV7EnTCf" opacity="1" fill="#c5ffe7" fill-opacity="1"></use></g><g><use xlink:href="#fUV9yuoaj" opacity="1" fill="#d9c9ff" fill-opacity="1"></use></g><g><use xlink:href="#a2vM00dRkQ" opacity="1" fill="#ffe3c6" fill-opacity="1"></use></g><g><use xlink:href="#aaJoypvuZ" opacity="1" fill="#ffc5fb" fill-opacity="1"></use></g><g><use xlink:href="#cLWK4PU1b" opacity="1" fill="#c4fffc" fill-opacity="1"></use></g><g><use xlink:href="#b89xyg6ae" opacity="1" fill="#c4d7fe" fill-opacity="1"></use></g><g><use xlink:href="#atxp7Meu" opacity="1" fill="#c4fffc" fill-opacity="1"></use></g><g><use xlink:href="#c4HSG9piKM" opacity="1" fill="#c4fffc" fill-opacity="1"></use></g><g><use xlink:href="#a2IuvM4or" opacity="1" fill="#c4fffc" fill-opacity="1"></use></g><g><use xlink:href="#bdW8bZAur" opacity="1" fill="#c4d7fe" fill-opacity="1"></use></g><g><use xlink:href="#n3MsUZWWHK" opacity="1" fill="#c4d7fe" fill-opacity="1"></use></g><g><use xlink:href="#a36yMrVjcd" opacity="1" fill="#c4fffc" fill-opacity="1"></use></g><g><use xlink:href="#e1GC8wSKV" opacity="1" fill="#c4d7fe" fill-opacity="1"></use></g><g><use xlink:href="#b1TKZwurmY" opacity="1" fill="#c4d7fe" fill-opacity="1"></use></g><g><use xlink:href="#aUQ1pstbC" opacity="1" fill="#c4fffc" fill-opacity="1"></use></g><g><use xlink:href="#d1TI5M4WbJ" opacity="1" fill="#c4fffc" fill-opacity="1"></use></g><g><use xlink:href="#b2h8AgZTgL" opacity="1" fill="#c4fffc" fill-opacity="1"></use></g><g><use xlink:href="#b2ip1EWAne" opacity="1" fill="#c4d7fe" fill-opacity="1"></use></g></g></g></svg>