<?xml version="1.0" encoding="UTF-8" standalone="no"?>
<!DOCTYPE svg PUBLIC "-//W3C//DTD SVG 1.1//EN" "http://www.w3.org/Graphics/SVG/1.1/DTD/svg11.dtd">
<svg version="1.1" xmlns="http://www.w3.org/2000/svg" xmlns:xlink="http://www.w3.org/1999/xlink" preserveAspectRatio="xMidYMid meet" viewBox="20.369698365914587 108.07673041894373 261.9999999999999 262" width="262" height="262"><defs><path d="M20.37 108.08L282.37 108.08L282.37 370.08L20.37 370.08L20.37 108.08Z" id="jOv642Qc3"></path><path d="M61.12 221.84L70.55 205.67L64.62 207.02L72.71 195.7L61.12 199.74L74.6 183.03L75.68 175.75L49.8 183.03L65.7 170.63L60.04 167.4L53.03 167.4L64.62 160.39L55.19 148.53L73.52 159.04L88.65 142.87L91.85 142.87L102.9 129.66L100.47 122.65L112.06 115.37L128.51 134.78L135.24 131.82L139.83 117.53L146.84 134.78L166.24 114.3L179.45 142.87L193.47 142.87L208.29 154.19L235.51 168.47L223.65 168.47L236.86 179.26L247.1 208.64L240.37 205.67L245.22 229.66L229.85 218.61L229.85 223.46L242.25 241.52L229.85 236.94L231.2 252.84L250.34 288.69L243.87 286.54L256.54 306.21L250.34 315.92L260.24 342.45L240.37 334.51L256.54 369.02L225 348.53L223.65 367.94L202.9 341.79L193.47 369.02L175.68 338.02L159.5 369.02L144.68 336.13L129.58 365.24L115.84 338.02L92.66 369.02L84.3 357.7L81.61 369.02L71.9 369.02L71.9 348.53L61.93 367.94L58.16 341.79L68.13 324.81L68.13 240.44L61.12 221.84Z" id="a6Qs9PsuBv"></path><path d="M116.49 143.11L124.6 161.86L118.35 169.8L108.38 167.09L102.3 156.11L112.78 143.11L116.49 143.11Z" id="d3mDMDfM11"></path><path d="M170.21 157.63L180.85 166.25L191.32 155.44L187.78 143.11L178.99 143.11L170.21 157.63Z" id="dkwEfAuXR"></path><path d="M184.15 219.43L199.69 207.88L198.6 182.06L170.21 157.48L124.19 161.86L101.08 194.53L105.86 211.46L123.19 227L125.38 221.02L184.15 219.43Z" id="d2MqUfgdKP"></path><path d="M113.45 183.95L119.81 173.53L128.62 172.78L135.28 181.69L132.81 186.74L122.93 188.46L113.45 183.95Z" id="gEjoKgzKm"></path><path d="M130.23 187.49L133.13 183.09L128.94 177.4L124.11 177.4L120.46 183.09L123.36 188.46L130.23 187.49Z" id="j3kdjewt4y"></path><path d="M126.26 179.76L129.59 183.31L125.72 186.53L123.25 182.93L126.26 179.76Z" id="d21pHXMmmX"></path><path d="M186.29 176.9L174.58 164.66L168.24 164.66L163.73 170.24L163.73 177.4L165.99 181.95L174.04 184.85L186.29 176.9Z" id="dhdkJuVrj"></path><path d="M170.21 183.46L175.76 181.42L177.05 175.4L174.47 172.18L169.43 171.53L165.13 176.04L167.28 182.49L170.21 183.46Z" id="b12f686wid"></path><path d="M171.09 180.34L174.58 176.58L171.68 174.43L168.35 176.9L171.09 180.34Z" id="i1qzuzaZ9s"></path><path d="M167.81 195.92L177.37 204.88L184.57 220.08L180.27 226.42L129.59 231.36L124.96 221.27L130.01 205.37L138.49 195.38L167.81 195.92Z" id="a9BOqdk86"></path><path d="M151.37 204.51L152.02 219.76L146.76 229.43L164.16 228.03L156.54 221.16L156.54 202.9L160.19 197.2L167.92 196.02L172.55 195.06L167.92 186.03L161.37 180.34L141.82 181.42L135.59 186.03L133.13 194.3L144.72 196.56L151.37 204.51Z" id="b3v4NgDDEr"></path><path d="M180.15 226.33L190.35 233.47L194.23 240.1L193 262.55L181.98 287.96L167.6 300.92L147.09 300.92L128.11 286.33L115.35 255L118.72 242.96L129.43 231.36L180.15 226.33Z" id="h2WsJaRj2q"></path><path d="M102.13 192.84C107.9 189.65 117.47 190.83 130.83 196.37" id="alA9BpmhA"></path><path d="M101.11 202.87C109.61 197.47 118.8 197.89 128.67 204.12" id="b7BvBk4sp"></path><path d="M99.63 212.2C109.27 204.84 118.61 205.48 127.65 214.14" id="eiMRPJBfb"></path><path d="M202.13 183.39C192.87 182.93 183.49 185.86 174 192.16" id="aoeaTK8Nr"></path><path d="M202.13 191.1C193.78 189.55 184.78 192.34 175.14 199.45" id="cts2uj6oE"></path><path d="M207.49 196.94C197.24 195.8 188.09 199.11 180.04 206.85" id="baxJBFkfq3"></path><path d="M122.06 164.19C110.52 156.75 109.54 158.08 119.1 168.18" id="c2rTceZlq"></path><path d="M178.67 162.6C189.26 146.77 175.97 153.46 174 159.07" id="a1TZOgtXNe"></path><path d="M139.32 117L124.55 164.59L115.91 143.04" id="c2H1RKmwOa"></path><path d="M127.94 154.86L166.34 113.28L179.8 143.04" id="a83gwOtdXS"></path><path d="M130.24 152.34L173.55 153.65L146.87 134.73" id="dddAFa9f8"></path><path d="M106.39 140.31L99.63 122.36L128.27 134.73" id="a4eH2iKcEP"></path><path d="M128.27 150.7L112.19 132.21L104.75 148.29L84.51 151.68L101.57 129.8" id="aww4UkKAC"></path><path d="M94.79 151.25L83.85 165.36L102.56 156.17" id="kg3GMo5yE"></path><path d="M69.25 166.93L55.14 149.1L89.06 169.67" id="awPI6cGRq"></path><path d="M63.35 161.02L52.08 168.46L81.73 165.95" id="bqz9qIYXR"></path><path d="M71.33 175.03L60.5 168.46" id="cpWEm2nVe"></path><path d="M105.8 164.59L50.11 182.47L64.66 171.74" id="bPC7QRfKc"></path><path d="M71.33 197.67L59.3 200.96L82.17 172.95" id="i4xPjyLQC"></path><path d="M100.11 167.92L85.01 204.12L82.82 172.95" id="anI8QotzU"></path><path d="M76.26 226.67L82.17 201.62L62.14 207.96L82.82 186.3" id="lLKbEEWwh"></path><path d="M70.35 206.85L66.9 240.08L100.11 194.78L98.8 174.1" id="dlRjqrSYc"></path><path d="M79.98 251.13L69.04 279.56L68.61 240.13L60.83 222.57L69.04 207.09" id="aEG86Hvxr"></path><path d="M110.83 220.06L106.13 237.56L94.53 203.75" id="a4Z5Yvzwm7"></path><path d="M102.41 230.89L77.68 237.89L95.08 207.09" id="a17uVCvTW"></path><path d="M98.47 254.41L106.45 273.67L118.16 244.34L129.43 231.76L124.73 223.12L108.75 256.49L88.51 235.81L91.14 259.11L67.72 241.5" id="b2RtglMtT9"></path><path d="M100.76 263.38L84.13 290.29L77.24 259.88" id="c1t1G9vYg8"></path><path d="M87.31 296.75L66.9 310.86L79.98 276.29" id="h6n2RJSv5L"></path><path d="M101.09 285.7L92.01 308.46L85.89 289.75" id="dBOOVFOqS"></path><path d="M118.27 268.19L110.83 290.29L96.06 273.45" id="aB8uACpHc"></path><path d="M108.53 305.39L100.76 280.56" id="a14NLHjQC1"></path><path d="M136.54 295.19L106.24 309.42L124.83 282.83" id="a3J9IThBzr"></path><path d="M104.38 295.74L98.58 323.86L76.59 305.39" id="aNCm11HKs"></path><path d="M78.99 334.91L61.89 367.83L58.73 342.1L76.59 307.45" id="dgKegPce9"></path><path d="M88.62 318.39L93.98 351.33L73.3 326.27" id="e3iGIUNPXc"></path><path d="M72.81 368.01L72.81 351.16" id="aVJLqC42w"></path><path d="M81.01 368.48L84.07 359.29" id="a2BmR4OFi9"></path><path d="M114.6 337.2L92.82 368.17L74.33 346.61" id="b7wUe9fDsc"></path><path d="M143.26 338.22L129.59 364.69L102.34 311.08" id="d14Ga8LmWI"></path><path d="M109.74 330.78L93.49 333.08L103.39 317.98" id="a3v4zYUVnh"></path><path d="M127.85 300.71L132.56 340.65L114.44 306.51" id="iELXXfdkc"></path><path d="M150.94 312.95L149.19 336.6L130.59 315.05" id="a24y6XqqiR"></path><path d="M160 367.92L137.13 320" id="frVms4Wdr"></path><path d="M172.38 317.12L161.77 341.52L146.89 302.14" id="b1HwkMti1q"></path><path d="M193.06 311.11L175.67 340.32L171.51 299.29" id="e1Oztu6iV8"></path><path d="M201.03 344.37L193.03 367.51L177.85 339.62" id="d1aHWhVMLZ"></path><path d="M192.55 338.45L185.87 348.95L182.29 331.56" id="b6UqZfwm1"></path><path d="M217.17 320.68L198.68 344.14L184.89 328.16" id="b33wtydYj7"></path><path d="M227.78 318.86L223.62 366.27L203.67 341.64" id="eueyPcMSX"></path><path d="M227.34 349.83L256.77 369.53L223.84 310" id="b1jrNunQAs"></path><path d="M228.11 330.79L219.68 353.33L210.16 330.46" id="b2itgiUuZ"></path><path d="M213.23 312.95L200.21 336.04L191.89 294.03" id="a1Bbwja2Tm"></path><path d="M245.82 305.96L259.36 341.48L240.32 332.72" id="c6cN6IKrJE"></path><path d="M222.08 255.64L256.54 306.62L231.38 304" id="a4RFsq5Pu"></path><path d="M224.92 300.17L219.89 325.55L206.87 298.63" id="b16ulLJHOL"></path><path d="M201.03 285.07L179.74 304.32L193.96 263.08" id="bdwWGuHv"></path><path d="M216.39 264.5L204.13 305.96L198.01 270.63" id="b3sLrAo4r"></path><path d="M235.86 276.64L229.3 308.37L213 279.56" id="a1e5bm1a2C"></path><path d="M204.9 250.47L193.3 275.85L194.94 238.1" id="a1y1h4I1P1"></path><path d="M212.56 202.45L223.39 272.24L192.32 234.71" id="a3W312eUp2"></path><path d="M221.42 236.41L249.02 286.98" id="aC71VIo43"></path><path d="M215.08 204.03L242.54 242.32L222.17 231.19" id="dsOuD2Nf8"></path><path d="M211.79 200.75L211.25 243.2L194.07 213.22" id="erYR2ROvn"></path><path d="M231.27 185.72L236.52 215.04L210.48 200.16" id="bhOj7bDhP"></path><path d="M234.22 182.55L245.05 228.28L222.73 213.62" id="g3XGluJIgA"></path><path d="M235.92 179.59L218.03 198.19L224.27 169.53L237.72 179.59L247.46 208.7" id="cfnyhxz6Z"></path><path d="M199.1 206.62L220 193.05L201.29 185.28" id="a1Smes0Wp"></path><path d="M192.65 168.43L201.29 186.16L215.08 170.84" id="aDWkWoa9i"></path><path d="M188.07 144.19L235.54 168.21L182.72 168.43" id="eavNerPye"></path></defs><g><g><g><g><use xlink:href="#jOv642Qc3" opacity="1" fill="#9b7647" fill-opacity="1"></use></g><g><use xlink:href="#a6Qs9PsuBv" opacity="1" fill="#9e5b2b" fill-opacity="1"></use></g><g><use xlink:href="#d3mDMDfM11" opacity="1" fill="#7d3317" fill-opacity="1"></use></g><g><use xlink:href="#dkwEfAuXR" opacity="1" fill="#7d3317" fill-opacity="1"></use></g><g><use xlink:href="#d2MqUfgdKP" opacity="1" fill="#e8b45e" fill-opacity="1"></use></g><g><use xlink:href="#gEjoKgzKm" opacity="1" fill="#4f1507" fill-opacity="1"></use></g><g><use xlink:href="#j3kdjewt4y" opacity="1" fill="#c88d59" fill-opacity="1"></use></g><g><use xlink:href="#d21pHXMmmX" opacity="1" fill="#370c10" fill-opacity="1"></use></g><g><use xlink:href="#dhdkJuVrj" opacity="1" fill="#4f1507" fill-opacity="1"></use></g><g><use xlink:href="#b12f686wid" opacity="1" fill="#c88d59" fill-opacity="1"></use></g><g><use xlink:href="#i1qzuzaZ9s" opacity="1" fill="#370c10" fill-opacity="1"></use></g><g><use xlink:href="#a9BOqdk86" opacity="1" fill="#80341b" fill-opacity="1"></use></g><g><use xlink:href="#b3v4NgDDEr" opacity="1" fill="#390d0b" fill-opacity="1"></use></g><g><use xlink:href="#h2WsJaRj2q" opacity="1" fill="#c79b82" fill-opacity="1"></use></g></g><g><g><g><use xlink:href="#alA9BpmhA" opacity="1" fill-opacity="0" stroke="#633604" stroke-width="1" stroke-opacity="1"></use></g></g><g><g><use xlink:href="#b7BvBk4sp" opacity="1" fill-opacity="0" stroke="#633604" stroke-width="1" stroke-opacity="1"></use></g></g><g><g><use xlink:href="#eiMRPJBfb" opacity="1" fill-opacity="0" stroke="#633604" stroke-width="1" stroke-opacity="1"></use></g></g><g><g><use xlink:href="#aoeaTK8Nr" opacity="1" fill-opacity="0" stroke="#633604" stroke-width="1" stroke-opacity="1"></use></g></g><g><g><use xlink:href="#cts2uj6oE" opacity="1" fill-opacity="0" stroke="#633604" stroke-width="1" stroke-opacity="1"></use></g></g><g><g><use xlink:href="#baxJBFkfq3" opacity="1" fill-opacity="0" stroke="#633604" stroke-width="1" stroke-opacity="1"></use></g></g><g><g><use xlink:href="#c2rTceZlq" opacity="1" fill-opacity="0" stroke="#633604" stroke-width="1" stroke-opacity="1"></use></g></g><g><g><use xlink:href="#a1TZOgtXNe" opacity="1" fill-opacity="0" stroke="#633604" stroke-width="1" stroke-opacity="1"></use></g></g><g><g><use xlink:href="#c2H1RKmwOa" opacity="1" fill-opacity="0" stroke="#633604" stroke-width="1" stroke-opacity="1"></use></g></g><g><g><use xlink:href="#a83gwOtdXS" opacity="1" fill-opacity="0" stroke="#633604" stroke-width="1" stroke-opacity="1"></use></g></g><g><g><use xlink:href="#dddAFa9f8" opacity="1" fill-opacity="0" stroke="#633604" stroke-width="1" stroke-opacity="1"></use></g></g><g><g><use xlink:href="#a4eH2iKcEP" opacity="1" fill-opacity="0" stroke="#633604" stroke-width="1" stroke-opacity="1"></use></g></g><g><g><use xlink:href="#aww4UkKAC" opacity="1" fill-opacity="0" stroke="#633604" stroke-width="1" stroke-opacity="1"></use></g></g><g><g><use xlink:href="#kg3GMo5yE" opacity="1" fill-opacity="0" stroke="#633604" stroke-width="1" stroke-opacity="1"></use></g></g><g><g><use xlink:href="#awPI6cGRq" opacity="1" fill-opacity="0" stroke="#633604" stroke-width="1" stroke-opacity="1"></use></g></g><g><g><use xlink:href="#bqz9qIYXR" opacity="1" fill-opacity="0" stroke="#633604" stroke-width="1" stroke-opacity="1"></use></g></g><g><g><use xlink:href="#cpWEm2nVe" opacity="1" fill-opacity="0" stroke="#633604" stroke-width="1" stroke-opacity="1"></use></g></g><g><g><use xlink:href="#bPC7QRfKc" opacity="1" fill-opacity="0" stroke="#633604" stroke-width="1" stroke-opacity="1"></use></g></g><g><g><use xlink:href="#i4xPjyLQC" opacity="1" fill-opacity="0" stroke="#633604" stroke-width="1" stroke-opacity="1"></use></g></g><g><g><use xlink:href="#anI8QotzU" opacity="1" fill-opacity="0" stroke="#633604" stroke-width="1" stroke-opacity="1"></use></g></g><g><g><use xlink:href="#lLKbEEWwh" opacity="1" fill-opacity="0" stroke="#633604" stroke-width="1" stroke-opacity="1"></use></g></g><g><g><use xlink:href="#dlRjqrSYc" opacity="1" fill-opacity="0" stroke="#633604" stroke-width="1" stroke-opacity="1"></use></g></g><g><g><use xlink:href="#aEG86Hvxr" opacity="1" fill-opacity="0" stroke="#633604" stroke-width="1" stroke-opacity="1"></use></g></g><g><g><use xlink:href="#a4Z5Yvzwm7" opacity="1" fill-opacity="0" stroke="#633604" stroke-width="1" stroke-opacity="1"></use></g></g><g><g><use xlink:href="#a17uVCvTW" opacity="1" fill-opacity="0" stroke="#633604" stroke-width="1" stroke-opacity="1"></use></g></g><g><g><use xlink:href="#b2RtglMtT9" opacity="1" fill-opacity="0" stroke="#633604" stroke-width="1" stroke-opacity="1"></use></g></g><g><g><use xlink:href="#c1t1G9vYg8" opacity="1" fill-opacity="0" stroke="#633604" stroke-width="1" stroke-opacity="1"></use></g></g><g><g><use xlink:href="#h6n2RJSv5L" opacity="1" fill-opacity="0" stroke="#633604" stroke-width="1" stroke-opacity="1"></use></g></g><g><g><use xlink:href="#dBOOVFOqS" opacity="1" fill-opacity="0" stroke="#633604" stroke-width="1" stroke-opacity="1"></use></g></g><g><g><use xlink:href="#aB8uACpHc" opacity="1" fill-opacity="0" stroke="#633604" stroke-width="1" stroke-opacity="1"></use></g></g><g><g><use xlink:href="#a14NLHjQC1" opacity="1" fill-opacity="0" stroke="#633604" stroke-width="1" stroke-opacity="1"></use></g></g><g><g><use xlink:href="#a3J9IThBzr" opacity="1" fill-opacity="0" stroke="#633604" stroke-width="1" stroke-opacity="1"></use></g></g><g><g><use xlink:href="#aNCm11HKs" opacity="1" fill-opacity="0" stroke="#633604" stroke-width="1" stroke-opacity="1"></use></g></g><g><g><use xlink:href="#dgKegPce9" opacity="1" fill-opacity="0" stroke="#633604" stroke-width="1" stroke-opacity="1"></use></g></g><g><g><use xlink:href="#e3iGIUNPXc" opacity="1" fill-opacity="0" stroke="#633604" stroke-width="1" stroke-opacity="1"></use></g></g><g><g><use xlink:href="#aVJLqC42w" opacity="1" fill-opacity="0" stroke="#633604" stroke-width="1" stroke-opacity="1"></use></g></g><g><g><use xlink:href="#a2BmR4OFi9" opacity="1" fill-opacity="0" stroke="#633604" stroke-width="1" stroke-opacity="1"></use></g></g><g><g><use xlink:href="#b7wUe9fDsc" opacity="1" fill-opacity="0" stroke="#633604" stroke-width="1" stroke-opacity="1"></use></g></g><g><g><use xlink:href="#d14Ga8LmWI" opacity="1" fill-opacity="0" stroke="#633604" stroke-width="1" stroke-opacity="1"></use></g></g><g><g><use xlink:href="#a3v4zYUVnh" opacity="1" fill-opacity="0" stroke="#633604" stroke-width="1" stroke-opacity="1"></use></g></g><g><g><use xlink:href="#iELXXfdkc" opacity="1" fill-opacity="0" stroke="#633604" stroke-width="1" stroke-opacity="1"></use></g></g><g><g><use xlink:href="#a24y6XqqiR" opacity="1" fill-opacity="0" stroke="#633604" stroke-width="1" stroke-opacity="1"></use></g></g><g><g><use xlink:href="#frVms4Wdr" opacity="1" fill-opacity="0" stroke="#633604" stroke-width="1" stroke-opacity="1"></use></g></g><g><g><use xlink:href="#b1HwkMti1q" opacity="1" fill-opacity="0" stroke="#633604" stroke-width="1" stroke-opacity="1"></use></g></g><g><g><use xlink:href="#e1Oztu6iV8" opacity="1" fill-opacity="0" stroke="#633604" stroke-width="1" stroke-opacity="1"></use></g></g><g><g><use xlink:href="#d1aHWhVMLZ" opacity="1" fill-opacity="0" stroke="#633604" stroke-width="1" stroke-opacity="1"></use></g></g><g><g><use xlink:href="#b6UqZfwm1" opacity="1" fill-opacity="0" stroke="#633604" stroke-width="1" stroke-opacity="1"></use></g></g><g><g><use xlink:href="#b33wtydYj7" opacity="1" fill-opacity="0" stroke="#633604" stroke-width="1" stroke-opacity="1"></use></g></g><g><g><use xlink:href="#eueyPcMSX" opacity="1" fill-opacity="0" stroke="#633604" stroke-width="1" stroke-opacity="1"></use></g></g><g><g><use xlink:href="#b1jrNunQAs" opacity="1" fill-opacity="0" stroke="#633604" stroke-width="1" stroke-opacity="1"></use></g></g><g><g><use xlink:href="#b2itgiUuZ" opacity="1" fill-opacity="0" stroke="#633604" stroke-width="1" stroke-opacity="1"></use></g></g><g><g><use xlink:href="#a1Bbwja2Tm" opacity="1" fill-opacity="0" stroke="#633604" stroke-width="1" stroke-opacity="1"></use></g></g><g><g><use xlink:href="#c6cN6IKrJE" opacity="1" fill-opacity="0" stroke="#633604" stroke-width="1" stroke-opacity="1"></use></g></g><g><g><use xlink:href="#a4RFsq5Pu" opacity="1" fill-opacity="0" stroke="#633604" stroke-width="1" stroke-opacity="1"></use></g></g><g><g><use xlink:href="#b16ulLJHOL" opacity="1" fill-opacity="0" stroke="#633604" stroke-width="1" stroke-opacity="1"></use></g></g><g><g><use xlink:href="#bdwWGuHv" opacity="1" fill-opacity="0" stroke="#633604" stroke-width="1" stroke-opacity="1"></use></g></g><g><g><use xlink:href="#b3sLrAo4r" opacity="1" fill-opacity="0" stroke="#633604" stroke-width="1" stroke-opacity="1"></use></g></g><g><g><use xlink:href="#a1e5bm1a2C" opacity="1" fill-opacity="0" stroke="#633604" stroke-width="1" stroke-opacity="1"></use></g></g><g><g><use xlink:href="#a1y1h4I1P1" opacity="1" fill-opacity="0" stroke="#633604" stroke-width="1" stroke-opacity="1"></use></g></g><g><g><use xlink:href="#a3W312eUp2" opacity="1" fill-opacity="0" stroke="#633604" stroke-width="1" stroke-opacity="1"></use></g></g><g><g><use xlink:href="#aC71VIo43" opacity="1" fill-opacity="0" stroke="#633604" stroke-width="1" stroke-opacity="1"></use></g></g><g><g><use xlink:href="#dsOuD2Nf8" opacity="1" fill-opacity="0" stroke="#633604" stroke-width="1" stroke-opacity="1"></use></g></g><g><g><use xlink:href="#erYR2ROvn" opacity="1" fill-opacity="0" stroke="#633604" stroke-width="1" stroke-opacity="1"></use></g></g><g><g><use xlink:href="#bhOj7bDhP" opacity="1" fill-opacity="0" stroke="#633604" stroke-width="1" stroke-opacity="1"></use></g></g><g><g><use xlink:href="#g3XGluJIgA" opacity="1" fill-opacity="0" stroke="#633604" stroke-width="1" stroke-opacity="1"></use></g></g><g><g><use xlink:href="#cfnyhxz6Z" opacity="1" fill-opacity="0" stroke="#633604" stroke-width="1" stroke-opacity="1"></use></g></g><g><g><use xlink:href="#a1Smes0Wp" opacity="1" fill-opacity="0" stroke="#633604" stroke-width="1" stroke-opacity="1"></use></g></g><g><g><use xlink:href="#aDWkWoa9i" opacity="1" fill-opacity="0" stroke="#633604" stroke-width="1" stroke-opacity="1"></use></g></g><g><g><use xlink:href="#eavNerPye" opacity="1" fill-opacity="0" stroke="#633604" stroke-width="1" stroke-opacity="1"></use></g></g></g></g></g></svg>