<?xml version="1.0" encoding="UTF-8" standalone="no"?>
<!DOCTYPE svg PUBLIC "-//W3C//DTD SVG 1.1//EN" "http://www.w3.org/Graphics/SVG/1.1/DTD/svg11.dtd">
<svg version="1.1" xmlns="http://www.w3.org/2000/svg" xmlns:xlink="http://www.w3.org/1999/xlink" preserveAspectRatio="xMidYMid meet" viewBox="167.81778579760862 149.5138888888889 261.9999999999999 262" width="262" height="262"><defs><path d="M167.82 149.51L429.82 149.51L429.82 411.51L167.82 411.51L167.82 149.51Z" id="bxFRcWkb7"></path><path d="M208.57 263.28L218 247.11L212.07 248.46L220.16 237.14L208.57 241.18L222.05 224.47L223.12 217.19L197.25 224.47L213.15 212.07L207.49 208.83L200.48 208.83L212.07 201.83L202.64 189.97L220.97 200.48L236.1 184.3L239.3 184.3L250.35 171.1L247.92 164.09L259.51 156.81L275.95 176.22L282.69 173.25L287.28 158.97L294.28 176.22L313.69 155.73L326.9 184.3L340.91 184.3L355.74 195.63L382.96 209.91L371.1 209.91L384.31 220.7L394.55 250.08L387.81 247.11L392.67 271.1L377.3 260.05L377.3 264.9L389.7 282.96L377.3 278.38L378.65 294.28L397.79 330.13L391.32 327.97L403.99 347.65L397.79 357.35L407.69 383.88L387.81 375.95L403.99 410.45L372.45 389.97L371.1 409.38L350.35 383.23L340.91 410.45L323.12 379.46L306.95 410.45L292.13 377.57L277.03 406.68L263.29 379.46L240.11 410.45L231.75 399.13L229.05 410.45L219.35 410.45L219.35 389.97L209.38 409.38L205.6 383.23L215.58 366.25L215.58 281.88L208.57 263.28Z" id="b1jlKkEGE8"></path><path d="M263.94 184.54L272.05 203.29L265.8 211.23L255.83 208.53L249.75 197.55L260.22 184.54L263.94 184.54Z" id="a4nnvLIMsG"></path><path d="M317.66 199.07L328.3 207.69L338.77 196.88L335.22 184.54L326.44 184.54L317.66 199.07Z" id="a4ioqIRp8c"></path><path d="M331.6 260.87L347.13 249.31L346.05 223.49L317.66 198.91L271.64 203.3L248.53 235.97L253.31 252.9L270.64 268.44L272.83 262.46L331.6 260.87Z" id="awqQNQi6J"></path><path d="M260.9 225.39L267.26 214.97L276.07 214.22L282.73 223.13L280.26 228.18L270.38 229.9L260.9 225.39Z" id="gcOIXeL1D"></path><path d="M277.68 228.93L280.58 224.53L276.39 218.84L271.56 218.84L267.9 224.53L270.8 229.9L277.68 228.93Z" id="d2czmVmQ4p"></path><path d="M273.7 221.2L277.03 224.74L273.17 227.97L270.7 224.37L273.7 221.2Z" id="p5M95NHKje"></path><path d="M333.74 218.34L322.03 206.1L315.69 206.1L311.18 211.68L311.18 218.84L313.44 223.39L321.49 226.29L333.74 218.34Z" id="dzVLV0BUq"></path><path d="M317.66 224.89L323.21 222.85L324.5 216.84L321.92 213.62L316.87 212.97L312.58 217.48L314.73 223.93L317.66 224.89Z" id="feSMGmzhF"></path><path d="M318.54 221.78L322.03 218.02L319.13 215.87L315.8 218.34L318.54 221.78Z" id="c40oLMjpI"></path><path d="M315.26 237.35L324.82 246.32L332.02 261.52L327.72 267.86L277.03 272.8L272.41 262.7L277.45 246.81L285.94 236.82L315.26 237.35Z" id="d3zHk2DYg"></path><path d="M298.82 245.95L299.47 261.2L294.21 270.87L311.61 269.47L303.98 262.59L303.98 244.33L307.64 238.64L315.37 237.46L320 236.49L315.37 227.47L308.82 221.78L289.27 222.85L283.04 227.47L280.58 235.74L292.17 238L298.82 245.95Z" id="d1gDqy2wVR"></path><path d="M327.59 267.76L337.8 274.91L341.68 281.54L340.45 303.99L329.43 329.39L315.04 342.35L294.53 342.35L275.55 327.76L262.8 296.44L266.17 284.39L276.88 272.8L327.59 267.76Z" id="c3OlUjKbGu"></path></defs><g><g><g><use xlink:href="#bxFRcWkb7" opacity="1" fill="#9b7647" fill-opacity="1"></use></g><g><use xlink:href="#b1jlKkEGE8" opacity="1" fill="#9e5b2b" fill-opacity="1"></use></g><g><use xlink:href="#a4nnvLIMsG" opacity="1" fill="#7d3317" fill-opacity="1"></use></g><g><use xlink:href="#a4ioqIRp8c" opacity="1" fill="#7d3317" fill-opacity="1"></use></g><g><use xlink:href="#awqQNQi6J" opacity="1" fill="#e8b45e" fill-opacity="1"></use></g><g><use xlink:href="#gcOIXeL1D" opacity="1" fill="#4f1507" fill-opacity="1"></use></g><g><use xlink:href="#d2czmVmQ4p" opacity="1" fill="#c88d59" fill-opacity="1"></use></g><g><use xlink:href="#p5M95NHKje" opacity="1" fill="#370c10" fill-opacity="1"></use></g><g><use xlink:href="#dzVLV0BUq" opacity="1" fill="#4f1507" fill-opacity="1"></use></g><g><use xlink:href="#feSMGmzhF" opacity="1" fill="#c88d59" fill-opacity="1"></use></g><g><use xlink:href="#c40oLMjpI" opacity="1" fill="#370c10" fill-opacity="1"></use></g><g><use xlink:href="#d3zHk2DYg" opacity="1" fill="#80341b" fill-opacity="1"></use></g><g><use xlink:href="#d1gDqy2wVR" opacity="1" fill="#390d0b" fill-opacity="1"></use></g><g><use xlink:href="#c3OlUjKbGu" opacity="1" fill="#c79b82" fill-opacity="1"></use></g></g></g></svg>