<?xml version="1.0" encoding="UTF-8" standalone="no"?>
<!DOCTYPE svg PUBLIC "-//W3C//DTD SVG 1.1//EN" "http://www.w3.org/Graphics/SVG/1.1/DTD/svg11.dtd">
<svg version="1.1" xmlns="http://www.w3.org/2000/svg" xmlns:xlink="http://www.w3.org/1999/xlink" preserveAspectRatio="xMidYMid meet" viewBox="153.93809058325178 200.01955034213097 261.9999999999999 262" width="262" height="262"><defs><path d="M153.94 200.02L415.94 200.02L415.94 462.02L153.94 462.02L153.94 200.02Z" id="b9YCA616OY"></path><path d="M173.98 421.29L392.74 421.29L392.41 462.02L173.98 462.02L173.98 421.29Z" id="bS5Xn9jwP"></path><path d="M173.98 389.29L392.74 390.22L392.4 421.29L173.98 421.29L173.98 389.29Z" id="b1DAukNX4J"></path><path d="M174.24 352.5L392.74 352.5L392.74 390.49L173.98 389.29L174.24 352.5Z" id="d1YfoXuBXx"></path><path d="M174.37 305.81L393.13 305.81L392.74 352.5L173.98 352.5L174.37 305.81Z" id="ehZQLWlSj"></path><path d="M336.02 305.81L325.87 305.81L307.99 299.38L290.19 271.94L284.94 270.43L281.31 271.94L265.28 297.19L247.86 305.81L238.29 305.81L208.65 300.65L189.16 300.2L173.47 296.38L170.93 293.38L173.01 289.8L199.31 290.73L196.54 285.34L171.74 281.16L166.78 277.38L167.36 271.94L196.88 274.01L196.19 265.39L171.74 259.5L166.78 255.44L166.78 251.64L170.36 249.1L195.38 253.37L194.58 245.76L166.43 236.9L165.4 231.82L169.2 228.94L207.03 234.24L184.08 213.94L187.89 210.48L215.11 223.29L247.86 227.09L266.55 236.53L275.03 249.1L281.95 253.71L289.91 253.37L295.67 248.41L303.63 236.53L321.93 227.77L360.49 222L381.14 211.27L384.83 211.27L386.1 212.77L385.29 215.31L364.88 233.88L379.52 233.41L403.17 228.57L405.13 234.91L402.25 237.91L376.06 245.76L376.06 253.37L400.52 249.45L403.98 251.64L403.98 255.44L400.52 258.9L374.68 266.63L373.99 274.01L403.98 271.94L403.98 278.17L400.06 281.16L372.95 285.09L372.37 291.08L397.4 290.16L400.06 292.35L400.06 294.54L387.94 300.2L358.65 300.2L336.02 305.81Z" id="b15rPJykWg"></path><path d="M310 248.63L303.54 260.51L303.08 274.23L311.61 289.23L325.45 297.07L338.95 295.8L352.9 287.84L358.79 277L359.25 260.97L348.52 245.28L338.14 240.67L324.65 240.67L310 248.63Z" id="a17zg3PatM"></path><path d="M218.07 248.93L212.19 259.88L211.61 269.11L214.5 282.49L223.26 291.83L234.91 297.07L241.6 297.07L258.44 290.91L267.44 273.73L267.44 258.96L260.52 247.66L247.02 240.28L233.99 239.7L218.07 248.93Z" id="d8qHB7C29"></path></defs><g><g><g><use xlink:href="#b9YCA616OY" opacity="1" fill="#9b7647" fill-opacity="1"></use></g><g><use xlink:href="#bS5Xn9jwP" opacity="1" fill="#003466" fill-opacity="1"></use></g><g><use xlink:href="#b1DAukNX4J" opacity="1" fill="#0001fe" fill-opacity="1"></use></g><g><use xlink:href="#d1YfoXuBXx" opacity="1" fill="#fd9805" fill-opacity="1"></use></g><g><use xlink:href="#ehZQLWlSj" opacity="1" fill="#81017d" fill-opacity="1"></use></g><g><use xlink:href="#b15rPJykWg" opacity="1" fill="#da9000" fill-opacity="1"></use></g><g><use xlink:href="#a17zg3PatM" opacity="1" fill="#cc99fe" fill-opacity="1"></use></g><g><use xlink:href="#d8qHB7C29" opacity="1" fill="#cc99fe" fill-opacity="1"></use></g></g></g></svg>