<?xml version="1.0" encoding="UTF-8" standalone="no"?>
<!DOCTYPE svg PUBLIC "-//W3C//DTD SVG 1.1//EN" "http://www.w3.org/Graphics/SVG/1.1/DTD/svg11.dtd">
<svg version="1.1" xmlns="http://www.w3.org/2000/svg" xmlns:xlink="http://www.w3.org/1999/xlink" preserveAspectRatio="xMidYMid meet" viewBox="200.87844739530146 182.81920326864133 261.9999999999999 262" width="262" height="262"><defs><path d="M200.88 182.82L462.88 182.82L462.88 444.82L200.88 444.82L200.88 182.82Z" id="c2Ilfud3m"></path><path d="M407.7 220.23L443.87 222.09L429.24 310.92L440.94 403.74L405.84 393.63L270.2 390.97L221.79 401.35L225.25 334.06L231.63 307.46L214.35 227.41L270.73 223.42L326.05 231.13L407.7 220.23Z" id="a2yLYB3xY"></path><path d="M289.08 279.8L304.77 301.35L282.96 296.56L264.35 281.93L260.62 265.97L289.08 279.8Z" id="d4mCEOz9J"></path><path d="M367.27 274.75L398.39 261.45L386.95 281.67L368.87 295.76L347.86 298.69L367.27 274.75Z" id="behZgOWK"></path><path d="M320 336.98L327.11 339.91L334.83 336.98L363.28 345.23L352.64 354.01L327.11 361.19L311.95 360.39L286.42 343.37L320 336.98Z" id="b66ezykbF"></path><path d="M444.32 222.69C437.06 231.43 432.75 237.87 431.39 242.01C426.61 241.26 409.86 251.7 398.39 261.45C386.17 266.57 377.01 269.88 366.47 274.93C360.97 281.29 355.58 290.28 343.78 302.83C342.22 303.37 336.52 306.51 326.69 312.25C325.02 313.22 322.96 313.24 321.28 312.29C315.82 309.21 311.37 306.84 307.95 305.17C306.12 301.68 292.18 283.86 288.64 279.31C283.85 276.33 259.05 265.55 251.41 261.45C249.38 257.05 235.95 241.4 216.36 235.54C217.74 233.51 217.22 230.81 214.8 227.44" id="c4YMH5f8Dk"></path><path d="M404.43 316.45C414.32 311.57 422.37 309.49 428.57 310.22" id="a9vjZ58TOr"></path><path d="M283.64 344.02C298.51 331.68 309.42 320.26 316.35 309.75" id="klwsIjR8R"></path><path d="M366.97 342.93C357.18 337.19 345.48 325.71 331.88 308.5" id="aiMY5H5Q9"></path><path d="M247.28 309.33C242.26 310.53 237.04 309.73 231.62 306.92" id="aE5yf4pw0"></path><path d="M276.8 349.99C284.33 371.68 272.83 381.59 261.92 392.2C250.82 394.86 237.61 397.76 222.28 400.89" id="fe88pUd3n"></path><path d="M324.85 390.95C324.15 385.13 324.6 376.6 326.2 365.35" id="bXkgSGmzx"></path><path d="M368.67 362.94C380.72 376.19 393.17 386.44 406.02 393.66L440.96 403.74" id="fGFQGXZqc"></path><path d="M320 337.87C318.96 328.71 319.58 320.42 321.87 312.99" id="e9lLMaNAg"></path><path d="M334.37 337.4C336.02 332.65 328.39 314.74 329.56 310.79" id="cLgSdE6S"></path></defs><g><g><g><use xlink:href="#c2Ilfud3m" opacity="1" fill="#9b7647" fill-opacity="1"></use></g><g><use xlink:href="#a2yLYB3xY" opacity="1" fill="#c1a660" fill-opacity="1"></use></g><g><use xlink:href="#d4mCEOz9J" opacity="1" fill="#202020" fill-opacity="1"></use></g><g><use xlink:href="#behZgOWK" opacity="1" fill="#202020" fill-opacity="1"></use></g><g><use xlink:href="#b66ezykbF" opacity="1" fill="#5c266b" fill-opacity="1"></use></g><g><g><use xlink:href="#c4YMH5f8Dk" opacity="1" fill-opacity="0" stroke="#876635" stroke-width="1" stroke-opacity="1"></use></g></g><g><g><use xlink:href="#a9vjZ58TOr" opacity="1" fill-opacity="0" stroke="#876635" stroke-width="1" stroke-opacity="1"></use></g></g><g><g><use xlink:href="#klwsIjR8R" opacity="1" fill-opacity="0" stroke="#876635" stroke-width="1" stroke-opacity="1"></use></g></g><g><g><use xlink:href="#aiMY5H5Q9" opacity="1" fill-opacity="0" stroke="#876635" stroke-width="1" stroke-opacity="1"></use></g></g><g><g><use xlink:href="#aE5yf4pw0" opacity="1" fill-opacity="0" stroke="#876635" stroke-width="1" stroke-opacity="1"></use></g></g><g><g><use xlink:href="#fe88pUd3n" opacity="1" fill-opacity="0" stroke="#876635" stroke-width="1" stroke-opacity="1"></use></g></g><g><g><use xlink:href="#bXkgSGmzx" opacity="1" fill-opacity="0" stroke="#876635" stroke-width="1" stroke-opacity="1"></use></g></g><g><g><use xlink:href="#fGFQGXZqc" opacity="1" fill-opacity="0" stroke="#876635" stroke-width="1" stroke-opacity="1"></use></g></g><g><g><use xlink:href="#e9lLMaNAg" opacity="1" fill-opacity="0" stroke="#876635" stroke-width="1" stroke-opacity="1"></use></g></g><g><g><use xlink:href="#cLgSdE6S" opacity="1" fill-opacity="0" stroke="#876635" stroke-width="1" stroke-opacity="1"></use></g></g></g></g></svg>