<?xml version="1.0" encoding="UTF-8" standalone="no"?>
<!DOCTYPE svg PUBLIC "-//W3C//DTD SVG 1.1//EN" "http://www.w3.org/Graphics/SVG/1.1/DTD/svg11.dtd">
<svg version="1.1" xmlns="http://www.w3.org/2000/svg" xmlns:xlink="http://www.w3.org/1999/xlink" preserveAspectRatio="xMidYMid meet" viewBox="181.00343089445505 175.17875383043906 261.9999999999999 262" width="262" height="262"><defs><path d="M181 175.18L443 175.18L443 437.18L181 437.18L181 175.18Z" id="a6TbwSuA0"></path><path d="M250.62 363.27L250.62 356.09L263.2 361.73L339.88 312.49L422.09 298.58L422.43 315.45L433.56 315.45L433.56 275.29L437.27 275.29L440.31 271.58L440.31 260.67L437.27 255.94L427.6 255.94L422.43 261.57L422.43 266.52L417.25 262.8L422.43 258.53L422.76 253.36L418.26 249.64L411.51 257.86L409.04 255.94L416.13 247.51L410.73 242.5L405.89 241.94L404.99 252.34L398.92 250.99L398.92 247.17L404.34 236.2L396.53 229.36L390.84 241.04L388.59 239.01L369.8 239.01L370.14 243.96L378.8 243.51L378.8 246.89L358.78 242.5L352.59 248.07L349.56 246.89L352.59 243.96L352.59 241.94L350.79 240.5L348.21 241.4L344.83 245.99L342.58 245.2L346.97 236.65L345.28 234.85L343.26 235.19L338.31 243.96L333.81 242.5L339.88 230.58L338.88 228.91L334.83 229.36L329.88 241.4L324.15 239.49L310.42 240.5L298.27 227.56L282.53 228.58L269.59 239.49L267.46 261.57L262.63 267.75L261.95 272.37L262.63 276.3L247.11 266.52L241.03 267.08L237.99 255.94L226.97 248.07L213.36 248.07L199.86 255.16L189.29 272.37L188.72 291.83L200.31 305.44L211.33 305.44L219.66 312.98L217.07 316.81L221.46 320.3L224.05 316.81L226.63 319.06L224.05 322.55L229.22 326.15L231.69 322.88L235.52 327.27L239.46 342.23L232.48 343.02L230.68 339.87L226.97 339.87L224.95 343.36L224.05 348.42L226.97 351.12L230.68 351.12L233.04 347.63L242.38 346.96L244.18 349.54L237.99 349.54L232.48 354.6L232.48 363.27L235.52 363.27L235.52 397.12L248.9 397.12L247.11 363.27L250.62 363.27Z" id="b1W8m6iTQ"></path><path d="M385.01 248.07L390.9 248.82L390.72 244.24L384.73 244.24L385.01 248.07Z" id="cE7sscet6"></path><path d="M436.37 262.01L436.37 269.78L432.91 271.65L427.39 267.62L427.67 262.57L431.97 258.46L436.37 262.01Z" id="eljHgFys2"></path><path d="M391.27 262.17L376.3 274.14L366.65 293.16L365.69 317.09L373.7 332.15L396.19 329.83L387.31 337.07L371.29 337.56L364.82 333.41L355.75 314.39L355.75 290.94L375.44 263.14L387.02 254.93L407 254.64L411.54 258.46L398.99 259.28L401.69 262.56L391.27 262.17Z" id="b4LByXodLM"></path><path d="M373.7 332.15L396.19 330.03L410.57 319.22L422.15 298.46L422.15 266.32L411.73 258.46L398.8 259.37L408.06 268.64L411.54 279.93L405.07 305.51L386.44 325.01L370.9 326.84L373.7 332.15Z" id="c1XUMzNhU7"></path><path d="M391.65 262.27L401.88 262.56L408.25 268.73L411.83 279.93L405.17 305.7L386.54 325.11L370.9 326.94L365.69 317L366.75 293.25L376.21 274.14L391.65 262.27Z" id="e2rXlyciNC"></path><path d="M306.11 294.6L324.93 293.59L334.54 310.06L335.7 320.51L326.67 350.31L303.95 366.72L294.34 369.32L278.41 357.93L274.84 328.4L281.3 312.66L306.11 294.6Z" id="eajK7vxIi"></path><path d="M284.51 324.72L298.02 325.68L307.87 334.56L291.85 334.56L282.87 343.06L282.87 358.89L286.63 364.39L264.34 363.81L262.79 361.78L262.6 325.2L269.93 307.92L298.41 286.01L316.94 284.47L332.39 291.13L335.19 295.3L306.03 296.1L282.1 313.52L275.53 328.77L284.51 324.72Z" id="e1Ofo35NXA"></path><path d="M291.73 313.72L306.4 313.24L316.83 325.5L315.47 342.97L298.89 364.88L303.99 365.17L325.22 348.96L334.78 320L333.91 309.86L323.49 295.3L334.97 295.3L344.82 319.22L343.37 337.56L328.41 362.47L307.66 377.05L278.51 377.05L264.63 363.81L286.54 364.39L284.61 361.59L294.64 361.3L305.07 347.21L302.85 334.47L308.06 334.47L311.25 337.27L312 326.94L304.78 319.22L290.11 321.63L276.02 328.68L291.73 313.72Z" id="fuQp6K7Qm"></path><path d="M256.11 290.28C256.11 294.75 252.23 298.37 247.43 298.37C242.64 298.37 238.75 294.75 238.75 290.28C238.75 285.81 242.64 282.19 247.43 282.19C252.23 282.19 256.11 285.81 256.11 290.28Z" id="e3dnyvSEbL"></path><path d="M244.23 309.16C244.23 312.23 241.45 314.73 238.02 314.73C234.6 314.73 231.82 312.23 231.82 309.16C231.82 306.08 234.6 303.58 238.02 303.58C241.45 303.58 244.23 306.08 244.23 309.16Z" id="bwZV6kaeq"></path><path d="M276.55 270.91C276.55 275.37 273.3 278.69 269.29 278.69C265.28 278.69 262.02 275.37 262.02 270.91C262.02 266.44 265.28 263.29 269.29 263.29C273.3 263.29 276.55 266.44 276.55 270.91Z" id="a4LQOhQlD"></path><path d="M235.45 314.73C234.72 315.73 234.64 319.45 235.22 325.9" id="c56UG68IKe"></path><path d="M244.23 310.48C247.2 311.54 254.39 314.26 256.11 314.73C256.58 316.54 256.12 316.85 255.28 318.27C252.99 317.53 248.69 315.93 242.38 313.47" id="a8ViRwOao"></path><path d="M249.34 312.05C249.68 309.36 261.18 307.33 258.27 317.32C255.35 327.31 245.26 317.77 247.43 316.14" id="a2yA1DP6uY"></path><path d="M255.52 292.95C257.16 294.41 262.71 296.94 263.69 297.64C263.58 299.47 263.22 299.64 262.38 300.9C261.1 299.86 258.33 298.25 254.07 296.09" id="a8WsZ3Oa4"></path><path d="M258.34 294.3C261.41 288.37 275.27 294.92 269.02 302.68C262.78 310.43 255.62 301.8 257.39 298.1" id="aYOIOUn6s"></path><path d="M275.81 274.24C277.32 276.04 281.81 280.1 282.74 281.01C282.34 282.81 280.89 283.4 279.79 284.47C278.59 283.16 276.42 280.8 273.28 277.39" id="blTFlCsnw"></path><path d="M279.14 277.09C280.52 274.75 291.66 277.15 285.06 285.2C278.47 293.26 273.16 281.47 275.79 280.82" id="feyVMOpIv"></path><path d="M241.42 296.36C239.74 297.64 238.78 299.93 238.55 303.24" id="e1xEme2MTK"></path><path d="M252.74 283.9C255.88 280.3 259.77 277.84 264.42 276.5" id="bJRimF4hY"></path><path d="M240.81 266.88C210.76 277.86 220.8 292.44 220.17 312.34" id="azrd7gtJn"></path><path d="M239.33 261.92C216.93 267.75 207.55 282.21 211.19 305.3" id="e1wexujv4Q"></path><path d="M225.92 266.88C220.73 257.3 209.06 263.7 205.18 269.32C201.31 274.94 197.97 286.7 210.43 289.36" id="h3U8TSMJV"></path><path d="M232.39 263.61C226.06 251.71 213.53 250.38 201.66 263.61C189.79 276.84 192.6 293.14 210.34 296.93" id="a6teBoWtLM"></path><path d="M310.08 348.75C311.07 341.6 308.8 336.96 303.28 334.81" id="b2HaJo9sCe"></path><path d="M325.16 290.98C335.01 305.31 339.74 314.79 339.35 319.42C334.76 338.31 333.43 360.84 306.79 366.52C305.16 367.58 292.03 366.95 290.31 366.52C288.58 366.08 287.61 365.02 285.6 363.03C283.6 361.05 274.36 346.03 284.12 337.08C293.88 328.12 299.26 331.52 304.42 331.06" id="b6DA54DJPE"></path><path d="M267.06 340.81C266.26 323.7 268.95 313.51 275.1 310.24C283.38 303.93 288.25 296.7 299.46 292.95C310.67 289.21 329.27 289.71 334.91 294.9" id="a197ASm4TE"></path><path d="M289.62 376.42C280.88 370.73 274 364.34 268.97 357.25C262.9 342.5 268.1 331.7 284.57 324.85" id="aTYn5AlPK"></path><path d="M246.02 356.57C246.02 358.51 243.73 360.62 241.76 360.62C239.79 360.62 237.5 358.51 237.5 356.57C237.5 354.62 239.79 352.52 241.76 352.52C243.73 352.52 246.02 354.62 246.02 356.57Z" id="aQ8MbD7Y8"></path><path d="M233.39 346.94L254.56 343.63L254.82 340.81L232.17 342.93" id="bS1qRY0xU"></path><path d="M250.46 355.83L258.39 347.72L254.21 343.54L244.97 349.38" id="e1kKKil9zF"></path><path d="M333.39 293.23C308.24 279.91 289.29 272.85 276.55 272.06" id="d9APdAMJr"></path><path d="M309.93 240.78C287.98 243.46 280.85 254.48 288.53 273.84" id="e1ztnSKYUN"></path><path d="M325.16 240.23C306.32 247 300.42 260.54 307.46 280.84" id="b1yhpYyUzY"></path><path d="M359.59 242.98C343.31 252.21 334.71 268.97 333.8 293.23" id="aADOtVnQ6"></path><path d="M366.17 244.24C346.69 254.86 336.95 273.97 336.95 301.55" id="b4KneA76dD"></path><path d="M370.7 257.31C370.7 260.42 368.52 262.94 366.17 262.94C363.82 262.94 361.64 260.42 361.64 257.31C361.64 254.21 363.82 251.69 366.17 251.69C368.52 251.69 370.7 254.21 370.7 257.31Z" id="g6oMwrnmcc"></path><path d="M381.6 336.77C336.64 322.07 361.59 251.23 411.54 258.08" id="a8lEINivmw"></path><path d="M397.27 258.46C440.42 277.53 397.89 333.08 372.78 332.45" id="b3jSfgvUOU"></path></defs><g><g><g><use xlink:href="#a6TbwSuA0" opacity="1" fill="#9b7647" fill-opacity="1"></use></g><g><use xlink:href="#b1W8m6iTQ" opacity="1" fill="#dead77" fill-opacity="1"></use></g><g><use xlink:href="#cE7sscet6" opacity="1" fill="#9b7647" fill-opacity="1"></use></g><g><use xlink:href="#eljHgFys2" opacity="1" fill="#9b7647" fill-opacity="1"></use></g><g><use xlink:href="#b4LByXodLM" opacity="1" fill="#bd9252" fill-opacity="1"></use></g><g><use xlink:href="#c1XUMzNhU7" opacity="1" fill="#e08936" fill-opacity="1"></use></g><g><use xlink:href="#e2rXlyciNC" opacity="1" fill="#151515" fill-opacity="1"></use></g><g><use xlink:href="#eajK7vxIi" opacity="1" fill="#151515" fill-opacity="1"></use></g><g><use xlink:href="#e1Ofo35NXA" opacity="1" fill="#bd9252" fill-opacity="1"></use></g><g><use xlink:href="#fuQp6K7Qm" opacity="1" fill="#e08936" fill-opacity="1"></use></g><g><g><use xlink:href="#e3dnyvSEbL" opacity="1" fill-opacity="0" stroke="#a06a2d" stroke-width="1" stroke-opacity="1"></use></g></g><g><g><use xlink:href="#bwZV6kaeq" opacity="1" fill-opacity="0" stroke="#a06a2d" stroke-width="1" stroke-opacity="1"></use></g></g><g><g><use xlink:href="#a4LQOhQlD" opacity="1" fill-opacity="0" stroke="#a06a2d" stroke-width="1" stroke-opacity="1"></use></g></g><g><g><use xlink:href="#c56UG68IKe" opacity="1" fill-opacity="0" stroke="#a06a2d" stroke-width="1" stroke-opacity="1"></use></g></g><g><g><use xlink:href="#a8ViRwOao" opacity="1" fill-opacity="0" stroke="#a06a2d" stroke-width="1" stroke-opacity="1"></use></g></g><g><g><use xlink:href="#a2yA1DP6uY" opacity="1" fill-opacity="0" stroke="#a06a2d" stroke-width="1" stroke-opacity="1"></use></g></g><g><g><use xlink:href="#a8WsZ3Oa4" opacity="1" fill-opacity="0" stroke="#a06a2d" stroke-width="1" stroke-opacity="1"></use></g></g><g><g><use xlink:href="#aYOIOUn6s" opacity="1" fill-opacity="0" stroke="#a06a2d" stroke-width="1" stroke-opacity="1"></use></g></g><g><g><use xlink:href="#blTFlCsnw" opacity="1" fill-opacity="0" stroke="#a06a2d" stroke-width="1" stroke-opacity="1"></use></g></g><g><g><use xlink:href="#feyVMOpIv" opacity="1" fill-opacity="0" stroke="#a06a2d" stroke-width="1" stroke-opacity="1"></use></g></g><g><g><use xlink:href="#e1xEme2MTK" opacity="1" fill-opacity="0" stroke="#a06a2d" stroke-width="1" stroke-opacity="1"></use></g></g><g><g><use xlink:href="#bJRimF4hY" opacity="1" fill-opacity="0" stroke="#a06a2d" stroke-width="1" stroke-opacity="1"></use></g></g><g><g><use xlink:href="#azrd7gtJn" opacity="1" fill-opacity="0" stroke="#a06a2d" stroke-width="1" stroke-opacity="1"></use></g></g><g><g><use xlink:href="#e1wexujv4Q" opacity="1" fill-opacity="0" stroke="#a06a2d" stroke-width="1" stroke-opacity="1"></use></g></g><g><g><use xlink:href="#h3U8TSMJV" opacity="1" fill-opacity="0" stroke="#a06a2d" stroke-width="1" stroke-opacity="1"></use></g></g><g><g><use xlink:href="#a6teBoWtLM" opacity="1" fill-opacity="0" stroke="#a06a2d" stroke-width="1" stroke-opacity="1"></use></g></g><g><g><use xlink:href="#b2HaJo9sCe" opacity="1" fill-opacity="0" stroke="#a06a2d" stroke-width="1" stroke-opacity="1"></use></g></g><g><g><use xlink:href="#b6DA54DJPE" opacity="1" fill-opacity="0" stroke="#a06a2d" stroke-width="1" stroke-opacity="1"></use></g></g><g><g><use xlink:href="#a197ASm4TE" opacity="1" fill-opacity="0" stroke="#a06a2d" stroke-width="1" stroke-opacity="1"></use></g></g><g><g><use xlink:href="#aTYn5AlPK" opacity="1" fill-opacity="0" stroke="#a06a2d" stroke-width="1" stroke-opacity="1"></use></g></g><g><g><use xlink:href="#aQ8MbD7Y8" opacity="1" fill-opacity="0" stroke="#a06a2d" stroke-width="1" stroke-opacity="1"></use></g></g><g><g><use xlink:href="#bS1qRY0xU" opacity="1" fill-opacity="0" stroke="#a06a2d" stroke-width="1" stroke-opacity="1"></use></g></g><g><g><use xlink:href="#e1kKKil9zF" opacity="1" fill-opacity="0" stroke="#a06a2d" stroke-width="1" stroke-opacity="1"></use></g></g><g><g><use xlink:href="#d9APdAMJr" opacity="1" fill-opacity="0" stroke="#a06a2d" stroke-width="1" stroke-opacity="1"></use></g></g><g><g><use xlink:href="#e1ztnSKYUN" opacity="1" fill-opacity="0" stroke="#a06a2d" stroke-width="1" stroke-opacity="1"></use></g></g><g><g><use xlink:href="#b1yhpYyUzY" opacity="1" fill-opacity="0" stroke="#a06a2d" stroke-width="1" stroke-opacity="1"></use></g></g><g><g><use xlink:href="#aADOtVnQ6" opacity="1" fill-opacity="0" stroke="#a06a2d" stroke-width="1" stroke-opacity="1"></use></g></g><g><g><use xlink:href="#b4KneA76dD" opacity="1" fill-opacity="0" stroke="#a06a2d" stroke-width="1" stroke-opacity="1"></use></g></g><g><g><use xlink:href="#g6oMwrnmcc" opacity="1" fill-opacity="0" stroke="#a06a2d" stroke-width="1" stroke-opacity="1"></use></g></g><g><g><use xlink:href="#a8lEINivmw" opacity="1" fill-opacity="0" stroke="#a06a2d" stroke-width="1" stroke-opacity="1"></use></g></g><g><g><use xlink:href="#b3jSfgvUOU" opacity="1" fill-opacity="0" stroke="#a06a2d" stroke-width="1" stroke-opacity="1"></use></g></g></g></g></svg>