<?xml version="1.0" encoding="UTF-8" standalone="no"?>
<!DOCTYPE svg PUBLIC "-//W3C//DTD SVG 1.1//EN" "http://www.w3.org/Graphics/SVG/1.1/DTD/svg11.dtd">
<svg version="1.1" xmlns="http://www.w3.org/2000/svg" xmlns:xlink="http://www.w3.org/1999/xlink" preserveAspectRatio="xMidYMid meet" viewBox="189.0000000000001 174.5138888888887 261.9999999999999 262" width="262" height="262"><defs><path d="M189 174.51L451 174.51L451 436.51L189 436.51L189 174.51Z" id="g14kcQXHAt"></path><path d="M447.33 256.59L430.5 214.67L370.1 182.66L350.96 182.66L308.39 196.52L266.8 256.59L262.18 293.06L290.57 417.15L327.53 427.38L398.82 426.39L441.06 410.55L447.33 256.59Z" id="bozz62K4Q"></path><path d="M298.82 260.22L274.72 255.93L314 199.82L330.17 194.21L298.82 260.22Z" id="dQlotf8hc"></path><path d="M347 190.25L334.46 265.5L305.42 261.54L336.11 192.56L347 190.25Z" id="a1c2kPyNdN"></path><path d="M364.16 187.28L378.02 261.87L340.4 264.18L352.28 189.26L364.16 187.28Z" id="l8d0L5PG0"></path><path d="M380 192.23L407.73 258.9L383.64 260.22L370.76 187.28L380 192.23Z" id="eEHEvGOQA"></path><path d="M422.25 216.32L438.42 256.92L418.29 258.57L391.89 198.5L422.25 216.32Z" id="b4eELHlv1n"></path><path d="M266.47 297.51L290.57 338.43L296.18 267.48L272.41 264.18L266.47 297.51Z" id="aslefqDFD"></path><path d="M333.47 272.43L328.19 400.81L296.18 390.91L302.45 268.47L333.47 272.43Z" id="b1JHjKJCeC"></path><path d="M378.02 269.46L371.75 399.49L334.79 400.81L340.4 272.43L378.02 269.46Z" id="gbZddeu4x"></path><path d="M409.38 266.49L404.76 397.84L379.34 398.83L385.29 268.47L409.38 266.49Z" id="ae3ROzMA5"></path><path d="M438.42 264.18L434.79 385.63L411.36 394.87L417.63 265.5L438.42 264.18Z" id="bOenSZFUK"></path><path d="M189 328.2L189 366.49L200.14 410.38L223.24 436.02L269.77 436.02L299.48 419.62L317.3 368.14L318.29 355.27L319.28 331.5L268.12 292.23L227.46 292.63L189 328.2Z" id="a1MukzwIVC"></path><path d="M262.84 347.51L276.91 369.63L271.82 394.69L251.44 401.13L215.52 396.97L210.42 373.78L223.16 342.95L262.84 347.51Z" id="e7mDinegD"></path><path d="M246.48 392.01L241.12 381.56L232.94 390.81L246.48 392.01Z" id="aJY4u7deD"></path><path d="M210.42 373.78L213.91 389.33L232.94 390.81L240.72 382.36L246.08 391.88L261.76 393.49L273.83 385.04L276.91 369.63L270.07 358.9L247.69 357.29L241.92 365.07L237.37 357.29L217.66 356.09L210.42 373.78Z" id="a2wPVzZc8"></path><path d="M247.82 382.76L263.64 383.84L272.62 375.26L263.24 366.28L250.24 366.28L241.39 374.39L232.94 365.2L219 364.53L211.76 371.23L217.39 380.75L234.15 381.42L241.39 374.43L247.82 382.76Z" id="b2f3oNJAte"></path></defs><g><g><g><use xlink:href="#g14kcQXHAt" opacity="1" fill="#9b7647" fill-opacity="1"></use></g><g><use xlink:href="#bozz62K4Q" opacity="1" fill="#7199bc" fill-opacity="1"></use></g><g><use xlink:href="#dQlotf8hc" opacity="1" fill="#9b7647" fill-opacity="1"></use></g><g><use xlink:href="#a1c2kPyNdN" opacity="1" fill="#9b7647" fill-opacity="1"></use></g><g><use xlink:href="#l8d0L5PG0" opacity="1" fill="#9b7647" fill-opacity="1"></use></g><g><use xlink:href="#eEHEvGOQA" opacity="1" fill="#9b7647" fill-opacity="1"></use></g><g><use xlink:href="#b4eELHlv1n" opacity="1" fill="#9b7647" fill-opacity="1"></use></g><g><use xlink:href="#aslefqDFD" opacity="1" fill="#9b7647" fill-opacity="1"></use></g><g><use xlink:href="#b1JHjKJCeC" opacity="1" fill="#9b7647" fill-opacity="1"></use></g><g><use xlink:href="#gbZddeu4x" opacity="1" fill="#9b7647" fill-opacity="1"></use></g><g><use xlink:href="#ae3ROzMA5" opacity="1" fill="#9b7647" fill-opacity="1"></use></g><g><use xlink:href="#bOenSZFUK" opacity="1" fill="#9b7647" fill-opacity="1"></use></g><g><use xlink:href="#a1MukzwIVC" opacity="1" fill="#cc99fe" fill-opacity="1"></use></g><g><use xlink:href="#e7mDinegD" opacity="1" fill="#dbcca8" fill-opacity="1"></use></g><g><use xlink:href="#aJY4u7deD" opacity="1" fill="#aeaeae" fill-opacity="1"></use></g><g><use xlink:href="#a2wPVzZc8" opacity="1" fill="#9a8776" fill-opacity="1"></use></g><g><use xlink:href="#b2f3oNJAte" opacity="1" fill="#000000" fill-opacity="1"></use></g></g></g></svg>