<?xml version="1.0" encoding="UTF-8" standalone="no"?>
<!DOCTYPE svg PUBLIC "-//W3C//DTD SVG 1.1//EN" "http://www.w3.org/Graphics/SVG/1.1/DTD/svg11.dtd">
<svg version="1.1" xmlns="http://www.w3.org/2000/svg" xmlns:xlink="http://www.w3.org/1999/xlink" preserveAspectRatio="xMidYMid meet" viewBox="201.24304245354696 155.7638888888889 262.3541797686754 262" width="262" height="262"><defs><path d="M201.6 155.76L463.6 155.76L463.6 417.76L201.6 417.76L201.6 155.76Z" id="c3zaMrW7Em"></path><path d="M201.24 357.33L463.24 357.33L463.24 417.76L201.24 417.76L201.24 357.33Z" id="b1zj1Sck25"></path><path d="M236.12 357.33L244.08 357.33L244.08 417.76L236.12 417.76L236.12 357.33Z" id="aAFNE9YCL"></path><path d="M400 357.33L408.52 357.33L409.01 417.76L400.29 417.76L400 357.33Z" id="c754XrSnRZ"></path><path d="M358.05 226.6L358.43 236.1L344.47 234.97L344.47 225.09L358.05 226.6Z" id="a1BuSZTHJ8"></path><path d="M216.14 315.66L441.36 316.05L441.75 357.33L216.14 357.33L216.14 315.66Z" id="aQi0JRY9G"></path><path d="M216.43 277.51L440.77 278.29L441.36 316.07L216.14 315.66L216.43 277.51Z" id="ar5PQqtav"></path><path d="M424.38 265.62L450.8 268.28L453.1 266.13L449.38 257.99L414.93 236.31L360.67 233.29L345.25 230.46L340.82 231.88L323.26 224.47L288.16 232.27L284.96 240.24L247.55 242.19L232.3 249.64L212.09 265.24L244.89 266.13L334.26 260.46L368.72 265.62L424.38 265.62Z" id="bn4QKnArq"></path><path d="M348.03 228.14L355.66 229.39L368.95 266.09L392.54 278.14L410.97 278.14L430.83 259.88L431.72 245.16L426.93 224.59L419.49 210.05L406.4 198.26L390.7 186.48L284.59 183.37L259.41 193.12L245.41 206.42L236.12 222.48L236.12 230.81L244.52 266.09L262.96 277.51L308 277.51L323.42 272.66L338.49 261.13L341.15 251.73L348.03 228.14Z" id="a2qq0W2I73"></path><path d="M257.78 212.89L319.65 194.98L355.83 200.83L376.93 193.57L397.83 196.94L381.2 202.53L422.5 253.49L409.56 266.97L384.2 261.47L360.63 242.97L351.22 217.15L340.58 253.49L309.38 264.84L270.73 264.84L248.21 246.05L248.21 221.05L257.78 212.89Z" id="a25zZWw8lK"></path><path d="M243.76 223.09L244.29 246.67L237.2 256.42L212.09 264.93L210.25 233.37L222.84 224.68L235.43 222.55L243.76 223.09Z" id="aXOCqc6uE"></path><path d="M436.61 226.21L455.94 238.8L455.94 264.33L453.1 266.28L437.32 259.01L431.29 252.98L431.72 228.69L436.61 226.21Z" id="a1K1UR6JZj"></path><path d="M257.59 213.39L255.28 228.46L260.07 238.74L282.94 249.38L322.48 249.38L341.99 235.73L345.89 221.72L339.86 210.02L319.65 195.3L302.45 191.93L269.82 201.33L257.59 213.39Z" id="b6yFFjQhX"></path><path d="M301.56 203.46L322.66 204.88L338.08 220.66L335.78 231.12L326.38 229.39L292.69 237.86L288.44 245.48L268.05 237.86L265.39 221.9L278.51 209.84L301.56 203.46Z" id="f1zC9qGD9S"></path><path d="M379.89 199.82L369.96 209.22L368.72 220.66L373.86 236.7L399.22 253.02L422.5 253.55L431.48 245.66L431.72 228.61L421.21 210.29L404.89 197.16L396.03 196.63L379.89 199.82Z" id="eNtl1KBtE"></path><path d="M409.15 228.55L394.79 211.7L380.25 208.69L373.86 215.78L376.17 226.77L382.73 234.4L409.15 235.99L409.15 228.55Z" id="b1c6rtRe2Q"></path><path d="M384.26 237.14L406.41 249.38L409.98 249.38L409.15 235.99L382.47 234.23L384.26 237.14Z" id="a2eMoyp2k2"></path><path d="M290.07 246.37L317.37 244.3L333.92 235.99L335.35 230.76L326.76 229.31L292.09 237.59L287.39 245.48L290.07 246.37Z" id="c4uCucuOLU"></path><path d="M405.29 203.13L418.33 211.03L427.76 235.3L421.8 247.65L409.98 249.04L408.48 228.16L394.06 211.59L379.49 208.69L381.99 206.32L405.29 203.13Z" id="c3SRyqcXIu"></path><path d="M224.92 245.81L213.44 241.57L231.49 234.48L233.16 232.87L236.12 233.1L238.32 235.38L238 238.13L235.41 241.57L232.18 241.31L231.49 239.24L224.92 245.81Z" id="h2wj9WiEOr"></path><path d="M442.93 248L452.87 246.73L441.36 238.09L439.02 236.1L436.05 236.33L433.86 238.61L434.17 241.36L435.48 244.09L439.67 244.09L440.68 242.47L442.93 248Z" id="a8TFPjxoB5"></path><path d="M441.53 240.21C441.53 242.48 439.75 244.32 437.56 244.32C435.37 244.32 433.59 242.48 433.59 240.21C433.59 237.94 435.37 236.1 437.56 236.1C439.75 236.1 441.53 237.94 441.53 240.21Z" id="bLj6c0psY"></path><path d="M443.36 249.04C442.62 246.76 441.53 244.96 440.08 243.61" id="eukLbY7iS"></path><path d="M447.37 248.28C445.97 244.7 443.98 242.32 441.39 241.13" id="b8NmcvKyt"></path><path d="M452.65 246.69C446.7 240.74 441.98 237.18 438.49 235.99" id="b16Iy2YwJd"></path><path d="M238.69 237.09C238.69 239.77 236.96 241.71 234.83 241.71C232.7 241.71 231.26 239.4 231.26 236.71C231.26 234.03 232.7 232.27 234.83 232.27C236.96 232.27 238.69 234.41 238.69 237.09Z" id="a1m4TuSSox"></path><path d="M212.7 242.27C218.75 238.26 225.24 235.42 232.19 233.77" id="i2DNwSZOvH"></path><path d="M218.27 244.19C221.82 240.27 226.15 237.87 231.26 236.99" id="d4UqRtAGnj"></path><path d="M224.76 245.55C228.31 240.47 230.48 238.07 231.26 238.35" id="i2HlwspiJH"></path><path d="M342.94 244.32C335.86 253.55 327.17 260.87 316.88 266.28C292.94 276.05 271.13 273.39 256.81 264.93C252.83 262.38 244.45 254.86 243.87 248C243.28 241.14 243.32 225.7 244.85 221.96C246.37 218.22 260.89 188.13 306.16 188.69C351.43 189.24 344.64 187.63 366.97 188.69C381.86 189.4 391.61 192.04 396.23 196.63" id="g5Wddwk4D"></path><path d="M431.72 247.37C434.14 255.1 443.56 258.78 453.1 261.46C453.22 256.38 455.59 249.18 453.57 241.13C450.44 239.37 440.14 229.86 434.68 230.76C431.62 231.28 432.17 235.79 431.72 244.71C422.95 258.62 418.49 276.06 391.51 269.41C355.65 244.83 359.3 237.85 351.54 215.99" id="c2lPcf7Vp0"></path><path d="M265.39 221.35C275.7 203.84 296.88 194.73 322.15 202.31C334.15 205.92 338.52 213.91 341.41 220.66C341.61 228.75 336.94 237.48 333.92 241.34" id="b8G3zoAQU"></path><path d="M346.73 232.87C322.15 258.92 309.48 260.42 287.39 255.73C265.3 251.04 257.87 245.89 259.12 224.47C259.95 210.19 273.07 201.91 298.49 199.62" id="a2MBPKbbGs"></path><path d="M421.96 247.23C410.5 259.81 395.16 259.81 375.94 247.23C360.96 237.59 361.33 212.91 362.07 208.69C364.91 199.84 376 195.82 395.35 196.63" id="i1fAXBtdJ0"></path><path d="M411.8 249.04C419.71 242.02 421.38 232.56 416.79 220.66C412.2 208.76 400.12 204.77 380.56 208.69" id="d4ouWXvuv"></path></defs><g><g><g><use xlink:href="#c3zaMrW7Em" opacity="1" fill="#9b7647" fill-opacity="1"></use></g><g><use xlink:href="#b1zj1Sck25" opacity="1" fill="#302c31" fill-opacity="1"></use></g><g><use xlink:href="#aAFNE9YCL" opacity="1" fill="#835541" fill-opacity="1"></use></g><g><use xlink:href="#c754XrSnRZ" opacity="1" fill="#835541" fill-opacity="1"></use></g><g><use xlink:href="#a1BuSZTHJ8" opacity="1" fill="#9b7647" fill-opacity="1"></use></g><g><use xlink:href="#aQi0JRY9G" opacity="1" fill="#8a54a9" fill-opacity="1"></use></g><g><use xlink:href="#ar5PQqtav" opacity="1" fill="#43714c" fill-opacity="1"></use></g><g><use xlink:href="#bn4QKnArq" opacity="1" fill="#211f24" fill-opacity="1"></use></g><g><use xlink:href="#a2qq0W2I73" opacity="1" fill="#23262d" fill-opacity="1"></use></g><g><use xlink:href="#a25zZWw8lK" opacity="1" fill="#63636f" fill-opacity="1"></use></g><g><use xlink:href="#aXOCqc6uE" opacity="1" fill="#63636f" fill-opacity="1"></use></g><g><use xlink:href="#a1K1UR6JZj" opacity="1" fill="#63636f" fill-opacity="1"></use></g><g><use xlink:href="#b6yFFjQhX" opacity="1" fill="#97949f" fill-opacity="1"></use></g><g><use xlink:href="#f1zC9qGD9S" opacity="1" fill="#d1f2ad" fill-opacity="1"></use></g><g><use xlink:href="#eNtl1KBtE" opacity="1" fill="#97949f" fill-opacity="1"></use></g><g><use xlink:href="#b1c6rtRe2Q" opacity="1" fill="#d1f2ad" fill-opacity="1"></use></g><g><use xlink:href="#a2eMoyp2k2" opacity="1" fill="#211f24" fill-opacity="1"></use></g><g><use xlink:href="#c4uCucuOLU" opacity="1" fill="#211f24" fill-opacity="1"></use></g><g><use xlink:href="#c3SRyqcXIu" opacity="1" fill="#63636f" fill-opacity="1"></use></g><g><use xlink:href="#h2wj9WiEOr" opacity="1" fill="#c49e45" fill-opacity="1"></use></g><g><use xlink:href="#a8TFPjxoB5" opacity="1" fill="#c49e45" fill-opacity="1"></use></g><g><g><use xlink:href="#bLj6c0psY" opacity="1" fill-opacity="0" stroke="#7f652d" stroke-width="1" stroke-opacity="1"></use></g></g><g><g><use xlink:href="#eukLbY7iS" opacity="1" fill-opacity="0" stroke="#7f652d" stroke-width="1" stroke-opacity="1"></use></g></g><g><g><use xlink:href="#b8NmcvKyt" opacity="1" fill-opacity="0" stroke="#7f652d" stroke-width="1" stroke-opacity="1"></use></g></g><g><g><use xlink:href="#b16Iy2YwJd" opacity="1" fill-opacity="0" stroke="#7f652d" stroke-width="1" stroke-opacity="1"></use></g></g><g><g><use xlink:href="#a1m4TuSSox" opacity="1" fill-opacity="0" stroke="#7f652d" stroke-width="1" stroke-opacity="1"></use></g></g><g><g><use xlink:href="#i2DNwSZOvH" opacity="1" fill-opacity="0" stroke="#7f652d" stroke-width="1" stroke-opacity="1"></use></g></g><g><g><use xlink:href="#d4UqRtAGnj" opacity="1" fill-opacity="0" stroke="#7f652d" stroke-width="1" stroke-opacity="1"></use></g></g><g><g><use xlink:href="#i2HlwspiJH" opacity="1" fill-opacity="0" stroke="#7f652d" stroke-width="1" stroke-opacity="1"></use></g></g><g><g><use xlink:href="#g5Wddwk4D" opacity="1" fill-opacity="0" stroke="#ffffff" stroke-width="1" stroke-opacity="1"></use></g></g><g><g><use xlink:href="#c2lPcf7Vp0" opacity="1" fill-opacity="0" stroke="#ffffff" stroke-width="1" stroke-opacity="1"></use></g></g><g><g><use xlink:href="#b8G3zoAQU" opacity="1" fill-opacity="0" stroke="#000000" stroke-width="1" stroke-opacity="1"></use></g></g><g><g><use xlink:href="#a2MBPKbbGs" opacity="1" fill-opacity="0" stroke="#000000" stroke-width="1" stroke-opacity="1"></use></g></g><g><g><use xlink:href="#i1fAXBtdJ0" opacity="1" fill-opacity="0" stroke="#000000" stroke-width="1" stroke-opacity="1"></use></g></g><g><g><use xlink:href="#d4ouWXvuv" opacity="1" fill-opacity="0" stroke="#000000" stroke-width="1" stroke-opacity="1"></use></g></g></g></g></svg>