<?xml version="1.0" encoding="UTF-8" standalone="no"?>
<!DOCTYPE svg PUBLIC "-//W3C//DTD SVG 1.1//EN" "http://www.w3.org/Graphics/SVG/1.1/DTD/svg11.dtd">
<svg version="1.1" xmlns="http://www.w3.org/2000/svg" xmlns:xlink="http://www.w3.org/1999/xlink" preserveAspectRatio="xMidYMid meet" viewBox="189 136.3194444444442 261.9999999999999 262.0000000000001" width="262" height="262"><defs><path d="M189 136.32L451 136.32L451 398.32L189 398.32L189 136.32Z" id="c3tgDqjszP"></path><path d="M189 136.32L225.7 136.32L225.7 398.32L189 398.32L189 136.32Z" id="cM2NQpB6n"></path><path d="M225.7 136.32L258.69 136.32L258.69 398.32L225.7 398.32L225.7 136.32Z" id="b3ga0NykNi"></path><path d="M258.69 169.78L291.35 162.41L330.78 387.63L295.67 396.49L258.69 169.78Z" id="bgkSSwcoe"></path><path d="M395.49 304.43L412.86 313.65L425.63 329.26L429.35 337.59L429.89 358.51L420.84 375.53L400.98 390.96L388.93 395.57L370.67 393.09L352.58 377.13L343.89 359.04L344.42 339.01L350.63 324.65L360.03 313.65L371.37 306.38L380.95 304.43L395.49 304.43Z" id="aZ6EMVo6r"></path><path d="M425.85 350.92L426.87 356.92L421.02 369.68L413.39 377.49L408.25 375.71L386.09 382.98L378.47 379.26L381.13 374.47L372.62 377.13L365.17 371.28L360.38 373.41L355.95 368.44L354.35 356.92L358.61 353.37L353.82 347.87L354.35 340.25L358.61 338.3L359.32 328.01L368.18 320.92L379 323.76L379.89 317.2L381.66 316.67L385.56 320.92L390.52 316.67L397.08 321.63L404.71 321.63L408.96 318.8L416.06 325.53L425.85 350.92Z" id="d5s0AM7n3M"></path><path d="M395.67 304.43L404.53 304.43L419.6 315.07L426.16 329.79L426.16 352.66L413.57 377.31L399.97 389.1L383.25 394.5L371.02 392.91L365.17 386.54L377.82 390.12L383.46 388.84L395.67 384.93L404 377.31L415.52 357.45L418.89 337.23L415.52 320L406.79 311.02L396.22 309.6L391.8 306.45L395.67 304.43Z" id="a3bKuAwZ5A"></path><path d="M404.35 309.04L393.23 305.71L380.77 310.99L371.45 321.77L375.1 322.8L394.78 311.53L406.84 310.99L404.35 309.04Z" id="a3zL1ikjRH"></path><path d="M360.53 373.2L356.13 368.26L357.19 375.18L365.17 386.53L371.73 388.83L377.76 390.78L383.61 388.83L371.73 385.82L366.06 378.72L363.93 371.99L360.53 373.2Z" id="c1gnNQz10l"></path></defs><g><g><g><use xlink:href="#c3tgDqjszP" opacity="1" fill="#9b7647" fill-opacity="1"></use></g><g><use xlink:href="#cM2NQpB6n" opacity="1" fill="#65a177" fill-opacity="1"></use></g><g><use xlink:href="#b3ga0NykNi" opacity="1" fill="#37343d" fill-opacity="1"></use></g><g><use xlink:href="#bgkSSwcoe" opacity="1" fill="#424765" fill-opacity="1"></use></g><g><use xlink:href="#aZ6EMVo6r" opacity="1" fill="#d4d4d4" fill-opacity="1"></use></g><g><use xlink:href="#d5s0AM7n3M" opacity="1" fill="#bc0d34" fill-opacity="1"></use></g><g><use xlink:href="#a3bKuAwZ5A" opacity="1" fill="#c07535" fill-opacity="1"></use></g><g><use xlink:href="#a3zL1ikjRH" opacity="1" fill="#cfa784" fill-opacity="1"></use></g><g><use xlink:href="#c1gnNQz10l" opacity="1" fill="#cfa784" fill-opacity="1"></use></g></g></g></svg>