<?xml version="1.0" encoding="UTF-8" standalone="no"?>
<!DOCTYPE svg PUBLIC "-//W3C//DTD SVG 1.1//EN" "http://www.w3.org/Graphics/SVG/1.1/DTD/svg11.dtd">
<svg version="1.1" xmlns="http://www.w3.org/2000/svg" xmlns:xlink="http://www.w3.org/1999/xlink" preserveAspectRatio="xMidYMid meet" viewBox="202.9861111111112 162.0138888888887 261.9999999999999 262" width="262" height="262"><defs><path d="M202.99 162.01L464.99 162.01L464.99 424.01L202.99 424.01L202.99 162.01Z" id="d1j20fhW2C"></path><path d="M231.54 397.44L372.78 410.25L386.72 423.62L216.23 423.62L202.99 410.82L202.99 358.2L216.23 344.83L288.73 345.39L296.08 358.2L231.54 397.44Z" id="l38Bj69f8"></path><path d="M308.56 380.12L320 359.78L324.76 390.48L342.08 380.87L349.62 407.24L359.6 397.82L372.78 410.25L216.28 410.25L216.28 358.27L296.32 358.27L308.56 380.12Z" id="ecB3uE9rG"></path><path d="M386.32 363.81L386.32 378.88L366.17 359.86L366.17 344.83L386.32 363.81Z" id="bqYHD39TR"></path><path d="M397.24 400.72L386.32 410.25L386.32 384.26L397.24 400.72Z" id="eYQqaquai"></path><path d="M438.11 397.26L411.93 370.97L406.85 381.51L438.11 397.26Z" id="bL9FFIhoi"></path><path d="M424.93 423.62L412.12 423.62L405.53 413.9L424.93 423.62Z" id="eDgedwmJI"></path><path d="M438.11 357.78L451.67 370.97L438.11 370.97L424.93 358.27L438.11 357.78Z" id="egMTnfXNB"></path><path d="M451.29 423.62L451.29 410.25L438.11 423.62L451.29 423.62Z" id="atV2k6dZ"></path></defs><g><g><g><use xlink:href="#d1j20fhW2C" opacity="1" fill="#9b7647" fill-opacity="1"></use></g><g><use xlink:href="#l38Bj69f8" opacity="1" fill="#3b70a1" fill-opacity="1"></use></g><g><use xlink:href="#ecB3uE9rG" opacity="1" fill="#f5dfb5" fill-opacity="1"></use></g><g><use xlink:href="#bqYHD39TR" opacity="1" fill="#3b70a1" fill-opacity="1"></use></g><g><use xlink:href="#eYQqaquai" opacity="1" fill="#f5dfb5" fill-opacity="1"></use></g><g><use xlink:href="#bL9FFIhoi" opacity="1" fill="#f5dfb5" fill-opacity="1"></use></g><g><use xlink:href="#eDgedwmJI" opacity="1" fill="#3b70a1" fill-opacity="1"></use></g><g><use xlink:href="#egMTnfXNB" opacity="1" fill="#f5dfb5" fill-opacity="1"></use></g><g><use xlink:href="#atV2k6dZ" opacity="1" fill="#f5dfb5" fill-opacity="1"></use></g></g></g></svg>