<?xml version="1.0" encoding="UTF-8" standalone="no"?>
<!DOCTYPE svg PUBLIC "-//W3C//DTD SVG 1.1//EN" "http://www.w3.org/Graphics/SVG/1.1/DTD/svg11.dtd">
<svg version="1.1" xmlns="http://www.w3.org/2000/svg" xmlns:xlink="http://www.w3.org/1999/xlink" preserveAspectRatio="xMidYMid meet" viewBox="189.0000000000001 150.47277777777776 261.9999999999999 262" width="262" height="262"><defs><path d="M189 150.47L451 150.47L451 412.47L189 412.47L189 150.47Z" id="b35MpQiqb1"></path><path d="M189 194.19L211.14 194.19L212.12 390.04L189 390.04L189 194.19Z" id="bleDcsXV1"></path><path d="M212.12 390.04L211.66 412.47L189 412.47L189 390.04L212.12 390.04Z" id="g26Wi7hYK"></path><path d="M211.55 172.46L210.97 194.19L189 194.19L189 172.09L211.55 172.46Z" id="b3LUdvsKB"></path><path d="M254.57 398.9L272.58 394.06L271.42 398.45L294.89 400.78L297.4 396.66L292.02 383.13L284.14 378.83L276.08 381.25L267.56 372.2L240.86 366.45L226.43 369.87L212.12 385.28L212.12 390.04L254.57 398.9Z" id="b7tDQOsWU8"></path><path d="M213.09 404.27C213.67 405.78 214.15 406.43 214.52 406.24C215.08 405.95 220.91 403.28 221.42 402.03C221.77 401.19 222.19 398.06 222.68 392.62" id="ahZ6Pbq5j"></path><path d="M236.57 408.12C238.3 407.59 239.38 407.27 239.81 407.13C240.34 406.97 240.71 406.5 240.75 405.95C240.82 404.69 241.01 401.53 241.32 396.47" id="gdVrmraOt"></path><path d="M268.29 405.7C263.45 410.3 260.61 407.58 259.78 397.55" id="d1oVcEejuq"></path><path d="M277.43 367.44C278.03 370.73 268.42 371.92 269.09 365.92C269.32 363.59 275.39 357.34 281.55 363.5C286.61 369.69 286.37 376.8 280.83 384.82" id="aqiNT2RUQ"></path><path d="M290.69 366.27C291.7 372.5 297.43 369.21 297.59 364.3C297.75 361.19 291.36 356.46 288.09 362.06C285.91 365.8 284.95 372.82 285.22 383.12" id="bixKexqq"></path><path d="M289.35 380.88C292.15 379.98 294.42 384.37 294.18 385.72C293.83 387.78 291.41 389.64 287.91 389.12C288.18 391.3 284.84 394.64 282.71 394.41C280.59 394.19 278.26 389.77 279.4 388.23C280.54 386.68 285.52 389.08 287.28 388.23C288.96 386.3 288.61 381.42 289.35 380.88Z" id="aOP7rbl4W"></path><path d="M402.86 306.52L431.23 313.54L420.49 348.79L413.32 389.76L386.53 366.98L385.67 352.65L388.82 337.18L402.86 306.52Z" id="ca5pQAeria"></path><path d="M436.67 309.39L432.81 316.12L401.72 308.38L404.44 302.65L432.81 308.38L436.67 309.39Z" id="a4SsQPBjx"></path><path d="M412.18 351.94L413.32 389.76L423.21 386.18L424.35 356.38L441.83 314.26L436.67 308.67L433.24 308.24L412.18 351.94Z" id="aQaKVR5Vc"></path><path d="M343.69 337.75L380.23 340.05L401.72 332.31L361.51 331.02L343.69 337.75Z" id="aTDlqmdlN"></path><path d="M258.87 315.29L233.28 289.77L228.3 273.4L226.53 248.84L240.34 215.77L270.84 182.39L239.86 203.09L216.9 241.51L212.57 269.1L230.07 314.04L258.87 344.54L330.07 344.54L363.02 331.02L305.71 329.36L258.87 315.29Z" id="hjhcWGcr8"></path><path d="M338.77 250.8L351.29 257.54L362.36 249.99L381.62 258.18L363.02 272.47L344.22 272.95L324.32 263L338.77 250.8Z" id="a1DUSp38XO"></path><path d="M293.66 217.73L307.47 232.34L333.63 228.81L337.8 225.92L339.25 220.62L354.5 220.14L355.78 226.72L358.99 228.81L390.29 233.14L404.25 220.14L413.56 199.75L380.5 202.64L346.79 214.68L340.85 211.31L316.45 201.36L282.75 196.06L293.66 217.73Z" id="dxGONj56f"></path><path d="M303.77 222.71L316.13 227.2L330.74 226.72L335.23 221.26L335.55 214.6L324.64 207.94L296.55 203.77L293.02 206.49L303.77 222.71Z" id="aENLV5iO"></path><path d="M367.82 210.19L402.65 206.65L403.61 209.22L394.3 223.67L381.62 228.65L363.02 227.2L357.38 220.78L357.87 215.48L367.82 210.19Z" id="b2eF3I1qSD"></path></defs><g><g><g><use xlink:href="#b35MpQiqb1" opacity="1" fill="#9b7647" fill-opacity="1"></use></g><g><use xlink:href="#bleDcsXV1" opacity="1" fill="#3a7097" fill-opacity="1"></use></g><g><use xlink:href="#g26Wi7hYK" opacity="1" fill="#d88baf" fill-opacity="1"></use></g><g><use xlink:href="#b3LUdvsKB" opacity="1" fill="#d88baf" fill-opacity="1"></use></g><g><use xlink:href="#b7tDQOsWU8" opacity="1" fill="#487d81" fill-opacity="1"></use></g><g><g><use xlink:href="#ahZ6Pbq5j" opacity="1" fill-opacity="0" stroke="#1b1b19" stroke-width="1" stroke-opacity="1"></use></g></g><g><g><use xlink:href="#gdVrmraOt" opacity="1" fill-opacity="0" stroke="#1b1b19" stroke-width="1" stroke-opacity="1"></use></g></g><g><g><use xlink:href="#d1oVcEejuq" opacity="1" fill-opacity="0" stroke="#1b1b19" stroke-width="1" stroke-opacity="1"></use></g></g><g><g><use xlink:href="#aqiNT2RUQ" opacity="1" fill-opacity="0" stroke="#1b1b19" stroke-width="1" stroke-opacity="1"></use></g></g><g><g><use xlink:href="#bixKexqq" opacity="1" fill-opacity="0" stroke="#1b1b19" stroke-width="1" stroke-opacity="1"></use></g></g><g><g><use xlink:href="#aOP7rbl4W" opacity="1" fill-opacity="0" stroke="#a42329" stroke-width="1" stroke-opacity="1"></use></g></g><g><use xlink:href="#ca5pQAeria" opacity="1" fill="#fde792" fill-opacity="1"></use></g><g><use xlink:href="#a4SsQPBjx" opacity="1" fill="#565d65" fill-opacity="1"></use></g><g><use xlink:href="#aQaKVR5Vc" opacity="1" fill="#aca172" fill-opacity="1"></use></g><g><use xlink:href="#aTDlqmdlN" opacity="1" fill="#efb36d" fill-opacity="1"></use></g><g><use xlink:href="#hjhcWGcr8" opacity="1" fill="#a1ec31" fill-opacity="1"></use></g><g><use xlink:href="#a1DUSp38XO" opacity="1" fill="#c75566" fill-opacity="1"></use></g><g><use xlink:href="#dxGONj56f" opacity="1" fill="#cc596c" fill-opacity="1"></use></g><g><use xlink:href="#aENLV5iO" opacity="1" fill="#a7c5e9" fill-opacity="1"></use></g><g><use xlink:href="#b2eF3I1qSD" opacity="1" fill="#a7c5e9" fill-opacity="1"></use></g></g></g></svg>