<?xml version="1.0" encoding="UTF-8" standalone="no"?>
<!DOCTYPE svg PUBLIC "-//W3C//DTD SVG 1.1//EN" "http://www.w3.org/Graphics/SVG/1.1/DTD/svg11.dtd">
<svg version="1.1" xmlns="http://www.w3.org/2000/svg" xmlns:xlink="http://www.w3.org/1999/xlink" preserveAspectRatio="xMidYMid meet" viewBox="191.87500000000034 178.68055555555543 261.9999999999999 262" width="262" height="262"><defs><path d="M191.88 178.68L453.88 178.68L453.88 440.68L191.88 440.68L191.88 178.68Z" id="a4bs2FU7q9"></path><path d="M220.21 390.45L453.88 390.45L453.88 440.68L220.21 440.68L220.21 390.45Z" id="b1ItLD3L4g"></path><path d="M275.04 440.68L270.21 390.45L243.15 390.45L237.36 440.68L275.04 440.68Z" id="e9faYkQav"></path><path d="M330.59 238.5L377.45 214.34L401.13 212.41L433.73 230.04L395.33 228.59L377.45 236.81L371.9 257.82L431.08 390.45L390.26 409.78L317.07 413.16L276.49 389.73L330.59 238.5Z" id="arJViz2ja"></path><path d="M311.24 381.21L315.45 384.81L321.71 380.46L326.87 385.83L322.59 389.84L328.44 399.9L315.18 406.91L304.64 394.87L309.06 389.84L306.07 386.31L311.24 381.21Z" id="ekrBa2whf"></path><path d="M314.23 389.64L314.23 396.1L317.63 396.1L317.22 389.84L320.55 390.12L321.43 401.06L317.83 402.83L317.63 398.41L313.68 398.41L313.48 401.54L310.63 398.41L311.37 389.84L314.23 389.64Z" id="a25rLevvVB"></path></defs><g><g><g><use xlink:href="#a4bs2FU7q9" opacity="1" fill="#9b7647" fill-opacity="1"></use></g><g><use xlink:href="#b1ItLD3L4g" opacity="1" fill="#bfaa8f" fill-opacity="1"></use></g><g><use xlink:href="#e9faYkQav" opacity="1" fill="#339967" fill-opacity="1"></use></g><g><use xlink:href="#arJViz2ja" opacity="1" fill="#000000" fill-opacity="1"></use></g><g><use xlink:href="#ekrBa2whf" opacity="1" fill="#d8c01b" fill-opacity="1"></use></g><g><use xlink:href="#a25rLevvVB" opacity="1" fill="#000000" fill-opacity="1"></use></g></g></g></svg>