<?xml version="1.0" encoding="UTF-8" standalone="no"?>
<!DOCTYPE svg PUBLIC "-//W3C//DTD SVG 1.1//EN" "http://www.w3.org/Graphics/SVG/1.1/DTD/svg11.dtd">
<svg version="1.1" xmlns="http://www.w3.org/2000/svg" xmlns:xlink="http://www.w3.org/1999/xlink" preserveAspectRatio="xMidYMid meet" viewBox="183.1307814992025 175.8401355661881 262.00000000000006 262.16706798139035" width="262" height="262.17"><defs><path d="M183.13 175.84L445.13 175.84L445.13 437.84L183.13 437.84L183.13 175.84Z" id="b5LPPLNwf"></path><path d="M368.33 185.5L445.13 185.5L445.13 437.84L368.33 437.84L368.33 185.5Z" id="b1KEv58MI0"></path><path d="M338 197.5L368.33 197.5L368.33 437.84L338 437.84L338 197.5Z" id="gTZb4kpzD"></path><path d="M309.06 250.9L338 255.99L314.67 438.01L284.56 437.84L309.06 250.9Z" id="e1vejvw4PZ"></path><path d="M196.05 368.94L196.86 357.66L194.19 345.89L191.67 346.11L198.24 291.88L204.87 292.25L204.87 285.6L216.07 280.39L253.96 280.63L262.89 287.37L263.54 294.59L268.33 295.32L278.34 348.37L273.55 347.64L269.58 360.05L270.42 371.41L258.11 382.19L256.58 426.86L247.34 437.49L209.25 437.49L201.64 428.77L202.65 376.48L196.05 368.94Z" id="aeGyDimxo"></path><path d="M258.23 303.57L262.21 303.57L258.76 346.55L264.53 347.28L264.53 359.54L257.38 358.89L258.23 303.57Z" id="b1YnTu4Nyh"></path><path d="M204.61 303.8L209.32 303.8L208.28 358.68L203.73 358.36L204.14 345.13L207.63 345.13L204.61 303.8Z" id="b2a8QB9lQM"></path><path d="M251.23 280.64L251.01 255.65L215.28 256.48L215.92 280.39L251.23 280.64Z" id="e1e1JgpV9Y"></path><path d="M248.1 255.72L248.02 249.94L217.28 250.91L217.28 256.52L248.1 255.72Z" id="n1DWr25VUs"></path><path d="M245.45 250.06L245.45 247.94L218.57 248.74L218.64 250.9L245.45 250.06Z" id="czIjr6NqC"></path><path d="M244.01 247.94L248.34 243.21L253.59 219.72L246.5 204.39L239.99 200.62L224.83 201.26L219.05 205.02L212.15 217.37L213.03 241.3L220.25 248.71L244.01 247.94Z" id="gNevhIxHR"></path><path d="M242.99 231.27L242.21 237.34L221.68 236.13L220.85 230.74L242.99 231.27Z" id="a237YsXl4f"></path><path d="M242.21 237.34L242.36 239.62L221.87 239.09L221.68 236.13L242.21 237.34Z" id="a1ZhyFFWIh"></path><path d="M242.36 239.62L242.02 243.31L222.26 243.31L221.87 239.04L242.36 239.62Z" id="aVGZ5Xlj8"></path><path d="M223.97 213.53L221.8 216.67L221.98 220.34L225.92 220.34L225.92 215.56L223.97 213.53Z" id="a2KAmvGuOV"></path><path d="M241.74 213.31L243.42 215.92L243.2 219.72L238.91 219.72L238.78 215.65L241.74 213.31Z" id="b46rGHjCTb"></path><path d="M216.24 219.96C219.83 221.13 222.61 221.64 224.57 221.48C227.11 220.75 227.07 221.04 228.02 219C228.48 216.54 228.53 215.39 228.36 213.31C221.92 208.61 215.26 209.95 214.38 215.9" id="a2GNDXlaf1"></path><path d="M251.3 219.2C249.25 223.59 239.76 221.65 235.66 218.31C235.7 216.2 234.72 215.56 237.66 213.53C240.6 211.5 244.38 205.23 247.44 210.18" id="b2umNIt2IS"></path><path d="M237.52 213.53L228.29 213.31" id="g1DHBUuu94"></path><path d="M232.87 201.78L232.29 213.42" id="b2BtJyayEP"></path><path d="M230.78 223.52C231.07 223.53 231.31 223.29 231.29 223C231.23 221.95 231.07 219.25 231 218.17C231 218.07 230.86 218.05 230.82 218.14C230.4 219.2 229.43 221.61 229.04 222.58C228.88 222.99 229.17 223.44 229.61 223.46C229.95 223.48 230.37 223.5 230.78 223.52Z" id="b1ZpeTq9u0"></path><path d="M236.44 224.3C235.48 224.38 234.54 223.94 233.99 223.14C233.75 222.79 233.91 223.02 233.66 222.66C233.09 221.83 232.82 220.81 232.9 219.8C232.93 219.39 232.95 219.14 233 218.58C233.02 218.29 233.38 218.18 233.57 218.41C234.48 219.56 236.8 222.46 237.73 223.64C237.91 223.85 237.77 224.18 237.49 224.2C236.97 224.25 236.78 224.27 236.44 224.3Z" id="aM5tvWVoX"></path><path d="M242.36 230.74C241.78 227.85 240.27 225.53 237.81 223.76" id="a2oTxHi11X"></path><path d="M250.21 224C248.49 227.36 245.68 228.76 241.78 228.22" id="eSl1skwzZ"></path><path d="M221.25 230.24C220.23 227.07 224.7 225.94 229 222.72" id="b54Qo0BvqU"></path><path d="M213.63 221.75C216.67 224.91 219.35 226.81 221.68 227.46" id="a7mFu0fZZi"></path><path d="M223.44 236.56C223.51 233.01 222.57 231.07 220.62 230.74" id="b5jVzlBIJP"></path><path d="M227.84 236.85C228.26 233.06 227.4 231.14 225.27 231.1C223.68 231.04 222.82 231.5 222.69 232.47" id="e1gprKYvcR"></path><path d="M232.25 237.14C233.06 233.27 232.25 231.21 229.83 230.98C229.21 230.99 228.71 231.12 228.34 231.35C227.96 231.59 227.72 231.93 227.59 232.39" id="a85Pm5EP0"></path><path d="M236.24 237.34C235.98 235.87 237.52 231.74 236.43 231.33C235.34 230.91 232.95 230.67 232.25 232.8" id="fBqYtOQEW"></path><path d="M241.39 237.87C241.64 236.16 241.59 234.68 241.25 233.43C240.9 232.19 240.27 231.52 239.34 231.43C238.09 231.51 237.39 232.01 237.22 232.93C237.06 233.85 237.54 235.39 238.68 237.54" id="d1auq4P8fr"></path><path d="M242.36 231.43L241.24 233.55" id="a21Cs60GGm"></path><path d="M226.93 243.98L227.05 239.16" id="a6bcGRCqn"></path><path d="M223.81 243.8L223.81 238.77" id="bvnkWxvOF"></path><path d="M229.71 243.98L229.71 239.16" id="dt7LxOnzK"></path><path d="M232.69 243.98L232.69 239.16" id="a28doEN3w1"></path><path d="M235.98 243.98L235.98 239.16" id="aa51lGbB"></path><path d="M238.84 243.98L238.84 238.95" id="a4pkdJ3h7f"></path><path d="M240.79 243.76L241 238.95" id="coEa4P5LB"></path><path d="M248.47 242.02C244.98 244.62 228.1 243.72 214.89 243.31" id="d2zBtkebkm"></path><path d="M250.47 280.09C243.96 286.38 217.7 283.87 216.15 280.09" id="bG6IzvKqy"></path><path d="M211.43 289.15C208.74 285.95 212.5 283.89 218.15 284.64C225.48 285.38 227.32 290.59 227.07 293.56C221.51 291.93 213.66 291.38 211.43 289.15Z" id="a2tHQtx5vB"></path><path d="M223.28 286.45C223.86 286.48 224.56 285.49 225.38 283.46" id="gJ7TUOfXr"></path><path d="M242.99 286.6C246.7 284.38 250.96 283.89 253.91 285.07C261.04 288.71 257.93 290.97 253.91 291.86C249.03 293.01 242.01 293.45 239.06 293.95C239.94 291.54 239.28 288.82 242.99 286.6Z" id="c5f6nRVBSI"></path><path d="M243.09 286.45C242.48 286.34 242.24 285.25 242.38 283.19" id="c1jxScB1lH"></path><path d="M238.79 293.8C238.77 295.03 238.95 294.36 238.64 297.47C236.23 295.7 232.45 295.57 227.31 297.06L227.09 293.56C232.32 293.1 236.22 293.18 238.79 293.8Z" id="a6eyON1Hz"></path><path d="M204.35 288.64C206.23 288.23 208.68 288.45 211.7 289.3" id="a9Xao0tJR9"></path><path d="M226.93 300.01C228.06 299.45 227.08 298.19 227.09 297.47C224.14 296.34 215.93 292.79 204.35 292.34C196.41 291.42 196.46 295.24 204.51 303.8C215.68 301.75 223.15 300.49 226.93 300.01Z" id="j46Y6Tv5m0"></path><path d="M262.17 291.82C261.12 290.63 258.51 290.56 254.37 291.62" id="iF0YtCH3b"></path><path d="M238.55 300.85C237.71 298.32 238.4 299.22 238.82 297.23C244.86 296.47 250.13 296.52 261.66 294.53C271.25 293.2 266.93 298.97 262.38 303.1C254.86 303.61 244.44 302.32 238.55 300.85Z" id="c23NY134e1"></path><path d="M240.61 306.52C238.7 306.66 227.23 307.11 225.57 306.52C224.31 298.62 230.25 299.83 231.77 299.7C235.53 299.7 242.03 299.43 240.61 306.52Z" id="aab4Y5ZMJ"></path><path d="M238.82 306.84C237.95 307.26 238.02 308.09 239.04 309.31C229.52 309.99 225.28 310.04 226.33 309.48C227.37 308.91 227.46 307.97 226.58 306.65C235.62 306.35 239.7 306.42 238.82 306.84Z" id="i21LrE4o7l"></path><path d="M225.4 306.46C217.72 307.52 212.25 306.56 209 303.57" id="a2w8Q1hxDO"></path><path d="M240.31 306.46C251.5 307.68 257.53 307.53 258.41 306.01" id="cRxmt7I8P"></path><path d="M225.25 313.98C217.81 313.37 215.34 314.94 212.1 314.34C208.85 313.75 208.82 312.78 212.28 311.6C215.73 310.43 221.41 311.48 225.91 309.64C225.7 311.19 226.03 311.26 225.25 313.98Z" id="apuOCkj6s"></path><path d="M239.94 314.48C243.88 314.58 251.32 314.91 255.17 313.85C259.03 312.78 259.06 310.73 255.59 310.57C251.47 310.83 243.79 309.64 239.64 309.64C241.32 312.19 240.16 312.53 239.94 314.48Z" id="a1C5XBrdpP"></path><path d="M240.31 319.28C236.52 318.93 228.14 318.63 225.4 318.68C225.37 318.24 226.31 316.2 228.38 315.45C231.98 314.14 237.62 314.44 240.04 314.48C240.27 315.61 236.72 317.36 240.31 319.28Z" id="d5fuVyRW3"></path><path d="M227.09 316.24L224.86 313.74" id="b59VgGiKT"></path><path d="M211.78 318.44C209.31 319.09 209.28 322.03 211.29 322.64C213.3 323.26 221.73 324.1 225.26 323.14C224.64 321.62 224.38 320.36 225.4 318.81C222.03 318.81 214.26 317.79 211.78 318.44Z" id="g9lGh8CXa"></path><path d="M255.17 318.69C259.4 319.07 257.24 322.35 256.16 322.7C252.11 323.62 244.75 325.01 240.71 324.06C240.8 323.37 241.79 321.02 239.97 318.93C243.58 317.59 249.2 318.61 255.17 318.69Z" id="dbuz5dD6h"></path><path d="M240.58 323.88C240.6 324.58 240.68 325.69 240.83 327.22L225.4 325.92C225.05 325.02 225.05 324.05 225.4 323.01C229.19 322.5 236.72 322.83 240.58 323.88Z" id="a1gJOQsGqX"></path><path d="M240.83 326.97C244.86 329.04 241.4 331.56 240.52 331.79C235.38 328.81 225.39 330.15 224.7 330.86C223.76 329.41 222.78 327.08 225.4 325.98C230.79 326.43 237.67 327.19 240.83 326.97Z" id="b1IXYyIXZN"></path><path d="M224.27 330.37C217.57 331.01 213.16 331.01 211.04 330.37C207.86 329.41 209.26 326.77 211.53 326.78C213.05 326.79 217.23 326.94 224.08 327.22" id="c39dF1kmPs"></path><path d="M241.26 331.55C248.37 332.74 252.23 331.79 255.54 330.49C258.85 329.19 257.78 326.69 254.49 326.78C252.3 326.56 248.26 326.93 242.38 327.9" id="bbwKpCxZs"></path><path d="M240.58 331.79C240.52 332.08 240.82 332.6 240.31 332.96C239.81 333.33 225.52 333 224.7 332.96C224.16 332.94 224.16 332.24 224.7 330.85" id="a5tsUf95Lo"></path><path d="M225.91 336.16C222.74 336.98 214.85 337.29 211.61 336.42C208.37 335.56 209.02 331.81 212.95 332.43C215.51 333.43 219.31 335.09 224.27 333.14C224.85 334.11 224.86 335.34 225.91 336.16Z" id="g2EfyEaPG0"></path><path d="M255.2 333.14C256.86 331.6 259.57 336.11 255.92 337.2C252.27 338.28 248.08 339.98 240.61 337.47C240.61 336.46 241.87 335.77 239.54 333.14C244.57 335.59 253.21 335.5 255.2 333.14Z" id="cjDIEClsJ"></path><path d="M273.41 347C276.73 342.5 270.63 339.29 268.32 339.19C266.01 339.1 257.18 341.43 264.17 346.61" id="i23IcbfMH"></path><path d="M204.54 344.28C207.58 338.25 201.8 339.03 199.17 339.36C196.54 339.69 189.93 343 194.01 345.61" id="lw30Jm5Sa"></path><path d="M239.75 339.62C239.86 338.53 240.47 338.63 240.61 337.08C236.09 335.64 231.21 335.21 225.97 335.8L226.47 338.57C233.41 337.94 237.84 338.29 239.75 339.62Z" id="i2Izaj9UzD"></path><path d="M214.58 343.44C211.41 345.13 209.55 347.18 215.18 347.1C217.57 346.78 222.06 344.72 228.63 340.9L226.31 338.41C220.6 340.64 216.69 342.32 214.58 343.44Z" id="a64OaORirl"></path><path d="M254.74 343.24C260.49 343.95 256.44 347.35 254.35 347.73C252.26 348.1 250.54 347.26 248.82 347.39C244.25 347.45 240.78 345.46 238.41 341.42C239.16 341.15 239.68 340.47 239.97 339.37C244.6 343.15 248.98 342.54 254.74 343.24Z" id="a2n1GFgPHz"></path><path d="M238.41 341.49C238.22 342 237 343.21 236.28 343.6C234.36 342.16 232.52 342.03 230.75 343.21C229.84 342.13 229.21 341.35 228.86 340.88C233.55 339.57 236.56 340.81 238.41 341.49Z" id="d671nZzV9D"></path><path d="M230.54 343.07C227.88 345.35 225.82 348.56 223.68 350.21C217 356.94 214.42 355.58 211.34 356.07C208.25 356.57 209.93 352.2 211.34 352.2C214.74 351.76 217.12 350.39 218.53 349.43C219.26 348.88 221.83 346.46 226.26 342.17" id="c3PjUlFrDS"></path><path d="M236.3 343.48C234.89 346.73 233.89 348.08 233.29 347.52C232.69 346.97 231.77 345.53 230.54 343.21" id="f5vWKo1B8"></path><path d="M241.08 344.48C241.96 348.57 241.96 348.77 244.9 351.51C247.83 354.25 251.01 354.24 252.81 355.44C255.16 356.85 254.94 357.78 251.7 358.39C250.02 358.83 247.4 358.25 246.06 357.21C242.18 353.86 239 349.28 236.54 343.48" id="b1LCG2GBK"></path><path d="M202.6 376.26C204.57 377.45 205.94 378.16 206.71 378.37C207.87 378.68 208.01 378.54 207.21 377.51C206.42 376.48 204.25 375.33 203.54 374.25C202.84 373.17 202.78 373.07 204.39 373.2C206.01 373.32 208.63 374.68 210 374.75C211.37 374.83 211.25 374.5 210.12 373.4C209 372.29 206.33 371.74 205.11 370.74C203.89 369.74 203.08 369.84 205 369.5C206.91 369.16 210.67 369.96 212.37 369.62C214.08 369.27 213.74 369.11 211.82 368.11C209.9 367.11 206.25 366.67 204.54 365.9C202.84 365.14 202.55 365.3 204.54 364.9C206.54 364.5 210.73 365.69 212.37 365.05C214.01 364.41 214.25 363.87 212.72 362.94C211.19 362.01 207.64 362.67 206.1 362.04C204.56 361.41 204.42 359.97 205.4 359.98C206.38 359.99 207.83 360.41 209.11 360.43C210.39 360.46 212.06 359.51 209.32 358.68C207.48 358.13 205.56 358.08 203.54 358.54" id="acCwmH8pl"></path><path d="M260.71 380.1C259.66 380.74 259.54 380.46 260.36 379.24C261.18 378.03 263.2 375.64 266.43 372.07C263.23 375.14 261.12 376.98 260.11 377.59C258.59 378.5 258.64 378.03 259.36 376.48C259.83 375.46 261.56 373.08 264.53 369.36C260.91 372.78 258.6 374.67 257.6 375.03C256.1 375.57 256.21 375.88 257.38 373.82C258.17 372.45 259.81 370.11 262.32 366.8C259.51 370.08 257.57 372.09 256.5 372.82C254.88 373.93 254.73 373.95 255.84 371.22C256.59 369.39 258.29 366.28 260.96 361.88C260.03 362.48 258.91 362.24 257.6 361.18C255.63 359.59 256.76 359.2 259.1 359.32C260.67 359.41 262.42 359.59 264.37 359.88" id="dkQYHsbxc"></path><path d="M256.88 360.27C255.33 362.29 214.66 361.13 210.71 359.3" id="a2MoWA01O"></path><path d="M257.97 363.47C253.64 365.77 215.26 364.84 213.02 363.15" id="jKzRyzmQx"></path><path d="M203.32 393.17C206.41 396.35 205.96 391.32 206.17 389.2C206.37 387.09 203.88 388.48 203.94 384.32C204.15 381.78 205.03 381.41 206.6 383.21" id="g7Qr72o3bL"></path><path d="M208.17 395.48C207.51 393.29 207.42 388.69 207.91 381.67" id="g3S69O1d5q"></path><path d="M208 388.04L209.65 388.14C210.35 385.94 211.2 383.78 212.21 381.67" id="b1ZT0pldnZ"></path><path d="M212.21 394.9C210.53 392.62 209.6 390.36 209.4 388.14" id="c6HpOD9P6"></path><path d="M217.18 396.84L213.61 396.84L213.61 382.78L218.44 382.49" id="cNgOqrwsO"></path><path d="M216.89 389.2L213.61 389.35" id="cf4IZjbzi"></path><path d="M224.09 398L219.74 398L219.74 383.99" id="cbjBZe71F"></path><path d="M232.06 399.25L226.65 399.4L226.46 385.53L232.88 386.11" id="aouk9Ra2q"></path><path d="M231.05 392.34L226.46 392.34" id="a2hCXw0lpm"></path><path d="M234.38 390.99L232.69 390.78" id="dp4rXvY2b"></path><path d="M238.63 390.78C241.24 390.73 240.47 393.19 240.47 394.26C240.47 395.32 240.87 397.04 239.75 397.5C238.63 397.96 237.73 399.17 236.12 397.5C235.78 389.82 235.49 384.6 238.24 384.21C240.08 383.95 240.82 385.06 240.47 387.54" id="kc9LEOAR9"></path><path d="M243.17 390.99C243.24 390.33 244.03 390.22 245.54 390.63C248.63 384.93 247.78 382.72 242.98 383.99L242.35 399.18" id="b2X1Llz301"></path><path d="M248.05 398C249.26 390.24 246.94 391.47 245.54 390.78" id="d1YvhHmTke"></path><path d="M251.09 395.95C251.32 398.53 255.51 397.47 256.02 394.64C256.53 391.82 256.4 390.56 256.22 386.58C256.03 382.59 252.66 381.74 251.96 385.53C251.26 389.32 250.86 393.36 251.09 395.95Z" id="a6fL52Prr"></path></defs><g><g><g><use xlink:href="#b5LPPLNwf" opacity="1" fill="#9b7647" fill-opacity="1"></use></g><g><use xlink:href="#b1KEv58MI0" opacity="1" fill="#c89162" fill-opacity="1"></use></g><g><use xlink:href="#gTZb4kpzD" opacity="1" fill="#ccc4ac" fill-opacity="1"></use></g><g><use xlink:href="#e1vejvw4PZ" opacity="1" fill="#c2a172" fill-opacity="1"></use></g><g><use xlink:href="#aeGyDimxo" opacity="1" fill="#f9f5ed" fill-opacity="1"></use></g><g><use xlink:href="#b1YnTu4Nyh" opacity="1" fill="#9b7647" fill-opacity="1"></use></g><g><use xlink:href="#b2a8QB9lQM" opacity="1" fill="#9b7647" fill-opacity="1"></use></g><g><use xlink:href="#e1e1JgpV9Y" opacity="1" fill="#5d3a19" fill-opacity="1"></use></g><g><use xlink:href="#n1DWr25VUs" opacity="1" fill="#f9f5ed" fill-opacity="1"></use></g><g><use xlink:href="#czIjr6NqC" opacity="1" fill="#262626" fill-opacity="1"></use></g><g><use xlink:href="#gNevhIxHR" opacity="1" fill="#f9f5ed" fill-opacity="1"></use></g><g><use xlink:href="#a237YsXl4f" opacity="1" fill="#959595" fill-opacity="1"></use></g><g><use xlink:href="#a1ZhyFFWIh" opacity="1" fill="#262626" fill-opacity="1"></use></g><g><use xlink:href="#aVGZ5Xlj8" opacity="1" fill="#959595" fill-opacity="1"></use></g><g><use xlink:href="#a2KAmvGuOV" opacity="1" fill="#905544" fill-opacity="1"></use></g><g><use xlink:href="#b46rGHjCTb" opacity="1" fill="#905544" fill-opacity="1"></use></g><g><g><use xlink:href="#a2GNDXlaf1" opacity="1" fill-opacity="0" stroke="#9e927c" stroke-width="1" stroke-opacity="1"></use></g></g><g><g><use xlink:href="#b2umNIt2IS" opacity="1" fill-opacity="0" stroke="#9e927c" stroke-width="1" stroke-opacity="1"></use></g></g><g><g><use xlink:href="#g1DHBUuu94" opacity="1" fill-opacity="0" stroke="#9e927c" stroke-width="1" stroke-opacity="1"></use></g></g><g><g><use xlink:href="#b2BtJyayEP" opacity="1" fill-opacity="0" stroke="#9e927c" stroke-width="1" stroke-opacity="1"></use></g></g><g><g><use xlink:href="#b1ZpeTq9u0" opacity="1" fill-opacity="0" stroke="#9e927c" stroke-width="1" stroke-opacity="1"></use></g></g><g><g><use xlink:href="#aM5tvWVoX" opacity="1" fill-opacity="0" stroke="#9e927c" stroke-width="1" stroke-opacity="1"></use></g></g><g><g><use xlink:href="#a2oTxHi11X" opacity="1" fill-opacity="0" stroke="#9e927c" stroke-width="1" stroke-opacity="1"></use></g></g><g><g><use xlink:href="#eSl1skwzZ" opacity="1" fill-opacity="0" stroke="#9e927c" stroke-width="1" stroke-opacity="1"></use></g></g><g><g><use xlink:href="#b54Qo0BvqU" opacity="1" fill-opacity="0" stroke="#9e927c" stroke-width="1" stroke-opacity="1"></use></g></g><g><g><use xlink:href="#a7mFu0fZZi" opacity="1" fill-opacity="0" stroke="#9e927c" stroke-width="1" stroke-opacity="1"></use></g></g><g><g><use xlink:href="#b5jVzlBIJP" opacity="1" fill-opacity="0" stroke="#262626" stroke-width="1" stroke-opacity="1"></use></g></g><g><g><use xlink:href="#e1gprKYvcR" opacity="1" fill-opacity="0" stroke="#262626" stroke-width="1" stroke-opacity="1"></use></g></g><g><g><use xlink:href="#a85Pm5EP0" opacity="1" fill-opacity="0" stroke="#262626" stroke-width="1" stroke-opacity="1"></use></g></g><g><g><use xlink:href="#fBqYtOQEW" opacity="1" fill-opacity="0" stroke="#262626" stroke-width="1" stroke-opacity="1"></use></g></g><g><g><use xlink:href="#d1auq4P8fr" opacity="1" fill-opacity="0" stroke="#262626" stroke-width="1" stroke-opacity="1"></use></g></g><g><g><use xlink:href="#a21Cs60GGm" opacity="1" fill-opacity="0" stroke="#262626" stroke-width="1" stroke-opacity="1"></use></g></g><g><g><use xlink:href="#a6bcGRCqn" opacity="1" fill-opacity="0" stroke="#262626" stroke-width="1" stroke-opacity="1"></use></g></g><g><g><use xlink:href="#bvnkWxvOF" opacity="1" fill-opacity="0" stroke="#262626" stroke-width="1" stroke-opacity="1"></use></g></g><g><g><use xlink:href="#dt7LxOnzK" opacity="1" fill-opacity="0" stroke="#262626" stroke-width="1" stroke-opacity="1"></use></g></g><g><g><use xlink:href="#a28doEN3w1" opacity="1" fill-opacity="0" stroke="#262626" stroke-width="1" stroke-opacity="1"></use></g></g><g><g><use xlink:href="#aa51lGbB" opacity="1" fill-opacity="0" stroke="#262626" stroke-width="1" stroke-opacity="1"></use></g></g><g><g><use xlink:href="#a4pkdJ3h7f" opacity="1" fill-opacity="0" stroke="#262626" stroke-width="1" stroke-opacity="1"></use></g></g><g><g><use xlink:href="#coEa4P5LB" opacity="1" fill-opacity="0" stroke="#262626" stroke-width="1" stroke-opacity="1"></use></g></g><g><g><use xlink:href="#d2zBtkebkm" opacity="1" fill-opacity="0" stroke="#6b6b6b" stroke-width="1" stroke-opacity="1"></use></g></g><g><g><use xlink:href="#bG6IzvKqy" opacity="1" fill-opacity="0" stroke="#c5b9a4" stroke-width="1" stroke-opacity="1"></use></g></g><g><g><use xlink:href="#a2tHQtx5vB" opacity="1" fill-opacity="0" stroke="#c5b9a4" stroke-width="1" stroke-opacity="1"></use></g></g><g><g><use xlink:href="#gJ7TUOfXr" opacity="1" fill-opacity="0" stroke="#c5b9a4" stroke-width="1" stroke-opacity="1"></use></g></g><g><g><use xlink:href="#c5f6nRVBSI" opacity="1" fill-opacity="0" stroke="#c5b9a4" stroke-width="1" stroke-opacity="1"></use></g></g><g><g><use xlink:href="#c1jxScB1lH" opacity="1" fill-opacity="0" stroke="#c5b9a4" stroke-width="1" stroke-opacity="1"></use></g></g><g><g><use xlink:href="#a6eyON1Hz" opacity="1" fill-opacity="0" stroke="#c5b9a4" stroke-width="1" stroke-opacity="1"></use></g></g><g><g><use xlink:href="#a9Xao0tJR9" opacity="1" fill-opacity="0" stroke="#c5b9a4" stroke-width="1" stroke-opacity="1"></use></g></g><g><g><use xlink:href="#j46Y6Tv5m0" opacity="1" fill-opacity="0" stroke="#c5b9a4" stroke-width="1" stroke-opacity="1"></use></g></g><g><g><use xlink:href="#iF0YtCH3b" opacity="1" fill-opacity="0" stroke="#c5b9a4" stroke-width="1" stroke-opacity="1"></use></g></g><g><g><use xlink:href="#c23NY134e1" opacity="1" fill-opacity="0" stroke="#c5b9a4" stroke-width="1" stroke-opacity="1"></use></g></g><g><g><use xlink:href="#aab4Y5ZMJ" opacity="1" fill-opacity="0" stroke="#c5b9a4" stroke-width="1" stroke-opacity="1"></use></g></g><g><g><use xlink:href="#i21LrE4o7l" opacity="1" fill-opacity="0" stroke="#c5b9a4" stroke-width="1" stroke-opacity="1"></use></g></g><g><g><use xlink:href="#a2w8Q1hxDO" opacity="1" fill-opacity="0" stroke="#c5b9a4" stroke-width="1" stroke-opacity="1"></use></g></g><g><g><use xlink:href="#cRxmt7I8P" opacity="1" fill-opacity="0" stroke="#c5b9a4" stroke-width="1" stroke-opacity="1"></use></g></g><g><g><use xlink:href="#apuOCkj6s" opacity="1" fill-opacity="0" stroke="#c5b9a4" stroke-width="1" stroke-opacity="1"></use></g></g><g><g><use xlink:href="#a1C5XBrdpP" opacity="1" fill-opacity="0" stroke="#c5b9a4" stroke-width="1" stroke-opacity="1"></use></g></g><g><g><use xlink:href="#d5fuVyRW3" opacity="1" fill-opacity="0" stroke="#c5b9a4" stroke-width="1" stroke-opacity="1"></use></g></g><g><g><use xlink:href="#b59VgGiKT" opacity="1" fill-opacity="0" stroke="#c5b9a4" stroke-width="1" stroke-opacity="1"></use></g></g><g><g><use xlink:href="#g9lGh8CXa" opacity="1" fill-opacity="0" stroke="#c5b9a4" stroke-width="1" stroke-opacity="1"></use></g></g><g><g><use xlink:href="#dbuz5dD6h" opacity="1" fill-opacity="0" stroke="#c5b9a4" stroke-width="1" stroke-opacity="1"></use></g></g><g><g><use xlink:href="#a1gJOQsGqX" opacity="1" fill-opacity="0" stroke="#c5b9a4" stroke-width="1" stroke-opacity="1"></use></g></g><g><g><use xlink:href="#b1IXYyIXZN" opacity="1" fill-opacity="0" stroke="#c5b9a4" stroke-width="1" stroke-opacity="1"></use></g></g><g><g><use xlink:href="#c39dF1kmPs" opacity="1" fill-opacity="0" stroke="#c5b9a4" stroke-width="1" stroke-opacity="1"></use></g></g><g><g><use xlink:href="#bbwKpCxZs" opacity="1" fill-opacity="0" stroke="#c5b9a4" stroke-width="1" stroke-opacity="1"></use></g></g><g><g><use xlink:href="#a5tsUf95Lo" opacity="1" fill-opacity="0" stroke="#c5b9a4" stroke-width="1" stroke-opacity="1"></use></g></g><g><g><use xlink:href="#g2EfyEaPG0" opacity="1" fill-opacity="0" stroke="#c5b9a4" stroke-width="1" stroke-opacity="1"></use></g></g><g><g><use xlink:href="#cjDIEClsJ" opacity="1" fill-opacity="0" stroke="#c5b9a4" stroke-width="1" stroke-opacity="1"></use></g></g><g><g><use xlink:href="#i23IcbfMH" opacity="1" fill-opacity="0" stroke="#c5b9a4" stroke-width="1" stroke-opacity="1"></use></g></g><g><g><use xlink:href="#lw30Jm5Sa" opacity="1" fill-opacity="0" stroke="#c5b9a4" stroke-width="1" stroke-opacity="1"></use></g></g><g><g><use xlink:href="#i2Izaj9UzD" opacity="1" fill-opacity="0" stroke="#c5b9a4" stroke-width="1" stroke-opacity="1"></use></g></g><g><g><use xlink:href="#a64OaORirl" opacity="1" fill-opacity="0" stroke="#c5b9a4" stroke-width="1" stroke-opacity="1"></use></g></g><g><g><use xlink:href="#a2n1GFgPHz" opacity="1" fill-opacity="0" stroke="#c5b9a4" stroke-width="1" stroke-opacity="1"></use></g></g><g><g><use xlink:href="#d671nZzV9D" opacity="1" fill-opacity="0" stroke="#c5b9a4" stroke-width="1" stroke-opacity="1"></use></g></g><g><g><use xlink:href="#c3PjUlFrDS" opacity="1" fill-opacity="0" stroke="#c5b9a4" stroke-width="1" stroke-opacity="1"></use></g></g><g><g><use xlink:href="#f5vWKo1B8" opacity="1" fill-opacity="0" stroke="#c5b9a4" stroke-width="1" stroke-opacity="1"></use></g></g><g><g><use xlink:href="#b1LCG2GBK" opacity="1" fill-opacity="0" stroke="#c5b9a4" stroke-width="1" stroke-opacity="1"></use></g></g><g><g><use xlink:href="#acCwmH8pl" opacity="1" fill-opacity="0" stroke="#c5b9a4" stroke-width="1" stroke-opacity="1"></use></g></g><g><g><use xlink:href="#dkQYHsbxc" opacity="1" fill-opacity="0" stroke="#c5b9a4" stroke-width="1" stroke-opacity="1"></use></g></g><g><g><use xlink:href="#a2MoWA01O" opacity="1" fill-opacity="0" stroke="#c5b9a4" stroke-width="1" stroke-opacity="1"></use></g></g><g><g><use xlink:href="#jKzRyzmQx" opacity="1" fill-opacity="0" stroke="#c5b9a4" stroke-width="1" stroke-opacity="1"></use></g></g><g><g><use xlink:href="#g7Qr72o3bL" opacity="1" fill-opacity="0" stroke="#1e1a0e" stroke-width="1" stroke-opacity="1"></use></g></g><g><g><use xlink:href="#g3S69O1d5q" opacity="1" fill-opacity="0" stroke="#1e1a0e" stroke-width="1" stroke-opacity="1"></use></g></g><g><g><use xlink:href="#b1ZT0pldnZ" opacity="1" fill-opacity="0" stroke="#1e1a0e" stroke-width="1" stroke-opacity="1"></use></g></g><g><g><use xlink:href="#c6HpOD9P6" opacity="1" fill-opacity="0" stroke="#1e1a0e" stroke-width="1" stroke-opacity="1"></use></g></g><g><g><use xlink:href="#cNgOqrwsO" opacity="1" fill-opacity="0" stroke="#1e1a0e" stroke-width="1" stroke-opacity="1"></use></g></g><g><g><use xlink:href="#cf4IZjbzi" opacity="1" fill-opacity="0" stroke="#1e1a0e" stroke-width="1" stroke-opacity="1"></use></g></g><g><g><use xlink:href="#cbjBZe71F" opacity="1" fill-opacity="0" stroke="#1e1a0e" stroke-width="1" stroke-opacity="1"></use></g></g><g><g><use xlink:href="#aouk9Ra2q" opacity="1" fill-opacity="0" stroke="#1e1a0e" stroke-width="1" stroke-opacity="1"></use></g></g><g><g><use xlink:href="#a2hCXw0lpm" opacity="1" fill-opacity="0" stroke="#1e1a0e" stroke-width="1" stroke-opacity="1"></use></g></g><g><g><use xlink:href="#dp4rXvY2b" opacity="1" fill-opacity="0" stroke="#1e1a0e" stroke-width="1" stroke-opacity="1"></use></g></g><g><g><use xlink:href="#kc9LEOAR9" opacity="1" fill-opacity="0" stroke="#1e1a0e" stroke-width="1" stroke-opacity="1"></use></g></g><g><g><use xlink:href="#b2X1Llz301" opacity="1" fill-opacity="0" stroke="#1e1a0e" stroke-width="1" stroke-opacity="1"></use></g></g><g><g><use xlink:href="#d1YvhHmTke" opacity="1" fill-opacity="0" stroke="#1e1a0e" stroke-width="1" stroke-opacity="1"></use></g></g><g><g><use xlink:href="#a6fL52Prr" opacity="1" fill-opacity="0" stroke="#1e1a0e" stroke-width="1" stroke-opacity="1"></use></g></g></g></g></svg>