<?xml version="1.0" encoding="UTF-8" standalone="no"?>
<!DOCTYPE svg PUBLIC "-//W3C//DTD SVG 1.1//EN" "http://www.w3.org/Graphics/SVG/1.1/DTD/svg11.dtd">
<svg version="1.1" xmlns="http://www.w3.org/2000/svg" xmlns:xlink="http://www.w3.org/1999/xlink" preserveAspectRatio="xMidYMid meet" viewBox="22.07818480043761 142.85875706214665 261.9999999999999 262.0000000000002" width="262" height="262"><defs><path d="M22.08 142.86L284.08 142.86L284.08 404.86L22.08 404.86L22.08 142.86Z" id="b1wfimTcyq"></path><path d="M185.07 404.53L184.39 388.87L180.9 386.64L180.9 382.88L178.24 382.88L178.24 379.44L176.34 379.21L176.34 371.5L178.58 371.5L178.58 369.34L180.9 369.34L180.9 361.04L182.73 357.6L178.97 344.41L180.53 299.19L199.84 221.95L199.84 211.64L197.21 200.09L190.91 196.24L190.91 167.74L189.56 159.5L183.61 148.39L180.53 146.08L171.58 145.68L168.23 147.83L165.07 152.15L165.07 159.18L170.35 164.7L183.61 167.74L183.13 213.98L179.46 210.23L176.82 212.86L170.35 209.51L169.3 204.31L161.95 204.55L162.19 191.44L163.95 189.92L165.07 177.7L154.92 162.92L150.53 160.61L144.7 163.56L138.31 180.39L141.9 192.05L141.08 204.55L134.77 205.51L134.05 209.82L127.26 212.86L125.03 211.02L120.39 215.89L120.15 217.89L116.56 213.5L119.59 211.34L118.72 202.79L115.6 202.48L114.24 191.05L109.4 191.77L109.13 201.2L105.3 204.31L105.72 210.85L109.4 214.61L107.48 224.59L113.42 243.75L117.89 246.38L120.85 245.34L124.63 338.95L121.11 351.01L121.67 363.23L119.28 362.99L119.28 369.14L123.03 369.14L122.79 379.44L118.72 379.44L118.72 385.35L115.12 389.26L115.12 404.86L185.07 404.53Z" id="e1d5rtEjvM"></path><path d="M173.85 149.5L170.23 152.58L169.08 157.02L171 160.8L176.21 162.28L180.38 160.15L180.38 153.89L177.09 150.05L173.85 149.5Z" id="aVsyzK0SV"></path><path d="M180.8 386.25C168.93 388.54 148.21 388.27 118.66 385.45" id="a8ZwykBtt"></path><path d="M176.09 379.06C160.97 381.13 143.29 381.21 123.05 379.3" id="b4wK8KtuiW"></path><path d="M176.33 371.71C154.36 373.63 137.97 373.71 123.37 370.75" id="bEajodMDg"></path><path d="M136.35 363.85C134.71 363.92 129.89 363.71 121.89 363.21" id="brseiomtg"></path><path d="M147.17 363.21C153.67 362.92 164.88 363.64 180.8 365.35" id="b2xbFfAJlg"></path><path d="M118.16 202.8C117.1 202.35 116.09 202.31 115.12 202.67C113.67 203.21 112.45 203.51 112.35 204.96C112.25 206.42 113.85 207.48 114.92 207.87C115.63 208.13 116.19 207.68 116.61 206.52L118.16 208.07" id="e32gtOnhMU"></path><path d="M108.43 202.06C110.19 205.17 111.07 207.33 111.07 208.54C111.07 210.37 109.72 210.45 108.97 209.63C108.47 209.07 107.25 207.27 105.3 204.22" id="a1zhDoRFYj"></path><path d="M113.57 207.13C113.84 209.47 112.91 209.78 110.8 208.07" id="bQmIoVeW7"></path><path d="M112.2 204.29L112.2 191.52" id="bOdE79iIe"></path><path d="M147.1 162.96C149.63 177.57 147.52 185.18 140.75 185.79" id="aKLoNgifO"></path><path d="M163.99 185.79C157.23 183.04 153.33 174.96 152.29 161.57" id="b3hXWd6uyy"></path><path d="M162.15 191.13C159.43 187.74 152.73 187.88 142.05 191.54" id="e1dvWLSkU"></path><path d="M160.38 192.17L145.68 192.17" id="c7FfcJW9V"></path><path d="M153.44 208.42L153.44 192.17" id="c1hzPON8Bz"></path><path d="M190.32 176.84C189.38 178.11 187.11 178.05 183.51 176.66" id="bFOhjocwg"></path><path d="M190.95 180.06C189.17 180.85 186.82 180.85 183.92 180.06" id="cQHECQaB1"></path><path d="M190.41 190.45C188.8 191.36 186.51 191.28 183.51 190.22" id="m6jP4Hor9u"></path><path d="M179.25 301.73C186.87 270.07 192.96 246.66 197.5 231.49C199.72 214.84 199.76 204.56 197.62 200.64L197.03 200.18L196.44 199.59L195.94 199.18L195.44 198.78L194.76 198.23L194.13 197.82L193.54 197.46L192.86 197.1L192.13 196.69L191.41 196.37L190.82 196.14L190.18 195.96L189.55 195.83L188.77 195.74L188.14 195.69L187.5 195.6L186.78 195.6L186.14 195.78L185.55 196.05L184.96 196.32L184.51 196.78L184.28 197.37L184.28 198L184.74 198.5L185.51 198.68L186.23 198.73L186.87 198.73L187.55 198.78L188.28 198.78L188.96 198.82L189.73 198.91" id="e3TEaYuQfR"></path><path d="M184.28 198.09L184.1 198.73L184.06 199.41L184.24 200.09L184.55 200.73L185.01 201.18L186.01 201.32L186.82 201.41L187.55 201.45L188.18 201.5L188.82 201.54L189.55 201.59L190.23 201.63L190.86 201.68L191.5 201.77" id="jaqxT7kT5"></path><path d="M184.65 201L184.15 201.86L184.01 202.54L184.24 203.22L184.65 203.72L185.24 204.13L185.83 204.36L186.55 204.49L187.37 204.63L188 204.72L188.64 204.72L189.32 204.81L190 204.81L190.77 204.9L191.54 204.99" id="alMapdfe"></path><path d="M184.51 204.08L184.33 204.72L184.28 205.35L184.42 206.03L184.83 206.53L185.37 206.85L185.96 207.08L186.6 207.26L187.28 207.4L187.91 207.53L188.55 207.67L189.27 207.76L190.04 207.99L190.73 208.12L191.36 208.21" id="i21nVAN5wP"></path><path d="M175.96 360.81C179.04 360.93 180.22 359.59 179.5 356.78L174.31 343.86C185.05 255.32 190.02 210.76 189.22 210.16C188.43 209.56 187.96 208.84 187.82 208" id="d2nXoG0dSc"></path><path d="M169.23 315.17L165.76 344.12C169.44 349.96 172.04 353.74 173.56 355.46C175.08 357.18 175.76 360.35 175.6 364.95" id="gm26lcUhU"></path><path d="M163.02 359.86C166.7 356.22 170.12 355.26 173.28 356.98L174.31 343.38" id="e2xLi3nlC5"></path><path d="M163.8 363.4C167.72 359.2 171.48 357.94 175.08 359.62" id="c4aotnjbop"></path><path d="M163.02 355.6C165.74 353.44 168.48 352.44 171.24 352.6" id="asopacdnJ"></path><path d="M163.32 348.4C165.72 347.88 167.5 348.08 168.66 349" id="g5zA3YoyDW"></path><path d="M163.02 345.94C164.26 345.62 165.63 345.78 167.13 346.42" id="d38DJsAfX"></path><path d="M184.06 205.51L183.36 214.63L168.66 348.56" id="fNyVOCMrY"></path><path d="M199.2 209.29C197.47 210.49 194.14 210.79 189.22 210.19" id="b7qjjYu54v"></path><path d="M199.2 211.81C196.79 212.65 193.46 213.01 189.22 212.89" id="bjbcEDUDT"></path><path d="M199.2 214.33C195.51 215.37 192.18 215.51 189.22 214.75" id="c3aQSXUQd2"></path><path d="M198.79 219.8C193.31 219.56 190.01 218.8 188.89 217.51" id="a7xOwczeVp"></path><path d="M198.79 221C194.83 222.16 191.43 221.76 188.59 219.8" id="b1mnCbiN1B"></path><path d="M198.79 223.88C193.83 224.48 190.31 224.08 188.23 222.68" id="h2a56YT0nT"></path><path d="M197.71 230.96C192.79 230.44 189.49 228.76 187.82 225.92" id="b2oLGtN8Or"></path><path d="M195.55 238.47C193.47 241.59 190.35 243.05 186.18 242.85" id="o6aHu0ffie"></path><path d="M186.84 239.07C197.77 237.15 192.05 231.19 187.78 229.52" id="e9Kx1LXHD"></path><path d="M150.18 212.92C158.29 212.1 160.67 212.2 166.87 212.36C171 212.48 173.7 212.88 174.97 213.59C174.97 216.76 174.97 218.74 174.97 219.53C174.97 220.31 174.3 220.92 173.53 220.85C168.48 220.45 162.81 220.32 156.54 220.48C150.08 220.64 142.98 221.11 135.26 221.88C134.67 221.94 134.17 221.46 134.2 220.88C134.25 219.83 134.32 218.39 134.36 217.5C134.41 216.39 135.19 215.46 136.27 215.21C140.77 214.16 145.41 213.4 150.18 212.92Z" id="b2M0Qt2Dn"></path><path d="M140.93 213.83C139.37 212.66 138.81 209.52 139.25 204.4C137.24 204.92 135.76 206.19 134.81 208.21C134.5 210.35 134.4 213.21 134.51 216.77" id="eKtcNAmsl"></path><path d="M163.56 212.36C165.76 211.52 166.32 208.86 165.24 204.4C166.76 204.01 167.98 204.2 168.9 204.99C169.86 206.3 170.56 208.72 171 212.25" id="c3IxS3CNNw"></path><path d="M165.42 204.4L161.76 204.99C155.44 209.42 149.12 209.3 142.79 204.64C142.07 204.31 140.95 204.31 139.43 204.64" id="a15XeWytW1"></path><path d="M159.28 363.21L159.28 220.72" id="c7JrDOFz5H"></path><path d="M162.5 363.54L162.5 220.72" id="a1xRrYINJQ"></path><path d="M148.86 363.21L148.39 220.72" id="e10DWk2oag"></path><path d="M136.35 363.87C140.92 366.27 144.41 366.16 146.83 363.54L146.2 220.72" id="a1Il1AHVfa"></path><path d="M133.3 358.52L125.32 363.4" id="c1EIdUSzOh"></path><path d="M136.35 363.87L141.59 359.73L146.26 362.59" id="c3j6joMk53"></path><path d="M132.99 363.4L140.97 356.14L146.63 358.9" id="eSLejYBR9"></path><path d="M135.12 313.84C137.76 335.87 137.76 349.2 135.12 353.83C132.49 358.46 131.88 361.5 133.3 362.96" id="a7lc2Tr0z"></path><path d="M134.83 354.74C139.42 351.86 143.35 351.64 146.63 354.09" id="dTzAuF22B"></path><path d="M136.35 351.27C138.23 348.84 141.65 347.79 146.63 348.12" id="a5a2XUb6Z"></path><path d="M136.16 350.36C137.9 346.55 141.46 344.9 146.83 345.43" id="b5aGJ1C2"></path><path d="M172.02 315.47L166.85 303.29L170.69 294.47L174.15 296.6L170.01 303.29L172.93 311.69L172.02 315.47Z" id="a2oRevCBnR"></path><path d="M162.5 315.17L165.57 317.96L171.41 312.91" id="a5wOWvRTpL"></path><path d="M162.77 311.94L165.45 314.31L169.65 309.81" id="a1ff0HL46m"></path><path d="M163.02 308.89L165.51 310.9L168.66 308.04" id="anvnohipr"></path><path d="M133.19 295.99L130.94 297.15L136.17 307.25L130.94 313.34L133.37 315.47L139.64 306.4L133.19 295.99Z" id="d2oI4zsWBE"></path><path d="M132.85 358.15C127.38 355.27 127.42 350.01 132.99 342.38L132.55 314.63" id="g1UZgGlbMC"></path><path d="M146.63 317.96L142.49 320.5L135.92 311.73" id="d2SZdiapg6"></path><path d="M146.27 313.5L142.31 315.81L137.1 310.21" id="a1nq0GCyv"></path><path d="M146.27 310.51L143.47 312.4L138.6 308.04" id="aecWJ9Hh9"></path><path d="M139.15 305.4L143.04 301.73L146.63 303.82" id="kuwHtrvqy"></path><path d="M146.27 300.41L141.28 298.83L137.99 302.85" id="e23QpkjpAp"></path><path d="M146.27 296.88L141.28 293.41L135.92 299.8" id="c2BagrjPJp"></path><path d="M162.77 303.56L164.83 302.12L166.6 303.94" id="j38cTxQKjp"></path><path d="M162.77 300.35L165.44 299.01L167.63 301.26" id="a7b3Z7TaXu"></path><path d="M162.77 298.4L165.44 296.21L168.36 299.32" id="aeaWQWGOE"></path><path d="M132.88 285.42L132.88 295.99" id="ajDfgp9or"></path><path d="M170.37 285.06L170.13 295.65" id="ciaxGmHjo"></path><path d="M143.04 253.9L142.37 257.91L141.09 263.76L140.06 269.17L139.39 273.07L139.15 279.03L139.39 285.06L134.16 285.06L134.7 275.27L135.62 268.2L138.23 259.44L139.82 253.71L136.96 251.83L132.03 266.37L132.03 270.57L131.48 276.54L131.3 282.62L130.94 285.24L146.27 285.42" id="f1XhPhwkXm"></path><path d="M145.96 254.02L143.04 254.02L139.9 253.71" id="bwyhV7Ik"></path><path d="M131.54 282.56L146.45 282.81L146.45 278.91L131.54 279.16L131.72 274.9L139.15 276.17L146.27 275.93L146.45 272.76L139.39 272.76L132.03 271.18L132.03 266.98L140.24 269.54L146.63 269.9L146.27 266.44L140.67 265.77L132.88 263.45L134.03 260.47L141.09 263.82L146.45 263.45L146.45 260.84L141.83 261.02L135.13 257.97L136.1 255.24L142.13 257.97L146.27 257.31" id="d5jXjXwrIy"></path><path d="M172.56 285.06L172.93 281.84L172.93 272.34L172.93 269.42L171.76 265.18L167.3 251.67L162.5 254.23L162.5 255.91L166.21 255.91L168.11 255.24L169.13 257.51L167.3 258.39L162.5 258.9L162.5 261.68L168.11 261.31L170.13 259.92L171.03 262.7L168.84 264.82L162.5 265.18L162.5 268.47L169.42 267.89L171.91 266.06L172.56 269.02L169.86 271.39L162.5 271.61L162.5 274.82L170.13 274.82L172.93 273L172.93 277.03L170.13 278.92L162.5 278.92L162.5 281.84L172.93 281.84L172.56 285.06L162.5 284.91" id="a5VLAAxUF8"></path><path d="M165.57 252.76L167.96 261.53L169.93 271.32L170.25 285.06L166.6 285.06L166.6 271.32L163.51 254.02" id="h1fFRfGcwX"></path><path d="M146.27 250.84L140.42 250.62L136.11 248.43L137.06 251.83" id="a8cRgGqVNw"></path><path d="M131.95 230.1L132.24 228.27L137.7 227.76L145.96 223.6L145.96 225.92L137.87 229.81L132.24 230.1L132.46 230.96L135.97 231.85L139.69 231.27L145.96 227.98" id="aqfzUtjn"></path><path d="M167.28 251.36L165.99 249.31L162.5 251.36" id="bb5SVRhvV"></path><path d="M172.64 220.97C173.71 225.4 171.54 234.85 166.13 249.31" id="gUij5AZ95"></path><path d="M166.88 230.96C166.98 238.5 165.86 245.05 163.51 250.63" id="dse5P9WLd"></path><path d="M132.17 230.96C133.53 238.99 134.85 244.89 136.11 248.66" id="a13OZIbJbq"></path><path d="M136.11 231.85C136.7 237.31 137.69 243.27 139.09 249.75" id="ae8iHA7QU"></path><path d="M140.2 231.19C140.4 237.77 141.31 244.25 142.93 250.63" id="a2AEiFq2k"></path><path d="M162.82 228.44C167.71 232.02 170.77 232.52 172.01 229.95" id="cfn60S06P"></path><path d="M162.65 226.23C166.6 229.76 169.92 230.15 172.63 227.41" id="a1IJN2ugW8"></path><path d="M162.5 224.31C167.47 228.03 170.94 228.03 172.9 224.31" id="a58NPibam"></path><path d="M172.01 230.62L180.69 237.56" id="fDp3Nu8Gi"></path><path d="M174.97 220.72C179.9 221.72 182.83 216.33 183.45 214.81C181.72 214.55 180.32 213.03 179.25 210.25C176.23 213.21 174.8 216.71 174.97 220.72Z" id="c4RTDwuq9o"></path><path d="M182.44 223.21L180.29 219.66" id="gDdn5A3AO"></path><path d="M180.29 220.05C178.04 224.34 175.58 227.04 172.9 228.17" id="g2vtZTpnqa"></path><path d="M182.16 225.58C180.43 229.04 177.87 231.46 174.49 232.85" id="a3TNCd4D9r"></path><path d="M116.86 214.24C114.77 215.3 112.19 215.55 109.11 214.98" id="a1QG0VcX7m"></path><path d="M117.18 216.09C115.34 217.79 112.45 218.12 108.53 217.07" id="d1b08Mf1jz"></path><path d="M118.93 218.22C116.98 219.88 113.52 220.53 108.53 220.18" id="a53LFfYxq2"></path><path d="M131.67 225.7C125.56 225.86 123.39 223.47 120.58 222.2C117.14 224.14 112.86 225.06 107.73 224.96" id="a1lHEHIOqA"></path><path d="M120.79 225.71C117.99 227.27 113.91 228.15 108.53 228.35" id="e5lHPspIEK"></path><path d="M122.22 230.64C119.46 232.83 115.57 234.26 110.54 234.94" id="c1rtwX8pvc"></path><path d="M116.38 235.79C115.86 239.31 115.43 245.1 118.03 245.92C120.15 245.37 126.57 241.57 126.79 239.08C126.93 237.41 125.41 234.71 122.22 230.96C120.09 232.36 118.14 233.96 116.38 235.79Z" id="eB6PCAec7"></path><path d="M115.99 236.85C115.12 237.13 113.48 237.33 111.07 237.43" id="e1gOdO4bqh"></path><path d="M115.99 239.61C114.38 240.35 112.97 240.6 111.76 240.35" id="g3mV43oZ6u"></path><path d="M115.99 242.1C116.01 242.92 115.01 243.31 112.99 243.27" id="b2ScYgiy4"></path><path d="M122.22 230.96C120.49 222.64 120.1 217.91 121.05 216.77C122.93 215.77 124.34 213.92 125.3 211.21" id="e1FQB1itlh"></path><path d="M121.21 217.07C127.13 223.83 130.59 223.46 133.63 221.61C132.37 220.56 129.59 217.14 125.3 211.37" id="c2woVjCsIU"></path><path d="M132.17 230.27C129.67 230.62 126.14 229.7 121.58 227.51" id="d2XF2h1oey"></path><path d="M126.88 238.44C130.97 236.75 132.57 231.52 131.67 222.77" id="bCykBUIFa"></path></defs><g><g><g><use xlink:href="#b1wfimTcyq" opacity="1" fill="#9b7647" fill-opacity="1"></use></g><g><use xlink:href="#e1d5rtEjvM" opacity="1" fill="#545454" fill-opacity="1"></use></g><g><use xlink:href="#aVsyzK0SV" opacity="1" fill="#9b7647" fill-opacity="1"></use></g><g><g><g><use xlink:href="#a8ZwykBtt" opacity="1" fill-opacity="0" stroke="#2d2d2d" stroke-width="1" stroke-opacity="1"></use></g></g><g><g><use xlink:href="#b4wK8KtuiW" opacity="1" fill-opacity="0" stroke="#2d2d2d" stroke-width="1" stroke-opacity="1"></use></g></g><g><g><use xlink:href="#bEajodMDg" opacity="1" fill-opacity="0" stroke="#2d2d2d" stroke-width="1" stroke-opacity="1"></use></g></g><g><g><use xlink:href="#brseiomtg" opacity="1" fill-opacity="0" stroke="#2d2d2d" stroke-width="1" stroke-opacity="1"></use></g></g><g><g><use xlink:href="#b2xbFfAJlg" opacity="1" fill-opacity="0" stroke="#2d2d2d" stroke-width="1" stroke-opacity="1"></use></g></g><g><g><use xlink:href="#e32gtOnhMU" opacity="1" fill-opacity="0" stroke="#2d2d2d" stroke-width="1" stroke-opacity="1"></use></g></g><g><g><use xlink:href="#a1zhDoRFYj" opacity="1" fill-opacity="0" stroke="#2d2d2d" stroke-width="1" stroke-opacity="1"></use></g></g><g><g><use xlink:href="#bQmIoVeW7" opacity="1" fill-opacity="0" stroke="#2d2d2d" stroke-width="1" stroke-opacity="1"></use></g></g><g><g><use xlink:href="#bOdE79iIe" opacity="1" fill-opacity="0" stroke="#2d2d2d" stroke-width="1" stroke-opacity="1"></use></g></g><g><g><use xlink:href="#aKLoNgifO" opacity="1" fill-opacity="0" stroke="#2d2d2d" stroke-width="1" stroke-opacity="1"></use></g></g><g><g><use xlink:href="#b3hXWd6uyy" opacity="1" fill-opacity="0" stroke="#2d2d2d" stroke-width="1" stroke-opacity="1"></use></g></g><g><g><use xlink:href="#e1dvWLSkU" opacity="1" fill-opacity="0" stroke="#2d2d2d" stroke-width="1" stroke-opacity="1"></use></g></g><g><g><use xlink:href="#c7FfcJW9V" opacity="1" fill-opacity="0" stroke="#2d2d2d" stroke-width="1" stroke-opacity="1"></use></g></g><g><g><use xlink:href="#c1hzPON8Bz" opacity="1" fill-opacity="0" stroke="#2d2d2d" stroke-width="1" stroke-opacity="1"></use></g></g><g><g><use xlink:href="#bFOhjocwg" opacity="1" fill-opacity="0" stroke="#2d2d2d" stroke-width="1" stroke-opacity="1"></use></g></g><g><g><use xlink:href="#cQHECQaB1" opacity="1" fill-opacity="0" stroke="#2d2d2d" stroke-width="1" stroke-opacity="1"></use></g></g><g><g><use xlink:href="#m6jP4Hor9u" opacity="1" fill-opacity="0" stroke="#2d2d2d" stroke-width="1" stroke-opacity="1"></use></g></g><g><g><use xlink:href="#e3TEaYuQfR" opacity="1" fill-opacity="0" stroke="#2d2d2d" stroke-width="1" stroke-opacity="1"></use></g></g><g><g><use xlink:href="#jaqxT7kT5" opacity="1" fill-opacity="0" stroke="#2d2d2d" stroke-width="1" stroke-opacity="1"></use></g></g><g><g><use xlink:href="#alMapdfe" opacity="1" fill-opacity="0" stroke="#2d2d2d" stroke-width="1" stroke-opacity="1"></use></g></g><g><g><use xlink:href="#i21nVAN5wP" opacity="1" fill-opacity="0" stroke="#2d2d2d" stroke-width="1" stroke-opacity="1"></use></g></g><g><g><use xlink:href="#d2nXoG0dSc" opacity="1" fill-opacity="0" stroke="#2d2d2d" stroke-width="1" stroke-opacity="1"></use></g></g><g><g><use xlink:href="#gm26lcUhU" opacity="1" fill-opacity="0" stroke="#2d2d2d" stroke-width="1" stroke-opacity="1"></use></g></g><g><g><use xlink:href="#e2xLi3nlC5" opacity="1" fill-opacity="0" stroke="#2d2d2d" stroke-width="1" stroke-opacity="1"></use></g></g><g><g><use xlink:href="#c4aotnjbop" opacity="1" fill-opacity="0" stroke="#2d2d2d" stroke-width="1" stroke-opacity="1"></use></g></g><g><g><use xlink:href="#asopacdnJ" opacity="1" fill-opacity="0" stroke="#2d2d2d" stroke-width="1" stroke-opacity="1"></use></g></g><g><g><use xlink:href="#g5zA3YoyDW" opacity="1" fill-opacity="0" stroke="#2d2d2d" stroke-width="1" stroke-opacity="1"></use></g></g><g><g><use xlink:href="#d38DJsAfX" opacity="1" fill-opacity="0" stroke="#2d2d2d" stroke-width="1" stroke-opacity="1"></use></g></g><g><g><use xlink:href="#fNyVOCMrY" opacity="1" fill-opacity="0" stroke="#2d2d2d" stroke-width="1" stroke-opacity="1"></use></g></g><g><g><use xlink:href="#b7qjjYu54v" opacity="1" fill-opacity="0" stroke="#2d2d2d" stroke-width="1" stroke-opacity="1"></use></g></g><g><g><use xlink:href="#bjbcEDUDT" opacity="1" fill-opacity="0" stroke="#2d2d2d" stroke-width="1" stroke-opacity="1"></use></g></g><g><g><use xlink:href="#c3aQSXUQd2" opacity="1" fill-opacity="0" stroke="#2d2d2d" stroke-width="1" stroke-opacity="1"></use></g></g><g><g><use xlink:href="#a7xOwczeVp" opacity="1" fill-opacity="0" stroke="#2d2d2d" stroke-width="1" stroke-opacity="1"></use></g></g><g><g><use xlink:href="#b1mnCbiN1B" opacity="1" fill-opacity="0" stroke="#2d2d2d" stroke-width="1" stroke-opacity="1"></use></g></g><g><g><use xlink:href="#h2a56YT0nT" opacity="1" fill-opacity="0" stroke="#2d2d2d" stroke-width="1" stroke-opacity="1"></use></g></g><g><g><use xlink:href="#b2oLGtN8Or" opacity="1" fill-opacity="0" stroke="#2d2d2d" stroke-width="1" stroke-opacity="1"></use></g></g><g><g><use xlink:href="#o6aHu0ffie" opacity="1" fill-opacity="0" stroke="#2d2d2d" stroke-width="1" stroke-opacity="1"></use></g></g><g><g><use xlink:href="#e9Kx1LXHD" opacity="1" fill-opacity="0" stroke="#2d2d2d" stroke-width="1" stroke-opacity="1"></use></g></g><g><g><use xlink:href="#b2M0Qt2Dn" opacity="1" fill-opacity="0" stroke="#2d2d2d" stroke-width="1" stroke-opacity="1"></use></g></g><g><g><use xlink:href="#eKtcNAmsl" opacity="1" fill-opacity="0" stroke="#2d2d2d" stroke-width="1" stroke-opacity="1"></use></g></g><g><g><use xlink:href="#c3IxS3CNNw" opacity="1" fill-opacity="0" stroke="#2d2d2d" stroke-width="1" stroke-opacity="1"></use></g></g><g><g><use xlink:href="#a15XeWytW1" opacity="1" fill-opacity="0" stroke="#2d2d2d" stroke-width="1" stroke-opacity="1"></use></g></g><g><g><use xlink:href="#c7JrDOFz5H" opacity="1" fill-opacity="0" stroke="#2d2d2d" stroke-width="1" stroke-opacity="1"></use></g></g><g><g><use xlink:href="#a1xRrYINJQ" opacity="1" fill-opacity="0" stroke="#2d2d2d" stroke-width="1" stroke-opacity="1"></use></g></g><g><g><use xlink:href="#e10DWk2oag" opacity="1" fill-opacity="0" stroke="#2d2d2d" stroke-width="1" stroke-opacity="1"></use></g></g><g><g><use xlink:href="#a1Il1AHVfa" opacity="1" fill-opacity="0" stroke="#2d2d2d" stroke-width="1" stroke-opacity="1"></use></g></g><g><g><use xlink:href="#c1EIdUSzOh" opacity="1" fill-opacity="0" stroke="#2d2d2d" stroke-width="1" stroke-opacity="1"></use></g></g><g><g><use xlink:href="#c3j6joMk53" opacity="1" fill-opacity="0" stroke="#2d2d2d" stroke-width="1" stroke-opacity="1"></use></g></g><g><g><use xlink:href="#eSLejYBR9" opacity="1" fill-opacity="0" stroke="#2d2d2d" stroke-width="1" stroke-opacity="1"></use></g></g><g><g><use xlink:href="#a7lc2Tr0z" opacity="1" fill-opacity="0" stroke="#2d2d2d" stroke-width="1" stroke-opacity="1"></use></g></g><g><g><use xlink:href="#dTzAuF22B" opacity="1" fill-opacity="0" stroke="#2d2d2d" stroke-width="1" stroke-opacity="1"></use></g></g><g><g><use xlink:href="#a5a2XUb6Z" opacity="1" fill-opacity="0" stroke="#2d2d2d" stroke-width="1" stroke-opacity="1"></use></g></g><g><g><use xlink:href="#b5aGJ1C2" opacity="1" fill-opacity="0" stroke="#2d2d2d" stroke-width="1" stroke-opacity="1"></use></g></g><g><g><use xlink:href="#a2oRevCBnR" opacity="1" fill-opacity="0" stroke="#2d2d2d" stroke-width="1" stroke-opacity="1"></use></g></g><g><g><use xlink:href="#a5wOWvRTpL" opacity="1" fill-opacity="0" stroke="#2d2d2d" stroke-width="1" stroke-opacity="1"></use></g></g><g><g><use xlink:href="#a1ff0HL46m" opacity="1" fill-opacity="0" stroke="#2d2d2d" stroke-width="1" stroke-opacity="1"></use></g></g><g><g><use xlink:href="#anvnohipr" opacity="1" fill-opacity="0" stroke="#2d2d2d" stroke-width="1" stroke-opacity="1"></use></g></g><g><g><use xlink:href="#d2oI4zsWBE" opacity="1" fill-opacity="0" stroke="#2d2d2d" stroke-width="1" stroke-opacity="1"></use></g></g><g><g><use xlink:href="#g1UZgGlbMC" opacity="1" fill-opacity="0" stroke="#2d2d2d" stroke-width="1" stroke-opacity="1"></use></g></g><g><g><use xlink:href="#d2SZdiapg6" opacity="1" fill-opacity="0" stroke="#2d2d2d" stroke-width="1" stroke-opacity="1"></use></g></g><g><g><use xlink:href="#a1nq0GCyv" opacity="1" fill-opacity="0" stroke="#2d2d2d" stroke-width="1" stroke-opacity="1"></use></g></g><g><g><use xlink:href="#aecWJ9Hh9" opacity="1" fill-opacity="0" stroke="#2d2d2d" stroke-width="1" stroke-opacity="1"></use></g></g><g><g><use xlink:href="#kuwHtrvqy" opacity="1" fill-opacity="0" stroke="#2d2d2d" stroke-width="1" stroke-opacity="1"></use></g></g><g><g><use xlink:href="#e23QpkjpAp" opacity="1" fill-opacity="0" stroke="#2d2d2d" stroke-width="1" stroke-opacity="1"></use></g></g><g><g><use xlink:href="#c2BagrjPJp" opacity="1" fill-opacity="0" stroke="#2d2d2d" stroke-width="1" stroke-opacity="1"></use></g></g><g><g><use xlink:href="#j38cTxQKjp" opacity="1" fill-opacity="0" stroke="#2d2d2d" stroke-width="1" stroke-opacity="1"></use></g></g><g><g><use xlink:href="#a7b3Z7TaXu" opacity="1" fill-opacity="0" stroke="#2d2d2d" stroke-width="1" stroke-opacity="1"></use></g></g><g><g><use xlink:href="#aeaWQWGOE" opacity="1" fill-opacity="0" stroke="#2d2d2d" stroke-width="1" stroke-opacity="1"></use></g></g><g><g><use xlink:href="#ajDfgp9or" opacity="1" fill-opacity="0" stroke="#2d2d2d" stroke-width="1" stroke-opacity="1"></use></g></g><g><g><use xlink:href="#ciaxGmHjo" opacity="1" fill-opacity="0" stroke="#2d2d2d" stroke-width="1" stroke-opacity="1"></use></g></g><g><g><use xlink:href="#f1XhPhwkXm" opacity="1" fill-opacity="0" stroke="#2d2d2d" stroke-width="1" stroke-opacity="1"></use></g></g><g><g><use xlink:href="#bwyhV7Ik" opacity="1" fill-opacity="0" stroke="#2d2d2d" stroke-width="1" stroke-opacity="1"></use></g></g><g><g><use xlink:href="#d5jXjXwrIy" opacity="1" fill-opacity="0" stroke="#2d2d2d" stroke-width="1" stroke-opacity="1"></use></g></g><g><g><use xlink:href="#a5VLAAxUF8" opacity="1" fill-opacity="0" stroke="#2d2d2d" stroke-width="1" stroke-opacity="1"></use></g></g><g><g><use xlink:href="#h1fFRfGcwX" opacity="1" fill-opacity="0" stroke="#2d2d2d" stroke-width="1" stroke-opacity="1"></use></g></g><g><g><use xlink:href="#a8cRgGqVNw" opacity="1" fill-opacity="0" stroke="#2d2d2d" stroke-width="1" stroke-opacity="1"></use></g></g><g><g><use xlink:href="#aqfzUtjn" opacity="1" fill-opacity="0" stroke="#2d2d2d" stroke-width="1" stroke-opacity="1"></use></g></g><g><g><use xlink:href="#bb5SVRhvV" opacity="1" fill-opacity="0" stroke="#2d2d2d" stroke-width="1" stroke-opacity="1"></use></g></g><g><g><use xlink:href="#gUij5AZ95" opacity="1" fill-opacity="0" stroke="#2d2d2d" stroke-width="1" stroke-opacity="1"></use></g></g><g><g><use xlink:href="#dse5P9WLd" opacity="1" fill-opacity="0" stroke="#2d2d2d" stroke-width="1" stroke-opacity="1"></use></g></g><g><g><use xlink:href="#a13OZIbJbq" opacity="1" fill-opacity="0" stroke="#2d2d2d" stroke-width="1" stroke-opacity="1"></use></g></g><g><g><use xlink:href="#ae8iHA7QU" opacity="1" fill-opacity="0" stroke="#2d2d2d" stroke-width="1" stroke-opacity="1"></use></g></g><g><g><use xlink:href="#a2AEiFq2k" opacity="1" fill-opacity="0" stroke="#2d2d2d" stroke-width="1" stroke-opacity="1"></use></g></g><g><g><use xlink:href="#cfn60S06P" opacity="1" fill-opacity="0" stroke="#2d2d2d" stroke-width="1" stroke-opacity="1"></use></g></g><g><g><use xlink:href="#a1IJN2ugW8" opacity="1" fill-opacity="0" stroke="#2d2d2d" stroke-width="1" stroke-opacity="1"></use></g></g><g><g><use xlink:href="#a58NPibam" opacity="1" fill-opacity="0" stroke="#2d2d2d" stroke-width="1" stroke-opacity="1"></use></g></g><g><g><use xlink:href="#fDp3Nu8Gi" opacity="1" fill-opacity="0" stroke="#2d2d2d" stroke-width="1" stroke-opacity="1"></use></g></g><g><g><use xlink:href="#c4RTDwuq9o" opacity="1" fill-opacity="0" stroke="#2d2d2d" stroke-width="1" stroke-opacity="1"></use></g></g><g><g><use xlink:href="#gDdn5A3AO" opacity="1" fill-opacity="0" stroke="#2d2d2d" stroke-width="1" stroke-opacity="1"></use></g></g><g><g><use xlink:href="#g2vtZTpnqa" opacity="1" fill-opacity="0" stroke="#2d2d2d" stroke-width="1" stroke-opacity="1"></use></g></g><g><g><use xlink:href="#a3TNCd4D9r" opacity="1" fill-opacity="0" stroke="#2d2d2d" stroke-width="1" stroke-opacity="1"></use></g></g><g><g><use xlink:href="#a1QG0VcX7m" opacity="1" fill-opacity="0" stroke="#2d2d2d" stroke-width="1" stroke-opacity="1"></use></g></g><g><g><use xlink:href="#d1b08Mf1jz" opacity="1" fill-opacity="0" stroke="#2d2d2d" stroke-width="1" stroke-opacity="1"></use></g></g><g><g><use xlink:href="#a53LFfYxq2" opacity="1" fill-opacity="0" stroke="#2d2d2d" stroke-width="1" stroke-opacity="1"></use></g></g><g><g><use xlink:href="#a1lHEHIOqA" opacity="1" fill-opacity="0" stroke="#2d2d2d" stroke-width="1" stroke-opacity="1"></use></g></g><g><g><use xlink:href="#e5lHPspIEK" opacity="1" fill-opacity="0" stroke="#2d2d2d" stroke-width="1" stroke-opacity="1"></use></g></g><g><g><use xlink:href="#c1rtwX8pvc" opacity="1" fill-opacity="0" stroke="#2d2d2d" stroke-width="1" stroke-opacity="1"></use></g></g><g><g><use xlink:href="#eB6PCAec7" opacity="1" fill-opacity="0" stroke="#2d2d2d" stroke-width="1" stroke-opacity="1"></use></g></g><g><g><use xlink:href="#e1gOdO4bqh" opacity="1" fill-opacity="0" stroke="#2d2d2d" stroke-width="1" stroke-opacity="1"></use></g></g><g><g><use xlink:href="#g3mV43oZ6u" opacity="1" fill-opacity="0" stroke="#2d2d2d" stroke-width="1" stroke-opacity="1"></use></g></g><g><g><use xlink:href="#b2ScYgiy4" opacity="1" fill-opacity="0" stroke="#2d2d2d" stroke-width="1" stroke-opacity="1"></use></g></g><g><g><use xlink:href="#e1FQB1itlh" opacity="1" fill-opacity="0" stroke="#2d2d2d" stroke-width="1" stroke-opacity="1"></use></g></g><g><g><use xlink:href="#c2woVjCsIU" opacity="1" fill-opacity="0" stroke="#2d2d2d" stroke-width="1" stroke-opacity="1"></use></g></g><g><g><use xlink:href="#d2XF2h1oey" opacity="1" fill-opacity="0" stroke="#2d2d2d" stroke-width="1" stroke-opacity="1"></use></g></g><g><g><use xlink:href="#bCykBUIFa" opacity="1" fill-opacity="0" stroke="#2d2d2d" stroke-width="1" stroke-opacity="1"></use></g></g></g></g></g></svg>