<?xml version="1.0" encoding="UTF-8" standalone="no"?>
<!DOCTYPE svg PUBLIC "-//W3C//DTD SVG 1.1//EN" "http://www.w3.org/Graphics/SVG/1.1/DTD/svg11.dtd">
<svg version="1.1" xmlns="http://www.w3.org/2000/svg" xmlns:xlink="http://www.w3.org/1999/xlink" preserveAspectRatio="xMidYMid meet" viewBox="32.700041718815214 107.8039215686274 261.9999999999999 262.00000000000006" width="262" height="262"><defs><path d="M32.7 107.8L294.7 107.8L294.7 369.8L32.7 369.8L32.7 107.8Z" id="d68agd8kw5"></path><path d="M106.23 124.62L131.45 124.62L131.1 369.8L108.09 369.8L106.23 124.62Z" id="gbPJDSVID"></path><path d="M131.45 131.4L152.43 131.4L152.1 369.8L131.06 369.8L131.45 131.4Z" id="aFdbPDVEG"></path><path d="M152.43 137.91L171.86 138.42L171.54 369.8L152.05 369.8L152.43 137.91Z" id="d4yBaTpfu"></path><path d="M171.86 145.05L191.37 145.05L193.08 369.8L171.48 369.8L171.86 145.05Z" id="a110Fq1FTT"></path><path d="M198.38 346.85L200.09 346.59L200.09 343.7L201.45 343.7L201.79 333.81L198.38 333.81L198.73 327.84L210.32 327.84L222.05 307.24L210.11 265.6L212.63 190.97L203.42 198.55L191.6 195.83L191.6 183.81L199.78 166.34L196.2 161.99L205.75 153.15L214.34 152.79L214.85 142.9L219.03 148.96L220.91 143.5L220.23 125.08L222.53 125.34L222.87 122L226.79 121.23L226.79 118.26L229.86 117.5L229.86 108.12L233.7 108.12L233.7 118.26L237.62 119.03L237.8 121.23L241.13 122L241.13 124.81L244.54 126.26L241.68 143.71L244.16 148.32L246.04 145.08L248.85 152.49L256.24 153.15L261.18 157.58L265.19 158.86L262.31 162.87L263.06 168.75L285.14 171.9L276.13 230.76L264.16 258.27L264.58 266.54L257.28 283.52L248.67 291.75L245.77 309.39L254.21 322.02L252.25 329.01L258.73 329.01L258.73 335.23L256 337.36L256 343.24L257.02 343.24L257.02 347.51L258.73 347.51L259.07 354.92L262.65 354.92L262.31 365.84L241.68 369.59L209.62 369.33L193.08 364.98L193.08 352.88L197.69 350.58L198.38 346.85Z" id="a1CXKH8Dds"></path><path d="M259.08 354.86C253.63 351.06 233.28 349.44 198.04 350" id="dyLal69By"></path><path d="M256.58 343.41C245.66 341.48 227.17 341.68 201.08 344.01" id="b2VpWrgp4H"></path><path d="M256.32 337.02C250.75 333.16 232.42 332.05 201.33 333.7" id="dyGrQgzbJ"></path><path d="M217.5 327.67C215.64 323.16 213.33 323.16 210.57 327.67" id="c6ZriI1zeY"></path><path d="M221.73 327.67C221.68 323.78 219.22 321.35 214.37 320.39" id="c7RRQxbaU"></path><path d="M228.56 328.35C225.78 321.01 221.45 317.49 215.56 317.77" id="b894T6uyDV"></path><path d="M227.66 325.98C228.05 318.03 224.67 314.25 217.5 314.64" id="b2nZUNhnhJ"></path><path d="M228.32 314.61C226.39 311.29 223.3 310.59 219.03 312.53" id="a5YkVJ4UX"></path><path d="M253.88 321.24C251.18 321.47 248.89 323.83 247.03 328.35" id="n2qfp83UpC"></path><path d="M251.68 318.36C247.34 318.65 244.07 321.86 241.87 328.01" id="b34wnM9CuR"></path><path d="M249.91 316.76C243.7 316.93 238.99 320.68 235.78 328.01" id="d1qbOoFEG"></path><path d="M249.32 314.61C246.38 312.23 242.1 313.17 236.46 317.43" id="e2kPDE0Xe4"></path><path d="M246.18 310.41C243.53 309.23 240.29 309.68 236.46 311.76" id="c3Toaw7XB"></path><path d="M228.43 210.42L236.46 210.42L236.46 324.29L232.9 329.02L228.08 323.52L228.43 210.42Z" id="l17gcnZalW"></path><path d="M232.27 210.42L232.71 329.02" id="a17sI0sNe"></path><path d="M250.85 234.67C250.32 241.17 249.73 246.93 249.08 251.94C250.05 255.22 255.83 257.27 249.32 264.03C249.2 270.69 248.9 279.97 248.4 291.87" id="jl14rRhaH"></path><path d="M214.64 279.17C214.05 274.04 213.71 268.99 213.63 264.03C207.92 254.81 213.25 252.82 214.14 249.39C214.22 244.34 214.22 239.13 214.14 233.74" id="b12nB9IfSe"></path><path d="M228.08 210.42C216.75 209.23 212.36 211.24 211.51 233.06C214.56 234.12 220.08 234.35 228.08 233.74" id="a4g8cyT8F"></path><path d="M236.73 210.42C251.53 210.75 252.11 224.69 251.62 234.07C249.2 234.8 244.15 234.69 236.46 233.74" id="a5BWU4bIk"></path><path d="M245.86 213.58C248.68 210.59 250.19 208.68 250.39 207.83C243.41 201.74 211.57 202.75 211.85 207.83C212.16 208.45 213.43 210.37 215.66 213.58" id="h2klpjRBGm"></path><path d="M248.91 210.42C236.11 205.89 224.08 205.7 212.84 209.86" id="b3bf1fW9Fo"></path><path d="M235.8 177.48C235.8 179.43 233.91 181.1 231.73 181.04C229.56 180.97 227.42 179.43 227.42 177.48C227.42 175.54 229.56 173.53 231.73 173.59C233.91 173.65 235.8 175.54 235.8 177.48Z" id="f1xrWGhAhe"></path><path d="M228.08 203.63L228.08 201.26L234.78 201.26L234.78 197.79L228.08 197.79L228.08 193.98L234.78 193.98L234.78 189.92L228.08 189.92L228.08 186.87L234.78 186.87L234.78 183.07L228.08 183.07L228.08 179.94" id="bT76RpHAL"></path><path d="M228.08 203.88L228.08 179" id="dzfZca9a"></path><path d="M234.78 203.63L234.78 179.68" id="b1meF4gejY"></path><path d="M215.08 205.38C215.45 201.03 214.57 196.12 212.43 190.65" id="b2O6jctN1v"></path><path d="M247.94 206.42C247.56 201.63 248.57 197.51 250.96 194.05" id="dj5ahQbz5"></path><path d="M230.56 163.83C238.36 162.88 241.09 166.83 243.5 170.91C244.49 173.11 243.84 176.95 239.82 177.61C232.11 169.6 229.26 174.56 227.42 173.59C223.03 169.41 226.54 164.5 230.56 163.83Z" id="a2rAzqeN96"></path><path d="M243.91 173.94C250.6 176.21 256.35 178.66 261.17 181.31C268.38 185.27 268.06 190.47 267.87 192.45C262.77 202.08 254.96 201.64 253.61 199.44C252.71 197.97 248.12 190.7 239.83 177.61" id="a3kHvgBTsT"></path><path d="M260.41 181.31C259.53 184.58 256.19 188.83 250.39 194.05" id="a25cZzOAQy"></path><path d="M256.73 179.23C255.59 182.69 252.64 186.34 247.86 190.18" id="a1kHJal26v"></path><path d="" id="a1pkOnEIz0"></path><path d="M268.15 191.44C269.48 188.57 267.84 182.73 263.24 173.94L251.72 175.36L251.25 172.24L262.77 171.77L262.39 167.43L251.25 169.5" id="b2w5YpwwWv"></path><path d="M251.72 176.77L250.68 167.05" id="g8AFlonmL"></path><path d="M263.34 174.32L262.58 171.68" id="a5CZPWT1AU"></path><path d="M241.24 167.05L248.23 152.51" id="c2EUGpJyR2"></path><path d="M243.13 170.26L262.58 162.42" id="c3gW5Z8t"></path><path d="M243.13 163.68L262.96 156.19" id="h5cjC9fME4"></path><path d="M228.08 173.94C217.05 185.63 209.41 193.3 205.16 196.95C195.49 201.47 188.85 193.88 194.68 186.37C199.2 182.18 209.58 175.98 225.84 167.77" id="ab7ZkEdtC8"></path><path d="M209.32 193.17C205.41 191.72 201.86 188.34 198.65 183.04" id="a2vDSN3Quc"></path><path d="M212.43 190.18C207.21 186.87 204 183.65 202.8 180.52" id="bwOdyji8t"></path><path d="M209.98 176.23C209.47 173.65 210.43 170.59 212.84 167.05" id="a5JvUTziw"></path><path d="M207.62 177.31L194.96 176.77" id="e2bbje31IU"></path><path d="M209.85 173.21C207.56 172.33 203.35 171.73 197.23 171.41" id="c3W1jIezW0"></path><path d="M211.02 169.81C208.5 167.67 204.72 166.75 199.68 167.05" id="a18AwXuXqC"></path><path d="M221.5 170.26L196 161.78" id="b1nSbtnVl5"></path><path d="M224.52 168.4L214.13 153" id="a2YZXRJrcu"></path><path d="M221.5 164.43L202.42 156.19" id="bxEEqIU17"></path><path d="M227.73 165.28L214.7 143.09" id="a15utGzts"></path><path d="M236.04 164.05L246.24 145.73" id="b3uNB9Aa47"></path><path d="M241.89 143.37L232.07 157.91L221.21 143.37" id="a5ZGEbMsNN"></path><path d="M242.37 137.49L231.61 147.5L220.65 138.06" id="b8H0CGftd"></path><path d="M243.91 130.79L231.61 138.25L221.02 132.58" id="a4yW7wVsF"></path><path d="M244.25 126.63L231.61 133.91L220.36 125.22" id="g1JazgbLhP"></path><path d="M233.3 117.57L229.71 117.29" id="dxSvSMGAI"></path><path d="M231.61 133.91L231.61 117.29" id="egjnUqgGe"></path><path d="M231.61 147.22L231.61 138.25" id="b27Lwb7xB"></path><path d="M93.89 226.91L94.94 305.85L102.43 317.31L99.5 324.41L102.2 327.05L99.12 332.38L99.12 337.52L95.2 342.15L94.94 345.43L98.79 348.38L98.34 353.07L102.84 355.52L103.04 369.33L38.29 369.47L38.13 354.43L40.47 353.92L40.6 345.24L43.24 344.09L42.72 336.89L39.89 335.09L40.92 330.46L36.62 326.67L43.63 316.5L38.13 181.68L43.85 170.18L53.16 166.28L51.37 154.71L56.83 154.71L54 146.81L57.21 138.84L66.98 131.58L77.27 139.24L78.68 146.13L75.82 154.02L83.25 153.68L81.42 165.23L93.89 167.29L97.78 177.02L106.23 177.93L93.89 226.91Z" id="a2ykpr0jsC"></path><path d="" id="aLN7UBfoI"></path><path d="M78.08 145.6L56.18 145.97" id="c2z92yIxVJ"></path><path d="M77.86 145.44C70.48 148.21 63.39 148.39 56.61 145.97" id="by8srWN07"></path><path d="M78.24 145.44C61.08 154.87 65.44 149.04 55.7 145.97" id="fIyaZLFot"></path><path d="M77.7 145.6C65.66 158.49 63.55 153.94 55.7 146.35" id="b1gslkHoer"></path><path d="M60.07 167.98C63.56 169.22 67.96 169.17 73.28 167.82C72.08 162.38 73.81 154.92 78.45 145.44C68.05 158.97 66.21 159.95 54.69 146.93C58.88 152.67 60.11 163.5 60.07 167.98Z" id="f3qG4gJ2B"></path><path d="M57.41 145.97L57.41 138.99" id="k3UMcu0KFO"></path><path d="M60.44 145.6L60.44 136.06" id="aGH9gOMwK"></path><path d="M63 145.6L62.84 135.16" id="bNnBTsWVC"></path><path d="M65.02 145.6L64.92 132.26" id="ayNlIyU5R"></path><path d="M68.54 145.6L68.86 133.48" id="a4MjdW6VRS"></path><path d="M71.58 145.6L71.2 135.03" id="f9qFpGDuv"></path><path d="M74.51 145.6L74.35 137.16" id="a7pRuC4lp"></path><path d="M76.69 145.6L76.69 139.77" id="c29zuGFbum"></path><path d="M66.7 171.68C58.79 168.53 54.11 160.57 54.32 154.95" id="a2kwH4Kn2v"></path><path d="M68.86 172.74C75.93 170.4 79.92 164.24 80.85 154.26" id="k6R6fUVKh"></path><path d="M63.8 175.57C56.38 170.49 52.36 163.54 51.76 154.74" id="bvDZis6FR"></path><path d="M82.66 154.26C82.45 164.66 78.22 171.77 69.98 175.57" id="ciF1aeBAu"></path><path d="M69.64 183.3C65.49 176.99 64.21 177.96 63.8 175.27C63.39 172.58 65.83 171.01 68.01 172.54C70.18 174.07 69.45 175.5 72.48 181.39C76.77 186.73 78.59 189.44 85.15 193.9C82.44 197.8 79.91 201.02 75.6 202.25C75.27 196.05 72.59 190.05 69.64 183.3Z" id="dw23v3VWq"></path><path d="M48.62 197.58C54.48 194.74 59.9 188.15 64.89 177.81" id="bs5gRuqP9"></path><path d="M68.72 182.03C64.94 195.27 61.35 204.94 57.96 211.03C52.86 220.17 44.07 217.04 43.37 212.45C42.68 207.86 43.3 190.29 43.37 183.27C48.69 181.87 51.13 182.01 54.31 183.27C53.37 185.24 53.31 188.51 54.13 193.1" id="bYPilME6M"></path><path d="M55.72 167.98C48.4 169.44 44.3 174.52 43.43 183.22" id="a1aFHqUhRt"></path><path d="M75.58 201.98C76.59 209.01 77.3 212.96 77.71 213.83C78.32 215.14 83.16 220.85 87.87 214.43C92.58 208.01 93.81 184.88 93.71 182.03C92.36 180.98 86.08 179.87 82.9 181.44C83.36 183.8 82.94 186.97 81.64 190.95" id="a1oKt0IDp6"></path><path d="M93.72 182.03C95.36 173.16 90.82 167.89 80.11 166.23" id="b6rxJnA7T"></path><path d="M66.59 207.56L67.03 187.41" id="fA9fEdSQ2"></path><path d="M73.85 207.95L73.64 193.2" id="a2afRMx27e"></path><path d="M69.81 224.36C73.43 224.42 76.86 219.83 76.86 215.35C76.86 210.87 73.92 206.56 69.81 206.45C65.7 206.34 62.39 210.66 62.39 215.13C62.39 219.61 66.19 224.31 69.81 224.36Z" id="d187Ol5yVv"></path><path d="M94.62 226.07C96.43 207.98 100.44 177.52 93.05 167.45" id="b1fgpT6VXO"></path><path d="M83.81 217.42C86.92 225.25 88.35 233.24 88.08 241.4C85.35 238.97 83.72 236.17 78.2 235.65C78.75 230.95 78.98 224.2 78.89 215.41" id="a81BYTnHT"></path><path d="M62.97 218.86C61.55 226.6 60.98 232.72 61.26 237.21C58.7 237.93 54.21 238.94 49.4 244.71C48.15 241.14 49.6 231.49 53.77 215.78" id="b2ATOc0oms"></path><path d="M74.29 222.26L71.09 333.86L64.57 333.86L66.27 222.96" id="b1jleOxfpH"></path><path d="M51.58 331.76C47.37 327.63 46.65 321.19 46.18 319.12C45.7 317.06 49.52 302.67 49.99 299.65C50.47 296.63 47.27 279.97 46.8 276.31C46.48 273.87 48.2 262.5 51.97 242.19" id="a6ptrxc6n"></path><path d="M87.27 240.29C91.73 278.96 93.77 303.23 93.4 313.08C97.69 320.18 96.92 326.7 91.09 332.64" id="b6bOTp35dX"></path><path d="M99.28 332.12C91.33 332.76 42.48 338.56 37.12 326.08" id="aoWN9r5HI"></path><path d="M95.62 342.96C83.54 342.41 51.86 350.26 42.68 337" id="bZBuKDagB"></path><path d="M40.77 346.22C50.58 352.1 68.51 351.95 94.59 345.75" id="b216unflog"></path><path d="M40.77 353.14C47.56 358.86 66.55 358.62 97.77 352.42" id="bjFQ9Xol7"></path></defs><g><g><g><use xlink:href="#d68agd8kw5" opacity="1" fill="#9b7647" fill-opacity="1"></use></g><g><use xlink:href="#gbPJDSVID" opacity="1" fill="#04798d" fill-opacity="1"></use></g><g><use xlink:href="#aFdbPDVEG" opacity="1" fill="#d2a464" fill-opacity="1"></use></g><g><use xlink:href="#d4yBaTpfu" opacity="1" fill="#175e6f" fill-opacity="1"></use></g><g><use xlink:href="#a110Fq1FTT" opacity="1" fill="#2e8086" fill-opacity="1"></use></g><g><use xlink:href="#a1CXKH8Dds" opacity="1" fill="#545454" fill-opacity="1"></use></g><g><g><g><use xlink:href="#dyLal69By" opacity="1" fill-opacity="0" stroke="#2d2d2d" stroke-width="1" stroke-opacity="1"></use></g></g><g><g><use xlink:href="#b2VpWrgp4H" opacity="1" fill-opacity="0" stroke="#2d2d2d" stroke-width="1" stroke-opacity="1"></use></g></g><g><g><use xlink:href="#dyGrQgzbJ" opacity="1" fill-opacity="0" stroke="#2d2d2d" stroke-width="1" stroke-opacity="1"></use></g></g><g><g><use xlink:href="#c6ZriI1zeY" opacity="1" fill-opacity="0" stroke="#2d2d2d" stroke-width="1" stroke-opacity="1"></use></g></g><g><g><use xlink:href="#c7RRQxbaU" opacity="1" fill-opacity="0" stroke="#2d2d2d" stroke-width="1" stroke-opacity="1"></use></g></g><g><g><use xlink:href="#b894T6uyDV" opacity="1" fill-opacity="0" stroke="#2d2d2d" stroke-width="1" stroke-opacity="1"></use></g></g><g><g><use xlink:href="#b2nZUNhnhJ" opacity="1" fill-opacity="0" stroke="#2d2d2d" stroke-width="1" stroke-opacity="1"></use></g></g><g><g><use xlink:href="#a5YkVJ4UX" opacity="1" fill-opacity="0" stroke="#2d2d2d" stroke-width="1" stroke-opacity="1"></use></g></g><g><g><use xlink:href="#n2qfp83UpC" opacity="1" fill-opacity="0" stroke="#2d2d2d" stroke-width="1" stroke-opacity="1"></use></g></g><g><g><use xlink:href="#b34wnM9CuR" opacity="1" fill-opacity="0" stroke="#2d2d2d" stroke-width="1" stroke-opacity="1"></use></g></g><g><g><use xlink:href="#d1qbOoFEG" opacity="1" fill-opacity="0" stroke="#2d2d2d" stroke-width="1" stroke-opacity="1"></use></g></g><g><g><use xlink:href="#e2kPDE0Xe4" opacity="1" fill-opacity="0" stroke="#2d2d2d" stroke-width="1" stroke-opacity="1"></use></g></g><g><g><use xlink:href="#c3Toaw7XB" opacity="1" fill-opacity="0" stroke="#2d2d2d" stroke-width="1" stroke-opacity="1"></use></g></g><g><g><use xlink:href="#l17gcnZalW" opacity="1" fill-opacity="0" stroke="#2d2d2d" stroke-width="1" stroke-opacity="1"></use></g></g><g><g><use xlink:href="#a17sI0sNe" opacity="1" fill-opacity="0" stroke="#2d2d2d" stroke-width="1" stroke-opacity="1"></use></g></g><g><g><use xlink:href="#jl14rRhaH" opacity="1" fill-opacity="0" stroke="#2d2d2d" stroke-width="1" stroke-opacity="1"></use></g></g><g><g><use xlink:href="#b12nB9IfSe" opacity="1" fill-opacity="0" stroke="#2d2d2d" stroke-width="1" stroke-opacity="1"></use></g></g><g><g><use xlink:href="#a4g8cyT8F" opacity="1" fill-opacity="0" stroke="#2d2d2d" stroke-width="1" stroke-opacity="1"></use></g></g><g><g><use xlink:href="#a5BWU4bIk" opacity="1" fill-opacity="0" stroke="#2d2d2d" stroke-width="1" stroke-opacity="1"></use></g></g><g><g><use xlink:href="#h2klpjRBGm" opacity="1" fill-opacity="0" stroke="#2d2d2d" stroke-width="1" stroke-opacity="1"></use></g></g><g><g><use xlink:href="#b3bf1fW9Fo" opacity="1" fill-opacity="0" stroke="#2d2d2d" stroke-width="1" stroke-opacity="1"></use></g></g><g><g><use xlink:href="#f1xrWGhAhe" opacity="1" fill-opacity="0" stroke="#2d2d2d" stroke-width="1" stroke-opacity="1"></use></g></g><g><g><use xlink:href="#bT76RpHAL" opacity="1" fill-opacity="0" stroke="#2d2d2d" stroke-width="1" stroke-opacity="1"></use></g></g><g><g><use xlink:href="#dzfZca9a" opacity="1" fill-opacity="0" stroke="#2d2d2d" stroke-width="1" stroke-opacity="1"></use></g></g><g><g><use xlink:href="#b1meF4gejY" opacity="1" fill-opacity="0" stroke="#2d2d2d" stroke-width="1" stroke-opacity="1"></use></g></g><g><g><use xlink:href="#b2O6jctN1v" opacity="1" fill-opacity="0" stroke="#2d2d2d" stroke-width="1" stroke-opacity="1"></use></g></g><g><g><use xlink:href="#dj5ahQbz5" opacity="1" fill-opacity="0" stroke="#2d2d2d" stroke-width="1" stroke-opacity="1"></use></g></g><g><g><use xlink:href="#a2rAzqeN96" opacity="1" fill-opacity="0" stroke="#2d2d2d" stroke-width="1" stroke-opacity="1"></use></g></g><g><g><use xlink:href="#a3kHvgBTsT" opacity="1" fill-opacity="0" stroke="#2d2d2d" stroke-width="1" stroke-opacity="1"></use></g></g><g><g><use xlink:href="#a25cZzOAQy" opacity="1" fill-opacity="0" stroke="#2d2d2d" stroke-width="1" stroke-opacity="1"></use></g></g><g><g><use xlink:href="#a1kHJal26v" opacity="1" fill-opacity="0" stroke="#2d2d2d" stroke-width="1" stroke-opacity="1"></use></g></g><g><g><use xlink:href="#a1pkOnEIz0" opacity="1" fill-opacity="0" stroke="#2d2d2d" stroke-width="1" stroke-opacity="1"></use></g></g><g><g><use xlink:href="#b2w5YpwwWv" opacity="1" fill-opacity="0" stroke="#2d2d2d" stroke-width="1" stroke-opacity="1"></use></g></g><g><g><use xlink:href="#g8AFlonmL" opacity="1" fill-opacity="0" stroke="#2d2d2d" stroke-width="1" stroke-opacity="1"></use></g></g><g><g><use xlink:href="#a5CZPWT1AU" opacity="1" fill-opacity="0" stroke="#2d2d2d" stroke-width="1" stroke-opacity="1"></use></g></g><g><g><use xlink:href="#c2EUGpJyR2" opacity="1" fill-opacity="0" stroke="#2d2d2d" stroke-width="1" stroke-opacity="1"></use></g></g><g><g><use xlink:href="#c3gW5Z8t" opacity="1" fill-opacity="0" stroke="#2d2d2d" stroke-width="1" stroke-opacity="1"></use></g></g><g><g><use xlink:href="#h5cjC9fME4" opacity="1" fill-opacity="0" stroke="#2d2d2d" stroke-width="1" stroke-opacity="1"></use></g></g><g><g><use xlink:href="#ab7ZkEdtC8" opacity="1" fill-opacity="0" stroke="#2d2d2d" stroke-width="1" stroke-opacity="1"></use></g></g><g><g><use xlink:href="#a2vDSN3Quc" opacity="1" fill-opacity="0" stroke="#2d2d2d" stroke-width="1" stroke-opacity="1"></use></g></g><g><g><use xlink:href="#bwOdyji8t" opacity="1" fill-opacity="0" stroke="#2d2d2d" stroke-width="1" stroke-opacity="1"></use></g></g><g><g><use xlink:href="#a5JvUTziw" opacity="1" fill-opacity="0" stroke="#2d2d2d" stroke-width="1" stroke-opacity="1"></use></g></g><g><g><use xlink:href="#e2bbje31IU" opacity="1" fill-opacity="0" stroke="#2d2d2d" stroke-width="1" stroke-opacity="1"></use></g></g><g><g><use xlink:href="#c3W1jIezW0" opacity="1" fill-opacity="0" stroke="#2d2d2d" stroke-width="1" stroke-opacity="1"></use></g></g><g><g><use xlink:href="#a18AwXuXqC" opacity="1" fill-opacity="0" stroke="#2d2d2d" stroke-width="1" stroke-opacity="1"></use></g></g><g><g><use xlink:href="#b1nSbtnVl5" opacity="1" fill-opacity="0" stroke="#2d2d2d" stroke-width="1" stroke-opacity="1"></use></g></g><g><g><use xlink:href="#a2YZXRJrcu" opacity="1" fill-opacity="0" stroke="#2d2d2d" stroke-width="1" stroke-opacity="1"></use></g></g><g><g><use xlink:href="#bxEEqIU17" opacity="1" fill-opacity="0" stroke="#2d2d2d" stroke-width="1" stroke-opacity="1"></use></g></g><g><g><use xlink:href="#a15utGzts" opacity="1" fill-opacity="0" stroke="#2d2d2d" stroke-width="1" stroke-opacity="1"></use></g></g><g><g><use xlink:href="#b3uNB9Aa47" opacity="1" fill-opacity="0" stroke="#2d2d2d" stroke-width="1" stroke-opacity="1"></use></g></g><g><g><use xlink:href="#a5ZGEbMsNN" opacity="1" fill-opacity="0" stroke="#2d2d2d" stroke-width="1" stroke-opacity="1"></use></g></g><g><g><use xlink:href="#b8H0CGftd" opacity="1" fill-opacity="0" stroke="#2d2d2d" stroke-width="1" stroke-opacity="1"></use></g></g><g><g><use xlink:href="#a4yW7wVsF" opacity="1" fill-opacity="0" stroke="#2d2d2d" stroke-width="1" stroke-opacity="1"></use></g></g><g><g><use xlink:href="#g1JazgbLhP" opacity="1" fill-opacity="0" stroke="#2d2d2d" stroke-width="1" stroke-opacity="1"></use></g></g><g><g><use xlink:href="#dxSvSMGAI" opacity="1" fill-opacity="0" stroke="#2d2d2d" stroke-width="1" stroke-opacity="1"></use></g></g><g><g><use xlink:href="#egjnUqgGe" opacity="1" fill-opacity="0" stroke="#2d2d2d" stroke-width="1" stroke-opacity="1"></use></g></g><g><g><use xlink:href="#b27Lwb7xB" opacity="1" fill-opacity="0" stroke="#2d2d2d" stroke-width="1" stroke-opacity="1"></use></g></g></g><g><use xlink:href="#a2ykpr0jsC" opacity="1" fill="#545454" fill-opacity="1"></use></g><g><g><g><use xlink:href="#aLN7UBfoI" opacity="1" fill-opacity="0" stroke="#2d2d2d" stroke-width="1" stroke-opacity="1"></use></g></g><g><g><use xlink:href="#c2z92yIxVJ" opacity="1" fill-opacity="0" stroke="#2d2d2d" stroke-width="1" stroke-opacity="1"></use></g></g><g><g><use xlink:href="#by8srWN07" opacity="1" fill-opacity="0" stroke="#2d2d2d" stroke-width="1" stroke-opacity="1"></use></g></g><g><g><use xlink:href="#fIyaZLFot" opacity="1" fill-opacity="0" stroke="#2d2d2d" stroke-width="1" stroke-opacity="1"></use></g></g><g><g><use xlink:href="#b1gslkHoer" opacity="1" fill-opacity="0" stroke="#2d2d2d" stroke-width="1" stroke-opacity="1"></use></g></g><g><g><use xlink:href="#f3qG4gJ2B" opacity="1" fill-opacity="0" stroke="#2d2d2d" stroke-width="1" stroke-opacity="1"></use></g></g><g><g><use xlink:href="#k3UMcu0KFO" opacity="1" fill-opacity="0" stroke="#2d2d2d" stroke-width="1" stroke-opacity="1"></use></g></g><g><g><use xlink:href="#aGH9gOMwK" opacity="1" fill-opacity="0" stroke="#2d2d2d" stroke-width="1" stroke-opacity="1"></use></g></g><g><g><use xlink:href="#bNnBTsWVC" opacity="1" fill-opacity="0" stroke="#2d2d2d" stroke-width="1" stroke-opacity="1"></use></g></g><g><g><use xlink:href="#ayNlIyU5R" opacity="1" fill-opacity="0" stroke="#2d2d2d" stroke-width="1" stroke-opacity="1"></use></g></g><g><g><use xlink:href="#a4MjdW6VRS" opacity="1" fill-opacity="0" stroke="#2d2d2d" stroke-width="1" stroke-opacity="1"></use></g></g><g><g><use xlink:href="#f9qFpGDuv" opacity="1" fill-opacity="0" stroke="#2d2d2d" stroke-width="1" stroke-opacity="1"></use></g></g><g><g><use xlink:href="#a7pRuC4lp" opacity="1" fill-opacity="0" stroke="#2d2d2d" stroke-width="1" stroke-opacity="1"></use></g></g><g><g><use xlink:href="#c29zuGFbum" opacity="1" fill-opacity="0" stroke="#2d2d2d" stroke-width="1" stroke-opacity="1"></use></g></g><g><g><use xlink:href="#a2kwH4Kn2v" opacity="1" fill-opacity="0" stroke="#2d2d2d" stroke-width="1" stroke-opacity="1"></use></g></g><g><g><use xlink:href="#k6R6fUVKh" opacity="1" fill-opacity="0" stroke="#2d2d2d" stroke-width="1" stroke-opacity="1"></use></g></g><g><g><use xlink:href="#bvDZis6FR" opacity="1" fill-opacity="0" stroke="#2d2d2d" stroke-width="1" stroke-opacity="1"></use></g></g><g><g><use xlink:href="#ciF1aeBAu" opacity="1" fill-opacity="0" stroke="#2d2d2d" stroke-width="1" stroke-opacity="1"></use></g></g><g><g><use xlink:href="#dw23v3VWq" opacity="1" fill-opacity="0" stroke="#2d2d2d" stroke-width="1" stroke-opacity="1"></use></g></g><g><g><use xlink:href="#bs5gRuqP9" opacity="1" fill-opacity="0" stroke="#2d2d2d" stroke-width="1" stroke-opacity="1"></use></g></g><g><g><use xlink:href="#bYPilME6M" opacity="1" fill-opacity="0" stroke="#2d2d2d" stroke-width="1" stroke-opacity="1"></use></g></g><g><g><use xlink:href="#a1aFHqUhRt" opacity="1" fill-opacity="0" stroke="#2d2d2d" stroke-width="1" stroke-opacity="1"></use></g></g><g><g><use xlink:href="#a1oKt0IDp6" opacity="1" fill-opacity="0" stroke="#2d2d2d" stroke-width="1" stroke-opacity="1"></use></g></g><g><g><use xlink:href="#b6rxJnA7T" opacity="1" fill-opacity="0" stroke="#2d2d2d" stroke-width="1" stroke-opacity="1"></use></g></g><g><g><use xlink:href="#fA9fEdSQ2" opacity="1" fill-opacity="0" stroke="#2d2d2d" stroke-width="1" stroke-opacity="1"></use></g></g><g><g><use xlink:href="#a2afRMx27e" opacity="1" fill-opacity="0" stroke="#2d2d2d" stroke-width="1" stroke-opacity="1"></use></g></g><g><g><use xlink:href="#d187Ol5yVv" opacity="1" fill-opacity="0" stroke="#2d2d2d" stroke-width="1" stroke-opacity="1"></use></g></g><g><g><use xlink:href="#b1fgpT6VXO" opacity="1" fill-opacity="0" stroke="#2d2d2d" stroke-width="1" stroke-opacity="1"></use></g></g><g><g><use xlink:href="#a81BYTnHT" opacity="1" fill-opacity="0" stroke="#2d2d2d" stroke-width="1" stroke-opacity="1"></use></g></g><g><g><use xlink:href="#b2ATOc0oms" opacity="1" fill-opacity="0" stroke="#2d2d2d" stroke-width="1" stroke-opacity="1"></use></g></g><g><g><use xlink:href="#b1jleOxfpH" opacity="1" fill-opacity="0" stroke="#2d2d2d" stroke-width="1" stroke-opacity="1"></use></g></g><g><g><use xlink:href="#a6ptrxc6n" opacity="1" fill-opacity="0" stroke="#2d2d2d" stroke-width="1" stroke-opacity="1"></use></g></g><g><g><use xlink:href="#b6bOTp35dX" opacity="1" fill-opacity="0" stroke="#2d2d2d" stroke-width="1" stroke-opacity="1"></use></g></g><g><g><use xlink:href="#aoWN9r5HI" opacity="1" fill-opacity="0" stroke="#2d2d2d" stroke-width="1" stroke-opacity="1"></use></g></g><g><g><use xlink:href="#bZBuKDagB" opacity="1" fill-opacity="0" stroke="#2d2d2d" stroke-width="1" stroke-opacity="1"></use></g></g><g><g><use xlink:href="#b216unflog" opacity="1" fill-opacity="0" stroke="#2d2d2d" stroke-width="1" stroke-opacity="1"></use></g></g><g><g><use xlink:href="#bjFQ9Xol7" opacity="1" fill-opacity="0" stroke="#2d2d2d" stroke-width="1" stroke-opacity="1"></use></g></g></g></g></g></svg>