<?xml version="1.0" encoding="UTF-8" standalone="no"?>
<!DOCTYPE svg PUBLIC "-//W3C//DTD SVG 1.1//EN" "http://www.w3.org/Graphics/SVG/1.1/DTD/svg11.dtd">
<svg version="1.1" xmlns="http://www.w3.org/2000/svg" xmlns:xlink="http://www.w3.org/1999/xlink" preserveAspectRatio="xMidYMid meet" viewBox="40.24166666666662 51.50166666666678 261.99999999999994 262" width="262" height="262"><defs><path d="M40.24 51.5L302.24 51.5L302.24 313.5L40.24 313.5L40.24 51.5Z" id="c4Nw38qQmm"></path><path d="M102.61 285.59L102.61 270.34L57.4 241.45L64.23 228.8L40.8 207.1L40.24 186.49L47.35 172.5L56.19 165.68L94.57 144.53L112.86 142.78L133.66 146.83L136.71 121.08L129.57 123.52L130.69 89.65L134.35 79.78L146.64 68.25L131.3 55.01L131.91 52.14L148.11 65.44L148.9 58.82L156.74 53.42L166.15 56.38L169.2 64.57L169.46 75.63L176.45 81.72L173.58 85.17L179.33 90.34L178.37 95.83L171.24 89.65L166.35 96.88L166.78 137.73L178.98 151.84L179.76 147.31L184.64 143.74L181.42 141.22L186.64 136.16L184.12 131.46L188.04 128.67L185.51 125.19L190.13 122.84L187.6 117.35L192.65 116.13L190.74 110.12L193.53 108.99L193.53 104.46L197.18 103.24L196.66 99.14L201.78 97.96L200.77 92.91L206.27 96.06L203.35 83.71L209.75 88.87L218.95 89.43L218.95 79.78L225.01 85.17L226.82 91.16L232.55 94.64L236.09 93.18L238.83 95.43L238.83 101.04L245.9 109.23L253.38 112.6L256.45 119.67L252.3 127.19L243.77 127.19L243.77 128.98L247.7 134.15L244.33 134.15L243.32 145.15L236.36 141.67L230.86 146.83L231.49 170.26L241.63 196.82L257.45 195.02L262.72 199.62L261.28 208.94L272.72 219.49L273.4 224.99L266.89 240.59L257.19 249.21L253.38 245.62L254.95 240.01L236.09 250.67L222.18 250.67L231.49 232.49L238.45 232.15L242.26 235.74L246.31 233.83L248.33 214.3L222.88 228.8L219.4 229.19L209.19 221.29L198.86 229.19L154.4 229.19L141.15 220.1L126.11 229.19L103.78 249.77L148.11 290.84L154.71 313.01L76.93 313.01L76.93 284.99L102.61 285.59Z" id="b6lx709ldo"></path><path d="M69.81 182.17L64.06 185.82L68.33 194.71L81.48 201.59L75.12 212.83L63.36 208.82L57.96 195.41L61.62 178.77L80.96 162.3L69.81 182.17Z" id="a35LAEBIzh"></path><path d="M110.82 131.23L112.83 124.01L116.77 121.1L124.59 122.45L128.31 130.71L124 137.19L116.1 136.89L110.82 131.23Z" id="agBq1Edz9"></path><path d="M257.95 229.01L263.17 229.19L262.79 223.09L259.02 221.14L257.95 229.01Z" id="c3PVPtM1R6"></path><path d="M225.13 122.07L224.76 129.24L235.57 131.75L225.13 122.07Z" id="a17RFhszXM"></path><path d="M254.49 122.24C251.21 119 251.21 117.01 254.49 116.29" id="c4LckXZlWM"></path><path d="M244.64 120.67C245.92 121.87 245.58 124.82 244.25 126.08C242.92 127.35 240.41 127.09 239.33 125.74C238.25 124.38 237.85 123.12 239.13 121.26C240.41 119.4 243.37 119.46 244.64 120.67Z" id="c2TxDIqjD9"></path><path d="M251.58 127.12C250.07 124.03 247.98 123.01 245.28 124.06" id="f1mY97ZHQV"></path><path d="M237.31 100.65C237.31 101.6 236.36 102.4 235.39 102.52C234.42 102.64 233.57 101.84 233.57 100.89C233.57 99.95 234.42 98.85 235.39 98.73C236.36 98.61 237.31 99.7 237.31 100.65Z" id="eEGWu5Dwc"></path><path d="M238.64 99.02C236.87 94.63 234.1 94.41 230.32 98.38" id="aVdKKOogb"></path><path d="M238.64 101.47C237.64 102.87 237.01 103.75 236.76 104.1C236.23 104.83 235.16 104.91 234.53 104.26C233.93 103.64 232.43 102.09 230.03 99.6" id="ahvjgP24e"></path><path d="M240.76 119.93C227.47 114.92 222.7 112.06 221.07 104.03C220.15 99.46 222.18 96.46 227.18 95.03C228.14 94.75 228.72 93.77 228.5 92.8C228.48 92.71 228.43 92.51 228.36 92.17" id="bieb6h8Mm"></path><path d="M221.02 100.84C225.16 103.03 228.2 102.48 230.16 99.16" id="h1hTlwDBNv"></path><path d="M221.52 105.17C227.58 104.97 231.13 103.89 232.14 101.92" id="a1bZqMZDx6"></path><path d="M252.72 113.24C248.78 115.4 243.53 112.32 236.97 103.98" id="bjy1iMKB7"></path><path d="M228.31 114.47C229.23 111.74 231.73 108.49 235.84 104.7" id="bufPYQ4Cu"></path><path d="M232.69 116.58C232.75 113.24 234.84 109.91 238.94 106.59" id="d5KHRQp1iy"></path><path d="M240.27 119.54C240.3 116.48 241.77 113.96 244.69 111.96" id="g5sttHJVlY"></path><path d="M244.3 120.22C244.5 116.88 246.12 114.73 249.17 113.78" id="ayzrJNdTl"></path><path d="M238.33 122.53C236.99 125.06 234.26 126.27 230.16 126.17" id="ecpeuJsUI"></path><path d="M239.25 125.29C237.57 127.52 235.72 128.83 233.69 129.23" id="a1gkrsQ1S"></path><path d="M222.78 93.66C219.97 90.98 218.97 86.75 219.78 80.96C221.48 81.92 225.2 84.01 226.42 93.16" id="f1hF8V58eU"></path><path d="M220.32 90.06C216.51 90.92 213.28 90.54 210.62 88.93" id="a2eF68DD5E"></path><path d="M236.66 132.09C232.43 127.07 228.42 123.48 224.65 121.31C218.99 118.05 214.11 110.67 215.2 105.46C216.3 100.26 217.45 100.85 217.42 94.59" id="ca4cmXr1n"></path><path d="M206.64 96.75C205.22 90.11 204.31 86 203.94 84.4C210.32 91.2 214.73 94.28 217.17 93.66" id="bpqbd68OJ"></path><path d="M215.97 102.42L200.86 93.51" id="b4REkOihZ"></path><path d="M214.84 108.27L197.07 99.32" id="e5kvoR6tiR"></path><path d="M191.51 110.11L214.94 119.54L213.56 112.76L215.82 111.29" id="aeOaw9qcR"></path><path d="M194.41 104.45L213.61 112.72" id="f2DCK8KFet"></path><path d="M188.47 118.06L213.03 126.72L213.03 118.8" id="f3sKZnbYJ3"></path><path d="M224.95 129.47L224.95 121.59" id="c1gj6YO5eE"></path><path d="M169.1 133.76C196.5 121.28 224.33 128.88 243.63 134.23C243.51 137.55 242.63 140.74 242.65 144.23C226.83 137.97 205.79 124 167.09 136.22" id="iN1DSZPo"></path><path d="M234.46 177.81C233.25 172.23 232.73 171.79 233.62 168.78C220.55 166.07 206.09 161.44 190.23 154.87C188.4 154.12 186.29 154.69 185.09 156.26C184.26 157.35 183.45 158.24 182.65 158.91C199.68 166.66 214.97 173.39 234.46 177.81Z" id="kZeeYnA9x"></path><path d="M230.85 167.92L229.81 138.63" id="a2XmUL4L17"></path><path d="M230.33 146.23L236.04 141.23" id="e2VJZJppxT"></path><path d="M213.03 160.65L213.96 133.5" id="b4RzNP6Jy4"></path><path d="M213.96 137.34C217.87 141.52 217.71 145.14 213.5 148.18C217.11 154.39 216.31 159.2 211.11 162.6" id="aA756cu3"></path><path d="M214.55 163.5C218.49 159.41 219.03 154.54 216.17 148.89C219.81 145.67 219.74 140.65 215.98 133.83" id="b10VHNUbPE"></path><path d="M213.5 143.24L184.68 132.34" id="b2F6N6ZK2T"></path><path d="M213.03 150.32L182.41 140.19" id="b1qFDF0Zuk"></path><path d="M212.67 158.11L180.91 147.08" id="b2LaL3S3oo"></path><path d="M169.45 91.79C169.95 88.99 172.1 85.82 175.89 82.28C176.02 82.16 176.23 82.24 176.25 82.41C176.41 84.02 176.1 85.56 175.33 87.05" id="b3hbogBEUE"></path><path d="M170.38 84.03C172.71 82.5 174.18 81.54 174.76 81.16C175.19 80.87 175.77 81.18 175.77 81.7C175.77 81.8 175.77 82.04 175.77 82.43" id="aThmAGkP"></path><path d="M169.58 82.32C171.63 80.73 172.92 79.74 173.44 79.34C173.71 79.13 174.1 79.3 174.13 79.64C174.16 79.86 174.22 80.43 174.31 81.34" id="e2M542HlNt"></path><path d="M167.5 81.05C169.73 79.46 171.12 78.46 171.67 78.07C172.08 77.77 172.65 78.04 172.69 78.54C172.7 78.7 172.73 79.11 172.78 79.77" id="c4XjZtDMjk"></path><path d="M167.03 92.88C165.8 90.56 163.71 89.29 160.76 89.06C161.07 86.96 159.82 84.58 161.71 81.59C164.16 81.54 165.28 80.95 165.06 79.81C167.42 77.94 168.9 76.77 169.49 76.3C169.99 75.9 170.73 76.23 170.78 76.87C170.8 77.11 170.85 77.71 170.92 78.68" id="a1K010hcXn"></path><path d="M170.38 88.44C167.73 85.16 165.13 83.47 162.58 83.38" id="ekZvIMUtC"></path><path d="M160.76 86.47C163.12 85.79 166.01 87.3 169.45 90.99" id="aCuLc6u8O"></path><path d="M165.67 79.08C157.81 72.44 152.07 67.8 148.44 65.13C150.11 62.12 150.15 56.77 156.53 53.88C164.37 55.13 166.61 56.92 168 61.56C168.93 64.66 169.41 69.51 169.45 76.13L165.67 79.08Z" id="c6cctRZ44"></path><path d="M160.53 66.82C163.45 66.82 166.36 68.74 169.27 72.57" id="gfhYRsyHz"></path><path d="M156.2 71.55C157.95 67.5 157.8 64.88 155.73 63.69C155.68 62.52 155.66 61.78 155.67 61.47C155.71 60.59 156.2 59.78 156.97 59.35C157.24 59.19 157.29 59.17 157.68 58.95C158.07 58.73 158.55 58.73 158.95 58.95C160.23 59.67 163.43 61.48 168.54 64.38" id="jjfZV3XtT"></path><path d="M169.7 91.34C157.7 109.14 151.2 117.31 130.02 123.08C129.62 116.74 128.98 105.52 130.53 94.49C131.56 87.14 133.45 81.96 136.21 78.95C141.6 73.34 144.98 69.83 146.33 68.43C146.41 68.34 146.55 68.33 146.64 68.41C148.69 70.13 153.82 74.43 162.03 81.31" id="b7j08fiDk"></path><path d="M138.38 110.02C141.85 105.41 149.31 98.33 160.76 88.78" id="elbmsz7D4"></path><path d="M156.24 108.56C150.34 106.94 149.05 103.52 148.88 99.27" id="dtutuYUk"></path><path d="M133.89 116.43C132.98 116.15 131.58 115.59 129.71 114.76L129.54 109.67C131.5 106.49 133.13 104.44 134.45 103.51C136.42 102.12 143.92 102.55 145.3 102.5C148.89 113.05 136.28 114.22 133.89 116.43Z" id="awDmg1VvZ"></path><path d="M144.54 102.48L151.8 85.09" id="a4yncCvL1"></path><path d="M158.39 90.45C155.71 75.77 153.08 72.18 140.98 73.9" id="g1qzSGtDdT"></path><path d="M148.88 88.44C146 84.47 140.98 82.51 133.82 82.54" id="a8xbppiXJb"></path><path d="M147.54 91.79C145.25 87.54 140.31 85.34 132.71 85.2" id="c5ec2MukwD"></path><path d="M147.09 95.28C142.68 90.77 137.45 89.02 131.4 90.03" id="ekA3MdtEP"></path><path d="M143.96 208.93C148.44 199.61 152.99 193.92 157.6 191.86C173.63 184.32 178.08 179.9 182.88 174.93C187.67 169.96 184.9 166.44 183.36 161.56C181.4 155.24 174.51 146.56 166.02 137.58C167.66 132.69 167.58 119.08 165.78 96.75" id="cdI50Yb6e"></path><path d="M134.88 150.32L136.73 121.1" id="dwgnIzM10"></path><path d="M136.73 193C137.79 187.35 139.87 180.36 142.97 172.03C151.79 152.41 140.29 137.33 136.93 121.1" id="a30MEqfRsv"></path><path d="M180.72 155.71C176.76 153.06 173.52 152.58 170.98 154.27C163.75 146.8 145.21 135.13 138.91 128.02" id="b6NKw4JZm"></path><path d="M146.93 135.28C153.51 134.14 159.93 134.78 166.19 137.19" id="eno0rvA1b"></path><path d="M138.09 125.76C154.54 125.55 159.97 128.86 165.43 136.93" id="enMmi8g7L"></path><path d="M175.33 148.44C171.69 145.6 167.3 145.06 162.15 146.79" id="a2bJI0DAS8"></path><path d="M174.62 182.16C175.07 175.63 171.28 174.59 169.28 174.14C167.27 173.69 164.55 178.66 162.77 174.62C162.13 173.18 162.85 171.04 163.83 168.9C164.81 166.76 160.24 164.67 164.07 160.71C167.9 156.74 168.71 157.91 172.02 160.16C175.33 162.4 177.97 165.73 183.33 162.01" id="h1k497g9l"></path><path d="M146.45 203.89C138.53 202.6 135.46 199.36 131.03 196C139.14 192.58 154.98 173.06 162.99 171.06" id="a1CNsJtuX"></path><path d="M136.31 213.51C133.03 210.85 130.24 208.5 127.95 206.45C125.65 204.41 127.14 201.21 132.4 196.86" id="bmbH2mAj1"></path><path d="M174.77 182.5C162.23 198.12 154.21 207.64 150.71 211.08C147.22 214.52 145.59 218.49 145.84 223C139.85 218.85 135.8 215.94 133.71 214.3C143.59 210.69 153.42 202.26 163.18 189.01" id="d7LydfN8"></path><path d="M150.33 211.87C154.73 219.82 157.45 224.71 158.49 226.53C160.05 229.28 156.96 229.91 154.38 228.38C152.65 227.37 149.75 225.27 145.67 222.08" id="g1lTKKlJ0B"></path><path d="M185.39 199.2C179.49 204.27 168.98 207.04 153.86 207.49" id="a2N0exMbtq"></path><path d="M208.35 220.53C199.58 233.84 178.18 228.66 160.44 228.53" id="d6XoJ3ZwN"></path><path d="M251.4 211.58C240.97 218.04 233.02 222.86 227.54 226.04C219.34 230.8 216.18 226.33 214.18 224.74C212.17 223.14 198.91 212.66 195.74 208.36" id="a2w87qm7o"></path><path d="M223.02 249.75C226.81 248.16 229.76 242.4 231.86 232.48" id="e50XMV57CB"></path><path d="M235.78 249.95C239.66 246.62 240.69 240.68 238.86 232.13" id="fzePtu6iq"></path><path d="M240.98 241.39C245.37 240.93 248.16 238.37 249.35 233.71" id="b2rpKKUQ4L"></path><path d="M255.53 240.39C257.13 241.58 257.75 244.32 257.38 248.62" id="a5uV3WpT4c"></path><path d="M261.9 229.91C265.65 233.93 267.04 237.58 266.08 240.87" id="gg1Svcsik"></path><path d="M264.85 233.26C268.09 230.84 268.51 227.26 266.08 222.5" id="b2I8CmXGs"></path><path d="M259.92 220.47L261.35 209.16" id="a9ASPORYQ"></path><path d="M231.86 213.49C243.12 199.44 250.08 202.67 255.69 202.25" id="a1TeuEPgvp"></path><path d="M239.22 185.76C239.76 187 239.1 188.14 237.23 189.19L235.04 183.43C237.27 183.75 238.67 184.53 239.22 185.76Z" id="c3XYN4SVI"></path><path d="M209.18 191.47C211.51 191.4 213.85 188.31 213.77 185.57C213.68 182.83 211.16 180.43 208.83 180.5C206.5 180.57 204.36 183.1 204.45 185.85C204.53 188.59 206.84 191.53 209.18 191.47Z" id="aKTEQqZOG"></path><path d="M181.05 176.8C187.05 185.06 189.66 192.53 188.89 199.21C205.28 198.82 210.68 203.44 215.34 205.65C221.88 198.99 230.24 194.95 240.43 193.52" id="c22He6uuL"></path><path d="M241.02 197.29C229.97 198.99 222 203.72 217.1 211.48C212.22 209.68 200.15 200.15 186.12 202.98C186.27 191.8 183.82 183.69 178.78 178.65" id="b1pp7Dn5bs"></path><path d="M188.86 194.07L205.86 168.85" id="cPS49hBey"></path><path d="M210.74 170.84L194.69 199.49" id="bBujzId9"></path><path d="M216.7 172.62L212.51 204.28" id="e1wh2MoYVS"></path><path d="M219.5 201.82L221.62 174.26" id="cON71itDh"></path><path d="M120.3 120.65C124.73 107.56 125.85 97.5 123.65 90.45C121.44 83.4 123.91 70.84 131.04 52.75" id="a3SopMAmx0"></path><path d="M120.3 130.21L119.57 124.26" id="cotHVwm0n"></path><path d="M116.59 125.75L114.58 118.79" id="c1NkDszVh"></path><path d="M114.02 126.43L111.29 123.7" id="b37O1UGem"></path><path d="M114.99 129.73L108.88 127.72" id="k2Iro0owGe"></path><path d="M117.48 133.02L111.61 136.93" id="e8Oe4zpVE"></path><path d="M123.43 125.75L126.64 119.44" id="aVYlfcrUK"></path><path d="M132.51 133.02L125.67 129.32" id="a4vyI1ZRzz"></path><path d="M127.45 136.16L125.03 133.02" id="i2s56eiSEL"></path><path d="M122.94 140.58L121.18 134.23" id="e2tVgPkyk"></path><path d="M127.89 129.73C127.68 134.15 124.01 137.4 119.93 137.79C115.86 138.18 111.39 133.74 111.61 129.32C111.83 124.91 115.17 120.88 119.24 120.49C123.31 120.1 128.11 125.31 127.89 129.73Z" id="d19n8mTPJM"></path><path d="M103.06 174.94C105.57 174.94 108.01 172.43 108.01 169.71C108.01 167 105.57 164.28 103.06 164.28C100.55 164.28 97.98 167 97.98 169.71C97.98 172.43 100.55 174.94 103.06 174.94Z" id="f1Zvd01Uux"></path><path d="M40.47 187.02C42.43 176.44 55.49 165.4 69.72 158.32C78.61 153.9 87.51 145.22 102.74 143.16C111.87 141.93 127.51 145.39 134.88 147.77" id="c2LZGAAxXb"></path><path d="M65 207.75C63.62 205.94 61.63 201.97 59.05 195.84C55.86 172.98 68.26 176.04 86.25 157.3C104.24 138.56 125.23 150.82 142.21 150.12C143.37 158.31 140.69 172.99 134.15 194.17" id="abDHFQHxb"></path><path d="M101.91 147.78C100.96 147.04 101.13 145.51 102.43 143.17" id="e1dLrNrC3B"></path><path d="M95.56 150.05C93.78 149.05 93.24 147.45 93.93 145.25" id="f4PQx93VQN"></path><path d="M89.59 154.07C86.09 153.72 84.9 151.93 86.02 148.68" id="b1hJPf2Brc"></path><path d="M83.62 159.71C79.73 159.71 77.81 157.66 77.85 153.55" id="d3yloZhV4C"></path><path d="M77.51 165.21C74.05 163.95 71.87 161.47 70.96 157.75" id="cq2U1Upsy"></path><path d="M57.4 168.77C63.59 163.98 68.04 161.9 70.76 162.55" id="aRndRctXl"></path><path d="M49.18 178.26C46.93 179.68 44.68 184.29 42.44 192.07" id="aLPnL4YvJ"></path><path d="M54.89 208.02C51.6 204 52.06 195.27 56.25 181.82" id="a8wQgYMHf"></path><path d="M70.96 166.45C50.81 171.46 49.94 186.28 46.65 201.8" id="a3ya03Rc5U"></path><path d="M40.74 206.71C56.11 222.94 62.09 233.75 81.2 228.82C79.24 213.71 74.8 210.29 61.42 206.97" id="d1Ck6Law5j"></path><path d="M59.22 210.66C62.42 208.85 65.55 210.51 68.62 215.66" id="a67YTW2OG"></path><path d="M63.05 223.11C64.08 224.93 66.55 225.9 70.44 226.03" id="a5kA1EhAnJ"></path><path d="M74.26 220.32C60 221.88 49.9 211.63 40.74 199.31" id="a117c1K0t"></path><path d="M127.09 203.1C116.57 200.04 107.39 201.41 102.38 202.78C92.25 199.86 75.52 195.16 67.36 184.42C65.5 185.04 65.19 185.12 64.06 186.3C68.3 201.95 93.67 202.72 103.55 210.68C110.27 205.83 119.9 205.7 132.45 210.29" id="ax51M5jyr"></path><path d="M67.27 184.42C69.08 184.12 73.73 176.69 81.2 162.13" id="a1lwL7xXBb"></path><path d="M109.48 146.95C90.35 152.33 84.97 172.02 73.69 190.67" id="a1ad3apKbV"></path><path d="M114.19 146.76C95.57 152.67 90.72 169.54 80.74 194.87" id="caay8LsHh"></path><path d="M119.3 147.39L103.73 202.51" id="fDDNfBVuJ"></path><path d="M123.51 148.04L113.33 201.21" id="c2leylRLJB"></path><path d="M74.96 212.83L81.7 201.21" id="g9DIvSP0n"></path><path d="M72.39 251.02C58.28 244.5 56.86 238.75 64.37 228.46" id="b3fxrTZNtY"></path><path d="M140.6 219.49C124 229.02 111.56 239.04 103.27 249.54C122.18 266.47 150.84 288.02 152.04 303.02C146.61 303.68 136.95 304.02 127.34 301.84C128.83 298.45 128.82 293.71 127.3 287.62C126.66 285.04 125.02 282.82 122.74 281.45C112.76 275.43 85.49 258.99 75.29 252.83C73.93 252.02 73.51 250.24 74.35 248.9C86.4 229.63 95.59 216.51 101.91 209.53" id="bKi5Rhjss"></path><path d="M144.34 287.72C140.35 290.29 134.82 291.22 127.76 290.5" id="bc7s0cht6"></path><path d="M127.34 286.55C118.23 288.29 109.92 288.79 102.42 288.04C104.89 280.17 104.89 274.18 102.42 270.08" id="e1xRF2wDIZ"></path><path d="M111.19 274.35C110.05 275.14 107.8 275.53 104.45 275.53" id="fCsmJqg3b"></path></defs><g><g><g><use xlink:href="#c4Nw38qQmm" opacity="1" fill="#9b7647" fill-opacity="1"></use></g><g><use xlink:href="#b6lx709ldo" opacity="1" fill="#545454" fill-opacity="1"></use></g><g><use xlink:href="#a35LAEBIzh" opacity="1" fill="#9b7647" fill-opacity="1"></use></g><g><use xlink:href="#agBq1Edz9" opacity="1" fill="#545454" fill-opacity="1"></use></g><g><use xlink:href="#c3PVPtM1R6" opacity="1" fill="#9b7647" fill-opacity="1"></use></g><g><use xlink:href="#a17RFhszXM" opacity="1" fill="#9b7647" fill-opacity="1"></use></g><g><g><g><use xlink:href="#c4LckXZlWM" opacity="1" fill-opacity="0" stroke="#2d2d2d" stroke-width="1" stroke-opacity="1"></use></g></g><g><g><use xlink:href="#c2TxDIqjD9" opacity="1" fill-opacity="0" stroke="#2d2d2d" stroke-width="1" stroke-opacity="1"></use></g></g><g><g><use xlink:href="#f1mY97ZHQV" opacity="1" fill-opacity="0" stroke="#2d2d2d" stroke-width="1" stroke-opacity="1"></use></g></g><g><g><use xlink:href="#eEGWu5Dwc" opacity="1" fill-opacity="0" stroke="#2d2d2d" stroke-width="1" stroke-opacity="1"></use></g></g><g><g><use xlink:href="#aVdKKOogb" opacity="1" fill-opacity="0" stroke="#2d2d2d" stroke-width="1" stroke-opacity="1"></use></g></g><g><g><use xlink:href="#ahvjgP24e" opacity="1" fill-opacity="0" stroke="#2d2d2d" stroke-width="1" stroke-opacity="1"></use></g></g><g><g><use xlink:href="#bieb6h8Mm" opacity="1" fill-opacity="0" stroke="#2d2d2d" stroke-width="1" stroke-opacity="1"></use></g></g><g><g><use xlink:href="#h1hTlwDBNv" opacity="1" fill-opacity="0" stroke="#2d2d2d" stroke-width="1" stroke-opacity="1"></use></g></g><g><g><use xlink:href="#a1bZqMZDx6" opacity="1" fill-opacity="0" stroke="#2d2d2d" stroke-width="1" stroke-opacity="1"></use></g></g><g><g><use xlink:href="#bjy1iMKB7" opacity="1" fill-opacity="0" stroke="#2d2d2d" stroke-width="1" stroke-opacity="1"></use></g></g><g><g><use xlink:href="#bufPYQ4Cu" opacity="1" fill-opacity="0" stroke="#2d2d2d" stroke-width="1" stroke-opacity="1"></use></g></g><g><g><use xlink:href="#d5KHRQp1iy" opacity="1" fill-opacity="0" stroke="#2d2d2d" stroke-width="1" stroke-opacity="1"></use></g></g><g><g><use xlink:href="#g5sttHJVlY" opacity="1" fill-opacity="0" stroke="#2d2d2d" stroke-width="1" stroke-opacity="1"></use></g></g><g><g><use xlink:href="#ayzrJNdTl" opacity="1" fill-opacity="0" stroke="#2d2d2d" stroke-width="1" stroke-opacity="1"></use></g></g><g><g><use xlink:href="#ecpeuJsUI" opacity="1" fill-opacity="0" stroke="#2d2d2d" stroke-width="1" stroke-opacity="1"></use></g></g><g><g><use xlink:href="#a1gkrsQ1S" opacity="1" fill-opacity="0" stroke="#2d2d2d" stroke-width="1" stroke-opacity="1"></use></g></g><g><g><use xlink:href="#f1hF8V58eU" opacity="1" fill-opacity="0" stroke="#2d2d2d" stroke-width="1" stroke-opacity="1"></use></g></g><g><g><use xlink:href="#a2eF68DD5E" opacity="1" fill-opacity="0" stroke="#2d2d2d" stroke-width="1" stroke-opacity="1"></use></g></g><g><g><use xlink:href="#ca4cmXr1n" opacity="1" fill-opacity="0" stroke="#2d2d2d" stroke-width="1" stroke-opacity="1"></use></g></g><g><g><use xlink:href="#bpqbd68OJ" opacity="1" fill-opacity="0" stroke="#2d2d2d" stroke-width="1" stroke-opacity="1"></use></g></g><g><g><use xlink:href="#b4REkOihZ" opacity="1" fill-opacity="0" stroke="#2d2d2d" stroke-width="1" stroke-opacity="1"></use></g></g><g><g><use xlink:href="#e5kvoR6tiR" opacity="1" fill-opacity="0" stroke="#2d2d2d" stroke-width="1" stroke-opacity="1"></use></g></g><g><g><use xlink:href="#aeOaw9qcR" opacity="1" fill-opacity="0" stroke="#2d2d2d" stroke-width="1" stroke-opacity="1"></use></g></g><g><g><use xlink:href="#f2DCK8KFet" opacity="1" fill-opacity="0" stroke="#2d2d2d" stroke-width="1" stroke-opacity="1"></use></g></g><g><g><use xlink:href="#f3sKZnbYJ3" opacity="1" fill-opacity="0" stroke="#2d2d2d" stroke-width="1" stroke-opacity="1"></use></g></g><g><g><use xlink:href="#c1gj6YO5eE" opacity="1" fill-opacity="0" stroke="#2d2d2d" stroke-width="1" stroke-opacity="1"></use></g></g><g><g><use xlink:href="#iN1DSZPo" opacity="1" fill-opacity="0" stroke="#2d2d2d" stroke-width="1" stroke-opacity="1"></use></g></g><g><g><use xlink:href="#kZeeYnA9x" opacity="1" fill-opacity="0" stroke="#2d2d2d" stroke-width="1" stroke-opacity="1"></use></g></g><g><g><use xlink:href="#a2XmUL4L17" opacity="1" fill-opacity="0" stroke="#2d2d2d" stroke-width="1" stroke-opacity="1"></use></g></g><g><g><use xlink:href="#e2VJZJppxT" opacity="1" fill-opacity="0" stroke="#2d2d2d" stroke-width="1" stroke-opacity="1"></use></g></g><g><g><use xlink:href="#b4RzNP6Jy4" opacity="1" fill-opacity="0" stroke="#2d2d2d" stroke-width="1" stroke-opacity="1"></use></g></g><g><g><use xlink:href="#aA756cu3" opacity="1" fill-opacity="0" stroke="#2d2d2d" stroke-width="1" stroke-opacity="1"></use></g></g><g><g><use xlink:href="#b10VHNUbPE" opacity="1" fill-opacity="0" stroke="#2d2d2d" stroke-width="1" stroke-opacity="1"></use></g></g><g><g><use xlink:href="#b2F6N6ZK2T" opacity="1" fill-opacity="0" stroke="#2d2d2d" stroke-width="1" stroke-opacity="1"></use></g></g><g><g><use xlink:href="#b1qFDF0Zuk" opacity="1" fill-opacity="0" stroke="#2d2d2d" stroke-width="1" stroke-opacity="1"></use></g></g><g><g><use xlink:href="#b2LaL3S3oo" opacity="1" fill-opacity="0" stroke="#2d2d2d" stroke-width="1" stroke-opacity="1"></use></g></g><g><g><use xlink:href="#b3hbogBEUE" opacity="1" fill-opacity="0" stroke="#2d2d2d" stroke-width="1" stroke-opacity="1"></use></g></g><g><g><use xlink:href="#aThmAGkP" opacity="1" fill-opacity="0" stroke="#2d2d2d" stroke-width="1" stroke-opacity="1"></use></g></g><g><g><use xlink:href="#e2M542HlNt" opacity="1" fill-opacity="0" stroke="#2d2d2d" stroke-width="1" stroke-opacity="1"></use></g></g><g><g><use xlink:href="#c4XjZtDMjk" opacity="1" fill-opacity="0" stroke="#2d2d2d" stroke-width="1" stroke-opacity="1"></use></g></g><g><g><use xlink:href="#a1K010hcXn" opacity="1" fill-opacity="0" stroke="#2d2d2d" stroke-width="1" stroke-opacity="1"></use></g></g><g><g><use xlink:href="#ekZvIMUtC" opacity="1" fill-opacity="0" stroke="#2d2d2d" stroke-width="1" stroke-opacity="1"></use></g></g><g><g><use xlink:href="#aCuLc6u8O" opacity="1" fill-opacity="0" stroke="#2d2d2d" stroke-width="1" stroke-opacity="1"></use></g></g><g><g><use xlink:href="#c6cctRZ44" opacity="1" fill-opacity="0" stroke="#2d2d2d" stroke-width="1" stroke-opacity="1"></use></g></g><g><g><use xlink:href="#gfhYRsyHz" opacity="1" fill-opacity="0" stroke="#2d2d2d" stroke-width="1" stroke-opacity="1"></use></g></g><g><g><use xlink:href="#jjfZV3XtT" opacity="1" fill-opacity="0" stroke="#2d2d2d" stroke-width="1" stroke-opacity="1"></use></g></g><g><g><use xlink:href="#b7j08fiDk" opacity="1" fill-opacity="0" stroke="#2d2d2d" stroke-width="1" stroke-opacity="1"></use></g></g><g><g><use xlink:href="#elbmsz7D4" opacity="1" fill-opacity="0" stroke="#2d2d2d" stroke-width="1" stroke-opacity="1"></use></g></g><g><g><use xlink:href="#dtutuYUk" opacity="1" fill-opacity="0" stroke="#2d2d2d" stroke-width="1" stroke-opacity="1"></use></g></g><g><g><use xlink:href="#awDmg1VvZ" opacity="1" fill-opacity="0" stroke="#2d2d2d" stroke-width="1" stroke-opacity="1"></use></g></g><g><g><use xlink:href="#a4yncCvL1" opacity="1" fill-opacity="0" stroke="#2d2d2d" stroke-width="1" stroke-opacity="1"></use></g></g><g><g><use xlink:href="#g1qzSGtDdT" opacity="1" fill-opacity="0" stroke="#2d2d2d" stroke-width="1" stroke-opacity="1"></use></g></g><g><g><use xlink:href="#a8xbppiXJb" opacity="1" fill-opacity="0" stroke="#2d2d2d" stroke-width="1" stroke-opacity="1"></use></g></g><g><g><use xlink:href="#c5ec2MukwD" opacity="1" fill-opacity="0" stroke="#2d2d2d" stroke-width="1" stroke-opacity="1"></use></g></g><g><g><use xlink:href="#ekA3MdtEP" opacity="1" fill-opacity="0" stroke="#2d2d2d" stroke-width="1" stroke-opacity="1"></use></g></g><g><g><use xlink:href="#cdI50Yb6e" opacity="1" fill-opacity="0" stroke="#2d2d2d" stroke-width="1" stroke-opacity="1"></use></g></g><g><g><use xlink:href="#dwgnIzM10" opacity="1" fill-opacity="0" stroke="#2d2d2d" stroke-width="1" stroke-opacity="1"></use></g></g><g><g><use xlink:href="#a30MEqfRsv" opacity="1" fill-opacity="0" stroke="#2d2d2d" stroke-width="1" stroke-opacity="1"></use></g></g><g><g><use xlink:href="#b6NKw4JZm" opacity="1" fill-opacity="0" stroke="#2d2d2d" stroke-width="1" stroke-opacity="1"></use></g></g><g><g><use xlink:href="#eno0rvA1b" opacity="1" fill-opacity="0" stroke="#2d2d2d" stroke-width="1" stroke-opacity="1"></use></g></g><g><g><use xlink:href="#enMmi8g7L" opacity="1" fill-opacity="0" stroke="#2d2d2d" stroke-width="1" stroke-opacity="1"></use></g></g><g><g><use xlink:href="#a2bJI0DAS8" opacity="1" fill-opacity="0" stroke="#2d2d2d" stroke-width="1" stroke-opacity="1"></use></g></g><g><g><use xlink:href="#h1k497g9l" opacity="1" fill-opacity="0" stroke="#2d2d2d" stroke-width="1" stroke-opacity="1"></use></g></g><g><g><use xlink:href="#a1CNsJtuX" opacity="1" fill-opacity="0" stroke="#2d2d2d" stroke-width="1" stroke-opacity="1"></use></g></g><g><g><use xlink:href="#bmbH2mAj1" opacity="1" fill-opacity="0" stroke="#2d2d2d" stroke-width="1" stroke-opacity="1"></use></g></g><g><g><use xlink:href="#d7LydfN8" opacity="1" fill-opacity="0" stroke="#2d2d2d" stroke-width="1" stroke-opacity="1"></use></g></g><g><g><use xlink:href="#g1lTKKlJ0B" opacity="1" fill-opacity="0" stroke="#2d2d2d" stroke-width="1" stroke-opacity="1"></use></g></g><g><g><use xlink:href="#a2N0exMbtq" opacity="1" fill-opacity="0" stroke="#2d2d2d" stroke-width="1" stroke-opacity="1"></use></g></g><g><g><use xlink:href="#d6XoJ3ZwN" opacity="1" fill-opacity="0" stroke="#2d2d2d" stroke-width="1" stroke-opacity="1"></use></g></g><g><g><use xlink:href="#a2w87qm7o" opacity="1" fill-opacity="0" stroke="#2d2d2d" stroke-width="1" stroke-opacity="1"></use></g></g><g><g><use xlink:href="#e50XMV57CB" opacity="1" fill-opacity="0" stroke="#2d2d2d" stroke-width="1" stroke-opacity="1"></use></g></g><g><g><use xlink:href="#fzePtu6iq" opacity="1" fill-opacity="0" stroke="#2d2d2d" stroke-width="1" stroke-opacity="1"></use></g></g><g><g><use xlink:href="#b2rpKKUQ4L" opacity="1" fill-opacity="0" stroke="#2d2d2d" stroke-width="1" stroke-opacity="1"></use></g></g><g><g><use xlink:href="#a5uV3WpT4c" opacity="1" fill-opacity="0" stroke="#2d2d2d" stroke-width="1" stroke-opacity="1"></use></g></g><g><g><use xlink:href="#gg1Svcsik" opacity="1" fill-opacity="0" stroke="#2d2d2d" stroke-width="1" stroke-opacity="1"></use></g></g><g><g><use xlink:href="#b2I8CmXGs" opacity="1" fill-opacity="0" stroke="#2d2d2d" stroke-width="1" stroke-opacity="1"></use></g></g><g><g><use xlink:href="#a9ASPORYQ" opacity="1" fill-opacity="0" stroke="#2d2d2d" stroke-width="1" stroke-opacity="1"></use></g></g><g><g><use xlink:href="#a1TeuEPgvp" opacity="1" fill-opacity="0" stroke="#2d2d2d" stroke-width="1" stroke-opacity="1"></use></g></g><g><g><use xlink:href="#c3XYN4SVI" opacity="1" fill-opacity="0" stroke="#2d2d2d" stroke-width="1" stroke-opacity="1"></use></g></g><g><g><use xlink:href="#aKTEQqZOG" opacity="1" fill-opacity="0" stroke="#2d2d2d" stroke-width="1" stroke-opacity="1"></use></g></g><g><g><use xlink:href="#c22He6uuL" opacity="1" fill-opacity="0" stroke="#2d2d2d" stroke-width="1" stroke-opacity="1"></use></g></g><g><g><use xlink:href="#b1pp7Dn5bs" opacity="1" fill-opacity="0" stroke="#2d2d2d" stroke-width="1" stroke-opacity="1"></use></g></g><g><g><use xlink:href="#cPS49hBey" opacity="1" fill-opacity="0" stroke="#2d2d2d" stroke-width="1" stroke-opacity="1"></use></g></g><g><g><use xlink:href="#bBujzId9" opacity="1" fill-opacity="0" stroke="#2d2d2d" stroke-width="1" stroke-opacity="1"></use></g></g><g><g><use xlink:href="#e1wh2MoYVS" opacity="1" fill-opacity="0" stroke="#2d2d2d" stroke-width="1" stroke-opacity="1"></use></g></g><g><g><use xlink:href="#cON71itDh" opacity="1" fill-opacity="0" stroke="#2d2d2d" stroke-width="1" stroke-opacity="1"></use></g></g><g><g><use xlink:href="#a3SopMAmx0" opacity="1" fill-opacity="0" stroke="#2d2d2d" stroke-width="1" stroke-opacity="1"></use></g></g><g><g><use xlink:href="#cotHVwm0n" opacity="1" fill-opacity="0" stroke="#2d2d2d" stroke-width="1" stroke-opacity="1"></use></g></g><g><g><use xlink:href="#c1NkDszVh" opacity="1" fill-opacity="0" stroke="#2d2d2d" stroke-width="1" stroke-opacity="1"></use></g></g><g><g><use xlink:href="#b37O1UGem" opacity="1" fill-opacity="0" stroke="#2d2d2d" stroke-width="1" stroke-opacity="1"></use></g></g><g><g><use xlink:href="#k2Iro0owGe" opacity="1" fill-opacity="0" stroke="#2d2d2d" stroke-width="1" stroke-opacity="1"></use></g></g><g><g><use xlink:href="#e8Oe4zpVE" opacity="1" fill-opacity="0" stroke="#2d2d2d" stroke-width="1" stroke-opacity="1"></use></g></g><g><g><use xlink:href="#aVYlfcrUK" opacity="1" fill-opacity="0" stroke="#2d2d2d" stroke-width="1" stroke-opacity="1"></use></g></g><g><g><use xlink:href="#a4vyI1ZRzz" opacity="1" fill-opacity="0" stroke="#2d2d2d" stroke-width="1" stroke-opacity="1"></use></g></g><g><g><use xlink:href="#i2s56eiSEL" opacity="1" fill-opacity="0" stroke="#2d2d2d" stroke-width="1" stroke-opacity="1"></use></g></g><g><g><use xlink:href="#e2tVgPkyk" opacity="1" fill-opacity="0" stroke="#2d2d2d" stroke-width="1" stroke-opacity="1"></use></g></g><g><g><use xlink:href="#d19n8mTPJM" opacity="1" fill-opacity="0" stroke="#2d2d2d" stroke-width="1" stroke-opacity="1"></use></g></g><g><g><use xlink:href="#f1Zvd01Uux" opacity="1" fill-opacity="0" stroke="#2d2d2d" stroke-width="1" stroke-opacity="1"></use></g></g><g><g><use xlink:href="#c2LZGAAxXb" opacity="1" fill-opacity="0" stroke="#2d2d2d" stroke-width="1" stroke-opacity="1"></use></g></g><g><g><use xlink:href="#abDHFQHxb" opacity="1" fill-opacity="0" stroke="#2d2d2d" stroke-width="1" stroke-opacity="1"></use></g></g><g><g><use xlink:href="#e1dLrNrC3B" opacity="1" fill-opacity="0" stroke="#2d2d2d" stroke-width="1" stroke-opacity="1"></use></g></g><g><g><use xlink:href="#f4PQx93VQN" opacity="1" fill-opacity="0" stroke="#2d2d2d" stroke-width="1" stroke-opacity="1"></use></g></g><g><g><use xlink:href="#b1hJPf2Brc" opacity="1" fill-opacity="0" stroke="#2d2d2d" stroke-width="1" stroke-opacity="1"></use></g></g><g><g><use xlink:href="#d3yloZhV4C" opacity="1" fill-opacity="0" stroke="#2d2d2d" stroke-width="1" stroke-opacity="1"></use></g></g><g><g><use xlink:href="#cq2U1Upsy" opacity="1" fill-opacity="0" stroke="#2d2d2d" stroke-width="1" stroke-opacity="1"></use></g></g><g><g><use xlink:href="#aRndRctXl" opacity="1" fill-opacity="0" stroke="#2d2d2d" stroke-width="1" stroke-opacity="1"></use></g></g><g><g><use xlink:href="#aLPnL4YvJ" opacity="1" fill-opacity="0" stroke="#2d2d2d" stroke-width="1" stroke-opacity="1"></use></g></g><g><g><use xlink:href="#a8wQgYMHf" opacity="1" fill-opacity="0" stroke="#2d2d2d" stroke-width="1" stroke-opacity="1"></use></g></g><g><g><use xlink:href="#a3ya03Rc5U" opacity="1" fill-opacity="0" stroke="#2d2d2d" stroke-width="1" stroke-opacity="1"></use></g></g><g><g><use xlink:href="#d1Ck6Law5j" opacity="1" fill-opacity="0" stroke="#2d2d2d" stroke-width="1" stroke-opacity="1"></use></g></g><g><g><use xlink:href="#a67YTW2OG" opacity="1" fill-opacity="0" stroke="#2d2d2d" stroke-width="1" stroke-opacity="1"></use></g></g><g><g><use xlink:href="#a5kA1EhAnJ" opacity="1" fill-opacity="0" stroke="#2d2d2d" stroke-width="1" stroke-opacity="1"></use></g></g><g><g><use xlink:href="#a117c1K0t" opacity="1" fill-opacity="0" stroke="#2d2d2d" stroke-width="1" stroke-opacity="1"></use></g></g><g><g><use xlink:href="#ax51M5jyr" opacity="1" fill-opacity="0" stroke="#2d2d2d" stroke-width="1" stroke-opacity="1"></use></g></g><g><g><use xlink:href="#a1lwL7xXBb" opacity="1" fill-opacity="0" stroke="#2d2d2d" stroke-width="1" stroke-opacity="1"></use></g></g><g><g><use xlink:href="#a1ad3apKbV" opacity="1" fill-opacity="0" stroke="#2d2d2d" stroke-width="1" stroke-opacity="1"></use></g></g><g><g><use xlink:href="#caay8LsHh" opacity="1" fill-opacity="0" stroke="#2d2d2d" stroke-width="1" stroke-opacity="1"></use></g></g><g><g><use xlink:href="#fDDNfBVuJ" opacity="1" fill-opacity="0" stroke="#2d2d2d" stroke-width="1" stroke-opacity="1"></use></g></g><g><g><use xlink:href="#c2leylRLJB" opacity="1" fill-opacity="0" stroke="#2d2d2d" stroke-width="1" stroke-opacity="1"></use></g></g><g><g><use xlink:href="#g9DIvSP0n" opacity="1" fill-opacity="0" stroke="#2d2d2d" stroke-width="1" stroke-opacity="1"></use></g></g><g><g><use xlink:href="#b3fxrTZNtY" opacity="1" fill-opacity="0" stroke="#2d2d2d" stroke-width="1" stroke-opacity="1"></use></g></g><g><g><use xlink:href="#bKi5Rhjss" opacity="1" fill-opacity="0" stroke="#2d2d2d" stroke-width="1" stroke-opacity="1"></use></g></g><g><g><use xlink:href="#bc7s0cht6" opacity="1" fill-opacity="0" stroke="#2d2d2d" stroke-width="1" stroke-opacity="1"></use></g></g><g><g><use xlink:href="#e1xRF2wDIZ" opacity="1" fill-opacity="0" stroke="#2d2d2d" stroke-width="1" stroke-opacity="1"></use></g></g><g><g><use xlink:href="#fCsmJqg3b" opacity="1" fill-opacity="0" stroke="#2d2d2d" stroke-width="1" stroke-opacity="1"></use></g></g></g></g></g></svg>