<?xml version="1.0" encoding="UTF-8" standalone="no"?>
<!DOCTYPE svg PUBLIC "-//W3C//DTD SVG 1.1//EN" "http://www.w3.org/Graphics/SVG/1.1/DTD/svg11.dtd">
<svg version="1.1" xmlns="http://www.w3.org/2000/svg" xmlns:xlink="http://www.w3.org/1999/xlink" preserveAspectRatio="xMidYMid meet" viewBox="178.9694831378299 185.411182795699 261.9999999999999 262" width="262" height="262"><defs><path d="M178.97 185.41L440.97 185.41L440.97 447.41L178.97 447.41L178.97 185.41Z" id="b7ks4RFwhN"></path><path d="M231.3 398.51L432.06 398.51L432.57 409.87L231.3 409.87L231.3 398.51Z" id="e1dxn3mqOd"></path><path d="M432.34 447.41L432.57 434.12L231.3 433.36L231.3 447.41L432.34 447.41Z" id="aEIdvC3YK"></path><path d="M231.3 433.36L189.13 433.36L189.13 409.87L231.3 409.87L231.3 398.51L178.97 398.51L178.97 447.41L231.3 447.41L231.3 433.36Z" id="ef47mgI6M"></path><path d="M236.1 433.36L189.11 433.36L189.11 409.87L236.1 409.87L236.1 433.36Z" id="b6dV4xeh5V"></path><path d="M426.25 409.87L425.75 434.09L236.1 433.36L236.1 409.87L426.25 409.87Z" id="a2YHY29xKC"></path><path d="M226.9 370.99L309.15 370.99L309.15 389.99L297.15 398.51L235.5 398.51L226.9 389.99L226.9 370.99Z" id="jDULRcQd5"></path><path d="M226 313.64L309.97 313.64L309.15 370.99L226.9 370.99L226 313.64Z" id="bUpsjzvFp"></path><path d="M226 298.41L242.85 281.74L292.31 281.2L309.97 298.95L309.97 313.64L226 313.64L226 298.41Z" id="e2OfQ69GkY"></path><path d="M236.1 251.69L299.48 251.69L296.79 257.24L292.49 257.24L292.49 281.2L242.67 281.62L242.67 257.24L237.47 257.24L236.1 251.69Z" id="b4WSzqIpB"></path><path d="M289.71 245.97L287.38 251.69L247.59 251.69L245.09 245.97L289.71 245.97Z" id="abhH5xt87"></path><path d="M232.54 238.98L301.18 238.98L301.18 245.97L232.54 245.97L232.54 238.98Z" id="aidvZq97J"></path><path d="M440.3 333.3L440.3 353.19L423.81 382.58L393.53 398.51L349.44 398.51L325.25 380.08L311.99 339.39L313.96 328.82L440.3 333.3Z" id="aFlcLuOUK"></path><path d="M374.53 312.87L395.68 309.29L440.3 322.37L440.3 333.12L429.73 339.75L405.89 347.46L341.38 344.41L320.77 339.39L313.96 329.18L333.31 317.17L374.53 312.87Z" id="b2bvPDRLGW"></path><path d="M395.32 316.41L428.29 324.16L426.68 333.84L397.29 339.39L346.75 339.39L329.55 330.97L345.68 318.43L395.32 316.41Z" id="chdmuKl1l"></path><path d="M403.2 285.27L416.82 296.56L396.04 339.39L346.93 339.39L403.2 285.27Z" id="a33UsYd2y4"></path><path d="M405.53 275.95L428.29 291.72L421.48 299.97L398.72 282.05L405.53 275.95Z" id="aPPmM0aa0"></path></defs><g><g><g><use xlink:href="#b7ks4RFwhN" opacity="1" fill="#9b7647" fill-opacity="1"></use></g><g><use xlink:href="#e1dxn3mqOd" opacity="1" fill="#fff000" fill-opacity="1"></use></g><g><use xlink:href="#aEIdvC3YK" opacity="1" fill="#fff000" fill-opacity="1"></use></g><g><use xlink:href="#ef47mgI6M" opacity="1" fill="#ffa800" fill-opacity="1"></use></g><g><use xlink:href="#b6dV4xeh5V" opacity="1" fill="#bcb36d" fill-opacity="1"></use></g><g><use xlink:href="#a2YHY29xKC" opacity="1" fill="#e0d4a7" fill-opacity="1"></use></g><g><use xlink:href="#jDULRcQd5" opacity="1" fill="#d25700" fill-opacity="1"></use></g><g><use xlink:href="#bUpsjzvFp" opacity="1" fill="#f9e9c5" fill-opacity="1"></use></g><g><use xlink:href="#e2OfQ69GkY" opacity="1" fill="#d25700" fill-opacity="1"></use></g><g><use xlink:href="#b4WSzqIpB" opacity="1" fill="#5f5f5f" fill-opacity="1"></use></g><g><use xlink:href="#abhH5xt87" opacity="1" fill="#000000" fill-opacity="1"></use></g><g><use xlink:href="#aidvZq97J" opacity="1" fill="#5f5f5f" fill-opacity="1"></use></g><g><use xlink:href="#aFlcLuOUK" opacity="1" fill="#3e3530" fill-opacity="1"></use></g><g><use xlink:href="#b2bvPDRLGW" opacity="1" fill="#77614c" fill-opacity="1"></use></g><g><use xlink:href="#chdmuKl1l" opacity="1" fill="#319965" fill-opacity="1"></use></g><g><use xlink:href="#a33UsYd2y4" opacity="1" fill="#3d332c" fill-opacity="1"></use></g><g><use xlink:href="#aPPmM0aa0" opacity="1" fill="#77614c" fill-opacity="1"></use></g></g></g></svg>