<?xml version="1.0" encoding="UTF-8" standalone="no"?>
<!DOCTYPE svg PUBLIC "-//W3C//DTD SVG 1.1//EN" "http://www.w3.org/Graphics/SVG/1.1/DTD/svg11.dtd">
<svg version="1.1" xmlns="http://www.w3.org/2000/svg" xmlns:xlink="http://www.w3.org/1999/xlink" preserveAspectRatio="xMidYMid meet" viewBox="188.99999999999966 164.78983382209177 262.0000000000001 262.0000000000001" width="262" height="262"><defs><path d="M189 164.79L451 164.79L451 426.79L189 426.79L189 164.79Z" id="i1yCfhzvMJ"></path><path d="M189 389.84L451 389.84L451 426.79L189 426.79L189 389.84Z" id="e1Im3WvzC"></path><path d="M313.41 164.79L356.71 164.79L356.71 389.84L313.41 389.84L313.41 164.79Z" id="b1SfJnmdS8"></path><path d="M356.71 164.79L400.01 164.79L400.01 389.84L356.71 389.84L356.71 164.79Z" id="f1is8kbA2O"></path><path d="M400.01 164.79L451 164.79L451 389.84L400.01 389.84L400.01 164.79Z" id="a14qkI4weR"></path><path d="M272.11 195.47L275.75 195.47L275.75 188.32L272.7 188.32L272.7 181.05L269.3 177.3L269.3 171.09L273.52 167.1L279.5 165.23L301.89 165.23L307.52 167.69L313.41 172.96L313.41 178.71L309.28 181.05L309.63 187.85L306.11 187.85L306.11 194.89L309.63 194.89L309.63 199.34L272.11 199.34L272.11 195.47Z" id="emR0kdKnE"></path><path d="M306.39 199.34L313.41 204.92L313.41 344.09L307.71 347.49L309.11 349.95L308.41 352.29L303.2 355.38L281.09 355.81L275 352.29L274.06 349.48L275.7 347.25L269.84 343.62L269.84 205.37L276.92 199.34L306.39 199.34Z" id="cqdHriatc"></path><path d="M272.49 352.75L275.77 355.81L270.03 359.55L270.03 365.06L272.84 369.52L270.03 374.67L274.25 381L285.15 385.58L297.46 385.58L311.06 381L313.41 378.78L313.41 373.5L309.77 367.87L310.12 362.48L308.13 361.43L308.13 355.45L311.41 352.75L309.13 349.88L306.6 351.93L296.87 353.92L278.23 352.75L274.25 349.23L272.49 352.75Z" id="a1qRVlB4wI"></path><path d="M269.84 286.54L263.45 283.52L265.99 278.07L265.99 255.02L261.46 250.49L269.84 245.89L269.84 286.54Z" id="e573irOrSA"></path><path d="M309.38 181.02C300.89 178.4 288.55 178.4 272.36 181.02" id="b2X7uSvKMo"></path><path d="M309.38 187.68C295.89 186.18 283.55 186.3 272.36 188.04" id="a1mg8q0Fel"></path><path d="M309.38 195.42C291.21 194.71 278.87 194.95 272.36 196.14" id="bzeGMCrNr"></path><path d="M310.62 352.77C304.07 359.08 275.74 356.79 273 352.41" id="f8WP8QLcwa"></path><path d="M309.91 368.72C294.91 371.42 282.6 371.42 273 368.72" id="b1QvHAxAbA"></path><path d="M313.41 375.27C296.62 379.48 282.16 378.96 270.03 373.72" id="c27SVnUBOI"></path><path d="M275.74 369.2L276.1 354.53" id="d1zU5DJqMi"></path><path d="M307.52 354.53L307.52 369.2" id="d3AHrgO4vc"></path><path d="M272.45 364.37C273.18 364.37 273.88 363.62 273.88 362.83C273.88 362.04 273.18 361.22 272.45 361.22C271.72 361.22 270.97 362.04 270.97 362.83C270.97 363.62 271.72 364.37 272.45 364.37Z" id="biL5bgeqI"></path><path d="M313.41 344.08C311.34 346.09 307.86 346.48 303.74 347.24C297.43 348.39 289.62 348.2 283.05 347.24C276.8 346.32 271.68 345.66 270.03 343.72" id="c2iwEVw998"></path><path d="M313.06 205.66C303.18 205.41 288.68 205.41 269.56 205.66" id="i2uPyY7mpm"></path><path d="M275.15 345.87L274.55 205.47" id="a37VaWH08a"></path><path d="M289.88 205.47L290.59 348.03" id="c135sdBnak"></path><path d="M307.52 346.27L307.13 205.47" id="b1nlDW8kOI"></path></defs><g><g><g><use xlink:href="#i1yCfhzvMJ" opacity="1" fill="#9b7647" fill-opacity="1"></use></g><g><use xlink:href="#e1Im3WvzC" opacity="1" fill="#6f4630" fill-opacity="1"></use></g><g><use xlink:href="#b1SfJnmdS8" opacity="1" fill="#372636" fill-opacity="1"></use></g><g><use xlink:href="#f1is8kbA2O" opacity="1" fill="#934922" fill-opacity="1"></use></g><g><use xlink:href="#a14qkI4weR" opacity="1" fill="#4b2293" fill-opacity="1"></use></g><g><use xlink:href="#emR0kdKnE" opacity="1" fill="#cbcbcb" fill-opacity="1"></use></g><g><use xlink:href="#cqdHriatc" opacity="1" fill="#01583b" fill-opacity="1"></use></g><g><use xlink:href="#a1qRVlB4wI" opacity="1" fill="#cbcbcb" fill-opacity="1"></use></g><g><use xlink:href="#e573irOrSA" opacity="1" fill="#cbcbcb" fill-opacity="1"></use></g><g><g><use xlink:href="#b2X7uSvKMo" opacity="1" fill-opacity="0" stroke="#7d7d7d" stroke-width="1" stroke-opacity="1"></use></g></g><g><g><use xlink:href="#a1mg8q0Fel" opacity="1" fill-opacity="0" stroke="#7d7d7d" stroke-width="1" stroke-opacity="1"></use></g></g><g><g><use xlink:href="#bzeGMCrNr" opacity="1" fill-opacity="0" stroke="#7d7d7d" stroke-width="1" stroke-opacity="1"></use></g></g><g><g><use xlink:href="#f8WP8QLcwa" opacity="1" fill-opacity="0" stroke="#7d7d7d" stroke-width="1" stroke-opacity="1"></use></g></g><g><g><use xlink:href="#b1QvHAxAbA" opacity="1" fill-opacity="0" stroke="#7d7d7d" stroke-width="1" stroke-opacity="1"></use></g></g><g><g><use xlink:href="#c27SVnUBOI" opacity="1" fill-opacity="0" stroke="#7d7d7d" stroke-width="1" stroke-opacity="1"></use></g></g><g><g><use xlink:href="#d1zU5DJqMi" opacity="1" fill-opacity="0" stroke="#7d7d7d" stroke-width="1" stroke-opacity="1"></use></g></g><g><g><use xlink:href="#d3AHrgO4vc" opacity="1" fill-opacity="0" stroke="#7d7d7d" stroke-width="1" stroke-opacity="1"></use></g></g><g><g><use xlink:href="#biL5bgeqI" opacity="1" fill-opacity="0" stroke="#7d7d7d" stroke-width="1" stroke-opacity="1"></use></g></g><g><g><use xlink:href="#c2iwEVw998" opacity="1" fill-opacity="0" stroke="#012715" stroke-width="1" stroke-opacity="1"></use></g></g><g><g><use xlink:href="#i2uPyY7mpm" opacity="1" fill-opacity="0" stroke="#012715" stroke-width="1" stroke-opacity="1"></use></g></g><g><g><use xlink:href="#a37VaWH08a" opacity="1" fill-opacity="0" stroke="#012715" stroke-width="1" stroke-opacity="1"></use></g></g><g><g><use xlink:href="#c135sdBnak" opacity="1" fill-opacity="0" stroke="#012715" stroke-width="1" stroke-opacity="1"></use></g></g><g><g><use xlink:href="#b1nlDW8kOI" opacity="1" fill-opacity="0" stroke="#012715" stroke-width="1" stroke-opacity="1"></use></g></g></g></g></svg>