<?xml version="1.0" encoding="UTF-8" standalone="no"?>
<!DOCTYPE svg PUBLIC "-//W3C//DTD SVG 1.1//EN" "http://www.w3.org/Graphics/SVG/1.1/DTD/svg11.dtd">
<svg version="1.1" xmlns="http://www.w3.org/2000/svg" xmlns:xlink="http://www.w3.org/1999/xlink" preserveAspectRatio="xMidYMid meet" viewBox="286.34999028709115 185.39589442815236 78.60000000000002 262.0000000000001" width="78.6" height="262"><defs><path d="M286.35 185.4L364.95 185.4L364.95 447.4L286.35 447.4L286.35 185.4Z" id="d3OcS4wzli"></path><path d="M312.02 282.31L309.57 280.95L299.94 286.51L291.64 286.89L291.17 279.15L298.53 252.74L300.42 246.98L308.15 246.42L312.87 243.59L321.36 224.34L318.62 224.34L318.62 228.59L316.83 231.51L315.32 222.93L319 218.02L327.02 217.74L350.51 237.26L345.89 254.08L341.26 276.34L332.02 295.87L331.74 304.45L313.53 308.32L312.02 282.31Z" id="b2qXEm9ouE"></path><path d="M292.48 371.68L298.26 348.24L316.68 325.57L313.64 308.21L322.62 301.97L332.05 304.26L339.51 320.85L339.82 333.36L296.69 382.12L292.48 371.68Z" id="a3K4d9tJRf"></path><path d="M286.35 447.4L364.95 447.4L364.95 390.04L346.72 365.54L347.38 336.43L339.72 332.15L286.35 393.55L286.35 447.4Z" id="d1HQk8hNhL"></path><path d="M309.83 403.73L332.36 410.58L340.73 436.61L343.47 412.41L335.86 395.97L354.12 386.68L360.67 376.64L359.76 362.18L346.97 344.98L346.61 375.57L333.42 391.1L312.57 391.1L302.07 397.64L291.26 417.89L309.83 403.73Z" id="a7h9s0WGdp"></path><path d="M304.28 410.76L321.4 409.82L334.64 421.54L340.58 436.61L337.53 409.82L327.03 399.77L308.77 397.64L291.26 417.73L304.28 410.76Z" id="a2KT5rNm59"></path><path d="M302.21 261.84L305.89 271.09L300.13 273.92L300.51 257.03L306.17 251.28L302.21 261.84Z" id="c6rfxy3tm"></path><path d="M338.06 280.52L333.62 269.48L331.83 279.86L334.1 284.39L330.13 297.03L340.79 289.58L342.11 306.28L347.59 307.79L345.7 299.29L348.15 284.86L351.45 261.46L345.7 253.73L338.06 280.52Z" id="i2h2edmXyj"></path><path d="M324.38 271.37L324.76 264.01L320.23 259.01L320.23 247.6L330.51 238.82L338.06 246.37L339.51 239.67L326.74 223.63L320.79 224.48L308.25 245.8L302.3 262.03L310.23 281.84L307.68 299.11L313.43 308.54L313.81 283.35L324.38 271.37Z" id="g25q2oFai5"></path></defs><g><g><g><use xlink:href="#d3OcS4wzli" opacity="1" fill="#003366" fill-opacity="1"></use></g><g><use xlink:href="#b2qXEm9ouE" opacity="1" fill="#ffcb99" fill-opacity="1"></use></g><g><use xlink:href="#a3K4d9tJRf" opacity="1" fill="#808000" fill-opacity="1"></use></g><g><use xlink:href="#d1HQk8hNhL" opacity="1" fill="#76513e" fill-opacity="1"></use></g><g><use xlink:href="#a7h9s0WGdp" opacity="1" fill="#808000" fill-opacity="1"></use></g><g><use xlink:href="#a2KT5rNm59" opacity="1" fill="#cca11d" fill-opacity="1"></use></g><g><use xlink:href="#c6rfxy3tm" opacity="1" fill="#003366" fill-opacity="1"></use></g><g><use xlink:href="#i2h2edmXyj" opacity="1" fill="#ff9901" fill-opacity="1"></use></g><g><use xlink:href="#g25q2oFai5" opacity="1" fill="#ff9901" fill-opacity="1"></use></g></g></g></svg>