<?xml version="1.0" encoding="UTF-8" standalone="no"?>
<!DOCTYPE svg PUBLIC "-//W3C//DTD SVG 1.1//EN" "http://www.w3.org/Graphics/SVG/1.1/DTD/svg11.dtd">
<svg version="1.1" xmlns="http://www.w3.org/2000/svg" xmlns:xlink="http://www.w3.org/1999/xlink" preserveAspectRatio="xMidYMid meet" viewBox="165.6618159059073 128.99147088866198 262.00000000000006 262.00000000000006" width="262" height="262"><defs><path d="M165.66 128.99L427.66 128.99L427.66 390.99L165.66 390.99L165.66 128.99Z" id="aj5ZTNKj"></path><path d="M165.66 357.01L427.66 357.01L427.66 390.99L165.66 390.99L165.66 357.01Z" id="d4i1Wh64m"></path><path d="M165.66 330.62L427.66 330.62L427.66 357.01L165.66 357.01L165.66 330.62Z" id="a2peQmbakP"></path><path d="M421.99 330.62L421.99 154.63L173.53 154.63L173.53 330.62L421.99 330.62Z" id="a2c6f4zpq"></path><path d="M407.67 138.83L187.44 138.83L173.53 154.63L421.99 154.63L407.67 138.83Z" id="coqw8QCpx"></path><path d="M173.53 179.31L173.53 174.2L421.99 174.2L421.99 179.73L173.53 179.31Z" id="c2HEr5rYet"></path><path d="M303.31 317.08L302.35 328.99L297.76 338.27L291.4 324.94L292.83 315.65L297.76 306.49L303.31 317.08Z" id="h4AYig30rX"></path><path d="M289.14 300.65L288.78 293.51L292 286.25L297.76 284.11L304.26 288.15L305.93 293.51L304.85 301.73L297.76 304.34L289.14 300.65Z" id="bhg4mJcCT"></path><path d="M194.89 323.87L192.46 323.56L191.73 320.35L187.55 308.21L185.51 268.62L187.55 262.19L198.01 247.61L243.49 234.59L251.57 254.3L273.96 253.63L283.28 244.25L271.43 237.23L271.43 247.61L265.57 250.41L260.97 241.01L280.46 233.25L295.02 233.62L315.06 233.62L334.88 241.01L329.96 250.41L324.02 247.61L323.35 236.53L313.07 245.12L321.47 253.63L337.5 254.3L362 233.25L400.75 254.87L409.96 268.62L407.33 302.19L406.07 312.55L402.85 323.22L400.32 325.87L390.95 305.31L386.19 305.31L395.59 328.4L402.02 326.92L409.96 311.32L413.69 278.11L411.31 258.58L402.26 235.43L387.73 217.81L370.95 209.2L352.97 205.13L337.5 205.13L311.07 213.49L304.88 209.2L310.47 208.94L302.26 200.99L308.21 201.82L300.47 193.25L304.88 190.51L299.4 190.51L302.73 186.7L286.78 187.65L271.43 196.34L282.38 196.34L287.26 201.82L286.78 208.01L279.78 212.27L256.45 204.65L240.62 205.13L223.35 208.94L206.45 218.58L193.13 234.59L184.08 259.99L181.7 279.24L185.51 309.95L190.98 323.76L198.72 328.4L209.08 305.31L204.32 305.67L194.89 323.87Z" id="a10dxOIGPk"></path><path d="M265.12 285.65L207.37 297.99L195.34 310.01L192.96 322.03L199.27 328.82L195.7 330.37L189.87 328.46L185.1 311.65L190.41 295.98L217.08 280.23L245.89 278.08L244.34 269.15L239.34 263.44L234.34 278.48L230.53 259.99L241.25 241.33L234.94 244.31L224.22 258.12L217.91 279.19L214.46 263.71L217.91 244.07L209.22 254.78L204.46 282.17L200.29 255.86L197.44 258.48L193.51 281.21L187.79 262.28L193.51 240.62L211.6 225.27L246.54 215.94L264.28 226.7L254.52 248.08L265.12 269.15L296.66 250.15L330.27 268.73L340.63 247.65L331.22 226.7L349.13 216.23L382.96 225.27L402.15 241.33L407.39 262.05L401.56 281.81L397.63 258.12L394.89 255.38L390.25 281.81L385.72 255.38L376.32 244.07L380.84 265.98L377.7 279.19L370.01 256.33L361.2 244.78L354.29 241.93L364.72 260.34L360.79 278.08L355.79 263.44L350.44 269.63L349.13 277.73L377.7 280.23L405.91 297.13L409.96 311.65L404.84 327.84L399.01 330.11L395.91 328.2L402.7 321.77L399.01 308.8L386.51 297.49L330.59 285.65L314.64 274.7L307.02 266.37L297.76 284.11L288.21 266.37L265.12 285.65Z" id="d11dmiFp57"></path><path d="M298.09 218.18L307.5 221.78L315.01 233.59L315.01 253.91L307 266.43L296.99 270.63L287.98 265.92L280.57 254.81L280.57 233.29L288.38 221.28L298.09 218.18Z" id="f4kuigp4q5"></path></defs><g><g><g><use xlink:href="#aj5ZTNKj" opacity="1" fill="#9b7647" fill-opacity="1"></use></g><g><use xlink:href="#d4i1Wh64m" opacity="1" fill="#01583b" fill-opacity="1"></use></g><g><use xlink:href="#a2peQmbakP" opacity="1" fill="#c82f16" fill-opacity="1"></use></g><g><use xlink:href="#a2c6f4zpq" opacity="1" fill="#dda665" fill-opacity="1"></use></g><g><use xlink:href="#coqw8QCpx" opacity="1" fill="#56321e" fill-opacity="1"></use></g><g><use xlink:href="#c2HEr5rYet" opacity="1" fill="#495db2" fill-opacity="1"></use></g><g><use xlink:href="#h4AYig30rX" opacity="1" fill="#6ec5ec" fill-opacity="1"></use></g><g><use xlink:href="#bhg4mJcCT" opacity="1" fill="#6ec5ec" fill-opacity="1"></use></g><g><use xlink:href="#a10dxOIGPk" opacity="1" fill="#7a6866" fill-opacity="1"></use></g><g><use xlink:href="#d11dmiFp57" opacity="1" fill="#d5d5d5" fill-opacity="1"></use></g><g><use xlink:href="#f4kuigp4q5" opacity="1" fill="#6ec5ec" fill-opacity="1"></use></g></g></g></svg>