<?xml version="1.0" encoding="UTF-8" standalone="no"?>
<!DOCTYPE svg PUBLIC "-//W3C//DTD SVG 1.1//EN" "http://www.w3.org/Graphics/SVG/1.1/DTD/svg11.dtd">
<svg version="1.1" xmlns="http://www.w3.org/2000/svg" xmlns:xlink="http://www.w3.org/1999/xlink" preserveAspectRatio="xMidYMid meet" viewBox="156.33333333333348 156.41666666666674 261.99999999999994 262.0000000000002" width="262" height="262"><defs><path d="M156.33 156.42L418.33 156.42L418.33 418.42L156.33 418.42L156.33 156.42Z" id="beOguyUIF"></path><path d="M209.61 365.83L418.33 365.83L418.33 418.42L209.61 418.42L209.61 365.83Z" id="bRoqRXWx"></path><path d="M265.24 326.14L407.43 326.14L407.43 365.83L265.24 365.83L265.24 326.14Z" id="co4xTkqCm"></path><path d="M288.68 298.95L418.33 298.95L418.33 326.14L288.68 326.14L288.68 298.95Z" id="bfevPxMzl"></path><path d="M302.11 271.76L407.43 271.76L407.43 298.95L302.11 298.95L302.11 271.76Z" id="af2zKbQw2"></path><path d="M258.39 374.58L295.23 263.02L263.32 243.79L241.56 239.32L203.86 239.92L189.7 229.93L176.14 236.19L166.84 256.01L164.9 298.19L173.69 331.27L206.52 359.93L209.61 378.86L208.46 395.4L197.43 417.91L206.97 417.91L224.38 410.26L252.99 383.14L258.39 374.58Z" id="b7qRlHlrhr"></path><path d="M302.11 224.69L309.22 224.69L320.4 269.46L263.75 372.94L253.62 381.44L302.11 224.69Z" id="eqmPBvUeq"></path><path d="M367.09 166.2L376.78 156.81L393.02 156.81L401.66 169.18L391.83 180.8L407.03 195.41L398.83 212.85L376.33 224.17L367.09 218.81L367.09 207.93L354.27 208.82L353.97 217.76L345.18 224.69L339.52 224.69L322.98 216.42L312.99 201.97L331.17 183.49L319.25 169.63L327 156.81L340.86 156.81L353.23 169.18L367.09 166.2Z" id="d3d0FESWCc"></path><path d="M367.09 166.05L367.09 208.08L361.57 214.78L354.12 209.12L353.23 169.33L359.64 161.43L367.09 166.05Z" id="b53Eqx7ad"></path></defs><g><g><g><use xlink:href="#beOguyUIF" opacity="1" fill="#9b7647" fill-opacity="1"></use></g><g><use xlink:href="#bRoqRXWx" opacity="1" fill="#346336" fill-opacity="1"></use></g><g><use xlink:href="#co4xTkqCm" opacity="1" fill="#29262a" fill-opacity="1"></use></g><g><use xlink:href="#bfevPxMzl" opacity="1" fill="#42254d" fill-opacity="1"></use></g><g><use xlink:href="#af2zKbQw2" opacity="1" fill="#821b51" fill-opacity="1"></use></g><g><use xlink:href="#b7qRlHlrhr" opacity="1" fill="#0f3a58" fill-opacity="1"></use></g><g><use xlink:href="#eqmPBvUeq" opacity="1" fill="#2f61a4" fill-opacity="1"></use></g><g><use xlink:href="#d3d0FESWCc" opacity="1" fill="#ffa03a" fill-opacity="1"></use></g><g><use xlink:href="#b53Eqx7ad" opacity="1" fill="#c3a27d" fill-opacity="1"></use></g></g></g></svg>