<?xml version="1.0" encoding="UTF-8" standalone="no"?>
<!DOCTYPE svg PUBLIC "-//W3C//DTD SVG 1.1//EN" "http://www.w3.org/Graphics/SVG/1.1/DTD/svg11.dtd">
<svg version="1.1" xmlns="http://www.w3.org/2000/svg" xmlns:xlink="http://www.w3.org/1999/xlink" preserveAspectRatio="xMidYMid meet" viewBox="75.01594738742347 66.32328422300657 262.32765199325445 262.1544903538318" width="262.33" height="262.15"><defs><path d="M75.17 66.39L337.17 66.39L337.17 328.39L75.17 328.39L75.17 66.39Z" id="e1eUQN71xk"></path><path d="M75.15 83.91L141.32 84.67L141.05 328.48L75.02 328.48L75.15 83.91Z" id="cZqSM0Pdu"></path><path d="M252.6 66.32L337.34 66.32L337.14 314.33L251.56 314.54L252.6 66.32Z" id="cLReCBRc8"></path><path d="M251.35 314.51L337.11 314.3L337.19 328.46L251.14 328.24L251.35 314.51Z" id="e1lKEx61YX"></path><path d="M252.54 98.46L337.03 98.56L337.32 118.43L252.54 118.84L252.54 98.46Z" id="c6oXStcYQ1"></path><path d="M135.92 66.32L173.11 66.39L173.11 327.83L135.92 327.83L135.92 66.32Z" id="d2icgmfzqp"></path><path d="M172.54 310.53L238.55 165.59L232.39 95.7L246.57 165.59L183.94 320L173.11 314.3L172.54 310.53Z" id="b4EQ8SZI9U"></path><path d="M238.06 165.67L238.06 162.1L245.82 161.51L246.99 165.67L243.64 173.21L236.47 170.04L238.06 165.67Z" id="a1US9N9Oi7"></path></defs><g><g><g><use xlink:href="#e1eUQN71xk" opacity="1" fill="#9b7647" fill-opacity="1"></use></g><g><use xlink:href="#cZqSM0Pdu" opacity="1" fill="#eca16c" fill-opacity="1"></use></g><g><use xlink:href="#cLReCBRc8" opacity="1" fill="#99cccb" fill-opacity="1"></use></g><g><use xlink:href="#e1lKEx61YX" opacity="1" fill="#1de1de" fill-opacity="1"></use></g><g><use xlink:href="#c6oXStcYQ1" opacity="1" fill="#1de1de" fill-opacity="1"></use></g><g><use xlink:href="#d2icgmfzqp" opacity="1" fill="#be44b4" fill-opacity="1"></use></g><g><use xlink:href="#b4EQ8SZI9U" opacity="1" fill="#443821" fill-opacity="1"></use></g><g><use xlink:href="#a1US9N9Oi7" opacity="1" fill="#d5ceb4" fill-opacity="1"></use></g></g></g></svg>