<?xml version="1.0" encoding="UTF-8" standalone="no"?>
<!DOCTYPE svg PUBLIC "-//W3C//DTD SVG 1.1//EN" "http://www.w3.org/Graphics/SVG/1.1/DTD/svg11.dtd">
<svg version="1.1" xmlns="http://www.w3.org/2000/svg" xmlns:xlink="http://www.w3.org/1999/xlink" preserveAspectRatio="xMidYMid meet" viewBox="147.0058708414873 143.67906066536193 261.9999999999999 262.0000000000001" width="262" height="262"><defs><path d="M147.01 143.68L409.01 143.68L409.01 405.68L147.01 405.68L147.01 143.68Z" id="a8jeAJdwy"></path><path d="M409.01 405.68L409.01 340.59L152.76 339.41L147.01 369.64L147.01 405.68L409.01 405.68Z" id="g4QmaqefvU"></path><path d="M294.3 369.7L313.4 405.68L303.58 405.68L282.69 369.7L294.3 369.7Z" id="aiVuIwyq9"></path><path d="M341.44 405.68L356.44 405.68L335.55 369.16L321.62 369.7L341.44 405.68Z" id="cizctjjLA"></path><path d="M152.15 340.61L158.4 318.86L409.01 340.61L409.01 368.11L151.26 371.04L152.15 340.61Z" id="i9Rskmilc"></path><path d="M174.3 371.04L185.19 371.04L185.73 341.18L174.3 341.18L174.3 371.04Z" id="abxP5iKI"></path><path d="M404.05 341.18L404.58 316.02L392.44 237.09L195.53 219.77L177.24 219.77L158.05 318.86L158.76 341.18L404.05 341.18Z" id="berugjCfC"></path><path d="M158.05 318.86L404.58 315.98L404.58 319.38L158.05 321.68L158.05 318.86Z" id="f5HGRHilOU"></path><path d="M180.74 236.98L240.83 338.02L391.19 236.06L389.23 254.09L376.73 250.2L376.19 261.77L364.94 258.02L365.83 269.45L347.98 267.66L347.08 282.31L345.3 283.02L334.05 276.59L332.8 291.59L315.94 289.31L319.51 301.09L304.15 297.34L306.83 308.06L292.01 304.84L290.58 317.16L274.69 317.16L264.87 322.52L262.19 341.98L250.05 334.13L247.01 341.98L238.98 341.98L229.51 341.98L232.73 330.91L221.83 331.63L226.3 321.68L224.15 318.23L214.51 318.23L219.69 309.84L218.44 308.59L210.23 309.84L213.44 299.31L212.73 297.34L203.44 298.77L206.83 286.27L197.01 286.27L200.58 275.56L190.76 274.31L193.26 262.34L183.98 262.34L185.73 248.41L177.01 250.2L178.62 237.34L180.74 236.98Z" id="b13Tb3nOLk"></path><path d="M183.9 215.62L180.43 236.06L239.89 337.97L395.54 233.52L395.05 206.76L242.79 299.88L185.17 216.73L183.9 215.62Z" id="a1FVvfAkqs"></path><path d="M184.83 216.69L181.73 235.13L239.99 335.66L395.05 232.32L396.06 235.13L239.14 341.18L206.64 286.98L178.6 236.81L182.17 213.95L184.83 216.69Z" id="a4WIBeWalS"></path><path d="M382.54 205.36L395.23 206.44L395.54 218.18L382.13 214.54L384.58 225.05L374.73 219.77L372.7 233.28L361.5 227.21L358.26 242.73L294.66 284.32L282.78 275.82L282.38 292.01L271.58 284.32L270.64 299.57L259.3 290.26L256.06 309.15L242.7 299.57L235.01 305.38L236.36 290.26L220.16 288.64L221.92 270.15L209.1 270.15L210.04 253.42L196.68 251.39L197.36 234.52L187.64 236.82L184.81 216.85L382.54 205.36Z" id="bgBRmWGab"></path><path d="M345.94 236.76L358.04 243.01L355.54 258.76L305.34 292.46L294.64 284.26L298.44 265.56L345.94 236.76Z" id="d3alqgNQ9G"></path><path d="M346.74 239.56L355.54 244.86L353.54 257.76L307.14 288.66L297.24 282.56L300.24 267.26L346.74 239.56Z" id="g5rV1SQrI3"></path><path d="M337.14 245.16L353.44 257.76L312.64 285.06L313.64 266.06L306.74 264.61L307.44 275.46L300.33 267.15L337.14 245.16Z" id="b2tZa49qeN"></path><path d="M313.34 271.86L322.64 278.36L345.04 263.46L345.44 251.66L337.54 245.46L336.94 256.96L326.74 251.66L325.64 263.86L313.94 259.86L313.64 265.86L313.34 271.86Z" id="a2okdlQNG"></path><path d="M346.64 239.36L349.44 248.46L341.24 242.96L346.64 239.36Z" id="a1BPFJC7je"></path><path d="M302.22 143.68L308.85 143.68L397.3 205.36L242.64 299.98L182.79 213.95L302.22 143.68Z" id="e2JESE8DC"></path><path d="M324.38 227.43L296.77 245.46L293.04 213.95L324.38 227.43Z" id="bgyta2mt8"></path><path d="M323.88 227.55L345.44 236.76L322.89 233.77L309.21 237.25L298.39 265.11L296.77 245.46L323.88 227.55Z" id="aTrgdsFKB"></path><path d="M250.25 238.39L267.04 230.8L273.51 239.36L272.02 249.71L256.35 259.03L248.39 257.91L241.17 248.09L250.25 238.39Z" id="ahxZkjUMx"></path><path d="M250.25 238.51L262.44 234.03L269.28 239.36L267.79 247.59L255.72 254.68L249.13 252.32L245.15 245.46L250.25 238.51Z" id="lEEWuXVsH"></path><path d="M250.25 238.51L258.83 236.39L265.92 239.56L265.18 244.92L257.22 250.33L251.87 248.96L249.13 243.36L250.25 238.51Z" id="bibpHNNPF"></path><path d="M256.6 228.44L267.17 230.8L241.17 248.09L241.67 237.76L256.6 228.44Z" id="a7SeIQveD0"></path><path d="M246.02 209.53L264.56 202.57L270.15 209.53L268.29 217.49L252.74 227.07L243.91 226.45L239.06 218.49L246.02 209.53Z" id="fJFQFeQDF"></path><path d="M246.02 209.6L262.57 203.87L267.17 209.22L266.67 215.57L253.11 224.02L246.02 222.9L242.17 216.93L246.02 209.6Z" id="f25sbxwxE"></path><path d="M246.4 209.41L259.21 205.92L263.68 209.41L263.06 214.26L253.61 220.35L247.89 219.77L244.66 215.13L246.4 209.41Z" id="a1TyJ3t3Rd"></path><path d="M254.05 201.07L265.05 202.57L238.56 218.36L239.93 209.66L254.05 201.07Z" id="a1doJvkwTA"></path><path d="M291 182.35L309.53 176.76L313.64 182.35L314.26 189.32L294.64 201.53L288.47 200.66L283.5 193.32L291 182.35Z" id="d21sisPvNz"></path><path d="M291.5 182.35L305.43 179.74L310.03 183.6L310.03 189.15L294.64 198.4L290.04 197.28L286.4 191.81L291.5 182.35Z" id="agSdEv5m"></path><path d="M293.04 184.97L300.54 182.85L307.42 184.1L306.79 188.2L296.22 194.79L292.49 193.3L290.63 189.15L293.04 184.97Z" id="a19W9u99yY"></path><path d="M299.33 175.02L310.03 176.76L283.5 193.42L284.53 183.6L299.33 175.02Z" id="a1yp32X3NM"></path><path d="M317.99 196.66L334.16 189.15L342.12 197.28L341.62 205.61L329.39 213.76L319.48 213.95L311.52 207.23L317.99 196.66Z" id="b3ycmX6Cgs"></path><path d="M318.29 196.43L330.35 192.33L338.56 196.81L337.69 203.15L326.92 210.74L319.92 209.74L315.42 204.02L318.29 196.43Z" id="burow8Hpm"></path><path d="M318.36 196.53L326.99 194.42L334.41 197.53L334.41 201.53L326.82 207.23L322.09 205.86L319.36 201.07L318.36 196.53Z" id="c2zr7NDtfD"></path><path d="M323.09 187.33L334.41 188.82L311.52 207.48L310.9 194.79L323.09 187.33Z" id="a1VCYEQLDv"></path></defs><g><g><g><use xlink:href="#a8jeAJdwy" opacity="1" fill="#9b7647" fill-opacity="1"></use></g><g><use xlink:href="#g4QmaqefvU" opacity="1" fill="#e75ac5" fill-opacity="1"></use></g><g><use xlink:href="#aiVuIwyq9" opacity="1" fill="#ffe148" fill-opacity="1"></use></g><g><use xlink:href="#cizctjjLA" opacity="1" fill="#ffe148" fill-opacity="1"></use></g><g><use xlink:href="#i9Rskmilc" opacity="1" fill="#20caff" fill-opacity="1"></use></g><g><use xlink:href="#abxP5iKI" opacity="1" fill="#eccd2f" fill-opacity="1"></use></g><g><use xlink:href="#berugjCfC" opacity="1" fill="#f59063" fill-opacity="1"></use></g><g><use xlink:href="#f5HGRHilOU" opacity="1" fill="#4540a5" fill-opacity="1"></use></g><g><use xlink:href="#b13Tb3nOLk" opacity="1" fill="#b1bd54" fill-opacity="1"></use></g><g><use xlink:href="#a1FVvfAkqs" opacity="1" fill="#dad5c0" fill-opacity="1"></use></g><g><use xlink:href="#a4WIBeWalS" opacity="1" fill="#867f64" fill-opacity="1"></use></g><g><use xlink:href="#bgBRmWGab" opacity="1" fill="#b1bd54" fill-opacity="1"></use></g><g><use xlink:href="#d3alqgNQ9G" opacity="1" fill="#ab6960" fill-opacity="1"></use></g><g><use xlink:href="#g5rV1SQrI3" opacity="1" fill="#0c0c0c" fill-opacity="1"></use></g><g><use xlink:href="#b2tZa49qeN" opacity="1" fill="#ffec36" fill-opacity="1"></use></g><g><use xlink:href="#a2okdlQNG" opacity="1" fill="#ef5e6f" fill-opacity="1"></use></g><g><use xlink:href="#a1BPFJC7je" opacity="1" fill="#ffec36" fill-opacity="1"></use></g><g><use xlink:href="#e2JESE8DC" opacity="1" fill="#baa25d" fill-opacity="1"></use></g><g><use xlink:href="#bgyta2mt8" opacity="1" fill="#6e8b6f" fill-opacity="1"></use></g><g><use xlink:href="#aTrgdsFKB" opacity="1" fill="#c37f60" fill-opacity="1"></use></g><g><use xlink:href="#ahxZkjUMx" opacity="1" fill="#ffffff" fill-opacity="1"></use></g><g><use xlink:href="#lEEWuXVsH" opacity="1" fill="#52becf" fill-opacity="1"></use></g><g><use xlink:href="#bibpHNNPF" opacity="1" fill="#1b1b1b" fill-opacity="1"></use></g><g><use xlink:href="#a7SeIQveD0" opacity="1" fill="#c48260" fill-opacity="1"></use></g><g><use xlink:href="#fJFQFeQDF" opacity="1" fill="#ffffff" fill-opacity="1"></use></g><g><use xlink:href="#f25sbxwxE" opacity="1" fill="#52becf" fill-opacity="1"></use></g><g><use xlink:href="#a1TyJ3t3Rd" opacity="1" fill="#1b1b1b" fill-opacity="1"></use></g><g><use xlink:href="#a1doJvkwTA" opacity="1" fill="#c48260" fill-opacity="1"></use></g><g><use xlink:href="#d21sisPvNz" opacity="1" fill="#ffffff" fill-opacity="1"></use></g><g><use xlink:href="#agSdEv5m" opacity="1" fill="#52becf" fill-opacity="1"></use></g><g><use xlink:href="#a19W9u99yY" opacity="1" fill="#1b1b1b" fill-opacity="1"></use></g><g><use xlink:href="#a1yp32X3NM" opacity="1" fill="#c48260" fill-opacity="1"></use></g><g><use xlink:href="#b3ycmX6Cgs" opacity="1" fill="#ffffff" fill-opacity="1"></use></g><g><use xlink:href="#burow8Hpm" opacity="1" fill="#52becf" fill-opacity="1"></use></g><g><use xlink:href="#c2zr7NDtfD" opacity="1" fill="#1b1b1b" fill-opacity="1"></use></g><g><use xlink:href="#a1VCYEQLDv" opacity="1" fill="#c48260" fill-opacity="1"></use></g></g></g></svg>