<?xml version="1.0" encoding="UTF-8" standalone="no"?>
<!DOCTYPE svg PUBLIC "-//W3C//DTD SVG 1.1//EN" "http://www.w3.org/Graphics/SVG/1.1/DTD/svg11.dtd">
<svg version="1.1" xmlns="http://www.w3.org/2000/svg" xmlns:xlink="http://www.w3.org/1999/xlink" preserveAspectRatio="xMidYMid meet" viewBox="165.45454545454538 144.84848484848476 261.9999999999999 262" width="262" height="262"><defs><path d="M165.45 144.85L427.45 144.85L427.45 406.85L165.45 406.85L165.45 144.85Z" id="c6mDQLHR8"></path><path d="M165.45 144.85L219.13 144.85L218.86 169.74L165.45 169.74L165.45 144.85Z" id="bELDOY7WU"></path><path d="M165.45 379.83L221.33 379.83L221.33 406.85L165.45 406.85L165.45 379.83Z" id="a15tTkJQHW"></path><path d="M165.45 169.74L219.13 169.74L221.33 379.83L165.45 379.83L165.45 169.74Z" id="cdFAvmA0"></path><path d="M218.86 153.7L242.49 153.7L242.49 406.85L221.33 406.85L218.86 153.7Z" id="c1VPx5Rlz8"></path><path d="M249.93 328.9L427.45 354.84L427.45 167.77L249.12 167.77L249.93 328.9Z" id="cyQqTagnD"></path><path d="M250.67 406.85L427.45 406.85L427.45 349.27L249.93 320.69L250.67 406.85Z" id="cSdDj60m7"></path><path d="M337.87 313.68L361.99 312.98L387.87 304.88L398.61 295.55L398.61 285.34L388.4 275.3L363.4 264.56L320.79 262.99L292.27 245.72L299.32 226.53L380.3 199.95L407.41 183.05L393.51 187.27L360.58 204.53L305.13 212.8L292.27 216.15L262.34 235.51L263.58 261.22L282.41 281.46L365.87 284.46L376.08 291.32L368.68 301.18L337.17 310.69L337.87 313.68Z" id="l51OPfLYia"></path><path d="M373.49 377.11L365.5 383.86L365.5 396.67L360.68 396.67L360.27 383.86L353.52 377.11L345.12 377.11L345.12 387.03L332.58 387.03L340.98 382.9L340.98 376.56L337.82 376.56L317.15 364.71L311.78 352.59L310.41 335.79L312.61 330L334.1 317.61L334.1 315.95L319.63 315.95L321.98 311.41L402.28 311.41L403.1 314.85L393.33 316.5L393.33 318.02L414.68 337.17L411.09 355.07L401.18 366.78L386.03 377.11L383.82 384.55L389.74 387.99L379.96 387.99L379.28 376.56L373.49 377.11Z" id="b89Ag6CeQZ"></path></defs><g><g><g><use xlink:href="#c6mDQLHR8" opacity="1" fill="#9b7647" fill-opacity="1"></use></g><g><use xlink:href="#bELDOY7WU" opacity="1" fill="#f9d34e" fill-opacity="1"></use></g><g><use xlink:href="#a15tTkJQHW" opacity="1" fill="#f9d34e" fill-opacity="1"></use></g><g><use xlink:href="#cdFAvmA0" opacity="1" fill="#1e4a2f" fill-opacity="1"></use></g><g><use xlink:href="#c1VPx5Rlz8" opacity="1" fill="#652630" fill-opacity="1"></use></g><g><use xlink:href="#cyQqTagnD" opacity="1" fill="#5c808e" fill-opacity="1"></use></g><g><use xlink:href="#cSdDj60m7" opacity="1" fill="#a28f80" fill-opacity="1"></use></g><g><use xlink:href="#l51OPfLYia" opacity="1" fill="#9f9f9f" fill-opacity="1"></use></g><g><use xlink:href="#b89Ag6CeQZ" opacity="1" fill="#151515" fill-opacity="1"></use></g></g></g></svg>