<?xml version="1.0" encoding="UTF-8" standalone="no"?>
<!DOCTYPE svg PUBLIC "-//W3C//DTD SVG 1.1//EN" "http://www.w3.org/Graphics/SVG/1.1/DTD/svg11.dtd">
<svg version="1.1" xmlns="http://www.w3.org/2000/svg" xmlns:xlink="http://www.w3.org/1999/xlink" preserveAspectRatio="xMidYMid meet" viewBox="187.39002932551307 160.1368523949168 261.9999999999999 262" width="262" height="262"><defs><path d="M187.39 160.14L449.39 160.14L449.39 422.14L187.39 422.14L187.39 160.14Z" id="cKjeO4deh"></path><path d="M301.56 175.49L360.35 183.78L395.78 207.65L423.67 246.09L432.21 302.12L420.9 349.86L388.24 388.05L322.66 414.68L255.08 392.82L221.41 363.43L201.56 316.94L202.56 267.19L220.65 224.48L255.08 189.81L301.56 175.49Z" id="bcyj4aKjq"></path><path d="M358.09 209.66L397.29 248.6L407.34 298.35L393.52 342.57L358.09 377.75L320.9 389.81L281.96 381.77L242.76 350.61L225.43 312.67L229.45 263.43L259.6 216.94L304.07 196.09L358.09 209.66Z" id="a4NnC5ZoVg"></path><path d="M298.35 385.39L290.08 353.63L284.62 382.29L298.35 385.39Z" id="aqPPlWEgj"></path><path d="M281.54 301.98L303.78 310.2L310.02 387.46L298.35 385.39L282.69 326.01L279.3 299.43L281.54 301.98Z" id="f2rCuAmu"></path><path d="M331.44 290.11L331.11 340.92L333.06 385.98L321.1 389.81L310.02 387.46L303.67 310.5L331.44 290.11Z" id="d1wB7iP4A8"></path><path d="M336.46 286.27L353.72 315.99L346.21 324.68L342.96 382.58L333.06 385.96L331.03 340.78L331.44 290.11L336.46 286.27Z" id="b3SbVgzuPE"></path><path d="M367.63 339.3L369.55 366.19L358.32 378.15L342.96 382.73L345.91 324.83L353.6 315.82L367.63 339.3Z" id="bvXALf7Wg"></path><path d="M302.64 301.98L339.12 276.39L340.75 267.28L340.75 256.79L326.86 259.01L326.34 238.92L301.9 233.75L277.23 239.84L261.57 262.4L268.37 280.13L276.79 296.08L302.64 301.98Z" id="c2du3EcQdr"></path><path d="M285.35 269.33L290.08 278.04L273.98 276.52L285.35 269.33Z" id="a7itc4DcAx"></path><path d="M320.8 250.72L335.13 270.81L311.2 275.39L320.8 250.72Z" id="bNVNeZAQN"></path><path d="M300.2 301.47L300.89 298.94L297.03 292.43L296.13 300.56L300.2 301.47Z" id="dRlttS9Nx"></path><path d="M302.52 301.98L300.88 298.85L300.2 301.43L302.52 301.98Z" id="biRvxN6j2"></path><path d="M302.52 301.95L307.23 298.7L304.68 290.76L300.85 298.85L302.52 301.95Z" id="a2ovtAB7j"></path><path d="M300.88 298.94L304.72 290.72L297.01 292.39L300.88 298.94Z" id="atNmpsLfY"></path><path d="M289.82 277.78L293.34 284.81L283.63 284.05L279.3 277.03L289.82 277.78Z" id="e1Z1E1mwHV"></path><path d="M286.06 277.53L286.81 284.47L283.8 277.27L286.06 277.53Z" id="brcDgLMpX"></path><path d="M321.37 273.51L318.78 281L307.73 284.22L311.2 275.39L321.37 273.51Z" id="bcjqIATDv"></path><path d="M316.1 274.26L315.01 282.3L312.75 274.85L316.1 274.26Z" id="dvNHyYTha"></path><path d="M340.45 230.97L340.2 228.71L317.27 245.53L319.7 248.46L340.45 230.97Z" id="bbbwZdVjxW"></path><path d="M302.49 301.93L339.12 276.52L337.3 285.82L303.82 310.5L281.07 301.93L276.72 296.15L302.49 301.93Z" id="aU72xtFlk"></path><path d="M306.31 253.31L313.09 248.12L256.52 235.32L277.77 249.21L274.34 260.17L306.31 253.31Z" id="d1jZWsfbmy"></path><path d="M319.77 248.46L326.88 259.15L340.75 256.98L340.45 231.04L319.77 248.46Z" id="i6eEXsJJS"></path><path d="M277.95 248.92L256.52 235.32L261.29 262.43L274.18 260.17L277.95 248.92Z" id="cCzzvr61W"></path></defs><g><g><g><use xlink:href="#cKjeO4deh" opacity="1" fill="#9b7647" fill-opacity="1"></use></g><g><use xlink:href="#bcyj4aKjq" opacity="1" fill="#dbdbdb" fill-opacity="1"></use></g><g><use xlink:href="#a4NnC5ZoVg" opacity="1" fill="#db1ac0" fill-opacity="1"></use></g><g><use xlink:href="#aqPPlWEgj" opacity="1" fill="#321b17" fill-opacity="1"></use></g><g><use xlink:href="#f2rCuAmu" opacity="1" fill="#a48680" fill-opacity="1"></use></g><g><use xlink:href="#d1wB7iP4A8" opacity="1" fill="#6b4740" fill-opacity="1"></use></g><g><use xlink:href="#b3SbVgzuPE" opacity="1" fill="#a48680" fill-opacity="1"></use></g><g><use xlink:href="#bvXALf7Wg" opacity="1" fill="#321b17" fill-opacity="1"></use></g><g><use xlink:href="#c2du3EcQdr" opacity="1" fill="#a48680" fill-opacity="1"></use></g><g><use xlink:href="#a7itc4DcAx" opacity="1" fill="#321b17" fill-opacity="1"></use></g><g><use xlink:href="#bNVNeZAQN" opacity="1" fill="#321b17" fill-opacity="1"></use></g><g><use xlink:href="#dRlttS9Nx" opacity="1" fill="#844764" fill-opacity="1"></use></g><g><use xlink:href="#biRvxN6j2" opacity="1" fill="#f80076" fill-opacity="1"></use></g><g><use xlink:href="#a2ovtAB7j" opacity="1" fill="#844764" fill-opacity="1"></use></g><g><use xlink:href="#atNmpsLfY" opacity="1" fill="#de6da2" fill-opacity="1"></use></g><g><use xlink:href="#e1Z1E1mwHV" opacity="1" fill="#358aa8" fill-opacity="1"></use></g><g><use xlink:href="#brcDgLMpX" opacity="1" fill="#000000" fill-opacity="1"></use></g><g><use xlink:href="#bcjqIATDv" opacity="1" fill="#358aa8" fill-opacity="1"></use></g><g><use xlink:href="#dvNHyYTha" opacity="1" fill="#000000" fill-opacity="1"></use></g><g><use xlink:href="#bbbwZdVjxW" opacity="1" fill="#321b17" fill-opacity="1"></use></g><g><use xlink:href="#aU72xtFlk" opacity="1" fill="#321b17" fill-opacity="1"></use></g><g><use xlink:href="#d1jZWsfbmy" opacity="1" fill="#321b17" fill-opacity="1"></use></g><g><use xlink:href="#i6eEXsJJS" opacity="1" fill="#d59dd3" fill-opacity="1"></use></g><g><use xlink:href="#cCzzvr61W" opacity="1" fill="#d59dd3" fill-opacity="1"></use></g></g></g></svg>