<?xml version="1.0" encoding="UTF-8" standalone="no"?>
<!DOCTYPE svg PUBLIC "-//W3C//DTD SVG 1.1//EN" "http://www.w3.org/Graphics/SVG/1.1/DTD/svg11.dtd">
<svg version="1.1" xmlns="http://www.w3.org/2000/svg" xmlns:xlink="http://www.w3.org/1999/xlink" preserveAspectRatio="xMidYMid meet" viewBox="68.41879468845764 168.5413651508684 524 262" width="524" height="262"><defs><path d="M68.42 168.54L592.42 168.54L592.42 430.54L68.42 430.54L68.42 168.54Z" id="bdKwNF8Yp"></path><path d="M386.18 396.08L387.05 374.21L394.03 357.11L415.23 340.1L448.28 340.58L465.09 353.02L478.67 372.76L478.67 393.34L472.65 410.25L446.9 429.88L416.77 429.88L394.03 412L386.18 396.08Z" id="a2xaWYkxIM"></path><path d="M449.94 286.28L449.94 303.87L445.86 311.55L453.83 316.31L456.93 324.48L455.09 331.38L443.14 318.84L422.82 318.84L421.43 318.84L421.53 319.9L410.77 331.96L407.66 325.94L410.29 317.27L417.87 312.62L415.73 307.47L414.76 289.78L423.41 279.48L439.64 279.48L449.94 286.28Z" id="eWMUPN20i"></path><path d="M435.07 323.12L444.2 315.83L445.86 301.18L444.2 290.37L438.28 288.33L426.71 287.35L419.33 293.18L417.87 300.57L423.31 320.49L435.07 323.12Z" id="b1wADZFvvr"></path><path d="M450.33 340.4L450.33 331.17L447.12 331.17L444.11 320L443.23 319.02L443.23 317.27L434.49 320.77L419.91 318.05L420.78 319.7L419.13 320.77L416.7 332.14L414.47 332.14L414.76 340.1L450.33 340.4Z" id="c9SeBm4Oi"></path><path d="M294.72 418.27L260.91 425.18L259.72 416.43L269.93 413.89L270.49 409.7L266 406.76L263.2 415.65L236.83 421.76L231.5 420.22L231.5 415.65L244.12 411.95L245.8 406.76L231.79 397.07L220.43 373.78L210.33 370.59L196.03 376.59L169.66 378.02L169.1 399.48L163.63 421.76L149.33 429.48L142.03 429.91L137.95 422.52L147.49 417.75L149.73 406.76L137.11 369.65L124.91 422.24L102.89 422.94L101.48 418.88L105.55 415.65L113.41 415.65L110.12 364.04L89.75 321.44L88.9 270.95L90.35 235.58L72.96 201.08L71.7 182.14L80.95 176.81L110.12 188.6L127.38 203.18L138.32 236.98L144.84 283.07L153.39 291.62L187.17 293.9L201.19 285.9L233.88 275.09L248.47 275.93L263.76 280.42L287.32 299.54L305.97 337.42L330.42 372.68L365.58 392.73L377.36 406.76L378.34 421.76L353.52 429.48L343.42 427.23L366.28 408.86L320.7 388.96L301.25 370.59L294.72 418.27Z" id="b8grqLHoRY"></path><path d="M115.24 205.05L120.86 205.24L122.99 208.4L122.28 215.38L113.24 207.05L115.24 205.05Z" id="bb1Q2RCn3"></path><path d="M120.67 205.3L122.99 208.27L122.41 215.89L124.73 217.44L125.9 207.24L123.9 205.05L120.93 200.72L117.89 201.37L114.86 205.05L120.67 205.3Z" id="a4xfqO123"></path><path d="M91.36 182.58L94.52 184.19L94.13 187.49L88.45 187.16L87.61 184.97L91.36 182.58Z" id="aqTRQAWYQ"></path><path d="M75.61 175.35L80.84 176.81L79.48 180.64L75.41 183.61L71.54 182.32L71.35 178.96L75.61 175.35Z" id="c1bAi1nsKo"></path><path d="M560.35 385.02L561.27 393.9L572.32 394.78L582.94 403.93L585.3 417.94L577.33 426.64L571.43 427.23L562.88 423.99L535.77 386.38L351.51 181.33L352.98 175.14L358.44 175.14L560.35 385.02Z" id="c4047DqKX1"></path><path d="M561.86 402.57L565.99 404.64L569.53 401.24L569.53 396.82L561.27 396.23L561.86 402.57Z" id="bfxbLV6bR"></path><path d="M518.94 367.62L521.23 370.17L533.77 357.38L530 353.52L518.94 367.62Z" id="a3CTfdsMoN"></path><path d="M482.12 326.68L485.66 330.58L496.82 319L492.31 314.29L482.12 326.68Z" id="bcGDgfN9G"></path></defs><g><g><g><use xlink:href="#bdKwNF8Yp" opacity="1" fill="#9b7647" fill-opacity="1"></use></g><g><use xlink:href="#a2xaWYkxIM" opacity="1" fill="#daa700" fill-opacity="1"></use></g><g><use xlink:href="#eWMUPN20i" opacity="1" fill="#dfb128" fill-opacity="1"></use></g><g><use xlink:href="#b1wADZFvvr" opacity="1" fill="#ddc68e" fill-opacity="1"></use></g><g><use xlink:href="#c9SeBm4Oi" opacity="1" fill="#574c51" fill-opacity="1"></use></g><g><use xlink:href="#b8grqLHoRY" opacity="1" fill="#ffffff" fill-opacity="1"></use></g><g><use xlink:href="#bb1Q2RCn3" opacity="1" fill="#fdc0b1" fill-opacity="1"></use></g><g><use xlink:href="#a4xfqO123" opacity="1" fill="#726759" fill-opacity="1"></use></g><g><use xlink:href="#aqTRQAWYQ" opacity="1" fill="#726759" fill-opacity="1"></use></g><g><use xlink:href="#c1bAi1nsKo" opacity="1" fill="#fdc0b1" fill-opacity="1"></use></g><g><use xlink:href="#c4047DqKX1" opacity="1" fill="#624939" fill-opacity="1"></use></g><g><use xlink:href="#bfxbLV6bR" opacity="1" fill="#241912" fill-opacity="1"></use></g><g><use xlink:href="#a3CTfdsMoN" opacity="1" fill="#7e7880" fill-opacity="1"></use></g><g><use xlink:href="#bcGDgfN9G" opacity="1" fill="#7e7880" fill-opacity="1"></use></g></g></g></svg>