<?xml version="1.0" encoding="UTF-8" standalone="no"?>
<!DOCTYPE svg PUBLIC "-//W3C//DTD SVG 1.1//EN" "http://www.w3.org/Graphics/SVG/1.1/DTD/svg11.dtd">
<svg version="1.1" xmlns="http://www.w3.org/2000/svg" xmlns:xlink="http://www.w3.org/1999/xlink" preserveAspectRatio="xMidYMid meet" viewBox="171.04627368435376 158.8634779854292 262.0000000000001 262.0000000000002" width="262" height="262"><defs><path d="M171.05 158.86L433.05 158.86L433.05 420.86L171.05 420.86L171.05 158.86Z" id="h1bZ8MQdQ5"></path><path d="M171.05 203.5L222.54 203.5L222.54 420.86L171.05 420.86L171.05 203.5Z" id="ePF5w9yFW"></path><path d="M222.54 218.31L262.45 218.31L262.45 420.86L222.54 420.86L222.54 218.31Z" id="c3gsNocZ48"></path><path d="M262.45 230.61L314.44 230.61L314.44 420.86L262.45 420.86L262.45 230.61Z" id="a6XNHfdsO3"></path><path d="M314.44 224L354.35 224L354.35 420.86L314.44 420.86L314.44 224Z" id="hB9QHswPx"></path><path d="M354.35 201.73L433.05 201.73L433.05 420.86L354.35 420.86L354.35 201.73Z" id="hSt3BlYCz"></path><path d="M271.65 169.68L273.01 168.41L288.03 163.67L301.51 164.03L305.13 165.48L342.08 166.32L396.39 176.35L421.91 187.11L421.64 196.44L414.81 201.73L407.93 201.73L393.09 188.62L372.36 179.93L358.62 177.79L318.08 174.42L310.2 174.96L298.35 178.13L289.97 177.79L282.09 176.8L179.2 203.5L171.87 203.5L271.65 169.68Z" id="aJbdZA3Lk"></path></defs><g><g><g><use xlink:href="#h1bZ8MQdQ5" opacity="1" fill="#9b7647" fill-opacity="1"></use></g><g><use xlink:href="#ePF5w9yFW" opacity="1" fill="#894e3c" fill-opacity="1"></use></g><g><use xlink:href="#c3gsNocZ48" opacity="1" fill="#1a1a1a" fill-opacity="1"></use></g><g><use xlink:href="#a6XNHfdsO3" opacity="1" fill="#948797" fill-opacity="1"></use></g><g><use xlink:href="#hB9QHswPx" opacity="1" fill="#695537" fill-opacity="1"></use></g><g><use xlink:href="#hSt3BlYCz" opacity="1" fill="#65613c" fill-opacity="1"></use></g><g><use xlink:href="#aJbdZA3Lk" opacity="1" fill="#312d32" fill-opacity="1"></use></g></g></g></svg>