<?xml version="1.0" encoding="UTF-8" standalone="no"?>
<!DOCTYPE svg PUBLIC "-//W3C//DTD SVG 1.1//EN" "http://www.w3.org/Graphics/SVG/1.1/DTD/svg11.dtd">
<svg version="1.1" xmlns="http://www.w3.org/2000/svg" xmlns:xlink="http://www.w3.org/1999/xlink" preserveAspectRatio="xMidYMid meet" viewBox="200.71428229958633 151.27823289070488 261.9999999999999 262" width="262" height="262"><defs><path d="M200.71 151.28L462.71 151.28L462.71 413.28L200.71 413.28L200.71 151.28Z" id="b1ZDchQeoM"></path><path d="M275.04 372.16L275.04 406.73L218.02 406.73L218.67 371.17L275.04 372.16Z" id="bdre7HOmL"></path><path d="M283.47 365.84L285.03 413.28L211.2 413.28L211.2 405.09L273.19 405.09L273.19 374.39L212.44 372.38L212.44 365.84L283.47 365.84Z" id="dPFaAS63V"></path><path d="M462.71 364.95L462.71 413.28L284.51 413.28L283.77 365.84L462.71 364.95Z" id="a2VWTFQwI6"></path><path d="M438.88 364.95L440.96 413.28L417.17 413.28L418.22 364.95L438.88 364.95Z" id="a2DpKRhlVp"></path><path d="M340.14 326L345.18 355.16L357.5 362.98L375.04 355.16L361.5 332.94L373.24 337.45L379.9 353.25L401.25 364.95L321.22 365.84L341.88 353.25L330.77 322.7L340.14 326Z" id="b5WLyFnPo"></path><path d="M334.5 304.18L324.78 307.46L318.7 307.82L312.45 302.27L270.26 305.57L241.79 314.77L223.22 315.64L212.1 312.34L271.86 278L331.33 231.53L372.68 201.82L384.31 182.96L402.19 166.76L415.97 166.76L425.49 173.83L435.02 185.05L423.6 204.17L424.41 232.73L419.94 238.59L412.89 258.85L392.23 282.07L377.47 308.68L372.26 334.02L373.24 337.67L361.67 333.33L362.89 318.22L346.39 307.46L341.36 326.21L330.94 323.09L334.5 304.18Z" id="a17QsNc6rY"></path><path d="M336.86 279.56L344.5 280.95L412.89 259.42L419.5 250.39L419.5 238.42L401.25 224.18L318.11 232.69L286.81 243.99L270.84 261.35L279.34 262.91L221.71 276.97L207.64 285.48L207.64 288.26L218.75 288.78L267.64 278.07L271.81 278.07L336.86 279.56Z" id="didaNawy3"></path><path d="M416.03 176.56L415.29 183.07L413.4 184.43L408.16 181.39L409.41 175.09L416.03 176.56Z" id="mhZJzkL01"></path><path d="M436.17 174.36L452.12 181.6L457.89 187.79L456.42 189.68L423.06 191.36L416.03 183.17L425.78 173.52L436.17 174.36Z" id="b1hYpjwLX7"></path></defs><g><g><g><use xlink:href="#b1ZDchQeoM" opacity="1" fill="#9b7647" fill-opacity="1"></use></g><g><use xlink:href="#bdre7HOmL" opacity="1" fill="#c6c6c6" fill-opacity="1"></use></g><g><use xlink:href="#dPFaAS63V" opacity="1" fill="#53877f" fill-opacity="1"></use></g><g><use xlink:href="#a2VWTFQwI6" opacity="1" fill="#0eb291" fill-opacity="1"></use></g><g><use xlink:href="#a2DpKRhlVp" opacity="1" fill="#9b9b9b" fill-opacity="1"></use></g><g><use xlink:href="#b5WLyFnPo" opacity="1" fill="#d8d8d8" fill-opacity="1"></use></g><g><use xlink:href="#a17QsNc6rY" opacity="1" fill="#545454" fill-opacity="1"></use></g><g><use xlink:href="#didaNawy3" opacity="1" fill="#2e2e2e" fill-opacity="1"></use></g><g><use xlink:href="#mhZJzkL01" opacity="1" fill="#000000" fill-opacity="1"></use></g><g><use xlink:href="#b1hYpjwLX7" opacity="1" fill="#000000" fill-opacity="1"></use></g></g></g></svg>