<?xml version="1.0" encoding="UTF-8" standalone="no"?>
<!DOCTYPE svg PUBLIC "-//W3C//DTD SVG 1.1//EN" "http://www.w3.org/Graphics/SVG/1.1/DTD/svg11.dtd">
<svg version="1.1" xmlns="http://www.w3.org/2000/svg" xmlns:xlink="http://www.w3.org/1999/xlink" preserveAspectRatio="xMidYMid meet" viewBox="191.59740131625313 168.77810361681327 261.9999999999999 262" width="262" height="262"><defs><path d="M191.6 168.78L453.6 168.78L453.6 430.78L191.6 430.78L191.6 168.78Z" id="b64LdafsW"></path><path d="M448.89 412.43L448.89 418.32L440.04 430.44L406.63 430.44L398.03 419.55L398.03 412.43L448.89 412.43Z" id="c1VfjoAGil"></path><path d="M398.03 325.2L448.89 325.2L448.89 412.43L398.03 412.43L398.03 325.2Z" id="bTnH0WjrQ"></path><path d="M398.03 242.06L412.77 231.25L433.9 231.25L448.89 242.06L448.89 325.2L398.03 325.2L398.03 242.06Z" id="b1ZKkzXy10"></path><path d="M448.15 196.36L448.89 220.68L434.64 231.25L412.28 231.25L398.03 220.68L398.03 196.36L448.15 196.36Z" id="bWAqv5qdC"></path><path d="M448.15 196.36L448.15 189.72L440.29 177.44L406.38 177.44L398.03 189.72L398.03 196.36L448.15 196.36Z" id="cRJOjqnJ3"></path><path d="M382.81 412.43L382.81 418.32L373.97 430.44L340.55 430.44L331.95 419.55L331.95 412.43L382.81 412.43Z" id="aJ0hG3VOa"></path><path d="M331.95 297.7L382.81 297.7L382.81 412.43L331.95 412.43L331.95 297.7Z" id="cEHzirezi"></path><path d="M331.95 242.06L346.7 231.25L367.83 231.25L382.81 242.06L382.81 325.2L331.95 325.2L331.95 242.06Z" id="b26oRQ1pWa"></path><path d="M382.08 196.36L382.81 220.68L368.56 231.25L346.2 231.25L331.95 220.68L331.95 196.36L382.08 196.36Z" id="c8W2Qz6O7"></path><path d="M382.08 196.36L382.08 189.72L374.21 177.44L340.31 177.44L331.95 189.72L331.95 196.36L382.08 196.36Z" id="aeTzINlIP"></path><path d="M315.54 412.43L315.54 418.32L306.7 430.44L273.28 430.44L264.68 419.55L264.68 412.43L315.54 412.43Z" id="hHPshcuxk"></path><path d="M265.05 313.33L315.91 313.33L315.91 412.43L265.05 412.43L265.05 313.33Z" id="k3b6sEZnts"></path><path d="M265.05 242.06L279.79 231.25L300.93 231.25L315.91 242.06L315.91 313.33L265.05 313.33L265.05 242.06Z" id="b5In1g52Vo"></path><path d="M315.18 196.36L315.91 220.68L301.66 231.25L279.3 231.25L265.05 220.68L265.05 196.36L315.18 196.36Z" id="aBZSt8Bka"></path><path d="M315.18 196.36L315.18 189.72L307.31 177.44L273.41 177.44L265.05 189.72L265.05 196.36L315.18 196.36Z" id="dmxEUkjsJ"></path><path d="M250.66 412.43L250.66 418.32L241.82 430.44L208.4 430.44L199.8 419.55L199.8 412.43L250.66 412.43Z" id="c28antRNK4"></path><path d="M199.8 285.62L249.93 285.62L250.66 412.43L199.8 412.43L199.8 285.62Z" id="b2yfrakth"></path><path d="M199.8 242.06L214.55 231.25L235.68 231.25L250.66 242.06L249.93 285.62L199.8 285.62L199.8 242.06Z" id="fUJmGhNp"></path><path d="M249.93 196.36L250.66 220.68L236.41 231.25L214.06 231.25L199.8 220.68L199.8 196.36L249.93 196.36Z" id="b1Kb4hakV"></path><path d="M249.93 196.36L249.93 189.72L242.07 177.44L208.16 177.44L199.8 189.72L199.8 196.36L249.93 196.36Z" id="d2shc0PZB1"></path></defs><g><g><g><use xlink:href="#b64LdafsW" opacity="1" fill="#9b7647" fill-opacity="1"></use></g><g><use xlink:href="#c1VfjoAGil" opacity="1" fill="#f8d10c" fill-opacity="1"></use></g><g><use xlink:href="#bTnH0WjrQ" opacity="1" fill="#229e0e" fill-opacity="1"></use></g><g><use xlink:href="#b1ZKkzXy10" opacity="1" fill="#f6f2ec" fill-opacity="1"></use></g><g><use xlink:href="#bWAqv5qdC" opacity="1" fill="#229e0e" fill-opacity="1"></use></g><g><use xlink:href="#cRJOjqnJ3" opacity="1" fill="#f8d10c" fill-opacity="1"></use></g><g><use xlink:href="#aJ0hG3VOa" opacity="1" fill="#f8d10c" fill-opacity="1"></use></g><g><use xlink:href="#cEHzirezi" opacity="1" fill="#052bc5" fill-opacity="1"></use></g><g><use xlink:href="#b26oRQ1pWa" opacity="1" fill="#f6f2ec" fill-opacity="1"></use></g><g><use xlink:href="#c8W2Qz6O7" opacity="1" fill="#052bc5" fill-opacity="1"></use></g><g><use xlink:href="#aeTzINlIP" opacity="1" fill="#f8d10c" fill-opacity="1"></use></g><g><use xlink:href="#hHPshcuxk" opacity="1" fill="#f8d10c" fill-opacity="1"></use></g><g><use xlink:href="#k3b6sEZnts" opacity="1" fill="#b31b1b" fill-opacity="1"></use></g><g><use xlink:href="#b5In1g52Vo" opacity="1" fill="#f6f2ec" fill-opacity="1"></use></g><g><use xlink:href="#aBZSt8Bka" opacity="1" fill="#b31b1b" fill-opacity="1"></use></g><g><use xlink:href="#dmxEUkjsJ" opacity="1" fill="#f8d10c" fill-opacity="1"></use></g><g><use xlink:href="#c28antRNK4" opacity="1" fill="#f8d10c" fill-opacity="1"></use></g><g><use xlink:href="#b2yfrakth" opacity="1" fill="#fffa20" fill-opacity="1"></use></g><g><use xlink:href="#fUJmGhNp" opacity="1" fill="#f6f2ec" fill-opacity="1"></use></g><g><use xlink:href="#b1Kb4hakV" opacity="1" fill="#fffa20" fill-opacity="1"></use></g><g><use xlink:href="#d2shc0PZB1" opacity="1" fill="#f8d10c" fill-opacity="1"></use></g></g></g></svg>