<?xml version="1.0" encoding="UTF-8" standalone="no"?>
<!DOCTYPE svg PUBLIC "-//W3C//DTD SVG 1.1//EN" "http://www.w3.org/Graphics/SVG/1.1/DTD/svg11.dtd">
<svg version="1.1" xmlns="http://www.w3.org/2000/svg" xmlns:xlink="http://www.w3.org/1999/xlink" preserveAspectRatio="xMidYMid meet" viewBox="176 145.33333333333326 262.0000000000001 262.0000000000002" width="262" height="262"><defs><path d="M176 145.33L438 145.33L438 407.33L176 407.33L176 145.33Z" id="b4IBXuFQ1t"></path><path d="M176 189.29L229.34 189.29L228.04 407.33L176 407.33L176 189.29Z" id="d2eMzX3T5x"></path><path d="M256.21 218.89L282.33 176.98L313.72 157.68L341.63 145.98L369.66 157.68L414.65 185.44L431.69 246.16L431.69 298.67L408.1 364.17L370.09 398.48L341.63 405.69L312.39 398.48L274.58 364.56L248.75 290.4L248.75 264.12L256.21 218.89Z" id="g1auoG5DPP"></path><path d="M332.46 397.58L336.38 385.07L334.55 368.97L327.99 363.94L323.14 365.73L324.1 370.68L329.23 371.06L327.52 375.69L322.48 375.69L317.35 370.41L318.68 359.18L336.38 355.08L333.74 349.54L336.78 344.38L342.06 342.4L346.95 344.78L349.07 349.54L346.95 354.56L364.65 359.84L366.37 370.41L360.56 375.69L355.54 375.16L353.82 370.41L359.63 370.41L359.63 366.31L355.14 363.94L349.07 368.69L346.56 385.07L350.25 397.09L356.33 401.72L341.67 405.41L326.21 401.72L332.46 397.58Z" id="e98Y7oytw5"></path><path d="M321.65 331.44L323.36 346.36L309.1 354.06L305.68 338.76L321.65 331.44Z" id="eMWkVCwFB"></path><path d="M319.28 335.53L320.7 344.75L309.87 349.88L308.72 340.47L319.28 335.53Z" id="a2jzxfDXT"></path><path d="M355.97 324.69L354.26 339.52L328.12 339.23L327.45 324.69L355.97 324.69Z" id="b17eUZCVrF"></path><path d="M352.64 326.97L352.64 335.53L330.87 335.05L331.35 326.97L352.64 326.97Z" id="a1XtFnxbEp"></path><path d="M377.7 338.69L374.66 354.06L359.54 346.49L361.82 331.44L377.7 338.69Z" id="dBrgjtCvP"></path><path d="M374.28 340.5L373.33 349.88L362.39 344.68L363.63 336.12L374.28 340.5Z" id="b19fxHOTjw"></path><path d="M330.52 288.93L335.27 297.01L332.71 304.33L326.53 305.47L320.35 302.33L318.26 298.43L322.06 290.45L330.52 288.93Z" id="f2eTLumOX"></path><path d="M361.13 290.92L364.27 298.24L362.39 302.62L355.52 305.75L350.2 304.14L348.2 296.53L352.64 288.93L361.13 290.92Z" id="a3LAJ0dXwV"></path><path d="M310.31 263.09L291.78 261.67L279.04 255.58L285.69 248.26L298.43 245.22L309.93 247.5L318.26 259.1L310.31 263.09Z" id="a5K0ME8ofn"></path><path d="M384.66 245.48L397.68 248.42L404.52 255.65L391.5 261.73L372.87 263.16L365.26 259.26L373.15 247.19L384.66 245.48Z" id="b16MyMULd0"></path><path d="M307.91 309.52L310.85 315.38L308.48 321.2L298.65 322.72L290.99 317.57L289.47 305.12L294.09 293.06L280.91 293.73L268.08 286.39L263.12 269.95L264.92 246.68L270.44 237.07L285.55 227.88L306.75 227.88L318.26 238.77L302.01 232.59L284.22 234.77L272.72 242.58L269.01 276.61L274.52 284.59L286.23 287.8L302.01 285.06L317.77 274.3L328.33 252.06L329.49 238.77L323.98 227.88L298.65 210.42L290.13 210.42L284.9 213.65L292.22 205.14L299.64 204.09L291.27 197.26L286.23 188.99L286.71 182.42L292.22 175.01L302.55 172.63L307.24 175.01L307.68 182.13L302.96 187.65L302.01 177.66L297.64 177.29L293.46 180.43L291.84 188.6L310.38 204.67L315.89 207.62L311.23 198.58L312.18 192.03L318.93 198.97L326.54 200.11L318.52 173.15L319.66 168.16L325.36 162.5L341.61 153.47L358.25 162.5L363.96 168.16L364.49 173.67L356.6 199.72L363.96 198.58L371.41 191.83L371.41 199.24L367.05 207.23L373.42 204.09L391.8 188.31L389.96 180.8L384.89 177.66L380.68 177.66L380.36 187.93L375.04 182.42L375.89 174.43L381.07 172.63L390.98 174.43L396.14 182.13L396.88 188.99L391.8 196.79L383.66 203.67L390.98 204.91L398.56 213.65L392.31 210.42L384.51 210.42L358.64 227.88L353.7 238.77L354.87 251.41L365.67 274.03L381.07 285.06L396.57 287.53L408.64 285.06L413.58 276.88L410.92 242.38L398.56 234.77L381.07 232.59L363.96 238.77L376.22 227.88L397.8 227.88L412.92 237.44L417.55 246.68L420.02 269.39L414.88 286.6L402.36 293.73L388.76 293.06L393.9 305.47L391.8 317.97L384.3 322.72L374.79 321.2L371.41 314.65L375.36 309.22L378.69 309.22L375.36 313.6L378.31 318.54L383.44 319.4L388.76 314.65L387.43 302.66L380.68 293.06L371.41 288.43L354.87 264.19L351.73 257.64L346.03 236.25L350.11 227.88L331.48 227.88L336.42 236.82L330.11 260.56L311.58 288.22L302.55 292.69L294.85 302.86L294.09 314.65L299.41 319.4L304.92 318.26L307.68 312.84L305.21 309.52L307.91 309.52Z" id="gMdEf2nYC"></path><path d="M178.73 407.33L243.69 239.2L257.09 245.22L184.15 407.33L178.73 407.33Z" id="a1TKTHzO0M"></path><path d="M248.37 227.58L261.68 235.72L257.09 245.22L243.69 239.27L248.37 227.58Z" id="k16rqMlX6f"></path><path d="M263.12 188.9L225.92 189.42L225.32 187.34L248.75 184.82L252.69 175.59L227.36 157.24L233.24 172.23L225.92 168.03L219.05 145.33L247.26 145.33L282.31 168.36L283.39 187.06L261.68 235.74L248.38 227.58L263.12 188.9Z" id="a27s4kBLqf"></path><path d="M245.23 149.57L250.74 152.33L252.69 156.52L247.27 158.8L239.78 153.61L245.23 149.57Z" id="bpsXJVXyF"></path></defs><g><g><g><use xlink:href="#b4IBXuFQ1t" opacity="1" fill="#9b7647" fill-opacity="1"></use></g><g><use xlink:href="#d2eMzX3T5x" opacity="1" fill="#363636" fill-opacity="1"></use></g><g><use xlink:href="#g1auoG5DPP" opacity="1" fill="#3f3f3f" fill-opacity="1"></use></g><g><use xlink:href="#e98Y7oytw5" opacity="1" fill="#dbdbdb" fill-opacity="1"></use></g><g><use xlink:href="#eMWkVCwFB" opacity="1" fill="#dbdbdb" fill-opacity="1"></use></g><g><use xlink:href="#a2jzxfDXT" opacity="1" fill="#000000" fill-opacity="1"></use></g><g><use xlink:href="#b17eUZCVrF" opacity="1" fill="#dbdbdb" fill-opacity="1"></use></g><g><use xlink:href="#a1XtFnxbEp" opacity="1" fill="#000000" fill-opacity="1"></use></g><g><use xlink:href="#dBrgjtCvP" opacity="1" fill="#dbdbdb" fill-opacity="1"></use></g><g><use xlink:href="#b19fxHOTjw" opacity="1" fill="#000000" fill-opacity="1"></use></g><g><use xlink:href="#f2eTLumOX" opacity="1" fill="#000000" fill-opacity="1"></use></g><g><use xlink:href="#a3LAJ0dXwV" opacity="1" fill="#000000" fill-opacity="1"></use></g><g><use xlink:href="#a5K0ME8ofn" opacity="1" fill="#000000" fill-opacity="1"></use></g><g><use xlink:href="#b16MyMULd0" opacity="1" fill="#000000" fill-opacity="1"></use></g><g><use xlink:href="#gMdEf2nYC" opacity="1" fill="#dbdbdb" fill-opacity="1"></use></g><g><use xlink:href="#a1TKTHzO0M" opacity="1" fill="#786958" fill-opacity="1"></use></g><g><use xlink:href="#k16rqMlX6f" opacity="1" fill="#000000" fill-opacity="1"></use></g><g><use xlink:href="#a27s4kBLqf" opacity="1" fill="#cac3b0" fill-opacity="1"></use></g><g><use xlink:href="#bpsXJVXyF" opacity="1" fill="#2b9b64" fill-opacity="1"></use></g></g></g></svg>