<?xml version="1.0" encoding="UTF-8" standalone="no"?>
<!DOCTYPE svg PUBLIC "-//W3C//DTD SVG 1.1//EN" "http://www.w3.org/Graphics/SVG/1.1/DTD/svg11.dtd">
<svg version="1.1" xmlns="http://www.w3.org/2000/svg" xmlns:xlink="http://www.w3.org/1999/xlink" preserveAspectRatio="xMidYMid meet" viewBox="206.6432062561097 171.5128677583716 183.4000000000001 222.70000000000005" width="183.4" height="222.7"><defs><path d="M206.64 171.51L390.04 171.51L390.04 394.21L206.64 394.21L206.64 171.51Z" id="b5mKKLk0c"></path><path d="M280.54 257.61L282.51 270.31L288.43 277.95L313.46 271.05L333.31 256.62L350.08 231.94L330.5 236.13L335.8 224.29L316.32 231.94L318.54 220.59L316.32 200.49L310.03 176.57L292.77 195.68L286.11 215.54L270.2 197.66L252.32 184.96L256.94 204.81L272.95 236.43L280.54 257.61Z" id="b2tf0Lwjr"></path><path d="M269.59 229.79L267.37 238.62L271.43 239.65L281.29 221.14L323.91 195.71L277.23 262L289.76 277.18L323.91 297.16L310.47 302.83L297.53 324.37L301.2 324.37L313.43 335.01L317.87 335.5L321.2 339.08L320 344.38L314.67 349.93L311.09 361.52L307.64 362.88L305.05 360.53L312.08 339.08L298.76 334.02L293.95 360.04L296.05 364.85L295.31 369.41L289.39 374.59L289.76 379.65L286.8 383.35L282.11 383.96L289.39 365.34L289.39 329.54L282.11 323.26L282.61 319.56L296.05 296.74L291.73 295.76L283.96 284.66L280.39 284.66L268.6 320.3L269.59 328.31L264.51 331.76L257.7 327.94L257.45 324.37L262.63 320.3L264.51 312.03L257.7 319.19L255.23 324.37L248.57 323.26L245.86 317.58L249.31 313.51L254.12 313.88L268.6 298.09L269.59 272.69L272.27 269.32L265.49 268.21L257.11 265.25L251.44 255.02L253.29 243.8L249.59 240.59L237.75 242.07L236.76 238.62L244.28 237.14L237.75 234.67L240.71 229.99L256.12 236.77L264.51 219.51L269.59 229.79Z" id="a1DaV5h6z"></path><path d="M278.09 206.27L284.32 192.43L274.46 202.64L278.09 206.27Z" id="e1DDachj57"></path></defs><g><g><g><use xlink:href="#b5mKKLk0c" opacity="1" fill="#9b7647" fill-opacity="1"></use></g><g><use xlink:href="#b2tf0Lwjr" opacity="1" fill="#aeaeae" fill-opacity="1"></use></g><g><use xlink:href="#a1DaV5h6z" opacity="1" fill="#6babad" fill-opacity="1"></use></g><g><use xlink:href="#e1DDachj57" opacity="1" fill="#6babad" fill-opacity="1"></use></g></g></g></svg>